<svg xmlns="http://www.w3.org/2000/svg" viewBox="0 0 93 75.39"><title>tolltip-note</title><g id="Слой_2" data-name="Слой 2"><g id="Layer_4" data-name="Layer 4"><polygon points="93 75.39 74.18 45.49 0 45.49 0 0 93 0 93 75.39" fill="#70411d"/><path d="M44.84,27.36q-.64,0-.76-1.27Q43,15.19,43,12.11a2.34,2.34,0,0,1,1.82-.73,2.23,2.23,0,0,1,1.73.73q0,3.09-1.06,14Q45.35,27.36,44.84,27.36Zm1.1,5.31a1.69,1.69,0,0,1-1.1.65,1.7,1.7,0,0,1-1.14-.65,1.82,1.82,0,0,1-.62-1.17,1.85,1.85,0,0,1,.62-1.23,1.7,1.7,0,0,1,1.14-.65,1.65,1.65,0,0,1,1.12.65,1.88,1.88,0,0,1,.61,1.23A1.82,1.82,0,0,1,45.94,32.68Z" fill="#fff"/></g></g></svg>