<svg fill="#de5800" xmlns="http://www.w3.org/2000/svg" width="25.602" height="18.754" viewBox="0 0 25.602 18.754"><path d="M25.59 2.387l-1.164-.399.008-1S21.864 0 18.602 0c-2.742 0-5.059.703-5.801.957A18.853 18.853 0 0 0 7.004 0C3.742 0 1.285.969 1.285.969l.012 1.113L0 2.426l.008 16.328.867-.367c.031-.012 2.953-1.227 5.648-1.227 2.313 0 5.016.68 5.829.901l.543.153.507-.16c.73-.223 3.133-.895 5.398-.895 2.676 0 5.914 1.223 5.949 1.234l.852.324-.011-16.33zM12.203 16.465c-1.16-.305-3.367-.801-5.367-.801-1.949 0-3.941.473-5.027.781V2.168c1.054-.281 2.867-.672 4.894-.672 2.485 0 4.664.586 5.5.84v14.129zm11.598 0c-1.16-.305-3.371-.801-5.371-.801-1.868 0-3.766.434-4.875.738V2.336c.82-.254 2.965-.84 5.422-.84 1.996 0 3.777.387 4.82.668v14.301h.004zm0 0"/><path d="M15.445 3.953c.02 0 1.848-.336 3.699-.336 1.848 0 3.504.332 3.52.336l.145-.484a20.352 20.352 0 0 0-3.664-.348c-1.918 0-3.754.332-3.828.348l.128.484zm0 0M22.664 5.316l.145-.484a20.149 20.149 0 0 0-3.664-.352c-1.918 0-3.75.336-3.828.352l.129.488c.02-.004 1.848-.34 3.699-.34 1.847 0 3.503.332 3.519.336zm0 0M15.445 6.617c.02-.004 1.848-.336 3.699-.336 1.848 0 3.504.332 3.52.336l.145-.484a20.149 20.149 0 0 0-3.664-.352c-1.918 0-3.754.336-3.832.352l.132.484zm0 0M19.145 7.645c1.848 0 3.504.332 3.52.335l.145-.484c-.07-.016-1.742-.351-3.664-.351s-3.754.335-3.832.351l.133.484c.018-.003 1.842-.335 3.698-.335zm0 0M19.145 8.961c1.848 0 3.504.332 3.52.336l.145-.485c-.07-.011-1.742-.347-3.664-.347a23.85 23.85 0 0 0-3.832.347l.133.489c.018-.004 1.846-.34 3.698-.34zm0 0M19.145 9.824c-1.918 0-3.754.336-3.832.352l.133.484c.016 0 1.844-.336 3.699-.336 1.848 0 3.504.332 3.52.336l.145-.484a20.207 20.207 0 0 0-3.665-.352zm0 0M15.316 11.473l.129.484c.02 0 1.848-.336 3.699-.336 1.848 0 3.504.332 3.52.336l.145-.484a20.352 20.352 0 0 0-3.664-.348 23.057 23.057 0 0 0-3.829.348zm0 0M15.316 12.766l.129.488c.02-.004 1.848-.34 3.699-.34 1.848 0 3.504.336 3.52.336l.145-.484c-.07-.012-1.742-.348-3.664-.348-1.918 0-3.754.332-3.829.348zm0 0M15.316 14.145l.129.488c.02-.004 1.848-.336 3.699-.336 1.848 0 3.504.332 3.52.336l.145-.484a20.149 20.149 0 0 0-3.664-.352c-1.918 0-3.754.336-3.829.348zm0 0M6.582 5.68c-.117-.004-.23-.012-.344-.016-.406-.019-.746.324-.793.715a2.052 2.052 0 0 0-.781.383c-.207.172-.289.441-.269.703-.672.191-1.133.562-.965 1.273h-.309l1.824 3.903h4.532l1.824-3.903h-.289c-.039-.304-.219-.586-.563-.652.008-.024.02-.047.031-.074.239-.664-.257-1-.8-1.149a.946.946 0 0 0-.211-.672c-.129-.152-.324-.25-.547-.304a.676.676 0 0 0-.36-.492c-.101-.055-.207-.106-.308-.161-.047-.023-.09-.047-.133-.07-.176-.723-1.348-.922-1.539-.051a1.202 1.202 0 0 0 0 .567zm-1.277 6.718L4.094 9.117l.277-.004 1.215 3.266-.281.019zm.742-.015l-.621-3.246.254-.008.648 3.254h-.281zm3.98-3.27l.266.016-1.18 3.273-.277-.02 1.191-3.269zm-1.168-.004l.262.02-.676 3.27-.25.008.664-3.298zm-1.171.02l.25.016-.184 3.238h-.238l.172-3.254zm-.844-.02l.215 3.266-.25.016-.215-3.266.25-.016zm0 0"/></svg>