<?xml version="1.0" encoding="utf-8"?>
<!-- Generator: Adobe Illustrator 16.2.0, SVG Export Plug-In . SVG Version: 6.00 Build 0)  -->
<!DOCTYPE svg PUBLIC "-//W3C//DTD SVG 1.1//EN" "http://www.w3.org/Graphics/SVG/1.1/DTD/svg11.dtd">
<svg version="1.1" id="Слой_1" xmlns="http://www.w3.org/2000/svg" xmlns:xlink="http://www.w3.org/1999/xlink" x="0px" y="0px"
	 width="71px" height="69.7px" viewBox="0 0 71 69.7" style="enable-background:new 0 0 71 69.7;" xml:space="preserve">
<g>
	<g>
		<path class="st2" style="fill:none;stroke:#505B68;stroke-width:2;stroke-linecap:round;stroke-linejoin:round;stroke-miterlimit:10;" d="M48.4,52.7v-9.2h7.5c2.9,0,5.2,2.1,5.2,4.6l0,0c0,2.5-2.3,4.6-5.2,4.6H45.5"/>
		<line class="st2" style="fill:none;stroke:#505B68;stroke-width:2;stroke-linecap:round;stroke-linejoin:round;stroke-miterlimit:10;" x1="48.4" y1="52.7" x2="48.4" y2="60.3"/>
		<line class="st2" style="fill:none;stroke:#505B68;stroke-width:2;stroke-linecap:round;stroke-linejoin:round;stroke-miterlimit:10;" x1="57.5" y1="57.2" x2="45.4" y2="57.2"/>
	</g>
	<path class="st0" style="fill:none;stroke:#08AB8A;stroke-width:2;stroke-linecap:round;stroke-linejoin:round;stroke-miterlimit:10;" d="M29.2,62c-3-1.3-9.6-4.4-14.6-8.2C9.4,49.9,7,45.1,7,38.5"/>
	<polyline class="st1" style="fill:none;stroke:#08AB8A;stroke-width:3;stroke-linecap:round;stroke-linejoin:round;stroke-miterlimit:10;" points="21.5,25 29.2,19.4 29.2,51 	"/>
	<path class="st1" style="fill:none;stroke:#08AB8A;stroke-width:3;stroke-linecap:round;stroke-linejoin:round;stroke-miterlimit:10;" d="M54.7,34.5c0-7.2,0.3-13.6,0.1-20C43.7,10.8,38.4,8,28.2,1.5C18.1,8,12.7,10.8,1.6,14.6c-0.2,7.6,0,16.3,0,25
		c0,8.6,3.6,14.5,9.3,18.8c6.2,4.7,14.3,8.2,16.7,9.2c0.4,0.2,0.9,0.2,1.3,0c1.7-0.7,6.1-2.2,10.9-5"/>
	<circle class="st2" style="fill:none;stroke:#505B68;stroke-width:2;stroke-linecap:round;stroke-linejoin:round;stroke-miterlimit:10;" cx="53.2" cy="51.9" r="16.7"/>
</g>
</svg>
