<svg xmlns="http://www.w3.org/2000/svg" viewBox="0 0 22 28"><title>Ресурс 4</title><g id="Слой_2" data-name="Слой 2"><g id="checkout_1000px_4" data-name="checkout 1000px 4"><path d="M19.19,2a.81.81,0,0,1,.81.81V25.19a.81.81,0,0,1-.81.81H2.81A.81.81,0,0,1,2,25.19V2.81A.81.81,0,0,1,2.81,2H19.19m0-2H2.81A2.81,2.81,0,0,0,0,2.81V25.19A2.81,2.81,0,0,0,2.81,28H19.19A2.81,2.81,0,0,0,22,25.19V2.81A2.81,2.81,0,0,0,19.19,0Z" style="fill:#fff"/><path d="M4.1,21.38" style="fill:none;stroke:#fff;stroke-linecap:round;stroke-linejoin:round;stroke-width:2px"/><line x1="1.31" y1="8.42" x2="20.69" y2="8.42" style="fill:none;stroke:#fff;stroke-linecap:round;stroke-linejoin:round;stroke-width:2px"/><line x1="6.72" y1="20.58" x2="8.68" y2="20.58" style="fill:none;stroke:#fff;stroke-linecap:round;stroke-linejoin:round;stroke-width:2px"/><line x1="13.32" y1="20.58" x2="15.28" y2="20.58" style="fill:none;stroke:#fff;stroke-linecap:round;stroke-linejoin:round;stroke-width:2px"/><line x1="6.72" y1="14.5" x2="8.68" y2="14.5" style="fill:none;stroke:#fff;stroke-linecap:round;stroke-linejoin:round;stroke-width:2px"/><line x1="13.32" y1="14.5" x2="15.28" y2="14.5" style="fill:none;stroke:#fff;stroke-linecap:round;stroke-linejoin:round;stroke-width:2px"/></g></g></svg>