<svg xmlns="http://www.w3.org/2000/svg" viewBox="0 0 100 112.3"><title>Ресурс 3</title><g id="Слой_2" data-name="Слой 2"><g id="checkout_1000px_4-2" data-name="checkout 1000px 4-2"><path id="_Контур_" data-name="&lt;Контур&gt;" d="M0,33.08V79.22a10,10,0,0,0,5,8.66L45,111a10,10,0,0,0,10,0L95,87.88a10,10,0,0,0,5-8.66V33.08a10,10,0,0,0-5-8.66L55,1.34a10,10,0,0,0-10,0L5,24.42A10,10,0,0,0,0,33.08Z" style="fill:#808d9b;fill-opacity:0.30000000000000004"/><g style="opacity:0.2"><path d="M80.53,33.08A3,3,0,0,0,78,31.73H22a3,3,0,0,0-1.7.52,3.08,3.08,0,0,0-.82.82,3,3,0,0,0-.52,1.7V72.53a3.05,3.05,0,0,0,3,3H43v6.8H33.32a1.44,1.44,0,0,0-1.44,1.44V84a1.44,1.44,0,0,0,1.44,1.44H66.68A1.44,1.44,0,0,0,68.12,84v-.21a1.44,1.44,0,0,0-1.44-1.44H57v-6.8H78a3.05,3.05,0,0,0,3-3V34.78A3,3,0,0,0,80.53,33.08Z" style="fill:#4f5a67"/></g><path d="M69.33,34.55c-8.08-2.74-12-4.77-19.33-9.48-7.37,4.72-11.24,6.74-19.33,9.48-.17,5.52,0,14.14,0,20.41a16.08,16.08,0,0,0,6.77,13.68A68.65,68.65,0,0,0,50,75.43a68.65,68.65,0,0,0,12.55-6.79A16.08,16.08,0,0,0,69.33,55C69.33,48.69,69.5,40.07,69.33,34.55Z" style="fill:none;stroke:#00ab8a;stroke-linecap:round;stroke-miterlimit:10;stroke-width:3px"/><path d="M59.18,52.47a24.54,24.54,0,0,1-19-.24" style="fill:none;stroke:#4f5a67;stroke-linecap:round;stroke-miterlimit:10;stroke-width:3px"/><path d="M59.18,58.51a24.54,24.54,0,0,1-19-.24" style="fill:none;stroke:#4f5a67;stroke-linecap:round;stroke-miterlimit:10;stroke-width:3px"/><ellipse cx="49.67" cy="44.61" rx="9.52" ry="3.63" style="fill:none;stroke:#4f5a67;stroke-linecap:round;stroke-miterlimit:10;stroke-width:3px"/></g></g></svg>