<svg xmlns="http://www.w3.org/2000/svg" viewBox="0 0 93 75.39"><title>tooltip-man</title><g id="Слой_2" data-name="Слой 2"><g id="Layer_4" data-name="Layer 4"><polygon points="93 75.39 74.18 45.49 0 45.49 0 0 93 0 93 75.39" fill="#ae672f"/><path d="M50.71,23.12V25.2c7.93,4.56,12,2.23,12,12.5H30.33c0-10.66,4-7.94,11.85-12.5V23.36c-1.39-.94-1.69-2.73-2.13-4.61H40c-.2,0-.4-.3-.4-.74v-.1a4.89,4.89,0,0,1-.35-.94c-.15-.55-.69-1.69-.2-2.23a.41.41,0,0,1,.64,0c-.59-3-1.34-7,2.83-8.18,0-2.58,9.77-1.39,11,2.73.54,1.59-.15,5.41-.15,5.41a.37.37,0,0,1,.54-.2c.5.4-.1,1.93-.2,2.43a3.34,3.34,0,0,1-.4,1v0c0,.45-.2.74-.4.74-.4,1.64-.84,3.47-2.18,4.37Z" fill="#fff"/></g></g></svg>