<svg xmlns="http://www.w3.org/2000/svg" viewBox="0 0 93 75.39"><title>tooltip-pointer</title><g id="Слой_2" data-name="Слой 2"><g id="Layer_4" data-name="Layer 4"><polygon points="93 75.39 74.18 45.49 0 45.49 0 0 93 0 93 75.39" fill="#d8944e"/><path d="M44.82,35.75H42.63c-3.19,0-3.39,2.14-3.39,2.79V39a1.14,1.14,0,0,0,1.15,1.19H52.29A1.18,1.18,0,0,0,53.48,39v-.45c0-.65-.25-2.79-3.39-2.79H47.56V35.4h0l.1-7.82H44.87Z" fill="#fff" fill-rule="evenodd"/><path d="M33.91,24.59,36.3,22.3H51.94l.4.4v.05L50,24.89c.8.7,2.49,1.79,1.89,2.54H36.3l-2.39-2.29Z" fill="#fff" fill-rule="evenodd"/><rect x="44.87" y="7.25" width="2.74" height="3.14" fill="#fff"/><path d="M58,13.63l-3-2.89H34.8l-.5.5h0l3,2.74c-1,.9-3.24,2.34-2.49,3.29H54.93l3-2.94Z" fill="#fff" fill-rule="evenodd"/><rect x="44.87" y="17.61" width="2.74" height="4.53" fill="#fff"/></g></g></svg>