<svg xmlns="http://www.w3.org/2000/svg" viewBox="0 0 93 75.39"><title>tooltip-map</title><g id="Слой_2" data-name="Слой 2"><g id="Layer_4" data-name="Layer 4"><polygon points="93 75.39 74.18 45.49 0 45.49 0 0 93 0 93 75.39" fill="#d77d28"/><path d="M31.14,25.84a4.61,4.61,0,0,1,.67-2.56c1.34,1.89,2.56,3.68,3.45,4.79l.56.67.56-.67c.78-1,1.89-2.56,3.12-4.45a5,5,0,0,1,.45,2.23,4.4,4.4,0,1,1-8.79,0Zm3,13.47-6.46-1.23,1-6,2.9-2.45A4.9,4.9,0,0,0,35,31.29ZM22.57,37.08,24,24.61l6,.89v.33a6.36,6.36,0,0,0,1.11,3.45l-3,2.45-1,6.23Zm8.68-14.81a5.65,5.65,0,0,0-1,1.78l-6-.89L22.68,9.69l4.12,1.67v.78c0,2.45,2.11,6.57,4.45,10.13Zm16.59.56-7.13,1.11a2.47,2.47,0,0,0-.56-1.22,53.81,53.81,0,0,0,3.78-6.9l4.45-.56ZM49.07,7.91l-.55,6.68-4.34.67a9.24,9.24,0,0,0,.67-3.12,5.83,5.83,0,0,0-.22-2Zm1.56-.78,11.69,4.45-.78,6.35-.78,6.12L49.29,22.72,49.85,15Zm0,29.5L49.41,24.06h.11L60.65,25.5l1.67,13.81c-16.47-3.79-4.79-1.12-11.69-2.67ZM35.82,7.8h0a4.06,4.06,0,1,0,0,8.13h0a4.06,4.06,0,1,0,0-8.13Zm0-4h0a8.36,8.36,0,0,0-8.46,8.35c0,4.68,8.46,15.59,8.46,15.59h0c.33-.56,8.35-11,8.35-15.59a8.34,8.34,0,0,0-8.35-8.35Zm-.11,35.74H35.6l.89-8.24a5.61,5.61,0,0,0,4.56-5.46v-.44L48,24.28l.56,5.9L49.18,37l-9,1.78Z" fill="#fff" fill-rule="evenodd"/><path d="M27.36,12.14c0,4.68,8.46,15.59,8.46,15.59h0c.33-.56,8.35-11,8.35-15.59a8.34,8.34,0,0,0-8.35-8.35h0a8.36,8.36,0,0,0-8.46,8.35Zm12.58-.33a4,4,0,0,1-4.12,4.12h0a4.06,4.06,0,1,1,0-8.13h0a4,4,0,0,1,4.12,4Z" fill="#3ba2b4" fill-rule="evenodd"/></g></g></svg>