<?xml version="1.0" encoding="UTF-8"?>
<svg width="18px" height="28px" viewBox="0 0 18 28" version="1.1" xmlns="http://www.w3.org/2000/svg" xmlns:xlink="http://www.w3.org/1999/xlink">
    <defs></defs>
    <g id="Page-1" stroke="none" stroke-width="1" fill="none" fill-rule="evenodd">
        <g id="baikal-2" transform="translate(-1086.000000, -775.000000)" fill-rule="nonzero" fill="#000000">
            <g id="icons_marsh-walk-copy" transform="translate(1086.000000, 775.000000)">
                <g id="Layer_1">
                    <g id="Group">
                        <path d="M14.3211429,17.879697 C14.3074286,17.8593333 14.2954286,17.8368485 14.2817143,17.8173333 C14.2628571,17.7884848 14.2371429,17.7613333 14.2165714,17.7324848 C13.8557143,17.2598788 13.3058571,16.8666061 12.4688571,16.5666667 C11.4707143,16.2090303 10.5107143,15.8004848 9.48857143,15.54 C9.069,16.3091515 8.50071429,17.3188485 8.05371429,18.159697 C8.13085714,18.212303 8.78485714,18.3073333 8.87528571,18.3226061 C13.449,19.0815758 11.5645714,21.8620606 11.4617143,24.6022424 C11.4154286,25.8321212 11.4205714,27.4421212 12.7984286,27.9134545 C13.2638571,28.0725455 13.8874286,27.7352727 13.9795714,27.2495152 C14.0498571,26.878303 14.1368571,26.4905455 14.2311429,26.0917576 C14.3044286,25.3548485 14.325,24.5903636 14.4004286,24.0248485 C14.5337143,23.0295758 14.7257143,22.0215758 14.7938571,21.0203636 C14.8692857,19.9355758 14.8658571,18.9920606 14.5062857,18.2190909 C14.4475714,18.1049697 14.391,17.9895758 14.3211429,17.879697 Z" id="Shape"></path>
                        <path d="M3.78128571,13.7484242 C5.35285714,13.3330909 5.82342857,9.96630303 6.14828571,8.55484848 C6.39514286,7.4870303 7.386,5.8770303 7.10871429,4.74387879 C6.89957143,3.88648485 5.64342857,3.47836364 4.293,3.49024242 C2.84314286,3.51569697 2.37042857,6.35387879 2.26757143,7.73309091 C2.19771429,8.68212121 1.86728571,14.2553939 3.78128571,13.7484242 Z" id="Shape"></path>
                        <path d="M17.3164286,10.6849697 L17.3164286,10.6544242 C17.3198571,10.4087879 17.3301429,10.1648485 17.3575714,9.92218182 C17.3832857,9.70030303 17.3438571,9.48690909 17.2461429,9.32951515 C17.3352857,8.81787879 16.818,8.27739394 16.4365714,8.72963636 C16.1027143,9.12757576 15.9364286,9.78175758 15.858,10.5246061 C15.3188571,10.4287273 14.7934286,10.2755758 14.2954286,10.0307879 C14.1411429,9.95612121 13.9294286,9.73084848 13.6894286,9.42412121 C13.6277143,9.3829697 13.566,9.33418182 13.5098571,9.27012121 C12.9158571,8.61212121 12.3715714,7.9129697 11.7844286,7.24818182 C11.6494286,7.09418182 11.5311429,6.93636364 11.4214286,6.77557576 C11.0172857,6.32163636 10.716,5.82145455 10.4764286,5.25890909 C12.6711429,4.92715152 11.9382857,0.472181818 10.0178571,0.168848485 C8.81228571,-0.210848485 7.40357143,0.272787879 7.467,2.03424242 C7.48071429,2.40036364 7.52014286,2.75969697 7.59042857,3.1050303 C7.86642857,4.45581818 7.94314286,5.61612121 7.32514286,6.97539394 C6.78942857,8.15436364 6.60257143,9.47460606 6.231,10.708303 C6.13714286,11.0213939 5.50842857,12.7094545 5.41628571,13.0513939 C4.52442857,15.1242424 3.939,15.7372727 3.07457143,17.8215758 C2.00828571,20.3954545 1.48285714,21.5964848 0.495,24.2861818 C0.123857143,25.2941818 -0.0287142857,26.724303 0.412714286,27.0785455 C1.42457143,27.9104848 2.06142857,26.8426667 2.205,26.6496364 C2.655,26.0463636 9.11014286,15.5183636 11.3065714,9.80806061 C11.9194286,10.4554545 12.8472857,11.3332121 13.1502857,11.4685455 C14.3515714,12.0124242 15.8892857,12.027697 17.1865714,12.04 C18.0402857,12.0484848 18.075,10.8372727 17.3164286,10.6849697 Z" id="Shape"></path>
                        <path d="M15.8648571,12.4230909 C15.846,13.5413939 15.9467143,14.7004242 15.9574286,15.4241818 C16.014,19.3857576 16.4198571,23.311697 16.4897143,27.2669091 C16.5034286,28.0852727 17.448,28.0886667 17.448,27.2669091 C17.445,22.344 17.4051429,17.4219394 17.3931429,12.5007273 C16.8818571,12.4926667 16.3735714,12.4710303 15.8648571,12.4230909 Z" id="Shape"></path>
                    </g>
                </g>
            </g>
        </g>
    </g>
</svg>