<?xml version="1.0" encoding="UTF-8"?>
<svg width="30px" height="24px" viewBox="0 0 30 24" version="1.1" xmlns="http://www.w3.org/2000/svg" xmlns:xlink="http://www.w3.org/1999/xlink">
    <defs></defs>
    <g id="Page-1" stroke="none" stroke-width="1" fill="none" fill-rule="evenodd">
        <g id="baikal-2" transform="translate(-1089.000000, -626.000000)" fill-rule="nonzero" fill="#000000">
            <g id="icons_marsh-car" transform="translate(1089.000000, 626.000000)">
                <g id="Layer_1">
                    <g id="Group">
                        <path d="M26.15625,16.0762759 C24.7025,16.1093793 23.3775,16.4515862 22.5654167,17.8663448 C21.6275,19.4946207 22.2641667,22.1718621 23.70125,23.2626207 C25.5120833,24.6376552 27.87375,23.8543448 29.0979167,22.5914483 C30.10625,21.552 30.0258333,19.5571034 29.2758333,18.2201379 C28.5433333,16.9108966 27.3625,16.0464828 26.15625,16.0762759 Z" id="Shape"></path>
                        <path d="M1.41125,16.8943448 C0.30625,17.7422069 0.205416667,19.9108966 0.694583333,21.3566897 C1.17291667,22.7731034 2.21666667,23.4790345 3.34833333,23.6606897 C4.71125,23.8808276 6.38541667,23.5928276 7.36916667,22.3452414 C8.50083333,20.9023448 7.95,17.9126897 6.61833333,16.7673103 C5.14625,15.5011034 2.75583333,15.8648276 1.41125,16.8943448 Z" id="Shape"></path>
                        <path d="M24.9504167,14.7062069 C27.3054167,14.6586207 27.9366667,15.4386207 28.6933333,15.7588966 C29.4504167,16.0795862 30.6704167,13.8335172 29.3241667,13.0551724 C29.3116667,13.0468966 29.2925,13.041931 29.2804167,13.0344828 C29.34625,12.5172414 29.3808333,12.0049655 29.3295833,11.5195862 C28.8733333,7.26041379 23.8175,8.62055172 21.2879167,7.90841379 C20.1779167,7.59765517 20.1420833,3.92855172 19.8616667,2.92841379 C19.5308333,1.74662069 18.8458333,0.611172414 17.7116667,0.229241379 C16.505,-0.177103448 15.13875,0.0955862069 13.90625,0.181655172 C11.57375,0.343448276 10.3108333,-0.135724138 7.66125,0.140275862 C6.23583333,0.287172414 4.59083333,0.203172414 3.32875,0.964965517 C2.07208333,1.7217931 1.04958333,4.45241379 0.781666667,5.88372414 C0.274166667,8.58662069 -0.199166667,12.4812414 0.259166667,15.3968276 C0.285416667,16.3415172 0.2225,16.7428966 0.595416667,16.5405517 C1.10041667,16.2645517 1.47916667,14.9354483 4.00291667,15.0264828 C6.52666667,15.1191724 7.95708333,15.4394483 8.54541667,17.2262069 C9.13458333,19.0129655 8.91166667,20.0971034 10.7054167,20.1037241 C11.6466667,20.1070345 13.77125,20.1471724 15.7916667,20.2113103 C15.9720833,20.2224828 16.1529167,20.2295172 16.3341667,20.2427586 C17.2779167,20.3164138 18.73,20.3586207 19.8504167,20.4078621 C19.92875,20.4153103 20.0091667,20.4227586 20.0716667,20.4310345 C21.5445833,20.6143448 20.7025,19.6986207 21.2491667,17.7748966 C21.795,15.8515862 22.59375,14.7504828 24.9504167,14.7062069 Z M11.0983333,2.20137931 C11.76875,2.21793103 12.4420833,2.2742069 13.1133333,2.19310345 C14.0279167,2.07931034 15.05125,2.07268966 15.9616667,2.40165517 C17.23375,2.86427586 17.31625,4.30717241 17.5558333,5.56344828 C17.7291667,6.4742069 18.41125,8.568 17.4045833,9.16137931 C16.8454167,9.49034483 16.055,9.46882759 15.4383333,9.52634483 C14.7054167,9.59751724 14.1141667,9.61737931 13.38125,9.66868966 C12.3233333,9.73944828 11.5270833,9.77586207 10.7741667,9.77958621 C10.6754167,7.27531034 11.03,4.71351724 11.0983333,2.20137931 Z M4.5475,3.39310345 C5.065,2.89406897 5.33041667,2.7417931 5.97791667,2.57006897 C7.04416667,2.27917241 8.59583333,2.51048276 9.67916667,2.29406897 C9.815,2.26593103 9.95041667,2.24606897 10.0870833,2.23324138 C10.0170833,4.72675862 9.66791667,7.27241379 9.76416667,9.76137931 C8.75375,9.72 7.65041667,9.61572414 5.93625,9.43903448 C5.89291667,9.43737931 3.26666667,9.4142069 3.25333333,9.38275862 C3.16208333,9.39434483 3.06625,9.33806897 3.07541667,9.21062069 C3.19958333,7.52648276 3.3,4.59310345 4.5475,3.39310345 Z" id="Shape"></path>
                    </g>
                </g>
            </g>
        </g>
    </g>
</svg>