<svg xmlns="http://www.w3.org/2000/svg" width="90" height="101.2" viewBox="0 0 90 101.2"><path d="M4.5 79.2l36 20.8c2.8 1.6 6.2 1.6 9 0l36-20.8c2.8-1.6 4.5-4.6 4.5-7.8V29.8c0-3.2-1.7-6.2-4.5-7.8l-36-20.8c-2.8-1.6-6.2-1.6-9 0L4.5 22C1.7 23.6 0 26.6 0 29.8v41.6c0 3.2 1.7 6.2 4.5 7.8z" opacity=".15" fill="#08ab8a"/><g fill="none" stroke="#08ab8a" stroke-width="3" stroke-miterlimit="10"><path d="M77.5 66.8c0-2.7.1-10.1-.1-13.5-.2-4.5-.9-6.3-3.1-8.6.6 0 1.3-.1 2.2-.1 3.1-.1 2.4-2.3 2.3-3.3-.1-1 0-2.8-3.2-2.6-3.3.2-1.8.1-3.3.2-1.3.1-2.4.3-2.9.8-2.5-2.9-4.4-5.5-4.4-5.5-3.3-3.9-5.6-6.1-10.2-6.4 0 0-4.2-.2-7.9-.3v-.1h-4.2v.1c-3.6.1-7.9.3-7.9.3-4.5.4-6.9 2.5-10.2 6.4 0 0-2 2.7-4.5 5.5-.5-.4-1.3-.7-2.5-.8-1.5-.1 0 0-3.3-.2s-3.1 1.7-3.2 2.6c-.1.9-.9 3.1 2.3 3.3.8 0 1.4.1 2 .1-2.2 2.3-2.9 4.2-3.1 8.6-.1 3.4-.1 10.7-.1 13.5" stroke-linecap="round" stroke-linejoin="round"/><path d="M20.2 39.6c2.5 1.5 7 1.3 7 1.3h19" stroke-linecap="round" stroke-linejoin="round"/><path d="M69 39.6c-2.5 1.5-7 1.3-7 1.3H43" stroke-linecap="round" stroke-linejoin="round"/><path d="M29.9 55.6H19.6c-1.1 0-2.1-.9-2.1-2.1v-2.4c0-1.1.9-2.1 2.1-2.1h9.1c1.6 0 2.5 1 2.8 2.1.3.7.5 1.2.5 1.2.7 2.1-.2 3.3-2.1 3.3zM60.1 55.6h10.3c1.1 0 2.1-.9 2.1-2.1v-2.4c0-1.1-.9-2.1-2.1-2.1h-9.1c-1.6 0-2.5 1-2.8 2.1-.3.7-.5 1.2-.5 1.2-.7 2.1.2 3.3 2.1 3.3z"/><path d="M51.9 55.6H38.5c-1.4 0-2.5.9-2.9 2.2l-2.4 8.8h24l-2.4-8.8c-.3-1.3-1.5-2.2-2.9-2.2zM48.5 21.6H41c-1.8 0-3.5 1-4 2.5l-1.9 3.2h19.3l-1.9-3.2c-.5-1.5-2.1-2.5-4-2.5zM23.8 49.1l1.5 6.5M66.7 49.1l-1.6 6.5" stroke-linecap="round" stroke-linejoin="round"/><g stroke-linecap="round" stroke-linejoin="round"><path d="M29 60.8h-6c-2.5 0-2.9.1-4.6 1.2-1.5 1.1-1.7 4.5-1.7 4.5h10.8l1.5-5.7zM60.6 60.8h6c2.5 0 2.9.1 4.6 1.2 1.5 1.1 2.1 4.5 2.1 4.5H62.2l-1.6-5.7z"/></g></g><path fill="#08ab8a" d="M29.9 77.3l1.8 3.7 4.1.5-3 2.9.7 4.1-3.6-1.9-3.7 1.9.7-4.1-2.9-2.9 4-.5zM43.7 77.3l1.9 3.7 4 .5-2.9 2.9.7 4.1-3.7-1.9-3.6 1.9.7-4.1-3-2.9 4.1-.5zM57.6 77.3l1.8 3.7 4.1.5-3 2.9.7 4.1-3.6-1.9-3.7 1.9.7-4.1-2.9-2.9 4.1-.5z"/></svg>