<svg xmlns="http://www.w3.org/2000/svg" width="90" height="101.2" viewBox="0 0 90 101.2"><path d="M72.6 38.1C68.5 36.8 60.9 35 60.9 35c-3.4-2.6-6.1-4.9-8.4-6-1-.4-4-1.4-9.6-1.6-6.7-.3-9.9 0-12.5 1.6-1.8 1.1-4 2.4-6.6 4.3-.5.4-.9.5-1.5.6-1.2.2-1.9.2-3 .3-2.4.2-3.5 1.2-3.9 4.3-.3 1.7-.3 2.5-.4 4.7-.2 3.1.3 4.1 1.4 4.7 1.4.7 4 .9 4.6.9-.2-.6-.3-1.2-.3-1.8-.1-3.3 2.4-6 5.7-6.1 3.3-.1 6 2.4 6.1 5.7 0 .8-.1 1.5-.3 2.2h26.3c-.2-.6-.3-1.2-.3-1.8-.1-3.3 2.4-6 5.7-6.1 3.3-.1 6 2.4 6.1 5.7 0 .8-.1 1.5-.3 2.2H73c2.7 0 3-1.4 3.4-2.7.3-1.4.8-4.1.8-4.1s.3-2.3-4.6-3.9z" fill="none" stroke="#08ab8a" stroke-width="3" stroke-linecap="round" stroke-miterlimit="10"/><circle cx="26.4" cy="46.9" r="5.9" fill="none" stroke="#08ab8a" stroke-width="3" stroke-linecap="round" stroke-miterlimit="10"/><circle cx="63.8" cy="46.9" r="5.9" fill="none" stroke="#08ab8a" stroke-width="3" stroke-linecap="round" stroke-miterlimit="10"/><path d="M4.5 79.2l36 20.8c2.8 1.6 6.2 1.6 9 0l36-20.8c2.8-1.6 4.5-4.6 4.5-7.8V29.8c0-3.2-1.7-6.2-4.5-7.8l-36-20.8c-2.8-1.6-6.2-1.6-9 0L4.5 22C1.7 23.6 0 26.6 0 29.8v41.6c0 3.2 1.7 6.2 4.5 7.8z" opacity=".15" fill="#08ab8a"/><path d="M15.3 64.7s3.5-2.3 6.1-3.5c2.6-1.3 8.2-5 13.6-3.5 6 1.7 10.4 2.1 14 2.5 1.5.1 2.1 1.2 1.3 2.6-.8 1.4-2 2.7-5.1 2.8-3.1.1-10.2-1-10.2-1" fill="none" stroke="#08ab8a" stroke-width="3" stroke-linecap="round" stroke-linejoin="round" stroke-miterlimit="10"/><path d="M50.5 63.2c.4.1.3.9 2.4-.1 1.3-.6 3.2-1.3 5.2-2.2 3.6-1.7 6.8-2.7 8.5-3.4 1.7-.6 3.8-1 4.9 0 1.1 1 1.8 1.3-.4 2.6S55.5 70.5 53.8 71.6c-1.7 1.1-4.6 3.5-8.8 2.6-4.2-.9-11.6-2.5-14.4-3.1-2.8-.6-2.6-.4-3.8.5-1.2.9-3.7 2.6-3.7 2.6" fill="none" stroke="#08ab8a" stroke-width="3" stroke-linecap="round" stroke-linejoin="round" stroke-miterlimit="10"/></svg>