<svg xmlns="http://www.w3.org/2000/svg" viewBox="0 0 24 24"><title>Ресурс 8</title><g id="Слой_2" data-name="Слой 2"><g id="checkout_1000px_2-2" data-name="checkout 1000px 2-2"><circle cx="12" cy="12" r="12" fill="#4f5a67" opacity="0.5"/><path d="M9.16,6.78h7.51A2.24,2.24,0,0,1,18.92,9V10.5a2.24,2.24,0,0,1-2.24,2.24H9.16a0,0,0,0,1,0,0v-6A0,0,0,0,1,9.16,6.78Z" fill="none" stroke="#fff" stroke-linecap="round" stroke-linejoin="round"/><path d="M6.81,7.7h2.3a0,0,0,0,1,0,0v4.12a0,0,0,0,1,0,0H6.81a1.55,1.55,0,0,1-1.55-1.55v-1A1.55,1.55,0,0,1,6.81,7.7Z" fill="none" stroke="#fff" stroke-linecap="round" stroke-linejoin="round"/><path d="M16.75,19.06H15.14a1,1,0,0,1-.93-.77l-1-5.36h3.55l1,5A1,1,0,0,1,16.75,19.06Z" fill="none" stroke="#fff" stroke-linecap="round" stroke-linejoin="round"/><polyline points="11.93 16.18 11.31 12.74 13.4 12.74" fill="none" stroke="#fff" stroke-linecap="round" stroke-linejoin="round"/><line x1="5.26" y1="9.76" x2="2.39" y2="9.76" fill="none" stroke="#fff" stroke-linecap="round" stroke-linejoin="round"/></g></g></svg>