<svg xmlns="http://www.w3.org/2000/svg" width="90" height="101.2" viewBox="0 0 90 101.2"><path fill="#08ab8a" d="M46.1 74.3l2.5 5.1 5.6.8-4.1 3.9 1 5.6-5-2.6-5 2.6.9-7-4-2.5 5.6-.8z"/><path d="M78.4 67.2c0-2.7.1-9.4-.1-12.7-.2-4.5-.9-6.3-3.1-8.6.6 0 1.3-.1 2.2-.1 3.1-.1 2.4-2.3 2.3-3.3-.1-1 0-2.8-3.2-2.6-3.3.2-1.8.1-3.3.2-1.3.1-2.4.3-2.9.8-2.5-2.9-4.4-5.5-4.4-5.5-3.3-3.9-5.6-6.1-10.2-6.4 0 0-4.2-.2-7.9-.3v-.1h-4.2v.1c-3.6.1-7.9.3-7.9.3-4.5.4-6.9 2.5-10.2 6.4 0 0-2 2.7-4.5 5.5-.5-.4-1.3-.7-2.5-.8-1.5-.1 0 0-3.3-.2s-3.1 1.7-3.2 2.6c-.1.9-.9 3.1 2.3 3.3.8 0 1.4.1 2 .1-2.2 2.3-2.9 4.2-3.1 8.6-.1 3.4-.1 10-.1 12.7" fill="none" stroke="#08ab8a" stroke-width="3" stroke-linecap="round" stroke-linejoin="round" stroke-miterlimit="10"/><path d="M21.1 40.7c2.5 1.5 7 1.3 7 1.3h19" fill="none" stroke="#08ab8a" stroke-width="3" stroke-linecap="round" stroke-linejoin="round" stroke-miterlimit="10"/><path d="M69.9 40.7c-2.5 1.5-7 1.3-7 1.3h-19" fill="none" stroke="#08ab8a" stroke-width="3" stroke-linecap="round" stroke-linejoin="round" stroke-miterlimit="10"/><path d="M3.5 79.2l37 20.8c2.8 1.6 6.2 1.6 9 0l36-20.8c2.8-1.6 4.5-4.6 4.5-7.8V29.8c0-3.2-1.7-6.2-4.5-7.8l-36-20.8c-2.8-1.6-6.2-1.6-9 0L4.6 22C-.8 25.1.1 25 .1 29.8v41.6c-.1 3.2.7 6.2 3.4 7.8z" opacity=".15" fill="#08ab8a"/><path d="M30.8 56.8H20.5c-1.1 0-2.1-.9-2.1-2.1v-2.4c0-1.1.9-2.1 2.1-2.1h9.1c1.6 0 2.5 1 2.8 2.1.3.7.5 1.2.5 1.2.7 2-.3 3.3-2.1 3.3zM60.9 56.8h10.3c1.1 0 2.1-.9 2.1-2.1v-2.4c0-1.1-.9-2.1-2.1-2.1h-9.1c-1.6 0-2.5 1-2.8 2.1-.3.7-.5 1.2-.5 1.2-.7 2 .3 3.3 2.1 3.3z" fill="none" stroke="#08ab8a" stroke-width="3" stroke-miterlimit="10"/><path d="M52.8 56.8H39.4c-1.4 0-2.5.9-2.9 2.2l-2.4 8.8h24L55.7 59c-.4-1.3-1.6-2.2-2.9-2.2zM30.2 62h-6c-2.5 0-2.9.1-4.6 1.2-1.5 1.1-1.7 4.5-1.7 4.5h10.8l1.5-5.7zM61.8 62h6c2.5 0 2.9.1 4.6 1.2 1.5 1.1 2.1 4.5 2.1 4.5H63.4L61.8 62zM28.4 56.8c-1.8 0-3.3-1.5-3.3-3.3s1.5-3.3 3.3-3.3M62.7 50.2c1.8 0 3.3 1.5 3.3 3.3s-1.5 3.3-3.3 3.3" fill="none" stroke="#08ab8a" stroke-width="3" stroke-linecap="round" stroke-linejoin="round" stroke-miterlimit="10"/><g fill="none" stroke="#08ab8a" stroke-width="3" stroke-linecap="round" stroke-linejoin="round" stroke-miterlimit="10"><path d="M24.5 24.9h11.3c1.2 0 2.4-.3 3.5-.9 0 0 1.8-1.3 3.1-1.3h7.1c1.2 0 3.1 1.3 3.1 1.3 1 .6 3.2.9 4.4.9h10.2M24.2 23l-1.5 3.8M67.5 23l1.6 3.8"/></g></svg>