<svg xmlns="http://www.w3.org/2000/svg" width="90" height="101.2" viewBox="0 0 90 101.2"><path d="M32.7 54.7h-9c-1 0-1.8-.8-1.8-1.8v-2.1c0-1 .8-1.8 1.8-1.8h7.9c1.4 0 2.1.9 2.5 1.8.2.6.4 1 .4 1 .6 1.8-.2 2.9-1.8 2.9z" fill="none" stroke="#08ab8a" stroke-width="3" stroke-miterlimit="10"/><path d="M4.5 79.2l36 20.8c2.8 1.6 6.2 1.6 9 0l36-20.8c2.8-1.6 4.5-4.6 4.5-7.8V29.8c0-3.2-1.7-6.2-4.5-7.8l-36-20.8c-2.8-1.6-6.2-1.6-9 0L4.5 22C1.7 23.6 0 26.6 0 29.8v41.6c0 3.2 1.7 6.2 4.5 7.8z" opacity=".15" fill="#08ab8a"/><path fill="none" stroke="#08ab8a" stroke-width="3" stroke-linecap="round" stroke-linejoin="round" stroke-miterlimit="10" d="M21.4 64.2h13M57.6 64.2h8.8"/><path d="M57.9 34.9v-7.7c0-4.1 3.3-7.4 7.4-7.4 4.1 0 7.4 3.3 7.4 7.4v7.7" fill="none" stroke="#08ab8a" stroke-width="3" stroke-miterlimit="10"/><path fill="none" stroke="#08ab8a" stroke-width="3" stroke-linecap="round" stroke-linejoin="round" stroke-miterlimit="10" d="M49.4 49H37.5M51.4 53.7H41M65.1 57.6c-7 0-12.7-5.7-12.7-12.7 0-4.2 2-7.9 5.1-10.2-1.7-1.7-3.4-2.6-5.9-2.8 0 0-3.4-.1-6.3-.2v-.1h-3.4v.1c-2.9.1-6.3.2-6.3.2-3.7.3-5.5 2.1-8.2 5.4 0 0-1.4 1.7-3.3 4-.3.3-1.4 0-2.3-.1-1.2-.1 0 0-2.6-.2-2.6-.1-2.5 1.4-2.6 2.2-.1.8-.7 2.6 1.8 2.7.6 0 1.2.1 1.6.1-1.8 1.9-2.4 3.5-2.5 7.2-.1 2.8 0 3.5 0 5.7 0 2.3.3 5.3 3.4 5.3V68c0 .7.3 1.6 2 1.6h5.5c1.5 0 2-.9 2-1.6v-3.8H57.1V68c0 .7.5 1.6 2 1.6h5.5c1.7 0 2-.9 2-1.6v-3.8c3.1 0 3.4-3 3.4-5.3v-2.3c-1.6.6-3.2 1-4.9 1z"/><path d="M65.1 42v0m0-3.1c-1.7 0-3 1.5-3 3.4 0 1.2.6 2.3 1.5 2.9V50h3v-4.7c.9-.6 1.6-1.7 1.6-2.9-.1-2-1.4-3.5-3.1-3.5z" fill="#08ab8a"/><circle cx="65.1" cy="44.9" r="12.7" fill="none" stroke="#08ab8a" stroke-width="3" stroke-linecap="round" stroke-linejoin="round" stroke-miterlimit="10"/></svg>