<svg xmlns="http://www.w3.org/2000/svg" viewBox="0 0 28 21"><title>Ресурс 6</title><g id="Слой_2" data-name="Слой 2"><g id="checkout_1000px_5" data-name="checkout 1000px 5"><path d="M25,2a1,1,0,0,1,1,1V18a1,1,0,0,1-1,1H3a1,1,0,0,1-1-1V3A1,1,0,0,1,3,2H25m0-2H3A3,3,0,0,0,0,3V18a3,3,0,0,0,3,3H25a3,3,0,0,0,3-3V3a3,3,0,0,0-3-3Z" fill="#00ab8a"/><line x1="4.89" y1="15.67" x2="6.93" y2="15.67" fill="none" stroke="#00ab8a" stroke-linecap="round" stroke-linejoin="round" stroke-width="2"/><line x1="4.89" y1="6.56" x2="10.28" y2="6.56" fill="none" stroke="#00ab8a" stroke-linecap="round" stroke-linejoin="round" stroke-width="2"/><line x1="10.28" y1="15.67" x2="12.32" y2="15.67" fill="none" stroke="#00ab8a" stroke-linecap="round" stroke-linejoin="round" stroke-width="2"/><line x1="15.68" y1="15.67" x2="17.72" y2="15.67" fill="none" stroke="#00ab8a" stroke-linecap="round" stroke-linejoin="round" stroke-width="2"/><line x1="21.07" y1="15.67" x2="23.11" y2="15.67" fill="none" stroke="#00ab8a" stroke-linecap="round" stroke-linejoin="round" stroke-width="2"/></g></g></svg>