<svg xmlns="http://www.w3.org/2000/svg" viewBox="0 0 60 60"><title>Ресурс 4</title><g id="Слой_2" data-name="Слой 2"><g id="checkout_1000px_3b" data-name="checkout 1000px 3b"><circle cx="30" cy="30" r="30" fill="#d03324"/><g opacity="0.2"><path d="M30,1A29,29,0,1,1,1,30,29,29,0,0,1,30,1m0-1A30,30,0,1,0,60,30,30,30,0,0,0,30,0Z"/></g><path d="M33,34.55a8.11,8.11,0,0,0-.91-1q-.5-.48-1-.87t-.91-.75a3.66,3.66,0,0,1-.67-.75,1.43,1.43,0,0,1-.26-.8,1.76,1.76,0,0,1,.36-1.06,6.22,6.22,0,0,1,.87-1q.52-.46,1-1a4.56,4.56,0,0,0,.87-1.44,5.5,5.5,0,0,0,.36-2.05,6,6,0,0,0-.61-2.64,4.67,4.67,0,0,0-1.72-2h2.11L34.59,18H27.77a14,14,0,0,0-2.92.31,6.61,6.61,0,0,0-3.66,2.21,5.84,5.84,0,0,0-1.48,3.91,5,5,0,0,0,1.66,3.84,5.69,5.69,0,0,0,4,1.53,8.9,8.9,0,0,0,1.09-.08c0,.08-.06.2-.11.34l-.13.34a1.72,1.72,0,0,0-.08.3,2.16,2.16,0,0,0,0,.37,4,4,0,0,0,1,2.33,18.51,18.51,0,0,0-2.34.21,17.8,17.8,0,0,0-2.42.56,7.52,7.52,0,0,0-2.27,1.11A5,5,0,0,0,18,39.13a3.87,3.87,0,0,0,.47,1.9,4.22,4.22,0,0,0,1.2,1.39,7.2,7.2,0,0,0,1.7.91,9.83,9.83,0,0,0,1.91.52,11.45,11.45,0,0,0,1.87.16,9.73,9.73,0,0,0,6.56-2,5.71,5.71,0,0,0,2.19-4.41,5.22,5.22,0,0,0-.26-1.66A4.65,4.65,0,0,0,33,34.55Zm-6-5.68a3,3,0,0,1-1.52-.41,4,4,0,0,1-1.22-1.06A7.55,7.55,0,0,1,23.33,26a8,8,0,0,1-.55-1.62,7.16,7.16,0,0,1-.18-1.55,4.22,4.22,0,0,1,.8-2.58,2.63,2.63,0,0,1,2.25-1.08,3,3,0,0,1,1.87.64,4.46,4.46,0,0,1,1.31,1.62,10.25,10.25,0,0,1,.74,2,8.43,8.43,0,0,1,.26,2,4.21,4.21,0,0,1-.68,2.51,2.52,2.52,0,0,1-2.2.95Zm4.32,11.73a3.07,3.07,0,0,1-1.16,1.15,5.9,5.9,0,0,1-1.57.61,7.65,7.65,0,0,1-1.76.2,8.57,8.57,0,0,1-2-.23,7.94,7.94,0,0,1-1.88-.71,3.93,3.93,0,0,1-1.45-1.31,3.35,3.35,0,0,1-.55-1.9,3.3,3.3,0,0,1,.42-1.67,3.44,3.44,0,0,1,1.08-1.17,6.12,6.12,0,0,1,1.53-.72,9.77,9.77,0,0,1,1.69-.39,12.35,12.35,0,0,1,1.66-.11,7.28,7.28,0,0,1,.78,0l.48.33.52.36.48.36q.35.27.5.4l.43.4a3,3,0,0,1,.41.46l.33.48a2,2,0,0,1,.27.54c.05.17.1.36.15.56a2.81,2.81,0,0,1,.07.63,3.34,3.34,0,0,1-.43,1.72Zm0,0" fill="#fff"/><path d="M40,22V18H38v4H34v2h4v4h2V24h4V22Zm0,0" fill="#fff"/></g></g></svg>