<svg xmlns="http://www.w3.org/2000/svg" viewBox="0 0 96 107.56"><title>casco-refuse</title><g id="Слой_2" data-name="Слой 2"><g id="checkout_1000px_1-2" data-name="checkout 1000px 1-2"><path id="_Контур_" data-name="&lt;Контур&gt;" d="M1,32.09V75.47a9.4,9.4,0,0,0,4.7,8.14l37.6,21.69a9.4,9.4,0,0,0,9.39,0L90.3,83.61A9.4,9.4,0,0,0,95,75.47V32.09A9.4,9.4,0,0,0,90.3,24L52.7,2.26a9.4,9.4,0,0,0-9.39,0L5.7,24A9.4,9.4,0,0,0,1,32.09Z" fill="#ff6262" fill-opacity="0.9" stroke="#fff" stroke-miterlimit="10" stroke-width="2"/><path d="M67.33,38.08c-8.08-2.74-12-4.77-19.33-9.48-7.37,4.72-11.24,6.74-19.33,9.48-.17,5.52,0,14.14,0,20.41a16.08,16.08,0,0,0,6.77,13.68A68.65,68.65,0,0,0,48,79a68.65,68.65,0,0,0,12.55-6.79,16.08,16.08,0,0,0,6.77-13.68C67.33,52.22,67.5,43.6,67.33,38.08Z" fill="none" stroke="#fff" stroke-linecap="round" stroke-miterlimit="10" stroke-width="3"/><g opacity="0.5"><line x1="42.64" y1="48.41" x2="53.37" y2="59.15" fill="none" stroke="#fff" stroke-linecap="round" stroke-miterlimit="10" stroke-width="4"/><line x1="53.37" y1="48.41" x2="42.64" y2="59.15" fill="none" stroke="#fff" stroke-linecap="round" stroke-miterlimit="10" stroke-width="4"/></g></g></g></svg>