<svg xmlns="http://www.w3.org/2000/svg" viewBox="0 0 96 107.56"><title>equip-decreasep-</title><g id="Слой_2" data-name="Слой 2"><g id="checkout_1000px_2" data-name="checkout 1000px 2"><path id="_Контур_" data-name="&lt;Контур&gt;" d="M1,32.09V75.47a9.4,9.4,0,0,0,4.7,8.14l37.6,21.69a9.4,9.4,0,0,0,9.39,0L90.3,83.61A9.4,9.4,0,0,0,95,75.47V32.09A9.4,9.4,0,0,0,90.3,24L52.7,2.26a9.4,9.4,0,0,0-9.39,0L5.7,24A9.4,9.4,0,0,0,1,32.09Z" fill="#00ab8a" fill-opacity="0.9" stroke="#fff" stroke-miterlimit="10" stroke-width="2"/><polyline points="23.1 38.96 35.73 49.33 59.41 49.33 75.23 62.72" fill="none" stroke="#fff" stroke-linecap="round" stroke-miterlimit="10" stroke-width="3"/><circle cx="19.88" cy="36.19" r="3.98" fill="#fff"/><path d="M71.44,64.18l5.8-5.39a1.21,1.21,0,0,1,2,.6l2.17,9.08a.47.47,0,0,1-.6.56l-8.9-2.82A1.21,1.21,0,0,1,71.44,64.18Z" fill="#fff"/><g opacity="0.5"><path d="M42.87,75.5v-12h9.81c3.76,0,6.8,2.69,6.8,6h0c0,3.32-3,6-6.8,6H39.15" fill="none" stroke="#fff" stroke-linecap="round" stroke-miterlimit="10" stroke-width="3"/><line x1="42.87" y1="75.5" x2="42.87" y2="85.51" fill="none" stroke="#fff" stroke-linecap="round" stroke-miterlimit="10" stroke-width="3"/><line x1="54.8" y1="81.47" x2="39" y2="81.47" fill="none" stroke="#fff" stroke-linecap="round" stroke-miterlimit="10" stroke-width="3"/></g></g></g></svg>