<?xml version="1.0" encoding="UTF-8"?>
<svg width="15px" height="15px" viewBox="0 0 15 15" version="1.1" xmlns="http://www.w3.org/2000/svg" xmlns:xlink="http://www.w3.org/1999/xlink">
    <defs></defs>
    <g id="Page-1" stroke="none" stroke-width="1" fill="none" fill-rule="evenodd">
        <g id="baikal-1" transform="translate(-1196.000000, -780.000000)" fill-rule="nonzero" fill="#999A97">
            <g id="Group-13" transform="translate(1143.000000, 776.000000)">
                <path d="M60.4996825,4 C56.3580952,4 53,7.35809524 53,11.4996825 C53,15.6412698 56.3580952,19 60.4996825,19 C64.6412698,19 68,15.6412698 68,11.4996825 C68,7.35809524 64.6412698,4 60.4996825,4 Z M62.0609524,15.6234921 C61.6749206,15.775873 61.367619,15.8914286 61.1371429,15.9714286 C60.9073016,16.0514286 60.64,16.0914286 60.335873,16.0914286 C59.8685714,16.0914286 59.5047619,15.9771429 59.2457143,15.7492063 C58.9866667,15.5212698 58.8577778,15.232381 58.8577778,14.8812698 C58.8577778,14.7447619 58.8673016,14.6050794 58.8863492,14.4628571 C58.9060317,14.3206349 58.9371429,14.1606349 58.9796825,13.9809524 L59.4628571,12.2742857 C59.5053968,12.1104762 59.5422222,11.9549206 59.5714286,11.8101587 C59.6006349,11.664127 59.6146032,11.5301587 59.6146032,11.408254 C59.6146032,11.1911111 59.5695238,11.0387302 59.48,10.9530159 C59.3892063,10.8673016 59.2184127,10.8253968 58.9638095,10.8253968 C58.8393651,10.8253968 58.7111111,10.8438095 58.5796825,10.8825397 C58.4495238,10.9225397 58.3365079,10.9587302 58.2438095,10.9942857 L58.3714286,10.4685714 C58.687619,10.3396825 58.9904762,10.2292063 59.2793651,10.1377778 C59.568254,10.0450794 59.8412698,9.99936508 60.0984127,9.99936508 C60.5625397,9.99936508 60.9206349,10.112381 61.1726984,10.335873 C61.4234921,10.56 61.5498413,10.8514286 61.5498413,11.2095238 C61.5498413,11.2838095 61.5409524,11.4146032 61.5238095,11.6012698 C61.5066667,11.7885714 61.4742857,11.9593651 61.4273016,12.1161905 L60.9466667,13.8177778 C60.9073016,13.9542857 60.872381,14.1104762 60.8406349,14.2850794 C60.8095238,14.4596825 60.7942857,14.5930159 60.7942857,14.6825397 C60.7942857,14.9085714 60.8444444,15.0628571 60.9460317,15.1447619 C61.0463492,15.2266667 61.2222222,15.2679365 61.4711111,15.2679365 C61.5885714,15.2679365 61.72,15.2469841 61.8685714,15.2063492 C62.015873,15.1657143 62.1225397,15.1295238 62.1898413,15.0984127 L62.0609524,15.6234921 Z M61.975873,8.7168254 C61.751746,8.92507937 61.4819048,9.02920635 61.1663492,9.02920635 C60.8514286,9.02920635 60.5796825,8.92507937 60.3536508,8.7168254 C60.1288889,8.50857143 60.0152381,8.2552381 60.0152381,7.95936508 C60.0152381,7.66412698 60.1295238,7.41015873 60.3536508,7.2 C60.5796825,6.98920635 60.8514286,6.88444444 61.1663492,6.88444444 C61.4819048,6.88444444 61.752381,6.98920635 61.975873,7.2 C62.2,7.41015873 62.312381,7.66412698 62.312381,7.95936508 C62.312381,8.25587302 62.2,8.50857143 61.975873,8.7168254 Z" id="info"></path>
            </g>
        </g>
    </g>
</svg>