<?xml version="1.0" encoding="UTF-8"?>
<svg width="17px" height="18px" viewBox="0 0 17 18" version="1.1" xmlns="http://www.w3.org/2000/svg" xmlns:xlink="http://www.w3.org/1999/xlink">
    <defs></defs>
    <g id="Page-1" stroke="none" stroke-width="1" fill="none" fill-rule="evenodd">
        <g id="baikal-3" transform="translate(-444.000000, -603.000000)" fill-rule="nonzero" fill="#000000">
            <g id="icons_man-2" transform="translate(444.000000, 603.000000)">
                <g id="Layer_1">
                    <path d="M16.5200536,15.3483 C15.8400536,13.5006 12.7809643,12.5769 11.3353571,12.324 C9.99083929,12.09 10.0451786,10.9119 10.7424821,10.1397 C11.6273929,9.5154 12.1489286,8.625 12.4506786,7.5975 C12.46525,7.5879 12.4810357,7.5861 12.4943929,7.5741 C13.1913929,7.0071 13.6060714,6.093 13.1297679,5.2617 C13.0605536,5.1405 12.9637143,5.0769 12.8592857,5.0508 L12.824375,5.0508 C12.8802321,3.6441 12.2594286,2.4708 11.2227321,1.7721 C10.7351964,0.6999 9.85726786,0.297 8.659375,0.2889 C8.05192857,0.2838 7.42991071,0.4182 6.83460714,0.5271 C6.42964286,0.6027 5.68255357,0.5034 5.3635,0.8199 C5.25816071,0.9243 5.17194643,1.0872 5.13339286,1.2294 C5.051125,1.5195 5.576,1.7649 5.25816071,1.7244 C4.78307143,1.6608 4.41180357,2.0766 4.22510714,2.4468 C3.825,3.2454 3.83107143,4.1604 4.18625,4.9281 C4.17896429,4.9803 4.17167857,5.0325 4.16682143,5.085 C4.09275,5.1198 4.02232143,5.1702 3.97041071,5.2614 C3.53751786,6.0174 3.844125,6.8394 4.42758929,7.4094 C4.77426786,8.5119 5.423,9.5145 6.30821429,10.2003 C6.95573214,10.9722 6.97516071,12.0954 5.66555357,12.3237 C4.22025,12.5766 1.16085714,13.5003 0.480553571,15.348 C0.223428571,16.044 0.125375,16.9056 0.099875,17.7111 L16.8992143,17.7111 C16.8755357,16.9062 16.7759643,16.0443 16.5200536,15.3483 Z" id="Shape"></path>
                </g>
            </g>
        </g>
    </g>
</svg>