<svg xmlns="http://www.w3.org/2000/svg" width="45" height="28" viewBox="0 0 45 28">
  <g fill="none" fill-rule="evenodd">
    <polygon fill="#E15D29" points="16.492 24.725 28.45 24.725 28.45 3.236 16.492 3.236"/>
    <path fill="#D3222B" d="M17.251071,13.9804 C17.251071,9.62052903 19.2923613,5.73846452 22.4708129,3.23562581 C20.1459097,1.40569032 17.2131355,0.313690323 14.0247484,0.313690323 C6.47739355,0.313690323 0.359845161,6.43304516 0.359845161,13.9804 C0.359845161,21.5277548 6.47739355,27.6471097 14.0247484,27.6471097 C17.2131355,27.6471097 20.1459097,26.5551097 22.4708129,24.7251742 C19.2923613,22.2223355 17.251071,18.340271 17.251071,13.9804"/>
    <path fill="#ED972D" d="M44.5819613,13.9804 C44.5819613,21.5277548 38.4635097,27.6471097 30.9170581,27.6471097 C27.728671,27.6471097 24.7949935,26.5551097 22.4709935,24.7251742 C25.6494452,22.2223355 27.6907355,18.340271 27.6907355,13.9804 C27.6907355,9.62052903 25.6494452,5.73846452 22.4709935,3.23562581 C24.7949935,1.40569032 27.728671,0.313690323 30.9170581,0.313690323 C38.4635097,0.313690323 44.5819613,6.43304516 44.5819613,13.9804"/>
  </g>
</svg>
