<svg xmlns="http://www.w3.org/2000/svg" width="14" height="14" viewBox="0 0 14 14">
  <path fill="#008EA9" d="M44.2363229,538.877275 C43.8767147,538.517258 43.293609,538.517258 42.9340518,538.877275 L42.6085096,539.203174 L38.0505606,543.765924 L38.0517353,543.767099 L37.9081167,543.911126 C37.9081167,543.911126 37.4500899,544.372421 36.4159545,547.71094 C36.4087021,547.734281 36.4015007,547.757468 36.3941972,547.781115 C36.3757597,547.840922 36.3571179,547.9017 36.3383228,547.963294 C36.3216729,548.017739 36.3048186,548.073307 36.2879133,548.129232 C36.2736638,548.176373 36.2595165,548.223003 36.2450627,548.271165 C36.2122735,548.380462 36.1790758,548.4917 36.1452141,548.606565 C36.0709022,548.858714 35.8893871,549.427315 36.0946514,549.633141 C36.2923056,549.831408 36.8668821,549.656993 37.1183167,549.582425 C37.2323127,549.548615 37.3427846,549.515468 37.4512646,549.48273 C37.5013677,549.467612 37.5499386,549.452801 37.598918,549.437887 C37.6515748,549.42185 37.7039761,549.405915 37.755305,549.390134 C37.8201172,549.370215 37.8840101,549.350552 37.9468304,549.331042 C37.9655744,549.325219 37.9839608,549.319448 38.0025516,549.313677 C41.1789123,548.324639 41.7491475,547.860484 41.7965437,547.818041 C41.7969012,547.817786 41.7969012,547.817786 41.7971565,547.817531 C41.7991484,547.815692 41.8005274,547.814466 41.8005274,547.814466 L41.9475679,547.667068 L41.9574251,547.676925 L46.5154761,543.114176 L46.5154251,543.114125 L46.8409673,542.788225 C47.2005755,542.428259 47.2005755,541.844592 46.8409673,541.484575 L44.2363229,538.877275 Z M41.2761051,547.224976 C41.2721214,547.227683 41.2667076,547.231207 41.2609873,547.234834 C41.2578208,547.236877 41.2539903,547.239277 41.2502108,547.241626 C41.2463803,547.244027 41.2421923,547.246632 41.2377489,547.249338 C41.2338163,547.251739 41.2297304,547.25419 41.2253381,547.256846 C41.073701,547.347604 40.6286979,547.581776 39.5486985,547.972743 C39.422496,548.018403 39.2850573,548.06682 39.1410812,548.116719 L37.6058129,546.579868 C37.6558649,546.434819 37.7043336,546.296359 37.7501465,546.169186 C38.1402456,545.084641 38.3742132,544.63831 38.46446,544.486877 C38.4666561,544.483251 38.468648,544.479931 38.4706399,544.476662 C38.4738064,544.471453 38.4767687,544.466601 38.4795266,544.462158 C38.4817228,544.458633 38.4840211,544.454956 38.4859619,544.451943 C38.4895881,544.446274 38.4931122,544.44086 38.4958191,544.436825 L38.6081807,544.324157 L41.3909182,547.109806 L41.2761051,547.224976 Z M49.4454074,538.877275 L46.8408141,536.269974 C46.4812058,535.910009 45.8982023,535.910009 45.538543,536.269974 L44.8874585,536.921825 C44.5278502,537.281791 44.5278502,537.865458 44.8874585,538.225424 L47.4920007,540.832724 C47.8515579,541.19269 48.4346636,541.19269 48.7942718,540.832724 L49.4454074,540.180925 C49.8050156,539.820908 49.8050156,539.23724 49.4454074,538.877275 Z" transform="translate(-36 -536)"/>
</svg>
