<?xml version="1.0" encoding="UTF-8"?>
<svg width="17px" height="18px" viewBox="0 0 17 18" version="1.1" xmlns="http://www.w3.org/2000/svg" xmlns:xlink="http://www.w3.org/1999/xlink">
    <defs></defs>
    <g id="Page-1" stroke="none" stroke-width="1" fill="none" fill-rule="evenodd">
        <g id="baikal-3" transform="translate(-444.000000, -534.000000)" fill-rule="nonzero" fill="#000000">
            <g id="icons_woman-2" transform="translate(444.000000, 534.000000)">
                <g id="Layer_1">
                    <path d="M16.5200536,15.3920656 C15.8400536,13.5746557 12.7809643,12.6658033 11.3356607,12.4173443 C10.7254821,12.3128852 10.4055179,12.016623 10.3010893,11.6536721 C12.0135357,11.6548525 13.7314464,11.3034098 15.0941786,10.3665246 C15.2216786,10.2794754 15.2483929,10.2189836 15.2483929,10.0859016 C15.22775,9.97170492 15.1731071,9.91268852 15.0941786,9.83862295 C13.0645,7.87278689 14.1230536,5.08868852 13.4175536,2.74691803 C12.9919464,1.33967213 11.6729286,1.01803279 10.3026071,1.06731148 C9.03914286,-0.529672131 6.27451786,0.421672131 4.98798214,1.59432787 C4.05328571,2.44770492 3.76094643,3.69590164 3.60673214,4.81898361 C3.33776786,6.79662295 3.20055357,8.39508197 1.81110714,10.0664262 C1.72641071,10.1688197 1.74189286,10.2667869 1.804125,10.3420328 C1.83053571,10.3821639 1.86696429,10.4175738 1.92525,10.4447213 C3.42610714,11.1189836 4.93698214,11.5256066 6.63819643,11.5161639 C6.67553571,11.5161639 6.70103571,11.5008197 6.73169643,11.491377 C6.68191071,11.9263279 6.36407143,12.2981311 5.66555357,12.4179344 C4.22025,12.6663934 1.16116071,13.5752459 0.479946429,15.3926557 C0.223732143,16.0772459 0.125678571,16.9247213 0.100178571,17.7167213 L16.8998214,17.7167213 C16.8755357,16.9241311 16.7762679,16.0766557 16.5200536,15.3920656 Z" id="Shape"></path>
                </g>
            </g>
        </g>
    </g>
</svg>