<?xml version="1.0" encoding="UTF-8"?><!DOCTYPE svg PUBLIC "-//W3C//DTD SVG 1.1//EN" "http://www.w3.org/Graphics/SVG/1.1/DTD/svg11.dtd"><svg xmlns="http://www.w3.org/2000/svg"><symbol id="arrow-down" viewBox="0 0 16 9"><style>.st0{fill:none;stroke:#808d9b;stroke-width:2;stroke-linecap:round;stroke-linejoin:round;stroke-miterlimit:10}</style><path class="st0" d="M15 1L8 8 1 1" fill="none" stroke-width="2" stroke-linecap="round" stroke-linejoin="round" stroke-miterlimit="10"/></symbol><symbol id="arrow-right" viewBox="0 0 9 16"><style>.st0{fill:none;stroke:#808d9b;stroke-width:2;stroke-linecap:round;stroke-linejoin:round;stroke-miterlimit:10}</style><path class="st0" d="M1 1l7 7-7 7" stroke-width="2" stroke-linecap="round" stroke-linejoin="round" stroke-miterlimit="10"/></symbol><symbol id="arrow-up" viewBox="0 0 17.2 12"><path class="st0" d="M8.6 6.7L3.4 12 0 8.6 8.6 0l8.6 8.6-3.3 3.4-5.3-5.3z" fill="#fff"/></symbol><symbol id="check" viewBox="0 0 21.3 15"><style>.st0{fill:none;stroke:#08ab8a;stroke-width:3;stroke-linecap:round;stroke-linejoin:round;stroke-miterlimit:10}</style><path class="st0" fill="none" stroke-width="3" stroke-linecap="round" stroke-linejoin="round" stroke-miterlimit="10" d="M19.8 1.5l-12 12-6.3-6.2"/></symbol><symbol id="check_border" viewBox="0 0 36.3 33.8"><g opacity=".4"><path d="M13.6 32.8c-2.8 0-5.5-1.5-6.9-4l-4.6-7.9c-1.4-2.5-1.4-5.5 0-8L6.6 5c1.4-2.5 4.1-4 6.9-4h9.1c2.8 0 5.5 1.5 6.9 4l4.6 7.9c1.4 2.5 1.4 5.5 0 8l-4.6 7.9c-1.4 2.5-4.1 4-6.9 4h-9z" fill="#fff"/><path d="M22.7 2c2.5 0 4.8 1.3 6.1 3.5l4.6 7.9c1.3 2.2 1.3 4.8 0 7l-4.6 7.9c-1.3 2.2-3.6 3.5-6.1 3.5h-9.1c-2.5 0-4.8-1.3-6.1-3.5l-4.6-7.9c-1.3-2.2-1.3-4.8 0-7l4.6-7.9C8.8 3.3 11.1 2 13.6 2h9.1m0-2h-9.1c-3.2 0-6.2 1.7-7.8 4.5l-4.6 7.9c-1.6 2.8-1.6 6.2 0 9l4.6 7.9c1.6 2.8 4.6 4.5 7.8 4.5h9.1c3.2 0 6.2-1.7 7.8-4.5l4.6-7.9c1.6-2.8 1.6-6.2 0-9l-4.6-7.9C28.9 1.7 25.9 0 22.7 0z" fill="#808d9b"/></g><path fill="none" stroke="#08ab8a" stroke-width="3" stroke-linecap="round" stroke-linejoin="round" stroke-miterlimit="10" d="M25.5 12.1l-9.7 9.7-5-5.1"/></symbol><symbol id="close-circle" viewBox="0 0 42.8 43"><ellipse fill="#808D9B" cx="21.4" cy="21.5" rx="21.4" ry="21.5"/><g fill="none" stroke="#FFF" stroke-width="3" stroke-linecap="round" stroke-miterlimit="10"><path d="M12.3 12.4l18.1 18.2M30.4 12.4L12.3 30.6"/></g></symbol><symbol id="close" viewBox="0 0 20 20"><path d="M19 1L1 19m18 0L1 1" fill="#fff" stroke="#fff" stroke-width="2" stroke-linecap="round" stroke-linejoin="round" stroke-miterlimit="10"/></symbol><symbol id="login" viewBox="0 0 24 20.3"><style>.st0{opacity:.5;fill:#505b68}</style><path class="st0" d="M14.8 20c-.7.2-1.3.3-1.8.3H7.4c-2 0-3.8-.7-5.2-2.2S0 15 0 12.9V7.4c0-2 .7-3.8 2.2-5.2C3.6.7 5.4 0 7.4 0h1.7c1.1 0 2.3.1 3.6.1 1.2 0 1.9.1 2.1.1v3.4H5.5c-.5.1-.9.3-1.3.6-.3.4-.5.8-.5 1.3v9.2c0 .5.2.9.5 1.3.4.4.8.5 1.3.5h9.2V20zm9.2-9.8l-7.4-6.5v3.7h-5.5v5.5h5.5v3.7l7.4-6.4z"/></symbol><symbol id="more" viewBox="0 0 18.5 17.5"><style>.st0{opacity:.5;fill:#fff}</style><path class="st0" d="M10.8 14.7v1.5c0 .2-.1.4-.2.5-.2.2-.3.3-.6.3H.8c-.2 0-.4-.1-.5-.2s-.3-.4-.3-.6v-1.5c0-.2.1-.4.2-.5s.3-.2.5-.2H10c.2 0 .4.1.5.2.2.1.3.3.3.5zM17 10v1.5c0 .2-.1.4-.2.5-.1.1-.3.2-.5.2H.8c-.2 0-.4-.1-.5-.2-.2 0-.3-.2-.3-.4V10c0-.2.1-.4.2-.5s.3-.2.5-.2h15.5c.2 0 .4.1.5.2s.3.3.3.5zm-3.1-4.6V7c0 .2-.1.4-.2.5-.1.1-.3.2-.5.2H.8c-.2 0-.4-.1-.5-.2C.1 7.4 0 7.2 0 7V5.4c0-.2.1-.4.2-.5.1-.2.3-.2.5-.2h12.4c.2 0 .4.1.5.2.2.1.3.3.3.5zM18.5.8v1.5c0 .2-.1.4-.2.5-.1.2-.3.3-.5.3H.8c-.2 0-.4-.1-.6-.2S0 2.5 0 2.3V.8C0 .6.1.4.2.3.4.1.6 0 .8 0h17c.2 0 .4.1.5.2.2.2.2.4.2.6z"/><path class="st0" d="M10.8 15.2v1.5c0 .2-.1.4-.2.5-.1.1-.3.2-.5.2H.8c-.2 0-.4-.1-.5-.2s-.3-.3-.3-.5v-1.5c0-.2.1-.4.2-.5s.3-.2.5-.2H10c.2 0 .4.1.5.2.2.1.3.3.3.5zm6.2-4.7V12c0 .2-.1.4-.2.5-.1.1-.3.2-.5.2H.8c-.2 0-.4-.1-.5-.2-.2 0-.3-.2-.3-.4v-1.5c0-.2.1-.4.2-.5s.3-.2.5-.2h15.5c.2 0 .4.1.5.2s.3.2.3.4zm-3.1-4.6v1.5c0 .2-.1.4-.2.5-.1.1-.3.2-.5.2H.8c-.2.1-.4.1-.6-.1-.1-.1-.2-.3-.2-.5V5.9c0-.2.1-.4.2-.5.1-.2.3-.2.5-.2h12.4c.2 0 .4.1.5.2.2.1.3.3.3.5zm4.6-4.6v1.5c0 .2-.1.4-.2.5-.1.1-.3.2-.5.2H.8c-.2 0-.4-.1-.5-.2S0 3 0 2.8V1.3C0 1.1.1.9.2.8.3.6.5.6.7.6h17c.2 0 .4.1.5.2.3.1.3.3.3.5z"/></symbol><symbol id="order" viewBox="0 0 21 12"><style>.st0{fill:#505b68;stroke:#808d9b;stroke-width:2;stroke-linecap:round;stroke-miterlimit:10}</style><path class="st0" stroke-width="2" stroke-linecap="round" stroke-miterlimit="10" d="M1 1h19M1 6h15.4M1 11h11.8"/></symbol><symbol id="plus-circle" viewBox="0 0 52.28 52.56"><title>&#x420;&#x435;&#x441;&#x443;&#x440;&#x441; 6</title><g data-name="&#x421;&#x43B;&#x43E;&#x439; 2"><g fill="none" stroke="#4f5a67" stroke-linecap="round" stroke-miterlimit="10" data-name="checkout 1000px 1-2"><ellipse cx="26.14" cy="26.28" rx="24.64" ry="24.78" stroke-width="3"/><path stroke-width="3" d="M26.14 15.78v21M36.58 26.28H15.7"/><ellipse cx="26.14" cy="26.28" rx="24.64" ry="24.78" stroke-width="2"/><path stroke-width="3" d="M26.14 15.78v21M36.58 26.28H15.7"/></g></g></symbol><symbol id="plus" viewBox="0 0 22 22"><path class="st0" d="M11 1.5v19m9.5-9.5h-19" fill="none" stroke="#9ba0a4" stroke-width="3" stroke-linecap="round" stroke-linejoin="round" stroke-miterlimit="10"/></symbol><symbol id="point" viewBox="0 0 8 7"><path fill="#08ab8a" d="M2 0L0 3.5 2 7h4l2-3.5L6 0z"/></symbol><symbol id="question" viewBox="0 0 18 18"><style>.st0{opacity:.5;fill:#fff}</style><path class="st0" d="M4.5 1.2C5.9.4 7.4 0 9 0s3.1.4 4.5 1.2c1.4.8 2.5 1.9 3.3 3.3C17.6 5.9 18 7.4 18 9s-.4 3.1-1.2 4.5-1.9 2.5-3.3 3.3c-1.4.8-2.9 1.2-4.5 1.2s-3.1-.4-4.5-1.2C3.1 16 2 14.9 1.2 13.5.4 12.1 0 10.6 0 9s.4-3.1 1.2-4.5C2 3.1 3.1 2 4.5 1.2zm3 9.3h3s.1-.1.2-.1.2-.2.5-.4c.2-.2.4-.4.6-.7.2-.3.3-.6.5-1 .1-.4.2-.9.2-1.4 0-.5-.1-1-.3-1.3-.2-.4-.4-.7-.6-.9s-.6-.4-.9-.5l-.9-.3H9c-1 0-1.9.3-2.6.8-.7.6-1 1.5-1 2.8h2.7V7.2c0-.1 0-.1.1-.1 0 0 0-.1.1-.1l.1-.1h.7c.2 0 .3.1.5.2.1.1.2.2.2.4s0 .4-.1.4c0 .1-.2.2-.4.3h-.2c-.1 0-.3.1-.5.2s-.4.2-.5.4c-.2.1-.3.4-.4.7-.2.3-.2.6-.2 1zm0 1.5v1.5h3V12h-3z"/></symbol><symbol id="range-hover" viewBox="0 0 42 42"><circle cx="21" cy="21" r="21" fill="#037c58" fill-opacity=".3"/><path d="M25.1 7.5h-8.5c-2.5 0-4.8 1.3-6.1 3.5l-3.9 6.8c-1.3 2.2-1.3 4.8 0 7l3.9 6.8c1.2 2.2 3.6 3.5 6.1 3.5h8.5c2.5 0 4.8-1.3 6.1-3.5l3.9-6.8c1.3-2.2 1.3-4.8 0-7l-4-6.8c-1.2-2.2-3.5-3.5-6-3.5z" fill="#037c58"/><path d="M25.1 7.5h-8.5c-2.5 0-4.8 1.3-6.1 3.5l-3.9 6.8c-1.3 2.2-1.3 4.8 0 7l3.9 6.8c1.2 2.2 3.6 3.5 6.1 3.5h8.5c2.5 0 4.8-1.3 6.1-3.5l3.9-6.8c1.3-2.2 1.3-4.8 0-7l-4-6.8c-1.2-2.2-3.5-3.5-6-3.5z" fill="#08ab8a"/><path d="M25.1 7.5h-8.5c-2.5 0-4.8 1.3-6.1 3.5l-3.9 6.8c-1.3 2.2-1.3 4.8 0 7l3.9 6.8c1.2 2.2 3.6 3.5 6.1 3.5h8.5c2.5 0 4.8-1.3 6.1-3.5l3.9-6.8c1.3-2.2 1.3-4.8 0-7l-4-6.8c-1.2-2.2-3.5-3.5-6-3.5z" fill="none" stroke="#fff" stroke-width="2" stroke-miterlimit="10"/><g opacity=".6" fill="none" stroke="#fff" stroke-width="2" stroke-linecap="round" stroke-linejoin="round" stroke-miterlimit="10"><path d="M24 17l4 4-4 4M18 25l-4-4 4-4"/></g></symbol><symbol id="range" viewBox="0 0 42 42"><g fill="#037c58"><circle cx="21" cy="21" r="21" fill-opacity=".2"/><path d="M25.1 7.5h-8.5c-2.5 0-4.8 1.3-6.1 3.5l-3.9 6.8c-1.3 2.2-1.3 4.8 0 7l3.9 6.8c1.2 2.2 3.6 3.5 6.1 3.5h8.5c2.5 0 4.8-1.3 6.1-3.5l3.9-6.8c1.3-2.2 1.3-4.8 0-7l-4-6.8c-1.2-2.2-3.5-3.5-6-3.5z" stroke="#fff" stroke-width="2" stroke-miterlimit="10"/><g opacity=".6" stroke="#fff" stroke-width="2" stroke-linecap="round" stroke-linejoin="round" stroke-miterlimit="10"><path d="M24 17l4 4-4 4M18 25l-4-4 4-4"/></g></g></symbol><symbol id="save" viewBox="0 0 19 19"><style>.st0{opacity:.5;fill:#fff}</style><path class="st0" d="M1.6 14.3h15.8c.4 0 .8.2 1.1.5.3.3.5.7.5 1.1v1.6c0 .4-.2.8-.5 1.1-.3.3-.7.5-1.1.5H1.6c-.4 0-.8-.2-1.1-.5-.3-.4-.5-.7-.5-1.2v-1.6c0-.4.2-.8.5-1.1.3-.3.7-.4 1.1-.4zM.5 12.7L3.2 1c.1-.2.2-.5.4-.7.2-.2.4-.3.6-.3h10.6c.2 0 .4.1.6.4s.3.5.4.7l2.7 11.6H.5zm13.8 3.1h-1.6v1.6h1.6v-1.6zm3.1 0h-1.6v1.6h1.6v-1.6z"/></symbol><symbol id="sorting" viewBox="0 0 19.3 12"><style>.st0{fill:none;stroke:#08ab8a;stroke-width:2;stroke-linecap:round;stroke-miterlimit:10}</style><path class="st0" stroke-width="2" stroke-linecap="round" stroke-miterlimit="10" d="M1 1h17.3M4 6h11.2M7.8 11h3.6"/></symbol><symbol id="step" viewBox="0 0 51.9 46"><style/><path class="st0" d="M16.2 45c-2.1 0-4.1-1.1-5.2-3L1.8 26c-1.1-1.9-1.1-4.1 0-6L11 4c1.1-1.9 3.1-3 5.2-3h19.4c2.1 0 4.1 1.1 5.2 3L50 20c1.1 1.9 1.1 4.1 0 6l-9.2 16c-1.1 1.9-3.1 3-5.2 3H16.2z" stroke-width="2"/></symbol><symbol id="upload" viewBox="0 0 20.44 22.18"><title>&#x420;&#x435;&#x441;&#x443;&#x440;&#x441; 4</title><g data-name="&#x421;&#x43B;&#x43E;&#x439; 2"><g data-name="checkout 1000px 1-2" fill="none" stroke="#808d9b" stroke-linecap="round" stroke-linejoin="round" stroke-width="2"><path d="M19.44 21.18H1M10.22 17.81V1.71M4.35 7.09L10.37 1l5.72 6.09"/></g></g></symbol></svg>