<?xml version="1.0" encoding="UTF-8"?><!DOCTYPE svg PUBLIC "-//W3C//DTD SVG 1.1//EN" "http://www.w3.org/Graphics/SVG/1.1/DTD/svg11.dtd"><svg xmlns="http://www.w3.org/2000/svg"><defs><filter id="vk-a" x="0" y="-10352" width="60" height="32766" filterUnits="userSpaceOnUse" color-interpolation-filters="sRGB"><feFlood flood-color="#fff" result="bg"/><feBlend in="SourceGraphic" in2="bg"/></filter></defs><symbol id="arrow-down" viewBox="0 0 16 9"><style>.st0{fill:none;stroke:#808d9b;stroke-width:2;stroke-linecap:round;stroke-linejoin:round;stroke-miterlimit:10}</style><path class="st0" d="M15 1L8 8 1 1" fill="none" stroke-width="2.2" stroke-linecap="round" stroke-linejoin="round" stroke-miterlimit="10"/></symbol><symbol id="bg-popup" viewBox="0 0 550 10"><title>&#x420;&#x435;&#x441;&#x443;&#x440;&#x441; 6</title><g data-name="&#x421;&#x43B;&#x43E;&#x439; 2"><g data-name="checkout 1000px 3b"><path d="M550 10H0V5a5 5 0 0 1 5-5h540a5 5 0 0 1 5 5z" fill="#00ab8a" opacity=".8"/><path d="M183.33 10H0V5a5 5 0 0 1 5-5h178.33z" fill="#007b57" opacity=".8"/><path fill="#00ab8a" d="M183.33 0h183.33v10H183.33z"/></g></g></symbol><symbol id="check-border" viewBox="0 0 24.6 30"><title>&#x420;&#x435;&#x441;&#x443;&#x440;&#x441; 5</title><g data-name="&#x421;&#x43B;&#x43E;&#x439; 2"><g data-name="checkout 1000px 5" fill="none" stroke="#fff" stroke-linecap="round" stroke-linejoin="round" stroke-width="2"><path d="M18.39 11l-8.01 8-4.17-4.16"/><path d="M23.55 6.52A43.32 43.32 0 0 1 12.3 1 43.32 43.32 0 0 1 1 6.52c-.1 3.21 0 6.91 0 10.56A9.36 9.36 0 0 0 5 25a40 40 0 0 0 7.31 4 40 40 0 0 0 7.31-4 9.36 9.36 0 0 0 3.94-8c-.01-3.57.09-7.27-.01-10.48z"/></g></g></symbol><symbol id="facebook" viewBox="0 0 60 60"><title>&#x420;&#x435;&#x441;&#x443;&#x440;&#x441; 3</title><g data-name="&#x421;&#x43B;&#x43E;&#x439; 2"><g data-name="checkout 1000px 3b"><circle cx="30" cy="30" r="30" fill="#3b5998"/><path d="M30 1A29 29 0 1 1 1 30 29 29 0 0 1 30 1m0-1a30 30 0 1 0 30 30A30 30 0 0 0 30 0z" opacity=".2"/><path d="M26.6 22v3.55H24v4.34h2.6v12.87h5.34V29.87h3.58s.34-2.08.5-4.35H32v-3a1.26 1.26 0 0 1 1.16-1H36V17h-4c-5.6 0-5.47 4.34-5.47 5z" fill="#fff"/></g></g></symbol><symbol id="garage" viewBox="0 0 23.65 16"><title>&#x420;&#x435;&#x441;&#x443;&#x440;&#x441; 1</title><g data-name="&#x421;&#x43B;&#x43E;&#x439; 2"><g data-name="checkout 1000px 5" fill="none" stroke="#fff" stroke-linecap="round" stroke-linejoin="round" stroke-width="2"><path d="M1 5.78l5.41-2.39L11.82 1l5.41 2.39 5.42 2.39M3.12 15V4.86M20.53 4.86V15M6.64 7.62H17M6.64 10.87H17M6.64 14.12H17"/></g></g></symbol><symbol id="google" viewBox="0 0 60 60"><title>&#x420;&#x435;&#x441;&#x443;&#x440;&#x441; 4</title><g data-name="&#x421;&#x43B;&#x43E;&#x439; 2"><g data-name="checkout 1000px 3b"><circle cx="30" cy="30" r="30" fill="#d03324"/><path d="M30 1A29 29 0 1 1 1 30 29 29 0 0 1 30 1m0-1a30 30 0 1 0 30 30A30 30 0 0 0 30 0z" opacity=".2"/><path d="M33 34.55a8.11 8.11 0 0 0-.91-1q-.5-.48-1-.87t-.91-.75a3.66 3.66 0 0 1-.67-.75 1.43 1.43 0 0 1-.26-.8 1.76 1.76 0 0 1 .36-1.06 6.22 6.22 0 0 1 .87-1q.52-.46 1-1a4.56 4.56 0 0 0 .87-1.44 5.5 5.5 0 0 0 .36-2.05 6 6 0 0 0-.61-2.64 4.67 4.67 0 0 0-1.72-2h2.11l2.1-1.19h-6.82a14 14 0 0 0-2.92.31 6.61 6.61 0 0 0-3.66 2.21 5.84 5.84 0 0 0-1.48 3.91 5 5 0 0 0 1.66 3.84 5.69 5.69 0 0 0 4 1.53 8.9 8.9 0 0 0 1.09-.08c0 .08-.06.2-.11.34l-.13.34a1.72 1.72 0 0 0-.08.3 2.16 2.16 0 0 0 0 .37 4 4 0 0 0 1 2.33 18.51 18.51 0 0 0-2.34.21 17.8 17.8 0 0 0-2.42.56 7.52 7.52 0 0 0-2.27 1.11A5 5 0 0 0 18 39.13a3.87 3.87 0 0 0 .47 1.9 4.22 4.22 0 0 0 1.2 1.39 7.2 7.2 0 0 0 1.7.91 9.83 9.83 0 0 0 1.91.52 11.45 11.45 0 0 0 1.87.16 9.73 9.73 0 0 0 6.56-2 5.71 5.71 0 0 0 2.19-4.41 5.22 5.22 0 0 0-.26-1.66 4.65 4.65 0 0 0-.64-1.39zm-6-5.68a3 3 0 0 1-1.52-.41 4 4 0 0 1-1.22-1.06 7.55 7.55 0 0 1-.93-1.4 8 8 0 0 1-.55-1.62 7.16 7.16 0 0 1-.18-1.55 4.22 4.22 0 0 1 .8-2.58 2.63 2.63 0 0 1 2.25-1.08 3 3 0 0 1 1.87.64 4.46 4.46 0 0 1 1.31 1.62 10.25 10.25 0 0 1 .74 2 8.43 8.43 0 0 1 .26 2 4.21 4.21 0 0 1-.68 2.51 2.52 2.52 0 0 1-2.2.95zm4.32 11.73a3.07 3.07 0 0 1-1.16 1.15 5.9 5.9 0 0 1-1.57.61 7.65 7.65 0 0 1-1.76.2 8.57 8.57 0 0 1-2-.23 7.94 7.94 0 0 1-1.88-.71 3.93 3.93 0 0 1-1.45-1.31 3.35 3.35 0 0 1-.55-1.9 3.3 3.3 0 0 1 .42-1.67 3.44 3.44 0 0 1 1.08-1.17 6.12 6.12 0 0 1 1.53-.72 9.77 9.77 0 0 1 1.69-.39 12.35 12.35 0 0 1 1.66-.11 7.28 7.28 0 0 1 .78 0l.48.33.52.36.48.36q.35.27.5.4l.43.4a3 3 0 0 1 .41.46l.33.48a2 2 0 0 1 .27.54c.05.17.1.36.15.56a2.81 2.81 0 0 1 .07.63 3.34 3.34 0 0 1-.43 1.72zm0 0" fill="#fff"/><path d="M40 22v-4h-2v4h-4v2h4v4h2v-4h4v-2zm0 0" fill="#fff"/></g></g></symbol><symbol id="orange-border" viewBox="0 0 186.76 40"><title>&#x420;&#x435;&#x441;&#x443;&#x440;&#x441; 6</title><g data-name="&#x421;&#x43B;&#x43E;&#x439; 2"><path d="M171.46 1.83a5.15 5.15 0 0 1 4.36 2.39l8.3 13a5.19 5.19 0 0 1 0 5.56l-8.3 13a5.15 5.15 0 0 1-4.36 2.39H15.3a5.15 5.15 0 0 1-4.36-2.39l-8.3-13a5.19 5.19 0 0 1 0-5.56l8.3-13a5.15 5.15 0 0 1 4.36-2.39h156.16m0-1.83H15.3a7 7 0 0 0-5.9 3.23l-8.3 13a7 7 0 0 0 0 7.53l8.3 13A7 7 0 0 0 15.3 40h156.16a7 7 0 0 0 5.9-3.23l8.3-13a7 7 0 0 0 0-7.53l-8.3-13a7 7 0 0 0-5.9-3.24z" fill="#f7931e" opacity=".5" data-name="checkout 1000px 5-2"/></g></symbol><symbol id="percent" viewBox="0 0 41.7 37.94"><title>&#x420;&#x435;&#x441;&#x443;&#x440;&#x441; 5</title><g data-name="&#x421;&#x43B;&#x43E;&#x439; 2"><g opacity=".2" fill="none" stroke="#007b57" stroke-linecap="round" stroke-miterlimit="10" stroke-width="3.94" data-name="checkout 1000px 5-2"><path d="M33.64 2.54L9.45 33.01"/><circle cx="9.19" cy="9.19" r="7.23"/><circle cx="32.51" cy="28.74" r="7.23"/></g></g></symbol><symbol id="purse" viewBox="0 0 28 21"><title>&#x420;&#x435;&#x441;&#x443;&#x440;&#x441; 6</title><g data-name="&#x421;&#x43B;&#x43E;&#x439; 2"><g data-name="checkout 1000px 5"><path d="M25 2a1 1 0 0 1 1 1v15a1 1 0 0 1-1 1H3a1 1 0 0 1-1-1V3a1 1 0 0 1 1-1h22m0-2H3a3 3 0 0 0-3 3v15a3 3 0 0 0 3 3h22a3 3 0 0 0 3-3V3a3 3 0 0 0-3-3z" fill="#00ab8a" stroke-width="0!important"/><path fill="none!important" stroke="#00ab8a" stroke-linecap="round" stroke-linejoin="round" stroke-width="2" d="M4.89 15.67h2.04"/><path fill="none" stroke="#00ab8a" stroke-linecap="round" stroke-linejoin="round" stroke-width="2" d="M4.89 6.56h5.39M10.28 15.67h2.04M15.68 15.67h2.04M21.07 15.67h2.04"/></g></g></symbol><symbol id="question" viewBox="0 0 26.43 48.58"><title>&#x420;&#x435;&#x441;&#x443;&#x440;&#x441; 7</title><g data-name="&#x421;&#x43B;&#x43E;&#x439; 2"><g data-name="checkout 1000px 5-2" fill="none" stroke="#f7931e" stroke-linecap="round" stroke-miterlimit="10" stroke-width="3.68"><path d="M12.59 34.92c0-.68.12-2.58.12-3.1 0-4 7.58-9.86 7.58-9.86l4.21-8.7s-1.28-6-3.34-8.07A11.42 11.42 0 0 0 5 5.18a11.43 11.43 0 0 0-3.17 7.24M15.29 41.66H8.91M15.29 46.74H8.91" opacity=".6"/></g></g></symbol><symbol id="slider-next" viewBox="0 0 60 52.88"><title>&#x420;&#x435;&#x441;&#x443;&#x440;&#x441; 7</title><g data-name="&#x421;&#x43B;&#x43E;&#x439; 2"><g data-name="checkout 1000px 5"><path d="M18.22 52.88h23.56a7 7 0 0 0 6.06-3.5l11.22-19.44a7 7 0 0 0 0-7L47.84 3.5A7 7 0 0 0 41.78 0H18.22a7 7 0 0 0-6.06 3.5L.94 22.94a7 7 0 0 0 0 7l11.22 19.44a7 7 0 0 0 6.06 3.5z" fill="#808d9b" fill-opacity=".2" stroke-miterlimit="10" stroke-opacity=".5" stroke-width="2"/><path d="M25.52 14.12l12.32 12.32-12.32 12.32" fill="none" stroke="#808d9b" stroke-linecap="round" stroke-linejoin="round" stroke-width="3" opacity=".8"/></g></g></symbol><symbol id="slider-prev" viewBox="0 0 59.69 52.61"><title>&#x420;&#x435;&#x441;&#x443;&#x440;&#x441; 2</title><g data-name="&#x421;&#x43B;&#x43E;&#x439; 2"><g data-name="checkout 1000px 5"><path d="M41.54 0H18.15a7 7 0 0 0-6.06 3.5L.94 22.81a7 7 0 0 0 0 7l11.14 19.3a7 7 0 0 0 6.06 3.5h23.4a7 7 0 0 0 6.06-3.5l11.15-19.3a7 7 0 0 0 0-7L47.61 3.5A7 7 0 0 0 41.54 0z" fill="#808d9b" fill-opacity=".2" stroke-miterlimit="10" stroke-opacity=".2" stroke-width="2"/><path d="M34.09 38.57L21.83 26.31 34.09 14" fill="none" stroke="#808d9b" stroke-linecap="round" stroke-linejoin="round" stroke-width="3" opacity=".8"/></g></g></symbol><symbol id="star" viewBox="0 0 29 29"><title>&#x420;&#x435;&#x441;&#x443;&#x440;&#x441; 3</title><g data-name="&#x421;&#x43B;&#x43E;&#x439; 2"><path fill="none" stroke="#00ab8a" stroke-linecap="round" stroke-linejoin="round" stroke-width="3" d="M14.5 1.5l3.81 3.81h5.38v5.38l3.81 3.81-3.81 3.81v5.38h-5.38L14.5 27.5l-3.81-3.81H5.31v-5.38L1.5 14.5l3.81-3.81V5.31h5.38L14.5 1.5z" data-name="checkout 1000px 5"/></g></symbol><symbol id="vk" viewBox="0 0 60 60"><title>&#x420;&#x435;&#x441;&#x443;&#x440;&#x441; 1</title><g data-name="&#x421;&#x43B;&#x43E;&#x439; 2"><g data-name="checkout 1000px 3b"><g mask="url(#vk-b)"><circle cx="30" cy="30" r="30" fill="#4d75a3"/><path d="M30 1A29 29 0 1 1 1 30 29 29 0 0 1 30 1m0-1a30 30 0 1 0 30 30A30 30 0 0 0 30 0z" opacity=".2"/></g><path d="M34.52 28.78v-.06A4.63 4.63 0 0 0 37.67 24c0-3.21-2.63-5-5.49-5h-9.85v21.76h9c5.5 0 7.66-3.43 7.66-6.6.01-3.42-1.86-4.84-4.47-5.38zm-7.11-5.91h1.14a6.48 6.48 0 0 1 2.83.32 2.28 2.28 0 0 1 1 2 2.51 2.51 0 0 1-.89 2 4.15 4.15 0 0 1-2.61.51h-1.47zm5.21 13.39a5 5 0 0 1-2.8.48h-2.41v-5.41H30a5.1 5.1 0 0 1 2.49.41A2.75 2.75 0 0 1 33.72 34a2.81 2.81 0 0 1-1.1 2.26z" fill="#fff"/></g></g></symbol></svg>