<?xml version="1.0" encoding="UTF-8"?><!DOCTYPE svg PUBLIC "-//W3C//DTD SVG 1.1//EN" "http://www.w3.org/Graphics/SVG/1.1/DTD/svg11.dtd"><svg xmlns="http://www.w3.org/2000/svg"><symbol id="check-border" viewBox="0 0 24.6 30"><title>&#x420;&#x435;&#x441;&#x443;&#x440;&#x441; 5</title><g data-name="&#x421;&#x43B;&#x43E;&#x439; 2"><g data-name="checkout 1000px 5" fill="none" stroke="#fff" stroke-linecap="round" stroke-linejoin="round" stroke-width="2"><path d="M18.39 11l-8.01 8-4.17-4.16"/><path d="M23.55 6.52A43.32 43.32 0 0 1 12.3 1 43.32 43.32 0 0 1 1 6.52c-.1 3.21 0 6.91 0 10.56A9.36 9.36 0 0 0 5 25a40 40 0 0 0 7.31 4 40 40 0 0 0 7.31-4 9.36 9.36 0 0 0 3.94-8c-.01-3.57.09-7.27-.01-10.48z"/></g></g></symbol><symbol id="garage" viewBox="0 0 23.65 16"><title>&#x420;&#x435;&#x441;&#x443;&#x440;&#x441; 1</title><g data-name="&#x421;&#x43B;&#x43E;&#x439; 2"><g data-name="checkout 1000px 5" fill="none" stroke="#fff" stroke-linecap="round" stroke-linejoin="round" stroke-width="2"><path d="M1 5.78l5.41-2.39L11.82 1l5.41 2.39 5.42 2.39M3.12 15V4.86M20.53 4.86V15M6.64 7.62H17M6.64 10.87H17M6.64 14.12H17"/></g></g></symbol><symbol id="purse" viewBox="0 0 28 21"><title>&#x420;&#x435;&#x441;&#x443;&#x440;&#x441; 6</title><g data-name="&#x421;&#x43B;&#x43E;&#x439; 2"><g data-name="checkout 1000px 5"><path d="M25 2a1 1 0 0 1 1 1v15a1 1 0 0 1-1 1H3a1 1 0 0 1-1-1V3a1 1 0 0 1 1-1h22m0-2H3a3 3 0 0 0-3 3v15a3 3 0 0 0 3 3h22a3 3 0 0 0 3-3V3a3 3 0 0 0-3-3z" fill="#00ab8a"/><path fill="none" stroke="#00ab8a" stroke-linecap="round" stroke-linejoin="round" stroke-width="2" d="M4.89 15.67h2.04M4.89 6.56h5.39M10.28 15.67h2.04M15.68 15.67h2.04M21.07 15.67h2.04"/></g></g></symbol><symbol id="slider-next" viewBox="0 0 60 52.88"><title>&#x420;&#x435;&#x441;&#x443;&#x440;&#x441; 7</title><g data-name="&#x421;&#x43B;&#x43E;&#x439; 2"><g data-name="checkout 1000px 5"><path d="M18.22 52.88h23.56a7 7 0 0 0 6.06-3.5l11.22-19.44a7 7 0 0 0 0-7L47.84 3.5A7 7 0 0 0 41.78 0H18.22a7 7 0 0 0-6.06 3.5L.94 22.94a7 7 0 0 0 0 7l11.22 19.44a7 7 0 0 0 6.06 3.5z" fill="#808d9b" fill-opacity=".2"/><path d="M25.52 14.12l12.32 12.32-12.32 12.32" fill="none" stroke="#808d9b" stroke-linecap="round" stroke-linejoin="round" stroke-width="3" opacity=".8"/></g></g></symbol><symbol id="slider-prev" viewBox="0 0 59.69 52.61"><title>&#x420;&#x435;&#x441;&#x443;&#x440;&#x441; 2</title><g data-name="&#x421;&#x43B;&#x43E;&#x439; 2"><g data-name="checkout 1000px 5"><path d="M41.54 0H18.15a7 7 0 0 0-6.06 3.5L.94 22.81a7 7 0 0 0 0 7l11.14 19.3a7 7 0 0 0 6.06 3.5h23.4a7 7 0 0 0 6.06-3.5l11.15-19.3a7 7 0 0 0 0-7L47.61 3.5A7 7 0 0 0 41.54 0z" fill="#808d9b" fill-opacity=".2"/><path d="M34.09 38.57L21.83 26.31 34.09 14" fill="none" stroke="#808d9b" stroke-linecap="round" stroke-linejoin="round" stroke-width="3" opacity=".8"/></g></g></symbol><symbol id="star" viewBox="0 0 29 29"><title>&#x420;&#x435;&#x441;&#x443;&#x440;&#x441; 3</title><g data-name="&#x421;&#x43B;&#x43E;&#x439; 2"><path fill="none" stroke="#00ab8a" stroke-linecap="round" stroke-linejoin="round" stroke-width="3" d="M14.5 1.5l3.81 3.81h5.38v5.38l3.81 3.81-3.81 3.81v5.38h-5.38L14.5 27.5l-3.81-3.81H5.31v-5.38L1.5 14.5l3.81-3.81V5.31h5.38L14.5 1.5z" data-name="checkout 1000px 5"/></g></symbol></svg>