<?xml version="1.0" encoding="UTF-8"?><!DOCTYPE svg PUBLIC "-//W3C//DTD SVG 1.1//EN" "http://www.w3.org/Graphics/SVG/1.1/DTD/svg11.dtd"><svg xmlns="http://www.w3.org/2000/svg"><symbol id="care" viewBox="0 0 101.2 90"><path d="M79.2 34.9c-4.1-1.3-11.7-3.1-11.7-3.1-3.4-2.6-6.1-4.9-8.4-6-1-.4-4-1.4-9.6-1.6-6.7-.3-9.9 0-12.5 1.6-1.8 1.1-4 2.4-6.6 4.3-.5.4-.9.5-1.5.6-1.2.2-1.9.2-3 .3-2.4.2-3.5 1.2-3.9 4.3-.3 1.7-.3 2.5-.4 4.7-.2 3.1.3 4.1 1.4 4.7 1.4.7 4 .9 4.6.9-.2-.6-.3-1.2-.3-1.8-.1-3.3 2.4-6 5.7-6.1 3.3-.1 6 2.4 6.1 5.7 0 .8-.1 1.5-.3 2.2h26.3c-.2-.6-.3-1.2-.3-1.8-.1-3.3 2.4-6 5.7-6.1 3.3-.1 6 2.4 6.1 5.7 0 .8-.1 1.5-.3 2.2h3.3c2.7 0 3-1.4 3.4-2.7.3-1.4.8-4.1.8-4.1s.3-2.3-4.6-3.9z" fill="none" stroke="#08ab8a" stroke-width="3" stroke-linecap="round" stroke-miterlimit="10"/><circle cx="33" cy="43.7" r="5.9" fill="none" stroke="#08ab8a" stroke-width="3" stroke-linecap="round" stroke-miterlimit="10"/><circle cx="70.3" cy="43.7" r="5.9" fill="none" stroke="#08ab8a" stroke-width="3" stroke-linecap="round" stroke-miterlimit="10"/><path d="M22 4.5l-20.8 36c-1.6 2.8-1.6 6.2 0 9l20.8 36c1.6 2.8 4.6 4.5 7.8 4.5h41.6c3.2 0 6.2-1.7 7.8-4.5l20.8-36c1.6-2.8 1.6-6.2 0-9l-20.8-36C77.5 1.7 74.6 0 71.4 0H29.8c-3.2 0-6.2 1.7-7.8 4.5z" opacity=".15" fill="#08ab8a"/><path d="M21.9 61.5s3.5-2.3 6.1-3.5c2.6-1.3 8.2-5 13.6-3.5 6 1.7 10.4 2.1 14 2.5 1.5.1 2.1 1.2 1.3 2.6-.8 1.4-2 2.7-5.1 2.8-3.1.1-10.2-1-10.2-1" fill="none" stroke="#08ab8a" stroke-width="3" stroke-linecap="round" stroke-linejoin="round" stroke-miterlimit="10"/><path d="M57 60c.4.1.3.9 2.4-.1 1.3-.6 3.2-1.3 5.2-2.2 3.6-1.7 6.8-2.7 8.5-3.4 1.7-.6 3.8-1 4.9 0 1.1 1 1.8 1.3-.4 2.6S62 67.3 60.3 68.4c-1.7 1.1-4.6 3.5-8.8 2.6-4.2-.9-11.6-2.5-14.4-3.1-2.8-.6-2.6-.4-3.8.5-1.2.9-3.7 2.6-3.7 2.6" fill="none" stroke="#08ab8a" stroke-width="3" stroke-linecap="round" stroke-linejoin="round" stroke-miterlimit="10"/></symbol><symbol id="exterior-basic" viewBox="0 0 101.2 90"><path d="M22 4.5l-20.8 36c-1.6 2.8-1.6 6.2 0 9l20.8 36c1.6 2.8 4.6 4.5 7.8 4.5h41.6c3.2 0 6.2-1.7 7.8-4.5l20.8-36c1.6-2.8 1.6-6.2 0-9l-20.8-36C77.5 1.7 74.6 0 71.4 0H29.8c-3.2 0-6.2 1.7-7.8 4.5z" opacity=".15" fill="#08ab8a"/><path d="M66.9 60L65 57.2c-.6-1.3-2.2-2.2-4-2.2H39.3c-1.8 0-3.5.9-4 2.2l-2 2.8M83.1 54.5c0-2.7.1-3.4-.1-6.8-.2-4.5-.9-6.3-3.1-8.6.6 0 1.3-.1 2.2-.1 3.1-.1 2.4-2.3 2.3-3.3-.1-1 0-2.8-3.2-2.6-3.3.2-1.8.1-3.3.2-1.3.1-2.4.3-2.9.8-2.5-2.9-4.4-5.5-4.4-5.5-3.3-3.9-5.6-6.1-10.2-6.4 0 0-4.2-.2-7.9-.3v-.1h-4.2v.1c-3.6.1-7.9.3-7.9.3-4.5.4-6.9 2.5-10.2 6.4 0 0-2 2.7-4.5 5.5-.5-.4-1.3-.7-2.5-.8-1.5-.1 0 0-3.3-.2s-3.1 1.7-3.2 2.6c-.1.9-.9 3.1 2.3 3.3.8 0 1.4.1 2 .1-2.2 2.3-2.9 4.2-3.1 8.6-.1 3.4-.1 4.1-.1 6.8" fill="none" stroke="#08ab8a" stroke-width="3" stroke-linecap="round" stroke-linejoin="round" stroke-miterlimit="10"/><path d="M25.8 34c2.5 1.5 7 1.3 7 1.3h19" fill="none" stroke="#08ab8a" stroke-width="3" stroke-linecap="round" stroke-linejoin="round" stroke-miterlimit="10"/><path d="M74.6 34c-2.5 1.5-7 1.3-7 1.3h-19" fill="none" stroke="#08ab8a" stroke-width="3" stroke-linecap="round" stroke-linejoin="round" stroke-miterlimit="10"/><path d="M35.5 50H25.2c-1.1 0-2.1-.9-2.1-2.1v-2.4c0-1.1.9-2.1 2.1-2.1h9.1c1.6 0 2.5 1 2.8 2.1.3.7.5 1.2.5 1.2.7 2.1-.3 3.3-2.1 3.3zM65.6 50H76c1.1 0 2.1-.9 2.1-2.1v-2.4c0-1.1-.9-2.1-2.1-2.1h-9.1c-1.6 0-2.5 1-2.8 2.1-.3.7-.5 1.2-.5 1.2-.8 2.1.2 3.3 2 3.3z" fill="none" stroke="#08ab8a" stroke-width="3" stroke-miterlimit="10"/><path fill="none" stroke="#08ab8a" stroke-width="3" stroke-linecap="round" stroke-linejoin="round" stroke-miterlimit="10" d="M59.9 43.5H41M57.9 49.3H43"/></symbol><symbol id="exterior-max" viewBox="0 0 101.2 90"><path d="M22 4.5l-20.8 36c-1.6 2.8-1.6 6.2 0 9l20.8 36c1.6 2.8 4.6 4.5 7.8 4.5h41.6c3.2 0 6.2-1.7 7.8-4.5l20.8-36c1.6-2.8 1.6-6.2 0-9l-20.8-36C77.5 1.7 74.6 0 71.4 0H29.8c-3.2 0-6.2 1.7-7.8 4.5z" opacity=".15" fill="#08ab8a"/><g fill="none" stroke="#08ab8a" stroke-width="3" stroke-miterlimit="10"><path d="M83.1 61.2c0-2.7.1-10.1-.1-13.5-.2-4.5-.9-6.3-3.1-8.6.6 0 1.3-.1 2.2-.1 3.1-.1 2.4-2.3 2.3-3.3-.1-1 0-2.8-3.2-2.6-3.3.2-1.8.1-3.3.2-1.3.1-2.4.3-2.9.8-2.5-2.9-4.4-5.5-4.4-5.5-3.3-3.9-5.6-6.1-10.2-6.4 0 0-4.2-.2-7.9-.3v-.1h-4.2v.1c-3.6.1-7.9.3-7.9.3-4.5.4-6.9 2.5-10.2 6.4 0 0-2 2.7-4.5 5.5-.5-.4-1.3-.7-2.5-.8-1.5-.1 0 0-3.3-.2s-3.1 1.7-3.2 2.6c-.1.9-.9 3.1 2.3 3.3.8 0 1.4.1 2 .1-2.2 2.3-2.9 4.2-3.1 8.6-.1 3.4-.1 10.7-.1 13.5" stroke-linecap="round" stroke-linejoin="round"/><path d="M25.8 34c2.5 1.5 7 1.3 7 1.3h19" stroke-linecap="round" stroke-linejoin="round"/><path d="M74.6 34c-2.5 1.5-7 1.3-7 1.3h-19" stroke-linecap="round" stroke-linejoin="round"/><path d="M35.5 50H25.2c-1.1 0-2.1-.9-2.1-2.1v-2.4c0-1.1.9-2.1 2.1-2.1h9.1c1.6 0 2.5 1 2.8 2.1.3.7.5 1.2.5 1.2.7 2.1-.3 3.3-2.1 3.3zM65.6 50H76c1.1 0 2.1-.9 2.1-2.1v-2.4c0-1.1-.9-2.1-2.1-2.1h-9.1c-1.6 0-2.5 1-2.8 2.1-.3.7-.5 1.2-.5 1.2-.8 2.1.2 3.3 2 3.3z"/><path d="M57.5 50H44.1c-1.4 0-2.5.9-2.9 2.2L38.8 61h24l-2.4-8.8c-.4-1.3-1.6-2.2-2.9-2.2zM54.1 16h-7.5c-1.8 0-3.5 1-4 2.5l-1.9 3.2H60l-1.9-3.2c-.5-1.5-2.1-2.5-4-2.5zM29.3 43.5l1.6 6.5M72.2 43.5L70.7 50" stroke-linecap="round" stroke-linejoin="round"/><g stroke-linecap="round" stroke-linejoin="round"><path d="M34.6 55.3h-6c-2.5 0-2.9.1-4.6 1.2-1.5 1.1-1.7 4.5-1.7 4.5H33l1.6-5.7zM66.2 55.3h6c2.5 0 2.9.1 4.6 1.2 1.5 1.1 2.1 4.5 2.1 4.5H67.7l-1.5-5.7z"/></g></g><path fill="#08ab8a" d="M35.5 71.7l1.8 3.7 4.1.6-3 2.8.7 4.1-3.6-1.9-3.7 1.9.7-4.1-3-2.8 4.1-.6zM49.3 71.7l1.8 3.7 4.1.6-2.9 2.8.7 4.1-3.7-1.9-3.6 1.9.7-4.1-3-2.8 4.1-.6zM63.2 71.7l1.8 3.7 4.1.6-3 2.8.7 4.1-3.6-1.9-3.7 1.9.7-4.1-2.9-2.8 4-.6z"/></symbol><symbol id="exterior-optim" viewBox="0 0 101.2 90"><path fill="#08ab8a" d="M50.6 71.7l1.8 3.7 4.1.6-3 2.8.7 4.1-3.6-1.9-3.7 1.9.7-4.1-2.9-2.8 4.1-.6z"/><path d="M22 4.5l-20.8 36c-1.6 2.8-1.6 6.2 0 9l20.8 36c1.6 2.8 4.6 4.5 7.8 4.5h41.6c3.2 0 6.2-1.7 7.8-4.5l20.8-36c1.6-2.8 1.6-6.2 0-9l-20.8-36C77.5 1.7 74.6 0 71.4 0H29.8c-3.2 0-6.2 1.7-7.8 4.5z" opacity=".15" fill="#08ab8a"/><g fill="none" stroke="#08ab8a" stroke-width="3" stroke-linecap="round" stroke-linejoin="round" stroke-miterlimit="10"><path d="M59.9 43.3H41M57.9 49H43"/></g><path fill="none" stroke="#08ab8a" stroke-width="3" stroke-linecap="round" stroke-linejoin="round" stroke-miterlimit="10" d="M59.7 56H44.8M66.1 61.1l-1.9-2.8c-.6-1.3-2.2-2.2-4-2.2H40.8c-1.8 0-3.5.9-4 2.2l-1.9 2.8"/><g fill="none" stroke="#08ab8a" stroke-width="3" stroke-linecap="round" stroke-linejoin="round" stroke-miterlimit="10"><circle cx="26.4" cy="58.8" r="3.1"/><circle cx="74.7" cy="58.8" r="3.1"/></g><path d="M83.1 54.5c0-2.7.1-3.4-.1-6.8-.2-4.5-.9-6.3-3.1-8.6.6 0 1.3-.1 2.2-.1 3.1-.1 2.4-2.3 2.3-3.3-.1-1 0-2.8-3.2-2.6-3.3.2-1.8.1-3.3.2-1.3.1-2.4.3-2.9.8-2.5-2.9-4.4-5.5-4.4-5.5-3.3-3.9-5.6-6.1-10.2-6.4 0 0-4.2-.2-7.9-.3v-.1h-4.2v.1c-3.6.1-7.9.3-7.9.3-4.5.4-6.9 2.5-10.2 6.4 0 0-2 2.7-4.5 5.5-.5-.4-1.3-.7-2.5-.8-1.5-.1 0 0-3.3-.2s-3.1 1.7-3.2 2.6c-.1.9-.9 3.1 2.3 3.3.8 0 1.4.1 2 .1-2.2 2.3-2.9 4.2-3.1 8.6-.1 3.4-.1 4.1-.1 6.8" fill="none" stroke="#08ab8a" stroke-width="3" stroke-linecap="round" stroke-linejoin="round" stroke-miterlimit="10"/><path d="M25.8 34c2.5 1.5 7 1.3 7 1.3h19" fill="none" stroke="#08ab8a" stroke-width="3" stroke-linecap="round" stroke-linejoin="round" stroke-miterlimit="10"/><path d="M74.6 34c-2.5 1.5-7 1.3-7 1.3h-19" fill="none" stroke="#08ab8a" stroke-width="3" stroke-linecap="round" stroke-linejoin="round" stroke-miterlimit="10"/><path d="M35.5 50H25.2c-1.1 0-2.1-.9-2.1-2.1v-2.4c0-1.1.9-2.1 2.1-2.1h9.1c1.6 0 2.5 1 2.8 2.1.3.7.5 1.2.5 1.2.7 2.1-.3 3.3-2.1 3.3zM65.6 50H76c1.1 0 2.1-.9 2.1-2.1v-2.4c0-1.1-.9-2.1-2.1-2.1h-9.1c-1.6 0-2.5 1-2.8 2.1-.3.7-.5 1.2-.5 1.2-.8 2.1.2 3.3 2 3.3z" fill="none" stroke="#08ab8a" stroke-width="3" stroke-miterlimit="10"/><path fill="none" stroke="#08ab8a" stroke-width="3" stroke-linecap="round" stroke-linejoin="round" stroke-miterlimit="10" d="M28.9 43.5l.6 2.6M71.8 43.5l-.6 2.4"/></symbol><symbol id="exterior-sport" viewBox="0 0 101.2 90"><path fill="#08ab8a" d="M51 67.6l2.5 5.1 5.6.8-4 4L56 83l-5-2.6-5 2.6.9-7-4-2.5 5.6-.8z"/><path d="M83.3 60.5c0-2.7.1-9.4-.1-12.7-.2-4.5-.9-6.3-3.1-8.6.6 0 1.3-.1 2.2-.1 3.1-.1 2.4-2.3 2.3-3.3-.1-1 0-2.8-3.2-2.6-3.3.2-1.8.1-3.3.2-1.3.1-2.4.3-2.9.8-2.5-2.9-4.4-5.5-4.4-5.5-3.3-3.9-5.6-6.1-10.2-6.4 0 0-4.2-.2-7.9-.3v-.1h-4.2v.1c-3.6.1-7.9.3-7.9.3-4.5.4-6.9 2.5-10.2 6.4 0 0-2 2.7-4.5 5.5-.5-.4-1.3-.7-2.5-.8-1.5-.1 0 0-3.3-.2s-3.1 1.7-3.2 2.6c-.1.9-.9 3.1 2.3 3.3.8 0 1.4.1 2 .1-2.2 2.3-2.9 4.2-3.1 8.6-.1 3.3-.1 9.9-.1 12.7" fill="none" stroke="#08ab8a" stroke-width="3" stroke-linecap="round" stroke-linejoin="round" stroke-miterlimit="10"/><path d="M26 34c2.5 1.5 7 1.3 7 1.3h19" fill="none" stroke="#08ab8a" stroke-width="3" stroke-linecap="round" stroke-linejoin="round" stroke-miterlimit="10"/><path d="M74.8 34c-2.5 1.5-7 1.3-7 1.3h-19" fill="none" stroke="#08ab8a" stroke-width="3" stroke-linecap="round" stroke-linejoin="round" stroke-miterlimit="10"/><path d="M22 3.5l-20.8 37c-1.6 2.8-1.6 6.2 0 9l20.8 36c1.6 2.8 4.6 4.5 7.8 4.5h41.6c3.2 0 6.2-1.7 7.8-4.5l20.8-36c1.6-2.8 1.6-6.2 0-9l-20.8-36C76.1-.9 76.2 0 71.4 0H29.8c-3.2 0-6.2.8-7.8 3.5z" opacity=".15" fill="#08ab8a"/><path d="M35.7 50.1H25.4c-1.1 0-2.1-.9-2.1-2.1v-2.4c0-1.1.9-2.1 2.1-2.1h9.1c1.6 0 2.5 1 2.8 2.1.3.7.5 1.2.5 1.2.7 2.1-.2 3.3-2.1 3.3zM65.9 50.1h10.3c1.1 0 2.1-.9 2.1-2.1v-2.4c0-1.1-.9-2.1-2.1-2.1h-9.1c-1.6 0-2.5 1-2.8 2.1-.3.7-.5 1.2-.5 1.2-.7 2.1.2 3.3 2.1 3.3z" fill="none" stroke="#08ab8a" stroke-width="3" stroke-miterlimit="10"/><path d="M57.7 50.1H44.3c-1.4 0-2.5.9-2.9 2.2L39 61.1h24l-2.4-8.8c-.4-1.3-1.5-2.2-2.9-2.2zM35.1 55.3h-6c-2.5 0-2.9.1-4.6 1.2-1.5 1.1-1.7 4.5-1.7 4.5h10.8l1.5-5.7zM66.7 55.3h6c2.5 0 2.9.1 4.6 1.2 1.5 1.1 2.1 4.5 2.1 4.5H68.3l-1.6-5.7zM33.3 50.1c-1.8 0-3.3-1.5-3.3-3.3s1.5-3.3 3.3-3.3M67.6 43.6c1.8 0 3.3 1.5 3.3 3.3s-1.5 3.3-3.3 3.3" fill="none" stroke="#08ab8a" stroke-width="3" stroke-linecap="round" stroke-linejoin="round" stroke-miterlimit="10"/><g fill="none" stroke="#08ab8a" stroke-width="3" stroke-linecap="round" stroke-linejoin="round" stroke-miterlimit="10"><path d="M29.4 18.3h11.3c1.2 0 2.4-.3 3.5-.9 0 0 1.8-1.3 3.1-1.3h7.1c1.2 0 3.1 1.3 3.1 1.3 1 .6 3.2.9 4.4.9H72M29.1 16.3l-1.5 3.8M72.4 16.3l1.6 3.8"/></g></symbol><symbol id="protect-max" viewBox="0 0 101.2 90"><path d="M22 4.5l-20.8 36c-1.6 2.8-1.6 6.2 0 9l20.8 36c1.6 2.8 4.6 4.5 7.8 4.5h41.6c3.2 0 6.2-1.7 7.8-4.5l20.8-36c1.6-2.8 1.6-6.2 0-9l-20.8-36C77.5 1.7 74.6 0 71.4 0H29.8c-3.2 0-6.2 1.7-7.8 4.5z" opacity=".15" fill="#08ab8a"/><path d="M89.2 44.3c-1.1-1.9-3.1-3.7-6.9-4.9-4-1.3-10.6-2.9-13-3.5-.5-.4-.9-.7-1.3-1-3.2-2.5-5.9-4.6-8.6-5.8-1.3-.6-5.1-1.9-12.6-2.2-1.7-.1-3.2-.1-4.4-.1-4.8 0-8.8.4-12.4 2.6l-.6.4c-2 1.2-4.4 2.7-7.2 4.7-.7.1-1.2.1-1.8.2-.4 0-.8.1-1.3.1-3.9.4-7.4 2.7-8.3 5.8" fill="none" stroke="#08ab8a" stroke-width="3" stroke-linecap="round" stroke-miterlimit="10"/><path d="M79.5 44.7c-4.5-1.5-13.1-3.4-13.1-3.4-3.8-2.9-6.8-5.5-9.4-6.6-1.1-.5-4.5-1.5-10.8-1.8-7.4-.3-11 0-13.9 1.8-2 1.2-4.5 2.7-7.4 4.7-.6.4-1 .6-1.7.7-1.3.2-2.1.2-3.3.3-2.6.3-3.9 1.3-4.4 4.8-.3 1.9-.3 2.8-.5 5.2-.2 3.5.4 4.6 1.6 5.2 1.6.8 4.4 1 5.1 1-.2-.6-.4-1.3-.4-2-.1-3.6 2.7-6.7 6.4-6.8 3.6-.1 6.7 2.7 6.8 6.4 0 .9-.1 1.7-.4 2.4h29.3c-.2-.6-.4-1.3-.4-2-.1-3.6 2.7-6.7 6.4-6.8 3.6-.1 6.7 2.7 6.8 6.4 0 .9-.1 1.7-.4 2.4h3.6c3 0 3.4-1.5 3.8-3 .4-1.5.9-4.5.9-4.5s.8-2.7-4.6-4.4z" fill="none" stroke="#08ab8a" stroke-width="3" stroke-linecap="round" stroke-miterlimit="10"/><circle cx="27.9" cy="54.5" r="6.6" fill="none" stroke="#08ab8a" stroke-width="3" stroke-linecap="round" stroke-miterlimit="10"/><circle cx="69.6" cy="54.5" r="6.6" fill="none" stroke="#08ab8a" stroke-width="3" stroke-linecap="round" stroke-miterlimit="10"/><path d="M74.6 16.4c.1.5.3.9.6 1.4s.5.9.7 1.3c.3.4.5.8.8 1.1s.5.8.8 1.1c.2.4.5.7.7 1.1.2.4.4.8.5 1.2.1.4.2.9.2 1.3 0 .6-.1 1.1-.4 1.6-.3.5-.6.9-1 1.2-.4.3-.9.6-1.3.8-.5.2-1 .3-1.5.3-.7 0-1.4-.2-2-.5-.7-.3-1.2-.7-1.7-1.3-.4-.6-.6-1.3-.6-2 0-.6.1-1.2.3-1.8.2-.6.5-1.1.9-1.7s.7-1 1.1-1.5.7-1.1 1.1-1.7c.4-.7.7-1.3.8-1.9zm-.7 10.5" fill="none" stroke="#08ab8a" stroke-width="3" stroke-linecap="round" stroke-miterlimit="10"/><path fill="#08ab8a" d="M34.4 68.9l1.8 3.7 4.1.6-2.9 2.9.7 4-3.7-1.9-3.6 1.9.7-4-3-2.9 4.1-.6zM48.2 68.9l1.9 3.7 4 .6-2.9 2.9.7 4-3.7-1.9-3.6 1.9.7-4-3-2.9 4.1-.6zM62.2 68.9l1.9 3.7 4 .6-2.9 2.9.7 4-3.7-1.9-3.6 1.9.7-4-3-2.9 4.1-.6z"/></symbol><symbol id="protect-min" viewBox="0 0 101.2 90"><path d="M22 4.5l-20.8 36c-1.6 2.8-1.6 6.2 0 9l20.8 36c1.6 2.8 4.6 4.5 7.8 4.5h41.6c3.2 0 6.2-1.7 7.8-4.5l20.8-36c1.6-2.8 1.6-6.2 0-9l-20.8-36C77.5 1.7 74.6 0 71.4 0H29.8c-3.2 0-6.2 1.7-7.8 4.5z" opacity=".15" fill="#08ab8a"/><path d="M89.2 44.3c-1.1-1.9-3.1-3.7-6.9-4.9-4-1.3-10.6-2.9-13-3.5-.5-.4-.9-.7-1.3-1-3.2-2.5-5.9-4.6-8.6-5.8-1.3-.6-5.1-1.9-12.6-2.2-1.7-.1-3.2-.1-4.4-.1-4.8 0-8.8.4-12.4 2.6l-.6.4c-2 1.2-4.4 2.7-7.2 4.7-.7.1-1.2.1-1.8.2-.4 0-.8.1-1.3.1-3.9.4-7.4 2.7-8.3 5.8" fill="none" stroke="#08ab8a" stroke-width="3" stroke-linecap="round" stroke-miterlimit="10"/><path d="M79.5 44.7c-4.5-1.5-13.1-3.4-13.1-3.4-3.8-2.9-6.8-5.5-9.4-6.6-1.1-.5-4.5-1.5-10.8-1.8-7.4-.3-11 0-13.9 1.8-2 1.2-4.5 2.7-7.4 4.7-.6.4-1 .6-1.7.7-1.3.2-2.1.2-3.3.3-2.6.3-3.9 1.3-4.4 4.8-.3 1.9-.3 2.8-.5 5.2-.2 3.5.4 4.6 1.6 5.2 1.6.8 4.4 1 5.1 1-.2-.6-.4-1.3-.4-2-.1-3.6 2.7-6.7 6.4-6.8 3.6-.1 6.7 2.7 6.8 6.4 0 .9-.1 1.7-.4 2.4h29.3c-.2-.6-.4-1.3-.4-2-.1-3.6 2.7-6.7 6.4-6.8 3.6-.1 6.7 2.7 6.8 6.4 0 .9-.1 1.7-.4 2.4h3.6c3 0 3.4-1.5 3.8-3 .4-1.5.9-4.5.9-4.5s.8-2.7-4.6-4.4z" fill="none" stroke="#08ab8a" stroke-width="3" stroke-linecap="round" stroke-miterlimit="10"/><circle cx="27.9" cy="54.5" r="6.6" fill="none" stroke="#08ab8a" stroke-width="3" stroke-linecap="round" stroke-miterlimit="10"/><circle cx="69.6" cy="54.5" r="6.6" fill="none" stroke="#08ab8a" stroke-width="3" stroke-linecap="round" stroke-miterlimit="10"/><path d="M74.6 16.4c.1.5.3.9.6 1.4.2.5.5.9.7 1.3.3.4.5.8.8 1.1.3.4.5.8.8 1.1.2.4.5.7.7 1.1.2.4.4.8.5 1.2s.2.9.2 1.3c0 .6-.1 1.1-.4 1.6-.3.5-.6.9-1 1.2-.4.3-.9.6-1.4.8-.5.2-1 .3-1.5.3-.7 0-1.4-.2-2-.5-.6-.3-1.1-.7-1.6-1.3s-.6-1.3-.6-2c0-.6.1-1.2.3-1.8.2-.6.5-1.1.9-1.7s.7-1 1.1-1.5c.4-.5.7-1.1 1.1-1.7.4-.7.7-1.3.8-1.9zm-.7 10.5" fill="none" stroke="#08ab8a" stroke-width="3" stroke-linecap="round" stroke-miterlimit="10"/></symbol><symbol id="protect-optim" viewBox="0 0 101.2 90"><path d="M22 4.5l-20.8 36c-1.6 2.8-1.6 6.2 0 9l20.8 36c1.6 2.8 4.6 4.5 7.8 4.5h41.6c3.2 0 6.2-1.7 7.8-4.5l20.8-36c1.6-2.8 1.6-6.2 0-9l-20.8-36C77.5 1.7 74.6 0 71.4 0H29.8c-3.2 0-6.2 1.7-7.8 4.5z" opacity=".15" fill="#08ab8a"/><path d="M89.2 44.3c-1.1-1.9-3.1-3.7-6.9-4.9-4-1.3-10.6-2.9-13-3.5-.5-.4-.9-.7-1.3-1-3.2-2.5-5.9-4.6-8.6-5.8-1.3-.6-5.1-1.9-12.6-2.2-1.7-.1-3.2-.1-4.4-.1-4.8 0-8.8.4-12.4 2.6l-.6.4c-2 1.2-4.4 2.7-7.2 4.7-.7.1-1.2.1-1.8.2-.4 0-.8.1-1.3.1-3.9.4-7.4 2.7-8.3 5.8" fill="none" stroke="#08ab8a" stroke-width="3" stroke-linecap="round" stroke-miterlimit="10"/><path d="M79.5 44.7c-4.5-1.5-13.1-3.4-13.1-3.4-3.8-2.9-6.8-5.5-9.4-6.6-1.1-.5-4.5-1.5-10.8-1.8-7.4-.3-11 0-13.9 1.8-2 1.2-4.5 2.7-7.4 4.7-.6.4-1 .6-1.7.7-1.3.2-2.1.2-3.3.3-2.6.3-3.9 1.3-4.4 4.8-.3 1.9-.3 2.8-.5 5.2-.2 3.5.4 4.6 1.6 5.2 1.6.8 4.4 1 5.1 1-.2-.6-.4-1.3-.4-2-.1-3.6 2.7-6.7 6.4-6.8 3.6-.1 6.7 2.7 6.8 6.4 0 .9-.1 1.7-.4 2.4h29.3c-.2-.6-.4-1.3-.4-2-.1-3.6 2.7-6.7 6.4-6.8 3.6-.1 6.7 2.7 6.8 6.4 0 .9-.1 1.7-.4 2.4h3.6c3 0 3.4-1.5 3.8-3 .4-1.5.9-4.5.9-4.5s.8-2.7-4.6-4.4z" fill="none" stroke="#08ab8a" stroke-width="3" stroke-linecap="round" stroke-miterlimit="10"/><circle cx="27.9" cy="54.5" r="6.6" fill="none" stroke="#08ab8a" stroke-width="3" stroke-linecap="round" stroke-miterlimit="10"/><circle cx="69.6" cy="54.5" r="6.6" fill="none" stroke="#08ab8a" stroke-width="3" stroke-linecap="round" stroke-miterlimit="10"/><path d="M74.6 16.4c.1.5.3.9.6 1.4s.5.9.7 1.3c.3.4.5.8.8 1.1s.5.8.8 1.1c.2.4.5.7.7 1.1.2.4.4.8.5 1.2.1.4.2.9.2 1.3 0 .6-.1 1.1-.4 1.6-.3.5-.6.9-1 1.2-.4.3-.9.6-1.3.8-.5.2-1 .3-1.5.3-.7 0-1.4-.2-2-.5-.7-.3-1.2-.7-1.7-1.3-.4-.6-.6-1.3-.6-2 0-.6.1-1.2.3-1.8.2-.6.5-1.1.9-1.7s.7-1 1.1-1.5.7-1.1 1.1-1.7c.4-.7.7-1.3.8-1.9zm-.7 10.5" fill="none" stroke="#08ab8a" stroke-width="3" stroke-linecap="round" stroke-miterlimit="10"/><path fill="#08ab8a" d="M50.6 68.9l1.8 3.7 4.1.6-3 2.9.7 4-3.6-1.9-3.7 1.9.7-4-2.9-2.9 4.1-.6z"/></symbol><symbol id="steal-max" viewBox="0 0 101.2 90"><path d="M22 4.5l-20.8 36c-1.6 2.8-1.6 6.2 0 9l20.8 36c1.6 2.8 4.6 4.5 7.8 4.5h41.6c3.2 0 6.2-1.7 7.8-4.5l20.8-36c1.6-2.8 1.6-6.2 0-9l-20.8-36C77.5 1.7 74.6 0 71.4 0H29.8c-3.2 0-6.2 1.7-7.8 4.5z" opacity=".15" fill="#08ab8a"/><path fill="#08ab8a" d="M34.9 68.9l1.8 3.7 4.1.6-2.9 2.8.7 4.1-3.7-1.9-3.6 1.9.7-4.1-3-2.8 4.1-.6zM48.7 68.9l1.9 3.7 4 .6-2.9 2.8.7 4.1-3.7-1.9-3.6 1.9.7-4.1-3-2.8 4.1-.6zM62.7 68.9l1.9 3.7 4 .6-2.9 2.8.7 4.1-3.7-1.9-3.6 1.9.7-4.1-3-2.8 4.1-.6z"/><path d="M38.2 49.1h-9c-1 0-1.8-.8-1.8-1.8v-2.1c0-1 .8-1.8 1.8-1.8h7.9c1.4 0 2.1.9 2.5 1.8.2.6.4 1 .4 1 .6 1.9-.2 2.9-1.8 2.9z" fill="none" stroke="#08ab8a" stroke-width="3" stroke-miterlimit="10"/><path fill="none" stroke="#08ab8a" stroke-width="3" stroke-linecap="round" stroke-linejoin="round" stroke-miterlimit="10" d="M26.9 58.6h13M63.1 58.6h8.8"/><path d="M63.4 29.3v-7.7c0-4.1 3.3-7.4 7.4-7.4 4.1 0 7.4 3.3 7.4 7.4v7.7" fill="none" stroke="#08ab8a" stroke-width="3" stroke-miterlimit="10"/><path fill="none" stroke="#08ab8a" stroke-width="3" stroke-linecap="round" stroke-linejoin="round" stroke-miterlimit="10" d="M54.9 43.5H43M56.9 48.2H46.5M70.6 52c-7 0-12.7-5.7-12.7-12.7 0-4.2 2-7.9 5.1-10.2-1.7-1.7-3.4-2.6-5.9-2.8 0 0-3.4-.1-6.3-.2V26h-3.4v.1c-2.9.1-6.3.2-6.3.2-3.7.3-5.5 2.1-8.2 5.4 0 0-1.4 1.7-3.3 4-.3.3-1.4 0-2.3-.1-1.2-.1 0 0-2.6-.2-2.6-.1-2.5 1.4-2.6 2.2-.1.8-.7 2.6 1.8 2.7.6 0 1.2.1 1.6.1-1.8 1.9-2.4 3.5-2.5 7.2-.1 2.8 0 3.5 0 5.7 0 2.3.3 5.3 3.4 5.3v3.8c0 .7.3 1.6 2 1.6h5.5c1.5 0 2-.9 2-1.6v-3.8H62.6v3.8c0 .7.5 1.6 2 1.6h5.5c1.7 0 2-.9 2-1.6v-3.8c3.1 0 3.4-3 3.4-5.3V51c-1.6.7-3.2 1-4.9 1z"/><path d="M70.6 36.5v.3c-.1-.2 0-.3 0-.3m0-3.2c-1.7 0-3 1.5-3 3.4 0 1.2.6 2.3 1.5 2.9v4.8h3v-4.7c.9-.6 1.6-1.7 1.6-2.9-.1-2-1.4-3.5-3.1-3.5z" fill="#08ab8a"/><circle cx="70.6" cy="39.3" r="12.7" fill="none" stroke="#08ab8a" stroke-width="3" stroke-linecap="round" stroke-linejoin="round" stroke-miterlimit="10"/></symbol><symbol id="steal-min" viewBox="0 0 101.2 90"><path d="M38.3 49.1h-9c-1 0-1.8-.8-1.8-1.8v-2.1c0-1 .8-1.8 1.8-1.8h7.9c1.4 0 2.1.9 2.5 1.8.2.6.4 1 .4 1 .6 1.9-.2 2.9-1.8 2.9z" fill="none" stroke="#08ab8a" stroke-width="3" stroke-miterlimit="10"/><path d="M22 4.5l-20.8 36c-1.6 2.8-1.6 6.2 0 9l20.8 36c1.6 2.8 4.6 4.5 7.8 4.5h41.6c3.2 0 6.2-1.7 7.8-4.5l20.8-36c1.6-2.8 1.6-6.2 0-9l-20.8-36C77.5 1.7 74.6 0 71.4 0H29.8c-3.2 0-6.2 1.7-7.8 4.5z" opacity=".15" fill="#08ab8a"/><path fill="none" stroke="#08ab8a" stroke-width="3" stroke-linecap="round" stroke-linejoin="round" stroke-miterlimit="10" d="M27 58.6h13M63.1 58.6H72"/><path d="M63.5 29.3v-7.7c0-4.1 3.3-7.4 7.4-7.4 4.1 0 7.4 3.3 7.4 7.4v7.7" fill="none" stroke="#08ab8a" stroke-width="3" stroke-miterlimit="10"/><path fill="none" stroke="#08ab8a" stroke-width="3" stroke-linecap="round" stroke-linejoin="round" stroke-miterlimit="10" d="M55 43.5H43.1M57 48.2H46.6M70.7 52c-7 0-12.7-5.7-12.7-12.7 0-4.2 2-7.9 5.1-10.2-1.7-1.7-3.4-2.6-5.9-2.8 0 0-3.4-.1-6.3-.2V26h-3.4v.1c-2.9.1-6.3.2-6.3.2-3.7.3-5.5 2.1-8.2 5.4 0 0-1.4 1.7-3.3 4-.3.3-1.4 0-2.3-.1-1.2-.1 0 0-2.6-.2-2.6-.1-2.5 1.4-2.6 2.2-.1.8-.7 2.6 1.8 2.7.6 0 1.2.1 1.6.1-1.8 1.9-2.4 3.5-2.5 7.2-.1 2.8 0 3.5 0 5.7 0 2.3.3 5.3 3.4 5.3v3.8c0 .7.3 1.6 2 1.6H34c1.5 0 2-.9 2-1.6v-3.8H62.7v3.8c0 .7.5 1.6 2 1.6H70c1.7 0 2-.9 2-1.6v-3.8c3.1 0 3.4-3 3.4-5.3V51c-1.4.7-3 1-4.7 1z"/><path d="M70.7 36.5v.3c-.1-.2 0-.3 0-.3m0-3.2c-1.7 0-3 1.5-3 3.4 0 1.2.6 2.3 1.5 2.9v4.8h3v-4.7c.9-.6 1.6-1.7 1.6-2.9-.1-2-1.4-3.5-3.1-3.5z" fill="#08ab8a"/><circle cx="70.7" cy="39.3" r="12.7" fill="none" stroke="#08ab8a" stroke-width="3" stroke-linecap="round" stroke-linejoin="round" stroke-miterlimit="10"/></symbol><symbol id="steal-optim" viewBox="0 0 101.2 90"><path fill="#08ab8a" d="M51.2 68.9l1.8 3.7 4.1.6-3 2.9.7 4-3.6-1.9-3.7 1.9.7-4-2.9-2.9 4-.6z"/><path d="M22 4.5l-20.8 36c-1.6 2.8-1.6 6.2 0 9l20.8 36c1.6 2.8 4.6 4.5 7.8 4.5h41.6c3.2 0 6.2-1.7 7.8-4.5l20.8-36c1.6-2.8 1.6-6.2 0-9l-20.8-36C77.5 1.7 74.6 0 71.4 0H29.8c-3.2 0-6.2 1.7-7.8 4.5z" opacity=".15" fill="#08ab8a"/><path d="M38.3 49.1h-9c-1 0-1.8-.8-1.8-1.8v-2.1c0-1 .8-1.8 1.8-1.8h7.9c1.4 0 2.1.9 2.5 1.8.2.6.4 1 .4 1 .6 1.9-.2 2.9-1.8 2.9z" fill="none" stroke="#08ab8a" stroke-width="3" stroke-miterlimit="10"/><path fill="none" stroke="#08ab8a" stroke-width="3" stroke-linecap="round" stroke-linejoin="round" stroke-miterlimit="10" d="M27 58.6h13M63.1 58.6H72"/><path d="M63.5 29.3v-7.7c0-4.1 3.3-7.4 7.4-7.4 4.1 0 7.4 3.3 7.4 7.4v7.7" fill="none" stroke="#08ab8a" stroke-width="3" stroke-miterlimit="10"/><path fill="none" stroke="#08ab8a" stroke-width="3" stroke-linecap="round" stroke-linejoin="round" stroke-miterlimit="10" d="M55 43.5H43.1M57 48.2H46.6M70.7 52c-7 0-12.7-5.7-12.7-12.7 0-4.2 2-7.9 5.1-10.2-1.7-1.7-3.4-2.6-5.9-2.8 0 0-3.4-.1-6.3-.2V26h-3.4v.1c-2.9.1-6.3.2-6.3.2-3.7.3-5.5 2.1-8.2 5.4 0 0-1.4 1.7-3.3 4-.3.3-1.4 0-2.3-.1-1.2-.1 0 0-2.6-.1-2.6-.2-2.5 1.4-2.6 2.2-.1.8-.7 2.6 1.8 2.7.6 0 1.2.1 1.6.1-1.8 1.9-2.4 3.5-2.5 7.2-.1 2.8 0 3.5 0 5.7 0 2.3.3 5.3 3.4 5.3v3.8c0 .7.3 1.6 2 1.6H34c1.5 0 2-.9 2-1.6v-3.8H62.7v3.8c0 .7.5 1.6 2 1.6H70c1.7 0 2-.9 2-1.6v-3.8c3.1 0 3.4-3 3.4-5.3v-2.3c-1.4.6-3 .9-4.7.9z"/><path d="M70.7 36.5v.3c-.1-.2 0-.3 0-.3m0-3.2c-1.7 0-3 1.5-3 3.4 0 1.2.6 2.3 1.5 2.9v4.8h3v-4.7c.9-.6 1.6-1.7 1.6-2.9-.1-2-1.4-3.5-3.1-3.5z" fill="#08ab8a"/><circle cx="70.7" cy="39.3" r="12.7" fill="none" stroke="#08ab8a" stroke-width="3" stroke-linecap="round" stroke-linejoin="round" stroke-miterlimit="10"/></symbol><symbol id="treatment" viewBox="0 0 101.2 90"><path d="M70.9 11.9c.1.5.3.9.6 1.4s.5.9.7 1.3c.3.4.5.8.8 1.1.3.4.5.8.8 1.1.2.4.5.7.7 1.1.2.4.4.8.5 1.2.1.4.2.9.2 1.3 0 .6-.1 1.1-.4 1.6-.3.5-.6.9-1 1.2-.4.3-.9.6-1.3.8s-1 .3-1.5.3c-.7 0-1.4-.2-2-.5-.6-.3-1.1-.7-1.6-1.3-.4-.6-.6-1.3-.6-2 0-.6.1-1.2.3-1.8.2-.6.5-1.1.9-1.7.3-.5.7-1 1.1-1.5.4-.5.7-1.1 1.1-1.7.2-.6.5-1.3.7-1.9zm-.7 10.5" fill="#c4e6de" stroke="#08ab8a" stroke-width="3" stroke-miterlimit="10"/><path d="M19.9 43.2c1.2-1.5 3.3-4.1 3.3-4.1l.2-.3c4-4.8 8-8.8 15.7-9.4h.3s.8 0 2.1-.1v-.2l6.8-.1h11.3v.3c1.3 0 2.2.1 2.2.1h.3c7.7.6 11.6 4.6 15.7 9.4l.3.4s2.1 2.5 3.3 4c.1 0-1.3-1.4-1.2-1.5" fill="none" stroke="#08ab8a" stroke-width="3" stroke-linecap="round" stroke-linejoin="round" stroke-miterlimit="10" stroke-dasharray="4,7"/><path d="M85.8 64.7c-.2-4.8-.9-6.8-3.4-9.3.6 0 1.4-.1 2.4-.1 3.4-.1 2.6-2.5 2.4-3.5-.1-1.1 0-3-3.5-2.8-3.5.2-1.9.1-3.5.2-1.4.1-2.5.3-3.1.8-2.7-3.1-4.8-5.9-4.8-5.9-3.6-4.2-6.1-6.6-11-6.9 0 0-4.6-.2-8.5-.3v-.1h-4.6v.1c-3.9.1-8.5.3-8.5.3-4.9.4-7.4 2.7-11 6.9 0 0-2.2 2.9-4.8 5.9-.5-.5-1.4-.7-2.7-.8-1.6-.1 0 0-3.5-.2s-3.4 1.8-3.5 2.8c-.1 1-.9 3.4 2.4 3.5.8 0 1.6.1 2.1.1-2.4 2.5-3.2 4.5-3.4 9.3" fill="none" stroke="#08ab8a" stroke-width="3" stroke-linecap="round" stroke-linejoin="round" stroke-miterlimit="10"/><path d="M24.1 50c2.7 1.7 7.6 1.4 7.6 1.4h20.5" fill="none" stroke="#08ab8a" stroke-width="3" stroke-linecap="round" stroke-linejoin="round" stroke-miterlimit="10"/><path d="M76.7 50c-2.7 1.7-7.6 1.4-7.6 1.4H48.6" fill="none" stroke="#08ab8a" stroke-width="3" stroke-linecap="round" stroke-linejoin="round" stroke-miterlimit="10"/><path d="M22 4.5l-20.8 36c-1.6 2.8-1.6 6.2 0 9l20.8 36c1.6 2.8 4.6 4.5 7.8 4.5h41.6c3.2 0 6.2-1.7 7.8-4.5l20.8-36c1.6-2.8 1.6-6.2 0-9l-20.8-36C77.5 1.7 74.6 0 71.4 0H29.8c-3.2 0-6.2 1.7-7.8 4.5z" opacity=".15" fill="#08ab8a"/><path d="M34.5 67.3H23.4c-1.2 0-2.2-1-2.2-2.2v-2.6c0-1.2 1-2.2 2.2-2.2h9.8c1.7 0 2.7 1.1 3.1 2.2.3.8.5 1.3.5 1.3.7 2.1-.3 3.5-2.3 3.5zM67 67.3h11.1c1.2 0 2.2-1 2.2-2.2v-2.6c0-1.2-1-2.2-2.2-2.2h-9.8c-1.7 0-2.7 1.1-3.1 2.2-.3.8-.5 1.3-.5 1.3-.7 2.1.3 3.5 2.3 3.5z" fill="none" stroke="#08ab8a" stroke-width="3" stroke-miterlimit="10"/><path fill="none" stroke="#08ab8a" stroke-width="3" stroke-linecap="round" stroke-linejoin="round" stroke-miterlimit="10" d="M60.9 60.2H40.5"/></symbol></svg>