<?xml version="1.0" encoding="UTF-8"?><!DOCTYPE svg PUBLIC "-//W3C//DTD SVG 1.1//EN" "http://www.w3.org/Graphics/SVG/1.1/DTD/svg11.dtd"><svg xmlns="http://www.w3.org/2000/svg"><symbol id="payment" viewBox="0 0 62.4 63.6"><g fill="none" stroke-linecap="round" stroke-linejoin="round" stroke-miterlimit="10"><path d="M26.9 45.1c0-2.3.5-4.6 1.3-6.6h-9.8v-6.1h12.2c.7 0 1.5 0 2.1-.1 2.6-2.2 5.8-3.7 9.3-4 .1-.1.2-.1.2-.2 3-2.9 4.5-6.7 4.5-11.3 0-4.6-1.5-8.4-4.5-11.3-2.9-3-6.8-4.5-11.6-4.5H11.3c-.3 0-.6.1-.8.3-.2.2-.3.5-.3.8v22.5h-8c-.3 0-.6.1-.8.3-.3.4-.4.6-.4.9v5.3c0 .3.1.6.3.8.2.2.5.3.8.3h8v6.1h-8c-.3 0-.6.1-.8.3-.2.4-.3.7-.3 1v4.6c0 .3.1.6.3.8s.5.3.8.3h8v6.9c0 .3.1.6.3.8.2.2.5.3.8.3h6c.3 0 .6-.1.8-.3.2-.2.3-.5.3-.8v-6.9h8.4c.2 0 .2-.1.2-.2zM18.5 8.6H30c2.5 0 4.6.7 6.1 2.2 1.6 1.5 2.3 3.4 2.3 5.8s-.8 4.3-2.3 5.8c-1.6 1.5-3.6 2.2-6.1 2.2H18.5v-16z" stroke="#505b68" stroke-width="2"/><path stroke="#08ab8a" stroke-width="3" d="M43.9 34.8v10.5l7.2 5.8"/><circle cx="43.9" cy="45.1" r="17" stroke="#08ab8a" stroke-width="3"/></g></symbol><symbol id="reserve" viewBox="0 0 71 69.7"><path class="st2" d="M48.4 52.7v-9.2h7.5c2.9 0 5.2 2.1 5.2 4.6 0 2.5-2.3 4.6-5.2 4.6H45.5M48.4 52.7v7.6M57.5 57.2H45.4" fill="none" stroke="#505b68" stroke-width="2" stroke-linecap="round" stroke-linejoin="round" stroke-miterlimit="10"/><path class="st0" d="M29.2 62c-3-1.3-9.6-4.4-14.6-8.2C9.4 49.9 7 45.1 7 38.5" fill="none" stroke="#08ab8a" stroke-width="2" stroke-linecap="round" stroke-linejoin="round" stroke-miterlimit="10"/><path class="st1" fill="none" stroke="#08ab8a" stroke-width="3" stroke-linecap="round" stroke-linejoin="round" stroke-miterlimit="10" d="M21.5 25l7.7-5.6V51"/><path class="st1" d="M54.7 34.5c0-7.2.3-13.6.1-20-11.1-3.7-16.4-6.5-26.6-13C18.1 8 12.7 10.8 1.6 14.6c-.2 7.6 0 16.3 0 25 0 8.6 3.6 14.5 9.3 18.8 6.2 4.7 14.3 8.2 16.7 9.2.4.2.9.2 1.3 0 1.7-.7 6.1-2.2 10.9-5" fill="none" stroke="#08ab8a" stroke-width="3" stroke-linecap="round" stroke-linejoin="round" stroke-miterlimit="10"/><circle class="st2" cx="53.2" cy="51.9" r="16.7" fill="none" stroke="#505b68" stroke-width="2" stroke-linecap="round" stroke-linejoin="round" stroke-miterlimit="10"/></symbol><symbol id="return" viewBox="0 0 77.9 68.7"><path d="M72.1 51.1c-4.6-1.5-13.2-3.5-13.2-3.5-3.8-2.9-6.8-5.6-9.5-6.7-1.1-.5-4.5-1.6-10.9-1.8-7.5-.3-11.1 0-14 1.9-2 1.2-4.5 2.7-7.4 4.8-.6.4-1 .6-1.7.7-1.4.2-2.1.2-3.4.3-2.7.3-3.9 1.3-4.4 4.9-.3 2-.4 2.8-.5 5.3-.2 3.5.4 4.6 1.6 5.3 1.6.8 4.5 1 5.2 1-.2-.6-.4-1.3-.4-2-.1-3.7 2.8-6.7 6.4-6.9 3.7-.1 6.7 2.8 6.9 6.4 0 .9-.1 1.7-.4 2.5H56c-.2-.6-.4-1.3-.4-2-.1-3.7 2.8-6.7 6.4-6.9s6.7 2.8 6.9 6.4c0 .9-.1 1.7-.4 2.5h3.7c3 0 3.4-1.5 3.8-3s1-4.6 1-4.6.6-2.8-4.9-4.6z" fill="none" stroke="#505b68" stroke-width="2" stroke-miterlimit="10"/><path fill="none" stroke="#08ab8a" stroke-width="3" stroke-linecap="round" stroke-linejoin="round" stroke-miterlimit="10" d="M61.3 13.7H1.5"/><g fill="none" stroke="#08ab8a" stroke-width="3" stroke-linecap="round" stroke-linejoin="round" stroke-miterlimit="10"><path d="M12.4 1.5v6.2M25.1 1.5v6.2M37.7 1.5v6.2M50.3 1.5v6.2"/></g><path fill="none" stroke="#08ab8a" stroke-width="2" stroke-linecap="round" stroke-linejoin="round" stroke-miterlimit="10" d="M24.8 20.1h11.1l-6.7 15.3"/><path d="M59.3 47.8c1.2-1.2 2-2.8 2-4.7V10.8c0-3.6-2.9-6.5-6.5-6.5H8c-3.6 0-6.5 2.9-6.5 6.5v32.3c0 3.6 2.9 6.5 6.5 6.5" fill="none" stroke="#08ab8a" stroke-width="3" stroke-miterlimit="10"/><circle cx="20.1" cy="61.1" r="6.7" fill="none" stroke="#505b68" stroke-width="2" stroke-miterlimit="10"/><path d="M59.3 47.8s-25.1-.7-34.5-1c0 0-3.3.4-.7-1.6l3.2-1.8" fill="none" stroke="#505b68" stroke-width="2" stroke-linecap="round" stroke-miterlimit="10"/><circle cx="62.2" cy="61.1" r="6.7" fill="none" stroke="#505b68" stroke-width="2" stroke-miterlimit="10"/><path d="M72.1 51.1c-4.6-1.5-13.2-3.5-13.2-3.5-3.8-2.9-6.8-5.6-9.5-6.7-1.1-.5-4.5-1.6-10.9-1.8-7.5-.3-11.1 0-14 1.9-2 1.2-4.5 2.7-7.4 4.8-.6.4-1 .6-1.7.7-1.4.2-2.1.2-3.4.3-2.7.3-3.9 1.3-4.4 4.9-.3 2-.4 2.8-.5 5.3-.2 3.5.4 4.6 1.6 5.3 1.6.8 4.5 1 5.2 1-.2-.6-.4-1.3-.4-2-.1-3.7 2.8-6.7 6.4-6.9 3.7-.1 6.7 2.8 6.9 6.4 0 .9-.1 1.7-.4 2.5H56c-.2-.6-.4-1.3-.4-2-.1-3.7 2.8-6.7 6.4-6.9s6.7 2.8 6.9 6.4c0 .9-.1 1.7-.4 2.5h3.7c3 0 3.4-1.5 3.8-3s1-4.6 1-4.6.6-2.8-4.9-4.6z" fill="none" stroke="#505b68" stroke-width="2" stroke-miterlimit="10"/><path fill="none" stroke="#08ab8a" stroke-width="3" stroke-linecap="round" stroke-linejoin="round" stroke-miterlimit="10" d="M61.3 13.7H1.5"/><g fill="none" stroke="#08ab8a" stroke-width="3" stroke-linecap="round" stroke-linejoin="round" stroke-miterlimit="10"><path d="M12.4 1.5v6.2M25.1 1.5v6.2M37.7 1.5v6.2M50.3 1.5v6.2"/></g><path fill="none" stroke="#08ab8a" stroke-width="2" stroke-linecap="round" stroke-linejoin="round" stroke-miterlimit="10" d="M24.8 20.1h11.1l-6.7 15.3"/><path d="M59.3 47.8c1.2-1.2 2-2.8 2-4.7V10.8c0-3.6-2.9-6.5-6.5-6.5H8c-3.6 0-6.5 2.9-6.5 6.5v32.3c0 3.6 2.9 6.5 6.5 6.5" fill="none" stroke="#08ab8a" stroke-width="3" stroke-miterlimit="10"/><circle cx="20.1" cy="61.1" r="6.7" fill="none" stroke="#505b68" stroke-width="2" stroke-miterlimit="10"/><path d="M59.3 47.8s-25.1-.7-34.5-1c0 0-3.3.4-.7-1.6l3.2-1.8" fill="none" stroke="#505b68" stroke-width="2" stroke-linecap="round" stroke-miterlimit="10"/><circle cx="62.2" cy="61.1" r="6.7" fill="none" stroke="#505b68" stroke-width="2" stroke-miterlimit="10"/></symbol></svg>