<?xml version="1.0" encoding="UTF-8"?><!DOCTYPE svg PUBLIC "-//W3C//DTD SVG 1.1//EN" "http://www.w3.org/Graphics/SVG/1.1/DTD/svg11.dtd"><svg xmlns="http://www.w3.org/2000/svg"><symbol id="options-casco" viewBox="0 0 100 112.3"><title>&#x420;&#x435;&#x441;&#x443;&#x440;&#x441; 3</title><g data-name="&#x421;&#x43B;&#x43E;&#x439; 2"><g data-name="checkout 1000px 4-2"><path data-name="&lt;&#x41A;&#x43E;&#x43D;&#x442;&#x443;&#x440;&gt;" d="M0 33.08v46.14a10 10 0 0 0 5 8.66L45 111a10 10 0 0 0 10 0l40-23.12a10 10 0 0 0 5-8.66V33.08a10 10 0 0 0-5-8.66L55 1.34a10 10 0 0 0-10 0L5 24.42a10 10 0 0 0-5 8.66z" fill="#808d9b" fill-opacity=".3"/><path d="M80.53 33.08A3 3 0 0 0 78 31.73H22a3 3 0 0 0-1.7.52 3.08 3.08 0 0 0-.82.82 3 3 0 0 0-.52 1.7v37.76a3.05 3.05 0 0 0 3 3H43v6.8h-9.68a1.44 1.44 0 0 0-1.44 1.44V84a1.44 1.44 0 0 0 1.44 1.44h33.36A1.44 1.44 0 0 0 68.12 84v-.21a1.44 1.44 0 0 0-1.44-1.44H57v-6.8h21a3.05 3.05 0 0 0 3-3V34.78a3 3 0 0 0-.47-1.7z" fill="#4f5a67" opacity=".2"/><path d="M69.33 34.55c-8.08-2.74-12-4.77-19.33-9.48-7.37 4.72-11.24 6.74-19.33 9.48-.17 5.52 0 14.14 0 20.41a16.08 16.08 0 0 0 6.77 13.68A68.65 68.65 0 0 0 50 75.43a68.65 68.65 0 0 0 12.55-6.79A16.08 16.08 0 0 0 69.33 55c0-6.31.17-14.93 0-20.45z" fill="none" stroke="#00ab8a" stroke-linecap="round" stroke-miterlimit="10" stroke-width="3"/><path d="M59.18 52.47a24.54 24.54 0 0 1-19-.24M59.18 58.51a24.54 24.54 0 0 1-19-.24" fill="none" stroke="#4f5a67" stroke-linecap="round" stroke-miterlimit="10" stroke-width="3"/><ellipse cx="49.67" cy="44.61" rx="9.52" ry="3.63" fill="none" stroke="#4f5a67" stroke-linecap="round" stroke-miterlimit="10" stroke-width="3"/></g></g></symbol><symbol id="options-friend" viewBox="0 0 100 112.3"><title>&#x420;&#x435;&#x441;&#x443;&#x440;&#x441; 2</title><g data-name="&#x421;&#x43B;&#x43E;&#x439; 2"><g data-name="checkout 1000px 4-2"><path data-name="&lt;&#x41A;&#x43E;&#x43D;&#x442;&#x443;&#x440;&gt;" d="M0 33.08v46.14a10 10 0 0 0 5 8.66L45 111a10 10 0 0 0 10 0l40-23.12a10 10 0 0 0 5-8.66V33.08a10 10 0 0 0-5-8.66L55 1.34a10 10 0 0 0-10 0L5 24.42a10 10 0 0 0-5 8.66z" fill="#808d9b" fill-opacity=".3"/><path d="M78.92 72.32c-2.24-7.57-13.46-6.73-18.31-8.91a6.29 6.29 0 0 1-3.12-3.22c3.37-2.63 5.14-6.57 6-10.72 1.15-.13 1.83-1.83 2.21-3.93.32-1.8.46-3.34-.3-4.1.05-.27.1-.55.13-.84.57-5.5-.55-13.23-4.67-13a12.45 12.45 0 0 0-5.14-5.07 15.85 15.85 0 0 0-9.32-.73c-4 .86-10.52 3.58-12 9.41 0 0-1.39 6-.07 10.56-.56.85-.38 2.23-.1 3.8.38 2.11 1.14 3.77 2.3 3.88.84 4.15 2.61 8.09 6 10.72a6.29 6.29 0 0 1-3.12 3.21c-4.85 2.17-16.07 1.33-18.31 8.91-1.23 4.18-1.17 5.46-1.52 10.08a179.45 179.45 0 0 0 30.09 3 193.31 193.31 0 0 0 30.79-3c-.36-4.6-.3-5.87-1.54-10.05z" fill="#4f5a67" opacity=".2"/><path d="M21.51 39.8a6 6 0 0 1 1.71-4.11A5.81 5.81 0 0 1 27.33 34h45.84A5.84 5.84 0 0 1 79 39.8v27.32a5.84 5.84 0 0 1-5.83 5.83H27.33a5.84 5.84 0 0 1-5.83-5.83" fill="none" stroke="#00ab8a" stroke-linecap="round" stroke-miterlimit="10" stroke-width="3"/><path fill="none" stroke="#4f5a67" stroke-linecap="round" stroke-linejoin="round" stroke-width="3" d="M47.24 44.32h22.98M54.59 51.32h15.63M13.47 53.14h16.07M21.51 45.11v16.07"/></g></g></symbol><symbol id="options-sale" viewBox="0 0 100 112.3"><title>&#x420;&#x435;&#x441;&#x443;&#x440;&#x441; 1</title><g data-name="&#x421;&#x43B;&#x43E;&#x439; 2"><g data-name="checkout 1000px 4-2"><path data-name="&lt;&#x41A;&#x43E;&#x43D;&#x442;&#x443;&#x440;&gt;" d="M0 33.08v46.14a10 10 0 0 0 5 8.66L45 111a10 10 0 0 0 10 0l40-23.12a10 10 0 0 0 5-8.66V33.08a10 10 0 0 0-5-8.66L55 1.34a10 10 0 0 0-10 0L5 24.42a10 10 0 0 0-5 8.66z" fill="#808d9b" fill-opacity=".3"/><path d="M76.6 37.16c-11.13-3.77-16.46-6.56-26.6-13-10.14 6.49-15.47 9.28-26.6 13-.24 7.59 0 16.32 0 25s3.6 14.46 9.32 18.78c6.18 4.65 17.07 9.34 17.28 9.34s11.1-4.69 17.28-9.35C73 76.62 76.6 70.75 76.6 62.11s.24-17.36 0-24.95z" fill="#4f5a67" opacity=".2"/><path fill="none" stroke="#00ab8a" stroke-linecap="round" stroke-miterlimit="10" stroke-width="3" d="M19.67 57.26h14.66"/><path fill="none" stroke="#4f5a67" stroke-linecap="round" stroke-miterlimit="10" stroke-width="3" d="M62.76 44.67L44.33 67.9"/><circle cx="44.13" cy="49.74" r="5.51" fill="none" stroke="#00ab8a" stroke-linecap="round" stroke-miterlimit="10" stroke-width="3"/><circle cx="61.9" cy="64.65" r="5.51" fill="none" stroke="#4f5a67" stroke-linecap="round" stroke-miterlimit="10" stroke-width="3"/></g></g></symbol></svg>