<?xml version="1.0" encoding="UTF-8"?><!DOCTYPE svg PUBLIC "-//W3C//DTD SVG 1.1//EN" "http://www.w3.org/Graphics/SVG/1.1/DTD/svg11.dtd"><svg xmlns="http://www.w3.org/2000/svg" xmlns:xlink="http://www.w3.org/1999/xlink"><defs><circle id="reserve-success-a" cx="75.2" cy="75" r="75"/><filter id="vk-a" x="0" y="-10352" width="60" height="32766" filterUnits="userSpaceOnUse" color-interpolation-filters="sRGB"><feFlood flood-color="#fff" result="bg"/><feBlend in="SourceGraphic" in2="bg"/></filter></defs><symbol id="account" viewBox="0 0 77.03 64.23"><title>account</title><g data-name="&#x421;&#x43B;&#x43E;&#x439; 2"><g data-name="checkout 1000px 5"><path d="M0 2.76v52.65l.26.23a2.31 2.31 0 0 0 3 0l4-3.54 4 3.54a2.3 2.3 0 0 0 3 0l4-3.54 4 3.54a2.3 2.3 0 0 0 3 0l4-3.54h.24l4 3.54a2.3 2.3 0 0 0 3 0l4-3.54h.24l4 3.54a2.3 2.3 0 0 0 3 0l4-3.54h.24l4 3.54a2.3 2.3 0 0 0 3 0l4-3.54h.1l4 3.54A2.33 2.33 0 0 0 70 56V2.76A2.91 2.91 0 0 0 67 0H3a2.91 2.91 0 0 0-3 2.76z" fill="#4f5a67" opacity=".3"/><path d="M67 2c.56 0 1 .35 1 .76v50.55l-3.11-2.72a2 2 0 0 0-1.32-.49h-.1a2 2 0 0 0-1.32.49l-4 3.54a.31.31 0 0 1-.37 0l-4-3.54a2 2 0 0 0-1.32-.49h-.24a2 2 0 0 0-1.32.49l-4 3.54a.31.31 0 0 1-.37 0l-4-3.54a2 2 0 0 0-1.32-.49h-.24a2 2 0 0 0-1.32.49l-4 3.54a.31.31 0 0 1-.37 0l-4-3.54a2 2 0 0 0-1.32-.49h-.24a2 2 0 0 0-1.32.49l-4 3.54a.31.31 0 0 1-.37 0l-4-3.54a2 2 0 0 0-2.63 0l-4 3.54a.31.31 0 0 1-.37 0l-4-3.54a2 2 0 0 0-2.63 0L2 54.08V2.76C2 2.35 2.48 2 3 2h64m0-2H3a2.91 2.91 0 0 0-3 2.76v52.65l.26.23a2.28 2.28 0 0 0 1.5.56 2.28 2.28 0 0 0 1.5-.56l4-3.54 4 3.54a2.3 2.3 0 0 0 3 0l4-3.54 4 3.54a2.3 2.3 0 0 0 3 0l4-3.54h.24l4 3.54a2.3 2.3 0 0 0 3 0l4-3.54h.24l4 3.54a2.3 2.3 0 0 0 3 0l4-3.54h.24l4 3.54a2.3 2.3 0 0 0 3 0l4-3.54h.1l4 3.54a2.26 2.26 0 0 0 1.49.55A2.37 2.37 0 0 0 70 56V2.76A2.91 2.91 0 0 0 67 0z" fill="#4f5a67" opacity=".5"/><path d="M7 10.21v52.64l.26.23a2.31 2.31 0 0 0 3 0l4-3.54 4 3.54a2.3 2.3 0 0 0 3 0l4-3.54 4 3.54a2.3 2.3 0 0 0 3 0l4-3.54h.24l4 3.54a2.3 2.3 0 0 0 3 0l4-3.54h.24l4 3.54a2.3 2.3 0 0 0 3 0l4-3.54h.24l4 3.54a2.3 2.3 0 0 0 3 0l4-3.54h.1l4 3.54a2.33 2.33 0 0 0 2.38.37V10.21a2.91 2.91 0 0 0-3-2.76H10.07A2.91 2.91 0 0 0 7 10.21z" fill="#fff"/><path d="M74 9.45c.55 0 1 .36 1 .76v50.55L71.92 58a2 2 0 0 0-1.32-.5h-.1a2 2 0 0 0-1.32.49l-4 3.54a.31.31 0 0 1-.37 0l-4-3.54a2 2 0 0 0-1.32-.49h-.24a2 2 0 0 0-1.32.5l-4 3.54a.31.31 0 0 1-.37 0L49.4 58a2 2 0 0 0-1.32-.5h-.24a2 2 0 0 0-1.32.5l-4 3.54a.31.31 0 0 1-.37 0l-4-3.54a2 2 0 0 0-1.32-.49h-.24a2 2 0 0 0-1.32.5l-4 3.54a.31.31 0 0 1-.37 0l-4-3.54a2 2 0 0 0-2.63 0l-4 3.54a.31.31 0 0 1-.37 0l-4-3.54A2 2 0 0 0 13 58l-4 3.53V10.21c0-.41.49-.76 1-.76h64m0-2H10.07a2.91 2.91 0 0 0-3 2.76v52.64l.26.23a2.31 2.31 0 0 0 3 0l4-3.54 4 3.54a2.3 2.3 0 0 0 3 0l4-3.54 4 3.54a2.3 2.3 0 0 0 3 0l4-3.54h.24l4 3.54a2.3 2.3 0 0 0 3 0l4-3.54h.24l4 3.54a2.3 2.3 0 0 0 3 0l4-3.54h.24l4 3.54a2.3 2.3 0 0 0 3 0l4-3.54h.1l4 3.54a2.26 2.26 0 0 0 1.49.55 2.38 2.38 0 0 0 .89-.17V10.21a2.91 2.91 0 0 0-3-2.76z" fill="#4f5a67" opacity=".5"/><path d="M70.42 60l4.16 3.64a2.39 2.39 0 0 0 2.45.38V10.29a3 3 0 0 0-3.13-2.84h-4.68V61l1.1-1z" fill="#00ab8a" opacity=".2"/><path fill="none" stroke="#4f5a67" stroke-linecap="round" stroke-linejoin="round" stroke-width="2" d="M16.78 31.72h49.25M16.78 39.72h49.25" opacity=".5"/><path fill="none" stroke="#00ab8a" stroke-linecap="round" stroke-linejoin="round" stroke-width="3" d="M33.24 19.68h32.79"/><path d="M56.45 47.84v4h-2v-4h2m0-2h-2a2 2 0 0 0-2 2v4a2 2 0 0 0 2 2h2a2 2 0 0 0 2-2v-4a2 2 0 0 0-2-2zM48.86 47.84v4h-2v-4h2m0-2h-2a2 2 0 0 0-2 2v4a2 2 0 0 0 2 2h2a2 2 0 0 0 2-2v-4a2 2 0 0 0-2-2zM39 47.84v4h-2v-4h2m0-2h-2a2 2 0 0 0-2 2v4a2 2 0 0 0 2 2h2a2 2 0 0 0 2-2v-4a2 2 0 0 0-2-2zM31.43 47.84v4h-2v-4h2m0-2h-2a2 2 0 0 0-2 2v4a2 2 0 0 0 2 2h2a2 2 0 0 0 2-2v-4a2 2 0 0 0-2-2zM64 47.84v4h-2v-4h2m0-2h-2a2 2 0 0 0-2 2v4a2 2 0 0 0 2 2h2a2 2 0 0 0 2-2v-4a2 2 0 0 0-2-2z" fill="#4f5a67"/><path d="M18.53 21.95v-7.08h5.77a3.79 3.79 0 0 1 4 3.54 3.79 3.79 0 0 1-4 3.54h-8M18.53 21.95v5.89M25.55 25.46h-9.3" fill="none" stroke="#00ab8a" stroke-linecap="round" stroke-linejoin="round" stroke-width="2"/></g></g></symbol><symbol id="arrow-down" viewBox="0 0 16 9"><style>.st0{fill:none;stroke:#808d9b;stroke-width:2;stroke-linecap:round;stroke-linejoin:round;stroke-miterlimit:10}</style><path class="st0" d="M15 1L8 8 1 1" fill="none" stroke-width="2.2" stroke-linecap="round" stroke-linejoin="round" stroke-miterlimit="10"/></symbol><symbol id="card" viewBox="0 0 84 56"><title>card</title><g data-name="&#x421;&#x43B;&#x43E;&#x439; 2"><g data-name="checkout 1000px 5"><rect x="1" y="1" width="82" height="54" rx="5" ry="5" fill="#00ab8a"/><path d="M78 2a4 4 0 0 1 4 4v44a4 4 0 0 1-4 4H6a4 4 0 0 1-4-4V6a4 4 0 0 1 4-4h72m0-2H6a6 6 0 0 0-6 6v44a6 6 0 0 0 6 6h72a6 6 0 0 0 6-6V6a6 6 0 0 0-6-6z" fill="#4f5a67"/><path d="M10.83 40v4h-2v-4h2m0-2h-2a2 2 0 0 0-2 2v4a2 2 0 0 0 2 2h2a2 2 0 0 0 2-2v-4a2 2 0 0 0-2-2zM18.42 40v4h-2v-4h2m0-2h-2a2 2 0 0 0-2 2v4a2 2 0 0 0 2 2h2a2 2 0 0 0 2-2v-4a2 2 0 0 0-2-2zM29.29 40v4h-2v-4h2m0-2h-2a2 2 0 0 0-2 2v4a2 2 0 0 0 2 2h2a2 2 0 0 0 2-2v-4a2 2 0 0 0-2-2zM36.88 40v4h-2v-4h2m0-2h-2a2 2 0 0 0-2 2v4a2 2 0 0 0 2 2h2a2 2 0 0 0 2-2v-4a2 2 0 0 0-2-2zM49.25 40v4h-2v-4h2m0-2h-2a2 2 0 0 0-2 2v4a2 2 0 0 0 2 2h2a2 2 0 0 0 2-2v-4a2 2 0 0 0-2-2zM56.83 40v4h-2v-4h2m0-2h-2a2 2 0 0 0-2 2v4a2 2 0 0 0 2 2h2a2 2 0 0 0 2-2v-4a2 2 0 0 0-2-2zM67.71 40v4h-2v-4h2m0-2h-2a2 2 0 0 0-2 2v4a2 2 0 0 0 2 2h2a2 2 0 0 0 2-2v-4a2 2 0 0 0-2-2zM75.29 40v4h-2v-4h2m0-2h-2a2 2 0 0 0-2 2v4a2 2 0 0 0 2 2h2a2 2 0 0 0 2-2v-4a2 2 0 0 0-2-2z" fill="#fff"/><circle cx="57" cy="16" r="8" fill="#ff6262"/><circle cx="68" cy="16" r="8" fill="#fff"/><circle cx="68" cy="16" r="8" fill="#fff400" opacity=".6"/><path fill="none" stroke="#4f5a67" stroke-linecap="round" stroke-linejoin="round" stroke-width="3" d="M8 12h13.37"/><path fill="none" stroke="#4f5a67" stroke-linecap="round" stroke-linejoin="round" stroke-width="2" d="M8 18h1.5"/><path fill="none" stroke="#4f5a67" stroke-linecap="round" stroke-linejoin="round" stroke-width="2" stroke-dasharray="2.77 3.69" d="M13.19 18h23.97"/><path fill="none" stroke="#4f5a67" stroke-linecap="round" stroke-linejoin="round" stroke-width="2" d="M39 18h1.5"/><path fill="none" stroke="#4f5a67" stroke-linecap="round" stroke-linejoin="round" stroke-width="3" d="M26.63 12H40"/></g></g></symbol><symbol id="cash" viewBox="0 0 85 65"><title>cash</title><g data-name="&#x421;&#x43B;&#x43E;&#x439; 2"><g data-name="checkout 1000px 5"><rect x="16" y="11" width="65" height="53" rx="5" ry="5" fill="#998675"/><path d="M76 12a4 4 0 0 1 4 4v43a4 4 0 0 1-4 4H21a4 4 0 0 1-4-4V16a4 4 0 0 1 4-4h55m0-2H21a6 6 0 0 0-6 6v43a6 6 0 0 0 6 6h55a6 6 0 0 0 6-6V16a6 6 0 0 0-6-6z" fill="#4f5a67"/><path d="M15 16v40a32.48 32.48 0 0 0 7.85 1C38.95 57 52 45.36 52 31c0-8.63-4.72-16.27-12-21H21.73C18 10 15 12.69 15 16z" fill="#736357" opacity=".6"/><path d="M65.85 15.19h-4a1.5 1.5 0 1 0 0 3h4a1.5 1.5 0 0 0 0-3zm-10 0h-4a1.5 1.5 0 1 0 0 3h4a1.5 1.5 0 0 0 0-3zm-10 0h-4a1.5 1.5 0 1 0 0 3h4a1.5 1.5 0 0 0 0-3zm-10 0h-4a1.5 1.5 0 0 0 0 3h4a1.5 1.5 0 0 0 0-3zm-10 0h-4a1.5 1.5 0 0 0 0 3h4a1.5 1.5 0 0 0 0-3zm-4.19 3.24a1.5 1.5 0 0 0-1.5 1.5v4a1.5 1.5 0 0 0 3 0v-4a1.5 1.5 0 0 0-1.5-1.5zm0 10a1.5 1.5 0 0 0-1.5 1.5v4a1.5 1.5 0 0 0 3 0v-4a1.5 1.5 0 0 0-1.5-1.5zm0 10a1.5 1.5 0 0 0-1.5 1.5v4a1.5 1.5 0 0 0 3 0v-4a1.5 1.5 0 0 0-1.5-1.5zm0 10a1.5 1.5 0 0 0-1.5 1.5v4a1.5 1.5 0 0 0 3 0v-4a1.5 1.5 0 0 0-1.5-1.5zm-.76 11.35zm0 0zm0 0zm0 0zm0 0zm0 0zm0 0zm0 0zm0 0zm0 0zm0 0zm0 0zm0 0zm0 0zm0 0zm0 0zm0 0zm0 0zm0 0zm0 0zm0 0zm0 0zm0 0zm0 0zm0 0zm0 0zm0 0zm0 0zm0 0zm0 0zm0 0zm0 0zm0 0zm0 0zm0 0zm0 0zm0 0zm0 0zm0 0zm0 0zm0 0zm0 0zm0 0zm0 0zm0 0zm0 0zm0 0zm0 0zm0 0zm0 0zm0 0zm0 0zm0 0zm0 0zm0 0zm0 0zm3.55-3h-3.3v3h3.55a1.5 1.5 0 0 0 0-3zm10 0h-4a1.5 1.5 0 1 0 0 3h4a1.5 1.5 0 0 0 0-3zm10 0h-4a1.5 1.5 0 0 0 0 3h4a1.5 1.5 0 0 0 0-3zm10 0h-4a1.5 1.5 0 0 0 0 3h4a1.5 1.5 0 0 0 0-3zm10 0h-4a1.5 1.5 0 0 0 0 3h4a1.5 1.5 0 0 0 0-3zM75.35 50a1.5 1.5 0 0 0-1.5 1.5v4a1.5 1.5 0 0 0 .72 1.28H70.7a1.5 1.5 0 0 0 0 3h4a1.5 1.5 0 0 0 .77-2.78 1.5 1.5 0 0 0 1.38-1.49v-4a1.5 1.5 0 0 0-1.5-1.5zm0-10a1.5 1.5 0 0 0-1.5 1.5v4a1.5 1.5 0 0 0 3 0v-4a1.5 1.5 0 0 0-1.5-1.5zm0-10a1.5 1.5 0 0 0-1.5 1.5v4a1.5 1.5 0 0 0 3 0v-4a1.5 1.5 0 0 0-1.5-1.5zm0-10a1.5 1.5 0 0 0-1.5 1.5v4a1.5 1.5 0 0 0 3 0v-4a1.5 1.5 0 0 0-1.5-1.5zm.5-4.84h-4a1.5 1.5 0 1 0 0 3h4a1.49 1.49 0 0 0 1-.38v-1.59a1 1 0 0 0-1-1z" fill="#4f5a67" opacity=".5"/><path d="M26 51a25 25 0 1 1 25-25 25 25 0 0 1-25 25z" fill="#fff"/><path d="M26 51a25 25 0 1 1 25-25 25 25 0 0 1-25 25z" fill="#fff400" opacity=".2"/><path d="M26 2A24 24 0 1 1 2 26 24 24 0 0 1 26 2m0-2a26 26 0 1 0 26 26A26 26 0 0 0 26 0z" fill="#4f5a67"/><path d="M26 50.21a24.21 24.21 0 0 1 0-48.42z" fill="#fbb03b" opacity=".2"/><path d="M20.73 26.83V16.9h8.11c3.11 0 5.62 2.22 5.62 5 0 2.74-2.52 5-5.62 5H17.66M20.73 26.83v8.27M30.6 31.77H17.53" fill="none" stroke="#4f5a67" stroke-linecap="round" stroke-linejoin="round" stroke-width="3"/><rect x="63" y="30.5" width="21" height="16" rx="3" ry="3" fill="#998675" stroke="#4f5a67" stroke-linecap="round" stroke-linejoin="round" stroke-width="2"/><circle cx="70" cy="38" r="3" fill="#fff"/><circle cx="70" cy="38" r="3" fill="#fff400" opacity=".2"/></g></g></symbol><symbol id="check-border" viewBox="0 0 24.6 30"><title>&#x420;&#x435;&#x441;&#x443;&#x440;&#x441; 5</title><g data-name="&#x421;&#x43B;&#x43E;&#x439; 2"><g data-name="checkout 1000px 5" fill="none" stroke-linecap="round" stroke-linejoin="round" stroke-width="2"><path d="M18.39 11l-8.01 8-4.17-4.16"/><path d="M23.55 6.52A43.32 43.32 0 0 1 12.3 1 43.32 43.32 0 0 1 1 6.52c-.1 3.21 0 6.91 0 10.56A9.36 9.36 0 0 0 5 25a40 40 0 0 0 7.31 4 40 40 0 0 0 7.31-4 9.36 9.36 0 0 0 3.94-8c-.01-3.57.09-7.27-.01-10.48z"/></g></g></symbol><symbol id="credit-success" viewBox="0 0 133.58 150"><title>credit-success</title><g data-name="&#x421;&#x43B;&#x43E;&#x439; 2"><g data-name="!" fill="#00ab8a"><path data-name="&lt;&#x41A;&#x43E;&#x43D;&#x442;&#x443;&#x440;&gt;" d="M0 44.18v61.64a13.35 13.35 0 0 0 6.68 11.57l53.44 30.83a13.35 13.35 0 0 0 13.34 0l53.44-30.83a13.35 13.35 0 0 0 6.68-11.57V44.18a13.35 13.35 0 0 0-6.68-11.57L73.46 1.79a13.35 13.35 0 0 0-13.34 0L6.68 32.61A13.35 13.35 0 0 0 0 44.18z" fill-opacity=".3"/><path d="M83.62 66.68H47.78a1.75 1.75 0 1 1 0-3.51h35.84a1.75 1.75 0 1 1 0 3.51zM83.94 75.45H48.1a1.75 1.75 0 1 1 0-3.51h35.84a1.75 1.75 0 0 1 0 3.51zM73.39 84.22h-25a1.75 1.75 0 0 1 0-3.51h25a1.75 1.75 0 1 1 0 3.51z"/><path d="M89.61 101.72v2.9a3.1 3.1 0 0 1-3.1 3.1H45.27a3.11 3.11 0 0 1-3.1-3.1V45.38a3.11 3.11 0 0 1 3.1-3.1h28.39v10.46a5.56 5.56 0 0 0 5.56 5.56H89.5l.07 26.63 5-5v-23.6l-19-19h-30.3a8 8 0 0 0-8 8v59.24a8 8 0 0 0 8 8h41.24a8 8 0 0 0 8-8v-7.76z" opacity=".6"/><path d="M82.19 103.16a2.45 2.45 0 0 1-1.73-.72l-8.95-8.92A2.46 2.46 0 1 1 75 90.05l7.21 7.19 15.4-15.42a2.46 2.46 0 1 1 3.47 3.47l-17.15 17.15a2.45 2.45 0 0 1-1.74.72z"/></g></g></symbol><symbol id="facebook" viewBox="0 0 60 60"><title>&#x420;&#x435;&#x441;&#x443;&#x440;&#x441; 3</title><g data-name="&#x421;&#x43B;&#x43E;&#x439; 2"><g data-name="checkout 1000px 3b"><circle cx="30" cy="30" r="30" fill="#3b5998"/><path d="M30 1A29 29 0 1 1 1 30 29 29 0 0 1 30 1m0-1a30 30 0 1 0 30 30A30 30 0 0 0 30 0z" opacity=".2"/><path d="M26.6 22v3.55H24v4.34h2.6v12.87h5.34V29.87h3.58s.34-2.08.5-4.35H32v-3a1.26 1.26 0 0 1 1.16-1H36V17h-4c-5.6 0-5.47 4.34-5.47 5z" fill="#fff"/></g></g></symbol><symbol id="garage" viewBox="0 0 23.65 16"><title>&#x420;&#x435;&#x441;&#x443;&#x440;&#x441; 1</title><g data-name="&#x421;&#x43B;&#x43E;&#x439; 2"><g data-name="checkout 1000px 5" fill="none" stroke="#fff" stroke-linecap="round" stroke-linejoin="round" stroke-width="2"><path d="M1 5.78l5.41-2.39L11.82 1l5.41 2.39 5.42 2.39M3.12 15V4.86M20.53 4.86V15M6.64 7.62H17M6.64 10.87H17M6.64 14.12H17"/></g></g></symbol><symbol id="google" viewBox="0 0 60 60"><title>&#x420;&#x435;&#x441;&#x443;&#x440;&#x441; 4</title><g data-name="&#x421;&#x43B;&#x43E;&#x439; 2"><g data-name="checkout 1000px 3b"><circle cx="30" cy="30" r="30" fill="#d03324"/><path d="M30 1A29 29 0 1 1 1 30 29 29 0 0 1 30 1m0-1a30 30 0 1 0 30 30A30 30 0 0 0 30 0z" opacity=".2"/><path d="M33 34.55a8.11 8.11 0 0 0-.91-1q-.5-.48-1-.87t-.91-.75a3.66 3.66 0 0 1-.67-.75 1.43 1.43 0 0 1-.26-.8 1.76 1.76 0 0 1 .36-1.06 6.22 6.22 0 0 1 .87-1q.52-.46 1-1a4.56 4.56 0 0 0 .87-1.44 5.5 5.5 0 0 0 .36-2.05 6 6 0 0 0-.61-2.64 4.67 4.67 0 0 0-1.72-2h2.11l2.1-1.19h-6.82a14 14 0 0 0-2.92.31 6.61 6.61 0 0 0-3.66 2.21 5.84 5.84 0 0 0-1.48 3.91 5 5 0 0 0 1.66 3.84 5.69 5.69 0 0 0 4 1.53 8.9 8.9 0 0 0 1.09-.08c0 .08-.06.2-.11.34l-.13.34a1.72 1.72 0 0 0-.08.3 2.16 2.16 0 0 0 0 .37 4 4 0 0 0 1 2.33 18.51 18.51 0 0 0-2.34.21 17.8 17.8 0 0 0-2.42.56 7.52 7.52 0 0 0-2.27 1.11A5 5 0 0 0 18 39.13a3.87 3.87 0 0 0 .47 1.9 4.22 4.22 0 0 0 1.2 1.39 7.2 7.2 0 0 0 1.7.91 9.83 9.83 0 0 0 1.91.52 11.45 11.45 0 0 0 1.87.16 9.73 9.73 0 0 0 6.56-2 5.71 5.71 0 0 0 2.19-4.41 5.22 5.22 0 0 0-.26-1.66 4.65 4.65 0 0 0-.64-1.39zm-6-5.68a3 3 0 0 1-1.52-.41 4 4 0 0 1-1.22-1.06 7.55 7.55 0 0 1-.93-1.4 8 8 0 0 1-.55-1.62 7.16 7.16 0 0 1-.18-1.55 4.22 4.22 0 0 1 .8-2.58 2.63 2.63 0 0 1 2.25-1.08 3 3 0 0 1 1.87.64 4.46 4.46 0 0 1 1.31 1.62 10.25 10.25 0 0 1 .74 2 8.43 8.43 0 0 1 .26 2 4.21 4.21 0 0 1-.68 2.51 2.52 2.52 0 0 1-2.2.95zm4.32 11.73a3.07 3.07 0 0 1-1.16 1.15 5.9 5.9 0 0 1-1.57.61 7.65 7.65 0 0 1-1.76.2 8.57 8.57 0 0 1-2-.23 7.94 7.94 0 0 1-1.88-.71 3.93 3.93 0 0 1-1.45-1.31 3.35 3.35 0 0 1-.55-1.9 3.3 3.3 0 0 1 .42-1.67 3.44 3.44 0 0 1 1.08-1.17 6.12 6.12 0 0 1 1.53-.72 9.77 9.77 0 0 1 1.69-.39 12.35 12.35 0 0 1 1.66-.11 7.28 7.28 0 0 1 .78 0l.48.33.52.36.48.36q.35.27.5.4l.43.4a3 3 0 0 1 .41.46l.33.48a2 2 0 0 1 .27.54c.05.17.1.36.15.56a2.81 2.81 0 0 1 .07.63 3.34 3.34 0 0 1-.43 1.72zm0 0" fill="#fff"/><path d="M40 22v-4h-2v4h-4v2h4v4h2v-4h4v-2zm0 0" fill="#fff"/></g></g></symbol><symbol id="purse" viewBox="0 0 28 21"><title>&#x420;&#x435;&#x441;&#x443;&#x440;&#x441; 6</title><g data-name="&#x421;&#x43B;&#x43E;&#x439; 2"><g data-name="checkout 1000px 5"><path d="M25 2a1 1 0 0 1 1 1v15a1 1 0 0 1-1 1H3a1 1 0 0 1-1-1V3a1 1 0 0 1 1-1h22m0-2H3a3 3 0 0 0-3 3v15a3 3 0 0 0 3 3h22a3 3 0 0 0 3-3V3a3 3 0 0 0-3-3z" fill="#00ab8a" stroke-width="0!important"/><path fill="none!important" stroke="#00ab8a" stroke-linecap="round" stroke-linejoin="round" stroke-width="2" d="M4.89 15.67h2.04"/><path fill="none" stroke="#00ab8a" stroke-linecap="round" stroke-linejoin="round" stroke-width="2" d="M4.89 6.56h5.39M10.28 15.67h2.04M15.68 15.67h2.04M21.07 15.67h2.04"/></g></g></symbol><symbol id="question" viewBox="0 0 26.43 48.58"><title>&#x420;&#x435;&#x441;&#x443;&#x440;&#x441; 7</title><g data-name="&#x421;&#x43B;&#x43E;&#x439; 2"><g data-name="checkout 1000px 5-2" fill="none" stroke="#f7931e" stroke-linecap="round" stroke-miterlimit="10" stroke-width="3.68"><path d="M12.59 34.92c0-.68.12-2.58.12-3.1 0-4 7.58-9.86 7.58-9.86l4.21-8.7s-1.28-6-3.34-8.07A11.42 11.42 0 0 0 5 5.18a11.43 11.43 0 0 0-3.17 7.24M15.29 41.66H8.91M15.29 46.74H8.91" opacity=".6"/></g></g></symbol><symbol id="reserve-success" viewBox="0 0 150 150"><use xlink:href="#reserve-success-a" overflow="visible" fill="#FFF"/><clipPath id="reserve-success-b"><use xlink:href="#reserve-success-a" overflow="visible"/></clipPath><path clip-path="url(#reserve-success-b)" fill="none" stroke="#30C8AB" stroke-width="1.508" stroke-linecap="round" stroke-linejoin="round" stroke-miterlimit="10" d="M94.5 25.6c.1.9.2 4 2.7 6.7 1.5 1.6 4.4 2.6 5.9 2.6"/><path clip-path="url(#reserve-success-b)" fill="none" stroke="#F0F" stroke-width=".754" stroke-miterlimit="10" d="M18 89.3c-.9 0-3.7.1-6.5-2.6-2.8-2.8-2.4-5.9-2.4-6.3"/><path clip-path="url(#reserve-success-b)" fill="none" stroke="#30C8AB" stroke-width="1.508" stroke-linecap="round" stroke-linejoin="round" stroke-miterlimit="10" d="M18 89.3c-.9 0-3.6 0-6.5-2.6-2.6-2.4-2.4-5.9-2.4-6.3"/><path clip-path="url(#reserve-success-b)" fill-rule="evenodd" clip-rule="evenodd" fill="none" stroke="#30C8AB" stroke-width="3.769" stroke-linejoin="round" stroke-miterlimit="10" d="M150.1 29.2c.7-2.2 1.1-4.6 1.1-7.1 0-8.5-4.6-16-11.4-20.1v-.2c0-6.8-5-12.3-11.5-13.3-2.6-4.4-7.5-7.4-13-7.4-7.1 0-13.1 4.9-14.7 11.6-7 3.5-11.9 10.7-11.9 19.1 0 .6 0 1.2.1 1.8-5.8 4.6-9.5 11.6-9.5 19.5 0 13.8 11.2 24.9 25 24.9h1.3c4.9 6.3 12.5 10.4 21.1 10.4 14.7 0 26.6-11.9 26.6-26.5 0-4.6-1.1-8.9-3.2-12.7z"/><path clip-path="url(#reserve-success-b)" fill-rule="evenodd" clip-rule="evenodd" fill="none" stroke="#00AB8A" stroke-width="2.261" stroke-miterlimit="10" d="M22 107.9h7.8v17.8H22v-17.8z"/><path clip-path="url(#reserve-success-b)" fill-rule="evenodd" clip-rule="evenodd" fill="none" stroke="#30C8AB" stroke-width="4.523" stroke-linejoin="round" stroke-miterlimit="10" d="M45.9 59.4c0-7.5-5.6-13.5-12.5-13.5-5.1 0-9.5 3.3-11.4 8.1-1.7-1.2-3.7-1.8-5.7-1.8-6.3 0-11.5 6.2-11.9 14C1.9 67.8.2 70.4.2 73.4c0 .4 0 .7.1 1.1-2 2.5-3.2 5.7-3.2 9.3 0 6.8 4.4 12.5 10.1 13.7 3.8 6.4 10 10.6 16.9 10.6 11.5 0 20.8-11.4 20.8-25.4 0-4.9-1.1-9.5-3.1-13.3 2.5-2.5 4.1-6 4.1-10z"/><path clip-path="url(#reserve-success-b)" fill-rule="evenodd" clip-rule="evenodd" fill="#FFF" stroke="#73958E" stroke-width="2.261" stroke-miterlimit="10" d="M26.6 76.9h109.3v49H26.6zM26.6 70.1h155.3v6.8H26.6zM135.9 76.9h46v9h-46z"/><g clip-path="url(#reserve-success-b)"><path fill-rule="evenodd" clip-rule="evenodd" fill="#FFF" d="M135.9 85.9h46v39.9h-46z"/><path opacity=".2" fill-rule="evenodd" clip-rule="evenodd" fill="#73958E" d="M135.9 85.9h46v39.9h-46z"/><path fill="none" stroke="#73958E" stroke-width="2.261" stroke-miterlimit="10" d="M135.9 85.9h46v39.9h-46z"/></g><path clip-path="url(#reserve-success-b)" fill="#FFF" stroke="#73958E" stroke-width="2.261" stroke-miterlimit="10" d="M34.2 76.9v49M108 91.2H34.2M108 76.9v49"/><path clip-path="url(#reserve-success-b)" fill="none" stroke="#73958E" stroke-width="2.261" stroke-miterlimit="10" d="M116.7 99.6h11.2v19h-11.2zM43.2 85.2v-2.4c0-.8.7-1.5 1.5-1.5h10.6c.8 0 1.5.7 1.5 1.5v2.4c0 .8-.7 1.5-1.5 1.5H44.7c-.8 0-1.5-.7-1.5-1.5zM64.3 85.2v-2.4c0-.8.7-1.5 1.5-1.5h10.6c.8 0 1.5.7 1.5 1.5v2.4c0 .8-.7 1.5-1.5 1.5H65.8c-.8 0-1.5-.7-1.5-1.5zM85.4 85.2v-2.4c0-.8.7-1.5 1.5-1.5h10.6c.8 0 1.5.7 1.5 1.5v2.4c0 .8-.7 1.5-1.5 1.5H86.9c-.8 0-1.5-.7-1.5-1.5zM115.6 89.7v-2.4c0-.8.7-1.5 1.5-1.5h11.4c.8 0 1.5.7 1.5 1.5v2.4c0 .8-.7 1.5-1.5 1.5H117c-.8 0-1.4-.6-1.4-1.5zM122 104.2v9.8"/><g clip-path="url(#reserve-success-b)" stroke="#CCC" stroke-width="3.015" stroke-miterlimit="10"><circle fill="none" cx="73" cy="107.9" r="10.8"/><path fill="#FFF" d="M86.8 120.4h-28c-1.8 0-3.3-1.5-3.3-3.3v-5.4c0-1.8 1.5-3.3 3.3-3.3h28c1.8 0 3.3 1.5 3.3 3.3v5.4c0 1.8-1.5 3.3-3.3 3.3z"/></g><circle clip-path="url(#reserve-success-b)" fill="#CCC" cx="61.6" cy="114.4" r="2.3"/><circle clip-path="url(#reserve-success-b)" fill="#CCC" cx="67" cy="114.4" r="1"/><circle clip-path="url(#reserve-success-b)" fill="#CCC" cx="70.9" cy="114.4" r="1"/><circle clip-path="url(#reserve-success-b)" fill="#CCC" cx="74.8" cy="114.4" r="1"/><circle clip-path="url(#reserve-success-b)" fill="#CCC" cx="78.7" cy="114.4" r="1"/><circle clip-path="url(#reserve-success-b)" fill="#CCC" cx="84.1" cy="114.4" r="2.3"/><path clip-path="url(#reserve-success-b)" fill="#CCC" d="M60.2 124.7h1.9c.7 0 1.2-.5 1.2-1.2v-3.9H59v3.9c0 .7.6 1.2 1.2 1.2zM83.6 124.7h1.9c.7 0 1.2-.5 1.2-1.2v-3.9h-4.3v3.9c0 .7.5 1.2 1.2 1.2z"/><g clip-path="url(#reserve-success-b)"><path fill-rule="evenodd" clip-rule="evenodd" fill="#FFF" d="M178.1 42.2H32.7l-9.8 27.9h163.5z"/><path opacity=".2" fill-rule="evenodd" clip-rule="evenodd" fill="#73958E" d="M178.1 42.2H32.7l-9.8 27.9h163.5z"/><path fill="none" stroke="#73958E" stroke-width="3.015" stroke-miterlimit="10" d="M178.1 42.2H32.7l-9.8 27.9h163.5z"/></g><path clip-path="url(#reserve-success-b)" fill="#FFF" stroke="#73958E" stroke-width="2.261" stroke-miterlimit="10" d="M26.6 125.9H14.2"/><g><path fill="#00AB8A" d="M75.2 3c39.7 0 72 32.3 72 72s-32.3 72-72 72-72-32.3-72-72 32.3-72 72-72m0-3C33.8 0 .2 33.6.2 75s33.6 75 75 75 75-33.6 75-75-33.5-75-75-75z"/></g></symbol><symbol id="return" viewBox="0 0 22.17 16"><title>return</title><g data-name="&#x421;&#x43B;&#x43E;&#x439; 2"><g data-name="!" fill="none" stroke="#fff" stroke-linecap="round" stroke-linejoin="round" stroke-width="2"><path d="M8 15L1 8l7-7"/><path d="M2 8h15a4.17 4.17 0 0 1 4.17 4.17"/></g></g></symbol><symbol id="sale" viewBox="0 0 20.73 20.73"><title>sale</title><g data-name="&#x421;&#x43B;&#x43E;&#x439; 2"><path d="M8.15 0L1.81.7A1.24 1.24 0 0 0 .7 1.81L0 8.15a3.17 3.17 0 0 0 1 2.56l2.85 2.89 6.51 6.51a1.92 1.92 0 0 0 2.71.11l3.58-3.58 3.58-3.58a1.92 1.92 0 0 0-.11-2.71l-6.52-6.5L10.71 1a3.17 3.17 0 0 0-2.56-1zM6.72 6.72a2.16 2.16 0 1 1 0-3.05 2.16 2.16 0 0 1 0 3.05z" fill="#00ab8a" fill-opacity=".85" opacity=".3" data-name="checkout 1000px 5-2"/></g></symbol><symbol id="slider-next" viewBox="0 0 60 52.88"><title>&#x420;&#x435;&#x441;&#x443;&#x440;&#x441; 7</title><g data-name="&#x421;&#x43B;&#x43E;&#x439; 2"><g data-name="checkout 1000px 5"><path d="M18.22 52.88h23.56a7 7 0 0 0 6.06-3.5l11.22-19.44a7 7 0 0 0 0-7L47.84 3.5A7 7 0 0 0 41.78 0H18.22a7 7 0 0 0-6.06 3.5L.94 22.94a7 7 0 0 0 0 7l11.22 19.44a7 7 0 0 0 6.06 3.5z" fill="#808d9b" fill-opacity=".2" stroke-miterlimit="10" stroke-opacity=".5" stroke-width="2"/><path d="M25.52 14.12l12.32 12.32-12.32 12.32" fill="none" stroke="#808d9b" stroke-linecap="round" stroke-linejoin="round" stroke-width="3" opacity=".8"/></g></g></symbol><symbol id="slider-prev" viewBox="0 0 59.69 52.61"><title>&#x420;&#x435;&#x441;&#x443;&#x440;&#x441; 2</title><g data-name="&#x421;&#x43B;&#x43E;&#x439; 2"><g data-name="checkout 1000px 5"><path d="M41.54 0H18.15a7 7 0 0 0-6.06 3.5L.94 22.81a7 7 0 0 0 0 7l11.14 19.3a7 7 0 0 0 6.06 3.5h23.4a7 7 0 0 0 6.06-3.5l11.15-19.3a7 7 0 0 0 0-7L47.61 3.5A7 7 0 0 0 41.54 0z" fill="#808d9b" fill-opacity=".2" stroke-miterlimit="10" stroke-opacity=".2" stroke-width="2"/><path d="M34.09 38.57L21.83 26.31 34.09 14" fill="none" stroke="#808d9b" stroke-linecap="round" stroke-linejoin="round" stroke-width="3" opacity=".8"/></g></g></symbol><symbol id="tel" viewBox="0 0 17 17.02"><title>tel</title><g data-name="&#x421;&#x43B;&#x43E;&#x439; 2"><path d="M3 0a.76.76 0 0 1 .53.32l2 2.83a.9.9 0 0 1 .16.65 1 1 0 0 1-.29.61L3.67 6.13A30.68 30.68 0 0 0 7 10a31.68 31.68 0 0 0 3.89 3.31l1.73-1.72a.91.91 0 0 1 .61-.28 1 1 0 0 1 .66.17l2.8 2a.78.78 0 0 1 .32.55.69.69 0 0 1-.19.59L14.43 17H14a5.74 5.74 0 0 1-1.35-.24 17.61 17.61 0 0 1-2-.69A14 14 0 0 1 8 14.58 22.66 22.66 0 0 1 5 12a21.8 21.8 0 0 1-2.57-3A16.2 16.2 0 0 1 .91 6.4a11.57 11.57 0 0 1-.68-2A8.63 8.63 0 0 1 0 3a4.5 4.5 0 0 1 0-.47L2.37.21A.69.69 0 0 1 3 0z" fill="#231f20" opacity=".2" data-name="!"/></g></symbol><symbol id="user" viewBox="0 0 17 17"><title>user</title><g data-name="&#x421;&#x43B;&#x43E;&#x439; 2"><path d="M17 15v2H0v-2l5.67-3.64V9.92q-.52 0-1-1.05a4.73 4.73 0 0 1-.45-1.78V4.25a4.1 4.1 0 0 1 1.25-3A4.1 4.1 0 0 1 8.5 0a4.1 4.1 0 0 1 3 1.25 4.1 4.1 0 0 1 1.25 3v2.83a4.73 4.73 0 0 1-.45 1.78q-.45 1.05-1 1.05v1.42z" fill="#231f20" opacity=".2" data-name="!"/></g></symbol><symbol id="vk" viewBox="0 0 60 60"><title>&#x420;&#x435;&#x441;&#x443;&#x440;&#x441; 1</title><g data-name="&#x421;&#x43B;&#x43E;&#x439; 2"><g data-name="checkout 1000px 3b"><g mask="url(#vk-b)"><circle cx="30" cy="30" r="30" fill="#4d75a3"/><path d="M30 1A29 29 0 1 1 1 30 29 29 0 0 1 30 1m0-1a30 30 0 1 0 30 30A30 30 0 0 0 30 0z" opacity=".2"/></g><path d="M34.52 28.78v-.06A4.63 4.63 0 0 0 37.67 24c0-3.21-2.63-5-5.49-5h-9.85v21.76h9c5.5 0 7.66-3.43 7.66-6.6.01-3.42-1.86-4.84-4.47-5.38zm-7.11-5.91h1.14a6.48 6.48 0 0 1 2.83.32 2.28 2.28 0 0 1 1 2 2.51 2.51 0 0 1-.89 2 4.15 4.15 0 0 1-2.61.51h-1.47zm5.21 13.39a5 5 0 0 1-2.8.48h-2.41v-5.41H30a5.1 5.1 0 0 1 2.49.41A2.75 2.75 0 0 1 33.72 34a2.81 2.81 0 0 1-1.1 2.26z" fill="#fff"/></g></g></symbol></svg>