<?xml version="1.0" encoding="UTF-8"?><!DOCTYPE svg PUBLIC "-//W3C//DTD SVG 1.1//EN" "http://www.w3.org/Graphics/SVG/1.1/DTD/svg11.dtd"><svg xmlns="http://www.w3.org/2000/svg"><symbol id="casco-info" viewBox="0 0 96 107.56"><title>casco-info</title><g data-name="&#x421;&#x43B;&#x43E;&#x439; 2"><g data-name="checkout 1000px 1-2" stroke="#fff" stroke-miterlimit="10"><path data-name="&lt;&#x41A;&#x43E;&#x43D;&#x442;&#x443;&#x440;&gt;" d="M1 32.09v43.38a9.4 9.4 0 0 0 4.7 8.14l37.6 21.69a9.4 9.4 0 0 0 9.39 0L90.3 83.61a9.4 9.4 0 0 0 4.7-8.14V32.09A9.4 9.4 0 0 0 90.3 24L52.7 2.26a9.4 9.4 0 0 0-9.39 0L5.7 24A9.4 9.4 0 0 0 1 32.09z" fill="#808d9b" fill-opacity=".9" stroke-width="2"/><path d="M67.33 38.08c-8.08-2.74-12-4.77-19.33-9.48-7.37 4.72-11.24 6.74-19.33 9.48-.17 5.52 0 14.14 0 20.41a16.08 16.08 0 0 0 6.77 13.68A68.65 68.65 0 0 0 48 79a68.65 68.65 0 0 0 12.55-6.79 16.08 16.08 0 0 0 6.77-13.68c.01-6.31.18-14.93.01-20.45z" fill="none" stroke-linecap="round" stroke-width="3"/><g opacity=".5" fill="none" stroke-linecap="round" stroke-width="3"><ellipse cx="48" cy="47.76" rx="10.06" ry="3.83"/><path d="M54.23 50.77a23.89 23.89 0 0 1-12.46 0c-2.33.7-3.84 1.79-3.84 3 0 2.12 4.51 3.83 10.06 3.83s10.06-1.72 10.06-3.83c.02-1.21-1.49-2.3-3.82-3z"/><path d="M54.23 56.79a23.89 23.89 0 0 1-12.46 0c-2.33.7-3.84 1.79-3.84 3 0 2.12 4.51 3.83 10.06 3.83s10.06-1.72 10.06-3.83c.02-1.22-1.49-2.3-3.82-3z"/></g></g></g></symbol><symbol id="casco-refuse" viewBox="0 0 96 107.56"><title>casco-refuse</title><g data-name="&#x421;&#x43B;&#x43E;&#x439; 2"><g data-name="checkout 1000px 1-2" stroke="#fff" stroke-miterlimit="10"><path data-name="&lt;&#x41A;&#x43E;&#x43D;&#x442;&#x443;&#x440;&gt;" d="M1 32.09v43.38a9.4 9.4 0 0 0 4.7 8.14l37.6 21.69a9.4 9.4 0 0 0 9.39 0L90.3 83.61a9.4 9.4 0 0 0 4.7-8.14V32.09A9.4 9.4 0 0 0 90.3 24L52.7 2.26a9.4 9.4 0 0 0-9.39 0L5.7 24A9.4 9.4 0 0 0 1 32.09z" fill="#ff6262" fill-opacity=".9" stroke-width="2"/><path d="M67.33 38.08c-8.08-2.74-12-4.77-19.33-9.48-7.37 4.72-11.24 6.74-19.33 9.48-.17 5.52 0 14.14 0 20.41a16.08 16.08 0 0 0 6.77 13.68A68.65 68.65 0 0 0 48 79a68.65 68.65 0 0 0 12.55-6.79 16.08 16.08 0 0 0 6.77-13.68c.01-6.31.18-14.93.01-20.45z" fill="none" stroke-linecap="round" stroke-width="3"/><g opacity=".5" fill="none" stroke-linecap="round" stroke-width="4"><path d="M42.64 48.41l10.73 10.74M53.37 48.41L42.64 59.15"/></g></g></g></symbol><symbol id="credit-gray" viewBox="0 0 96 107.56"><title>credit-gray</title><g data-name="&#x421;&#x43B;&#x43E;&#x439; 2"><g data-name="checkout 1000px 1-2" stroke="#fff"><path data-name="&lt;&#x41A;&#x43E;&#x43D;&#x442;&#x443;&#x440;&gt;" d="M1 32.09v43.38a9.4 9.4 0 0 0 4.7 8.14l37.6 21.69a9.4 9.4 0 0 0 9.39 0L90.3 83.61a9.4 9.4 0 0 0 4.7-8.14V32.09A9.4 9.4 0 0 0 90.3 24L52.7 2.26a9.4 9.4 0 0 0-9.39 0L5.7 24A9.4 9.4 0 0 0 1 32.09z" fill="#808d9b" fill-opacity=".9" stroke-miterlimit="10" stroke-width="2"/><path fill="none" stroke-linecap="round" stroke-linejoin="round" stroke-width="3" opacity=".5" d="M29.41 80.91h6.27M60.32 80.91h6.28"/><rect x="23.78" y="27.05" width="48.45" height="48.45" rx="4.88" ry="4.88" fill="none" stroke-linecap="round" stroke-linejoin="round" stroke-width="3"/><path d="M62.65 34.75h-29.3a1.87 1.87 0 0 0-1.87 1.87v3h2.15a1.16 1.16 0 0 1 1.16 1.16V43a1.16 1.16 0 0 1-1.16 1.16h-2.15v13.3h2.15a1.16 1.16 0 0 1 1.16 1.16v2.23A1.16 1.16 0 0 1 33.62 62h-2.14v3.94a1.87 1.87 0 0 0 1.87 1.87h29.3a1.87 1.87 0 0 0 1.87-1.87V36.62a1.87 1.87 0 0 0-1.87-1.87z" fill="none" stroke-miterlimit="10" stroke-width="3"/><rect x="25.53" y="57.44" width="9.25" height="4.54" rx="1.75" ry="1.75" fill="none" stroke-miterlimit="10" stroke-width="3"/><rect x="25.53" y="39.59" width="9.25" height="4.54" rx="1.75" ry="1.75" fill="none" stroke-miterlimit="10" stroke-width="3"/><g opacity=".5" fill="none" stroke-linecap="round" stroke-linejoin="round" stroke-width="3"><path d="M38.89 47.27h18.22M53.61 44.43v5M57.11 55.27H38.89M44.36 57.77v-5"/></g></g></g></symbol><symbol id="credit-green" viewBox="0 0 96 107.56"><title>credit-green</title><g data-name="&#x421;&#x43B;&#x43E;&#x439; 2"><g data-name="checkout 1000px 1-2" stroke="#fff"><path data-name="&lt;&#x41A;&#x43E;&#x43D;&#x442;&#x443;&#x440;&gt;" d="M1 32.09v43.38a9.4 9.4 0 0 0 4.7 8.14l37.6 21.69a9.4 9.4 0 0 0 9.39 0L90.3 83.61a9.4 9.4 0 0 0 4.7-8.14V32.09A9.4 9.4 0 0 0 90.3 24L52.7 2.26a9.4 9.4 0 0 0-9.39 0L5.7 24A9.4 9.4 0 0 0 1 32.09z" fill="#00ab8a" fill-opacity=".9" stroke-miterlimit="10" stroke-width="2"/><path fill="none" stroke-linecap="round" stroke-linejoin="round" stroke-width="3" opacity=".5" d="M29.41 80.91h6.27M60.32 80.91h6.28"/><rect x="23.78" y="27.05" width="48.45" height="48.45" rx="4.88" ry="4.88" fill="none" stroke-linecap="round" stroke-linejoin="round" stroke-width="3"/><path d="M62.65 34.75h-29.3a1.87 1.87 0 0 0-1.87 1.87v3h2.15a1.16 1.16 0 0 1 1.16 1.16V43a1.16 1.16 0 0 1-1.16 1.16h-2.15v13.3h2.15a1.16 1.16 0 0 1 1.16 1.16v2.23A1.16 1.16 0 0 1 33.62 62h-2.14v3.94a1.87 1.87 0 0 0 1.87 1.87h29.3a1.87 1.87 0 0 0 1.87-1.87V36.62a1.87 1.87 0 0 0-1.87-1.87z" fill="none" stroke-miterlimit="10" stroke-width="3"/><rect x="25.53" y="57.44" width="9.25" height="4.54" rx="1.75" ry="1.75" fill="none" stroke-miterlimit="10" stroke-width="3"/><rect x="25.53" y="39.59" width="9.25" height="4.54" rx="1.75" ry="1.75" fill="none" stroke-miterlimit="10" stroke-width="3"/><g opacity=".5" fill="none" stroke-linecap="round" stroke-linejoin="round" stroke-width="3"><path d="M38.89 47.27h18.22M53.61 44.43v5M57.11 55.27H38.89M44.36 57.77v-5"/></g></g></g></symbol><symbol id="credit-red" viewBox="0 0 96 107.56"><title>credit-red</title><g data-name="&#x421;&#x43B;&#x43E;&#x439; 2"><g data-name="checkout 1000px 1-2" stroke="#fff"><path data-name="&lt;&#x41A;&#x43E;&#x43D;&#x442;&#x443;&#x440;&gt;" d="M1 32.09v43.38a9.4 9.4 0 0 0 4.7 8.14l37.6 21.69a9.4 9.4 0 0 0 9.39 0L90.3 83.61a9.4 9.4 0 0 0 4.7-8.14V32.09A9.4 9.4 0 0 0 90.3 24L52.7 2.26a9.4 9.4 0 0 0-9.39 0L5.7 24A9.4 9.4 0 0 0 1 32.09z" fill="#ff6262" fill-opacity=".9" stroke-miterlimit="10" stroke-width="2"/><g opacity=".5" fill="none" stroke-linecap="round" stroke-miterlimit="10" stroke-width="4"><path d="M42.64 45.91l10.73 10.73M53.37 45.91L42.64 56.64"/></g><path fill="none" stroke-linecap="round" stroke-linejoin="round" stroke-width="3" opacity=".5" d="M29.41 80.91h6.27M60.32 80.91h6.28"/><rect x="23.78" y="27.05" width="48.45" height="48.45" rx="4.88" ry="4.88" fill="none" stroke-linecap="round" stroke-linejoin="round" stroke-width="3"/><path d="M62.65 34.75h-29.3a1.87 1.87 0 0 0-1.87 1.87v3h2.15a1.16 1.16 0 0 1 1.16 1.16V43a1.16 1.16 0 0 1-1.16 1.16h-2.15v13.3h2.15a1.16 1.16 0 0 1 1.16 1.16v2.23A1.16 1.16 0 0 1 33.62 62h-2.14v3.94a1.87 1.87 0 0 0 1.87 1.87h29.3a1.87 1.87 0 0 0 1.87-1.87V36.62a1.87 1.87 0 0 0-1.87-1.87z" fill="none" stroke-miterlimit="10" stroke-width="3"/><rect x="25.53" y="57.44" width="9.25" height="4.54" rx="1.75" ry="1.75" fill="none" stroke-miterlimit="10" stroke-width="3"/><rect x="25.53" y="39.59" width="9.25" height="4.54" rx="1.75" ry="1.75" fill="none" stroke-miterlimit="10" stroke-width="3"/></g></g></symbol><symbol id="credit-refuse" viewBox="0 0 96 107.56"><title>credit-refuse</title><g data-name="&#x421;&#x43B;&#x43E;&#x439; 2"><g data-name="checkout 1000px 1-2" stroke="#fff"><path data-name="&lt;&#x41A;&#x43E;&#x43D;&#x442;&#x443;&#x440;&gt;" d="M1 32.09v43.38a9.4 9.4 0 0 0 4.7 8.14l37.6 21.69a9.4 9.4 0 0 0 9.39 0L90.3 83.61a9.4 9.4 0 0 0 4.7-8.14V32.09A9.4 9.4 0 0 0 90.3 24L52.7 2.26a9.4 9.4 0 0 0-9.39 0L5.7 24A9.4 9.4 0 0 0 1 32.09z" fill="#ff6262" fill-opacity=".9" stroke-miterlimit="10" stroke-width="2"/><g opacity=".5" fill="none" stroke-linecap="round" stroke-miterlimit="10" stroke-width="4"><path d="M42.64 45.91l10.73 10.73M53.37 45.91L42.64 56.64"/></g><path fill="none" stroke-linecap="round" stroke-linejoin="round" stroke-width="3" opacity=".5" d="M29.41 80.91h6.27M60.32 80.91h6.28"/><rect x="23.78" y="27.05" width="48.45" height="48.45" rx="4.88" ry="4.88" fill="none" stroke-linecap="round" stroke-linejoin="round" stroke-width="3"/><path d="M62.65 34.75h-29.3a1.87 1.87 0 0 0-1.87 1.87v3h2.15a1.16 1.16 0 0 1 1.16 1.16V43a1.16 1.16 0 0 1-1.16 1.16h-2.15v13.3h2.15a1.16 1.16 0 0 1 1.16 1.16v2.23A1.16 1.16 0 0 1 33.62 62h-2.14v3.94a1.87 1.87 0 0 0 1.87 1.87h29.3a1.87 1.87 0 0 0 1.87-1.87V36.62a1.87 1.87 0 0 0-1.87-1.87z" fill="none" stroke-miterlimit="10" stroke-width="3"/><rect x="25.53" y="57.44" width="9.25" height="4.54" rx="1.75" ry="1.75" fill="none" stroke-miterlimit="10" stroke-width="3"/><rect x="25.53" y="39.59" width="9.25" height="4.54" rx="1.75" ry="1.75" fill="none" stroke-miterlimit="10" stroke-width="3"/></g></g></symbol><symbol id="equip-credit" viewBox="0 0 96 107.56"><title>equip-credit</title><g data-name="&#x421;&#x43B;&#x43E;&#x439; 2"><g data-name="checkout 1000px 1-2" stroke="#fff"><path data-name="&lt;&#x41A;&#x43E;&#x43D;&#x442;&#x443;&#x440;&gt;" d="M1 32.09v43.38a9.4 9.4 0 0 0 4.7 8.14l37.6 21.69a9.4 9.4 0 0 0 9.39 0L90.3 83.61a9.4 9.4 0 0 0 4.7-8.14V32.09A9.4 9.4 0 0 0 90.3 24L52.7 2.26a9.4 9.4 0 0 0-9.39 0L5.7 24A9.4 9.4 0 0 0 1 32.09z" fill="#ff6262" fill-opacity=".9" stroke-miterlimit="10" stroke-width="2"/><path fill="none" stroke-linecap="round" stroke-linejoin="round" stroke-width="3" opacity=".5" d="M29.41 80.91h6.27M60.32 80.91h6.28"/><rect x="23.78" y="27.05" width="48.45" height="48.45" rx="4.88" ry="4.88" fill="none" stroke-linecap="round" stroke-linejoin="round" stroke-width="3"/><path d="M62.65 34.75h-29.3a1.87 1.87 0 0 0-1.87 1.87v3h2.15a1.16 1.16 0 0 1 1.16 1.16V43a1.16 1.16 0 0 1-1.16 1.16h-2.15v13.3h2.15a1.16 1.16 0 0 1 1.16 1.16v2.23A1.16 1.16 0 0 1 33.62 62h-2.14v3.94a1.87 1.87 0 0 0 1.87 1.87h29.3a1.87 1.87 0 0 0 1.87-1.87V36.62a1.87 1.87 0 0 0-1.87-1.87z" fill="none" stroke-miterlimit="10" stroke-width="3"/><rect x="25.53" y="57.44" width="9.25" height="4.54" rx="1.75" ry="1.75" fill="none" stroke-miterlimit="10" stroke-width="3"/><rect x="25.53" y="39.59" width="9.25" height="4.54" rx="1.75" ry="1.75" fill="none" stroke-miterlimit="10" stroke-width="3"/><g opacity=".5" fill="none" stroke-linecap="round" stroke-linejoin="round" stroke-width="3"><path d="M38.89 47.27h18.22M53.61 44.43v5M57.11 55.27H38.89M44.36 57.77v-5"/></g></g></g></symbol><symbol id="equip-decrease" viewBox="0 0 96 107.56"><title>equip-decreasep-</title><g data-name="&#x421;&#x43B;&#x43E;&#x439; 2"><g data-name="checkout 1000px 2"><path data-name="&lt;&#x41A;&#x43E;&#x43D;&#x442;&#x443;&#x440;&gt;" d="M1 32.09v43.38a9.4 9.4 0 0 0 4.7 8.14l37.6 21.69a9.4 9.4 0 0 0 9.39 0L90.3 83.61a9.4 9.4 0 0 0 4.7-8.14V32.09A9.4 9.4 0 0 0 90.3 24L52.7 2.26a9.4 9.4 0 0 0-9.39 0L5.7 24A9.4 9.4 0 0 0 1 32.09z" fill="#00ab8a" fill-opacity=".9" stroke="#fff" stroke-miterlimit="10" stroke-width="2"/><path fill="none" stroke="#fff" stroke-linecap="round" stroke-miterlimit="10" stroke-width="3" d="M23.1 38.96l12.63 10.37h23.68l15.82 13.39"/><circle cx="19.88" cy="36.19" r="3.98" fill="#fff"/><path d="M71.44 64.18l5.8-5.39a1.21 1.21 0 0 1 2 .6l2.17 9.08a.47.47 0 0 1-.6.56l-8.9-2.82a1.21 1.21 0 0 1-.47-2.03z" fill="#fff"/><g opacity=".5" fill="none" stroke="#fff" stroke-linecap="round" stroke-miterlimit="10" stroke-width="3"><path d="M42.87 75.5v-12h9.81c3.76 0 6.8 2.69 6.8 6 0 3.32-3 6-6.8 6H39.15M42.87 75.5v10.01M54.8 81.47H39"/></g></g></g></symbol><symbol id="equip-increase" viewBox="0 0 96 107.56"><title>equip-increase</title><g data-name="&#x421;&#x43B;&#x43E;&#x439; 2"><g data-name="checkout 1000px 2"><path data-name="&lt;&#x41A;&#x43E;&#x43D;&#x442;&#x443;&#x440;&gt;" d="M1 32.09v43.38a9.4 9.4 0 0 0 4.7 8.14l37.6 21.69a9.4 9.4 0 0 0 9.39 0L90.3 83.61a9.4 9.4 0 0 0 4.7-8.14V32.09A9.4 9.4 0 0 0 90.3 24L52.7 2.26a9.4 9.4 0 0 0-9.39 0L5.7 24A9.4 9.4 0 0 0 1 32.09z" fill="#ff6262" fill-opacity=".9" stroke="#fff" stroke-miterlimit="10" stroke-width="2"/><g opacity=".5" fill="none" stroke="#fff" stroke-linecap="round" stroke-miterlimit="10" stroke-width="3"><path d="M42.87 75.5v-12h9.81c3.76 0 6.8 2.69 6.8 6 0 3.32-3 6-6.8 6H39.15M42.87 75.5v10.01M54.8 81.47H39"/></g><path fill="none" stroke="#fff" stroke-linecap="round" stroke-miterlimit="10" stroke-width="3" d="M19.2 65.78l16.41-15.12h26.48l12.6-15.13"/><circle cx="18.42" cy="66.52" r="3.98" fill="#fff"/><path d="M75.43 41.27l-6.17-5a1.21 1.21 0 0 1 .31-2.06l8.67-3.45a.47.47 0 0 1 .64.52l-1.51 9.21a1.21 1.21 0 0 1-1.94.78z" fill="#fff"/></g></g></symbol><symbol id="equip-refuse" viewBox="0 0 96 107.56"><title>equip-refuse</title><g data-name="&#x421;&#x43B;&#x43E;&#x439; 2"><g data-name="checkout 1000px 1-2" stroke="#fff"><path data-name="&lt;&#x41A;&#x43E;&#x43D;&#x442;&#x443;&#x440;&gt;" d="M1 32.09v43.38a9.4 9.4 0 0 0 4.7 8.14l37.6 21.69a9.4 9.4 0 0 0 9.39 0L90.3 83.61a9.4 9.4 0 0 0 4.7-8.14V32.09A9.4 9.4 0 0 0 90.3 24L52.7 2.26a9.4 9.4 0 0 0-9.39 0L5.7 24A9.4 9.4 0 0 0 1 32.09z" fill="#ff6262" fill-opacity=".9" stroke-miterlimit="10" stroke-width="2"/><path d="M27.62 62.63a22.13 22.13 0 0 1 29-29" fill="none" stroke-linecap="round" stroke-miterlimit="10" stroke-width="3"/><path fill="none" stroke-linecap="round" stroke-linejoin="round" stroke-width="3" d="M53.21 26.8l4.28 6.85-6.85 4.29"/><g opacity=".5" fill="none" stroke-linecap="round" stroke-width="3"><path d="M68.38 45.41a22.13 22.13 0 0 1-29 29" stroke-miterlimit="10"/><path stroke-linejoin="round" d="M41.01 80.76l-3.72-7.17 7.18-3.72"/></g><g opacity=".5" fill="none" stroke-linecap="round" stroke-miterlimit="10" stroke-width="4"><path d="M42 47.78l12 12M54 47.78l-12 12"/></g></g></g></symbol><symbol id="protect-deselect" viewBox="0 0 96 107.56"><title>protect-deselect</title><g data-name="&#x421;&#x43B;&#x43E;&#x439; 2"><g data-name="checkout 1000px 1-2" stroke="#fff"><path data-name="&lt;&#x41A;&#x43E;&#x43D;&#x442;&#x443;&#x440;&gt;" d="M1 32.09v43.38a9.4 9.4 0 0 0 4.7 8.14l37.6 21.69a9.4 9.4 0 0 0 9.39 0L90.3 83.61a9.4 9.4 0 0 0 4.7-8.14V32.09A9.4 9.4 0 0 0 90.3 24L52.7 2.26a9.4 9.4 0 0 0-9.39 0L5.7 24A9.4 9.4 0 0 0 1 32.09z" fill="#808d9b" fill-opacity=".9" stroke-miterlimit="10" stroke-width="2"/><path fill="none" stroke-linecap="round" stroke-linejoin="round" stroke-width="3" opacity=".5" d="M29.41 80.91h6.27M60.32 80.91h6.28"/><rect x="23.78" y="27.05" width="48.45" height="48.45" rx="4.88" ry="4.88" fill="none" stroke-linecap="round" stroke-linejoin="round" stroke-width="3"/><path d="M62.65 34.75h-29.3a1.87 1.87 0 0 0-1.87 1.87v3h2.15a1.16 1.16 0 0 1 1.16 1.16V43a1.16 1.16 0 0 1-1.16 1.16h-2.15v13.3h2.15a1.16 1.16 0 0 1 1.16 1.16v2.23A1.16 1.16 0 0 1 33.62 62h-2.14v3.94a1.87 1.87 0 0 0 1.87 1.87h29.3a1.87 1.87 0 0 0 1.87-1.87V36.62a1.87 1.87 0 0 0-1.87-1.87z" fill="none" stroke-miterlimit="10" stroke-width="3"/><rect x="25.53" y="57.44" width="9.25" height="4.54" rx="1.75" ry="1.75" fill="none" stroke-miterlimit="10" stroke-width="3"/><rect x="25.53" y="39.59" width="9.25" height="4.54" rx="1.75" ry="1.75" fill="none" stroke-miterlimit="10" stroke-width="3"/><g opacity=".5" fill="none" stroke-linecap="round" stroke-linejoin="round" stroke-width="3"><path d="M38.89 47.27h18.22M53.61 44.43v5M57.11 55.27H38.89M44.36 57.77v-5"/></g></g></g></symbol><symbol id="protect-select" viewBox="0 0 96 107.56"><title>protect-select</title><g data-name="&#x421;&#x43B;&#x43E;&#x439; 2"><g data-name="checkout 1000px 1-2" stroke="#fff"><path data-name="&lt;&#x41A;&#x43E;&#x43D;&#x442;&#x443;&#x440;&gt;" d="M1 32.09v43.38a9.4 9.4 0 0 0 4.7 8.14l37.6 21.69a9.4 9.4 0 0 0 9.39 0L90.3 83.61a9.4 9.4 0 0 0 4.7-8.14V32.09A9.4 9.4 0 0 0 90.3 24L52.7 2.26a9.4 9.4 0 0 0-9.39 0L5.7 24A9.4 9.4 0 0 0 1 32.09z" fill="#00ab8a" fill-opacity=".9" stroke-miterlimit="10" stroke-width="2"/><path fill="none" stroke-linecap="round" stroke-linejoin="round" stroke-width="3" opacity=".5" d="M29.41 80.91h6.27M60.32 80.91h6.28"/><rect x="23.78" y="27.05" width="48.45" height="48.45" rx="4.88" ry="4.88" fill="none" stroke-linecap="round" stroke-linejoin="round" stroke-width="3"/><path d="M62.65 34.75h-29.3a1.87 1.87 0 0 0-1.87 1.87v3h2.15a1.16 1.16 0 0 1 1.16 1.16V43a1.16 1.16 0 0 1-1.16 1.16h-2.15v13.3h2.15a1.16 1.16 0 0 1 1.16 1.16v2.23A1.16 1.16 0 0 1 33.62 62h-2.14v3.94a1.87 1.87 0 0 0 1.87 1.87h29.3a1.87 1.87 0 0 0 1.87-1.87V36.62a1.87 1.87 0 0 0-1.87-1.87z" fill="none" stroke-miterlimit="10" stroke-width="3"/><rect x="25.53" y="57.44" width="9.25" height="4.54" rx="1.75" ry="1.75" fill="none" stroke-miterlimit="10" stroke-width="3"/><rect x="25.53" y="39.59" width="9.25" height="4.54" rx="1.75" ry="1.75" fill="none" stroke-miterlimit="10" stroke-width="3"/><g opacity=".5" fill="none" stroke-linecap="round" stroke-linejoin="round" stroke-width="3"><path d="M38.89 47.27h18.22M53.61 44.43v5M57.11 55.27H38.89M44.36 57.77v-5"/></g></g></g></symbol><symbol id="trade-in" viewBox="0 0 96 107.56"><title>trade-in</title><g data-name="&#x421;&#x43B;&#x43E;&#x439; 2"><g data-name="checkout 1000px 1-2" stroke="#fff"><path data-name="&lt;&#x41A;&#x43E;&#x43D;&#x442;&#x443;&#x440;&gt;" d="M1 32.09v43.38a9.4 9.4 0 0 0 4.7 8.14l37.6 21.69a9.4 9.4 0 0 0 9.39 0L90.3 83.61a9.4 9.4 0 0 0 4.7-8.14V32.09A9.4 9.4 0 0 0 90.3 24L52.7 2.26a9.4 9.4 0 0 0-9.39 0L5.7 24A9.4 9.4 0 0 0 1 32.09z" fill="#808d9b" fill-opacity=".9" stroke-miterlimit="10" stroke-width="2"/><path d="M27.62 62.63a22.13 22.13 0 0 1 29-29" fill="none" stroke-linecap="round" stroke-miterlimit="10" stroke-width="3"/><path fill="none" stroke-linecap="round" stroke-linejoin="round" stroke-width="3" d="M53.21 26.8l4.28 6.85-6.85 4.29"/><g opacity=".5" fill="none" stroke-linecap="round" stroke-width="3"><path d="M68.38 45.41a22.13 22.13 0 0 1-29 29" stroke-miterlimit="10"/><path stroke-linejoin="round" d="M41.01 80.76l-3.72-7.17 7.18-3.72"/></g><g opacity=".5" fill="none" stroke-linecap="round" stroke-miterlimit="10" stroke-width="4"><path d="M42 47.78l12 12M54 47.78l-12 12"/></g></g></g></symbol></svg>