<?xml version="1.0" encoding="UTF-8"?><!DOCTYPE svg PUBLIC "-//W3C//DTD SVG 1.1//EN" "http://www.w3.org/Graphics/SVG/1.1/DTD/svg11.dtd"><svg xmlns="http://www.w3.org/2000/svg"><symbol id="care" viewBox="0 0 90 101.2"><path d="M72.6 38.1C68.5 36.8 60.9 35 60.9 35c-3.4-2.6-6.1-4.9-8.4-6-1-.4-4-1.4-9.6-1.6-6.7-.3-9.9 0-12.5 1.6-1.8 1.1-4 2.4-6.6 4.3-.5.4-.9.5-1.5.6-1.2.2-1.9.2-3 .3-2.4.2-3.5 1.2-3.9 4.3-.3 1.7-.3 2.5-.4 4.7-.2 3.1.3 4.1 1.4 4.7 1.4.7 4 .9 4.6.9-.2-.6-.3-1.2-.3-1.8-.1-3.3 2.4-6 5.7-6.1 3.3-.1 6 2.4 6.1 5.7 0 .8-.1 1.5-.3 2.2h26.3c-.2-.6-.3-1.2-.3-1.8-.1-3.3 2.4-6 5.7-6.1 3.3-.1 6 2.4 6.1 5.7 0 .8-.1 1.5-.3 2.2H73c2.7 0 3-1.4 3.4-2.7.3-1.4.8-4.1.8-4.1s.3-2.3-4.6-3.9z" fill="none" stroke="#08ab8a" stroke-width="3" stroke-linecap="round" stroke-miterlimit="10"/><circle cx="26.4" cy="46.9" r="5.9" fill="none" stroke="#08ab8a" stroke-width="3" stroke-linecap="round" stroke-miterlimit="10"/><circle cx="63.8" cy="46.9" r="5.9" fill="none" stroke="#08ab8a" stroke-width="3" stroke-linecap="round" stroke-miterlimit="10"/><path d="M4.5 79.2l36 20.8c2.8 1.6 6.2 1.6 9 0l36-20.8c2.8-1.6 4.5-4.6 4.5-7.8V29.8c0-3.2-1.7-6.2-4.5-7.8l-36-20.8c-2.8-1.6-6.2-1.6-9 0L4.5 22C1.7 23.6 0 26.6 0 29.8v41.6c0 3.2 1.7 6.2 4.5 7.8z" opacity=".15" fill="#08ab8a"/><path d="M15.3 64.7s3.5-2.3 6.1-3.5c2.6-1.3 8.2-5 13.6-3.5 6 1.7 10.4 2.1 14 2.5 1.5.1 2.1 1.2 1.3 2.6-.8 1.4-2 2.7-5.1 2.8-3.1.1-10.2-1-10.2-1" fill="none" stroke="#08ab8a" stroke-width="3" stroke-linecap="round" stroke-linejoin="round" stroke-miterlimit="10"/><path d="M50.5 63.2c.4.1.3.9 2.4-.1 1.3-.6 3.2-1.3 5.2-2.2 3.6-1.7 6.8-2.7 8.5-3.4 1.7-.6 3.8-1 4.9 0 1.1 1 1.8 1.3-.4 2.6S55.5 70.5 53.8 71.6c-1.7 1.1-4.6 3.5-8.8 2.6-4.2-.9-11.6-2.5-14.4-3.1-2.8-.6-2.6-.4-3.8.5-1.2.9-3.7 2.6-3.7 2.6" fill="none" stroke="#08ab8a" stroke-width="3" stroke-linecap="round" stroke-linejoin="round" stroke-miterlimit="10"/></symbol><symbol id="drill" viewBox="0 0 24 24"><title>&#x420;&#x435;&#x441;&#x443;&#x440;&#x441; 8</title><g data-name="&#x421;&#x43B;&#x43E;&#x439; 2"><g data-name="checkout 1000px 2-2"><circle cx="12" cy="12" r="12" fill="#4f5a67" opacity=".5"/><path d="M9.16 6.78h7.51A2.24 2.24 0 0 1 18.92 9v1.5a2.24 2.24 0 0 1-2.24 2.24H9.16v-6 .04zM6.81 7.7h2.3v4.12h-2.3a1.55 1.55 0 0 1-1.55-1.55v-1A1.55 1.55 0 0 1 6.81 7.7zM16.75 19.06h-1.61a1 1 0 0 1-.93-.77l-1-5.36h3.55l1 5a1 1 0 0 1-1.01 1.13z" fill="none" stroke="#fff" stroke-linecap="round" stroke-linejoin="round"/><path fill="none" stroke="#fff" stroke-linecap="round" stroke-linejoin="round" d="M11.93 16.18l-.62-3.44h2.09M5.26 9.76H2.39"/></g></g></symbol><symbol id="exterior-basic" viewBox="0 0 90 101.2"><path d="M4.5 79.2l36 20.8c2.8 1.6 6.2 1.6 9 0l36-20.8c2.8-1.6 4.5-4.6 4.5-7.8V29.8c0-3.2-1.7-6.2-4.5-7.8l-36-20.8c-2.8-1.6-6.2-1.6-9 0L4.5 22C1.7 23.6 0 26.6 0 29.8v41.6c0 3.2 1.7 6.2 4.5 7.8z" opacity=".15" fill="#08ab8a"/><path d="M60.5 63.5l-1.9-2.8c-.6-1.3-2.2-2.2-4-2.2H32.9c-1.8 0-3.5.9-4 2.2L27 63.5M76.7 58c0-2.7.1-3.4-.1-6.8-.2-4.5-.9-6.3-3.1-8.6.6 0 1.3-.1 2.2-.1 3.1-.1 2.4-2.3 2.3-3.3-.1-1 0-2.8-3.2-2.6-3.3.2-1.8.1-3.3.2-1.3.1-2.4.3-2.9.8-2.5-2.9-4.4-5.5-4.4-5.5-3.3-3.9-5.6-6.1-10.2-6.4 0 0-4.2-.2-7.9-.3v-.1h-4.2v.1c-3.6.1-7.9.3-7.9.3-4.5.4-6.9 2.5-10.2 6.4 0 0-2 2.7-4.5 5.5-.5-.4-1.3-.7-2.5-.8-1.5-.1 0 0-3.3-.2s-3.1 1.7-3.2 2.6c-.1.9-.9 3.1 2.3 3.3.8 0 1.4.1 2 .1-2.2 2.3-2.9 4.2-3.1 8.6-.1 3.4-.1 4.1-.1 6.8" fill="none" stroke="#08ab8a" stroke-width="3" stroke-linecap="round" stroke-linejoin="round" stroke-miterlimit="10"/><path d="M19.4 37.5c2.5 1.5 7 1.3 7 1.3h19" fill="none" stroke="#08ab8a" stroke-width="3" stroke-linecap="round" stroke-linejoin="round" stroke-miterlimit="10"/><path d="M68.2 37.5c-2.5 1.5-7 1.3-7 1.3h-19" fill="none" stroke="#08ab8a" stroke-width="3" stroke-linecap="round" stroke-linejoin="round" stroke-miterlimit="10"/><path d="M29.1 53.5H18.8c-1.1 0-2.1-.9-2.1-2.1V49c0-1.1.9-2.1 2.1-2.1h9.1c1.6 0 2.5 1 2.8 2.1.3.7.5 1.2.5 1.2.7 2.1-.2 3.3-2.1 3.3zm30.2 0h10.3c1.1 0 2.1-.9 2.1-2.1V49c0-1.1-.9-2.1-2.1-2.1h-9.1c-1.6 0-2.5 1-2.8 2.1-.3.7-.5 1.2-.5 1.2-.7 2.1.2 3.3 2.1 3.3z" fill="none" stroke="#08ab8a" stroke-width="3" stroke-miterlimit="10"/><path fill="none" stroke="#08ab8a" stroke-width="3" stroke-linecap="round" stroke-linejoin="round" stroke-miterlimit="10" d="M53.6 47H34.7m16.9 5.8H36.7"/></symbol><symbol id="exterior-max" viewBox="0 0 90 101.2"><path d="M4.5 79.2l36 20.8c2.8 1.6 6.2 1.6 9 0l36-20.8c2.8-1.6 4.5-4.6 4.5-7.8V29.8c0-3.2-1.7-6.2-4.5-7.8l-36-20.8c-2.8-1.6-6.2-1.6-9 0L4.5 22C1.7 23.6 0 26.6 0 29.8v41.6c0 3.2 1.7 6.2 4.5 7.8z" opacity=".15" fill="#08ab8a"/><g fill="none" stroke="#08ab8a" stroke-width="3" stroke-miterlimit="10"><path d="M77.5 66.8c0-2.7.1-10.1-.1-13.5-.2-4.5-.9-6.3-3.1-8.6.6 0 1.3-.1 2.2-.1 3.1-.1 2.4-2.3 2.3-3.3-.1-1 0-2.8-3.2-2.6-3.3.2-1.8.1-3.3.2-1.3.1-2.4.3-2.9.8-2.5-2.9-4.4-5.5-4.4-5.5-3.3-3.9-5.6-6.1-10.2-6.4 0 0-4.2-.2-7.9-.3v-.1h-4.2v.1c-3.6.1-7.9.3-7.9.3-4.5.4-6.9 2.5-10.2 6.4 0 0-2 2.7-4.5 5.5-.5-.4-1.3-.7-2.5-.8-1.5-.1 0 0-3.3-.2s-3.1 1.7-3.2 2.6c-.1.9-.9 3.1 2.3 3.3.8 0 1.4.1 2 .1-2.2 2.3-2.9 4.2-3.1 8.6-.1 3.4-.1 10.7-.1 13.5" stroke-linecap="round" stroke-linejoin="round"/><path d="M20.2 39.6c2.5 1.5 7 1.3 7 1.3h19" stroke-linecap="round" stroke-linejoin="round"/><path d="M69 39.6c-2.5 1.5-7 1.3-7 1.3H43" stroke-linecap="round" stroke-linejoin="round"/><path d="M29.9 55.6H19.6c-1.1 0-2.1-.9-2.1-2.1v-2.4c0-1.1.9-2.1 2.1-2.1h9.1c1.6 0 2.5 1 2.8 2.1.3.7.5 1.2.5 1.2.7 2.1-.2 3.3-2.1 3.3zm30.2 0h10.3c1.1 0 2.1-.9 2.1-2.1v-2.4c0-1.1-.9-2.1-2.1-2.1h-9.1c-1.6 0-2.5 1-2.8 2.1-.3.7-.5 1.2-.5 1.2-.7 2.1.2 3.3 2.1 3.3z"/><path d="M51.9 55.6H38.5c-1.4 0-2.5.9-2.9 2.2l-2.4 8.8h24l-2.4-8.8c-.3-1.3-1.5-2.2-2.9-2.2zm-3.4-34H41c-1.8 0-3.5 1-4 2.5l-1.9 3.2h19.3l-1.9-3.2c-.5-1.5-2.1-2.5-4-2.5zM23.8 49.1l1.5 6.5m41.4-6.5l-1.6 6.5M29 60.8h-6c-2.5 0-2.9.1-4.6 1.2-1.5 1.1-1.7 4.5-1.7 4.5h10.8l1.5-5.7zm31.6 0h6c2.5 0 2.9.1 4.6 1.2 1.5 1.1 2.1 4.5 2.1 4.5H62.2l-1.6-5.7z" stroke-linecap="round" stroke-linejoin="round"/></g><path fill="#08ab8a" d="M29.9 77.3l1.8 3.7 4.1.5-3 2.9.7 4.1-3.6-1.9-3.7 1.9.7-4.1-2.9-2.9 4-.5zm13.8 0l1.9 3.7 4 .5-2.9 2.9.7 4.1-3.7-1.9-3.6 1.9.7-4.1-3-2.9 4.1-.5zm13.9 0l1.8 3.7 4.1.5-3 2.9.7 4.1-3.6-1.9-3.7 1.9.7-4.1-2.9-2.9 4.1-.5z"/></symbol><symbol id="exterior-optim" viewBox="0 0 90 101.2"><path fill="#08ab8a" d="M44.5 76.2l1.9 3.7 4 .6-2.9 2.8.7 4.1-3.7-1.9-3.6 1.9.7-4.1-3-2.8 4.1-.6z"/><path d="M4.5 79.2l36 20.8c2.8 1.6 6.2 1.6 9 0l36-20.8c2.8-1.6 4.5-4.6 4.5-7.8V29.8c0-3.2-1.7-6.2-4.5-7.8l-36-20.8c-2.8-1.6-6.2-1.6-9 0L4.5 22C1.7 23.6 0 26.6 0 29.8v41.6c0 3.2 1.7 6.2 4.5 7.8z" opacity=".15" fill="#08ab8a"/><path d="M53.9 47.8H35m16.9 5.7H37M53.7 60.5h-15m21.4 5.1l-1.9-2.8c-.6-1.3-2.2-2.2-4-2.2H34.7c-1.8 0-3.5.9-4 2.2l-1.9 2.8" fill="none" stroke="#08ab8a" stroke-width="3" stroke-linecap="round" stroke-linejoin="round" stroke-miterlimit="10"/><g fill="none" stroke="#08ab8a" stroke-width="3" stroke-linecap="round" stroke-linejoin="round" stroke-miterlimit="10"><circle cx="20.4" cy="63.3" r="3.1"/><circle cx="68.7" cy="63.3" r="3.1"/></g><path d="M77 59c0-2.7.1-3.4-.1-6.8-.2-4.5-.9-6.3-3.1-8.6.6 0 1.3-.1 2.2-.1 3.1-.1 2.4-2.3 2.3-3.3-.1-1 0-2.8-3.2-2.6-3.3.2-1.8.1-3.3.2-1.3.1-2.4.3-2.9.8-2.5-2.9-4.4-5.5-4.4-5.5-3.3-3.9-5.6-6.1-10.2-6.4 0 0-4.2-.2-7.9-.3v-.1h-4.2v.1c-3.6.1-7.9.3-7.9.3-4.5.4-6.9 2.5-10.2 6.4 0 0-2 2.7-4.5 5.5-.5-.4-1.3-.7-2.5-.8-1.5-.1 0 0-3.3-.2s-3.1 1.7-3.2 2.6c-.1.9-.9 3.1 2.3 3.3.8 0 1.4.1 2 .1-2.2 2.3-2.9 4.2-3.1 8.6-.1 3.4-.1 4.1-.1 6.8" fill="none" stroke="#08ab8a" stroke-width="3" stroke-linecap="round" stroke-linejoin="round" stroke-miterlimit="10"/><path d="M19.8 38.5c2.5 1.5 7 1.3 7 1.3h19" fill="none" stroke="#08ab8a" stroke-width="3" stroke-linecap="round" stroke-linejoin="round" stroke-miterlimit="10"/><path d="M68.5 38.5c-2.5 1.5-7 1.3-7 1.3h-19" fill="none" stroke="#08ab8a" stroke-width="3" stroke-linecap="round" stroke-linejoin="round" stroke-miterlimit="10"/><path d="M29.4 54.5H19.1c-1.1 0-2.1-.9-2.1-2.1V50c0-1.1.9-2.1 2.1-2.1h9.1c1.6 0 2.5 1 2.8 2.1.3.7.5 1.2.5 1.2.7 2.1-.2 3.3-2.1 3.3zm30.2 0h10.3c1.1 0 2.1-.9 2.1-2.1V50c0-1.1-.9-2.1-2.1-2.1h-9.1c-1.6 0-2.5 1-2.8 2.1-.3.7-.5 1.2-.5 1.2-.7 2.1.2 3.3 2.1 3.3z" fill="none" stroke="#08ab8a" stroke-width="3" stroke-miterlimit="10"/><path fill="none" stroke="#08ab8a" stroke-width="3" stroke-linecap="round" stroke-linejoin="round" stroke-miterlimit="10" d="M22.9 48l.6 2.6M65.8 48l-.6 2.4"/></symbol><symbol id="exterior-sport" viewBox="0 0 90 101.2"><path fill="#08ab8a" d="M46.1 74.3l2.5 5.1 5.6.8-4.1 3.9 1 5.6-5-2.6-5 2.6.9-7-4-2.5 5.6-.8z"/><path d="M78.4 67.2c0-2.7.1-9.4-.1-12.7-.2-4.5-.9-6.3-3.1-8.6.6 0 1.3-.1 2.2-.1 3.1-.1 2.4-2.3 2.3-3.3-.1-1 0-2.8-3.2-2.6-3.3.2-1.8.1-3.3.2-1.3.1-2.4.3-2.9.8-2.5-2.9-4.4-5.5-4.4-5.5-3.3-3.9-5.6-6.1-10.2-6.4 0 0-4.2-.2-7.9-.3v-.1h-4.2v.1c-3.6.1-7.9.3-7.9.3-4.5.4-6.9 2.5-10.2 6.4 0 0-2 2.7-4.5 5.5-.5-.4-1.3-.7-2.5-.8-1.5-.1 0 0-3.3-.2s-3.1 1.7-3.2 2.6c-.1.9-.9 3.1 2.3 3.3.8 0 1.4.1 2 .1-2.2 2.3-2.9 4.2-3.1 8.6-.1 3.4-.1 10-.1 12.7" fill="none" stroke="#08ab8a" stroke-width="3" stroke-linecap="round" stroke-linejoin="round" stroke-miterlimit="10"/><path d="M21.1 40.7c2.5 1.5 7 1.3 7 1.3h19" fill="none" stroke="#08ab8a" stroke-width="3" stroke-linecap="round" stroke-linejoin="round" stroke-miterlimit="10"/><path d="M69.9 40.7c-2.5 1.5-7 1.3-7 1.3h-19" fill="none" stroke="#08ab8a" stroke-width="3" stroke-linecap="round" stroke-linejoin="round" stroke-miterlimit="10"/><path d="M3.5 79.2l37 20.8c2.8 1.6 6.2 1.6 9 0l36-20.8c2.8-1.6 4.5-4.6 4.5-7.8V29.8c0-3.2-1.7-6.2-4.5-7.8l-36-20.8c-2.8-1.6-6.2-1.6-9 0L4.6 22C-.8 25.1.1 25 .1 29.8v41.6c-.1 3.2.7 6.2 3.4 7.8z" opacity=".15" fill="#08ab8a"/><path d="M30.8 56.8H20.5c-1.1 0-2.1-.9-2.1-2.1v-2.4c0-1.1.9-2.1 2.1-2.1h9.1c1.6 0 2.5 1 2.8 2.1.3.7.5 1.2.5 1.2.7 2-.3 3.3-2.1 3.3zm30.1 0h10.3c1.1 0 2.1-.9 2.1-2.1v-2.4c0-1.1-.9-2.1-2.1-2.1h-9.1c-1.6 0-2.5 1-2.8 2.1-.3.7-.5 1.2-.5 1.2-.7 2 .3 3.3 2.1 3.3z" fill="none" stroke="#08ab8a" stroke-width="3" stroke-miterlimit="10"/><path d="M52.8 56.8H39.4c-1.4 0-2.5.9-2.9 2.2l-2.4 8.8h24L55.7 59c-.4-1.3-1.6-2.2-2.9-2.2zM30.2 62h-6c-2.5 0-2.9.1-4.6 1.2-1.5 1.1-1.7 4.5-1.7 4.5h10.8l1.5-5.7zm31.6 0h6c2.5 0 2.9.1 4.6 1.2 1.5 1.1 2.1 4.5 2.1 4.5H63.4L61.8 62zm-33.4-5.2c-1.8 0-3.3-1.5-3.3-3.3s1.5-3.3 3.3-3.3m34.3 0c1.8 0 3.3 1.5 3.3 3.3s-1.5 3.3-3.3 3.3M24.5 24.9h11.3c1.2 0 2.4-.3 3.5-.9 0 0 1.8-1.3 3.1-1.3h7.1c1.2 0 3.1 1.3 3.1 1.3 1 .6 3.2.9 4.4.9h10.2m-43-1.9l-1.5 3.8M67.5 23l1.6 3.8" fill="none" stroke="#08ab8a" stroke-width="3" stroke-linecap="round" stroke-linejoin="round" stroke-miterlimit="10"/></symbol><symbol id="protect-max" viewBox="0 0 90 101.2"><path d="M4.5 79.2l36 20.8c2.8 1.6 6.2 1.6 9 0l36-20.8c2.8-1.6 4.5-4.6 4.5-7.8V29.8c0-3.2-1.7-6.2-4.5-7.8l-36-20.8c-2.8-1.6-6.2-1.6-9 0L4.5 22C1.7 23.6 0 26.6 0 29.8v41.6c0 3.2 1.7 6.2 4.5 7.8z" opacity=".15" fill="#08ab8a"/><path d="M83.6 49.9c-1.1-1.9-3.1-3.7-6.9-4.9-4-1.3-10.6-2.9-13-3.5-.5-.4-.9-.7-1.3-1-3.2-2.5-5.9-4.6-8.6-5.8-1.3-.6-5.1-1.9-12.6-2.2-1.7-.1-3.2-.1-4.4-.1-4.8 0-8.8.4-12.4 2.6l-.6.4c-2 1.2-4.4 2.7-7.2 4.7-.7.1-1.2.1-1.8.2-.4 0-.8.1-1.3.1-3.9.4-7.4 2.7-8.3 5.8" fill="none" stroke="#08ab8a" stroke-width="3" stroke-linecap="round" stroke-miterlimit="10"/><path d="M73.9 50.2c-4.5-1.5-13.1-3.4-13.1-3.4-3.8-2.9-6.8-5.5-9.4-6.6-1.1-.5-4.5-1.5-10.8-1.8-7.4-.3-11 0-13.9 1.8-2 1.2-4.5 2.7-7.4 4.7-.6.4-1 .6-1.7.7-1.3.2-2.1.2-3.3.3-2.6.3-3.9 1.3-4.4 4.8-.3 1.9-.3 2.8-.5 5.2-.2 3.5.4 4.6 1.6 5.2 1.6.8 4.4 1 5.1 1-.2-.6-.4-1.3-.4-2-.1-3.6 2.7-6.7 6.4-6.8 3.6-.1 6.7 2.7 6.8 6.4 0 .9-.1 1.7-.4 2.4h29.3c-.2-.6-.4-1.3-.4-2-.1-3.6 2.7-6.7 6.4-6.8 3.6-.1 6.7 2.7 6.8 6.4 0 .9-.1 1.7-.4 2.4h3.6c3 0 3.4-1.5 3.8-3 .4-1.5.9-4.5.9-4.5s.8-2.6-4.6-4.4z" fill="none" stroke="#08ab8a" stroke-width="3" stroke-linecap="round" stroke-miterlimit="10"/><circle cx="22.4" cy="60.1" r="6.6" fill="none" stroke="#08ab8a" stroke-width="3" stroke-linecap="round" stroke-miterlimit="10"/><circle cx="64" cy="60.1" r="6.6" fill="none" stroke="#08ab8a" stroke-width="3" stroke-linecap="round" stroke-miterlimit="10"/><path d="M69.1 22c.1.5.3.9.6 1.4s.5.9.7 1.3c.3.4.5.8.8 1.1s.5.8.8 1.1c.2.4.5.7.7 1.1.2.4.4.8.5 1.2.1.4.2.9.2 1.3 0 .6-.1 1.1-.4 1.6-.3.5-.6.9-1 1.2-.4.3-.9.6-1.3.8-.5.2-1 .3-1.5.3-.7 0-1.4-.2-2-.5-.6-.3-1.1-.7-1.6-1.3-.4-.6-.6-1.3-.6-2 0-.6.1-1.2.3-1.8.2-.6.5-1.1.9-1.7s.7-1 1.1-1.5.7-1.1 1.1-1.7c.2-.7.5-1.3.7-1.9zm-.8 10.4" fill="none" stroke="#08ab8a" stroke-width="3" stroke-linecap="round" stroke-miterlimit="10"/><path fill="#08ab8a" d="M28.8 74.5l1.9 3.7 4 .6-2.9 2.9.7 4-3.7-1.9-3.6 1.9.7-4-3-2.9 4.1-.6zm13.8 0l1.9 3.7 4.1.6-3 2.9.7 4-3.7-1.9-3.6 1.9.7-4-3-2.9 4.1-.6zm14 0l1.9 3.7 4.1.6-3 2.9.7 4-3.7-1.9-3.6 1.9.7-4-3-2.9 4.1-.6z"/></symbol><symbol id="protect-min" viewBox="0 0 90 101.2"><path d="M4.5 79.2l36 20.8c2.8 1.6 6.2 1.6 9 0l36-20.8c2.8-1.6 4.5-4.6 4.5-7.8V29.8c0-3.2-1.7-6.2-4.5-7.8l-36-20.8c-2.8-1.6-6.2-1.6-9 0L4.5 22C1.7 23.6 0 26.6 0 29.8v41.6c0 3.2 1.7 6.2 4.5 7.8z" opacity=".15" fill="#08ab8a"/><path d="M83.6 49.9c-1.1-1.9-3.1-3.7-6.9-4.9-4-1.3-10.6-2.9-13-3.5-.5-.4-.9-.7-1.3-1-3.2-2.5-5.9-4.6-8.6-5.8-1.3-.6-5.1-1.9-12.6-2.2-1.7-.1-3.2-.1-4.4-.1-4.8 0-8.8.4-12.4 2.6l-.6.4c-2 1.2-4.4 2.7-7.2 4.7-.7.1-1.2.1-1.8.2-.4 0-.8.1-1.3.1-3.9.4-7.4 2.7-8.3 5.8" fill="none" stroke="#08ab8a" stroke-width="3" stroke-linecap="round" stroke-miterlimit="10"/><path d="M73.9 50.2c-4.5-1.5-13.1-3.4-13.1-3.4-3.8-2.9-6.8-5.5-9.4-6.6-1.1-.5-4.5-1.5-10.8-1.8-7.4-.3-11 0-13.9 1.8-2 1.2-4.5 2.7-7.4 4.7-.6.4-1 .6-1.7.7-1.3.2-2.1.2-3.3.3-2.6.3-3.9 1.3-4.4 4.8-.3 1.9-.3 2.8-.5 5.2-.2 3.5.4 4.6 1.6 5.2 1.6.8 4.4 1 5.1 1-.2-.6-.4-1.3-.4-2-.1-3.6 2.7-6.7 6.4-6.8 3.6-.1 6.7 2.7 6.8 6.4 0 .9-.1 1.7-.4 2.4h29.3c-.2-.6-.4-1.3-.4-2-.1-3.6 2.7-6.7 6.4-6.8 3.6-.1 6.7 2.7 6.8 6.4 0 .9-.1 1.7-.4 2.4h3.6c3 0 3.4-1.5 3.8-3 .4-1.5.9-4.5.9-4.5s.8-2.6-4.6-4.4z" fill="none" stroke="#08ab8a" stroke-width="3" stroke-linecap="round" stroke-miterlimit="10"/><circle cx="22.4" cy="60.1" r="6.6" fill="none" stroke="#08ab8a" stroke-width="3" stroke-linecap="round" stroke-miterlimit="10"/><circle cx="64" cy="60.1" r="6.6" fill="none" stroke="#08ab8a" stroke-width="3" stroke-linecap="round" stroke-miterlimit="10"/><path d="M69.1 22c.1.5.3.9.6 1.4.2.5.5.9.7 1.3.3.4.5.8.8 1.1.3.4.5.8.8 1.1.2.4.5.7.7 1.1.2.4.4.8.5 1.2s.2.9.2 1.3c0 .6-.1 1.1-.4 1.6-.3.5-.6.9-1 1.2-.4.3-.9.6-1.4.8-.5.2-1 .3-1.5.3-.7 0-1.4-.2-2-.5-.6-.3-1.1-.7-1.6-1.3s-.6-1.3-.6-2c0-.6.1-1.2.3-1.8.2-.6.5-1.1.9-1.7s.7-1 1.1-1.5c.4-.5.7-1.1 1.1-1.7.3-.7.6-1.3.8-1.9zm-.8 10.4" fill="none" stroke="#08ab8a" stroke-width="3" stroke-linecap="round" stroke-miterlimit="10"/></symbol><symbol id="protect-optim" viewBox="0 0 90 101.2"><path d="M4.5 79.2l36 20.8c2.8 1.6 6.2 1.6 9 0l36-20.8c2.8-1.6 4.5-4.6 4.5-7.8V29.8c0-3.2-1.7-6.2-4.5-7.8l-36-20.8c-2.8-1.6-6.2-1.6-9 0L4.5 22C1.7 23.6 0 26.6 0 29.8v41.6c0 3.2 1.7 6.2 4.5 7.8z" opacity=".15" fill="#08ab8a"/><path d="M83.6 49.9c-1.1-1.9-3.1-3.7-6.9-4.9-4-1.3-10.6-2.9-13-3.5-.5-.4-.9-.7-1.3-1-3.2-2.5-5.9-4.6-8.6-5.8-1.3-.6-5.1-1.9-12.6-2.2-1.7-.1-3.2-.1-4.4-.1-4.8 0-8.8.4-12.4 2.6l-.6.4c-2 1.2-4.4 2.7-7.2 4.7-.7.1-1.2.1-1.8.2-.4 0-.8.1-1.3.1-3.9.4-7.4 2.7-8.3 5.8" fill="none" stroke="#08ab8a" stroke-width="3" stroke-linecap="round" stroke-miterlimit="10"/><path d="M73.9 50.2c-4.5-1.5-13.1-3.4-13.1-3.4-3.8-2.9-6.8-5.5-9.4-6.6-1.1-.5-4.5-1.5-10.8-1.8-7.4-.3-11 0-13.9 1.8-2 1.2-4.5 2.7-7.4 4.7-.6.4-1 .6-1.7.7-1.3.2-2.1.2-3.3.3-2.6.3-3.9 1.3-4.4 4.8-.3 1.9-.3 2.8-.5 5.2-.2 3.5.4 4.6 1.6 5.2 1.6.8 4.4 1 5.1 1-.2-.6-.4-1.3-.4-2-.1-3.6 2.7-6.7 6.4-6.8 3.6-.1 6.7 2.7 6.8 6.4 0 .9-.1 1.7-.4 2.4h29.3c-.2-.6-.4-1.3-.4-2-.1-3.6 2.7-6.7 6.4-6.8 3.6-.1 6.7 2.7 6.8 6.4 0 .9-.1 1.7-.4 2.4h3.6c3 0 3.4-1.5 3.8-3 .4-1.5.9-4.5.9-4.5s.8-2.6-4.6-4.4z" fill="none" stroke="#08ab8a" stroke-width="3" stroke-linecap="round" stroke-miterlimit="10"/><circle cx="22.4" cy="60.1" r="6.6" fill="none" stroke="#08ab8a" stroke-width="3" stroke-linecap="round" stroke-miterlimit="10"/><circle cx="64" cy="60.1" r="6.6" fill="none" stroke="#08ab8a" stroke-width="3" stroke-linecap="round" stroke-miterlimit="10"/><path d="M69.1 22c.1.5.3.9.6 1.4s.5.9.7 1.3c.3.4.5.8.8 1.1s.5.8.8 1.1c.2.4.5.7.7 1.1.2.4.4.8.5 1.2.1.4.2.9.2 1.3 0 .6-.1 1.1-.4 1.6-.3.5-.6.9-1 1.2-.4.3-.9.6-1.3.8-.5.2-1 .3-1.5.3-.7 0-1.4-.2-2-.5-.6-.3-1.1-.7-1.6-1.3-.4-.6-.6-1.3-.6-2 0-.6.1-1.2.3-1.8.2-.6.5-1.1.9-1.7s.7-1 1.1-1.5.7-1.1 1.1-1.7c.2-.7.5-1.3.7-1.9zm-.8 10.4" fill="none" stroke="#08ab8a" stroke-width="3" stroke-linecap="round" stroke-miterlimit="10"/><path fill="#08ab8a" d="M45 74.5l1.8 3.7 4.1.6-2.9 2.9.7 4-3.7-1.9-3.7 1.9.7-4-2.9-2.9 4.1-.6z"/></symbol><symbol id="sale" viewBox="0 0 16 16"><title>&#x420;&#x435;&#x441;&#x443;&#x440;&#x441; 8</title><g data-name="&#x421;&#x43B;&#x43E;&#x439; 2"><path d="M6.29 0L1.4.54a1 1 0 0 0-.86.86L0 6.29a2.45 2.45 0 0 0 .72 2L3 10.5l5 5a1.49 1.49 0 0 0 2.1.09l2.76-2.76 2.76-2.76a1.49 1.49 0 0 0-.1-2.07l-5-5L8.26.74A2.45 2.45 0 0 0 6.29 0zm-1.1 5.19a1.67 1.67 0 1 1 0-2.36 1.67 1.67 0 0 1 0 2.36z" fill="#ff6262" data-name="checkout 1000px 2"/></g></symbol><symbol id="steal-max" viewBox="0 0 90 101.2"><path d="M4.5 79.2l36 20.8c2.8 1.6 6.2 1.6 9 0l36-20.8c2.8-1.6 4.5-4.6 4.5-7.8V29.8c0-3.2-1.7-6.2-4.5-7.8l-36-20.8c-2.8-1.6-6.2-1.6-9 0L4.5 22C1.7 23.6 0 26.6 0 29.8v41.6c0 3.2 1.7 6.2 4.5 7.8z" opacity=".15" fill="#08ab8a"/><path fill="#08ab8a" d="M28.6 73.1l1.8 3.7 4.1.6-3 2.8.7 4.1-3.6-1.9-3.7 1.9.7-4.1-2.9-2.8 4.1-.6zm13.8 0l1.8 3.7 4.1.6-2.9 2.8.6 4.1-3.6-1.9-3.7 1.9.7-4.1-2.9-2.8 4.1-.6zm14 0l1.8 3.7 4.1.6-2.9 2.8.6 4.1-3.6-1.9-3.7 1.9.7-4.1-2.9-2.8 4.1-.6z"/><path d="M31.9 53.3h-9c-1 0-1.8-.8-1.8-1.8v-2.1c0-1 .8-1.8 1.8-1.8h7.9c1.4 0 2.1.9 2.5 1.8.2.6.4 1 .4 1 .6 1.9-.2 2.9-1.8 2.9z" fill="none" stroke="#08ab8a" stroke-width="3" stroke-miterlimit="10"/><path fill="none" stroke="#08ab8a" stroke-width="3" stroke-linecap="round" stroke-linejoin="round" stroke-miterlimit="10" d="M20.6 62.8h13m23.1 0h8.9"/><path d="M57.1 33.5v-7.7c0-4.1 3.3-7.4 7.4-7.4 4.1 0 7.4 3.3 7.4 7.4v7.7" fill="none" stroke="#08ab8a" stroke-width="3" stroke-miterlimit="10"/><path fill="none" stroke="#08ab8a" stroke-width="3" stroke-linecap="round" stroke-linejoin="round" stroke-miterlimit="10" d="M48.6 47.6H36.7m13.9 4.8H40.2m24.1 3.8c-7 0-12.7-5.7-12.7-12.7 0-4.2 2-7.9 5.1-10.2-1.7-1.7-3.4-2.6-5.9-2.8 0 0-3.4-.1-6.3-.2v-.1h-3.4v.1c-2.9.1-6.3.2-6.3.2-3.7.3-5.5 2.1-8.2 5.4 0 0-1.4 1.7-3.3 4-.3.3-1.4 0-2.3-.1-1.2-.1 0 0-2.6-.2-2.6-.1-2.5 1.4-2.6 2.2-.1.8-.7 2.6 1.8 2.7.6 0 1.2.1 1.6.1-1.8 1.9-2.4 3.5-2.5 7.2-.1 2.8 0 3.5 0 5.7 0 2.3.3 5.3 3.4 5.3v3.8c0 .7.3 1.6 2 1.6h5.5c1.5 0 2-.9 2-1.6v-3.8h26.7v3.8c0 .7.4 1.6 2 1.6h5.5c1.7 0 2-.9 2-1.6v-3.8c3.1 0 3.4-3 3.4-5.3v-2.3c-1.7.7-3.3 1-4.9 1z"/><path d="M64.3 40.6v.3c-.1-.1-.1-.2 0-.3m0-3.1c-1.7 0-3 1.5-3 3.4 0 1.2.6 2.3 1.5 2.9v4.8h3v-4.7c.9-.6 1.6-1.7 1.6-2.9-.1-2-1.5-3.5-3.1-3.5z" fill="#08ab8a"/><circle cx="64.3" cy="43.5" r="12.7" fill="none" stroke="#08ab8a" stroke-width="3" stroke-linecap="round" stroke-linejoin="round" stroke-miterlimit="10"/></symbol><symbol id="steal-min" viewBox="0 0 90 101.2"><path d="M32.7 54.7h-9c-1 0-1.8-.8-1.8-1.8v-2.1c0-1 .8-1.8 1.8-1.8h7.9c1.4 0 2.1.9 2.5 1.8.2.6.4 1 .4 1 .6 1.8-.2 2.9-1.8 2.9z" fill="none" stroke="#08ab8a" stroke-width="3" stroke-miterlimit="10"/><path d="M4.5 79.2l36 20.8c2.8 1.6 6.2 1.6 9 0l36-20.8c2.8-1.6 4.5-4.6 4.5-7.8V29.8c0-3.2-1.7-6.2-4.5-7.8l-36-20.8c-2.8-1.6-6.2-1.6-9 0L4.5 22C1.7 23.6 0 26.6 0 29.8v41.6c0 3.2 1.7 6.2 4.5 7.8z" opacity=".15" fill="#08ab8a"/><path fill="none" stroke="#08ab8a" stroke-width="3" stroke-linecap="round" stroke-linejoin="round" stroke-miterlimit="10" d="M21.4 64.2h13m23.2 0h8.8"/><path d="M57.9 34.9v-7.7c0-4.1 3.3-7.4 7.4-7.4 4.1 0 7.4 3.3 7.4 7.4v7.7" fill="none" stroke="#08ab8a" stroke-width="3" stroke-miterlimit="10"/><path fill="none" stroke="#08ab8a" stroke-width="3" stroke-linecap="round" stroke-linejoin="round" stroke-miterlimit="10" d="M49.4 49H37.5m13.9 4.7H41m24.1 3.9c-7 0-12.7-5.7-12.7-12.7 0-4.2 2-7.9 5.1-10.2-1.7-1.7-3.4-2.6-5.9-2.8 0 0-3.4-.1-6.3-.2v-.1h-3.4v.1c-2.9.1-6.3.2-6.3.2-3.7.3-5.5 2.1-8.2 5.4 0 0-1.4 1.7-3.3 4-.3.3-1.4 0-2.3-.1-1.2-.1 0 0-2.6-.2-2.6-.1-2.5 1.4-2.6 2.2-.1.8-.7 2.6 1.8 2.7.6 0 1.2.1 1.6.1-1.8 1.9-2.4 3.5-2.5 7.2-.1 2.8 0 3.5 0 5.7 0 2.3.3 5.3 3.4 5.3V68c0 .7.3 1.6 2 1.6h5.5c1.5 0 2-.9 2-1.6v-3.8h26.7V68c0 .7.5 1.6 2 1.6h5.5c1.7 0 2-.9 2-1.6v-3.8c3.1 0 3.4-3 3.4-5.3v-2.3c-1.6.6-3.2 1-4.9 1z"/><path d="M65.1 38.9c-1.7 0-3 1.5-3 3.4 0 1.2.6 2.3 1.5 2.9V50h3v-4.7c.9-.6 1.6-1.7 1.6-2.9-.1-2-1.4-3.5-3.1-3.5z" fill="#08ab8a"/><circle cx="65.1" cy="44.9" r="12.7" fill="none" stroke="#08ab8a" stroke-width="3" stroke-linecap="round" stroke-linejoin="round" stroke-miterlimit="10"/></symbol><symbol id="steal-optim" viewBox="0 0 90 101.2"><path fill="#08ab8a" d="M45.9 73.3l1.8 3.7 4.1.6-2.9 2.9.7 4.1-3.7-1.9-3.6 1.9.7-4.1-3-2.9 4.1-.6z"/><path d="M4.5 79.2l36 20.8c2.8 1.6 6.2 1.6 9 0l36-20.8c2.8-1.6 4.5-4.6 4.5-7.8V29.8c0-3.2-1.7-6.2-4.5-7.8l-36-20.8c-2.8-1.6-6.2-1.6-9 0L4.5 22C1.7 23.6 0 26.6 0 29.8v41.6c0 3.2 1.7 6.2 4.5 7.8z" opacity=".15" fill="#08ab8a"/><path d="M33 53.5h-9c-1 0-1.8-.8-1.8-1.8v-2.1c0-1 .8-1.8 1.8-1.8h7.9c1.4 0 2.1.9 2.5 1.8.2.6.4 1 .4 1 .6 1.9-.2 2.9-1.8 2.9z" fill="none" stroke="#08ab8a" stroke-width="3" stroke-miterlimit="10"/><path fill="none" stroke="#08ab8a" stroke-width="3" stroke-linecap="round" stroke-linejoin="round" stroke-miterlimit="10" d="M21.8 63.1h12.9m23.2 0h8.8"/><path d="M58.3 33.8v-7.7c0-4.1 3.3-7.4 7.4-7.4 4.1 0 7.4 3.3 7.4 7.4v7.7" fill="none" stroke="#08ab8a" stroke-width="3" stroke-miterlimit="10"/><path fill="none" stroke="#08ab8a" stroke-width="3" stroke-linecap="round" stroke-linejoin="round" stroke-miterlimit="10" d="M49.7 47.9H37.8m13.9 4.7H41.3m24.1 3.8c-7 0-12.7-5.7-12.7-12.7 0-4.2 2-7.9 5.1-10.2-1.7-1.7-3.4-2.6-5.9-2.8 0 0-3.4-.1-6.3-.2v-.1h-3.4v.1c-2.9.1-6.3.2-6.3.2-3.7.3-5.5 2.1-8.2 5.4 0 0-1.4 1.7-3.3 4-.3.3-1.4 0-2.3-.1-1.2-.1 0 0-2.6-.1-2.6-.2-2.5 1.4-2.6 2.2-.1.8-.7 2.6 1.8 2.7.6 0 1.2.1 1.6.1-1.8 1.9-2.4 3.5-2.5 7.2-.1 2.8 0 3.5 0 5.7 0 2.3.3 5.3 3.4 5.3v3.8c0 .7.3 1.6 2 1.6h5.5c1.5 0 2-.9 2-1.6v-3.8h26.7v3.8c0 .7.4 1.6 2 1.6h5.5c1.7 0 2-.9 2-1.6v-3.8c3.1 0 3.4-3 3.4-5.3v-2.3c-1.6.6-3.2.9-4.9.9z"/><path d="M65.4 37.8c-1.7 0-3 1.5-3 3.4 0 1.2.6 2.3 1.5 2.9v4.8h3v-4.7c.9-.6 1.6-1.7 1.6-2.9 0-2-1.4-3.5-3.1-3.5z" fill="#08ab8a"/><circle cx="65.4" cy="43.7" r="12.7" fill="none" stroke="#08ab8a" stroke-width="3" stroke-linecap="round" stroke-linejoin="round" stroke-miterlimit="10"/></symbol><symbol id="treatment" viewBox="0 0 90 101.2"><path d="M64.4 16.4c.1.5.3.9.6 1.4s.5.9.7 1.3c.3.4.5.8.8 1.1.3.4.5.8.8 1.1.2.4.5.7.7 1.1.2.4.4.8.5 1.2s.2.9.2 1.3c0 .6-.1 1.1-.4 1.6-.3.5-.6.9-1 1.2-.4.3-.9.6-1.3.8-.5.2-1 .3-1.5.3-.7 0-1.4-.2-2-.5-.6-.3-1.1-.7-1.6-1.3-.4-.6-.6-1.3-.6-2 0-.6.1-1.2.3-1.8.2-.6.5-1.1.9-1.7.3-.5.7-1 1.1-1.5.4-.5.7-1.1 1.1-1.7s.5-1.3.7-1.9zm-.7 10.5" fill="#c4e6de" stroke="#08ab8a" stroke-width="3" stroke-miterlimit="10"/><path d="M13.4 47.7c1.2-1.5 3.3-4.1 3.3-4.1l.2-.3c4-4.8 8-8.8 15.7-9.4h.3s.8 0 2.1-.1v-.2l6.8-.1h11.4v.3c1.3 0 2.2.1 2.2.1h.3c7.7.6 11.6 4.6 15.7 9.4l.3.4s2.1 2.5 3.3 4c.1 0-1.3-1.4-1.2-1.5" fill="none" stroke="#08ab8a" stroke-width="3" stroke-linecap="round" stroke-linejoin="round" stroke-miterlimit="10" stroke-dasharray="4,7"/><path d="M79.3 69.2c-.2-4.8-.9-6.8-3.4-9.3.6 0 1.4-.1 2.4-.1 3.4-.1 2.6-2.5 2.4-3.5-.1-1.1 0-3-3.5-2.8s-1.9.1-3.5.2c-1.4.1-2.5.3-3.1.8-2.7-3.1-4.8-5.9-4.8-5.9-3.6-4.2-6.1-6.6-11-6.9 0 0-4.6-.2-8.5-.3v-.1h-4.6v.1c-3.9.1-8.5.3-8.5.3-4.9.4-7.4 2.7-11 6.9 0 0-2.2 2.9-4.8 5.9-.5-.5-1.4-.7-2.7-.8-1.6-.1 0 0-3.5-.2S8 55.2 7.9 56.3c-.1 1-.9 3.4 2.4 3.5.8 0 1.6.1 2.1.1-2.4 2.5-3.2 4.5-3.4 9.3" fill="none" stroke="#08ab8a" stroke-width="3" stroke-linecap="round" stroke-linejoin="round" stroke-miterlimit="10"/><path d="M17.6 54.4c2.7 1.7 7.6 1.4 7.6 1.4h20.5" fill="none" stroke="#08ab8a" stroke-width="3" stroke-linecap="round" stroke-linejoin="round" stroke-miterlimit="10"/><path d="M70.2 54.4c-2.7 1.7-7.6 1.4-7.6 1.4H42.1" fill="none" stroke="#08ab8a" stroke-width="3" stroke-linecap="round" stroke-linejoin="round" stroke-miterlimit="10"/><path d="M4.5 79.2l36 20.8c2.8 1.6 6.2 1.6 9 0l36-20.8c2.8-1.6 4.5-4.6 4.5-7.8V29.8c0-3.2-1.7-6.2-4.5-7.8l-36-20.8c-2.8-1.6-6.2-1.6-9 0L4.5 22C1.7 23.6 0 26.6 0 29.8v41.6c0 3.2 1.7 6.2 4.5 7.8z" opacity=".15" fill="#08ab8a"/><path d="M28 71.8H16.9c-1.2 0-2.2-1-2.2-2.2V67c0-1.2 1-2.2 2.2-2.2h9.8c1.7 0 2.7 1.1 3.1 2.2.3.8.5 1.3.5 1.3.7 2.1-.3 3.5-2.3 3.5zm32.5 0h11.1c1.2 0 2.2-1 2.2-2.2V67c0-1.2-1-2.2-2.2-2.2h-9.8c-1.7 0-2.7 1.1-3.1 2.2-.3.8-.5 1.3-.5 1.3-.7 2.1.3 3.5 2.3 3.5z" fill="none" stroke="#08ab8a" stroke-width="3" stroke-miterlimit="10"/><path fill="none" stroke="#08ab8a" stroke-width="3" stroke-linecap="round" stroke-linejoin="round" stroke-miterlimit="10" d="M54.4 64.7H34"/></symbol></svg>