<svg xmlns="http://www.w3.org/2000/svg" viewBox="0 0 68.62 53.19"><title>logo</title><g data-name="Слой 2"><g data-name="Слой 1"><path d="M61.59 48.89a4.19 4.19 0 0 0 3.83-4.48 4.14 4.14 0 0 0-4.6-3.65 4.46 4.46 0 0 0-2.3 1l1.2.88a2.93 2.93 0 0 1 1.23-.48 2.74 2.74 0 0 1 3 2.42 2.78 2.78 0 0 1-2.54 3 2.74 2.74 0 0 1-3-2.42 2.88 2.88 0 0 1 .2-1.11l-1.19-.84a4 4 0 0 0 4.17 5.74" fill="#fff" fill-rule="evenodd"/><path d="M61.15 49a4.21 4.21 0 0 1-4.27-3.76 4.29 4.29 0 0 1 .44-2.14l.05-.11 1.36 1v.07a2.72 2.72 0 0 0-.19 1.06 2.61 2.61 0 0 0 2.65 2.33h.28a2.67 2.67 0 0 0 2.44-2.86 2.61 2.61 0 0 0-2.65-2.33H61a2.84 2.84 0 0 0-1.19.46h-.06l-1.37-1 .11-.09a4.58 4.58 0 0 1 2.36-1h.45a4.21 4.21 0 0 1 4.27 3.76A4.3 4.3 0 0 1 61.6 49h-.45m-3.69-5.7a3.84 3.84 0 0 0 3.69 5.49h.43a4.09 4.09 0 0 0 3.74-4.37 4 4 0 0 0-4.06-3.57h-.42a4.35 4.35 0 0 0-2.14.87l1 .75a2.94 2.94 0 0 1 1.24-.47h.3a2.82 2.82 0 0 1 2.86 2.52 2.88 2.88 0 0 1-2.63 3.08h-.3a2.82 2.82 0 0 1-2.86-2.53 2.79 2.79 0 0 1 .18-1.07z" fill="#fff"/><path d="M57.3 40.85l2.63 1.91c1.26.91.22 2.21-1 1.49l-2.76-1.94z" fill="#fff" fill-rule="evenodd"/><path d="M59.65 44.56a1.42 1.42 0 0 1-.73-.22l-2.85-2 1.21-1.63 2.71 2a1.16 1.16 0 0 1 .58 1.27.94.94 0 0 1-.92.62m-3.29-2.28L59 44.16a1.2 1.2 0 0 0 .62.19.72.72 0 0 0 .71-.47 1 1 0 0 0-.5-1L57.32 41z" fill="#fff"/><path d="M52 41.8l3-4.23a.47.47 0 0 1 .66-.11l1.14.79-3.61 4.94-1-.72a.48.48 0 0 1-.19-.67" fill="#fff" fill-rule="evenodd"/><path d="M53.23 43.33l-1.13-.78a.59.59 0 0 1-.14-.81l3-4.23a.58.58 0 0 1 .47-.24.57.57 0 0 1 .33.11l1.23.85zm2.17-5.86a.37.37 0 0 0-.3.16l-3 4.23a.38.38 0 0 0 .09.52l1 .66 3.48-4.77-1.05-.73a.36.36 0 0 0-.21-.07" fill="#fff"/><path d="M15.34 22.82c-1.81-.54-2.31-.54-5.07-1.18L11 21C2 15.17 7.76 10.24 3.55 5.22h.07c6.24 2 8.45-4.57 17.3 1.36l.15-1A15.88 15.88 0 0 1 24.23 10a10.76 10.76 0 0 0-5-1.8l1-.72c-2.77-2.16-8.08-1.66-11 .64l45 30.48L53 40.48 8.15 9.76a8.53 8.53 0 0 0 3.47 10.32l.32-1a13.57 13.57 0 0 0 3.41 3.73" fill="#fff" fill-rule="evenodd"/><path d="M53 40.62l-.09-.06L8.19 9.92a8.44 8.44 0 0 0 3.36 10l.34-1.07.11.15a13.54 13.54 0 0 0 3.38 3.7l.55.38-.64-.19a26.08 26.08 0 0 0-2.64-.65c-.6-.12-1.34-.28-2.43-.53h-.19l.74-.7c-5.29-3.46-5.4-6.62-5.51-9.67-.07-2.08-.14-4-1.82-6l-.15-.17h.33A7.76 7.76 0 0 0 6 5.5a12.37 12.37 0 0 0 3.81-.77A13.32 13.32 0 0 1 14 3.92a12.46 12.46 0 0 1 6.84 2.48l.15-1 .15.17A15.9 15.9 0 0 1 24.32 10l.16.33-.31-.2a10.69 10.69 0 0 0-4.94-1.79h-.27l1.14-.79a7.64 7.64 0 0 0-4.49-1.27 10.42 10.42 0 0 0-6.13 1.87l44.93 30.46zM8.1 9.6l.1.07 44.75 30.66 1.17-1.67-45-30.5.11-.09a10.56 10.56 0 0 1 6.37-2 7.74 7.74 0 0 1 4.74 1.4l.11.09-.94.65A10.51 10.51 0 0 1 24 9.76a15.37 15.37 0 0 0-2.83-3.93l-.17.93-.14-.09C18.29 4.94 16.1 4.13 14 4.13a13.16 13.16 0 0 0-4.06.8A12.73 12.73 0 0 1 6 5.71a7.91 7.91 0 0 1-2.22-.32c1.54 2 1.61 3.9 1.68 5.94.11 3 .21 6.14 5.53 9.58l.11.07-.65.61c1 .23 1.67.37 2.23.48.76.16 1.31.27 2.09.49A14.4 14.4 0 0 1 12 19.33l-.29.91-.11-.06A8.64 8.64 0 0 1 8 9.72z" fill="#fff"/><path d="M50.8 48a34.65 34.65 0 0 1 9.95-13.54l1.46 1.09A43.8 43.8 0 0 0 52.27 49l-1.47-1" fill="#fff" fill-rule="evenodd"/><path d="M52.31 49.21L50.67 48v-.08a34.91 34.91 0 0 1 10-13.58l.06-.05h.07l1.47 1.09.1.08-.09.09a43.87 43.87 0 0 0-9.93 13.51zm-1.38-1.28l1.3 1a44.09 44.09 0 0 1 9.82-13.37l-1.3-1a34.71 34.71 0 0 0-9.82 13.37" fill="#fff"/><path d="M9.2 41.2l-2.82 1.64c-1.48.88-.45 2.41.91 1.73l2.86-1.63z" fill="#fff" fill-rule="evenodd"/><path d="M6.63 44.84a1 1 0 0 1-1-.73 1.25 1.25 0 0 1 .74-1.37l2.91-1.69 1 1.92-2.94 1.69a1.6 1.6 0 0 1-.72.18m2.53-3.5l-2.72 1.59c-.51.31-.76.73-.65 1.13a.83.83 0 0 0 .84.57 1.38 1.38 0 0 0 .62-.16L10 42.9z" fill="#fff"/><path d="M66.15 15.78c-.28 2.25-4 4.34-5.83 5.14l1.07.48a14.23 14.23 0 0 1-6.91 1 22.5 22.5 0 0 0 4.94-3.54l.09 1c1.69-.41 4.89-3.16 5-5.36l-2.26-3 1.3-.41c1.29.09 2.24 1.73 2.5 2.25z" fill="#fff" fill-rule="evenodd"/><path d="M55.92 22.56h-1.83l.35-.18a22.4 22.4 0 0 0 4.91-3.52l.16-.15.1 1.13c1.73-.5 4.66-3.15 4.81-5.2l-2.33-3 1.46-.46c1.42.1 2.4 1.94 2.59 2.31l.13 2.51c-.4 2.11-3.62 4.06-5.65 5l1.06.48-.21.1a12.45 12.45 0 0 1-5.52 1.05m-1-.23h1a12.5 12.5 0 0 0 5.22-.94l-1.08-.49.22-.09c1.88-.81 5.49-2.9 5.76-5.05L66 13.46c-.15-.29-1.09-2.07-2.38-2.17l-1.14.36 2.19 2.87c-.12 2.21-3.27 5-5.09 5.46h-.12l-.08-.94a23 23 0 0 1-4.46 3.22" fill="#fff"/><path d="M60.89 14A10.42 10.42 0 0 0 63 12.11c9.55 2.81 5.25 9.91-1.65 13.08l1.36.25a15.41 15.41 0 0 1-6.57 1.68 21.38 21.38 0 0 0 4.41-4l.09 1.09c5.57-2.69 10.07-9.51.89-10.25z" fill="#fff" fill-rule="evenodd"/><path d="M55.74 27.24l.31-.21a21.31 21.31 0 0 0 4.39-4l.17-.19.09 1.16c3.22-1.6 6.37-4.78 5.91-7.23-.29-1.56-2.06-2.51-5.12-2.76h-.94l.28-.19A10.43 10.43 0 0 0 62.89 12v-.06L63 12c4.43 1.3 5.49 3.4 5.6 4.93.2 2.8-2.64 6.14-6.94 8.2l1.36.25-.3.14a15.44 15.44 0 0 1-6.61 1.69zm4.7-3.87a21.53 21.53 0 0 1-4 3.62 14.86 14.86 0 0 0 5.86-1.51l-1.3-.25.3-.14c4.39-2 7.32-5.36 7.12-8.13-.15-2.09-2-3.72-5.38-4.73a10.44 10.44 0 0 1-1.79 1.61h.27c4 .32 5.11 1.77 5.32 2.93.48 2.58-2.83 5.91-6.17 7.52l-.14.07z" fill="#fff"/><path d="M62.18 7.89v-.14C60.1 1.38 53.19 4.13 49.53 6a5.71 5.71 0 0 1 .3-1.19A16 16 0 0 0 45.6 10a14.32 14.32 0 0 1 5.45-2.26c-.33-.35-.6-.49-.93-.84 3.71-1.9 8.73-2.38 10.28.61-.19 1.61-.14 3.92-1.51 5.05l4-.94-.69-3.74z" fill="#fff" fill-rule="evenodd"/><path d="M58.48 12.77l.35-.29c1.11-.92 1.26-2.62 1.39-4.12 0-.29 0-.57.08-.83-.9-1.69-2.82-2-4.27-2A13.1 13.1 0 0 0 50.3 7c.12.12.24.21.36.31a4.59 4.59 0 0 1 .47.43l.13.13h-.18a14.3 14.3 0 0 0-5.42 2.25l-.42.32.26-.46a16.07 16.07 0 0 1 4.26-5.24l.24-.18-.08.3c-.12.45-.19.67-.22.79a1.23 1.23 0 0 0 0 .19 16.75 16.75 0 0 1 7.22-2.17 5.21 5.21 0 0 1 5.33 4v.21l.06.19.69 3.63zM56 5.27c1.52 0 3.53.38 4.47 2.19v.06c0 .27-.06.55-.08.85-.12 1.34-.26 3-1.18 4l3.48-.83L62 7.77a5 5 0 0 0-5.15-3.89 16.82 16.82 0 0 0-7.3 2.23l-.18.09v-.3a1.52 1.52 0 0 1 .07-.31c0-.09.07-.23.14-.49a15.52 15.52 0 0 0-3.7 4.56 15.11 15.11 0 0 1 4.91-1.95c-.11-.1-.21-.19-.32-.28A4.68 4.68 0 0 1 50 7v-.09l.12-.06A13.36 13.36 0 0 1 56 5.27" fill="#fff"/><path d="M53.18 18.24C56.35 16.31 65.39 13 63.58 9c-1.39-2.81-9.42-1.36-10.88.5l.52-1.47c-2.37 1.74-2.91 2.57-4.22 5.24A14.73 14.73 0 0 1 54.45 11l-1-.67a12.14 12.14 0 0 1 5.65-1.64c1.05 0 2.36.44 2.54 1.14s-.51 1.51-2.87 2.8l-6.15 2.95-43 24.8c-.54.31-.5.61-.45.8l1 1.82c.22.12.32.33.83 0 14.88-8.85 27.13-16.18 42.18-24.77" fill="#fff" fill-rule="evenodd"/><path d="M10.56 43.28a.56.56 0 0 1-.34-.13l-.1-.06-1-1.87c-.07-.25-.07-.59.5-.91L31 27.91l21.59-12.44 6.16-3c2.25-1.23 3-1.93 2.81-2.68s-1.4-1.06-2.42-1.06H59a12.15 12.15 0 0 0-5.37 1.55l1 .71-.23.06a14.59 14.59 0 0 0-5.4 2.3l-.34.23.18-.36c1.4-2.75 2-3.57 4.3-5.22l.27-.19L53 9.15c1.19-1 4.06-1.78 6.57-1.78 2.16 0 3.63.58 4.15 1.63 1.49 3.21-3.95 6-7.91 8-1 .51-1.88 1-2.53 1.34C40 25.9 29 32.44 16.27 40l-5.21 3.1a1 1 0 0 1-.5.18m-.31-.37l.09.06a.38.38 0 0 0 .22.09.83.83 0 0 0 .39-.15l5.21-3.1c12.72-7.57 23.71-14.1 37-21.68.65-.39 1.52-.84 2.54-1.35 3.89-2 9.22-4.68 7.82-7.7-.48-1-1.89-1.51-4-1.51-2.74 0-5.89 1-6.74 2l-.4.51.62-1.72A10.33 10.33 0 0 0 49.23 13a14.55 14.55 0 0 1 5-2l-.93-.63.14-.08A12.4 12.4 0 0 1 59 8.57h.11c1.11 0 2.43.47 2.62 1.22s-.55 1.62-2.92 2.92l-6.16 2.95-21.53 12.43L9.68 40.46c-.49.28-.44.53-.4.67z" fill="#fff"/><path d="M4 49.43a4.64 4.64 0 0 1-3.82-5.31 4.58 4.58 0 0 1 5.41-3.57 5.88 5.88 0 0 1 2.54 1.27l-1.41.82a4.87 4.87 0 0 0-1.4-.64 3 3 0 0 0-3.58 2.36 3.07 3.07 0 0 0 2.51 3.51 3 3 0 0 0 3.58-2.37 4.42 4.42 0 0 0 0-1.28l1.4-.8a5.26 5.26 0 0 1 .18 2.38A4.58 4.58 0 0 1 4 49.43" fill="#fff" fill-rule="evenodd"/><path d="M4.86 49.62a4.87 4.87 0 0 1-.92-.09A4.74 4.74 0 0 1 .07 44.1a4.65 4.65 0 0 1 4.63-3.74 5 5 0 0 1 .91.09 6 6 0 0 1 2.59 1.3l.11.1-1.6.93h-.06a4.72 4.72 0 0 0-1.36-.58 3 3 0 0 0-.57-.05 2.9 2.9 0 0 0-2.89 2.33 3 3 0 0 0 2.42 3.39 3.08 3.08 0 0 0 .57.05 2.9 2.9 0 0 0 2.89-2.33 4.28 4.28 0 0 0 0-1.25v-.07l1.57-.9v.12a5.4 5.4 0 0 1 .18 2.43 4.65 4.65 0 0 1-4.62 3.74m-.16-9a4.44 4.44 0 0 0-4.4 3.48A4.53 4.53 0 0 0 4 49.33a4.71 4.71 0 0 0 .88.08 4.44 4.44 0 0 0 4.42-3.57 5.2 5.2 0 0 0-.14-2.2l-1.22.7a4.47 4.47 0 0 1 0 1.25 3.11 3.11 0 0 1-3.09 2.51 3.35 3.35 0 0 1-.63-.1 3.17 3.17 0 0 1-2.59-3.6 3.11 3.11 0 0 1 3.1-2.51 3.35 3.35 0 0 1 .61.06 4.9 4.9 0 0 1 1.38.58L8 41.81a5.84 5.84 0 0 0-2.38-1.15 4.79 4.79 0 0 0-.88-.08" fill="#fff"/><path d="M34.36 53.19a.78.78 0 0 1-.8-.76.74.74 0 0 1 .24-.54.8.8 0 0 1 .16-.12 1.14 1.14 0 0 1-.68-1 9.53 9.53 0 0 1 .72-3.45.92.92 0 0 1-.31-.19.84.84 0 0 1-.27-.62.87.87 0 0 1 .44-.74.59.59 0 0 1-.46-.56 1.64 1.64 0 0 1 .11-.62 1.24 1.24 0 0 0 .08-1.06 5.28 5.28 0 0 1-.16-.75H34a.94.94 0 0 1-.57-.83 5.22 5.22 0 0 1 0-1.35c0-1 .09-2.29.18-3.68a88 88 0 0 0 .23-9v-.2a.83.83 0 0 1 .16-1.47c-.42-.15-.55-.65-.58-1.22 0-.28.09-1.64-.06-1.71l-.62-.32.82-.05a1.14 1.14 0 0 1-.18-.37 4.19 4.19 0 0 1-.11-1.23c0-.87.14-1.69.22-2.49a16.41 16.41 0 0 0-.33-6.9h.75a1.33 1.33 0 0 1-.4-1.48c.1-.44.34-.81.61-.87a1.32 1.32 0 0 1 .49 0c.27.07.51.45.62.9a1.32 1.32 0 0 1-.37 1.49h.71a17.69 17.69 0 0 0-.28 6.28c.08 1 .16 2 .18 3.14v.13a2.32 2.32 0 0 1-.24 1.45h.85l-.68.33c-.3.15-.1 1.47-.12 1.84s-.14.93-.54 1.08a.83.83 0 0 1 .14 1.46v.17c-.08 2.81.11 5.52.28 7.85a44.17 44.17 0 0 1 .19 4.88c0 .58.15 1.88-.6 2.14h.51a5.71 5.71 0 0 1-.16.75 1.22 1.22 0 0 0 .1 1.09 1 1 0 0 1 0 .92.62.62 0 0 1-.35.28.86.86 0 0 1 .45.74.88.88 0 0 1-.62.82 2.09 2.09 0 0 1 .25.59 16.07 16.07 0 0 1 .53 2.81 1.13 1.13 0 0 1-.68 1 .76.76 0 0 1 .4.65.73.73 0 0 1-.24.54.82.82 0 0 1-.56.22z" fill="#d8944e"/><path d="M34.36 53a.58.58 0 1 1 .62-.58.6.6 0 0 1-.62.58m0-41.09c-1.19 0-.76-2-.23-2.12h.41c.53.13 1 2.12-.18 2.12m-.23 11.19c-.65-.07-.71-.79-.7-1.72.2-3.35.94-6.06 0-9.23h2c-.8 2.89-.11 5.73 0 9.24 0 .89.06 1.59-.65 1.73a1.63 1.63 0 0 1-.52 0m.2 3c1.43.06.3-2.62 1-3-.34 0-.48 0-.63.31-.07-.18 0-.21-.31-.32-.29.11-.22.14-.29.32-.15-.37-.31-.33-.64-.31.5.25-.4 3 .93 3m-.44 16.48c-.57-.12-.59-1.08-.49-2 0-3 .61-7.66.41-12.71h.69c-.14 5.15.61 9.93.47 12.72 0 .89.06 1.85-.54 2a1.7 1.7 0 0 1-.53 0m.28-16.26a.67.67 0 1 0 .72.67.7.7 0 0 0-.72-.67m.47 19.24a.69.69 0 0 0 .18-.94c-.41-.87-.1-1 0-1.73h-1.37c.12.76.41.85 0 1.71-.14.4-.17.77.13.93a1.59 1.59 0 0 0 1 0m-.48 1.62a.69.69 0 1 1 .74-.69.72.72 0 0 1-.74.69m0 4.48a.93.93 0 0 1-.91-.95c0-.43.4-3.26.77-3.38h.19c.37.12.85 3 .85 3.39a.93.93 0 0 1-.9.95M36.9 7.82a.6.6 0 0 1 .46-.48.35.35 0 0 0 .09-.13.69.69 0 0 0-.13.09V7a.65.65 0 0 0 .13.09.35.35 0 0 0-.09-.13h.31a.35.35 0 0 0-.09.13.62.62 0 0 0 .13-.09v.3a.66.66 0 0 0-.13-.09.27.27 0 0 0 .07.11.6.6 0 0 1 .44.47.13.13 0 0 1 0 .1.11.11 0 0 1 0 .08.06.06 0 0 1 0 .05.6.6 0 0 1-1.14 0 .05.05 0 0 1 0-.05.11.11 0 0 1 0-.08.13.13 0 0 1 0-.1" fill="#d8944e" fill-rule="evenodd"/><path d="M38 8.07a.56.56 0 0 1-1 0 5.29 5.29 0 0 1 1 0M37.68 7.34a.55.55 0 0 1 .38.41h-.38v-.39M37 7.75a.56.56 0 0 1 .4-.41v.39h-.39M38.09 8A5.5 5.5 0 0 0 37 8a5.12 5.12 0 0 1 1.08 0" fill="#d8944e" fill-rule="evenodd"/><path d="M37.61 7.29v.46h.42-.43v-.46c0-.16 0 0 0 0M36.94 7.83h.45v-.45c0-.16 0 0 0 0v.46h-.46" fill="#d8944e" fill-rule="evenodd"/><path d="M37.52 7.82a.05.05 0 0 1 .05.05.06.06 0 0 1-.05.06.06.06 0 0 1-.06-.06.06.06 0 0 1 .06-.05m.1.05a.06.06 0 0 1 .06.06.06.06 0 0 1-.06.05.05.05 0 0 1-.06-.05.06.06 0 0 1 .06-.06m.1.05a.06.06 0 0 1 .06.05.06.06 0 0 1-.06.06.06.06 0 0 1-.05-.06.06.06 0 0 1 .05-.05m.1.05A.05.05 0 0 1 38 7.9a.06.06 0 0 1-.06.06.06.06 0 0 1-.05-.06.05.05 0 0 1 .05-.05M37.07 7.84a.06.06 0 0 1 0 .12.06.06 0 1 1 0-.12m.1 0a.05.05 0 0 1 .05.06.05.05 0 0 1-.05.05.06.06 0 0 1-.06-.05.06.06 0 0 1 .06-.06M37.27 7.83a.05.05 0 0 1 .05.05.06.06 0 0 1-.05.06.06.06 0 0 1-.06-.06.05.05 0 0 1 .06-.05m.11-.57a.06.06 0 0 1 0 .12.06.06 0 0 1 0-.12m0 .14a.06.06 0 0 1 .06.06.05.05 0 0 1-.06.05.05.05 0 0 1-.05-.05.06.06 0 0 1 .05-.06m0 .14a.05.05 0 0 1 .06.05.06.06 0 0 1-.06.06.06.06 0 0 1-.05-.06.05.05 0 0 1 .05-.05m0 .13a.06.06 0 0 1 .06.06.05.05 0 0 1-.06.05.05.05 0 0 1-.05-.05.05.05 0 0 1 .05-.06M37.93 7.9a.07.07 0 0 1 0 .05.05.05 0 0 1-.05 0 .05.05 0 0 1 .12-.04.05.05 0 0 1 .05-.06m-1.1-.05a.06.06 0 0 1 .05.06.05.05 0 0 1 0 .14.05.05 0 0 1-.06-.05.06.06 0 0 1 .06-.1m.63-.22v.07m0-.13v.07m0-.13v.06m-.13.06v-.27m0 .27v.01m-.15.12h.06m-.14 0h.07m-.14 0h.07m.08.13H37m.13 0h-.05m.14 0h-.06m.16 0h-.08m.12 0h-.09m.13 0h-.06m.14 0h-.06M37.87 7.83h.06m-.14 0h.05m-.11 0z" fill="#d8944e" fill-rule="evenodd"/><path d="M37.56 7a.09.09 0 0 0 0 .05c0 .06.11 0 .13 0v.15s-.07-.05-.1 0 0 .11 0 .13h-.15s.06-.07.05-.11-.11 0-.13 0V7s.07.05.1 0 0-.11 0-.13h.15v.05M37 8.16a.35.35 0 0 0 .27.22.14.14 0 0 1 .09-.16.12.12 0 0 0 0-.09.11.11 0 0 1 .12.09.13.13 0 0 1 .08.18h.07a.09.09 0 0 1 0-.12.13.13 0 0 0 0-.11c.07 0 .1.08.1.09a.12.12 0 0 1 .08.06.13.13 0 0 1 0 .13s-.12 0-.18.08-.06.07-.11.09-.14 0-.2 0-.12.09-.2.09-.06-.05-.19-.08l-.27-.15a2.76 2.76 0 0 0-.45-.09c-.13 0-.25-.08-.39-.1s-.37 0-.42-.06.06-.09.07-.26 0-.16 0-.17h.42A.49.49 0 0 0 36 8a.51.51 0 0 0 .25.15 1.29 1.29 0 0 0 .58.12.21.21 0 0 0 .17-.12v.01z" fill="#d8944e" fill-rule="evenodd"/><path d="M35.91 7.79A.54.54 0 0 0 36 8l.05.06a.06.06 0 0 0 0 .06h.07a.06.06 0 0 1 .1 0s0-.05.07 0l.29.09c.17 0 .35.06.45-.1v.05h-.05c-.05 0 .13 0 .08.09a.05.05 0 0 0-.07 0 .63.63 0 0 1 .25 0s-.06.06-.17.06 0 0 0-.05v-.09c0-.02 0 0 0 0v-.08-.06-.16c0-.03.12 0 .13 0a.09.09 0 0 1 0 .09h-.08a1.75 1.75 0 0 1-.26.2c-.07 0-.08 0-.17-.05l-.27-.16c-.14-.06-.22 0-.25-.06s-.05 0-.05 0c-.06 0-.07 0-.06-.06s-.06 0-.06-.07c-.05 0-.06 0-.05-.06a.06.06 0 0 1-.06-.08v.05c0 .05.11.59.11.56a.1.1 0 0 0 0 .06v-.08.07c0 .01-.06-.06 0-.11a.12.12 0 0 0 0 .09 1 1 0 0 1-.38 0 .88.88 0 0 0 .09-.37h.33" fill="#d8944e" fill-rule="evenodd"/><path d="M35.6 8v.11c0 .02.14 0 .17.06a.56.56 0 0 1-.21 0s0-.07.06-.15" fill="#d8944e" fill-rule="evenodd"/><path d="M35.66 8.07v.06h-.06v-.07M37.76 8.31a.07.07 0 0 1 0 .13h-.13.07v-.13M37.6 8.45l-.07.06h-.2c.08-.07.09-.07.17-.06a.08.08 0 0 0 0-.05M37.44 8.18zM38 8.1s0 .12-.1.13a.3.3 0 0 0 .1-.13M37.91 8.1a.11.11 0 0 1-.08.1.25.25 0 0 0 .08-.1M37.86 8.11a.07.07 0 0 1 0 .05v-.05" fill="#d8944e" fill-rule="evenodd"/><path d="M34.39 10a.57.57 0 0 1-.26-.27.44.44 0 0 1-.22.07.42.42 0 0 1-.4-.26.33.33 0 0 1-.39.06.37.37 0 0 1-.21-.35.32.32 0 0 0 0 .14.21.21 0 0 1-.16.16c.05-.18-.09-.18-.13-.33a.31.31 0 0 1 .16-.36.23.23 0 0 1-.07-.29.26.26 0 0 1 .26-.16c-.1.09 0 .21.06.2s.25-.17.42-.26a3.49 3.49 0 0 0 .51-.25.32.32 0 0 0-.29.12c0-.19.15-.26.25-.34s0-.51-.19-.55-.4.09-.38.26.22.15.3.11a.23.23 0 0 1-.14.2.28.28 0 0 1-.3 0 .14.14 0 0 1-.07.12.52.52 0 0 0-.14-.17c0 .14-.12.2-.22.18a.26.26 0 0 0 0-.17.32.32 0 0 1-.1.08.34.34 0 0 0 0-.08.23.23 0 0 1-.21.1.31.31 0 0 0 .05-.28.23.23 0 0 1-.42-.08.13.13 0 0 0 .2-.06c0-.09-.08-.32 0-.49a.45.45 0 0 1 .37-.24.18.18 0 0 1 0-.08.32.32 0 0 0 .42-.13.41.41 0 0 1-.15 0 .64.64 0 0 0 0-.71c0 .07-.14.07-.2.13h-.05v.44c0 .13-.16.13-.24.19-.08-.09-.23-.09-.21-.25s.05-.3.06-.41c0 .1-.14.46-.18.57s-.21.11-.29.17c-.05-.11-.19-.14-.14-.3s.25-.53.28-.62c-.08.12-.3.54-.37.66s-.21.06-.32.1-.16-.19-.06-.35.41-.56.43-.61-.51.61-.54.64-.26 0-.35 0-.08-.22 0-.34.35-.28.41-.34a2.33 2.33 0 0 1-.48.32.4.4 0 0 1-.35-.06c.06-.19 0-.27.41-.46-.37.13-.54.07-.68 0a.54.54 0 0 1 .34-.37.56.56 0 0 1-.48-.23.65.65 0 0 1 .44-.22.59.59 0 0 1-.53-.42.85.85 0 0 1 .48-.08.7.7 0 0 1-.5-.52.92.92 0 0 1 .46 0 .71.71 0 0 1-.35-.6 1 1 0 0 1 .5.11.67.67 0 0 1-.28-.91c.11.06.6.56.68.62a2.17 2.17 0 0 1-.44-.69c-.08-.22-.09-.59.18-.71a8.53 8.53 0 0 0 .8 1.31s0-.05.08-.06a1.31 1.31 0 0 0 .39.55.48.48 0 0 1 0-.1c.17.25.6.58.73.79a.3.3 0 0 1 0 .44c-.06.06-.18.17-.07.32a.38.38 0 0 0 .63 0 .28.28 0 0 1-.13-.38.25.25 0 0 0 .32.11.6.6 0 0 0 .19-.12.23.23 0 0 1-.38-.21.24.24 0 0 0 .33 0 .45.45 0 0 0 .09-.42 1.16 1.16 0 0 0-.31-.58.11.11 0 0 1-.1 0H33a.38.38 0 0 0-.29 0 .21.21 0 0 0-.11.23c-.2-.11-.13-.3.13-.36a.64.64 0 0 0-.36.18.33.33 0 0 1-.32 0c-.16-.08-.19-.26-.15-.29a.17.17 0 0 0 .15.13.75.75 0 0 0 .37-.09.79.79 0 0 1 .32-.06.44.44 0 0 0-.55.06.27.27 0 0 1-.11-.19c0-.26.15-.4.38-.4a.07.07 0 0 1 .1-.07v-.06h.87a1.46 1.46 0 0 0 .57-.01c0 .11-.24.23-.39.26a.64.64 0 0 0 .34 0 .4.4 0 0 1-.21.17.62.62 0 0 0 .53.19.26.26 0 0 1-.23.09 2.11 2.11 0 0 1 .36 1 2.18 2.18 0 0 1 .37-1 .27.27 0 0 1-.24-.09.64.64 0 0 0 .54-.19.4.4 0 0 1-.21-.17.64.64 0 0 0 .34 0c-.15 0-.38-.16-.39-.26a1.47 1.47 0 0 0 .51.06h.87v.06a.07.07 0 0 1 .1.07c.22 0 .42.14.38.4a.27.27 0 0 1-.11.19.44.44 0 0 0-.56-.06.79.79 0 0 1 .32.06.74.74 0 0 0 .36.09.17.17 0 0 0 .16-.13s0 .22-.14.29a.33.33 0 0 1-.32 0 .65.65 0 0 0-.36-.18c.26.07.33.25.13.36a.21.21 0 0 0-.08-.28.38.38 0 0 0-.3 0h-.11a.11.11 0 0 1-.1 0 1.14 1.14 0 0 0-.32.52.45.45 0 0 0 .09.42.24.24 0 0 0 .33 0 .23.23 0 0 1-.33.24.62.62 0 0 0 .19.12.25.25 0 0 0 .32-.11.28.28 0 0 1-.16.47.38.38 0 0 0 .63 0c.1-.15 0-.26-.07-.32a.3.3 0 0 1 0-.44c.14-.21.57-.55.73-.79a.56.56 0 0 1 0 .1 1.31 1.31 0 0 0 .39-.55s.05 0 .08.06a8.61 8.61 0 0 0 .8-1.31c.26.12.26.49.18.71a2.17 2.17 0 0 1-.44.69c.08-.06.57-.56.68-.62a.67.67 0 0 1-.29.91 1.05 1.05 0 0 1 .5-.11.7.7 0 0 1-.35.6.92.92 0 0 1 .46 0 .69.69 0 0 1-.51.52.85.85 0 0 1 .49.08.59.59 0 0 1-.54.42.65.65 0 0 1 .45.22.56.56 0 0 1-.48.23.54.54 0 0 1 .29.28c-.13.11-.3.17-.68 0 .43.18.35.27.41.46a.4.4 0 0 1-.35.06 2.47 2.47 0 0 1-.48-.32c.06.06.3.24.41.34s0 .24 0 .34-.24.07-.35 0-.48-.59-.54-.64.31.41.43.61 0 .26-.05.35-.24 0-.32-.1-.29-.54-.37-.66c0 .09.26.57.28.62s-.09.19-.14.3c-.09-.06-.24 0-.29-.17s-.13-.47-.18-.57c0 .11 0 .25.06.41s-.13.16-.21.25c-.07-.06-.21 0-.23-.19a4.39 4.39 0 0 1 0-.44L36 6s-.13 0-.17-.11a.65.65 0 0 0 0 .71.4.4 0 0 1-.15 0 .32.32 0 0 0 .42.13.14.14 0 0 1 0 .08.45.45 0 0 1 .37.24c.1.17 0 .4 0 .49a.14.14 0 0 0 .2.06.23.23 0 0 1-.42.08.31.31 0 0 0 .05.32.23.23 0 0 1-.21-.1.34.34 0 0 0 0 .08.32.32 0 0 1-.1-.08.25.25 0 0 0 .01.1c-.1 0-.19 0-.23-.18a.69.69 0 0 0-.08.17.14.14 0 0 1-.07-.12.28.28 0 0 1-.3 0 .24.24 0 0 1-.15-.2c.09 0 .28.09.31-.11s-.13-.33-.37-.26-.41.4-.19.55.27.14.25.34a.32.32 0 0 0-.29-.12 3.43 3.43 0 0 0 .51.25c.17.1.29.26.42.26s.16-.11.06-.2a.25.25 0 0 1 .26.16.23.23 0 0 1-.13.36.31.31 0 0 1 .16.36c0 .15-.18.15-.13.33a.21.21 0 0 1-.15-.16.31.31 0 0 0 0-.14.37.37 0 0 1-.2.35.33.33 0 0 1-.39-.06.42.42 0 0 1-.62.19.56.56 0 0 1-.26.27zm-1.06-1a.24.24 0 0 0 .16.08v.11c0 .04-.22-.08-.16-.19m1.36-.87a3.79 3.79 0 0 0 .25.33 1.6 1.6 0 0 1 .24.4c.11 0 .09-.15.05-.22s-.39-.32-.54-.5m.76.87a.23.23 0 0 1-.17.08.42.42 0 0 1 0 .11c.13 0 .22-.08.15-.19M34.48 8a2.71 2.71 0 0 0 .13.76 2.67 2.67 0 0 1 .09.77c.22-.11.1-.55 0-.74a3.06 3.06 0 0 1-.22-.79m-.17 0a2.71 2.71 0 0 1-.13.76 2.64 2.64 0 0 0-.09.77c-.22-.11-.1-.55 0-.74a3.1 3.1 0 0 0 .22-.79m-.21.18a3.79 3.79 0 0 1-.25.33 1.6 1.6 0 0 0-.24.4c-.11 0-.09-.15-.05-.22s.39-.32.54-.5" fill="#d8944e" fill-rule="evenodd"/><path d="M34.39 9.92V10a.51.51 0 0 1-.22-.23c0 .08.12.19.2.2M34.4 9.76v.12a.29.29 0 0 1-.17-.18.38.38 0 0 0 .07-.14h-.09a2.34 2.34 0 0 1 0-.38 1.06 1.06 0 0 0 0 .38 2.83 2.83 0 0 1 .08-.76 5.25 5.25 0 0 0 .14-.68 5.49 5.49 0 0 1 0 .81v.81" fill="#d8944e" fill-rule="evenodd"/><path d="M34.27 7.95a1.86 1.86 0 0 1-.16.7 2 2 0 0 0-.19.56c0 .25.08.43.3.4a.28.28 0 0 1-.21.16.38.38 0 0 1-.41-.15v-.07a.09.09 0 0 1 .14 0c.07-.16 0-.26-.17-.28a.33.33 0 0 1 0-.13.21.21 0 0 0 .17-.24h-.07a1.67 1.67 0 0 1 .33-.45 1.47 1.47 0 0 0 .29-.5" fill="#d8944e" fill-rule="evenodd"/><path d="M34.2 7.78a.28.28 0 0 1-.05.31 2.24 2.24 0 0 1-.43.41.71.71 0 0 0-.2.19c-.06.11 0 .28.09.3h.07a.16.16 0 0 1-.07.11.22.22 0 0 1-.28-.1.17.17 0 0 0 .07.31c.13 0 .31 0 .3.18-.1-.06-.16 0-.22.06a.29.29 0 0 1-.48-.12.5.5 0 0 1 0-.25c-.18.08-.12.24-.2.32 0-.12-.12-.17-.14-.26a.29.29 0 0 1 .3-.34c-.12 0-.21-.05-.23-.14a.22.22 0 0 1 .12-.25c-.05.1.08.27.27.17s.21-.18.33-.24a4.7 4.7 0 0 0 .55-.26.49.49 0 0 0 .24-.4" fill="#d8944e" fill-rule="evenodd"/><path d="M34 7.64c.15.22.06.45-.08.45h-.23c0-.1.17-.15.21-.17s.13-.13.09-.33M32.77 7.41a.39.39 0 0 0 0 .18.33.33 0 0 1 .07-.08 1.09 1.09 0 0 0 0 .26l-.08.09V7.8a.26.26 0 0 0 0-.26.68.68 0 0 1 .06-.13M33 7.43h.07a.45.45 0 0 0-.07.17c0 .17 0 .32-.12.38a.57.57 0 0 0 0-.1 1.09 1.09 0 0 1 0-.38l.12-.05a.47.47 0 0 0 0 .26.68.68 0 0 1 0-.28" fill="#d8944e" fill-rule="evenodd"/><path d="M33.24 7.32a.41.41 0 0 0-.13.36c0 .1.07.13 0 .26 0-.07-.1-.12-.11-.22a.39.39 0 0 1 .22-.4M33.88 7.25a.81.81 0 0 0 .2.24c.07.21.11.31 0 .46a.46.46 0 0 0-.08-.39l-.09-.31" fill="#d8944e" fill-rule="evenodd"/><path d="M33.43 7.26a.38.38 0 0 1 .26.06c-.24 0-.39.07-.41.25s.06.28.23.25c0 0-.07.05-.15 0a.22.22 0 0 0 .21 0 .23.23 0 0 1-.37 0 .37.37 0 0 1 .23-.57M34.39 7.93v.15a1.83 1.83 0 0 1-.32-.91 1.11 1.11 0 0 0 .16.4c0 .07.13.14.14.24a.54.54 0 0 0 0 .12M33.09 7.17a1.8 1.8 0 0 0-.18.18 2.83 2.83 0 0 1 .25-.13s-.11.17-.12.17a.67.67 0 0 0-.25.14c0-.25.11-.34.3-.36M32.8 7.17l.08-.03-.14.09.06-.06z" fill="#d8944e" fill-rule="evenodd"/><path d="M32.62 7.22h.14a.38.38 0 0 0-.08.16.51.51 0 0 1 .16-.15h.07a.79.79 0 0 0-.25.39.31.31 0 0 1 0-.36" fill="#d8944e" fill-rule="evenodd"/><path d="M32.59 7.11a.67.67 0 0 0 0 .12.33.33 0 0 0 .09.39v-.06a.24.24 0 0 1 0 .17.27.27 0 0 1-.16.18.4.4 0 0 0 0-.32c-.07-.17-.13-.34 0-.49M34.39 7.58v.15a1.23 1.23 0 0 1-.3-.63c.2.05.27.22.3.48M33.13 7.16h.13l-.07.06-.19.04.12-.11M33.93 7.1h.02l.02.08-.04-.08z" fill="#d8944e" fill-rule="evenodd"/><path d="M33.85 7.1h.06a.53.53 0 0 0 .08.17 1.34 1.34 0 0 0 0-.17h.09a1.2 1.2 0 0 0 0 .34.62.62 0 0 1-.08-.12.93.93 0 0 1-.11-.22M33.61 7.09h.06a1.68 1.68 0 0 0 .13.18c0-.08 0-.14-.06-.18h.06l.13.4a1.84 1.84 0 0 1-.32-.41M33.56 7.09h.03v.01l-.14.03.11-.04z" fill="#d8944e" fill-rule="evenodd"/><path d="M33.41 7l.12.05a.52.52 0 0 0-.2.1 1.85 1.85 0 0 1 .28-.05l.09.16a.53.53 0 0 0-.62.1 1 1 0 0 1 .33-.36M33.13 6.93L33 7h-.14.26" fill="#d8944e" fill-rule="evenodd"/><path d="M32.8 6.91A.44.44 0 0 0 33 7a.51.51 0 0 0-.22.1A1.13 1.13 0 0 1 33 7a.49.49 0 0 0-.11.09 1.82 1.82 0 0 1-.31.11.29.29 0 0 1 .19-.29" fill="#d8944e" fill-rule="evenodd"/><path d="M32.73 6.87a.34.34 0 0 0-.18.17.26.26 0 0 0-.13.16.38.38 0 0 0 0 .27.18.18 0 0 1-.17.18.16.16 0 0 0 .18-.14.14.14 0 0 1-.08.18.17.17 0 0 1-.2 0c.28 0 0-.38.15-.59a.43.43 0 0 1 .35-.23M33.29 6.85v.06l-.19.14c.07 0 .16-.07.23-.09a.89.89 0 0 1-.5.16 1.23 1.23 0 0 1 .4-.31" fill="#d8944e" fill-rule="evenodd"/><path d="M33.26 6.46v.1a.47.47 0 0 1-.13.19.32.32 0 0 0 .13-.12.67.67 0 0 0 0 .2l-.12.06a.31.31 0 0 1-.41-.09.34.34 0 0 0 .39 0 .33.33 0 0 1-.33 0 .3.3 0 0 0 .33-.24.46.46 0 0 0 .11-.12" fill="#d8944e" fill-rule="evenodd"/><path d="M33.26 5.93v.45a.32.32 0 0 1-.17.17.71.71 0 0 0 0-.61l.1.06a1.49 1.49 0 0 1 0 .3 1 1 0 0 0 0-.3.16.16 0 0 1 .05-.07M32.49 5.89v.41c0-.08.09-.39.1-.42s.07 0 .09.07 0 .37 0 .41-.14.14-.19.18-.19-.08-.18-.18 0-.29.06-.43h.15M32.11 5.76c0 .12-.14.48-.15.55.06-.11.19-.42.23-.53s0 .07.07.1-.17.57-.19.63-.17.06-.22.11-.16-.11-.12-.21a4.78 4.78 0 0 1 .27-.63zM31.71 5.57a.4.4 0 0 0 .17 0 6.22 6.22 0 0 0-.37.62c.07-.06.3-.39.38-.48a.27.27 0 0 1 0 .1 6.57 6.57 0 0 1-.38.67c-.07.07-.15 0-.23 0s-.1-.11-.08-.22a4.93 4.93 0 0 1 .47-.68" fill="#d8944e" fill-rule="evenodd"/><path d="M33.29 5.77c0 .1-.06.12-.11.19S33 5.9 33 5.83v-.46h.08c0 .08.09.26.11.32s0-.34 0-.34l.06-.05a4.49 4.49 0 0 1 .13.45M32.81 5.32a.11.11 0 0 0 .07.08v.47c0 .05-.1.09-.17.14s-.18-.06-.18-.17 0-.3.05-.4a.33.33 0 0 1 .07-.06 2.69 2.69 0 0 0 0 .35v-.4M32.51 5.29l.02.03-.07.16.05-.19z" fill="#d8944e" fill-rule="evenodd"/><path d="M32.48 5.27c0 .1-.06.28-.07.36a2.35 2.35 0 0 0 .13-.3h.06a4 4 0 0 1-.08.41c0 .1-.13.09-.21.12s-.14-.12-.09-.26l.16-.33h.09M33.19 5.28a.16.16 0 0 0 0-.05.12.12 0 0 0 .07 0v.28zM32.17 5.15v.09a1.58 1.58 0 0 0-.12.3 2.7 2.7 0 0 0 .18-.26h.09c0 .08-.1.22-.17.36s-.15.06-.23.08-.07-.13 0-.2a3.7 3.7 0 0 1 .25-.38M31.95 5h.06a2 2 0 0 0-.2.25l.28-.24h.07a.15.15 0 0 0 0 .06 3.17 3.17 0 0 1-.26.34.39.39 0 0 1-.26.06c0-.1-.08-.18 0-.27a3.26 3.26 0 0 1 .31-.2M31.45 4.93l.41-.09a.17.17 0 0 1 0 .07l-.31.14a1.39 1.39 0 0 0 .3-.05h.07c-.07 0-.19.12-.31.17a.36.36 0 0 1-.29 0c0-.09 0-.2.13-.22M30.76 4.81h.34a2.26 2.26 0 0 1-.34 0" fill="#d8944e" fill-rule="evenodd"/><path d="M30 4.8a.78.78 0 0 1 .53-.18h.67a.27.27 0 0 0-.09.11 5 5 0 0 0-.6.06 3.3 3.3 0 0 0 .62 0 .2.2 0 0 0 .13.07 6.61 6.61 0 0 1-.75.1.51.51 0 0 1-.51-.16" fill="#d8944e" fill-rule="evenodd"/><path d="M31.34 4.61h.43l.07.06-.36.07h.43a.16.16 0 0 0-.06.09c-.09 0-.44.08-.44.08a.26.26 0 0 1-.28-.11.24.24 0 0 1 .2-.17M31.52 4.41h.22-.19M30.73 4.39h.29zM33 4.32a.29.29 0 0 0 .31.05v.28c-.2 0-.4-.11-.31-.33M34.21 4.21a1.62 1.62 0 0 1 0 .17h-.06s0-.11.06-.17M31.05 4.37a.31.31 0 0 1 .37-.13l.42.09-.09.07a3.11 3.11 0 0 0-.39 0 1.24 1.24 0 0 0 .34.07v.09a4.2 4.2 0 0 1-.45 0 .32.32 0 0 1-.26-.18M33.91 4.14v.24h-.07a1.3 1.3 0 0 0 .09-.24M33.77 4.07c0 .11-.07.25-.08.31h-.09a2 2 0 0 0 .17-.31" fill="#d8944e" fill-rule="evenodd"/><path d="M29.9 4.21a1 1 0 0 1 .63 0l.51.12a.24.24 0 0 0 0 .07 3.68 3.68 0 0 0-.61 0c.2.06.65.13.66.13a.46.46 0 0 0 .18.11h-.79c-.14 0-.5-.14-.56-.36M34 4.08a1.37 1.37 0 0 1 0 .3h-.11a1.05 1.05 0 0 1 .11-.3M34.37 4.08v.3h-.12c0-.1.09-.19.12-.3M30.73 4l.33.1a3.07 3.07 0 0 1-.33-.1M34.14 3.8a2.06 2.06 0 0 1 .06.37c0 .07-.05.14-.08.21h-.05a2.31 2.31 0 0 0 0-.32v-.17a1 1 0 0 1 0 .28 2.51 2.51 0 0 0 0-.37M33.87 3.84a.58.58 0 0 1-.09.54h-.07a2 2 0 0 0 .09-.53 3 3 0 0 1 0 .31 1.55 1.55 0 0 0 .06-.31M33.62 3.76a.41.41 0 0 1-.18.35.3.3 0 0 0 .17-.16.7.7 0 0 1 0 .17.24.24 0 0 1-.36-.05c.22.09.37-.09.43-.31M31 3.89a.35.35 0 0 1 .37 0l.34.17a.36.36 0 0 0 0 .08 3.6 3.6 0 0 0-.32-.14 2.13 2.13 0 0 0 .39.16.32.32 0 0 0 .12.12 3 3 0 0 1-.68-.15.36.36 0 0 1-.2-.25M31.68 3.78a2.15 2.15 0 0 1 .21.12l-.18-.13" fill="#d8944e" fill-rule="evenodd"/><path d="M33.78 3.63a.81.81 0 0 1-.23.75h-.24c.28-.11.4-.37.45-.74a1.05 1.05 0 0 1 0 .28.89.89 0 0 0 0-.28M29.88 3.62a1.17 1.17 0 0 1 .6.09c.09 0 .4.17.48.21A.67.67 0 0 0 31 4a6.08 6.08 0 0 0-.72-.22 5.88 5.88 0 0 0 .83.33h.06l-.12.05a4.9 4.9 0 0 1-.55-.12c-.3-.09-.62-.28-.65-.52M30.72 3.55l.44.23h-.06a4.29 4.29 0 0 1-.38-.24M33.92 3.44a2.71 2.71 0 0 1 .14.41 1.25 1.25 0 0 1-.14.42 1.67 1.67 0 0 0 0-.48 2.54 2.54 0 0 0 0-.35 3 3 0 0 1 .08.41 2.55 2.55 0 0 0-.05-.41M34.12 3.43c0 .09.11.39.12.44a3.72 3.72 0 0 0-.08-.44s.06.17.07.22a3.59 3.59 0 0 1 .12.4 1.17 1.17 0 0 1-.12.28 2 2 0 0 0 0-.44v-.16-.3M31.17 3.4c.4 0 .61.33.87.52h-.11s-.27-.18-.42-.24a1.83 1.83 0 0 0 .33.26.22.22 0 0 0-.1.06l-.39-.2a.6.6 0 0 1-.18-.39M31.69 3.35l.11.1-.11-.15" fill="#d8944e" fill-rule="evenodd"/><path d="M31.94 4.67c-.12 0-.15-.14-.18-.2s.11-.15.23-.12l.22.05c-.26-.05-.43-.16-.43-.38.19-.13.39 0 .52.15-.1-.16-.25-.23-.36-.36a.6.6 0 0 1-.08-.55c.23.29.61.56.71.8s-.16.29-.2.46.07.33.3.41a.39.39 0 0 0 .47-.18h.11v.18a.49.49 0 0 1 0 .11v.14h-.07a.1.1 0 0 0 .07.07.09.09 0 0 1-.06 0 1.52 1.52 0 0 1-.07-.25 1.65 1.65 0 0 1 .07.22c0 .1-.06.11-.11.17s-.17 0-.19-.12a2 2 0 0 1 0-.2v.2c0 .03-.09.08-.15.13s-.16-.06-.14-.15a1.2 1.2 0 0 1 .06-.2s-.06.17-.09.22-.13 0-.22 0-.12-.12-.06-.2l.13-.15a1.69 1.69 0 0 1-.16.15c-.07.06-.22-.05-.26-.06s0-.19.09-.24a1.27 1.27 0 0 1 .2 0h-.22M30.81 3.13a2.9 2.9 0 0 1 .32.22 3 3 0 0 1-.3-.25M33.91 3l.11.21a1.56 1.56 0 0 1 .1.82c-.06-.36-.23-.64-.25-.79a1.15 1.15 0 0 1 .21.39 4.73 4.73 0 0 0-.17-.63M30 3a1.19 1.19 0 0 1 .67.22c.12.07.35.21.51.33s.05.06.14.18h-.1a8 8 0 0 0-.76-.38 3.69 3.69 0 0 0 .63.41l-.1.07a3 3 0 0 1-.6-.27c-.2-.1-.39-.26-.39-.56z" fill="#d8944e" fill-rule="evenodd"/><path d="M33.92 3a4.38 4.38 0 0 1 .41.56 1.37 1.37 0 0 1 0 .51A2.85 2.85 0 0 0 33.92 3M33.66 3a1 1 0 0 1 .19.24 2.84 2.84 0 0 1 0 .8 1.45 1.45 0 0 0-.12-.61 1 1 0 0 1-.11.69 1.63 1.63 0 0 0 0-.82 1 1 0 0 0-.09-.18.87.87 0 0 1 .29.32 3.36 3.36 0 0 0-.15-.44zM32.61 3a.47.47 0 0 1 .4-.05c-.13 0-.38 0-.44.21a.11.11 0 0 1 0-.16M32.62 2.83a.46.46 0 0 1 .22 0c-.39 0-.4.19-.56.23a.28.28 0 0 1-.28-.13.34.34 0 0 0 .28 0 2.81 2.81 0 0 1 .38-.13M33.62 2.74c0 .06.17.24.22.3a2.06 2.06 0 0 0-.2-.3l.19.14a2.31 2.31 0 0 1 .17.5 2.4 2.4 0 0 0-.34-.44.65.65 0 0 0 0-.19M31.4 2.76a1.41 1.41 0 0 0 .4.52.52.52 0 0 0 0 .15l-.23-.24a1.09 1.09 0 0 0 .24.34.79.79 0 0 0 0 .17l-.35-.31a.54.54 0 0 1-.1-.63M30.93 2.58a5 5 0 0 0 .34.4V3a2.52 2.52 0 0 1-.34-.45M33.72 2.64c.06 0 .23.25.28.28s-.2-.22-.25-.29a.63.63 0 0 0 .21.1 2.24 2.24 0 0 1 .34.69c-.21-.35-.43-.48-.58-.79" fill="#d8944e" fill-rule="evenodd"/><path d="M33.26 2.56a1.2 1.2 0 0 1 .36.34 2.72 2.72 0 0 1 .13.38.72.72 0 0 0-.27-.28 1.69 1.69 0 0 0-.25-.21 1.25 1.25 0 0 1-.14-.18 3.92 3.92 0 0 0 .49.35 3.06 3.06 0 0 0-.31-.45M33.38 2.45h.18a1.86 1.86 0 0 1 .25.37 2.8 2.8 0 0 1-.43-.39M33.68 2.47a.58.58 0 0 0 .44.23.51.51 0 0 1-.52-.22h.08M33.06 2.34a.13.13 0 0 1-.08 0 .13.13 0 0 1 .08 0M32.9 2.31h.12l-.12.06a.07.07 0 0 0 0-.08M32.74 2.31c0 .06 0 .1.09.11a.24.24 0 0 1-.08-.15M32.15 2.49a.35.35 0 0 1 .33-.18 2.16 2.16 0 0 0 .71.66s-.12 0-.19-.08a1 1 0 0 0-.49-.22.41.41 0 0 0-.31.11.32.32 0 0 1 0-.3M30.15 2.28c.15.08.75.74 1.3 1.13a1 1 0 0 0-.27-.06 7.8 7.8 0 0 0-.64-.45 4.21 4.21 0 0 0 .59.52.23.23 0 0 0 0 .11 5.18 5.18 0 0 1-.8-.53.63.63 0 0 1-.18-.69" fill="#d8944e" fill-rule="evenodd"/><path d="M32.52 2.29c0-.06 0-.09.06 0a1.18 1.18 0 0 0 .25.38 1.35 1.35 0 0 0 .33.21 1.06 1.06 0 0 1 .35.29.74.74 0 0 1 .1.41 1.21 1.21 0 0 0-.43-.62 1.45 1.45 0 0 1-.44-.34 2.85 2.85 0 0 1-.22-.29" fill="#d8944e" fill-rule="evenodd"/><path d="M32.63 2.16h1.26l-.13.08a1.22 1.22 0 0 1-.7.09.73.73 0 0 0-.35 0 .4.4 0 0 0 .1.2.82.82 0 0 1 .25-.11 1 1 0 0 1 .43 0 1 1 0 0 0 .34 0 .6.6 0 0 1-.53.06.78.78 0 0 1 .34.48 1.31 1.31 0 0 0-.51-.43 2 2 0 0 1 .37.47 2.22 2.22 0 0 1-.5-.4 1 1 0 0 0 .19.28 1.78 1.78 0 0 1-.31-.2 1.29 1.29 0 0 1-.27-.42s.01-.1.02-.1zM30.53 1.51a7.42 7.42 0 0 0 .79 1.26.64.64 0 0 0 0 .17c-.18-.17-.38-.5-.59-.73a3.12 3.12 0 0 0 .58.86.63.63 0 0 0 .11.25 3.13 3.13 0 0 1-1-1.21c-.11-.35 0-.53.1-.61M33.66 4.12a.35.35 0 0 1-.13.17c.06-.07.07-.1.13-.17M33 4.38a.3.3 0 0 0 .16.05.23.23 0 0 1-.13 0 .25.25 0 0 0 .09.17.19.19 0 0 1-.12-.22M32.37 2.56h-.11a.12.12 0 0 1 .07-.09M31.6 2.24a.14.14 0 0 0 0 .1v-.1" fill="#d8944e" fill-rule="evenodd"/><path d="M30.53 1.59c0 .06.2.37.3.53a4.1 4.1 0 0 1-.31-.46c-.15.22.08.65.17.86-.14-.2-.4-.72-.16-.93M30 3.09a1.35 1.35 0 0 1 .57.21 2 2 0 0 0-.52-.17.75.75 0 0 0 .39.47c-.17-.09-.45-.29-.44-.52M30.17 2.35a5.71 5.71 0 0 1 .5.46c-.13-.1-.34-.31-.47-.39a1 1 0 0 0 .3.65.76.76 0 0 1-.32-.72M31.4 2.84a1 1 0 0 0 .14.24.63.63 0 0 1-.13-.08.74.74 0 0 0 .21.51.56.56 0 0 1-.22-.62M31.22 3.44a.65.65 0 0 1 .34.15.79.79 0 0 0-.29-.1.8.8 0 0 0 .17.29.49.49 0 0 1-.22-.34M30 3.65a1.14 1.14 0 0 1 .52.1 1.44 1.44 0 0 0-.52-.06 1 1 0 0 0 .43.36.78.78 0 0 1-.5-.4M31.41 3.9a.37.37 0 0 0-.28 0 .35.35 0 0 0 .2.22.33.33 0 0 1-.25-.23.32.32 0 0 1 .33 0M31.54 4.05l.23.06a1.71 1.71 0 0 1-.23-.09M32.1 4a.3.3 0 0 0-.23 0 .31.31 0 0 0 .1.21.28.28 0 0 1-.14-.21.29.29 0 0 1 .27 0M31.89 3.31l.21.23a.87.87 0 0 1-.18-.14.64.64 0 0 0 .13.41.52.52 0 0 1-.16-.5M32.09 3.65a1.53 1.53 0 0 1 .31.27V4a2.71 2.71 0 0 1-.27-.32" fill="#d8944e" fill-rule="evenodd"/><path d="M32.23 3.78l.15.15-.14-.17M32 4.12a.92.92 0 0 1 .22.11 2.38 2.38 0 0 1-.2-.15" fill="#d8944e" fill-rule="evenodd"/><path d="M32.15 4.19l.09.05-.09-.07M31.56 5.3a.43.43 0 0 0 0 .08c0 .06-.34.38-.44.53.11-.1.38-.34.46-.44a.26.26 0 0 1 0 .08l-.49.59c-.09.1-.21 0-.29 0s0-.17 0-.27.63-.55.71-.61" fill="#d8944e" fill-rule="evenodd"/><path d="M30.43 5.79a.4.4 0 0 1 .29-.36l.57-.24h.07c-.07 0-.33.2-.5.33.2-.07.56-.3.6-.3a.27.27 0 0 0 .13 0c-.11.08-.62.47-.78.55a.32.32 0 0 1-.37 0M31.35 4.94a.14.14 0 0 0-.05.06 4.22 4.22 0 0 0-.61.17 5 5 0 0 0 .6-.1.35.35 0 0 0 0 .07c-.14.07-.54.18-.62.2a.52.52 0 0 1-.49-.07.51.51 0 0 1 .35-.27c.18 0 .62-.09.83-.11M30.5 4.66a.71.71 0 0 0-.37.15c.05.11.32.15.47.16a.6.6 0 0 1-.54-.16.71.71 0 0 1 .44-.15M30.51 4.22a1.18 1.18 0 0 0-.46 0 .77.77 0 0 0 .44.27c-.17 0-.47-.15-.52-.29a1 1 0 0 1 .54 0M31.41 4.28a.3.3 0 0 0-.27.1.31.31 0 0 0 .2.15.28.28 0 0 1-.24-.16.29.29 0 0 1 .31-.09M32 4.37a.27.27 0 0 0-.19.1.32.32 0 0 0 .12.17.23.23 0 0 1-.16-.17.23.23 0 0 1 .24-.1M31 5.13l.29-.13-.29.13" fill="#d8944e" fill-rule="evenodd"/><path d="M30.56 5.08a.47.47 0 0 0-.3.2.5.5 0 0 0 .39 0 .48.48 0 0 1-.45 0 .43.43 0 0 1 .35-.21M33.05 9.14c0 .1 0 .36.18.45a.35.35 0 0 1-.23-.43s-.1 0-.15.07a.15.15 0 0 1 .18-.09" fill="#d8944e" fill-rule="evenodd"/><path d="M33 9a.3.3 0 0 0-.22.33A.24.24 0 0 1 33 9M33 8.78c.07 0 0 0 0 0a.05.05 0 0 1-.05 0H33M32.77 8.63a.23.23 0 0 0 .14.23.15.15 0 0 1-.14-.23M34.12 8.41a3.28 3.28 0 0 0-.33.68.56.56 0 0 0 .15.56.49.49 0 0 1-.18-.57 2.21 2.21 0 0 1 .36-.67zM33.91 8.27a3.3 3.3 0 0 1-.37.25.71.71 0 0 0-.39.65c0 .27.17.28.25.27a.19.19 0 0 1-.24-.1.65.65 0 0 1 .27-.79c.14-.1.3-.17.49-.28" fill="#d8944e" fill-rule="evenodd"/><path d="M33.35 9a.27.27 0 0 0 .27.06.17.17 0 0 1-.27-.06M33.7 7.1h.02l.04.08-.06-.08zM33.34 6.95l-.12.05.1-.07.02.02zM30.66 5.5a.33.33 0 0 0-.14.24c.09 0 .13.06.24 0-.13.05-.16 0-.27 0a.3.3 0 0 1 .18-.27M31.12 5.4l.26-.17.04.01-.3.16zM31.33 5.69l.23-.28.01.04-.24.24zM30.93 5.89a.24.24 0 0 0-.07.24c.1 0 .17 0 .25-.06-.1.14-.18.09-.28.09s0-.17.1-.27M31.68 5.88l.19-.29v.04l-.19.25zM31.34 6.15c-.07.14 0 .16 0 .24s.17 0 .22-.12c-.06.19-.14.13-.25.16 0-.13-.11-.12 0-.27M32 6.08l.1-.33zM31.8 6.32c0 .15 0 .15.06.22s.18 0 .22-.17c0 .2-.13.15-.22.2-.08-.12-.15-.08-.06-.26M32.5 6.13v-.25zM32.33 6.28c0 .16.08.13.13.19s.16 0 .16-.18c0 .2-.09.14-.17.21-.1-.09-.17 0-.13-.23M31.65 4.72H31.95zM31.44 4.64c-.13 0-.17 0-.21.13a.33.33 0 0 0 .23.09.29.29 0 0 1-.27-.09.24.24 0 0 1 .25-.13M31.71 5l.14-.06-.01.02-.13.04zM31.52 4.95c-.11 0-.11.1-.13.17a.26.26 0 0 0 .19.05h-.24c-.07 0 .06-.17.17-.18M31.72 5.23c-.08.08 0 .13 0 .22s.15 0 .2-.05c-.07.11-.15.07-.24.09 0-.13-.05-.18.06-.26M31.92 5.19l.11-.12h.03l-.14.12zM32.16 5.41l.07-.16.01.03-.08.13zM32 5.49v.18c0 .06.13 0 .18-.07 0 .12-.12.08-.2.1s-.09-.11 0-.22M32.28 5.65c0 .09 0 .11.07.17s.15 0 .17-.1c0 .12-.11.11-.18.14s-.12-.11-.06-.21M32.63 5.74c0 .1.09.1.14.14s.12 0 .13-.14c0 .15-.08.12-.13.18s-.17 0-.14-.18M32.76 5.35l.03-.02-.03.23v-.21zM33.25 5.72c0 .11 0 .12-.08.19s-.17 0-.17-.16c0 .08.09.08.16.12s.09-.06.08-.15M33.05 5.4l.01.01.02-.02.03.2-.06-.19zM32 4.75c-.1 0-.07.1-.09.19s.14.09.21 0c-.08.07-.17 0-.25 0s0-.16.12-.2M32 4.5a.87.87 0 0 1 .25 0 1.7 1.7 0 0 1-.25 0m.14 0h.1-.1" fill="#d8944e" fill-rule="evenodd"/><path d="M32 4.9a1.7 1.7 0 0 1 .2-.15.92.92 0 0 1-.2.15m.12-.08h.09l-.07.05M32.24 5c0 .08 0 .1.05.16s.13 0 .18 0c-.06.1-.12 0-.2 0s-.11-.1 0-.19" fill="#d8944e" fill-rule="evenodd"/><path d="M32.35 5.1a1.09 1.09 0 0 1 .07-.18.52.52 0 0 1-.12.16m.06-.1v-.06.06M32.68 5.19v-.17a.73.73 0 0 1 0 .16m0-.09v-.06zM32.56 5.19c0 .09.07.06.11.11s.12 0 .12-.09c0 .12-.08.07-.12.13s-.13 0-.11-.15M33 5.19a.84.84 0 0 1-.06-.19.76.76 0 0 1 0 .2m0-.09A.89.89 0 0 0 33 5zM32.88 5.22c0 .08.1 0 .16.08s.11-.06.09-.13c0 .11 0 .09-.08.17s-.15 0-.17-.11M33.26 5a.24.24 0 0 1 0-.06zM34.84 1.72a1.65 1.65 0 0 1-.45 0 1.69 1.69 0 0 1-.45 0v-.21a1.66 1.66 0 0 1-.18-.38c-.12-.33.06-.47.34-.53a.13.13 0 0 1 .12 0v.03h.06V.56a.13.13 0 0 1-.07-.12.13.13 0 0 1 0-.1s.07-.08.08-.12a.43.43 0 0 0-.11.09V0s.08.08.11.08a.42.42 0 0 0-.03-.08h.27a.43.43 0 0 0-.09.11l.12-.08v.28a.36.36 0 0 0-.12-.09.37.37 0 0 0 .09.12.12.12 0 0 1 0 .1.13.13 0 0 1-.07.12v.07h.06V.58a.11.11 0 0 1 .11 0c.29.06.47.2.35.53a2.32 2.32 0 0 1-.18.38z" fill="#d8944e" fill-rule="evenodd"/><path d="M34.39 1.68a1.59 1.59 0 0 1-.35 0 1.65 1.65 0 0 1 .35 0 1.71 1.71 0 0 1 .36 0 1.63 1.63 0 0 1-.36 0" fill="#d8944e" fill-rule="evenodd"/><path d="M34 1.69a1.65 1.65 0 0 0 .41 0 1.93 1.93 0 0 0 .41 0 1.37 1.37 0 0 1-.41 0 1.38 1.38 0 0 1-.41 0M34.48 1.12zM35 1.12v.08-.11M35 1.05A.29.29 0 0 0 35 1V.92v.09M35 .87V.8a.22.22 0 0 1 0 .1M35 .76l-.12-.05h.07M34.87.7l-.01-.01.01.01zM34.83.68l-.02.12-.07-.07V.67" fill="#d8944e" fill-rule="evenodd"/><path d="M34.77.66v.06l-.09-.06h.09M34.68.68v.05l-.01.07zM34.65.8l.01.02-.01.01V.8zM34.64.86l.07.07-.03.07zM34.62.92l-.01.08zM34.6 1.05l.06.06h-.06zM34.61 1.19zM34.79 1.44h.05M34.82 1.38zM34.83 1.36h.08l-.05.11M34.92 1.29v-.07l.06-.05v.08M34.59.61h.06l-.1.47zM34.74.74l.06.07-.05.08-.07-.08.06-.07M34.88.89l-.07-.08.06-.09.07.08-.06.08" fill="#d8944e" fill-rule="evenodd"/><path d="M34.81 1l-.06-.11.05-.07.06.07-.05.11M34.74 1h-.06l.06-.1.06.1h-.06M34.67 1.1l-.05-.1h.06l.05.07-.06.05M34.95 1l-.07-.1.06-.08.05.1v.07M34.88 1.06L34.82 1l.06-.07.06.09-.05.07" fill="#d8944e" fill-rule="evenodd"/><path d="M34.81 1.14V1l.07.09-.06.06M34.78 1.11h-.08l.07-.05v.05M34.8 1.15zM34.68 1.14h.06M34.74 1.23v-.01.01zM34.73 1.33h.06M34.93 1.14v-.07l.01-.07v.07l-.06.06" fill="#d8944e" fill-rule="evenodd"/><path d="M34.86 1.21v-.06l.05-.06v.06l-.06.06M34.79 1.28l.06-.05v.06l-.06.06M34.78 1.3v.06h-.07z" fill="#d8944e" fill-rule="evenodd"/><path d="M34.85 1.23v.08h-.08v-.06zM34.47 1.01l.03.01-.01.04-.02-.01v-.04zM34.48.95l.03.01-.01.04-.03-.01.01-.04zM34.48.9l.04.01-.01.03-.03-.01V.9zM34.48.84l.04.01v.03l-.04-.01V.84zM34.48.78l.05.01v.03l-.05-.01V.78zM34.49.72l.05.01v.03l-.05-.01V.72zM34.49.66l.06.01-.01.03-.05-.01V.66zM34.74 1.56zM34.75.78a.07.07 0 0 0 0-.07M34.82.86a.07.07 0 0 0 0-.07M34.9 1a.09.09 0 0 0 0-.07M34.95 1V.94M34.83 1V.94M34.69 1V.93M34.76.94a.06.06 0 0 0 0-.07M34.69.86V.8M34.82.69a.05.05 0 0 0 0-.06M34.89.77a.06.06 0 0 0 0-.06M35 .87a.07.07 0 0 0 0-.08M34.88 1.11zM34.86 1.26V1.2M34.62 1.08v-.05M34.81 1.18a.06.06 0 0 0 0-.06M34.82 1.4h-.17.18M34.6 1.22a.31.31 0 0 1 .19-.08.38.38 0 0 1-.08.1h-.11M34.58 1.17v.06a.24.24 0 0 0 0-.06" fill="#d8944e" fill-rule="evenodd"/><path d="M34.64 1.27a.25.25 0 0 1 .14 0l-.1.07h-.09l.06-.06M34.45 1.21a.41.41 0 0 1 .09-.1.29.29 0 0 1 0 .17l-.06.07a.48.48 0 0 0 0-.12zM34.72 1.35a.23.23 0 0 1-.11.06h-.13a.3.3 0 0 1 .24-.05" fill="#d8944e" fill-rule="evenodd"/><path d="M34.64 1.23a.3.3 0 0 1-.22.16.3.3 0 0 1 .22-.16M34 1.56zM33.8 1.12l.06.06V1.1M33.78 1.05V.96l.05.07v.07zM33.77.94zM33.77.87a.18.18 0 0 1 0-.1l-.05.1zM33.83.76h.07l-.06.08M33.92.7l.01-.01V.7h-.01zM34 .68V.8l-.07-.09M34 .66h.09l-.06.06V.66" fill="#d8944e" fill-rule="evenodd"/><path d="M34.12.68v.11l-.05-.06V.68M34.14.8l.01.03-.02-.01.01-.02zM34.15.86v.05l-.1-.02.07-.07M34.17.92v.1L34.13 1M34.19 1.05v.09h-.06l.05-.14zM34 1.44h.05M34 1.36l-.05-.11h.08M33.87 1.29v-.08l.06.05v.07zM34.2.61l.06.49-.1-.47h.06" fill="#d8944e" fill-rule="evenodd"/><path d="M34.06.74l.06.07-.07.08L34 .81l.06-.07M33.92.89L33.86.8l.06-.08.08.09-.06.07M34 1l-.07-.1.07-.08V1M34.05 1H34l.05-.1.06.07-.06.03M34.12 1.1l-.06-.1h.06l.06.06-.05.06" fill="#d8944e" fill-rule="evenodd"/><path d="M33.85 1V.93a.4.4 0 0 1 .06-.1l.06.08-.12.09" fill="#d8944e" fill-rule="evenodd"/><path d="M33.91 1.06L33.86 1l.06-.09L34 1l-.06.09" fill="#d8944e" fill-rule="evenodd"/><path d="M34 1.14l-.06-.06L34 1v.07z" fill="#d8944e" fill-rule="evenodd"/><path d="M34 1.11v-.05l.07.05h-.08M34.11 1.14h.06M34.05 1.23v-.01l.01.01h-.01zM34.07 1.33h.06M33.86 1.14l-.06-.06v-.07l.06.06zM33.93 1.21l-.06-.06v-.06l.06.06v.06M34 1.28l-.07-.06v-.06l.06.05zM34 1.3v-.06M33.93 1.23l.07.06a.19.19 0 0 0 0 .06h-.07v-.08M34.32 1.01v.04l-.02.01-.01-.04.03-.01zM34.31.95v.04l-.02.01V.96l.02-.01zM34.31.9v.03l-.03.01V.91l.03-.01zM34.31.84v.03l-.04.01V.85l.04-.01zM34.3.78l.01.03-.04.01-.01-.03.04-.01zM34.3.72v.03l-.05.01V.73l.05-.01zM34.3.66v.03l-.05.01-.01-.03.06-.01zM34.34 1.53zM34.26 1.54zM34.18 1.54zM34.12 1.55zM34.06 1.56zM34 .78a.06.06 0 0 0 0 .07zM34 .86a.07.07 0 0 0 0 .07zM33.89 1a.08.08 0 0 0 0 .07z" fill="#d8944e" fill-rule="evenodd"/><path d="M33.84 1a.06.06 0 0 0 0 .06zM34 1v.06zM34.1 1v.07zM34 .94A.05.05 0 0 0 34 1zM34.1.86v.06zM34 .69a.05.05 0 0 0 0 .06zM33.9.77v.06zM33.83.87a.08.08 0 0 0 0 .08zM33.91 1.11v.07zM33.93 1.26v.06zM34.17 1.08v.05zM34 1.18v.06zM34 1.4H34.17 34M34.19 1.22h-.06a.38.38 0 0 1-.09-.1.31.31 0 0 1 .19.08M34.32 1.1" fill="#d8944e" fill-rule="evenodd"/><path d="M34.21 1.17a.28.28 0 0 0 0 .06v-.06M34.15 1.27l.05.06h-.09L34 1.25a.26.26 0 0 1 .14 0M34.34 1.21a.48.48 0 0 0 0 .12.35.35 0 0 0-.06-.07.28.28 0 0 1 0-.17.41.41 0 0 1 .09.1M34.07 1.35a.28.28 0 0 1 .23.05h-.13a.23.23 0 0 1-.11-.06M34.15 1.23a.3.3 0 0 1 .21.16.3.3 0 0 1-.21-.16M34.39 1.45a1 1 0 0 0-.41.06 1.32 1.32 0 0 1 .81 0 1 1 0 0 0-.41-.06M34.39 1.05v.06-.52a.07.07 0 0 0 0 .09M34.44.6v.52-.06M34.39 1.58a1.39 1.39 0 0 0-.41 0 1.75 1.75 0 0 1 .81 0 1.39 1.39 0 0 0-.41 0M34.43 1.22a.35.35 0 0 1 0 .16.4.4 0 0 1 0-.16.37.37 0 0 1 0-.15.32.32 0 0 1 0 .15M34.43.08c0 .06.1 0 .11 0v.16h-.09c-.02 0 0 .1 0 .11h-.13V.26c0-.02-.1 0-.11 0V.1h.09c.02 0 0-.1 0-.11h.13z" fill="#d8944e" fill-rule="evenodd"/><path d="M34.39.34a.1.1 0 0 1 .1.1.1.1 0 0 1-.1.1.1.1 0 0 1-.1-.1.11.11 0 0 1 .1-.1M34.4 1zM34.39.76V.7zM34.39.61v0M34.22 1.76a1.61 1.61 0 0 1-.73.37 4.29 4.29 0 0 1-.91 0 .86.86 0 0 1-.54-.2c-.2-.21.11-.48 0-.69a1.1 1.1 0 0 1-.34.13.61.61 0 0 0 0 .13c0 .24.18.27.12.53s-.11.15-.14.29a.21.21 0 0 0 .07.18.22.22 0 0 1-.23-.3c0-.06.09-.12.09-.19-.1.13-.18.12-.33.07s-.07.08 0 .15a.25.25 0 0 1-.13-.2.12.12 0 0 1 .16-.13s.13.06.14 0-.22-.15-.17-.39.16-.19.37-.21a.73.73 0 0 0 .1-.11c.12-.19.24-.24.31-.2l.2.12a.45.45 0 0 1 .15.09c.09.11 0 .29 0 .4a.5.5 0 0 0-.07.32c0 .13.25.21.38.24a2.28 2.28 0 0 0 .63 0 1.74 1.74 0 0 0 .69-.42 1.48 1.48 0 0 1 .42 0l-.18.18" fill="#d8944e" fill-rule="evenodd"/><path d="M34 1.67a.59.59 0 0 1 .14 0 1.66 1.66 0 0 1-.83.49 1.76 1.76 0 0 0 .69-.49" fill="#d8944e" fill-rule="evenodd"/><path d="M34.29 1.61a1.42 1.42 0 0 1-.89.5 1.61 1.61 0 0 0 .77-.49h.12M31.55 1.39a.26.26 0 0 0 0 .19.38.38 0 0 1 0-.19.35.35 0 0 0 0 .36.3.3 0 0 1 0 .38c0 .06-.16.22-.07.32a.21.21 0 0 1-.05-.35.15.15 0 0 0 0-.2.18.18 0 0 1-.17.17c-.07 0-.21-.1-.25 0 0-.12.08-.1.16-.07s.22-.24.13-.31-.21-.18-.06-.26a.2.2 0 0 0 0 .15.23.23 0 0 1 0-.16.25.25 0 0 0 0 .17.38.38 0 0 1 0-.18.23.23 0 0 0 0 .18.36.36 0 0 1 0-.19zM32.13 1.21a.36.36 0 0 1 0 .17.25.25 0 0 0 0-.17c.13 0 0 .28-.07.41a.35.35 0 0 0 0 .35.31.31 0 0 1-.15-.2.68.68 0 0 1 .05-.24.36.36 0 0 0 0-.31.28.28 0 0 1 0 .17.19.19 0 0 0 0-.18" fill="#d8944e" fill-rule="evenodd"/><path d="M32.13 1.13a.29.29 0 0 1 .14 0c.22.12-.12.46-.09.71s.2.2.3.25c-.23 0-.38-.15-.34-.36s.28-.5.09-.56-.29.12-.48.15-.49 0-.44.26c0 .06.11.11.15.16s0 .26-.1.23-.18 0-.21.05c0-.25.24 0 .29-.12s0-.16-.09-.21a.19.19 0 0 1-.08-.16c0-.24.33-.21.52-.25s.25-.13.36-.15M32 1a.23.23 0 0 0-.15.08.35.35 0 0 1 .2-.08.21.21 0 0 0-.16.06.35.35 0 0 1 .21 0h.06a.54.54 0 0 0-.29.1 1 1 0 0 1-.26.07.68.68 0 0 0 .11-.13c0-.06.13-.17.21-.16" fill="#d8944e" fill-rule="evenodd"/><path d="M31.58 1.79c0 .07.17.12.06.3 0-.16-.08-.21-.06-.3M32.89 1.44a.09.09 0 0 1 0-.07.12.12 0 0 1 0-.06v-.23h.21v.21a.08.08 0 0 1 0 .06.1.1 0 0 1 0 .07.09.09 0 0 1 .08 0c.19 0 .32.14.24.37a1.42 1.42 0 0 1-.1.21v.1h-.66V2a1.52 1.52 0 0 1-.1-.21c-.09-.23 0-.33.24-.37a.08.08 0 0 1 .08 0zM33 1.82zM33.36 1.82v.05M33.37 1.78v.06M33.39 1.7" fill="#d8944e" fill-rule="evenodd"/><path d="M33.38 1.66V1.6a.25.25 0 0 1 0 .07M33.34 1.58v-.05h.05zM33.28 1.54h-.01.01zM33.25 1.53v.06M33.21 1.51h.06M33.15 1.52zM33.13 1.61h.01l-.01.02v-.02zM33.12 1.65zM33.12 1.7zM33.1 1.78zM33.1 1.87zM33.25 2zM33.25 2h.05a.21.21 0 0 0 0 .06V2M33.31 1.94v-.05.05M33.1 1.48l-.06.32zM33.28 1.67v-.11.11M33.24 1.72v.05M33.33 1.73v-.11.06M33.28 1.79v-.06.06M33.24 1.83v.06M33.22 1.82h-.06M33.23 1.85zM33.16 1.84zM33.19 1.9v-.01.01zM33.18 2zM33.22 1.94h-.06zM33.27 1.9h-.05" fill="#d8944e" fill-rule="evenodd"/><circle cx="33.02" cy="1.75" r=".01" transform="rotate(-22.07 33.006 1.753)" fill="#d8944e"/><path fill="#d8944e" fill-rule="evenodd" d="M33.02 1.71l.02.01-.01.02h-.01v-.03zM33.02 1.67l.02.01v.02h-.02v-.03zM33.02 1.63l.03.01-.01.02h-.02v-.03zM33.02 1.59l.03.01v.02l-.03-.01v-.02zM33.02 1.56h.04l-.01.02-.03-.01v-.01zM33.03 1.51l.03.01v.02l-.03-.01v-.02zM33.16 2zM33.1 1.89a.2.2 0 0 1 .12-.06.22.22 0 0 1-.05.07M33.13 1.92h.09-.13M33 1.88a.21.21 0 0 1 .06-.07.21.21 0 0 1 0 .11.19.19 0 0 0 0-.08zM33.18 2H33a.22.22 0 0 1 .16 0"/><path d="M33.13 1.9A.22.22 0 0 1 33 2a.2.2 0 0 1 .15-.11M32.56 1.82v-.05M32.55 1.78a.21.21 0 0 1 0-.06zM32.54 1.7v-.03l.01.01-.01.02zM32.54 1.66a.16.16 0 0 1 0-.07v.06zM32.58 1.58v.05zM32.64 1.54h.01-.01zM32.67 1.53v-.06M32.7 1.51h.06M32.77 1.52v.08M32.79 1.61v.02l-.01-.02h.01zM32.81 1.7v.06M32.82 1.78v.06zM32.67 2v-.06M32.61 1.94v-.05a.15.15 0 0 1 0 .05zM32.83 1.48v.33l-.06-.32M32.64 1.67v-.11.11M32.68 1.72v-.05M32.59 1.73v-.06.11M32.63 1.79v-.06.06M32.68 1.83v-.06zM32.7 1.82h-.06M32.69 1.85zM32.73 1.9v-.01.01zM32.74 2zM32.7 1.93zM32.7 1.94h-.06M32.65 1.9" fill="#d8944e" fill-rule="evenodd"/><ellipse cx="32.91" cy="1.75" rx=".02" ry=".01" transform="rotate(-59.43 32.911 1.757)" fill="#d8944e"/><path fill="#d8944e" fill-rule="evenodd" d="M32.9 1.71l.01.03h-.02v-.02l.01-.01z"/><circle cx="32.9" cy="1.67" r=".02" transform="rotate(-52.21 32.904 1.672)" fill="#d8944e"/><path fill="#d8944e" fill-rule="evenodd" d="M32.9 1.63v.03h-.02v-.02l.02-.01z"/><circle cx="32.9" cy="1.59" r=".02" transform="rotate(-45.1 32.897 1.59)" fill="#d8944e"/><path fill="#d8944e" fill-rule="evenodd" d="M32.9 1.56v.01l-.03.01v-.02h.03zM32.9 1.51v.02l-.04.01-.01-.02.05-.01zM32.72 1.59zM32.67 1.65zM32.62 1.72zM32.59 1.77zM32.67 1.76zM32.76 1.75zM32.72 1.7zM32.76 1.65zM32.68 1.53zM32.63 1.59zM32.58 1.66zM32.63 1.82zM32.65 1.91zM32.81 1.8zM32.68 1.87zM32.69 2zM32.82 1.89a.25.25 0 0 1-.06-.07.22.22 0 0 1 .13.06M32.8 1.92h-.06a.16.16 0 0 1-.07 0h.09M32.93 1.88a.33.33 0 0 0 0 .08.18.18 0 0 1 0-.11l.06.07M32.74 2a.21.21 0 0 1 .16 0H32.75M32.8 1.9a.2.2 0 0 1 .14.11.21.21 0 0 1-.14-.11M33 1.77a.16.16 0 0 0 0 .05v-.35.35a.11.11 0 0 0 0-.05"/><path d="M33 1.89A.26.26 0 0 1 33 2a.25.25 0 0 1 0-.11.25.25 0 0 1 0-.1.26.26 0 0 1 0 .1M33 1.12h.08v.09h-.07c-.07 0 0 .06 0 .07h-.09a.15.15 0 0 0 0-.06h-.08v-.08h.06v-.08h.1M33 1.3a.07.07 0 1 1-.07.07.07.07 0 0 1 .07-.07M33 2.07zM33 2.1zM33.06 2.1zM33.11 2.07l-.01-.01h.02l-.01.01zM33.11 2.1h-.01l.01-.01v.01zM33.16 2.07v-.01h.01l-.01.01zM33.16 2.1zM33.21 2.07v-.01h.01l-.01.01zM33.21 2.09h-.01.01zM32.67 2.08zM32.93 2.07zM32.92 2.1zM32.81 2.06h.01-.01zM32.81 2.1v-.01l.01.01h-.01zM32.76 2.06h-.01.01zM32.76 2.1v-.01l.01.01h-.01zM32.71 2.07l-.01-.01h.02l-.01.01zM32.72 2.09zM32.79 2.06zM33 2.08" fill="#d8944e" fill-rule="evenodd"/><path d="M33 2h-.29A2.76 2.76 0 0 1 33 2a2.66 2.66 0 0 1 .29 0H33M33 2.13h-.29.58H33M33 1.7zm0-.09zm0 0zm0-.1M34.39 9.92V10a.5.5 0 0 0 .23-.23c0 .08-.12.19-.2.2M34.39 9.76v.12a.3.3 0 0 0 .17-.18.38.38 0 0 1-.07-.14h.09a2.13 2.13 0 0 0 0-.38 1.09 1.09 0 0 1 0 .38 2.82 2.82 0 0 0-.07-.76 5.09 5.09 0 0 1-.14-.68 5 5 0 0 0 0 .81v.81" fill="#d8944e" fill-rule="evenodd"/><path d="M34.52 7.95a1.86 1.86 0 0 0 .16.7 2 2 0 0 1 .19.56c0 .25-.08.43-.3.4a.29.29 0 0 0 .2.16.38.38 0 0 0 .41-.15v-.07a.09.09 0 0 0-.14 0c-.07-.16 0-.26.17-.28a.5.5 0 0 0 0-.13.21.21 0 0 1-.17-.24h.07a1.66 1.66 0 0 0-.32-.49 1.45 1.45 0 0 1-.29-.5z" fill="#d8944e" fill-rule="evenodd"/><path d="M34.6 7.78a.28.28 0 0 0 .05.31 2.24 2.24 0 0 0 .43.41.71.71 0 0 1 .2.19c.06.11 0 .28-.09.3h-.07a.16.16 0 0 0 .07.11.22.22 0 0 0 .28-.1.17.17 0 0 1-.07.31c-.14 0-.31 0-.29.18.1-.06.16 0 .22.06a.29.29 0 0 0 .45-.13.49.49 0 0 0 0-.25c.18.08.12.24.2.32 0-.12.12-.17.15-.26a.29.29 0 0 0-.3-.34c.12 0 .21-.05.23-.14a.22.22 0 0 0-.12-.25c.05.1-.08.27-.28.17s-.21-.18-.33-.24a4.6 4.6 0 0 1-.51-.26.49.49 0 0 1-.24-.4" fill="#d8944e" fill-rule="evenodd"/><path d="M34.79 7.64c-.15.22-.06.45.07.45h.23c0-.1-.17-.15-.21-.17s-.13-.13-.09-.33M36 7.41a.42.42 0 0 1 0 .18.34.34 0 0 0-.08-.08 1.09 1.09 0 0 1 0 .26.27.27 0 0 0 .08.09V7.8a.26.26 0 0 1 0-.26.74.74 0 0 0 0-.13" fill="#d8944e" fill-rule="evenodd"/><path d="M35.79 7.43h-.07a.45.45 0 0 1 .07.19c0 .17 0 .32.12.38v-.1a1 1 0 0 0 0-.38l-.07-.05a.47.47 0 0 1 0 .26.66.66 0 0 0-.07-.27" fill="#d8944e" fill-rule="evenodd"/><path d="M35.55 7.32a.42.42 0 0 1 .13.36c0 .1-.08.13 0 .26 0-.07.1-.12.11-.22a.39.39 0 0 0-.21-.4M34.91 7.25a.83.83 0 0 1-.2.24c-.08.21-.11.31 0 .46a.46.46 0 0 1 .15-.38l.09-.31" fill="#d8944e" fill-rule="evenodd"/><path d="M35.36 7.26a.37.37 0 0 0-.26.06c.24 0 .39.07.41.25s-.06.28-.23.25a.16.16 0 0 0 .15 0 .22.22 0 0 1-.21 0 .23.23 0 0 0 .37 0 .37.37 0 0 0-.23-.57M34.39 7.93v.15a1.78 1.78 0 0 0 .32-.91 1.15 1.15 0 0 1-.16.4c0 .07-.13.14-.14.24a.34.34 0 0 1 0 .12M35.7 7.17a1.8 1.8 0 0 1 .18.18 2.83 2.83 0 0 0-.25-.13s.11.17.12.17a.68.68 0 0 1 .25.14c0-.25-.11-.34-.3-.36M36 7.17l-.08-.03.13.09-.05-.06z" fill="#d8944e" fill-rule="evenodd"/><path d="M36.17 7.22h-.15a.36.36 0 0 1 .08.16.51.51 0 0 0-.16-.15h-.07a.79.79 0 0 1 .25.39.31.31 0 0 0 0-.36" fill="#d8944e" fill-rule="evenodd"/><path d="M36.21 7.11a.8.8 0 0 1 0 .12.33.33 0 0 1-.09.39v-.06a.24.24 0 0 0 0 .17.27.27 0 0 0 .16.18.4.4 0 0 1 0-.32c.06-.17.13-.34 0-.49M34.39 7.58v.15a1.19 1.19 0 0 0 .3-.63c-.2.05-.27.22-.3.48M35.66 7.16h-.13l.07.06.18.09-.12-.11M34.86 7.1h-.02l-.02.08.04-.08z" fill="#d8944e" fill-rule="evenodd"/><path d="M34.95 7.1h-.06a.66.66 0 0 1-.09.17 1.47 1.47 0 0 1 0-.17h-.09a1.16 1.16 0 0 1 0 .34.66.66 0 0 0 .12-.12 1 1 0 0 0 .11-.22M35.18 7.09h-.07a1.13 1.13 0 0 1-.12.18c0-.08 0-.14.06-.18H35l-.13.4a1.86 1.86 0 0 0 .32-.41M35.23 7.09h-.03v.01l.15.03-.12-.04z" fill="#d8944e" fill-rule="evenodd"/><path d="M35.39 7l-.12.05a.51.51 0 0 1 .2.1 1.91 1.91 0 0 0-.28-.05l-.09.16a.53.53 0 0 1 .62.1 1 1 0 0 0-.33-.36M35.66 6.93H35.87h-.22M36 6.91a.44.44 0 0 1-.17 0 .52.52 0 0 1 .22.1 1.18 1.18 0 0 0-.28 0 .49.49 0 0 1 .11.09 1.8 1.8 0 0 0 .31.11.29.29 0 0 0-.19-.3" fill="#d8944e" fill-rule="evenodd"/><path d="M36.06 6.87a.34.34 0 0 1 .18.17.26.26 0 0 1 .13.16.41.41 0 0 1 0 .27.18.18 0 0 0 .17.18.16.16 0 0 1-.18-.14.14.14 0 0 0 .08.18.17.17 0 0 0 .2 0c-.29 0 0-.38-.15-.59a.43.43 0 0 0-.35-.23M35.5 6.85v.06l.19.14C35.6 7 35.51 7 35.45 7a.89.89 0 0 0 .51.16 1.3 1.3 0 0 0-.4-.31M35.53 6.46v.1a.46.46 0 0 0 .13.19.33.33 0 0 1-.13-.12.64.64 0 0 1 0 .2l.12.06a.31.31 0 0 0 .35-.08.34.34 0 0 1-.39 0 .33.33 0 0 0 .33 0 .3.3 0 0 1-.33-.24.46.46 0 0 1-.11-.12M35.53 5.93v.45a.32.32 0 0 0 .17.17.72.72 0 0 1 0-.61l-.1.06a1.59 1.59 0 0 0 0 .3.82.82 0 0 1 0-.3.14.14 0 0 0-.05-.07M36.3 5.89v.41c0-.08-.09-.39-.1-.42s-.07 0-.09.07 0 .37 0 .41.13.14.19.18.19-.08.18-.18 0-.29-.06-.43h-.14M36.68 5.76c0 .12.14.48.15.55-.06-.11-.19-.42-.23-.53s0 .07-.07.1.17.57.19.63.17.06.22.11.16-.11.12-.21a4.79 4.79 0 0 0-.29-.64zM37.09 5.57a.4.4 0 0 1-.17 0s.31.47.37.62c-.07-.06-.3-.39-.38-.48a.29.29 0 0 0 0 .1 6.58 6.58 0 0 0 .38.67c.07.07.15 0 .23 0s.1-.11.08-.22a5.62 5.62 0 0 0-.47-.68" fill="#d8944e" fill-rule="evenodd"/><path d="M35.5 5.77c0 .1.06.12.11.19s.18-.06.19-.13 0-.36 0-.46h-.08c0 .08-.09.26-.11.32s0-.34 0-.34l-.06-.05a4.23 4.23 0 0 0-.13.45M36 5.32a.11.11 0 0 1-.07.08v.47c0 .05.1.09.17.14s.18-.06.18-.17 0-.3-.05-.4a.36.36 0 0 0-.07-.06 2.69 2.69 0 0 1 0 .35v-.4M36.29 5.29l-.02.03.06.16-.04-.19z" fill="#d8944e" fill-rule="evenodd"/><path d="M36.31 5.27c0 .1.06.28.07.36a2.33 2.33 0 0 1-.13-.3h-.06a4 4 0 0 0 .07.41c0 .1.13.09.21.12s.14-.12.09-.26l-.16-.33h-.09M35.61 5.28a.09.09 0 0 1 0-.05.12.12 0 0 1-.07 0v.28zM36.63 5.15v.09a1.58 1.58 0 0 1 .12.3 2.52 2.52 0 0 1-.18-.26h-.09c0 .08.1.22.17.36s.15.06.23.08.07-.13 0-.2a4.06 4.06 0 0 0-.25-.38M36.84 5h-.06a2.52 2.52 0 0 1 .2.25l-.28-.24h-.07a.14.14 0 0 1 0 .06 3.18 3.18 0 0 0 .26.34.39.39 0 0 0 .26.06c0-.1.08-.18 0-.27a3.27 3.27 0 0 0-.31-.2M37.34 4.93l-.41-.09a.16.16 0 0 0 0 .07l.31.14a1.38 1.38 0 0 1-.29-.05h-.07c.06 0 .18.12.3.17a.36.36 0 0 0 .29 0c0-.09 0-.2-.13-.22M38 4.81h-.34a2.19 2.19 0 0 0 .34 0" fill="#d8944e" fill-rule="evenodd"/><path d="M38.8 4.8a.78.78 0 0 0-.53-.18h-.67a.27.27 0 0 1 .09.11 5.08 5.08 0 0 1 .61.06 3.31 3.31 0 0 1-.62 0 .2.2 0 0 1-.13.07 6.46 6.46 0 0 0 .75.1.51.51 0 0 0 .51-.2" fill="#d8944e" fill-rule="evenodd"/><path d="M37.45 4.61L37 4.6l-.07.06.35.07h-.43a.14.14 0 0 1 .06.09c.09 0 .44.08.44.08a.27.27 0 0 0 .28-.11.24.24 0 0 0-.2-.17M37.28 4.41h-.23.19M38.07 4.39h-.29zM35.84 4.32a.29.29 0 0 1-.31.05v.28c.2 0 .4-.11.31-.33M34.58 4.21v.17h.06s0-.11-.06-.17M37.74 4.37a.31.31 0 0 0-.37-.13l-.42.09.05.07a3.11 3.11 0 0 1 .39 0 1.24 1.24 0 0 1-.34.07v.09a4.07 4.07 0 0 0 .44 0 .33.33 0 0 0 .26-.18M34.89 4.14v.24H35a1 1 0 0 1-.09-.24M35 4.07c0 .11.07.25.08.31h.09a2 2 0 0 1-.17-.31" fill="#d8944e" fill-rule="evenodd"/><path d="M38.89 4.21a1 1 0 0 0-.63 0l-.52.12a.23.23 0 0 1 0 .07 3.63 3.63 0 0 1 .6 0c-.2.06-.65.13-.66.13a.46.46 0 0 1-.18.11h.79c.14 0 .5-.14.56-.36M34.76 4.08a1.3 1.3 0 0 0 0 .3h.11a1.12 1.12 0 0 0-.11-.3M34.42 4.08v.3h.12c0-.1-.09-.19-.12-.3M38.07 4l-.33.1a3 3 0 0 0 .33-.1M34.66 3.8a2 2 0 0 0-.06.37l.08.21h.05a1.64 1.64 0 0 1 0-.32v-.17a.92.92 0 0 0 0 .28 2.26 2.26 0 0 1 0-.37M34.92 3.84a.58.58 0 0 0 .09.54h.07a2.06 2.06 0 0 1-.08-.53 3 3 0 0 0 0 .31 1.62 1.62 0 0 1-.06-.31M35.17 3.76a.43.43 0 0 0 .19.35.3.3 0 0 1-.17-.16.75.75 0 0 0 0 .17.24.24 0 0 0 .37-.05c-.22.09-.37-.09-.43-.31M37.77 3.89a.35.35 0 0 0-.37 0l-.34.11a.31.31 0 0 1 0 .08A3.56 3.56 0 0 1 37.4 4a2.32 2.32 0 0 1-.39.16.32.32 0 0 1-.12.12 3 3 0 0 0 .68-.15.36.36 0 0 0 .2-.25M37.12 3.78a2 2 0 0 0-.21.12l.18-.13" fill="#d8944e" fill-rule="evenodd"/><path d="M35 3.63a.81.81 0 0 0 .23.75h.24c-.28-.11-.4-.37-.44-.74a1 1 0 0 0 0 .28 1 1 0 0 1 0-.28M38.91 3.62a1.18 1.18 0 0 0-.6.09c-.09 0-.4.17-.48.21a.5.5 0 0 1-.06.13 6.52 6.52 0 0 1 .73-.22 5.91 5.91 0 0 1-.83.33h-.06l.12.05a4.8 4.8 0 0 0 .55-.12c.3-.09.62-.28.65-.52zM38.07 3.55l-.44.23h.06a3.55 3.55 0 0 0 .38-.24M34.87 3.44a2.32 2.32 0 0 0-.14.41 1.25 1.25 0 0 0 .14.42 1.63 1.63 0 0 1 0-.48 2.39 2.39 0 0 1 0-.35 3.33 3.33 0 0 0-.09.41 2.66 2.66 0 0 1 .06-.41M34.67 3.43c0 .09-.1.39-.11.44a3.72 3.72 0 0 1 .08-.44s-.07.17-.07.22a4.09 4.09 0 0 0-.12.4 1.3 1.3 0 0 0 .12.28 2.13 2.13 0 0 1 0-.44 1.11 1.11 0 0 0 0-.16 3 3 0 0 0 0-.3M37.63 3.4c-.4 0-.61.33-.87.52h.11s.27-.18.42-.24a1.79 1.79 0 0 1-.33.26.22.22 0 0 1 .1.06l.39-.2a.6.6 0 0 0 .18-.39M37.11 3.35l-.11.1.11-.15" fill="#d8944e" fill-rule="evenodd"/><path d="M36.86 4.67c.12 0 .15-.14.18-.2s-.11-.15-.23-.12l-.22.05c.26-.05.43-.16.43-.38-.19-.13-.38 0-.52.15.1-.16.25-.23.36-.36a.6.6 0 0 0 .08-.55c-.22.29-.61.56-.71.8s.15.29.2.46-.07.33-.3.41a.38.38 0 0 1-.47-.18h-.11v.18a.5.5 0 0 0 0 .11v.14h.06a.08.08 0 0 1-.06.07.09.09 0 0 0 .06 0 1.64 1.64 0 0 0 .06-.25 1.64 1.64 0 0 0-.07.22c0 .1.06.11.11.17s.17 0 .19-.12A2 2 0 0 0 36 5v.2c0 .03.09.08.15.13s.15-.06.14-.15a1.31 1.31 0 0 0-.06-.2s.06.17.09.22.13 0 .22 0 .12-.12.06-.2l-.13-.15a2.08 2.08 0 0 0 .15.15c.08.06.23-.05.27-.06s0-.19-.09-.24a1.46 1.46 0 0 0-.2 0h.22M38 3.13a2.89 2.89 0 0 0-.32.22 3 3 0 0 0 .3-.25M34.89 3l-.11.21a1.64 1.64 0 0 0-.1.82c.06-.36.23-.64.25-.79a1.17 1.17 0 0 0-.21.39 4.88 4.88 0 0 1 .17-.63M38.81 3a1.2 1.2 0 0 0-.67.22c-.12.07-.35.21-.51.33s-.05.06-.14.18h.1a7.85 7.85 0 0 1 .76-.38 3.77 3.77 0 0 1-.63.41l.1.07a3 3 0 0 0 .61-.27c.17-.1.4-.26.38-.56z" fill="#d8944e" fill-rule="evenodd"/><path d="M34.88 3a4.48 4.48 0 0 0-.41.56 1.37 1.37 0 0 0 0 .51A2.82 2.82 0 0 1 34.88 3M35.13 3a.74.74 0 0 0-.19.24A2.8 2.8 0 0 0 35 4a1.43 1.43 0 0 1 .12-.61 1 1 0 0 0 .11.69 1.62 1.62 0 0 1 0-.82.66.66 0 0 1 .09-.18.86.86 0 0 0-.32.32 3.22 3.22 0 0 1 .13-.4M36.18 3a.47.47 0 0 0-.4-.05c.13 0 .38 0 .44.21a.11.11 0 0 0 0-.16M36.17 2.83a.45.45 0 0 0-.22 0c.39 0 .4.19.56.23a.28.28 0 0 0 .33-.14.36.36 0 0 1-.29 0 2.48 2.48 0 0 0-.38-.13" fill="#d8944e" fill-rule="evenodd"/><path d="M35.17 2.74c0 .06-.16.24-.22.3a2.14 2.14 0 0 1 .2-.3l-.15.13a2.16 2.16 0 0 0-.17.5 2.28 2.28 0 0 1 .34-.44.79.79 0 0 1 0-.19M37.39 2.76a1.41 1.41 0 0 1-.4.52.46.46 0 0 1 0 .15l.23-.24a1.07 1.07 0 0 1-.24.34.74.74 0 0 1 0 .17l.35-.31a.54.54 0 0 0 .1-.63M37.86 2.58a5 5 0 0 1-.34.4V3a2.77 2.77 0 0 0 .34-.45M35.07 2.64c-.06 0-.23.25-.28.28a2.34 2.34 0 0 1 .21-.29.64.64 0 0 1-.21.1 2.26 2.26 0 0 0-.34.69c.21-.35.43-.48.58-.79" fill="#d8944e" fill-rule="evenodd"/><path d="M35.53 2.56a1.12 1.12 0 0 0-.36.34 2.74 2.74 0 0 0-.14.38.72.72 0 0 1 .28-.28 1.69 1.69 0 0 1 .25-.21 1.18 1.18 0 0 0 .14-.18 3.77 3.77 0 0 1-.49.35 3.06 3.06 0 0 1 .31-.45M35.41 2.45h-.18a1.67 1.67 0 0 0-.25.37 2.8 2.8 0 0 0 .43-.39M35.11 2.47a.58.58 0 0 1-.44.23.51.51 0 0 0 .52-.22h-.08M35.73 2.34a.13.13 0 0 0 .08 0 .12.12 0 0 0-.08 0M35.89 2.31h-.12l.12.06a.07.07 0 0 1 0-.08M36.05 2.31c0 .06 0 .1-.09.11a.23.23 0 0 0 .08-.15M36.64 2.49a.35.35 0 0 0-.33-.18 2.16 2.16 0 0 1-.71.69s.12 0 .19-.08a1 1 0 0 1 .49-.22.41.41 0 0 1 .31.11.32.32 0 0 0 0-.3M38.65 2.28c-.15.08-.75.74-1.3 1.13a1 1 0 0 1 .27-.06s.44-.33.64-.45a4.27 4.27 0 0 1-.58.52.25.25 0 0 1 0 .11 5.18 5.18 0 0 0 .78-.53.63.63 0 0 0 .18-.69" fill="#d8944e" fill-rule="evenodd"/><path d="M36.27 2.29c0-.06 0-.09-.06 0a1.18 1.18 0 0 1-.25.38 1.34 1.34 0 0 1-.33.21 1 1 0 0 0-.35.29.74.74 0 0 0-.1.41 1.21 1.21 0 0 1 .43-.62 1.45 1.45 0 0 0 .39-.38 2.86 2.86 0 0 0 .23-.29" fill="#d8944e" fill-rule="evenodd"/><path d="M36.16 2.16L35 2.17h-.11l.13.08a1.21 1.21 0 0 0 .7.09.73.73 0 0 1 .35 0 .4.4 0 0 1-.1.2.81.81 0 0 0-.25-.11 1 1 0 0 0-.43 0 1 1 0 0 1-.34 0 .6.6 0 0 0 .53.06.79.79 0 0 0-.34.48 1.3 1.3 0 0 1 .51-.43 2 2 0 0 0-.37.47 2.22 2.22 0 0 0 .5-.4 1 1 0 0 1-.19.28 1.82 1.82 0 0 0 .31-.2 1.3 1.3 0 0 0 .27-.42s0-.11-.01-.11zM38.26 1.51a7.43 7.43 0 0 1-.79 1.26.68.68 0 0 1 0 .17c.17-.17.38-.5.59-.73a3.16 3.16 0 0 1-.59.86.65.65 0 0 1-.11.25 3.14 3.14 0 0 0 1-1.21c.11-.35 0-.53-.1-.61M35.13 4.12a.36.36 0 0 0 .13.17c-.06-.07-.07-.1-.13-.17M35.81 4.38a.3.3 0 0 1-.16.05.23.23 0 0 0 .13 0 .25.25 0 0 1-.09.17.19.19 0 0 0 .12-.23M36.43 2.56h.11a.12.12 0 0 0-.07-.09M37.19 2.24a.14.14 0 0 1 0 .1.06.06 0 0 0 0-.1" fill="#d8944e" fill-rule="evenodd"/><path d="M38.27 1.59c0 .06-.2.37-.3.53a4.74 4.74 0 0 0 .31-.46c.15.22-.08.65-.17.86.14-.2.4-.72.16-.93M38.76 3.09a1.34 1.34 0 0 0-.57.21 1.92 1.92 0 0 1 .52-.17.76.76 0 0 1-.39.47c.17-.09.44-.29.44-.52M38.63 2.35a5.43 5.43 0 0 0-.5.46c.13-.1.34-.31.47-.39a1 1 0 0 1-.3.65.76.76 0 0 0 .32-.72M37.39 2.84a1 1 0 0 1-.15.24.63.63 0 0 0 .14-.08.74.74 0 0 1-.21.51.56.56 0 0 0 .23-.62M37.57 3.44a.65.65 0 0 0-.34.15.8.8 0 0 1 .29-.1.78.78 0 0 1-.17.29.49.49 0 0 0 .22-.34M38.84 3.65a1.12 1.12 0 0 0-.53.1 1.43 1.43 0 0 1 .46-.06 1.06 1.06 0 0 1-.43.36.79.79 0 0 0 .5-.4M37.38 3.9a.38.38 0 0 1 .28 0 .35.35 0 0 1-.2.22.33.33 0 0 0 .25-.23.32.32 0 0 0-.33 0M37.26 4.05l-.26.06a1.72 1.72 0 0 0 .24-.09M36.69 4a.3.3 0 0 1 .23 0 .3.3 0 0 1-.1.21A.28.28 0 0 0 37 4a.29.29 0 0 0-.27 0M36.9 3.31l-.22.23a.82.82 0 0 0 .18-.14.64.64 0 0 1-.13.41.52.52 0 0 0 .16-.5M36.7 3.65a1.53 1.53 0 0 0-.31.27V4a2.72 2.72 0 0 0 .27-.32" fill="#d8944e" fill-rule="evenodd"/><path d="M36.56 3.78l-.15.15.14-.17M36.76 4.12a.94.94 0 0 0-.23.11 2.24 2.24 0 0 0 .2-.15" fill="#d8944e" fill-rule="evenodd"/><path d="M36.64 4.19l-.09.05.09-.07M37.24 5.3a.54.54 0 0 1 0 .08c0 .06.34.38.44.53-.11-.1-.38-.34-.46-.44a.26.26 0 0 0 0 .08l.49.59c.09.1.21 0 .3 0s0-.17 0-.27-.63-.55-.71-.61" fill="#d8944e" fill-rule="evenodd"/><path d="M38.36 5.79a.4.4 0 0 0-.29-.36l-.57-.23h-.07c.07 0 .33.2.5.33-.2-.07-.56-.3-.6-.3a.28.28 0 0 1-.13 0c.11.08.62.47.78.55a.32.32 0 0 0 .37 0M37.44 4.94a.14.14 0 0 1 .05.08 4.29 4.29 0 0 1 .61.17 5.08 5.08 0 0 1-.6-.1.29.29 0 0 1 0 .07c.14.07.54.18.62.2a.52.52 0 0 0 .49-.07.52.52 0 0 0-.34-.29c-.18 0-.62-.09-.83-.11M38.3 4.66a.71.71 0 0 1 .37.15c-.05.11-.32.15-.47.16a.6.6 0 0 0 .54-.16.71.71 0 0 0-.44-.15M38.28 4.22a1.19 1.19 0 0 1 .46 0 .78.78 0 0 1-.44.27c.17 0 .47-.15.52-.29a1 1 0 0 0-.54 0M37.38 4.28a.3.3 0 0 1 .27.1.31.31 0 0 1-.2.15.28.28 0 0 0 .24-.16.29.29 0 0 0-.31-.09M36.76 4.37a.27.27 0 0 1 .19.1.31.31 0 0 1-.12.17.23.23 0 0 0 .17-.17.23.23 0 0 0-.24-.1" fill="#d8944e" fill-rule="evenodd"/><path d="M37.83 5.13L37.5 5l.32.06M38.23 5.08a.46.46 0 0 1 .29.2.49.49 0 0 1-.39 0 .48.48 0 0 0 .45 0 .43.43 0 0 0-.35-.21M35.74 9.14c0 .1 0 .36-.18.45a.35.35 0 0 0 .21-.42s.1 0 .14.07a.14.14 0 0 0-.18-.09M35.8 9a.3.3 0 0 1 .2.3.24.24 0 0 0-.2-.3M35.77 8.78c-.07 0 0 0 0 0a.05.05 0 0 0 .05 0h-.08M36 8.63a.22.22 0 0 1-.15.23.15.15 0 0 0 .15-.23M34.68 8.41a3.33 3.33 0 0 1 .33.68.57.57 0 0 1-.15.56.49.49 0 0 0 .14-.58 2.18 2.18 0 0 0-.36-.67M34.88 8.27a3.3 3.3 0 0 0 .38.25.71.71 0 0 1 .39.65c0 .27-.17.28-.25.27a.19.19 0 0 0 .24-.1.65.65 0 0 0-.27-.79c-.14-.1-.3-.17-.49-.28" fill="#d8944e" fill-rule="evenodd"/><path d="M35.44 9a.27.27 0 0 1-.27.06.17.17 0 0 0 .27-.06M35.09 7.1h-.02l-.03.08.05-.08zM35.45 6.95l.12.05-.1-.07-.02.02zM38.14 5.5a.33.33 0 0 1 .14.24c-.09 0-.13.06-.24 0 .13.05.16 0 .27 0a.3.3 0 0 0-.18-.27M37.68 5.4l-.27-.17-.03.01.3.16zM37.47 5.69l-.24-.28v.04l.24.24zM37.86 5.89a.23.23 0 0 1 .07.24c-.1 0-.17 0-.25-.06.09.14.18.09.28.09s0-.17-.1-.27M37.12 5.88l-.2-.29v.04l.2.25zM37.45 6.15c.06.14 0 .16 0 .24s-.17 0-.22-.12c.06.19.14.13.25.16 0-.13.11-.12 0-.27M36.75 6.08l-.1-.33zM37 6.32c0 .15 0 .15-.06.22s-.18 0-.22-.17c0 .2.13.15.23.2.07-.12.15-.08.06-.26M36.3 6.13v-.25zM36.46 6.28c0 .16-.08.13-.13.19s-.16 0-.16-.18c0 .2.09.14.16.21.1-.09.17 0 .13-.23M37.14 4.72H36.84zM37.35 4.64c.13 0 .17 0 .21.13a.33.33 0 0 1-.23.09.29.29 0 0 0 .27-.09.24.24 0 0 0-.25-.13M37.09 5l-.14-.06v.02l.14.04zM37.27 4.95c.11 0 .11.1.13.17a.26.26 0 0 1-.2.05.25.25 0 0 0 .24 0c0-.11-.05-.17-.17-.18M37.07 5.23c.08.08 0 .13 0 .22s-.15 0-.2-.05c.07.11.15.07.24.09 0-.13.05-.18-.06-.26M36.87 5.19l-.11-.12h-.03l.14.12zM36.63 5.41l-.07-.16-.01.03.08.13zM36.81 5.49v.18c0 .06-.13 0-.18-.07 0 .12.12.08.2.1s.09-.11 0-.22M36.52 5.65c0 .09 0 .11-.07.17s-.15 0-.17-.1c0 .12.11.11.18.14s.12-.11.06-.21M36.16 5.74c0 .1-.09.1-.14.14s-.12 0-.13-.14c0 .15.07.12.13.18s.17 0 .14-.18M36.03 5.35L36 5.33l.03.23v-.21zM35.55 5.72c0 .11 0 .12.07.19s.17 0 .17-.16c0 .08-.09.08-.16.12s-.09-.06-.08-.15M35.74 5.4l-.01.01-.02-.02-.02.2.05-.19zM36.76 4.75c.1 0 .07.1.09.19s-.14.09-.21 0c.09.07.17 0 .25 0s0-.16-.12-.2M36.83 4.5a.85.85 0 0 0-.25 0 1.7 1.7 0 0 0 .25-.06m-.14 0h-.1.1" fill="#d8944e" fill-rule="evenodd"/><path d="M36.75 4.9a1.76 1.76 0 0 0-.2-.15.92.92 0 0 0 .23.11m-.12-.08h-.09l.07.05M36.55 5c0 .08 0 .1-.05.16s-.13 0-.18 0c.06.1.12 0 .2 0s.11-.1 0-.19" fill="#d8944e" fill-rule="evenodd"/><path d="M36.44 5.1a1 1 0 0 0-.08-.18.54.54 0 0 0 .12.16m-.1-.08v-.06V5M36.12 5.19a1.6 1.6 0 0 0 0-.17.73.73 0 0 0 0 .16m0-.09v-.06zM36.23 5.19c0 .09-.07.06-.11.11s-.12 0-.12-.09c0 .12.07.07.12.13s.13 0 .11-.15M35.79 5.19a.84.84 0 0 0 .06-.19.76.76 0 0 0 0 .2m0-.09a.84.84 0 0 1 0-.1zM35.92 5.22c0 .08-.1 0-.16.08s-.11-.06-.1-.13c0 .11.05.09.08.17s.15 0 .17-.11M35.53 5a.26.26 0 0 0 0-.06zM34.58 1.76a1.6 1.6 0 0 0 .73.37 4.28 4.28 0 0 0 .91 0 .85.85 0 0 0 .54-.2c.2-.21-.12-.48 0-.69a1.08 1.08 0 0 0 .34.13.6.6 0 0 1 0 .13c0 .24-.18.27-.12.53s.11.15.14.29a.23.23 0 0 1-.07.18.22.22 0 0 0 .23-.3c0-.06-.09-.12-.09-.19.1.13.18.12.33.07s.07.08 0 .15A.25.25 0 0 0 37.7 2a.12.12 0 0 0-.16-.13s-.13.06-.14 0 .22-.15.17-.39-.16-.19-.37-.21a.78.78 0 0 1-.1-.11C37 1 36.87.91 36.8.94l-.2.12a.46.46 0 0 0-.15.09c-.09.11 0 .29 0 .4a.5.5 0 0 1 .08.32c0 .13-.25.21-.38.24a2.28 2.28 0 0 1-.63 0 1.73 1.73 0 0 1-.69-.42 1.51 1.51 0 0 0-.43 0l.18.18" fill="#d8944e" fill-rule="evenodd"/><path d="M34.81 1.67a.6.6 0 0 0-.15 0 1.66 1.66 0 0 0 .83.49 1.75 1.75 0 0 1-.69-.45" fill="#d8944e" fill-rule="evenodd"/><path d="M34.5 1.61a1.42 1.42 0 0 0 .89.5 1.62 1.62 0 0 1-.77-.49h-.12M37.24 1.39a.26.26 0 0 1 0 .19.38.38 0 0 0 0-.19.35.35 0 0 1 0 .36.3.3 0 0 0 0 .38c0 .06.16.22.07.32a.21.21 0 0 0 .05-.35.15.15 0 0 1 0-.2.18.18 0 0 0 .17.17c.07 0 .21-.1.25 0 0-.12-.08-.1-.16-.07-.23 0-.22-.24-.13-.31s.21-.18.06-.26a.2.2 0 0 1 0 .15.27.27 0 0 0 0-.16.25.25 0 0 1 0 .17.38.38 0 0 0 0-.18.24.24 0 0 1 0 .18.36.36 0 0 0 0-.19M36.66 1.21a.36.36 0 0 0 0 .17.27.27 0 0 1 0-.17c-.13 0 0 .28.07.41a.36.36 0 0 1 0 .35.31.31 0 0 0 .15-.2.68.68 0 0 0-.06-.24.34.34 0 0 1 0-.31.28.28 0 0 0 0 .17.19.19 0 0 1 0-.18" fill="#d8944e" fill-rule="evenodd"/><path d="M36.67 1.13a.29.29 0 0 0-.14 0c-.22.12.12.46.09.71s-.2.2-.3.25c.23 0 .38-.15.34-.36s-.28-.5-.09-.56.29.12.48.15.49 0 .45.26c0 .06-.11.11-.15.16s0 .26.1.23.18 0 .21.05c0-.25-.24 0-.29-.12s0-.16.09-.21a.19.19 0 0 0 .08-.16c0-.24-.33-.21-.51-.25s-.25-.13-.36-.15M36.83 1h-.06a.23.23 0 0 1 .15.08.34.34 0 0 0-.18-.08.21.21 0 0 1 .16.06.34.34 0 0 0-.2 0h-.06a.53.53 0 0 1 .29.1 1 1 0 0 0 .26.07.73.73 0 0 1-.19-.1c0-.06-.13-.17-.21-.16" fill="#d8944e" fill-rule="evenodd"/><path d="M37.21 1.79c0 .07-.17.12-.06.3-.05-.16.08-.21.06-.3M35.9 1.44a.09.09 0 0 0 0-.07.12.12 0 0 0 0-.06v-.23h-.21v.21a.09.09 0 0 0 0 .06.11.11 0 0 0 0 .07.09.09 0 0 0-.08 0c-.19 0-.32.14-.24.37a1.42 1.42 0 0 0 .1.21v.1h.66V2a1.52 1.52 0 0 0 .1-.21c.09-.23 0-.33-.24-.37a.08.08 0 0 0-.08 0zM35.77 1.82zM35.43 1.82v.05M35.42 1.78a.3.3 0 0 1 0 .06M35.41 1.7" fill="#d8944e" fill-rule="evenodd"/><path d="M35.41 1.66V1.6a.21.21 0 0 0 0 .07M35.45 1.58v-.05h-.05zM35.51 1.54h.01-.01zM35.54 1.53v.06M35.58 1.51h-.06M35.64 1.52zM35.66 1.61h-.01l.01.02v-.02zM35.67 1.65zM35.68 1.7zM35.7 1.78zM35.69 1.87zM35.54 2zM35.54 2h-.05v.06V2M35.48 1.94v-.05.05M35.7 1.48l.06.32zM35.51 1.67v-.11.11M35.55 1.72v.05M35.47 1.73v-.11.06M35.51 1.79v-.06.06M35.55 1.83v.06M35.57 1.82h.05M35.56 1.85zM35.64 1.84zM35.6 1.9h.01l-.01-.01v.01zM35.61 2zM35.57 1.94h.06zM35.52 1.9h.05" fill="#d8944e" fill-rule="evenodd"/><circle cx="35.78" cy="1.75" r=".01" transform="rotate(-66.1 35.776 1.752)" fill="#d8944e"/><path fill="#d8944e" fill-rule="evenodd" d="M35.78 1.71l-.02.01v.02h.02v-.03zM35.78 1.67l-.03.01.01.02h.02v-.03z"/><path fill="#d8944e" d="M35.75 1.645l.019-.008.008.018-.019.008z"/><path fill="#d8944e" fill-rule="evenodd" d="M35.77 1.59l-.03.01.01.02.02-.01v-.02zM35.77 1.56h-.04l.01.02.03-.01v-.01zM35.77 1.51l-.04.01v.02l.04-.01v-.02zM35.64 2zM35.69 1.89a.2.2 0 0 0-.12-.06.21.21 0 0 0 .05.07M35.66 1.92h-.09.13M35.8 1.88a.22.22 0 0 0-.06-.07.21.21 0 0 0 0 .11.21.21 0 0 1 0-.08zM35.62 2h.11a.22.22 0 0 0-.16 0M35.66 1.9a.22.22 0 0 0 .15.11.2.2 0 0 0-.15-.11M36.23 1.82v-.05M36.24 1.78a.21.21 0 0 0 0-.06zM36.25 1.7v-.03l-.01.01.01.02zM36.25 1.66a.15.15 0 0 0 0-.07v.06zM36.21 1.58v.05zM36.15 1.54h-.01.01zM36.12 1.53v-.06M36.09 1.51L36 1.5M36 1.52v.08M36 1.61v.02l.01-.02H36zM36 1.7v.06M36 1.78v.06zM36.13 2v-.06M36.18 1.94v-.05.05zM36 1.48v.33-.32M36.15 1.67v-.11.11M36.11 1.72v-.05M36.2 1.73v-.06.11M36.16 1.79v-.06.06M36.12 1.83v-.06zM36.09 1.82h.06M36.1 1.85zM36.07 1.9l-.01-.01v.01h.01zM36.06 2zM36.09 1.93zM36.09 1.94h.06M36.14 1.9"/><ellipse cx="35.89" cy="1.75" rx=".01" ry=".02" transform="rotate(-30.54 35.89 1.75)" fill="#d8944e"/><path fill="#d8944e" fill-rule="evenodd" d="M35.89 1.71l-.01.03h.03v-.02l-.02-.01z"/><ellipse cx="35.89" cy="1.67" rx=".01" ry=".02" transform="rotate(-37.77 35.883 1.679)" fill="#d8944e"/><path fill="#d8944e" fill-rule="evenodd" d="M35.89 1.63v.03h.03v-.02l-.03-.01zM35.9 1.59l-.01.02.03.01V1.6l-.02-.01zM35.9 1.56v.01l.03.01v-.02h-.03zM35.9 1.51v.02l.03.01v-.02l-.03-.01zM36.07 1.59zM36.12 1.65zM36.17 1.72zM36.21 1.77zM36.13 1.76zM36 1.75zM36.08 1.7zM36 1.65zM36.12 1.53zM36.16 1.59zM36.21 1.66zM36.16 1.82zM36.15 1.91zM36 1.8zM36.12 1.87zM36.1 2zM36 1.89l.06-.07a.21.21 0 0 0-.13.06M36 1.92a.16.16 0 0 0 .07 0H36M35.87 1.88a.33.33 0 0 1 0 .08.18.18 0 0 0 0-.11l-.06.07M36.05 2a.21.21 0 0 0-.16 0h.16"/><path d="M36 1.9a.2.2 0 0 0-.15.11.21.21 0 0 0 .15-.11M35.84 1.77a.16.16 0 0 1 0 .05v-.35h-.09v.35a.1.1 0 0 1 0-.05" fill="#d8944e" fill-rule="evenodd"/><path d="M35.81 1.89a.26.26 0 0 0 0 .11.23.23 0 0 0 0-.11.24.24 0 0 0 0-.1.26.26 0 0 0 0 .1M35.81 1.12h-.07v.09h.06c.06 0 0 .06 0 .07h.09v-.06c0-.06.07 0 .07 0v-.08h-.06v-.08h-.09M35.83 1.3a.07.07 0 1 0 .07.07.07.07 0 0 0-.07-.07M35.68 2.06h.01-.01zM35.68 2.1h.01v-.01l-.01.01zM35.63 2.06h-.01.01zM35.63 2.1zM35.58 2.06h-.01.01zM35.58 2.09h.01-.01zM36.13 2.08zM35.87 2.1zM35.93 2.1zM35.98 2.06h.01-.01zM35.99 2.1l-.01-.01-.01.01h.02zM36.03 2.06h.01-.01zM36.03 2.1v-.01l-.01.01h.01zM36.08 2.07l.01-.01h-.01v.01zM36.08 2.09h-.01.01zM36 2.08zM35.83 2.1" fill="#d8944e" fill-rule="evenodd"/><path d="M35.83 2h.29a2.76 2.76 0 0 0-.29 0 2.66 2.66 0 0 0-.29 0h.29M35.83 2.13h.29-.58.29M35.84 1.7zm0-.09zm0 0zm0-.1M30.25 5.55v-.06.07m.06-.18h-.06m.17.07v-.07.05m-.19.29H30.22m2.38 2.34l.26-.06a.23.23 0 0 0 .14-.16.14.14 0 0 1 0 .06v-.09l.11.06v.11c0 .05.08.11.1.17a.07.07 0 0 1 0 .07c-.08.06-.21 0-.31 0h-.24a1.25 1.25 0 0 0-.64.27l-.2.13a.28.28 0 0 1 0 .11.11.11 0 0 1 0 .15.11.11 0 0 1 0 .11.1.1 0 0 1 0 .12.1.1 0 0 1-.12 0 .11.11 0 0 1-.09-.08c-.1 0-.14-.11-.08-.17a.5.5 0 0 1-.13-.08.13.13 0 0 1-.14-.12c-.1 0-.17-.06-.14-.18a.11.11 0 0 1-.09-.1c0-.09.08-.18.12-.23s0-.14 0-.17a.14.14 0 0 1-.09-.15c-.09-.07 0-.17 0-.2h-.07a.1.1 0 0 1 0-.06.11.11 0 0 1 0-.14l-.4-1.33c-.06 0-.09-.05-.07-.1a.13.13 0 0 1-.09-.12.08.08 0 0 1-.12 0l-.15-.09-.09-.06a.37.37 0 0 1-.07-.34l.13.05a.08.08 0 0 1 0-.12.07.07 0 0 1 0-.1.07.07 0 0 1 .1 0 .09.09 0 0 1 .11.07v-.14a.36.36 0 0 1 .16.25.31.31 0 0 1-.07.2.08.08 0 0 1 0 .06s0 .06-.05.08a.13.13 0 0 1 0 .1.08.08 0 0 1 0 .12L31 7.25a.11.11 0 0 1 .07.14.08.08 0 0 1 .05 0v.06c0 .06.1 0 .11.17a.13.13 0 0 1 .05.17.3.3 0 0 1 .06.08h.1c.02 0 .18 0 .22.09a.28.28 0 0 0 .29.17 1.73 1.73 0 0 0 .42-.15z" fill="#d8944e" fill-rule="evenodd"/><path d="M30.46 5.87a.08.08 0 0 1 .08-.08.08.08 0 0 1 .09.08.08.08 0 0 1-.09.08.08.08 0 0 1-.08-.08M32.05 9a.08.08 0 0 1 0 .1.08.08 0 0 1-.11 0 .17.17 0 0 0 .11-.1M31.78 8.72c.07 0 .15 0 .09.11s-.15 0-.18 0h-.05M31.82 8.54a.07.07 0 0 1 0 .06M31.41 8.51a.11.11 0 0 0 0 .06.05.05 0 0 0 0 .06.16.16 0 0 0 .13 0 .06.06 0 0 1 0 .07c0 .05-.07.06-.12 0s-.17 0-.21-.07a.09.09 0 0 1 0-.11M31.75 8.35a.18.18 0 0 0 0 .05h-.06z" fill="#d8944e" fill-rule="evenodd"/><path d="M31.79 8.32a1 1 0 0 1 .21.5.13.13 0 0 1-.09.11h-.12a.12.12 0 0 0 .14-.16.13.13 0 0 0 0-.14.11.11 0 0 1 0 .09h-.07v-.16a.12.12 0 0 1-.06.08.14.14 0 0 0 0-.13.1.1 0 0 0 .1 0 .21.21 0 0 1-.11-.19zM31.39 8.24c.07.06 0 .1 0 .16s0-.05.1 0 0 0 .05 0 0 .09 0 .1-.12-.05-.18-.09-.08 0-.11 0 0-.16 0-.2M31.73 8a.24.24 0 0 1 0 .06.22.22 0 0 0 0-.05.06.06 0 0 1 .07 0" fill="#d8944e" fill-rule="evenodd"/><path d="M31.55 7.94a.87.87 0 0 1 .09.16l-.06.07a.17.17 0 0 0 0 .19h-.1A1 1 0 0 1 31.4 8a.25.25 0 0 0 .16-.06M33.27 7.95v.1l.08.11s0 .08-.07.09h-.46v-.08c0-.08 0 .1-.07.1a.06.06 0 0 0 0-.07.06.06 0 0 1-.06.09.06.06 0 0 0 0-.07c0 .06 0 .09-.06.1a.07.07 0 0 0 0-.07s0 .1-.06.11a.08.08 0 0 0 0-.07c0 .07 0 .09-.05.1s0 0 0-.07a.1.1 0 0 1-.06.12.12.12 0 0 0 0-.08.16.16 0 0 1-.08.14 1.28 1.28 0 0 1-.25.15 1.47 1.47 0 0 0-.08-.19.42.42 0 0 0 .17 0 .2.2 0 0 0 .12-.07.38.38 0 0 1-.13 0 .23.23 0 0 1-.24-.12.15.15 0 0 0 .18 0 .16.16 0 0 1-.17-.13.05.05 0 0 0 0-.09v.08c0 .08 0-.06-.07-.07s.06 0 .07 0a.08.08 0 0 1-.14.09.11.11 0 0 1 0-.13.51.51 0 0 0-.07-.02.08.08 0 0 1 .13 0 .33.33 0 0 0 .25.23.84.84 0 0 0 .41-.1h.08c.02 0 0 0 0 0h.07c.01 0 0 0 0 0h.14C32.94 8 33 8 33 7.85a.52.52 0 0 1 .07.17.14.14 0 0 0 .08-.12l.08.05M31.31 7.89a.15.15 0 0 0 .14 0 .12.12 0 0 0 .08-.1c0 .05 0 .11-.07.15s-.14 0-.16 0" fill="#d8944e" fill-rule="evenodd"/><path d="M31.36 7.55c0 .06.07.08.1.12a.11.11 0 0 1 0 .17.11.11 0 0 1-.15-.08V7.6a.15.15 0 0 0 .09.05.14.14 0 0 0 0-.11" fill="#d8944e" fill-rule="evenodd"/><path d="M31.33 7.55a.13.13 0 0 1 0 .06h-.05zM30.62 6.09l.64 1.31a.06.06 0 0 1 0 .07h-.09zM32.06 9.1h-.05a.09.09 0 0 0 .07 0" fill="#d8944e" fill-rule="evenodd"/><path d="M31.17 7.49a.13.13 0 0 0 .11 0 .1.1 0 0 0 .06-.09v.12c0 .02-.11 0-.12 0M31.91 8.66a.06.06 0 0 1 0 .06M31.55 8.7a.17.17 0 0 1 .07 0s-.07.03-.07 0zM31.79 8.95a.15.15 0 0 0 .15 0c.07 0 .09-.07.09-.11S32 9 32 9s-.17 0-.18-.05M33.31 8.15h-.26.24M32.91 8.14v.06a.19.19 0 0 0 0-.06M33.24 8.06c.06.06 0 .11 0 .09s.05 0 0-.09M31.46 7.74v.05a.17.17 0 0 0 .05-.09" fill="#d8944e" fill-rule="evenodd"/><path d="M32 8.95h-.07a.15.15 0 0 0 .07 0M30.55 6a.12.12 0 0 0 .09 0v.07c0 .02-.07 0-.08 0M30.56 5.21v.1l.05-.09-.06.1.07-.07-.07.06h.07-.08.07-.08.06-.09.07a.07.07 0 0 0-.07.06.12.12 0 0 0 0-.06.09.09 0 0 0 0-.07.09.09 0 0 0 0-.13zM30.25 5.29c-.08-.06 0-.08 0-.1s.07 0 .07.07zM30 5.45l.14.06s0 .11.09.1a.08.08 0 0 0 0 .06h.06a.07.07 0 0 0-.1 0V5.6v.07-.06l-.05.05h-.06.08-.1.1-.11.1-.1M30.2 5.71l.16.09-.02.02-.14-.1v-.01zM30.48 5.63s0 .08.12 0 0 0-.06 0a.19.19 0 0 1-.1 0 .2.2 0 0 1 0 .1h-.08c-.01 0 0-.12 0-.12M30.31 5.49a.07.07 0 0 0-.08 0h.06a.1.1 0 0 1 .08 0 .09.09 0 0 1 0-.08H30.38a.07.07 0 0 0 0 .07z" fill="#d8944e" fill-rule="evenodd"/><path d="M30.44 5.45s.07.06.06.11 0 .06-.05.1-.07 0-.11 0 0-.1 0-.13zM30.23 5.36c-.05 0 0-.05 0-.07v.05M30.37 5.3c-.06 0 0-.05 0-.07v.05zM34.4 7.35A.39.39 0 0 0 34 7h-.36c-.24 0-.35-.13-.35-.4V4.43h2.17v2.21c0 .27-.12.4-.36.4h-.36a.39.39 0 0 0-.37.31" fill="#d8944e" fill-rule="evenodd"/><path d="M35.27 6.65l-.12.08h.09a1 1 0 0 0 0 .12h-.13-.07a.39.39 0 0 1-.12 0s0 .07-.07.06 0 0 0-.05h-.06a.44.44 0 0 0-.11.17.24.24 0 0 0-.22 0 .12.12 0 0 0-.17 0c0-.11-.26-.06-.26-.06h.07l-.11-.06a.51.51 0 0 1-.28 0 .34.34 0 0 1-.24-.15v-.12a.09.09 0 0 0-.07-.09.13.13 0 0 1 .11 0 .08.08 0 0 1 0 .05v.12a.35.35 0 0 0 .27 0h.05a.17.17 0 0 1 0-.1.21.21 0 0 1 .19-.12.35.35 0 0 1 .18.06l.13.06h.21a.37.37 0 0 0 0-.06s0-.06.06-.05.05 0 .06 0-.05 0-.05.09a.13.13 0 0 0 .07-.1v-.03s-.07 0 0 0h.07a.17.17 0 0 1 0 .08.28.28 0 0 0 0 .09h.13s.11-.12.16-.06M34.34 6.89l.06.05M34.37 6.88h-.06M34.22 6.84z" fill="#d8944e" fill-rule="evenodd"/><path d="M34.82 6.8h-.07l-.06.06h.05-.07.07-.08l.1-.1a.2.2 0 0 1 .1 0M34.28 6.82zM33.89 6.81zM34.38 6.79zM34.71 6.79h-.07l-.11.08a.14.14 0 0 0-.09 0l.3-.17M34.14 6.77zM35.23 6.75zM33.77 6.74zM35.38 6.73zM34.44 6.7zM34.61 6.69zM34.23 6.69a.16.16 0 0 1 .08 0 .11.11 0 0 1-.08 0M33.6 6.69zM34.5 6.68a.11.11 0 0 1 0 .05.34.34 0 0 1 0-.06M34.66 6.68v.06zM34.59 6.68zM34.63 6.66a.18.18 0 0 1 0 .07v-.07M34.83 6.65v-.06M34.42 6.65a.23.23 0 0 1 0 .09v-.09M34.09 6.65zM34.52 6.64v-.06M34.69 6.62l.01.02-.01-.01v-.01zM34.55 6.62a.15.15 0 0 0 0-.07M34.47 6.61a.09.09 0 0 1 0 .08.25.25 0 0 1 0-.08M34.49 6.6a.07.07 0 0 1 0 .06.45.45 0 0 0 0-.06M34.44 6.58a.14.14 0 0 1 0 .09.44.44 0 0 0 0-.09M34.37 6.54a.08.08 0 0 1 0 .1v-.06c0-.06 0 0 0 0M35 6.52zM33.61 6.57z" fill="#d8944e" fill-rule="evenodd"/><path d="M34.3 6.5v.06a.06.06 0 0 1 0 .06v.07a.38.38 0 0 0 0-.09.3.3 0 0 0 0-.08M34.74 6.48l.02.01-.02.01v-.02zM34.15 6.48a.21.21 0 0 1 .07.11v-.12.15a.53.53 0 0 0 0-.12.39.39 0 0 1 0 .09.23.23 0 0 0 0-.08v.25h-.08s.05 0 .07-.05 0 0-.06 0a.18.18 0 0 0-.1.06s0-.06.07-.08h.07v-.05h-.07.12a.18.18 0 0 0-.07-.06h.05" fill="#d8944e" fill-rule="evenodd"/><path d="M34.14 6.82a.13.13 0 0 1 0-.06.07.07 0 0 1 .05 0 .11.11 0 0 0 0 .09M34.08 6.68v.06a.11.11 0 0 1 0-.07M34.66 6.77l-.27.09a.37.37 0 0 0-.14 0l.17-.07h.07s.24-.08.26-.05m-.07 0M33.57 6.63v-.06M33.67 6.71a.08.08 0 0 1 0-.07M33.73 6.73v.09M33.81 6.75v.03c0-.05 0 0 0 0M33.87 6.8v-.06a.05.05 0 0 0 0 .05M33.94 6.72a.11.11 0 0 0 0 .08.14.14 0 0 1 0-.07M33.6 6.53s0-.05-.05-.07.07 0 .07 0M35 6.83v-.06M34.79 6.83" fill="#d8944e" fill-rule="evenodd"/><path d="M34.48 5.22v.11h.07a.3.3 0 0 0 0-.05h-.06m.47 0a.48.48 0 0 0 0 .15h.11v-.07c0-.01-.1 0-.14-.1m.21 1.39a.24.24 0 0 1 0 .11h-.15V6.7v-.09a1.49 1.49 0 0 0-.12-.26v-.09a.39.39 0 0 0-.15-.26h-.07v.12s.11.06.08.08H34.58v.07a3.38 3.38 0 0 1 .16.44 3.71 3.71 0 0 1-.19-.43v-.07V6a.29.29 0 0 1-.13.18s.05.11.18.19l.09.06a.26.26 0 0 1 .1.13h-.29a.17.17 0 0 1 0-.05h-.09c-.09 0 0 0-.07-.09a1.29 1.29 0 0 0-.19-.15.33.33 0 0 0 0-.1.17.17 0 0 0 0-.08c0 .06-.17.11-.21.15a.4.4 0 0 0-.09.39.25.25 0 0 1 0 .11.32.32 0 0 1-.1 0h-.06a.25.25 0 0 1 0-.13h-.05a.85.85 0 0 0 .08-.26v-.22c0-.03.08 0 .09-.08s0-.1 0-.21a.41.41 0 0 1 0-.13h-.06c-.06 0 0 .12 0 .17a.47.47 0 0 1-.08.26V6a.91.91 0 0 1-.08.15V6.1l-.09.13a.46.46 0 0 1 0-.21.84.84 0 0 0 0-.15c0-.13 0-.23.06-.32s.2-.1.32 0a.49.49 0 0 1 .22-.11.63.63 0 0 1-.06-.12h.12a.15.15 0 0 0-.16-.04s0 .06-.05.07h-.15l-.15-.06a.29.29 0 0 1 0-.08.1.1 0 0 0-.08 0v-.07s0-.06-.08-.06l.13-.13a.66.66 0 0 1 .17-.12 1.4 1.4 0 0 0 0-.16v-.08.08a.29.29 0 0 1 0 .08.09.09 0 0 1 0 .05v.06a1 1 0 0 1 .28.08h-.06s-.07-.06 0-.11h.09c.11-.09.29.06.26.18s-.05 0-.09 0 0 0-.06.08a.48.48 0 0 1 .07.09.67.67 0 0 1 0 .11h.06v-.06h-.05s.06 0 .08-.06h.06s.07-.06.11-.06a.31.31 0 0 1 .14 0v-.06a.36.36 0 0 1 .14 0h.07s0 .08.08.08 0 0 0 .06.14 0 .14 0h-.08v.08c0 .05.06.17.08.27a.06.06 0 0 1 0 .06s-.19.11-.19 0a.17.17 0 0 0 0 .06.49.49 0 0 1 .08.21.32.32 0 0 1 0 .1.66.66 0 0 0 .18 0h.12c.02 0 0 .1 0 .18a.88.88 0 0 1-.08.22h-.17a.59.59 0 0 1 .05-.15h.06c.01 0 0-.05 0-.06a.64.64 0 0 0 0-.13c0-.05-.21 0-.31.06a.71.71 0 0 0 .07.24v.13l.05.17.05.1" fill="#d8944e" fill-rule="evenodd"/><path d="M33.78 4.86h.07v.2a1.53 1.53 0 0 0-.2.18l.07-.1-.06.06c0-.07.13-.18.17-.24a1.28 1.28 0 0 0-.15.17l.03-.13h-.06a2.43 2.43 0 0 1 .19-.18zm.33.28l.06.15a.22.22 0 0 0-.12 0 .53.53 0 0 0 .06-.11m0-.08v.07a.66.66 0 0 1-.07.14v.06h-.05zm0 0V5l-.12.2v.08h-.08a1.34 1.34 0 0 1 .09-.22m-.14 0H34a2.21 2.21 0 0 0-.21.31v-.06h-.08a1.37 1.37 0 0 1 .21-.31m.18 0h.05v.09zm-.1-.21c.13 0 .27.06.31.13s0 .1 0 .11v-.09a.12.12 0 0 0-.09-.07h-.15zm0 0v.1-.1zM34.67 5h.08-.07a.29.29 0 0 1 .15 0h-.06a.29.29 0 0 1 .12 0v-.07c0-.01.17 0 .23.1L35 4.9h.11a.28.28 0 0 1-.05.06.61.61 0 0 1 .06.15h.06a2.38 2.38 0 0 1 .08.24.05.05 0 0 1 0 .06h-.09l-.05-.06s-.11 0-.14-.1 0-.08 0-.14a.63.63 0 0 0 0 .3 2.42 2.42 0 0 1-.4-.21v-.08c0-.02.05 0 .05 0v-.06s0-.06.06-.07h-.05s.07 0 .08-.05M33.84 6.66a.09.09 0 0 1 0 .07.43.43 0 0 1-.12 0 .15.15 0 0 1 .09-.06M35.16 6.64a.11.11 0 0 1 0 .06.26.26 0 0 1-.1 0s.05 0 .08-.06M34.52 6.59a.08.08 0 0 1 .07 0 .06.06 0 0 1 0 .05h-.1M34.68 6.13h.06-.06zM35.18 6.1a.22.22 0 0 1 0 .1h-.06a.53.53 0 0 1 0-.11M34.5 6.09v.08c-.05 0 0 0 0-.08M34.61 6a.51.51 0 0 1 0 .07.14.14 0 0 1 0-.06zM34.42 5.9v.11a.13.13 0 0 1 0-.11M34.58 5.84a1.07 1.07 0 0 1 0 .14.63.63 0 0 1 0-.14" fill="#d8944e" fill-rule="evenodd"/><path d="M35.32 5.77a.05.05 0 0 1 .06 0 .13.13 0 0 1 0 .05v.11a1.11 1.11 0 0 1-.06.2.12.12 0 0 1-.07.05.52.52 0 0 0 0-.09v-.16c0-.02-.17 0-.27.06a.28.28 0 0 0 .07-.13l.23-.05M34.57 5.71a2 2 0 0 1 .06.26.56.56 0 0 1 0 .2 1 1 0 0 0 0-.12c0-.1-.05-.33-.05-.33M34.55 5.7a.33.33 0 0 1 0 .13 1.35 1.35 0 0 0 0-.14M35 5.66a.41.41 0 0 1 0 .22.41.41 0 0 0 0-.25" fill="#d8944e" fill-rule="evenodd"/><path d="M35.08 5.62a.3.3 0 0 1 0 .26.58.58 0 0 0 0-.22M34.6 5.6l.08.2h-.07v-.14-.07M34.19 5.59a.38.38 0 0 0 0 .16.06.06 0 0 0 .07 0h.06v.13a.8.8 0 0 1-.2 0v-.34" fill="#d8944e" fill-rule="evenodd"/><path d="M34.15 5.51a2.18 2.18 0 0 1 0 .3v.12h.2a.11.11 0 0 0 0 .11h-.11a.24.24 0 0 1-.06-.04.25.25 0 0 1 0 .14c-.06.07-.15.09-.22.14a.45.45 0 0 0-.09.4.25.25 0 0 0-.09 0 .32.32 0 0 1 0-.1h-.05a1 1 0 0 0 .08-.24v-.23s.09 0 .1-.08a.45.45 0 0 0 0-.13.29.29 0 0 1 .1-.31.49.49 0 0 1 .16-.07M33.63 5.54c.09-.08.23 0 .27.08a.06.06 0 0 0-.11 0 .58.58 0 0 0 0 .19.33.33 0 0 1 0 .15.85.85 0 0 0 0-.22 1.62 1.62 0 0 1 0 .18s0 .08-.06.12 0-.14 0-.18a.41.41 0 0 1-.1.26c0-.17.07-.22.05-.33s0 .13-.06.16v-.03c0-.16 0-.27.09-.38M34.55 5.46a.44.44 0 0 1 0 .18s-.05-.15-.07-.2.05 0 .07 0M34.18 5.37v.12a.14.14 0 0 1-.07-.06v-.07h.09" fill="#d8944e" fill-rule="evenodd"/><path d="M34.2 5.37l.05.13s-.05 0-.06-.05a.1.1 0 0 1 0-.08M34.52 5.32a1.18 1.18 0 0 0 0 .13h-.07a.23.23 0 0 1 0-.1zM34.64 5.62a.47.47 0 0 1 .32 0 .3.3 0 0 1 0 .25A.09.09 0 0 1 35 6v-.15A.35.35 0 0 0 35 6a1.84 1.84 0 0 0 0 .21v.17a1.65 1.65 0 0 0 .11.28h-.06v-.1a1.91 1.91 0 0 0-.12-.25v-.1a.51.51 0 0 0-.07-.12.36.36 0 0 0-.09-.09v-.06a1.31 1.31 0 0 1 0-.14h.07s0-.11-.06-.15" fill="#d8944e" fill-rule="evenodd"/><path d="M35 5.6a.9.9 0 0 0-.24 0h-.16v-.1a.38.38 0 0 1 0-.25 1.17 1.17 0 0 0 .4.25v.1" fill="#d8944e" fill-rule="evenodd"/><path d="M35 5.61a.52.52 0 0 0-.34 0 .75.75 0 0 1 .37 0M34.57 5.18c.08 0 .1.07.23.13l.26.11v.06a.84.84 0 0 1-.19-.08c-.12-.07-.26-.17-.26-.22M35.08 5.09zM34.73 5a.27.27 0 0 1-.08.06zM34.43 5s.06.08 0 .09a.23.23 0 0 0 0-.09M35.15 4.93h.08M35.11 4.92a.26.26 0 0 1 .1.14h-.07a.41.41 0 0 0 0-.12M34.35 5.74h-.06c-.07 0-.08-.16-.1-.23s.07 0 .07 0l.09.23z" fill="#d8944e" fill-rule="evenodd"/><path d="M34.35 5.220000000000001h.05-.06v-.05m0-.07v.06a.08.08 0 0 0-.05 0V5.1m.07-.09c.07 0 0 .16 0 .24a.24.24 0 0 1 0-.06.41.41 0 0 0 0-.05m-.08.28s.07 0 .09.05.06.18.08.26 0 .22 0 .32a.2.2 0 0 0 .06.09v.08h-.05l-.18-.43V5.7v-.09.06l-.08-.19v-.06l-.08-.2a.68.68 0 0 1 0-.19h.05a.06.06 0 0 0 0-.06.27.27 0 0 0-.11 0v-.11h.08c.08 0 .14 0 .16.06V4.9a.19.19 0 0 0 0-.07v-.05a.14.14 0 0 0 .07.1.23.23 0 0 1 0 .19h-.07v-.08.25a.87.87 0 0 0 0-.15h.06v.05H34.43" fill="#d8944e" fill-rule="evenodd"/><path d="M34.41 6a.58.58 0 0 1 0 .1.35.35 0 0 1-.1.1c0 .12.28.24.3.3h-.15v-.06a1.19 1.19 0 0 0-.19-.16v-.07a.3.3 0 0 0 0-.11.63.63 0 0 0 0-.09.35.35 0 0 0 .21 0" fill="#d8944e" fill-rule="evenodd"/><path d="M33.95 4.72l.64 1.57s.12.27.13.35-.15-.34-.15-.34z" fill="#d8944e" fill-rule="evenodd"/><path d="M33.86 4.69v-.06h.06a1.47 1.47 0 0 1 0 .17H34v.1H33.83v-.07a1.29 1.29 0 0 1 0-.19.47.47 0 0 0 0-.07M34.29 4.63h.07a.18.18 0 0 1 .11 0c.07 0 .12.17.05.2h-.06s0 .05-.06.08-.08-.09-.08-.12h-.06-.06a.21.21 0 0 1 .11-.08M34.39 4.76" fill="#d8944e" fill-rule="evenodd"/><path d="M34.37 4.67h.09V4.68h-.09-.06M33.87 4.51v0M35 4.85a.12.12 0 0 0-.09 0 .09.09 0 0 1 .1 0M34.79 5h-.05zM35 5.61zM34.38 4.85zM34.44 4.8s0-.05 0 0M34.32 4.75l-.01.04.01-.03v-.01z" fill="#d8944e" fill-rule="evenodd"/></g></g></svg>