<?xml version="1.0" encoding="utf-8"?>
<!-- Generator: Adobe Illustrator 16.2.0, SVG Export Plug-In . SVG Version: 6.00 Build 0)  -->
<!DOCTYPE svg PUBLIC "-//W3C//DTD SVG 1.1//EN" "http://www.w3.org/Graphics/SVG/1.1/DTD/svg11.dtd">
<svg version="1.1" id="Слой_1" xmlns="http://www.w3.org/2000/svg" xmlns:xlink="http://www.w3.org/1999/xlink" x="0px" y="0px"
	 width="62.4px" height="63.6px" viewBox="0 0 62.4 63.6" style="enable-background:new 0 0 62.4 63.6;" xml:space="preserve">
<g>
	<path style="fill:none;stroke:#505B68;stroke-width:2;stroke-linecap:round;stroke-linejoin:round;stroke-miterlimit:10;" d="
		M26.9,45.1c0-2.3,0.5-4.6,1.3-6.6h-9.8v-6.1h12.2c0.7,0,1.5,0,2.1-0.1c2.6-2.2,5.8-3.7,9.3-4c0.1-0.1,0.2-0.1,0.2-0.2
		c3-2.9,4.5-6.7,4.5-11.3c0-4.6-1.5-8.4-4.5-11.3C39.3,2.5,35.4,1,30.6,1H11.3c-0.3,0-0.6,0.1-0.8,0.3c-0.2,0.2-0.3,0.5-0.3,0.8
		v22.5h-8c-0.3,0-0.6,0.1-0.8,0.3C1.1,25.3,1,25.5,1,25.8v5.3c0,0.3,0.1,0.6,0.3,0.8c0.2,0.2,0.5,0.3,0.8,0.3h8v6.1h-8
		c-0.3,0-0.6,0.1-0.8,0.3C1.1,39,1,39.3,1,39.6v4.6c0,0.3,0.1,0.6,0.3,0.8s0.5,0.3,0.8,0.3h8v6.9c0,0.3,0.1,0.6,0.3,0.8
		c0.2,0.2,0.5,0.3,0.8,0.3h6c0.3,0,0.6-0.1,0.8-0.3c0.2-0.2,0.3-0.5,0.3-0.8v-6.9h8.4C26.9,45.3,26.9,45.2,26.9,45.1z M18.5,8.6
		h11.5c2.5,0,4.6,0.7,6.1,2.2c1.6,1.5,2.3,3.4,2.3,5.8c0,2.4-0.8,4.3-2.3,5.8c-1.6,1.5-3.6,2.2-6.1,2.2H18.5V8.6z"/>
	
		<polyline style="fill:none;stroke:#08AB8A;stroke-width:3;stroke-linecap:round;stroke-linejoin:round;stroke-miterlimit:10;" points="
		43.9,34.8 43.9,45.3 51.1,51.1 	"/>
	
		<circle style="fill:none;stroke:#08AB8A;stroke-width:3;stroke-linecap:round;stroke-linejoin:round;stroke-miterlimit:10;" cx="43.9" cy="45.1" r="17"/>
</g>
</svg>
