<?xml version="1.0" encoding="utf-8"?>
<!-- Generator: Adobe Illustrator 16.2.0, SVG Export Plug-In . SVG Version: 6.00 Build 0)  -->
<!DOCTYPE svg PUBLIC "-//W3C//DTD SVG 1.1//EN" "http://www.w3.org/Graphics/SVG/1.1/DTD/svg11.dtd">
<svg version="1.1" id="Слой_1" xmlns="http://www.w3.org/2000/svg" xmlns:xlink="http://www.w3.org/1999/xlink" x="0px" y="0px"
	 width="77.9px" height="68.7px" viewBox="0 0 77.9 68.7" style="enable-background:new 0 0 77.9 68.7;" xml:space="preserve">
<path style="fill:none;stroke:#505B68;stroke-width:2;stroke-miterlimit:10;" d="M72.1,51.1c-4.6-1.5-13.2-3.5-13.2-3.5
	c-3.8-2.9-6.8-5.6-9.5-6.7c-1.1-0.5-4.5-1.6-10.9-1.8c-7.5-0.3-11.1,0-14,1.9c-2,1.2-4.5,2.7-7.4,4.8c-0.6,0.4-1,0.6-1.7,0.7
	c-1.4,0.2-2.1,0.2-3.4,0.3c-2.7,0.3-3.9,1.3-4.4,4.9c-0.3,2-0.4,2.8-0.5,5.3c-0.2,3.5,0.4,4.6,1.6,5.3c1.6,0.8,4.5,1,5.2,1
	c-0.2-0.6-0.4-1.3-0.4-2c-0.1-3.7,2.8-6.7,6.4-6.9c3.7-0.1,6.7,2.8,6.9,6.4c0,0.9-0.1,1.7-0.4,2.5h29.6c-0.2-0.6-0.4-1.3-0.4-2
	c-0.1-3.7,2.8-6.7,6.4-6.9s6.7,2.8,6.9,6.4c0,0.9-0.1,1.7-0.4,2.5c1.6,0,2.9,0,3.7,0c3,0,3.4-1.5,3.8-3s1-4.6,1-4.6
	S77.6,52.9,72.1,51.1z"/>
<line style="fill:none;stroke:#08AB8A;stroke-width:3;stroke-linecap:round;stroke-linejoin:round;stroke-miterlimit:10;" x1="61.3" y1="13.7" x2="1.5" y2="13.7"/>
<g>
	
		<line style="fill:none;stroke:#08AB8A;stroke-width:3;stroke-linecap:round;stroke-linejoin:round;stroke-miterlimit:10;" x1="12.4" y1="1.5" x2="12.4" y2="7.7"/>
	
		<line style="fill:none;stroke:#08AB8A;stroke-width:3;stroke-linecap:round;stroke-linejoin:round;stroke-miterlimit:10;" x1="25.1" y1="1.5" x2="25.1" y2="7.7"/>
	
		<line style="fill:none;stroke:#08AB8A;stroke-width:3;stroke-linecap:round;stroke-linejoin:round;stroke-miterlimit:10;" x1="37.7" y1="1.5" x2="37.7" y2="7.7"/>
	
		<line style="fill:none;stroke:#08AB8A;stroke-width:3;stroke-linecap:round;stroke-linejoin:round;stroke-miterlimit:10;" x1="50.3" y1="1.5" x2="50.3" y2="7.7"/>
</g>
<polyline style="fill:none;stroke:#08AB8A;stroke-width:2;stroke-linecap:round;stroke-linejoin:round;stroke-miterlimit:10;" points="
	24.8,20.1 35.9,20.1 29.2,35.4 "/>
<path style="fill:none;stroke:#08AB8A;stroke-width:3;stroke-miterlimit:10;" d="M59.3,47.8c1.2-1.2,2-2.8,2-4.7V10.8
	c0-3.6-2.9-6.5-6.5-6.5H8c-3.6,0-6.5,2.9-6.5,6.5v32.3c0,3.6,2.9,6.5,6.5,6.5h0"/>
<circle style="fill:none;stroke:#505B68;stroke-width:2;stroke-miterlimit:10;" cx="20.1" cy="61.1" r="6.7"/>
<path style="fill:none;stroke:#505B68;stroke-width:2;stroke-linecap:round;stroke-miterlimit:10;" d="M59.3,47.8
	c0,0-25.1-0.7-34.5-1c0,0-3.3,0.4-0.7-1.6l3.2-1.8"/>
<circle style="fill:none;stroke:#505B68;stroke-width:2;stroke-miterlimit:10;" cx="62.2" cy="61.1" r="6.7"/>
<path style="fill:none;stroke:#505B68;stroke-width:2;stroke-miterlimit:10;" d="M72.1,51.1c-4.6-1.5-13.2-3.5-13.2-3.5
	c-3.8-2.9-6.8-5.6-9.5-6.7c-1.1-0.5-4.5-1.6-10.9-1.8c-7.5-0.3-11.1,0-14,1.9c-2,1.2-4.5,2.7-7.4,4.8c-0.6,0.4-1,0.6-1.7,0.7
	c-1.4,0.2-2.1,0.2-3.4,0.3c-2.7,0.3-3.9,1.3-4.4,4.9c-0.3,2-0.4,2.8-0.5,5.3c-0.2,3.5,0.4,4.6,1.6,5.3c1.6,0.8,4.5,1,5.2,1
	c-0.2-0.6-0.4-1.3-0.4-2c-0.1-3.7,2.8-6.7,6.4-6.9c3.7-0.1,6.7,2.8,6.9,6.4c0,0.9-0.1,1.7-0.4,2.5h29.6c-0.2-0.6-0.4-1.3-0.4-2
	c-0.1-3.7,2.8-6.7,6.4-6.9s6.7,2.8,6.9,6.4c0,0.9-0.1,1.7-0.4,2.5c1.6,0,2.9,0,3.7,0c3,0,3.4-1.5,3.8-3s1-4.6,1-4.6
	S77.6,52.9,72.1,51.1z"/>
<line style="fill:none;stroke:#08AB8A;stroke-width:3;stroke-linecap:round;stroke-linejoin:round;stroke-miterlimit:10;" x1="61.3" y1="13.7" x2="1.5" y2="13.7"/>
<g>
	
		<line style="fill:none;stroke:#08AB8A;stroke-width:3;stroke-linecap:round;stroke-linejoin:round;stroke-miterlimit:10;" x1="12.4" y1="1.5" x2="12.4" y2="7.7"/>
	
		<line style="fill:none;stroke:#08AB8A;stroke-width:3;stroke-linecap:round;stroke-linejoin:round;stroke-miterlimit:10;" x1="25.1" y1="1.5" x2="25.1" y2="7.7"/>
	
		<line style="fill:none;stroke:#08AB8A;stroke-width:3;stroke-linecap:round;stroke-linejoin:round;stroke-miterlimit:10;" x1="37.7" y1="1.5" x2="37.7" y2="7.7"/>
	
		<line style="fill:none;stroke:#08AB8A;stroke-width:3;stroke-linecap:round;stroke-linejoin:round;stroke-miterlimit:10;" x1="50.3" y1="1.5" x2="50.3" y2="7.7"/>
</g>
<polyline style="fill:none;stroke:#08AB8A;stroke-width:2;stroke-linecap:round;stroke-linejoin:round;stroke-miterlimit:10;" points="
	24.8,20.1 35.9,20.1 29.2,35.4 "/>
<path style="fill:none;stroke:#08AB8A;stroke-width:3;stroke-miterlimit:10;" d="M59.3,47.8c1.2-1.2,2-2.8,2-4.7V10.8
	c0-3.6-2.9-6.5-6.5-6.5H8c-3.6,0-6.5,2.9-6.5,6.5v32.3c0,3.6,2.9,6.5,6.5,6.5h0"/>
<circle style="fill:none;stroke:#505B68;stroke-width:2;stroke-miterlimit:10;" cx="20.1" cy="61.1" r="6.7"/>
<path style="fill:none;stroke:#505B68;stroke-width:2;stroke-linecap:round;stroke-miterlimit:10;" d="M59.3,47.8
	c0,0-25.1-0.7-34.5-1c0,0-3.3,0.4-0.7-1.6l3.2-1.8"/>
<circle style="fill:none;stroke:#505B68;stroke-width:2;stroke-miterlimit:10;" cx="62.2" cy="61.1" r="6.7"/>
</svg>
