<svg xmlns="http://www.w3.org/2000/svg" width="90" height="101.2" viewBox="0 0 90 101.2"><path fill="#08ab8a" d="M44.5 76.2l1.9 3.7 4 .6-2.9 2.8.7 4.1-3.7-1.9-3.6 1.9.7-4.1-3-2.8 4.1-.6z"/><path d="M4.5 79.2l36 20.8c2.8 1.6 6.2 1.6 9 0l36-20.8c2.8-1.6 4.5-4.6 4.5-7.8V29.8c0-3.2-1.7-6.2-4.5-7.8l-36-20.8c-2.8-1.6-6.2-1.6-9 0L4.5 22C1.7 23.6 0 26.6 0 29.8v41.6c0 3.2 1.7 6.2 4.5 7.8z" opacity=".15" fill="#08ab8a"/><path d="M53.9 47.8H35m16.9 5.7H37M53.7 60.5h-15m21.4 5.1l-1.9-2.8c-.6-1.3-2.2-2.2-4-2.2H34.7c-1.8 0-3.5.9-4 2.2l-1.9 2.8" fill="none" stroke="#08ab8a" stroke-width="3" stroke-linecap="round" stroke-linejoin="round" stroke-miterlimit="10"/><g fill="none" stroke="#08ab8a" stroke-width="3" stroke-linecap="round" stroke-linejoin="round" stroke-miterlimit="10"><circle cx="20.4" cy="63.3" r="3.1"/><circle cx="68.7" cy="63.3" r="3.1"/></g><path d="M77 59c0-2.7.1-3.4-.1-6.8-.2-4.5-.9-6.3-3.1-8.6.6 0 1.3-.1 2.2-.1 3.1-.1 2.4-2.3 2.3-3.3-.1-1 0-2.8-3.2-2.6-3.3.2-1.8.1-3.3.2-1.3.1-2.4.3-2.9.8-2.5-2.9-4.4-5.5-4.4-5.5-3.3-3.9-5.6-6.1-10.2-6.4 0 0-4.2-.2-7.9-.3v-.1h-4.2v.1c-3.6.1-7.9.3-7.9.3-4.5.4-6.9 2.5-10.2 6.4 0 0-2 2.7-4.5 5.5-.5-.4-1.3-.7-2.5-.8-1.5-.1 0 0-3.3-.2s-3.1 1.7-3.2 2.6c-.1.9-.9 3.1 2.3 3.3.8 0 1.4.1 2 .1-2.2 2.3-2.9 4.2-3.1 8.6-.1 3.4-.1 4.1-.1 6.8" fill="none" stroke="#08ab8a" stroke-width="3" stroke-linecap="round" stroke-linejoin="round" stroke-miterlimit="10"/><path d="M19.8 38.5c2.5 1.5 7 1.3 7 1.3h19" fill="none" stroke="#08ab8a" stroke-width="3" stroke-linecap="round" stroke-linejoin="round" stroke-miterlimit="10"/><path d="M68.5 38.5c-2.5 1.5-7 1.3-7 1.3h-19" fill="none" stroke="#08ab8a" stroke-width="3" stroke-linecap="round" stroke-linejoin="round" stroke-miterlimit="10"/><path d="M29.4 54.5H19.1c-1.1 0-2.1-.9-2.1-2.1V50c0-1.1.9-2.1 2.1-2.1h9.1c1.6 0 2.5 1 2.8 2.1.3.7.5 1.2.5 1.2.7 2.1-.2 3.3-2.1 3.3zm30.2 0h10.3c1.1 0 2.1-.9 2.1-2.1V50c0-1.1-.9-2.1-2.1-2.1h-9.1c-1.6 0-2.5 1-2.8 2.1-.3.7-.5 1.2-.5 1.2-.7 2.1.2 3.3 2.1 3.3z" fill="none" stroke="#08ab8a" stroke-width="3" stroke-miterlimit="10"/><path fill="none" stroke="#08ab8a" stroke-width="3" stroke-linecap="round" stroke-linejoin="round" stroke-miterlimit="10" d="M22.9 48l.6 2.6M65.8 48l-.6 2.4"/></svg>