<svg id="Слой_1" xmlns="http://www.w3.org/2000/svg" xmlns:xlink="http://www.w3.org/1999/xlink" viewBox="0 0 55.6 61.7" enable-background="new 0 0 55.6 61.7"><style>.st0{opacity:.8}.st1{opacity:.7}.st2{fill:#808d9b}.st3{filter:url(#Adobe_OpacityMaskFilter)}.st4{fill:#fff}</style><g id="XMLID_52_" class="st0"><g class="st1"><path class="st2" d="M27.8 1c1.2 0 2.4.3 3.5.9l19.8 11.4c2.2 1.3 3.5 3.6 3.5 6.1v22.8c0 2.5-1.3 4.8-3.5 6.1L31.3 59.8c-1.1.6-2.3.9-3.5.9s-2.4-.3-3.5-.9L4.5 48.3c-2.2-1.2-3.5-3.5-3.5-6V19.4c0-2.5 1.3-4.8 3.5-6.1L24.3 1.9c1.1-.6 2.3-.9 3.5-.9m0-1c-1.4 0-2.8.4-4 1.1L4 12.5c-2.5 1.4-4 4.1-4 6.9v22.8c0 2.9 1.5 5.5 4 6.9l19.8 11.4c1.2.7 2.6 1.1 4 1.1s2.8-.4 4-1.1l19.8-11.4c2.5-1.4 4-4.1 4-6.9V19.4c0-2.9-1.5-5.5-4-6.9L31.8 1.1C30.6.4 29.2 0 27.8 0z"/></g></g><defs><filter id="Adobe_OpacityMaskFilter" filterUnits="userSpaceOnUse" x="4.5" y="8.2" width="45" height="45"><feColorMatrix values="1 0 0 0 0 0 1 0 0 0 0 0 1 0 0 0 0 0 1 0"/></filter></defs><mask maskUnits="userSpaceOnUse" x="4.5" y="8.2" width="45" height="45" id="SVGID_1_"><g class="st3"><path class="st4" d="M1 19.4v22.8c0 2.5 1.3 4.8 3.5 6.1l19.8 11.4c2.2 1.2 4.8 1.2 7 0l19.8-11.4c2.2-1.3 3.5-3.6 3.5-6.1V19.4c0-2.5-1.3-4.8-3.5-6.1L31.3 1.9c-2.2-1.2-4.8-1.2-7 0L4.5 13.4c-2.2 1.2-3.5 3.5-3.5 6z" id="XMLID_2_"/></g></mask><g mask="url(#SVGID_1_)"><image width="300" height="300" xlink:href="img/logo/unicredit.jpg" transform="translate(4.513 8.227) scale(.1499)" overflow="visible"/></g></svg>