<svg xmlns="http://www.w3.org/2000/svg" width="90" height="101.2" viewBox="0 0 90 101.2"><path fill="#08ab8a" d="M45.9 73.3l1.8 3.7 4.1.6-2.9 2.9.7 4.1-3.7-1.9-3.6 1.9.7-4.1-3-2.9 4.1-.6z"/><path d="M4.5 79.2l36 20.8c2.8 1.6 6.2 1.6 9 0l36-20.8c2.8-1.6 4.5-4.6 4.5-7.8V29.8c0-3.2-1.7-6.2-4.5-7.8l-36-20.8c-2.8-1.6-6.2-1.6-9 0L4.5 22C1.7 23.6 0 26.6 0 29.8v41.6c0 3.2 1.7 6.2 4.5 7.8z" opacity=".15" fill="#08ab8a"/><path d="M33 53.5h-9c-1 0-1.8-.8-1.8-1.8v-2.1c0-1 .8-1.8 1.8-1.8h7.9c1.4 0 2.1.9 2.5 1.8.2.6.4 1 .4 1 .6 1.9-.2 2.9-1.8 2.9z" fill="none" stroke="#08ab8a" stroke-width="3" stroke-miterlimit="10"/><path fill="none" stroke="#08ab8a" stroke-width="3" stroke-linecap="round" stroke-linejoin="round" stroke-miterlimit="10" d="M21.8 63.1h12.9m23.2 0h8.8"/><path d="M58.3 33.8v-7.7c0-4.1 3.3-7.4 7.4-7.4 4.1 0 7.4 3.3 7.4 7.4v7.7" fill="none" stroke="#08ab8a" stroke-width="3" stroke-miterlimit="10"/><path fill="none" stroke="#08ab8a" stroke-width="3" stroke-linecap="round" stroke-linejoin="round" stroke-miterlimit="10" d="M49.7 47.9H37.8m13.9 4.7H41.3m24.1 3.8c-7 0-12.7-5.7-12.7-12.7 0-4.2 2-7.9 5.1-10.2-1.7-1.7-3.4-2.6-5.9-2.8 0 0-3.4-.1-6.3-.2v-.1h-3.4v.1c-2.9.1-6.3.2-6.3.2-3.7.3-5.5 2.1-8.2 5.4 0 0-1.4 1.7-3.3 4-.3.3-1.4 0-2.3-.1-1.2-.1 0 0-2.6-.1-2.6-.2-2.5 1.4-2.6 2.2-.1.8-.7 2.6 1.8 2.7.6 0 1.2.1 1.6.1-1.8 1.9-2.4 3.5-2.5 7.2-.1 2.8 0 3.5 0 5.7 0 2.3.3 5.3 3.4 5.3v3.8c0 .7.3 1.6 2 1.6h5.5c1.5 0 2-.9 2-1.6v-3.8h26.7v3.8c0 .7.4 1.6 2 1.6h5.5c1.7 0 2-.9 2-1.6v-3.8c3.1 0 3.4-3 3.4-5.3v-2.3c-1.6.6-3.2.9-4.9.9z"/><path d="M65.4 37.8c-1.7 0-3 1.5-3 3.4 0 1.2.6 2.3 1.5 2.9v4.8h3v-4.7c.9-.6 1.6-1.7 1.6-2.9 0-2-1.4-3.5-3.1-3.5z" fill="#08ab8a"/><circle cx="65.4" cy="43.7" r="12.7" fill="none" stroke="#08ab8a" stroke-width="3" stroke-linecap="round" stroke-linejoin="round" stroke-miterlimit="10"/></svg>