<svg xmlns="http://www.w3.org/2000/svg" width="18" height="20" viewBox="0 0 18 20">
  <path fill="#50504D" fill-rule="evenodd" d="M317,1998 L316,1998 L316,1996 L314,1996 L314,1998 L306,1998 L306,1996 L304,1996 L304,1998 L303,1998 C301.89,1998 301.01,1998.9 301.01,2000 L301,2014 C301,2015.1 301.89,2016 303,2016 L317,2016 C318.1,2016 319,2015.1 319,2014 L319,2000 C319,1998.9 318.1,1998 317,1998 L317,1998 Z M317,2014 L303,2014 L303,2003 L317,2003 L317,2014 L317,2014 Z M305,2005 L310,2005 L310,2010 L305,2010 L305,2005 Z" transform="translate(-301 -1996)"/>
</svg>
