<svg xmlns="http://www.w3.org/2000/svg" width="169" height="44" viewBox="0 0 169 44"><g fill="#575756"><path d="M11.872 17.023c-2.033 6.513-3.834 13.073-5.728 19.632-.462 1.57 1.986 2.217 2.448.693 1.894-6.56 3.65-13.12 5.682-19.633.508-1.57-1.894-2.217-2.402-.692m8.176 0c-2.587 8.315-4.712 16.768-7.067 25.13-.462 1.57 1.986 2.217 2.448.646 2.356-8.361 4.48-16.815 7.068-25.13.462-1.524-1.987-2.17-2.449-.646m128.19.554c-.601 2.171-1.248 4.342-1.895 6.467-.462 1.57 1.987 2.217 2.449.693.646-2.171 1.247-4.296 1.894-6.467.415-1.57-2.033-2.218-2.449-.693m-121.306-.554c-2.587 8.315-4.712 16.768-7.067 25.13-.462 1.57 1.986 2.217 2.448.646 2.356-8.361 4.48-16.815 7.068-25.13.461-1.524-1.987-2.17-2.449-.646"/><path d="M26.793 25.522c3.095-2.032 6.051-4.157 9.054-6.328l-1.71-1.71c-1.293 2.726-2.402 5.544-3.048 8.5-.231 1.109-.555 2.54.508 3.326 1.386.97 4.157-.877 5.22-1.57 1.848-1.155 3.603-2.68 5.127-4.25 1.155-1.155-.646-2.957-1.801-1.802-1.94 1.987-4.296 4.065-6.93 5.082-.923.37.14 1.34.14.785.045-.693.23-1.386.415-2.033.6-2.356 1.524-4.573 2.54-6.79.463-1.017-.6-2.54-1.709-1.71-3.002 2.172-5.959 4.297-9.054 6.33-1.34.877-.092 3.048 1.248 2.17"/><path d="M42.083 17.485c-1.201 2.586-2.264 5.266-2.956 8.037-.231 1.017-.832 3.05.37 3.742 1.477.832 3.74-.554 4.988-1.293 2.356-1.432 4.435-3.419 6.144-5.544 1.016-1.247-.785-3.049-1.802-1.801-1.986 2.494-4.758 5.266-7.899 6.236-.878.277.323 1.478.416.462.046-.693.277-1.386.462-2.033.6-2.263 1.478-4.434 2.494-6.513.647-1.478-1.524-2.772-2.217-1.293M55.572 29.31c3.28.878 7.206-2.725 9.33-4.85 2.264-2.264 4.574-6.329.093-7.345-2.54-.6-7.021-.462-8.13 2.402-.508 1.247-.831 2.587-1.247 3.88-.416 1.432-1.386 3.557-.97 5.082.416 1.57 2.864.924 2.448-.693-.185-.647.508-2.079.693-2.726.277-.97.6-1.986.878-2.956.184-.6.37-1.247.6-1.848.324-.878 2.495-.785 3.188-.785a8.238 8.238 0 0 1 2.586.277c.324.092-2.124 3.095-2.355 3.326-1.248 1.247-4.574 4.296-6.468 3.788-1.524-.416-2.217 2.032-.646 2.448m12.38 0c3.28.878 7.206-2.725 9.33-4.85 2.264-2.264 4.574-6.329.093-7.345-2.54-.6-7.021-.462-8.13 2.402-.462 1.247-.831 2.587-1.247 3.88-.416 1.432-1.386 3.557-.97 5.082.416 1.57 2.864.924 2.448-.693-.185-.647.508-2.079.693-2.726.277-.97.6-1.986.878-2.956.184-.6.37-1.247.6-1.848.324-.878 2.495-.785 3.188-.785a8.238 8.238 0 0 1 2.587.277c.323.092-2.125 3.095-2.356 3.326-1.248 1.247-4.574 4.296-6.468 3.788-1.57-.416-2.217 2.032-.646 2.448"/><path d="M77.283 20.164c-.554 1.34-4.111 8.453-1.155 9.239 1.663.462 3.788-.97 5.081-1.848 1.94-1.294 3.65-2.957 5.128-4.804 1.016-1.248-.785-3.05-1.802-1.802-1.847 2.31-4.296 4.712-7.113 5.774-1.294.462.092-.415.138.924 0-.462.092-.924.231-1.386.37-1.663 1.016-3.326 1.663-4.896.647-1.386-1.524-2.68-2.171-1.201m37.186 9.146c3.28.878 7.207-2.725 9.332-4.85 2.263-2.264 4.573-6.329.092-7.345-2.54-.6-7.022-.462-8.13 2.402-.508 1.247-.832 2.587-1.248 3.88-.415 1.432-1.385 3.557-.97 5.082.416 1.57 2.864.924 2.449-.693-.185-.647.508-2.079.693-2.726.277-.97.6-1.986.877-2.956.185-.6.37-1.247.6-1.848.324-.878 2.495-.785 3.188-.785a8.238 8.238 0 0 1 2.587.277c.323.092-2.125 3.095-2.356 3.326-1.247 1.247-4.573 4.296-6.467 3.788-1.524-.416-2.217 2.032-.647 2.448"/><path d="M123.847 20.164c-1.017 2.31-2.31 5.081-2.218 7.668.093 3.234 4.666.693 5.96-.139 1.34-.877.092-3.048-1.294-2.17-.924.6-1.802 1.108-2.864 1.385.831-.185.693 1.525.693.6 0-.184.046-.369.092-.6.324-1.894 1.063-3.742 1.802-5.497.647-1.432-1.525-2.725-2.171-1.247m33.906 6.513c.832.37 1.525-.046 2.264-.416 1.34-.646 2.587-1.432 3.834-2.263 1.34-.878 6.051-4.158 3.742-6.283-1.017-.923-2.541-.923-3.88-.97-1.34 0-3.188 0-4.204 1.017-.97 1.016-1.34 2.771-1.71 4.111-.323 1.155-.739 2.494-.692 3.696.092 1.616 2.586 1.616 2.54 0-.092-1.617.693-3.604 1.247-5.128.37-1.016.509-1.016 1.617-1.109.97-.092 2.033-.138 2.957.093-.139-.047.184-.37-.231.138-.277.37-.693.693-1.017 1.017-.785.692-1.709 1.247-2.586 1.847-.97.647-2.772 1.848-3.604 1.987l.97.138c-1.431-.739-2.725 1.432-1.247 2.125m-11.363 2.818c1.847 1.155 5.358-1.617 6.698-2.633 1.616-1.201 5.774-5.774 1.894-7.068-2.218-.739-6.283-.831-7.576 1.478-.74 1.34-1.109 2.957-1.386 4.481-.231.97-.6 2.356-.092 3.326.785 1.432 2.956.139 2.17-1.293.278.554.093.138.14-.231.045-.37.138-.74.184-1.109.185-.924.416-1.848.74-2.725.184-.555.461-1.386.784-1.478 1.017-.324 2.264-.231 3.326-.185.924.046.74.138.278.97-.555.878-1.479 1.57-2.31 2.171-.74.554-1.57 1.016-2.402 1.478-.324.185-.647.324-.97.462-.555.231-.693-.046-.185.277-1.386-.97-2.68 1.248-1.293 2.079M48.504 21.18c-.6 1.617-3.788 9.054.6 8.223 3.326-.647 6.514-3.557 8.824-5.913 1.108-1.155-.647-2.957-1.802-1.802-1.755 1.802-3.788 3.465-6.005 4.666a8.67 8.67 0 0 1-1.386.554c-.647.046-.416.323.6.878 0-.277.047-.508.093-.785.277-1.756.924-3.465 1.524-5.128.555-1.524-1.894-2.217-2.448-.693m37.602-3.695c-1.201 2.586-2.263 5.266-2.956 8.037-.231 1.017-.832 3.05.37 3.742 1.477.832 3.74-.554 4.988-1.293 2.356-1.432 4.435-3.419 6.144-5.544 1.016-1.247-.785-3.049-1.802-1.801-1.986 2.494-4.758 5.266-7.899 6.236-.878.277.324 1.478.416.462.046-.693.277-1.386.462-2.033.6-2.263 1.478-4.434 2.494-6.513.647-1.478-1.524-2.772-2.217-1.293"/><path d="M139.09 21.18c-.507 1.524-3.371 8.269.14 8.269 1.847 0 3.695-1.294 5.127-2.31a25.62 25.62 0 0 0 4.989-4.758c1.016-1.247-.785-3.049-1.802-1.801-1.847 2.31-4.065 4.342-6.652 5.728-.508.277-1.062.508-1.663.554.6.97.878 1.155.832.554.046-.23.046-.462.092-.646.277-1.71.832-3.373 1.34-4.99.508-1.478-1.894-2.124-2.402-.6m-46.564 0c-.6 1.617-3.788 9.054.6 8.223 3.327-.647 6.514-3.557 8.824-5.913 1.155-1.155-.647-2.957-1.802-1.802-1.755 1.802-3.788 3.465-6.005 4.666a8.67 8.67 0 0 1-1.386.554c-.647.046-.416.323.6.878 0-.277.047-.508.093-.785.277-1.756.924-3.465 1.524-5.128.555-1.524-1.894-2.217-2.448-.693m12.98 3.234c-.323 1.986.047 5.22 2.772 5.22 3.141 0 6.052-2.68 8.177-4.62 1.2-1.062-.6-2.771-1.802-1.709-1.478 1.34-3.049 2.587-4.85 3.51-1.94 1.017-2.264-.369-1.848-2.124.37-1.525-2.079-2.171-2.448-.647.092-.046.046.231 0 .37"/><path d="M101.858 17.485c-1.155 2.448-2.078 4.942-2.725 7.53-.231.97-.785 2.54-.462 3.556.277.785 1.109 1.155 1.848.74.693-.37 1.108-1.34 1.57-1.94 1.017-1.433 1.987-2.819 3.141-4.112 1.525-1.71 3.65-3.557 6.098-3.095 1.57.277 2.264-2.125.693-2.449-2.264-.415-4.25.185-6.051 1.571-1.248.97-2.31 2.079-3.326 3.28-.601.693-1.155 1.386-1.663 2.125-.37.508-1.201 2.125-1.663 2.402.6.23 1.247.508 1.847.739.093.277.093-.554.139-.693.139-.693.277-1.386.462-2.079.554-2.17 1.386-4.296 2.31-6.328.646-1.432-1.525-2.726-2.218-1.247m-86.43 25.037c-.138-4.435-.276-8.685-1.246-13.073C12.519 21.873 8.638 14.805 2.494 10c-1.247-1.016-3.048.785-1.801 1.802 6.051 4.758 9.516 11.456 11.179 18.893.878 3.973.878 7.853 1.016 11.872.093 1.57 2.587 1.57 2.54-.046M67.352 18.5c-1.709-3.188-4.203-5.867-6.975-8.13-1.247-1.017-3.049.739-1.802 1.801 2.633 2.171 4.943 4.62 6.56 7.622.785 1.432 2.956.139 2.217-1.293"/><path d="M1.617 12.126c17.323.092 34.6.277 51.922.416 1.617 0 1.617-2.495 0-2.541-17.323-.139-34.6-.323-51.922-.416-1.617 0-1.617 2.541 0 2.541m57.835.416c9.562.046 19.124.138 28.687.185 1.616 0 1.616-2.495 0-2.541-9.563-.046-19.125-.139-28.687-.185-1.617 0-1.617 2.495 0 2.54m33.029 4.39h4.157c1.617 0 1.617-2.495 0-2.541h-4.157c-1.617 0-1.617 2.54 0 2.54m64.903 6.652c-.6 2.68-.786 5.913 2.771 6.19 2.864.185 5.913-2.31 7.946-4.019 1.247-1.062-.555-2.818-1.802-1.801-1.293 1.108-2.725 2.078-4.25 2.818-.462.23-2.032.877-2.494.323-.462-.647.092-2.125.23-2.818.37-1.617-2.032-2.31-2.401-.693m-31.459 9.378c6.93-2.31 9.285-8.13 11.364-14.552-.416.324-.831.6-1.2.924 1.893 0 3.787.046 5.635.046 1.617 0 1.617-2.54 0-2.54-1.894 0-3.788-.046-5.636-.046-.6 0-1.062.37-1.2.923-1.756 5.498-3.558 10.81-9.563 12.796-1.617.508-.924 2.957.6 2.449M102.967 3.072h3.003c.508 0 .877.092 1.108.277a.831.831 0 0 1 .324.693c0 .277-.093.6-.278.878-.184.323-.415.6-.693.831l-1.801 1.57 1.478 1.664c.139.185.277.323.37.508.092.185.138.37.138.554 0 .185-.046.416-.092.6-.046.186-.185.37-.323.509-.14.138-.324.23-.601.323-.231.093-.508.139-.878.139h-3.095l.185-.97h2.957c.277 0 .461-.046.554-.139a.525.525 0 0 0 .138-.37c0-.092-.046-.184-.092-.277-.046-.092-.139-.184-.23-.277l-1.71-1.986.092-.693 2.125-1.802c.139-.092.231-.23.324-.323a.737.737 0 0 0 .138-.37c0-.138-.046-.23-.138-.277-.093-.046-.231-.046-.462-.046h-2.818l.277-1.016zm10.347 2.125l-.277 1.801c-.046.139-.046.278-.046.416 0 .185.046.324.139.37.092.092.277.138.508.138h.23l-.138.97h-.462c-.462 0-.831-.092-1.062-.23-.231-.14-.37-.463-.37-.878-.323.37-.693.646-1.108.831-.416.185-.786.324-1.201.324-.555 0-1.017-.139-1.294-.462-.323-.324-.462-.74-.462-1.294 0-.6.139-1.155.416-1.663a4.09 4.09 0 0 1 1.062-1.293c.462-.37.97-.647 1.57-.832a6.173 6.173 0 0 1 1.849-.277h2.032l-.138.97h-1.894c-.462 0-.924.046-1.386.185-.462.139-.832.277-1.201.508-.37.231-.647.508-.832.878-.23.37-.323.785-.323 1.293 0 .185.046.37.092.508.047.139.139.231.231.324a.42.42 0 0 0 .324.138c.138.047.277.047.37.047.276 0 .507-.093.738-.185.231-.139.462-.324.647-.555.185-.23.37-.462.508-.739.139-.277.231-.554.277-.831l.047-.416h1.154v-.046zm6.837-.231c.046-.139.046-.277.046-.37 0-.184-.046-.323-.138-.415-.093-.093-.277-.139-.555-.139h-1.986l-.739 4.804h-1.062l.739-4.804h-1.017l.139-.97h4.342c.462 0 .832.092 1.063.23.23.14.37.463.37.879 0 .138 0 .277-.047.462l-.37 2.355c-.046.139-.046.278-.046.416 0 .185.046.324.139.37.092.092.277.092.554.092h.231l-.138.97h-.462c-.462 0-.832-.092-1.063-.23-.23-.14-.37-.463-.37-.878 0-.139 0-.278.047-.462l.323-2.31zm9.609-1.894h3.187c.508 0 .924.138 1.247.37.277.23.416.554.416.923 0 .231-.046.462-.185.693-.138.185-.277.416-.508.6.37.093.647.278.832.509.184.23.277.508.277.785 0 .324-.046.555-.185.832-.139.23-.277.462-.508.6-.231.185-.462.277-.785.37-.278.092-.601.138-.97.138h-1.11c-.554 0-.923-.092-1.108-.323a1.114 1.114 0 0 1-.323-.785c0-.139 0-.277.046-.416l.508-3.28h-1.016l.185-1.016zm2.771 2.494c.324-.092.555-.23.74-.37.184-.184.277-.369.277-.6a.42.42 0 0 0-.185-.37c-.139-.092-.324-.138-.555-.138H131.7l-.462 2.957v.369c0 .231.046.37.138.462.093.093.278.093.555.093h.831c.139 0 .277 0 .462-.047l.416-.138c.138-.046.23-.139.323-.277.093-.093.139-.231.139-.416 0-.185-.093-.324-.231-.462-.139-.139-.416-.185-.785-.185h-.601l.046-.878zm8.177 3.28h-2.587c-.416 0-.74-.046-1.017-.138a2.448 2.448 0 0 1-.692-.37c-.185-.185-.324-.37-.37-.554a1.475 1.475 0 0 1-.139-.647c0-.462.139-.97.37-1.432.23-.508.554-.924.97-1.34.37-.415.832-.739 1.34-.97.508-.23.97-.37 1.478-.37.416 0 .739.14.97.37.23.231.37.508.37.832 0 .323-.047.6-.185.877-.139.278-.324.462-.555.693-.23.185-.508.37-.785.509-.277.138-.6.23-.97.323l-1.848.416c0 .277.139.508.37.693.23.184.554.277 1.062.277h2.495l-.277.831zm-.74-4.943c-.23 0-.461.047-.739.185a3.99 3.99 0 0 0-.739.462c-.23.185-.462.416-.693.6a6.61 6.61 0 0 0-.508.694l.832-.185c.185-.046.37-.093.6-.139.231-.046.462-.138.693-.277.231-.092.416-.23.6-.416.14-.184.232-.37.232-.6a.353.353 0 0 0-.093-.231c-.046-.046-.092-.093-.184-.093zm3.927-3.372h.6c.416 0 .832.046 1.248.093.416.046.739.184 1.062.323.324.185.555.416.74.74.184.322.277.738.277 1.293v.184c0 .093 0 .185-.047.324 0 .138-.046.277-.046.462-.046.184-.046.415-.092.739v.046l-.093.554c-.092.693-.277 1.294-.554 1.756-.277.462-.554.831-.924 1.108a3.489 3.489 0 0 1-1.062.6c-.37.14-.74.186-1.109.186-.647 0-1.155-.185-1.478-.509-.37-.323-.508-.831-.508-1.385 0-.462.092-.924.323-1.386.231-.462.508-.878.924-1.247.416-.37.878-.693 1.432-.924a5.009 5.009 0 0 1 1.94-.37h.277c0-.37-.092-.647-.23-.831-.14-.231-.324-.416-.555-.509-.231-.092-.462-.184-.785-.184-.278 0-.555-.046-.832-.046h-.693l.185-1.017zm2.264 3.511c-.37 0-.74.092-1.11.185-.369.138-.692.323-1.015.554-.324.231-.555.554-.74.878-.184.323-.277.739-.277 1.108 0 .324.093.601.277.786.185.185.462.277.832.277.231 0 .508-.046.74-.185.276-.138.507-.277.692-.508.231-.185.416-.462.554-.74.139-.276.278-.6.324-.923l.23-1.57h-.507v.138zm8.915 4.804h-.462c-.462 0-.831-.092-1.062-.23-.231-.14-.37-.463-.37-.878 0-.139 0-.278.046-.462l.139-.878h-2.818l-.37 2.402h-1.062l.6-3.88c.047-.139.047-.277.047-.37 0-.185-.047-.323-.139-.416-.092-.092-.277-.092-.554-.092h-.231l.138-.97h.462c.462 0 .832.092 1.063.23.23.14.37.463.37.879 0 .138 0 .277-.047.462l-.138.831h2.817l.37-2.402h1.062l-.6 3.88c-.046.139-.046.277-.046.37 0 .185.046.323.138.416.093.092.277.138.555.138h.23l-.138.97zm13.073 0h-2.587c-.416 0-.739-.046-1.016-.138a2.448 2.448 0 0 1-.693-.37c-.185-.185-.323-.37-.37-.554a1.475 1.475 0 0 1-.138-.647c0-.462.138-.97.37-1.432.23-.508.554-.924.97-1.34.369-.415.83-.739 1.293-.97.508-.23.97-.37 1.478-.37.416 0 .74.14.97.37.231.231.37.508.37.832 0 .323-.093.6-.185.877-.139.278-.323.462-.554.693-.231.185-.509.37-.786.509-.277.138-.6.23-.97.323l-1.848.416c0 .277.139.508.37.693.231.184.554.277 1.062.277h2.495l-.231.831zm-.74-4.943c-.23 0-.461.047-.738.185a3.99 3.99 0 0 0-.74.462c-.23.185-.461.416-.692.6-.231.232-.37.463-.508.694l.831-.185c.185-.046.37-.093.6-.139.232-.046.463-.138.694-.277.23-.092.415-.23.6-.416.139-.184.231-.37.231-.6a.353.353 0 0 0-.092-.231c-.047-.046-.093-.093-.185-.093zm-38.802.693c-.046-.23-.647-1.062-1.248-1.386-.277-.138-.692-.23-1.108-.23-.508 0-1.016.092-1.432.323a3.038 3.038 0 0 0-1.063.785c-.277.324-.554.693-.693 1.155a4.243 4.243 0 0 0-.23 1.293c0 .324.046.647.138.924.092.278.277.555.462.74.185.23.462.369.785.508.324.138.693.184 1.109.184.508 0 .97-.092 1.386-.277.416-.185.785-.416 1.062-.739s.555-.693.693-1.062c.139-.416.231-.832.231-1.294.046-.323 0-.647-.092-.924m-1.063 1.848c-.092.277-.23.554-.462.74a2.045 2.045 0 0 1-.693.554c-.277.138-.6.184-.923.184-.555 0-.924-.138-1.202-.462a1.655 1.655 0 0 1-.415-1.108c0-.324.046-.6.138-.878.093-.277.277-.554.462-.785.185-.185.37-.37.647-.508 0 0 .97-.37 1.432-.185.046 0 1.062.277 1.155 1.57.046.278-.046.555-.139.878m34.554-1.755c-.047-.231-.647-1.063-1.248-1.386-.277-.139-.693-.231-1.108-.231-.509 0-1.017.092-1.432.323a3.727 3.727 0 0 0-1.109.786c-.277.323-.554.692-.693 1.154a4.243 4.243 0 0 0-.23 1.294c0 .323.045.647.138.924.092.277.277.554.462.739.23.23.462.37.785.508.323.139.693.185 1.109.185.508 0 .97-.093 1.385-.277.416-.185.786-.416 1.063-.74.277-.323.508-.692.693-1.062.138-.416.23-.831.23-1.293.093-.278.047-.6-.045-.924m-1.063 1.847c-.092.278-.23.555-.462.74a2.045 2.045 0 0 1-.693.554c-.277.139-.6.185-.924.185-.554 0-.924-.139-1.2-.462a1.655 1.655 0 0 1-.416-1.109c0-.323.046-.6.138-.878.093-.277.277-.554.462-.785.185-.185.37-.37.647-.508 0 0 .97-.37 1.478-.185.046 0 1.062.324 1.155 1.57 0 .324-.046.601-.185.878"/></g></svg>