<svg xmlns="http://www.w3.org/2000/svg" width="118" height="124" viewBox="0 0 118 124"><g fill="none" fill-rule="evenodd"><path fill="#3C3C3B" fill-rule="nonzero" d="M1.8 88.2v-8.4H.9v-1.6h7.9c.7 0 1 .3 1 1v7.2c0 .2.1.3.3.3h.6v1.6H8.9c-.7 0-1-.3-1-1V80c0-.2-.1-.3-.3-.3H3.7v8.4H1.8v.1zM12.2 91v-8.2c0-.2-.1-.3-.3-.3h-.6V81h1.6c.6 0 .9.2.9.7v.3c0-.1.1-.1.3-.4.3-.4 1-.7 2-.7s1.7.4 2.3 1c.6.7.9 1.6.9 2.7s-.3 2-.9 2.7c-.6.7-1.4 1-2.4 1-1.1 0-1.8-.6-2-.8l-.1-.1V91h-1.7zm2.2-4.8c.3.4.8.6 1.3.6 1 0 1.8-.9 1.8-2.2 0-1.4-.7-2.3-1.8-2.3-1 0-1.8.8-1.8 2.3.1.6.2 1.2.5 1.6zm6.6 2v-5.4c0-.2-.1-.3-.3-.3h-.5V81h1.6c.7 0 .9.3.9.9v3.8c.1-.1.2-.4.6-.9l2.6-3.9h1.8v5.4c0 .2.1.3.3.3h.6v1.5H27c-.7 0-1-.3-1-.9v-3.8c0 .1-.2.4-.6.9l-2.7 3.9H21zm9-1.2c-.5-.9-.7-1.9-.7-3.2 0-1.3.2-2.2.6-2.9.4-.7 1-1.3 2-1.7l1.4-.6c.7-.3.8-.4.8-.7v-.3h1.7v.7c0 .5-.1.8-.5 1.1-.2.1-.3.2-.5.3-.1.1-.4.2-.7.3l-1.5.6c-1 .4-1.5 1.1-1.6 2.1.6-.7 1.3-1.1 2.3-1.1.9 0 1.7.3 2.3.9.6.6.9 1.4.9 2.4s-.3 1.9-1 2.5c-.7.6-1.5.9-2.6.9-1.4.1-2.3-.5-2.9-1.3m2.9-.1c1 0 1.8-.7 1.8-1.9s-.7-1.9-1.7-1.9-1.8.8-1.8 1.9c-.1 1.1.7 1.9 1.7 1.9m5.5-2.6c.3-.2.7-.3 1.1-.4.9-.2 1.4-.2 2-.2h.2v-.1c0-1-.4-1.4-1.3-1.4-.5 0-1 .1-1 .5v.4h-1.7v-.8c0-.6.4-1.1 1.1-1.2.6-.2 1.1-.2 1.5-.2 2.3 0 3.2 1.1 3.2 2.9v2.7c0 .2.1.3.3.3h.6v1.5h-1.6c-.6 0-.9-.3-.9-.8v-.3s-.6 1.3-2.2 1.3c-.7 0-1.2-.2-1.7-.6-.5-.4-.7-.9-.7-1.6 0-1 .5-1.7 1.1-2m1.8 2.7c.5 0 .9-.2 1.2-.6.3-.4.5-.8.5-1.3v-.2h-.3c-1.6 0-2.4.4-2.4 1.1-.1.5.3 1 1 1m5.6 1.2v-5.4c0-.2-.1-.3-.3-.3H45V81h1.6c.7 0 .9.3.9.9v3.8c.1-.1.2-.4.6-.9l2.6-3.9h1.8v5.4c0 .2.1.3.3.3h.6v1.5h-1.6c-.7 0-1-.3-1-.9v-3.8c0 .1-.2.4-.6.9l-2.7 3.9h-1.7zm1-10h1.4v.2c-.1 1.2 1.9 1.2 1.9 0v-.2h1.4v.2c0 .6-.2 1.1-.7 1.4-.5.4-1 .5-1.6.5-.6 0-1.2-.2-1.6-.5-.5-.4-.7-.8-.7-1.4v-.2h-.1zm7.9 10v-5.4c0-.2-.1-.3-.3-.3h-.6V81h1.7c.7 0 1 .3 1 1v1.7h.5c.3 0 .6-.1.7-.3l1.5-2.4h2l-1.9 2.9c-.2.3-.4.5-.5.5h-.1c.2.1.4.3.6.6l.8 1.4c.1.2.3.3.6.3h.5v1.5h-1.3c-.6 0-.8-.1-1.1-.6l-1.1-2.1c-.1-.2-.3-.3-.6-.3h-.5v3h-1.9zm8.3-3.9c.3-.2.7-.3 1.1-.4.9-.2 1.4-.2 2-.2h.2v-.1c0-1-.4-1.4-1.3-1.4-.5 0-1 .1-1 .5v.4h-1.7v-.8c0-.6.4-1.1 1.1-1.2.6-.2 1.1-.2 1.5-.2 2.3 0 3.2 1.1 3.2 2.9v2.7c0 .2.1.3.3.3h.6v1.5h-1.6c-.6 0-.9-.3-.9-.8v-.3s-.6 1.3-2.2 1.3c-.7 0-1.2-.2-1.7-.6-.5-.4-.7-.9-.7-1.6 0-1 .5-1.7 1.1-2m1.7 2.7c.5 0 .9-.2 1.2-.6.3-.4.5-.8.5-1.3v-.2h-.3c-1.6 0-2.4.4-2.4 1.1-.1.5.4 1 1 1m4.7-.4c.5 0 .9-.4 1.1-1 .3-.7.4-1.5.4-2.6v-.5H70V81h5.1c.7 0 .9.3.9 1v4.4c0 .2.1.3.3.3h.6v1.5h-1.7c-.7 0-.9-.3-.9-1v-4.4c0-.2-.1-.3-.3-.3h-1.4v.6c0 1.3-.1 2.3-.6 3.4-.4 1.1-1.3 1.8-2.6 1.8v-1.7zm8.9-3.8c0-.2-.1-.3-.3-.3h-.6V81h1.7c.6 0 .9.3.9.8v1.7h1.3c1.7 0 2.7.9 2.7 2.4s-1.1 2.4-2.7 2.4H79c-.5 0-.8-.2-.8-.8v-4.7h.1zm1.8 3.9c0 .2.1.3.3.3h.8c.7 0 1.2-.5 1.2-1.1 0-.7-.4-1.1-1.2-1.1h-1v1.9h-.1zm5.7-4.8c.7-.7 1.7-1.1 2.9-1.1.4 0 .7 0 1.1.1.4.1.7.3 1 .5.3.3.5.6.5 1v.8h-1.6v-.4c0-.4-.5-.6-1-.6-.6 0-1.1.2-1.5.6-.4.4-.6 1-.6 1.6 0 .7.2 1.2.6 1.6.4.4 1 .6 1.6.6.9 0 1.8-.6 2-.9l.1-.1.7 1.2c-.1.1-.1.2-.5.5-.2.2-.4.3-.6.4-.4.2-1.2.5-1.9.5-1.2 0-2.1-.4-2.8-1.1-.7-.7-1.1-1.6-1.1-2.7.1-.9.4-1.8 1.1-2.5m7.3 6.3v-5.4c0-.2-.1-.3-.3-.3h-.6V81h1.7c.7 0 1 .3 1 1v1.7h.5c.3 0 .6-.1.7-.3l1.5-2.4h2l-1.9 2.9c-.2.3-.4.5-.5.5h-.1c.2.1.4.3.6.6l.8 1.4c.1.2.3.3.6.3h.5v1.5h-1.3c-.6 0-.8-.1-1.1-.6l-1.1-2.1c-.1-.2-.3-.3-.6-.3H95v3h-1.9zm7.9 0v-5.4c0-.2-.1-.3-.3-.3h-.5V81h1.6c.7 0 .9.3.9.9v3.8c.1-.1.2-.4.6-.9l2.6-3.9h1.8v5.4c0 .2.1.3.3.3h.6v1.5H107c-.7 0-1-.3-1-.9v-3.8c0 .1-.2.4-.6.9l-2.7 3.9H101zm9 0v-5.4c0-.2-.1-.3-.3-.3h-.5V81h1.6c.7 0 .9.3.9.9v3.8c.1-.1.2-.4.6-.9l2.6-3.9h1.8v5.4c0 .2.1.3.3.3h.6v1.5H116c-.7 0-1-.3-1-.9v-3.8c0 .1-.2.4-.6.9l-2.7 3.9H110zm1-10h1.4v.2c-.1 1.2 1.9 1.2 1.9 0v-.2h1.4v.2c0 .6-.2 1.1-.7 1.4-.5.4-1 .5-1.6.5-.6 0-1.2-.2-1.6-.5-.5-.4-.7-.8-.7-1.4v-.2h-.1zM8.5 104.3v-5.4c0-.2-.1-.3-.3-.3h-.6v-1.5h1.7c.7 0 1 .3 1 1v1.8h3.1v-2.8h1.8v5.4c0 .2.1.3.3.3h.6v1.5h-1.7c-.7 0-1-.3-1-1v-2h-3.1v2.9H8.5v.1zm9.3-3.9c.3-.2.7-.3 1.1-.4.9-.2 1.4-.2 2-.2h.2v-.1c0-1-.4-1.4-1.3-1.4-.5 0-1 .1-1 .5v.4h-1.7v-.8c0-.6.4-1.1 1.1-1.2.6-.2 1.1-.2 1.5-.2 2.3 0 3.2 1.1 3.2 2.9v2.7c0 .2.1.3.3.3h.6v1.5h-1.6c-.6 0-.9-.3-.9-.8v-.3s-.6 1.3-2.2 1.3c-.7 0-1.2-.2-1.7-.6-.5-.4-.7-.9-.7-1.6 0-1 .5-1.7 1.1-2m1.7 2.7c.5 0 .9-.2 1.2-.6.3-.4.5-.8.5-1.3v-.2h-.3c-1.6 0-2.4.4-2.4 1.1-.1.6.3 1 1 1m5.6-4.2c0-.2-.1-.3-.3-.3h-.6v-1.5h1.7c.7 0 1 .3 1 1v4.5c0 .2.1.3.3.3h2.5v-5.7h1.8v5.7h.2c.6 0 .9.3.9.9v2.2H31v-1.4c0-.2-.1-.3-.3-.3h-4.6c-.7 0-1-.3-1-.9v-4.5zm8.8 5.4v-5.4c0-.2-.1-.3-.3-.3h-.5v-1.5h1.6c.7 0 .9.3.9.9v3.8c.1-.1.2-.4.6-.9l2.6-3.9h1.8v5.4c0 .2.1.3.3.3h.6v1.5h-1.6c-.7 0-1-.3-1-.9v-3.8c0 .1-.2.4-.6.9l-2.7 3.9h-1.7zm9.4-.9c-.7-.7-1.1-1.6-1.1-2.7s.4-2 1.1-2.7c.8-.7 1.7-1.1 2.8-1.1 1.1 0 2 .4 2.8 1.1.8.7 1.1 1.6 1.1 2.7s-.4 2-1.1 2.7c-.7.7-1.7 1.1-2.8 1.1-1.1 0-2.1-.4-2.8-1.1m1.3-1.1c.4.4.9.6 1.5.6s1.1-.2 1.5-.6c.4-.4.6-1 .6-1.6 0-.6-.2-1.2-.6-1.6-.4-.4-.9-.6-1.5-.6s-1.1.2-1.5.6c-.4.4-.6 1-.6 1.6-.1.7.2 1.2.6 1.6m7 2v-5.4c0-.2-.1-.3-.3-.3h-.6v-1.5h1.7c.7 0 1 .3 1 1v1.8h3.1v-2.8h1.8v5.4c0 .2.1.3.3.3h.6v1.5h-1.7c-.7 0-1-.3-1-1v-2h-3.1v2.9h-1.8v.1zm9.3-3.9c.3-.2.7-.3 1.1-.4.9-.2 1.4-.2 2-.2h.2v-.1c0-1-.4-1.4-1.3-1.4-.5 0-1 .1-1 .5v.4h-1.7v-.8c0-.6.4-1.1 1.1-1.2.6-.2 1.1-.2 1.5-.2 2.3 0 3.2 1.1 3.2 2.9v2.7c0 .2.1.3.3.3h.6v1.5h-1.6c-.6 0-.9-.3-.9-.8v-.3s-.6 1.3-2.2 1.3c-.7 0-1.2-.2-1.7-.6-.5-.4-.7-.9-.7-1.6-.1-1 .5-1.7 1.1-2m1.7 2.7c.5 0 .9-.2 1.2-.6.3-.4.5-.8.5-1.3v-.2H64c-1.6 0-2.4.4-2.4 1.1-.1.6.3 1 1 1m4.7-.3c.5 0 .9-.4 1.1-1 .3-.7.4-1.5.4-2.6v-.5h-.9v-1.5H73c.7 0 .9.3.9 1v4.4c0 .2.1.3.3.3h.6v1.5h-1.7c-.7 0-.9-.3-.9-1V99c0-.2-.1-.3-.3-.3h-1.4v.6c0 1.3-.1 2.3-.6 3.4-.4 1.1-1.3 1.8-2.6 1.8v-1.7zm8.9-3.9c0-.2-.1-.3-.3-.3h-.6v-1.5H77c.6 0 .9.3.9.8v1.7h1.3c1.7 0 2.7.9 2.7 2.4s-1.1 2.4-2.7 2.4H77c-.5 0-.8-.2-.8-.8v-4.7zm1.8 3.9c0 .2.1.3.3.3h.8c.7 0 1.2-.5 1.2-1.1 0-.7-.4-1.1-1.2-1.1h-1v1.9H78zm5.3 1.5v-5.4c0-.2-.1-.3-.3-.3h-.6v-1.5h1.7c.7 0 1 .3 1 1v1.8h3.1v-2.8H90v5.4c0 .2.1.3.3.3h.6v1.5h-1.7c-.7 0-1-.3-1-1v-2h-3.1v2.9h-1.8v.1zm8.9-5.4c0-.2-.1-.3-.3-.3h-.6v-1.5H93c.6 0 .9.3.9.8v1.7h1.3c1.7 0 2.7.9 2.7 2.4s-1.1 2.4-2.7 2.4H93c-.5 0-.8-.2-.8-.8v-4.7zm1.8 3.9c0 .2.1.3.3.3h.8c.7 0 1.2-.5 1.2-1.1 0-.7-.4-1.1-1.2-1.1h-1v1.9H94zm5-5.7h1.8v5.4c0 .2.1.3.3.3h.6v1.5H100c-.7 0-1-.3-1-1v-6.2zm4.1 7.2v-5.4c0-.2-.1-.3-.3-.3h-.5v-1.5h1.6c.7 0 .9.3.9.9v3.8c.1-.1.2-.4.6-.9L108 97h1.8v5.4c0 .2.1.3.3.3h.6v1.5H109c-.7 0-1-.3-1-.9v-3.8c0 .1-.2.4-.6.9l-2.7 3.9h-1.6zm1-10h1.4v.2c-.1 1.2 1.9 1.2 1.9 0v-.2h1.4v.2c0 .6-.2 1.1-.7 1.4-.5.4-1 .5-1.6.5-.6 0-1.2-.2-1.6-.5-.5-.4-.7-.8-.7-1.4v-.2h-.1zm-60.4 26.1v-5.7h-.9v-1.5h6.4c.7 0 1 .3 1 1v4.4c0 .2.1.3.3.3h.6v1.5h-1.7c-.7 0-1-.3-1-1V115c0-.2-.1-.3-.3-.3h-2.6v5.7h-1.8zm9.1-3.9c.3-.2.7-.3 1.1-.4.9-.2 1.4-.2 2-.2h.2v-.1c0-1-.4-1.4-1.3-1.4-.5 0-1 .1-1 .5v.4h-1.7v-.8c0-.6.4-1.1 1.1-1.2.6-.2 1.1-.2 1.5-.2 2.3 0 3.2 1.1 3.2 2.9v2.7c0 .2.1.3.3.3h.6v1.5h-1.6c-.6 0-.9-.3-.9-.8v-.3s-.6 1.3-2.2 1.3c-.7 0-1.2-.2-1.7-.6-.5-.4-.7-.9-.7-1.6 0-1 .5-1.7 1.1-2m1.8 2.7c.5 0 .9-.2 1.2-.6.3-.4.5-.8.5-1.3v-.2H56c-1.6 0-2.4.4-2.4 1.1-.1.6.3 1 1 1m5.6 4V115c0-.2-.1-.3-.3-.3h-.6v-1.5h1.6c.6 0 .9.2.9.7v.3c0-.1.1-.1.3-.4.3-.4 1-.7 2-.7s1.7.4 2.3 1c.6.7.9 1.6.9 2.7s-.3 2-.9 2.7c-.6.7-1.4 1-2.4 1-1.1 0-1.8-.6-2-.8l-.1-.1v3.6h-1.7zm2.2-4.8c.3.4.8.6 1.3.6 1 0 1.8-.9 1.8-2.2 0-1.4-.7-2.3-1.8-2.3-1 0-1.8.8-1.8 2.3 0 .7.2 1.2.5 1.6zm6.5 2V115c0-.2-.1-.3-.3-.3H68v-1.5h1.7c.7 0 1 .3 1 1v1.7h.5c.3 0 .6-.1.7-.3l1.5-2.4h2l-1.9 2.9c-.2.3-.4.5-.5.5h-.1c.2.1.4.3.6.6l.8 1.4c.1.2.3.3.6.3h.5v1.5h-1.3c-.6 0-.8-.1-1.1-.6l-1.1-2.1c-.1-.2-.3-.3-.6-.3h-.5v3h-1.9z"/><path fill="#E6B16D" d="M85.7 28.1c.1 5.7-.6 11.2-.6 16.9 0 1.9-.2 8.6-.2 10.9 0 1.3 2.8 1.5 2.8-.3.1-2.7-.2-8.3-.2-9.4 0-1.4-.1-2.6-.1-4-.1-2.6-.2-5.4-.2-8.1 0-1.6 0-6.6-.3-7.8-.5-1.9-1.1-1-1.3 1.4"/><path fill="#E6B16D" d="M86.3 44.2c-2.1-.2-4.1-.3-6.2-.6-1.7-.2-4-1.6-5.8-1.1-.2 2 2.7 3.1 4.7 3.3 1.6.2 2.7.3 4.4 0 .4-.1 4.2-1 2.4-1.4m.6 1.8c-2.3.3-4.7.6-7 .8-1.1.1-2.2 0-3.3 0-.7 0-2.6-.1-3.1.3-1.9 1.1 2.3 2.2 3.2 2.3 1.9.3 4 0 6-.4 1.7-.4 4.8-1.5 4.2-3m0 2.4c-2.2.8-4.3 1.9-6.5 2.7-1.1.4-1.7.7-3.3.9-.7.1-2.5.2-2.9.7-1.5 1.7 2.9 1.9 3.8 1.8 1.9-.1 3.9-.9 5.7-1.8 1.5-.8 3-2.5 3.2-4.2m-1-6.7c-1-.2-1.9-.7-2.8-1-.9-.3-1.7-.5-2.6-.9-.9-.4-4.1-2.3-4.4-1.2-.3.8 2.2 2.5 3.2 3 1.5.8 3.6 1.2 5.4 1.3.8 0 2 .1 2.3-.5-.3-.3-.8-.5-1.3-.7m1.1-5.2c-.7-.4-1.4-1.2-2.1-1.8-.7-.5-1.3-1-1.9-1.6-.7-.6-2.8-3.4-3.4-2.5-.5.8 1.2 3.1 1.9 3.9 1.1 1.2 3.4 2.7 4.9 3.3.7.3.9.2 1.4-.4-.2-.4-.5-.8-.9-1.1m.2-3.2c-.5-.4-1-1.1-1.5-1.5-.5-.4-.9-.9-1.4-1.4-.5-.5-1.8-3.1-2.4-2.1-.4.7.7 2.8 1.1 3.5.7 1.1 1.9 1.9 3 2.4.5.2 1.2.5 1.6 0-.1-.4-.3-.7-.6-.9m.5-3.2c-.4-.3-.7-1-1.1-1.5-.3-.4-.7-.8-1-1.3-.3-.5-1.3-2.9-1.8-2-.3.7.4 2.7.8 3.3.5 1 1.4 1.8 2.2 2.3.4.2.9.5 1.2 0-.1-.4-.3-.6-.5-.9m.3-3.1c-.2-.2-.4-.6-.6-.8-.2-.2-.4-.5-.6-.7-.2-.3-.8-1.6-1-1.1-.2.4.3 1.5.5 1.8.3.6.8 1 1.3 1.3.2.1.5.3.7 0-.1-.2-.2-.4-.3-.5"/><path fill="#E6B16D" d="M86 27c.2-.2.4-.6.5-.9.2-.3.3-.5.5-.8.2-.3.6-1.7.9-1.2.2.3-.1 1.5-.3 1.9-.2.6-.7 1.1-1.2 1.4-.2.1-.5.3-.7.1.2-.3.3-.4.3-.5m1.2 13.2c-1.5-.9-3-1.7-4.5-2.6-1.5-.9-2.7-2.3-4.3-3.1-2.3-1.2-.7 1.6-.1 2.4.9 1.3 2.2 2.3 3.6 3 1.5.7 3.7 1.3 5.3.7v-.3m-1.3 3.5c2-.1 4-.1 6-.3 1.6-.2 3.9-1.5 5.7-.9.1 2-2.7 3-4.8 3.1-1.6.1-2.6.2-4.3-.2-.4-.1-4-1.2-2.3-1.6m-.4 2c2.6.4 5.3.8 7.9 1.1 1.3.2 2.5.1 3.7.2.8.1 2.9 0 3.5.4 2 1.2-2.8 2.2-3.8 2.3-2.2.2-4.5-.1-6.8-.6-1.9-.4-5.3-1.7-4.5-3.2m.2 3c2.2.7 4.4 1.5 6.6 2.1 1.1.3 1.8.6 3.3.7.7 0 2.5 0 3 .4 1.5 1.5-2.9 2-3.8 2-1.9 0-4-.6-5.9-1.3-1.5-.6-3.1-2.1-3.3-3.8m1.1-7.5c.9-.1 1.9-.6 2.9-.9.9-.2 1.8-.5 2.6-.8.9-.3 4.2-2.1 4.5-1 .2.8-2.4 2.4-3.4 2.8-1.5.7-3.6 1-5.5 1.1-.8 0-2 0-2.3-.7.3-.3.9-.5 1.4-.6m-1.3-4.9c.7-.3 1.3-.9 2-1.3.6-.4 1.2-.7 1.8-1.2.6-.5 2.6-2.6 3.2-1.7.4.7-1.2 2.5-1.8 3-1 .9-3.2 1.9-4.6 2.3-.6.2-.9.1-1.3-.4.2-.3.5-.6.9-.8m.3-3.4c.4-.2.7-.7 1.1-1 .3-.3.7-.6 1-.9.3-.4 1.3-2.2 1.9-1.4.4.6-.2 2.1-.5 2.6-.5.7-1.4 1.3-2.4 1.5-.4.1-1 .2-1.5-.2 0-.3.2-.5.4-.6m-.2-2.8c.3-.3.5-.8.8-1.1.3-.3.5-.6.8-1 .2-.4.9-2.3 1.4-1.5.4.6-.1 2.2-.3 2.7-.3.8-1 1.4-1.8 1.8-.3.1-.8.3-1.1-.1 0-.5.1-.7.2-.8"/><path fill="#E6B16D" d="M85.3 39.8c1.4-.7 2.9-1.3 4.3-2 1.5-.7 2.7-1.9 4.2-2.5 2.2-.9.6 1.5 0 2.2-.9 1.1-2.1 1.9-3.5 2.4s-3.5.9-5 .3V40m.3-5c-.1-1.7.3-3.4.2-5.3-.1-1.4-.2-6.8.1-7.2 1-1 .8 3.2.8 4 0 1.5.2 3 .2 4.4 0 1.2.1 2.6-.2 3.7-.1.3-.2 1.2-.4 1.3-.3.2-.6-.6-.4-1"/><path fill="#E6B16D" fill-rule="nonzero" d="M95.2 62.1c-16.2-.1-.4-.1-16.6-.2-3.2 0-2.4-2-.5-1.9 1.8.1 3.3-.3 11.8-.4 11-.2 12.5.8 11.1 2.1-.6.5-5.8.4-5.8.4"/><path fill="#E6B16D" d="M47.8 34.8c.2 3.8-.3 7.5-.3 11.3 0 1.2-.1 6.3-.1 8.2 0 1.7 3 1.4 2.8-.4-.2-2.1-.4-6.3-.4-7 0-1-.1-1.8-.2-2.7-.1-1.8-.3-3.6-.3-5.5 0-1.1-.1-4.4-.4-5.2-.5-1.3-1.1-.7-1.2.9"/><path fill="#E6B16D" d="M48.2 34.2c.2-.2.3-.6.5-.9.2-.3.3-.5.5-.8.1-.3.6-1.7.8-1.3.2.3-.1 1.5-.2 1.9-.2.6-.6 1.1-1.1 1.5-.2.1-.5.3-.7.1.1-.2.2-.4.2-.5m0 10.6c.7-.3 1.4-.9 2-1.3.6-.4 1.3-.8 1.9-1.2.6-.5 2.8-2.7 3.3-1.8.3.7-1.4 2.5-2.1 3.1-1 .9-3.3 2-4.7 2.4-.6.2-.8.1-1.2-.4.2-.4.6-.6.9-.8m.5-4.2c.6-.3 1-1 1.5-1.4.5-.4 1-.8 1.4-1.3.5-.5 1.9-2.8 2.5-1.9.5.7-.6 2.6-1 3.2-.7 1-2 1.8-3.2 2.2-.5.2-1.3.4-1.8 0 .1-.4.4-.6.6-.8m-.6-3.1c.4-.3.8-1 1.2-1.4.4-.4.8-.8 1.1-1.3.4-.5 1.5-2.8 2-1.9.3.7-.6 2.6-1 3.2-.6 1-1.5 1.7-2.4 2.2-.4.2-1 .4-1.3-.1.1-.4.3-.6.5-.8m-.7 10.5c1.2-.5 2.5-1 3.7-1.6 1.2-.6 1.6-1 2.8-1.6 1.4-.6.1 1.6-.5 2.3-.8.9-1.6 1.3-2.8 1.6-1.3.3-2.1.4-3.2-.3v-.2"/><path fill="#E6B16D" d="M47.9 42.8c-.1-1.8.2-3.5.1-5.4-.1-1.4-.3-6.9 0-7.4.9-1.1.8 3.3.8 4 .1 1.5.2 3 .2 4.5 0 1.2.1 2.7-.1 3.8-.1.3-.2 1.2-.4 1.4-.3.2-.6-.6-.4-1.1"/><path fill="#E6B16D" d="M48.2 34.2c-.2-.2-.3-.6-.5-.9-.2-.3-.3-.5-.4-.8-.1-.3-.5-1.7-.8-1.3-.2.3 0 1.5.1 1.9.2.6.6 1.1 1 1.5.2.1.4.3.7.1.1-.2 0-.4-.1-.5m0 10.4c-.6-.3-1.2-1-1.8-1.4-.6-.4-1.1-.8-1.7-1.3-.6-.5-2.5-2.8-2.9-1.9-.3.7 1.3 2.6 1.9 3.2.9 1 2.9 2.1 4.2 2.5.5.2.8.1 1.1-.4-.2-.4-.5-.6-.8-.8m-.5-3.7c-.5-.3-2.1-2.3-2.5-2.8-.4-.5-1.6-2.9-2.1-2-.4.7.5 2.7.9 3.4.6 1 1.7 1.8 2.7 2.3.4.2 1.1.5 1.5-.1-.1-.4-.3-.6-.5-.9m.5-3.3c-.4-.3-.7-1-1-1.5-.3-.4-.6-.8-.9-1.3-.3-.5-1.2-2.9-1.7-2-.3.6.4 2.6.7 3.3.5 1 1.3 1.8 2.1 2.3.3.2.8.5 1.1 0 0-.4-.2-.6-.3-.8m.3 10.2c-1.2-.6-2.5-1-3.7-1.6-1.2-.6-2.2-1.7-3.5-2.2-1.8-.8-.5 1.4.1 2 .8 1 1.8 1.7 3 2.1 1.2.5 3.1.9 4.3.3-.1 0-.2-.5-.2-.6"/><path fill="#E6B16D" fill-rule="nonzero" d="M67.2 19.2c-1.1-.4-3.4.4-4.2-.5-1.2-1.2 1.4-1.3 2.1-1.3 1.9-.1 4-.6 5.8-.1 1.1.3 1.7 1 .6 1.6-1.5 1-3.2.2-4.3.3m-2-6.8c-1.2-.4-1.8.4-2.7-.5-1.3-1.2.5-1.3 1.2-1.3 2-.1 3-.6 5-.1 1.1.3 1.8 1 .6 1.6-1.6 1-3 .2-4.1.3M36.1 37.2c-1.3-.2-3.9.2-4.7.2-.5 0-1.3-.1-1.8.2-1 .2-2.2.6-1.7 1.4.3.4 1.2.2 1.6.2.2.1.5.2.7.2 1.1.2 2.3.4 3.4.2.6-.1 4.3 0 4.2-1.3-.1-1-1.2-1-1.7-1.1m32.6 6.6c-.4-1.2-1.1-1.9-1.4-2.6-.2-.5-.5-1.2-1-1.6-.6-.8-1.4-1.7-1.9-1-.2.4.3 1.2.6 1.5 0 .3.1.5.1.7.3 1 .7 2.2 1.3 3.1.3.5 1.2 2.3 2.1 1.8.7-.5.3-1.4.2-1.9m-2.3-18.4c-.5-.1-1.1 0-1.7.1-.8.1-1.7.1-2.5.1-1.3 0-2.6-.1-3.9-.1-.8 0-2.2-.1-1.9-.8.2-.4.6-.6 1.1-.7 1.1-.1 2.6-.2 3.8-.3 4.7-.2 9.4-.2 14.1-.3 1.1 0 3.1-.3 3.8.5.7.7 0 1.5-1.1 1.6-2.5.2-5 .1-7.5.1-1.4 0-2.7.1-4.2-.2m-25.6 6.9c-.9 0-3.6-.1-4.5-.1-.7 0-2 .3-2.2-.4-.5-2 5.8-1.7 6.7-1.3 1.4.5.6 1.7 0 1.8"/><path fill="#E6B16D" d="M18.3 55c-1.1-.4-3.2.4-4.1-.1-.8-.5-.2-1.5.6-1.9 1.6-.8 4.4-.3 6.1-.3 3 0 6.1 0 9.1-.1 1.9-.1 9.6-1.7 10.5.7.6 1.5-3.4 1.3-4.5 1.4-2.2.2-4.5.1-6.7.2-3.3.3-6.9.4-11 .1"/><path fill="#E6B16D" fill-rule="nonzero" d="M47.5 62.1c-1.3 0-2.7.2-4 .2-2.3.1-7.9.1-10.2 0-1.9 0-5 0-6.9.1-1.8.1-3.6-.1-5.4 0-2.9.3-6 .4-8.9.2-1.9-.1-2.2.2-4-.7-.4-.2-.6-.3-.6-.7 0-.6 1.5-.8 2-.9 1.2-.3 2.6-.2 3.9-.3 1.7 0 1.4 0 3.1.2 1.8.2 2.7 0 4.5.1 1.8.1 3.6.1 5.4 0 1.7-.1 4.6-.2 6.3-.3 1.6-.1 3.5.1 5.1 0 2.9-.1 6.6 0 10 .2.6 0 1.3.3 1 1.1-.3.5-.7.7-1.3.8M34.8 46.9c-.9 0-1.8.1-2.7.1h-4.5c-.7 0-1.7 0-2.4.1-.8.1-1.6.1-2.4 0-.2 0-.9-.1-1-.3-.1-.1-.1-.6-.1-.7 0-.4.2-.7.4-.8.4-.2.9-.2 1.3-.1.5 0 1.5-.1 2-.1 1.4 0 4.3-.2 5.7-.1 1.1.1 1.9 0 3 0 .5 0 1.3 0 1.6.6.4.7-.5 1.1-.9 1.3M61 38c.1-.6.3-3.3.3-3.8v-1c0-.5.1-1.3.1-1.7-.1-.6-.6-.8-.5-1.4.1-1.5 1.7-.7 2.5-.7 1.1 0 2.1.1 3.2.1.7 0 1.7-.3 2.1.5.2.4 0 .5 0 .9 0 .6 0 .8-.5 1.2-.7.5-1 .9-1.7 1.4-1.3 1 .5 3.3.1 5.5-.1.6-1.4-1-1.8-.5-.6-.5-1.4-.4-2-.6-.5-.2-1.9 7.5-2.3 7.3m2 16.6c.3 0 .6.1 1 .1.3 0 .6-.1 1-.1.6-.1 1.3.1 1.9 0 .4-.1.7.1 1.1.1.4 0 .7-.1 1.1-.1.3 0 1-.5.6-1.2-.8-1.3-3.1-.1-4.1-.2-.7-.1-1.2-.1-1.8.4-.4.3-.3.2-.6.7-.1 0-.2.3-.2.3"/><path fill="#E6B16D" fill-rule="nonzero" d="M69.5 61.8c-.4 0-5 .3-5.5.3-.4 0-.8.1-1.2.1-.8-.1-1.5.1-2.3 0-.5-.1-.8-.1-1.3-.1-.4 0-.9-.2-1.3-.1-.4 0-1.3-.6-.7-1.4.9-1.5 3.7-.1 5-.3.8-.1 1.5-.1 2.1.4.5.4.4.2.7.8.1.2 4.5.3 4.5.3m-2-2.7c.4-.1.9-.1 1.3-.1.3 0 1 .3 1.2-.1.3-.5 0-1.1-.5-1.1-.4 0-.9 0-1.3.2-.3.1-.5.2-.7.4-.3.2-.4 1 0 .7"/><path fill="#E6B16D" d="M45.1 12.4c.2.3.3.5.5.8.1.2.4.5.5.7l.6.6c1.3 1.7 2.8 3.2 4.5 4.6.3.2.5.4.8.7.2.2.3.5.5.7.2.2.4.5.6.7.3.4.6.8.8 1 .1.1.4 0 .9-.2.2-.1.3-.3.5-.5.3-.2.8-.3 1-.5.3-.2.5-.7.7-1 .4-.4.7-.8.6-1.4-.1-.5.4-.3.3-1 0-.1-.1-.3-.2-.4-.4-.2-.8-.4-1.2-.5-.1 0-.5-.1-.6-.1-.3-.1-.3-.2-.6-.2-.4-.1-.7-.2-1-.4-1.1-.5-2.1-1.3-3.1-1.9-1.1-.6-2.1-1.5-3.3-2-.2-.1-.3-.2-.6-.3-.1 0-.4-.1-.5-.1-.3-.1-.4-.2-.6-.2h-.7c-.6 0-1.1.1-.7.6l.3.3z"/><path fill="#E6B16D" fill-rule="nonzero" d="M47.3 14.4c.1-.3.6-.1.8 0 .2 0 .3.2.4.3.5.5 1.1 1.1 1.5 1.6.3.4.6.8.9 1.1.2.2.5.4.5.7.1.3 0 .6-.1.9-.1.3-.7.6-.9.8-.2.2-.4.5-.6.7-.2.2-.3.4-.5.6-.3.3-.7.6-1 .9-.5.5-.9.8-1.2 1.2-.3.3-.6.7-1.1 1.1-.5.4-.2.3-.7.6-.3.1-.4.3-.7.4-.2.1-.4-.1-.6 0-.1.1-.4.4-.5.4-.4.1-.4-.5-.8-.1-.3.2-.7.6-.8.4-.1-.2.1-.6-.1-.7-.3-.1-.9.7-1.2.6 0-.3.1-.7-.4-.6-.4 0-.7.5-1.1.5 0-.3 0-.3.1-.6.1-.4 0-.3-.3-.4-.8-.2.1-.4.1-.9-.3.1-1 .2-.7-.3.3-.4.8-.6 1.2-.9.9-.8 2-1.5 2.7-2.4.9-1.2 2.3-1.8 3.4-2.8.7-.8 2.1-1.7 1.9-2.9l-.2-.2zm1.2-1.3c.2-.1 0 .2.2.5.1.2.2.3.4.4.6.5 1.4.9 2.1 1.4.5.3 1 .5 1.4.7.3.1.6.4.9.4.4 0 .4 0 .7-.2.6-.4 1.3-1.5 1.7-2.1.5-.7.9-1.3 1.3-1.9.9-1.4 1.4-1.6 2-3.1.3-.7.3-.2.5-.9.1-.4.3-.5.3-.8 0-.2-.2-.4-.1-.6 0-.1.3-.5.3-.6.1-.4-.6-.3-.3-.9.2-.3.5-.9.2-1-.2-.1-.6.3-.8 0-.1-.3.6-1.2.4-1.5-.3.1-.7.3-.8-.3 0-.4.5-.9.3-1.4l-.6.2c-.5.2-.4 0-.5-.3-.4-.9-.4.2-.9.3 0-.3-.1-1.2-.4-.8-.3.4-.5 1-.7 1.5-.3.6-.5 1.3-.8 1.9-.3.5-.7 1-1 1.6-.4.8-1 1.5-1.4 2.3-.4.7-.5 1.4-1 2-.3.4-.7.8-1.1 1.3-.5.7-1.1 1.4-1.9 1.4l-.4.5zm18.3 43.3c.8-4.6 0-8.2.1-11 .1-1.9.4-4.7-.3-6.8-.3-3.7-1.4-8.1-3.9-6.4-1.2.9-.9 4.4-.8 5.7-.4.9-.6 1.8-.7 2.5-.8 3.8-1.6 8.5-1.5 12.4.1 2.1-.4 9.5 3.3 9.4 3.1-.2 3.5-4.1 3.8-5.8"/></g></svg>