<?xml version="1.0" encoding="utf-8"?>
<!-- Generator: Adobe Illustrator 21.0.2, SVG Export Plug-In . SVG Version: 6.00 Build 0)  -->
<svg version="1.1" id="Слой_1" xmlns="http://www.w3.org/2000/svg" xmlns:xlink="http://www.w3.org/1999/xlink" x="0px" y="0px"
	 viewBox="0 0 123 118.3" style="enable-background:new 0 0 123 118.3;" xml:space="preserve">
<style type="text/css">
	.st0{fill:#3C3C3B;}
	.st1{fill:#008EA9;}
</style>
<g>
	<path class="st0" d="M0.9,81.5H0v-1.6h6.1c0.7,0,0.9,0.3,0.9,1v1.5H5.3v-0.6c0-0.2-0.1-0.3-0.3-0.3H2.7V84h1.6
		c1.7,0,3.5,0.7,3.5,2.9c0,1-0.3,1.8-1,2.3S5.3,90,4.3,90H1.9c-0.7,0-1-0.3-1-1C0.9,89,0.9,81.5,0.9,81.5z M2.7,88.1
		c0,0.2,0.1,0.3,0.3,0.3h1.4c0.9,0,1.5-0.6,1.5-1.5s-0.5-1.5-1.5-1.5H2.7C2.7,85.4,2.7,88.1,2.7,88.1z M9.7,86
		c0.3-0.2,0.7-0.3,1.1-0.4c0.9-0.2,1.4-0.2,2-0.2H13v-0.1c0-1-0.4-1.4-1.3-1.4c-0.5,0-1,0.1-1,0.5v0.4H9V84c0-0.6,0.4-1.1,1.1-1.2
		c0.6-0.2,1.1-0.2,1.5-0.2c2.3,0,3.2,1.1,3.2,2.9v2.7c0,0.2,0.1,0.3,0.3,0.3h0.6V90h-1.6c-0.6,0-0.9-0.3-0.9-0.8v-0.3
		c0,0-0.6,1.3-2.2,1.3c-0.7,0-1.2-0.2-1.7-0.6S8.6,88.7,8.6,88C8.5,87,9.1,86.3,9.7,86 M11.4,88.7c0.5,0,0.9-0.2,1.2-0.6
		s0.5-0.8,0.5-1.3v-0.2h-0.3c-1.6,0-2.4,0.4-2.4,1.1C10.3,88.3,10.7,88.7,11.4,88.7 M17,89.9v-5.4c0-0.2-0.1-0.3-0.3-0.3h-0.5v-1.5
		h1.6c0.7,0,0.9,0.3,0.9,0.9v3.8c0.1-0.1,0.2-0.4,0.6-0.9l2.7-3.9h1.8V88c0,0.2,0.1,0.3,0.3,0.3h0.6v1.5h-1.6c-0.7,0-1-0.3-1-0.9
		v-3.8c0,0.1-0.2,0.4-0.5,0.9l-2.7,3.9C18.9,89.9,17,89.9,17,89.9z M18,79.9h1.4v0.2c-0.1,1.2,1.9,1.2,1.9,0v-0.2h1.4v0.2
		c0,0.6-0.2,1.1-0.7,1.4S21,82,20.4,82s-1.2-0.2-1.6-0.5c-0.5-0.4-0.7-0.8-0.7-1.4L18,79.9C18.1,79.9,18,79.9,18,79.9z M26,89.9
		v-5.4c0-0.2-0.1-0.3-0.3-0.3h-0.6v-1.5h1.7c0.7,0,1,0.3,1,1v1.7h0.5c0.3,0,0.6-0.1,0.7-0.3l1.5-2.4h2l-1.9,2.9
		c-0.2,0.3-0.4,0.5-0.5,0.5H30c0.2,0.1,0.4,0.3,0.6,0.6l0.8,1.4c0.1,0.2,0.3,0.3,0.6,0.3h0.5v1.5h-1.3c-0.6,0-0.8-0.1-1.1-0.6
		L29,87.2c-0.1-0.2-0.3-0.3-0.6-0.3h-0.5v3C27.9,89.9,26,89.9,26,89.9z M34.3,86c0.3-0.2,0.7-0.3,1.1-0.4c0.9-0.2,1.4-0.2,2-0.2h0.2
		v-0.1c0-1-0.4-1.4-1.3-1.4c-0.5,0-1,0.1-1,0.5v0.4h-1.7V84c0-0.6,0.4-1.1,1.1-1.2c0.6-0.2,1.1-0.2,1.5-0.2c2.3,0,3.2,1.1,3.2,2.9
		v2.7c0,0.2,0.1,0.3,0.3,0.3h0.6V90h-1.6c-0.6,0-0.9-0.3-0.9-0.8v-0.3c0,0-0.6,1.3-2.2,1.3c-0.7,0-1.2-0.2-1.7-0.6s-0.7-0.9-0.7-1.6
		C33.1,87,33.6,86.3,34.3,86 M36,88.7c0.5,0,0.9-0.2,1.2-0.6s0.5-0.8,0.5-1.3v-0.2h-0.3c-1.6,0-2.4,0.4-2.4,1.1
		C34.9,88.3,35.3,88.7,36,88.7 M40.6,88.4c0.5,0,0.9-0.4,1.1-1c0.3-0.7,0.4-1.5,0.4-2.6v-0.5h-0.9v-1.5h5.1c0.7,0,0.9,0.3,0.9,1v4.4
		c0,0.2,0.1,0.3,0.3,0.3h0.6V90h-1.7c-0.7,0-0.9-0.3-0.9-1v-4.4c0-0.2-0.1-0.3-0.3-0.3h-1.4v0.6c0,1.3-0.1,2.3-0.6,3.4
		c-0.4,1.1-1.3,1.8-2.6,1.8C40.6,90.1,40.6,88.4,40.6,88.4z M50,89c-0.7-0.7-1.1-1.6-1.1-2.7s0.4-2,1.1-2.7c0.8-0.7,1.7-1.1,2.8-1.1
		s2,0.4,2.8,1.1s1.1,1.6,1.1,2.7s-0.4,2-1.1,2.7c-0.7,0.7-1.7,1.1-2.8,1.1S50.7,89.7,50,89 M51.3,87.9c0.4,0.4,0.9,0.6,1.5,0.6
		s1.1-0.2,1.5-0.6s0.6-1,0.6-1.6s-0.2-1.2-0.6-1.6c-0.4-0.4-0.9-0.6-1.5-0.6s-1.1,0.2-1.5,0.6s-0.6,1-0.6,1.6
		C50.6,87,50.9,87.5,51.3,87.9 M57.9,85.1h4.2v1.6h-4.2V85.1z M63,88.3c1.5-0.2,2.2-1.9,2.2-5.7v-1.2h-0.9v-1.6h6.2c0.7,0,1,0.3,1,1
		V88c0,0.2,0.1,0.3,0.3,0.3h0.6v1.6h-1.8c-0.7,0-1-0.3-1-1v-7.2c0-0.2-0.1-0.3-0.3-0.3H67v1.2c0,4.9-1.2,7.3-3.9,7.4L63,88.3
		L63,88.3z M74,83.6c0.7-0.7,1.6-1.1,2.7-1.1c1,0,1.8,0.3,2.3,1c0.6,0.6,0.8,1.5,0.8,2.4c0,0.2,0,0.4-0.1,0.6h-5c0.1,1.2,1,2,2.2,2
		c0.7,0,1.4-0.3,2.1-0.8l0.7,1.3c-0.7,0.6-1.8,1-2.9,1c-1.2,0-2.1-0.4-2.8-1.1c-0.7-0.7-1.1-1.6-1.1-2.7C73,85.2,73.3,84.3,74,83.6z
		 M78,85.5c0-1-0.6-1.6-1.4-1.6c-0.9,0-1.6,0.6-1.7,1.6H78z M81.4,89.9v-5.4c0-0.2-0.1-0.3-0.3-0.3h-0.6v-1.5h1.7c0.7,0,1,0.3,1,1
		v1.8h3.1v-2.8h1.8v5.4c0,0.2,0.1,0.3,0.3,0.3H89v1.5h-1.7c-0.7,0-1-0.3-1-1v-2h-3.1v2.9L81.4,89.9L81.4,89.9z M90.7,83.6
		c0.7-0.7,1.7-1.1,2.9-1.1c0.4,0,0.7,0,1.1,0.1s0.7,0.3,1,0.5c0.3,0.3,0.5,0.6,0.5,1v0.8h-1.6v-0.4c0-0.4-0.5-0.6-1-0.6
		c-0.6,0-1.1,0.2-1.5,0.6s-0.6,1-0.6,1.6c0,0.7,0.2,1.2,0.6,1.6s1,0.6,1.6,0.6c0.9,0,1.8-0.6,2-0.9l0.1-0.1l0.7,1.2
		c-0.1,0.1-0.1,0.2-0.5,0.5c-0.2,0.2-0.4,0.3-0.6,0.4c-0.4,0.2-1.2,0.5-1.9,0.5c-1.2,0-2.1-0.4-2.8-1.1c-0.7-0.7-1.1-1.6-1.1-2.7
		C89.6,85.2,90,84.4,90.7,83.6 M97.9,89.9v-5.4c0-0.2-0.1-0.3-0.3-0.3H97v-1.5h1.7c0.7,0,1,0.3,1,1v1.7h0.5c0.3,0,0.6-0.1,0.7-0.3
		l1.5-2.4h2l-1.9,2.9c-0.2,0.3-0.4,0.5-0.5,0.5h-0.1c0.2,0.1,0.4,0.3,0.6,0.6l0.8,1.4c0.1,0.2,0.3,0.3,0.6,0.3h0.5v1.5h-1.3
		c-0.6,0-0.8-0.1-1.1-0.6l-1.1-2.1c-0.1-0.2-0.3-0.3-0.6-0.3h-0.5v3C99.8,89.9,97.9,89.9,97.9,89.9z M105.9,89.9v-5.4
		c0-0.2-0.1-0.3-0.3-0.3H105v-1.5h1.6c0.7,0,0.9,0.3,0.9,0.9v3.8c0.1-0.1,0.2-0.4,0.6-0.9l2.7-3.9h1.8V88c0,0.2,0.1,0.3,0.3,0.3h0.6
		v1.5h-1.6c-0.7,0-1-0.3-1-0.9v-3.8c0,0.1-0.2,0.4-0.5,0.9l-2.7,3.9C107.7,89.9,105.9,89.9,105.9,89.9z M114.8,89.9v-5.4
		c0-0.2-0.1-0.3-0.3-0.3H114v-1.5h1.6c0.7,0,0.9,0.3,0.9,0.9v3.8c0.1-0.1,0.2-0.4,0.6-0.9l2.7-3.9h1.8V88c0,0.2,0.1,0.3,0.3,0.3h0.6
		v1.5h-1.6c-0.7,0-1-0.3-1-0.9v-3.8c0,0.1-0.2,0.4-0.5,0.9l-2.7,3.9C116.7,89.9,114.8,89.9,114.8,89.9z M115.8,79.9h1.4v0.2
		c-0.1,1.2,1.9,1.2,1.9,0v-0.2h1.4v0.2c0,0.6-0.2,1.1-0.7,1.4s-1,0.5-1.6,0.5s-1.2-0.2-1.6-0.5c-0.5-0.4-0.7-0.8-0.7-1.4v-0.2H115.8
		L115.8,79.9z M21.6,104c0.6,0.5,1.2,0.8,1.9,0.8s1.2-0.4,1.2-1s-0.4-0.9-1.2-0.9h-0.9v-1.2h0.7c0.8,0,1.2-0.3,1.2-0.9
		s-0.4-0.9-1-0.9c-0.5,0-1,0.2-1,0.6v0.3H21v-0.7c0-0.5,0.2-0.9,0.7-1.1c0.5-0.3,1.1-0.4,1.8-0.4c1.7,0,2.7,0.7,2.7,2
		c0,0.8-0.5,1.4-1,1.6c0.7,0.2,1.2,0.8,1.2,1.7c0,0.7-0.3,1.3-0.8,1.6c-0.5,0.4-1.2,0.6-2.1,0.6c-1,0-2-0.4-2.8-1.1
		C20.7,105,21.6,104,21.6,104z M28.4,102.1c0.3-0.2,0.7-0.3,1.1-0.4c0.9-0.2,1.4-0.2,2-0.2h0.2v-0.1c0-1-0.4-1.4-1.3-1.4
		c-0.5,0-1,0.1-1,0.5v0.4h-1.7v-0.8c0-0.6,0.4-1.1,1.1-1.2c0.6-0.2,1.1-0.2,1.5-0.2c2.3,0,3.2,1.1,3.2,2.9v2.7
		c0,0.2,0.1,0.3,0.3,0.3h0.6v1.5h-1.6c-0.6,0-0.9-0.3-0.9-0.8V105c0,0-0.6,1.3-2.2,1.3c-0.7,0-1.2-0.2-1.7-0.6s-0.7-0.9-0.7-1.6
		C27.2,103.1,27.8,102.4,28.4,102.1 M30.1,104.8c0.5,0,0.9-0.2,1.2-0.6c0.3-0.4,0.5-0.8,0.5-1.3v-0.2h-0.3c-1.6,0-2.4,0.4-2.4,1.1
		C29,104.4,29.4,104.8,30.1,104.8 M35.7,106v-5.7h-0.9v-1.5h6.4c0.7,0,1,0.3,1,1v4.4c0,0.2,0.1,0.3,0.3,0.3h0.6v1.5h-1.7
		c-0.7,0-1-0.3-1-1v-4.4c0-0.2-0.1-0.3-0.3-0.3h-2.6v5.7H35.7z M44.9,105.1c-0.7-0.7-1.1-1.6-1.1-2.7s0.4-2,1.1-2.7
		c0.8-0.7,1.7-1.1,2.8-1.1s2,0.4,2.8,1.1s1.1,1.6,1.1,2.7s-0.4,2-1.1,2.7c-0.7,0.7-1.7,1.1-2.8,1.1S45.7,105.8,44.9,105.1 M46.2,104
		c0.4,0.4,0.9,0.6,1.5,0.6s1.1-0.2,1.5-0.6s0.6-1,0.6-1.6s-0.2-1.2-0.6-1.6c-0.4-0.4-0.9-0.6-1.5-0.6s-1.1,0.2-1.5,0.6
		s-0.6,1-0.6,1.6C45.6,103.1,45.8,103.6,46.2,104 M53.2,100.3h-0.9v-1.5h4.2c1.5,0,2.4,0.7,2.4,1.9c0,0.7-0.4,1.3-0.9,1.6
		c0.8,0.2,1.3,0.9,1.3,1.7c0,1.4-1.1,2.1-2.7,2.1H54c-0.5,0-0.8-0.2-0.8-0.8C53.2,105.3,53.2,100.3,53.2,100.3z M55,101.8h1.2
		c0.6,0,1-0.4,1-0.9c0-0.6-0.4-0.8-1-0.8H55C55,100.1,55,101.8,55,101.8z M55,104.5c0,0.2,0.1,0.3,0.2,0.3h1c0.8,0,1.2-0.4,1.2-1
		s-0.4-0.9-1.2-0.9H55C55,102.9,55,104.5,55,104.5z M61.1,99.7c0.7-0.7,1.6-1.1,2.7-1.1c1,0,1.8,0.3,2.3,1c0.6,0.6,0.8,1.5,0.8,2.4
		c0,0.2,0,0.4-0.1,0.6h-5c0.1,1.2,1,2,2.2,2c0.7,0,1.4-0.3,2.1-0.8l0.7,1.3c-0.7,0.6-1.8,1-2.9,1c-1.2,0-2.1-0.4-2.8-1.1
		s-1.1-1.6-1.1-2.7C60.1,101.3,60.4,100.4,61.1,99.7z M65.2,101.6c0-1-0.6-1.6-1.4-1.6c-0.9,0-1.6,0.6-1.7,1.6H65.2z M67.4,105.5
		c0-0.7,0.3-0.9,0.9-0.9h0.1c0.7-0.8,1-2.1,1-3.9v-0.3h-0.8v-1.5h5.1c0.7,0,0.9,0.3,0.9,1v4.8h0.2c0.6,0,0.9,0.3,0.9,0.9v2.2h-1.6
		v-1.4c0-0.2-0.1-0.3-0.3-0.3h-4.5c-0.2,0-0.3,0.1-0.3,0.3v1.4h-1.6C67.4,107.8,67.4,105.5,67.4,105.5z M72.8,104.5v-3.9
		c0-0.2-0.1-0.3-0.3-0.3h-1.4v0.2c0,1.8-0.3,3.2-1,4C70.1,104.5,72.8,104.5,72.8,104.5z M77,106v-5.4c0-0.2-0.1-0.3-0.3-0.3h-0.6
		v-1.5h1.7c0.7,0,1,0.3,1,1v1.8h3.1v-2.8h1.8v5.4c0,0.2,0.1,0.3,0.3,0.3h0.6v1.5h-1.7c-0.7,0-1-0.3-1-1v-2h-3.1v2.9L77,106L77,106z
		 M86,106v-5.4c0-0.2-0.1-0.3-0.3-0.3h-0.5v-1.5h1.6c0.7,0,0.9,0.3,0.9,0.9v3.8c0.1-0.1,0.2-0.4,0.6-0.9l2.7-3.9h1.8v5.4
		c0,0.2,0.1,0.3,0.3,0.3h0.6v1.5h-1.6c-0.7,0-1-0.3-1-0.9v-3.8c0,0.1-0.2,0.4-0.5,0.9l-2.7,3.9H86z M94.9,106v-5.4
		c0-0.2-0.1-0.3-0.3-0.3H94v-1.5h1.7c0.7,0,1,0.3,1,1v1.7h0.5c0.3,0,0.6-0.1,0.7-0.3l1.5-2.4h2l-1.9,2.9c-0.2,0.3-0.4,0.5-0.5,0.5
		h-0.1c0.2,0.1,0.4,0.3,0.6,0.6l0.8,1.4c0.1,0.2,0.3,0.3,0.6,0.3h0.5v1.5h-1.3c-0.6,0-0.8-0.1-1.1-0.6l-1.1-2.1
		c-0.1-0.2-0.3-0.3-0.6-0.3h-0.5v3C96.8,106,94.9,106,94.9,106z"/>
	<path class="st1" d="M32.9,27.9c-1.9,2.5-5.3,5.1-7.6,5.2c-1,0-1.3,0.7-0.1,1.4c1.2,0.7,4,0.4,5.2-0.2c1.1-0.6,1.2-0.6,2.3-1.2
		c1.2-0.7,2.2,0.3,3.3,0.7c8.2,3.2,9.6-0.5,8.5-0.6c-4.2-0.1-8.8-3.9-9.6-4.7C34,27.8,34,27.6,32.9,27.9"/>
	<path class="st1" d="M32.9,22c-1.8,2.4-4.9,5.2-7,5.3c-0.9,0-1.4,1.1-0.2,1.5c1.4,0.4,3.7,0.2,4.8-0.4l2.2-1.2
		c1.1-0.7,2.1,0.3,3.1,0.7c6.4,2.9,7.4,0.8,6.4,0.3c-2.5-1.2-6.6-4.6-7.3-5.3C33.9,22.1,33.9,21.7,32.9,22"/>
	<path class="st1" d="M33.1,16.6c-1.6,2.3-4.6,5.7-6.2,5.7c-0.7,0-1.3,0.6-0.5,1.1c1.3,0.8,5.1-1.1,6-1.7c0.9-0.6,1.9,0.1,2.7,0.4
		c5.2,2.3,5.7,0.7,5,0.2c-2.4-1.4-4.6-3-5.6-4.8C34,16.7,33.9,16.4,33.1,16.6"/>
	<path class="st1" d="M33.1,11.8c-1.2,2.6-3.6,5.3-4.8,5.6c-0.5,0.1-1,0.8-0.3,0.9c1.9,0.4,3.9-0.9,4.6-1.6c0.7-0.8,1.5,0,2.1,0.2
		c4.9,2,3.9,0.3,3.3-0.1c-1.4-0.9-3.6-3.7-4-4.4C33.7,11.8,33.7,11.4,33.1,11.8"/>
	<path class="st1" d="M33.4,6.2c-1.2,2.6-1.5,5-3.5,6.2c-0.4,0.3-0.9,0.7-0.5,1.2c0.5,0.6,1.5,0.1,2.2-0.4c0.7-0.6,0.8-0.5,1.4-1.3
		c0.6-0.8,1,0.2,1.4,0.5c3.5,2.5,3.6,0.4,3,0.1c-1.7-1.1-3.1-5-3.3-5.7C34,5.9,33.7,5.8,33.4,6.2"/>
	<path class="st1" d="M32.5,12.6c0.1,5.4-0.1,11-0.2,16.5c0,1.8-0.4,9.9-0.3,12.3c0,0.4,0.3,0.9,0.5,1.1c0.8,0.7,2.5,0.1,2.4-1.4
		c-0.1-1.1-0.2-9.7-0.2-10.9v-4c-0.1-2.5,0-5.3,0.1-7.8c0.1-1.6,0.2-6.1-0.2-7.2c-0.6-1.9-2-1.2-2.2,1.1 M13.2,34.2
		c-1.6,1.9-5.6,4.3-7.6,4.4c-0.8,0-1.1,0.6-0.1,1.1s4.5,0,5.5-0.5s1-0.4,2-1c1-0.5,1.9,0.2,2.9,0.5c7.2,2.4,8.4,0.4,7.4,0.4
		c-3.7-0.1-7.7-3.8-8.4-4.4C14.2,34.1,14.2,34,13.2,34.2"/>
	<path class="st1" d="M12.9,29.8c-1.6,2-4.6,4.3-6.5,4.4c-0.8,0-1.3,0.9-0.2,1.2c1.3,0.4,3.4,0.1,4.4-0.3l2-1c1-0.6,2.1-0.1,3,0.3
		c6,2.3,5.6,0.1,4.7-0.2c-2.3-1-5.1-2.9-5.8-3.5C13.9,29.9,13.8,29.6,12.9,29.8"/>
	<path class="st1" d="M13.1,25.6c-1.5,1.9-3.5,4-5.4,4.4c-0.6,0.1-1.2,0.5-0.5,0.9c1.2,0.7,4.4-0.6,5.2-1.1c0.9-0.5,1.8,0.1,2.5,0.3
		c6,1.8,5.8,0.3,5.1,0c-2.2-1.1-4.5-2.2-5.5-3.7C14.2,25.7,13.9,25.4,13.1,25.6"/>
	<path class="st1" d="M13.1,21.7c-1.1,2.1-2.7,3.9-3.8,4.2c-0.5,0.1-0.9,0.6-0.2,0.7c1.8,0.3,3-0.3,3.6-0.9s1.4,0,2,0.2
		c4.5,1.6,3.6,0.2,3.1-0.1c-1.3-0.7-3.3-3-3.7-3.5C13.7,21.7,13.7,21.4,13.1,21.7"/>
	<path class="st1" d="M13.4,17c-1.1,2.1-1.4,4-3.2,5c-0.4,0.2-0.8,0.6-0.4,1c0.4,0.5,1.4,0.1,2-0.3c0.7-0.5,0.8-0.4,1.3-1
		c0.6-0.6,0.9,0.2,1.3,0.4c3.2,2,3.3,0.3,2.8,0c-1.5-0.9-2.9-4-3.1-4.6C13.9,16.7,13.6,16.7,13.4,17"/>
	<path class="st1" d="M12.6,21.4c0.1,4.4-0.1,9-0.1,13.4c0,1.5-0.2,8.4-0.1,10.4c0,0.3,0.2,1.1,0.4,1.2c1.3,0.7,2.2-0.5,2.1-1.6
		c-0.1-0.9-0.2-8.1-0.2-9.1v-3.2c-0.1-2.1,0-4.3,0-6.4c0.1-1.3,0.1-5-0.2-5.9c-0.6-1.5-1.8-1-2,0.9 M80.6,60.5
		c-0.8-1.3-3.4-2.2-7.3-1.9c-2.7,0.2-3,0.4-5.8,0.2c-0.9,0-1.6-0.2-2.4-0.3c-0.5-0.1-1.7-1.6-2.3-1.4c-0.6,0.3-0.6,2-1.3,2.4
		c-0.5,0.3-2.9,0.3-3.6,0.4c-3.3,0.4-5.9,0.6-9.1,0c-1.6-0.3-2.6-1.4-4.1-2c-0.5-0.2-1.7-0.7-2.2-0.1c-0.6,0.7,1.5,2.1,1.7,2.6
		c0.5,1.4-4,3.7-1.5,3.7c1.5,0,3.1-1.2,4.7-1.1l5.8,0.5c0.6,0.2,1.6,0.5,2,0.8c0.6,0.5,0.5,1.3,1.4,1c0.5-0.2,1-1,1.5-1.4
		c1.3-0.9,2.6-0.2,4,0.2c1.5,0.4,3.8,0.3,5.4,0.8c0.6,0.2,0.6,0.9,1.1,1.1c0.8,0.4,0.8,0.3,1.6-0.4c1.3-1.1,2.5-1.2,3.9-1.7
		c1.3-0.4,2.1-0.7,3.4-1.1C81.6,61.7,80.9,60.4,80.6,60.5z M85.9,53.1c6.8-3,17.5-1.7,19.3-1c0.8,0.3,0.5,1.2-0.2,1.9
		c-1.2,1.1-3.1,1.9-4.8,2.2C96.3,57,89,55.8,85.7,54.7c-0.2,0.5-1.1,2.4-2.4,2.2c-1-0.2-0.1-2.4-0.1-3c-0.1-0.8-1.1-2.5,0.5-2.8
		c0.6-0.1,1.4,0.7,1.6,1C85.6,52.4,85.9,53.1,85.9,53.1 M52.9,47.2c6.2,3.6,15.2,1.5,16.5,0.2c0.8-0.8,0.3-1.3-0.5-1.7
		c-1.4-0.6-4.7-1-6.8-1.1c-3.7,0-6.3,0-9.3,1c-0.2-0.5-0.9-2.3-2.1-2.2c-0.9,0.1-0.2,2.4-0.2,2.9c-0.1,0.8-1.1,2.4,0.3,2.7
		c0.5,0.1,1.3-0.6,1.5-0.9C52.6,47.8,52.9,47.2,52.9,47.2 M86.8,61.2c-0.7-0.1-1.2,0.4-1.2,1s0.3,1,0.8,1.2c1.2,0.4,2.8,0.3,4,0.4
		c2.5,0.1,15.4,0.2,17.9-0.2c1.3-0.2,6.4-0.1,5.2-2c-0.3-0.7-20,0.6-24.8-0.2C88,61.2,87.5,61.2,86.8,61.2"/>
	<path class="st1" d="M27.3,61c-1.8-0.3-4.9-1.4-5.8-3.3c-1.3-2.9,4.3-4.3,6-4.5c7.2-1.1,13.5-2.1,22.7-1.8
		c2.8,0.1,7.9,1.3,11.3,1.3c3.2,0,7.5-0.9,10.1-0.8c2.7,0,3.6,0,6.4,0.4c2.3,0.3,2.4,2.3-0.6,1.9c-4.2-0.4-8.6,0.6-15.7,0.7
		c-3,0.1-7.7-1.4-10.5-1.3c-4.2,0.1-7.7-0.4-11.4,0c-2.7,0.3-4.2,0.8-7.7,1.2c-1.2,0.1-8.4,1.1-5.6,3.1c1.8,1.3,8.1,2.2,10.2,2.7
		c0.6,0.2,1.3-0.3,1,1.1c-0.1,0.5-4,0.3-5.1,0c-1.5-0.3-4.2-0.3-5.7-0.8"/>
	<path class="st1" d="M46.4,47.4c0.4-0.2,0.5-0.3,0.5-0.8c0-0.7-0.9-0.9-1.3-0.9c-4.4,0.1-6.9-0.3-11.9,0.5
		c-6.8,1.1-31.2,2.4-22,14.1c2.3,2.9,6,4.1,9.7,4.7c2.5,0.3,2.7-1.4,1.1-1.9c-2-0.7-3.2-0.9-5.4-2.3c-5.5-3.4-4.3-7.7,2.1-9.5
		c3.1-0.8,6.2-1.8,10.2-2.5c3.3-0.5,6-0.9,10.5-1.2c1.7-0.1,3.8-0.1,5.5-0.3C45.6,47.4,46.4,47.4,46.4,47.4 M97.9,45.5
		c-3.2,0.8-7.4,0.1-11.7-0.4c-4.7-0.5-4.2,0.3-8.8,0c-1.3-0.1-1.5,0.3-2.8,0.2c-1.6-0.1-2,1.4-1.1,2.1c0.1,0.1,0.2,0.1,0.4,0.2
		c1.6,0.1,1.2,0.2,3,0.2c3-0.1,1.3-0.3,4.3-0.3c3.1,0,5.8,0.2,9.1,0.3c3,0.1,2.2,0.4,5.3-0.1c1-0.1,4.6-0.2,4.8-1.7
		C100.5,45.6,99.2,45.1,97.9,45.5"/>
	<path class="st1" d="M60.6,31.3c-0.3,0.4-0.6,0.7-0.9,1.1c-0.3,0.4-0.3,1-0.3,1.5c0,0.9-0.2,2-1.3,2.2c-1.1,0.3-1.9-0.5-2.1-1.5
		c-0.2-1.1,0.3-2.3,0.9-3.2c0.6-0.9,1.3-1.8,2.8-2.1c0.6-0.1,1.1,0.1,1.3,0.6C60.9,30,61.1,30.6,60.6,31.3 M83.5,34.6
		c-0.1,0.2-0.2,0.5-0.3,0.8C83,36.2,83,37,82.9,37.2c-0.1,0.5-0.2,0.8-0.4,1.3c-0.2,0.3-0.4,0.9,0,1.1c0.4,0.2,1.2,0.1,1.6,0
		s0.9-0.5,1.2-0.8c0.7-0.8,1.2-2.1,1.2-2.8C86.6,34.5,84.3,33.3,83.5,34.6"/>
	<path class="st1" d="M92.9,24.2c-0.4-0.7-1.3-2.4-6-4.8c-3.2-1.7-12.6-3.9-13-4c-0.9-0.2-1.5-0.4-2.4-0.9s-1.9-1.2-3-1.3
		c-2.6-0.4-4.6,1.1-5.6,1.8c-0.2,0.1-0.8,0.5-1,0.6c-0.6,0.4-0.9,0.5-1.6,0.8c-0.4,0.2-1.6,0.3-1.9-0.5c-0.2-0.3-0.3-0.7-0.7-0.8
		c-0.8-0.2-1.2,0.3-1.3,0.5c-0.3,0.6-0.2,1.1-0.7,1.6c-0.3,0.3-0.9,0.5-1.3,0.3c-0.5-0.3-0.4-0.2-0.8-0.5c-0.8-0.7-1.6-0.2-2,0.7
		c-0.2,0.7-0.2,0.8-0.3,1.4c-0.2,0.7-0.1,0.9-0.7,1.3s-1,0.8-1.2,1.5c-0.2,0.8-0.3,1.6-0.5,2.4c-0.3,0.9-0.7,1.3-1.2,2
		c-0.4,0.5-1.1,1.3-0.8,2c0.6,1.5,3.1,1.2,4.3,1.1c0.8-0.1,6.3-1.1,7.6-1.5c1.6-0.5,2.4,0.2,2.7,0.8c0.5,1.4,0.5,2.9,0.4,3.3
		c0,0.6-0.2,1.3-0.3,1.9c-0.3,2-1.3,3.5-1.7,4c-0.2,0.3-0.6,1-0.3,1.4c0.6,0.7,2.6,0.2,3.4-0.4c1-0.8,1.3-1.1,2.1-2.2
		c0.7-0.9,2.7-3.9,4.1-5.1c0.9-0.7,1.8-1.2,2.8-1.6c4-1.6,10.6,0.5,12.4,1.5c4.7,2.6,5.3,5.4,5.5,6.1c0.2,0.7,0.3,1.8,0.9,2
		c1,0.2,2-1.1,2.4-2C94.7,35,95,27.9,92.9,24.2"/>
</g>
</svg>
