<svg xmlns="http://www.w3.org/2000/svg" viewBox="0 0 49.34 49.34"><g><circle cx="24.67" cy="24.67" r="24.67" fill="#e62e34"/><path d="M35.16 24.21h-.53v-.47-2c0-.11-.12-.31-.19-.31h-1.89v2.77H29.7v.5c0 .51 0 1 .07 1.54l1.5.05h1.3v2.79h2v-2.8h2.8v-2.07zM27.12 24h-6.83c-.1 0-.27.12-.27.18v3.12h4.33c-.06.21-.09.36-.14.51a4.2 4.2 0 0 1-4.88 2.59 4.78 4.78 0 0 1-3.92-5.67 4.59 4.59 0 0 1 .34-1.09 4.77 4.77 0 0 1 5.31-2.69 4.58 4.58 0 0 1 2 1.06l2.37-2.39-.2-.15a7.79 7.79 0 0 0-6.57-1.81A8.1 8.1 0 0 0 12 24.27a8 8 0 0 0 .43 4.29A8.16 8.16 0 0 0 21 33.71a7.28 7.28 0 0 0 4.7-2.21 8.33 8.33 0 0 0 2-7c0-.5-.17-.5-.58-.5z" fill="#fff"/></g></svg>
