<svg xmlns="http://www.w3.org/2000/svg" viewBox="0 0 49.35 49.34"><g><circle cx="24.67" cy="24.67" r="24.67" fill="#874d2e"/><path d="M33.64 10.06H15.71a5.65 5.65 0 0 0-5.65 5.65v17.93a5.65 5.65 0 0 0 5.65 5.65h17.93a5.66 5.66 0 0 0 5.65-5.65V15.71a5.66 5.66 0 0 0-5.65-5.65zm1.62 3.37h.64v5h-4.93v-5zM20.5 21.67a5.13 5.13 0 0 1 8.34 0 5.26 5.26 0 0 1 1 3 5.14 5.14 0 0 1-10.29 0 5.1 5.1 0 0 1 .66-2.51 5.72 5.72 0 0 1 .29-.49zm15.94 12a2.8 2.8 0 0 1-2.8 2.8H15.71a2.8 2.8 0 0 1-2.8-2.8v-12h4.36a8.06 8.06 0 0 0-.59 3 8 8 0 1 0 15.68-2.17 8.27 8.27 0 0 0-.28-.82h4.36v12z" fill="#fff"/></g></svg>
