<svg xmlns="http://www.w3.org/2000/svg" viewBox="0 0 49.35 49.34"><g><circle cx="24.67" cy="24.67" r="24.67" fill="#48bded"/><path d="M39.29 17.14a12.13 12.13 0 0 1-3.44.93 5.94 5.94 0 0 0 2.64-3.27 12.12 12.12 0 0 1-3.81 1.43 6 6 0 0 0-4.38-1.87 5.91 5.91 0 0 0-5.84 7.25 17.11 17.11 0 0 1-12.36-6.15 5.84 5.84 0 0 0 1.9 7.88 6.07 6.07 0 0 1-2.72-.74v.07a5.77 5.77 0 0 0 .41 2.14A6 6 0 0 0 16 28.46a6.19 6.19 0 0 1-1.58.21 6 6 0 0 1-1.13-.11 6 6 0 0 0 5.6 4.1 12.15 12.15 0 0 1-7.45 2.53 12.83 12.83 0 0 1-1.43-.08 17.19 17.19 0 0 0 9.19 2.65 16.69 16.69 0 0 0 16.7-13.23 16.16 16.16 0 0 0 .41-3.53v-.76a12.06 12.06 0 0 0 2.98-3.1z" fill="#fff"/></g></svg>
