<svg xmlns="http://www.w3.org/2000/svg" viewBox="0 0 49.34 49.34"><g><circle cx="24.67" cy="24.67" r="24.67" fill="#4d76a4"/><path d="M38.92 18c-.4-.34-1.94-.32-3.47-.32a20 20 0 0 0-3.45.12c-.33.13-1.08 1.93-2 3.79-1.1 2.1-2.46 4.12-3.31 4.1-1.11 0-.86-3.47-.79-6 0-1.68-.23-2.2-.47-2.37a10 10 0 0 0-2.21-.79s-4.83-.37-5.52 1.74c.92.12 2.51-.17 1.89 6.31 0 .31-.74 3-3-.63-.56-.9-2.72-6.29-3.47-6.32-2.51-.07-5-.17-5.84.32s1.08 4.18 4.26 9.15c2.6 4.07 5.35 7.25 10.1 8a11.68 11.68 0 0 0 3.87-.1c.5-.25-.11-3.78 1.58-4.1.76-.15 3.64 3.67 4.73 4.1a11.28 11.28 0 0 0 3.63.32c1.62-.05 3.45.14 3.63-.95.4-2.43-4.89-5.6-5-7.11-.11-1.08 1.93-3.07 3-4.58 1.24-1.82 2.65-4.04 1.84-4.68z" fill="#fff"/></g></svg>
