<svg xmlns="http://www.w3.org/2000/svg" viewBox="0 0 49.34 49.34"><g><circle cx="24.67" cy="24.67" r="24.67" fill="#f15c4c"/><path d="M39 18.65a6.76 6.76 0 0 0-1.16-3 4.1 4.1 0 0 0-2.93-1.29C30.81 14 24.68 14 24.68 14s-6.14 0-10.22.31a4.1 4.1 0 0 0-2.93 1.29 6.79 6.79 0 0 0-1.16 3 47.88 47.88 0 0 0-.29 4.93v2.31a48 48 0 0 0 .29 4.94 6.78 6.78 0 0 0 1.16 3 4.82 4.82 0 0 0 3.22 1.3c2.34.23 9.94.31 9.94.31s6.14 0 10.23-.32a4.08 4.08 0 0 0 2.93-1.29 6.75 6.75 0 0 0 1.16-3 47.74 47.74 0 0 0 .29-4.93v-2.27a47.79 47.79 0 0 0-.3-4.93zm-9.44 5.78l-7.9 4.27v-8.57l3.56 1.94z" fill="#fff"/></g></svg>
