<svg xmlns="http://www.w3.org/2000/svg" viewBox="0 0 96 107.56"><title>credit-red</title><g id="Слой_2" data-name="Слой 2"><g id="checkout_1000px_1-2" data-name="checkout 1000px 1-2"><path id="_Контур_" data-name="&lt;Контур&gt;" d="M1,32.09V75.47a9.4,9.4,0,0,0,4.7,8.14l37.6,21.69a9.4,9.4,0,0,0,9.39,0L90.3,83.61A9.4,9.4,0,0,0,95,75.47V32.09A9.4,9.4,0,0,0,90.3,24L52.7,2.26a9.4,9.4,0,0,0-9.39,0L5.7,24A9.4,9.4,0,0,0,1,32.09Z" fill="#ff6262" fill-opacity="0.9" stroke="#fff" stroke-miterlimit="10" stroke-width="2"/><g opacity="0.5"><line x1="42.64" y1="45.91" x2="53.37" y2="56.64" fill="none" stroke="#fff" stroke-linecap="round" stroke-miterlimit="10" stroke-width="4"/><line x1="53.37" y1="45.91" x2="42.64" y2="56.64" fill="none" stroke="#fff" stroke-linecap="round" stroke-miterlimit="10" stroke-width="4"/></g><line x1="29.41" y1="80.91" x2="35.68" y2="80.91" fill="none" stroke="#fff" stroke-linecap="round" stroke-linejoin="round" stroke-width="3" opacity="0.5"/><line x1="60.32" y1="80.91" x2="66.6" y2="80.91" fill="none" stroke="#fff" stroke-linecap="round" stroke-linejoin="round" stroke-width="3" opacity="0.5"/><rect x="23.78" y="27.05" width="48.45" height="48.45" rx="4.88" ry="4.88" fill="none" stroke="#fff" stroke-linecap="round" stroke-linejoin="round" stroke-width="3"/><path d="M62.65,34.75H33.35a1.87,1.87,0,0,0-1.87,1.87v3h2.15a1.16,1.16,0,0,1,1.16,1.16V43a1.16,1.16,0,0,1-1.16,1.16H31.48v13.3h2.15a1.16,1.16,0,0,1,1.16,1.16v2.23A1.16,1.16,0,0,1,33.62,62H31.48v3.94a1.87,1.87,0,0,0,1.87,1.87h29.3a1.87,1.87,0,0,0,1.87-1.87V36.62A1.87,1.87,0,0,0,62.65,34.75Z" fill="none" stroke="#fff" stroke-miterlimit="10" stroke-width="3"/><rect x="25.53" y="57.44" width="9.25" height="4.54" rx="1.75" ry="1.75" fill="none" stroke="#fff" stroke-miterlimit="10" stroke-width="3"/><rect x="25.53" y="39.59" width="9.25" height="4.54" rx="1.75" ry="1.75" fill="none" stroke="#fff" stroke-miterlimit="10" stroke-width="3"/></g></g></svg>