<svg xmlns="http://www.w3.org/2000/svg" viewBox="0 0 96 107.56"><title>equip-increase</title><g id="Слой_2" data-name="Слой 2"><g id="checkout_1000px_2" data-name="checkout 1000px 2"><path id="_Контур_" data-name="&lt;Контур&gt;" d="M1,32.09V75.47a9.4,9.4,0,0,0,4.7,8.14l37.6,21.69a9.4,9.4,0,0,0,9.39,0L90.3,83.61A9.4,9.4,0,0,0,95,75.47V32.09A9.4,9.4,0,0,0,90.3,24L52.7,2.26a9.4,9.4,0,0,0-9.39,0L5.7,24A9.4,9.4,0,0,0,1,32.09Z" fill="#ff6262" fill-opacity="0.9" stroke="#fff" stroke-miterlimit="10" stroke-width="2"/><g opacity="0.5"><path d="M42.87,75.5v-12h9.81c3.76,0,6.8,2.69,6.8,6h0c0,3.32-3,6-6.8,6H39.15" fill="none" stroke="#fff" stroke-linecap="round" stroke-miterlimit="10" stroke-width="3"/><line x1="42.87" y1="75.5" x2="42.87" y2="85.51" fill="none" stroke="#fff" stroke-linecap="round" stroke-miterlimit="10" stroke-width="3"/><line x1="54.8" y1="81.47" x2="39" y2="81.47" fill="none" stroke="#fff" stroke-linecap="round" stroke-miterlimit="10" stroke-width="3"/></g><polyline points="19.2 65.78 35.61 50.66 62.09 50.66 74.69 35.53" fill="none" stroke="#fff" stroke-linecap="round" stroke-miterlimit="10" stroke-width="3"/><circle cx="18.42" cy="66.52" r="3.98" fill="#fff"/><path d="M75.43,41.27l-6.17-5a1.21,1.21,0,0,1,.31-2.06l8.67-3.45a.47.47,0,0,1,.64.52l-1.51,9.21A1.21,1.21,0,0,1,75.43,41.27Z" fill="#fff"/></g></g></svg>