<svg xmlns="http://www.w3.org/2000/svg" viewBox="0 0 96 107.56"><title>trade-in</title><g id="Слой_2" data-name="Слой 2"><g id="checkout_1000px_1-2" data-name="checkout 1000px 1-2"><path id="_Контур_" data-name="&lt;Контур&gt;" d="M1,32.09V75.47a9.4,9.4,0,0,0,4.7,8.14l37.6,21.69a9.4,9.4,0,0,0,9.39,0L90.3,83.61A9.4,9.4,0,0,0,95,75.47V32.09A9.4,9.4,0,0,0,90.3,24L52.7,2.26a9.4,9.4,0,0,0-9.39,0L5.7,24A9.4,9.4,0,0,0,1,32.09Z" fill="#808d9b" fill-opacity="0.9" stroke="#fff" stroke-miterlimit="10" stroke-width="2"/><path d="M27.62,62.63a22.13,22.13,0,0,1,29-29" fill="none" stroke="#fff" stroke-linecap="round" stroke-miterlimit="10" stroke-width="3"/><polyline points="53.21 26.8 57.49 33.65 50.64 37.94" fill="none" stroke="#fff" stroke-linecap="round" stroke-linejoin="round" stroke-width="3"/><g opacity="0.5"><path d="M68.38,45.41a22.13,22.13,0,0,1-29,29" fill="none" stroke="#fff" stroke-linecap="round" stroke-miterlimit="10" stroke-width="3"/><polyline points="41.01 80.76 37.29 73.59 44.47 69.87" fill="none" stroke="#fff" stroke-linecap="round" stroke-linejoin="round" stroke-width="3"/></g><g opacity="0.5"><line x1="42" y1="47.78" x2="54" y2="59.78" fill="none" stroke="#fff" stroke-linecap="round" stroke-miterlimit="10" stroke-width="4"/><line x1="54" y1="47.78" x2="42" y2="59.78" fill="none" stroke="#fff" stroke-linecap="round" stroke-miterlimit="10" stroke-width="4"/></g></g></g></svg>