<svg xmlns="http://www.w3.org/2000/svg" viewBox="0 0 18.46 18.6"><title>comment-date</title><g id="Слой_2" data-name="Слой 2"><g id="Кнопки"><path d="M18.46,18.6H1.11v-.87H0V1.1H2.82A1.24,1.24,0,0,1,3.16.32,1,1,0,0,1,3.88,0q.94,0,1,1.1H7.4A1.25,1.25,0,0,1,7.74.32,1,1,0,0,1,8.45,0q.94,0,1,1.1h2.6a1.25,1.25,0,0,1,.34-.78A1,1,0,0,1,13.14,0q.94,0,1,1.1h3.16V2h1.11Zm-1.63-1.3V1.53H13.16a.53.53,0,0,0,.24.38c.14.09.2.17.2.24s-.15.33-.46.33a1,1,0,0,1-1-.95H8.46a.53.53,0,0,0,.24.38c.14.09.2.17.2.24s-.15.33-.46.33a1,1,0,0,1-1-.95H3.89a.53.53,0,0,0,.24.38c.14.09.2.17.2.24s-.15.33-.46.33a1,1,0,0,1-1-.95H.53V17.3Zm1.11.87V2.4h-.58V17.73H1.63v.44Z" fill="#6d6e71"/></g></g></svg>