<svg xmlns="http://www.w3.org/2000/svg" viewBox="0 0 20.99 21.07"><title>user</title><g id="Слой_2" data-name="Слой 2"><g id="Контент"><path d="M13.23,11.6V13c5.15,3,7.76,1.45,7.76,8.11H0C0,14.15,2.58,15.92,7.7,13V11.76c-.9-.61-1.09-1.77-1.38-3h0c-.13,0-.26-.19-.26-.48V8.22a3.2,3.2,0,0,1-.22-.61c-.1-.35-.45-1.09-.13-1.45a.27.27,0,0,1,.42,0c-.39-2-.87-4.54,1.84-5.31C7.92-.79,14.26,0,15,2.65a10.36,10.36,0,0,1-.1,3.51A.24.24,0,0,1,15.29,6c.32.26-.06,1.26-.13,1.58a2.19,2.19,0,0,1-.26.64v0c0,.29-.13.48-.26.48a4.53,4.53,0,0,1-1.42,2.83Z"/></g></g></svg>
