<svg xmlns="http://www.w3.org/2000/svg" width="62" height="20" viewBox="0 0 62 20">
  <g fill="none" fill-rule="evenodd">
    <polygon fill="#3C58BF" points="22.715 19.053 25.861 1.446 30.778 1.446 27.73 19.053"/>
    <polygon fill="#293688" points="22.715 19.053 26.746 1.446 30.778 1.446 27.73 19.053"/>
    <path fill="#3C58BF" d="M45.5279117,1.64159452 C44.5445874,1.25033498 42.9712687,0.859075448 41.0046202,0.859075448 C36.0879991,0.859075448 32.5480319,3.30444754 32.5480319,6.82578334 C32.5480319,9.4667852 35.0063424,10.8361936 36.9729909,11.7165275 C38.9396393,12.5968615 39.5296339,13.1837508 39.5296339,13.9662698 C39.5296339,15.1400484 37.9563151,15.7269377 36.5796612,15.7269377 C34.6130128,15.7269377 33.5313561,15.4334931 31.8597049,14.7487889 L31.171378,14.4553443 L30.483051,18.4657545 C31.6630401,18.9548289 33.8263534,19.4439033 36.0879991,19.4439033 C41.2996175,19.4439033 44.7412523,16.9985312 44.7412523,13.2815657 C44.7412523,11.2274531 43.4629308,9.66241497 40.5129581,8.39082148 C38.7429745,7.51048753 37.6613179,7.02141311 37.6613179,6.14107916 C37.6613179,5.35856009 38.5463097,4.57604102 40.5129581,4.57604102 C42.1846093,4.57604102 43.3645984,4.86948567 44.2495902,5.26074521 L44.7412523,5.45637497 L45.5279117,1.64159452 L45.5279117,1.64159452 Z"/>
    <path fill="#293688" d="M45.5279117,1.64159452 C44.5445874,1.25033498 42.9712687,0.859075448 41.0046202,0.859075448 C36.0879991,0.859075448 33.4330237,3.30444754 33.4330237,6.82578334 C33.4330237,9.4667852 35.0063424,10.8361936 36.9729909,11.7165275 C38.9396393,12.5968615 39.5296339,13.1837508 39.5296339,13.9662698 C39.5296339,15.1400484 37.9563151,15.7269377 36.5796612,15.7269377 C34.6130128,15.7269377 33.5313561,15.4334931 31.8597049,14.7487889 L31.171378,14.4553443 L30.483051,18.4657545 C31.6630401,18.9548289 33.8263534,19.4439033 36.0879991,19.4439033 C41.2996175,19.4439033 44.7412523,16.9985312 44.7412523,13.2815657 C44.7412523,11.2274531 43.4629308,9.66241497 40.5129581,8.39082148 C38.7429745,7.51048753 37.6613179,7.02141311 37.6613179,6.14107916 C37.6613179,5.35856009 38.5463097,4.57604102 40.5129581,4.57604102 C42.1846093,4.57604102 43.3645984,4.86948567 44.2495902,5.26074521 L44.7412523,5.45637497 L45.5279117,1.64159452 L45.5279117,1.64159452 Z"/>
    <path fill="#3C58BF" d="M53.9845,1.44596475 C52.8045109,1.44596475 51.9195191,1.54377963 51.427857,2.71755824 L44.0529253,19.0526438 L49.3628761,19.0526438 L50.3462004,16.1181973 L56.6394754,16.1181973 L57.22947,19.0526438 L61.9494262,19.0526438 L57.8194645,1.44596475 L53.9845,1.44596475 L53.9845,1.44596475 Z M51.7228543,13.1837508 C52.0178516,12.3034168 53.6895027,7.99956195 53.6895027,7.99956195 C53.6895027,7.99956195 54.0828324,6.92359823 54.3778297,6.23889404 L54.672827,7.90174706 C54.672827,7.90174706 55.6561512,12.3034168 55.852816,13.2815657 L51.7228543,13.2815657 L51.7228543,13.1837508 Z"/>
    <path fill="#293688" d="M55.1644891,1.44596475 C53.9845,1.44596475 53.0995082,1.54377963 52.6078461,2.71755824 L44.0529253,19.0526438 L49.3628761,19.0526438 L50.3462004,16.1181973 L56.6394754,16.1181973 L57.22947,19.0526438 L61.9494262,19.0526438 L57.8194645,1.44596475 L55.1644891,1.44596475 L55.1644891,1.44596475 Z M51.7228543,13.1837508 C52.116184,12.2056019 53.6895027,7.99956195 53.6895027,7.99956195 C53.6895027,7.99956195 54.0828324,6.92359823 54.3778297,6.23889404 L54.672827,7.90174706 C54.672827,7.90174706 55.6561512,12.3034168 55.852816,13.2815657 L51.7228543,13.2815657 L51.7228543,13.1837508 Z"/>
    <path fill="#3C58BF" d="M13.6682067,13.7706401 L13.1765446,11.2274531 C12.2915528,8.2930066 9.43991257,5.06511544 6.29327505,3.5000773 L10.7182341,19.1504587 L16.0281849,19.1504587 L23.9931111,1.54377963 L18.6831603,1.54377963 L13.6682067,13.7706401 Z"/>
    <path fill="#293688" d="M13.6682067,13.7706401 L13.1765446,11.2274531 C12.2915528,8.2930066 9.43991257,5.06511544 6.29327505,3.5000773 L10.7182341,19.1504587 L16.0281849,19.1504587 L23.9931111,1.54377963 L19.6664845,1.54377963 L13.6682067,13.7706401 Z"/>
    <path fill="#FFBC00" d="M0,1.44596475 L0.884991803,1.64159452 C7.17826685,3.10881777 11.5048934,6.82578334 13.1765446,11.2274531 L11.406561,2.913188 C11.1115638,1.7394094 10.2265719,1.44596475 9.1449153,1.44596475 L0,1.44596475 L0,1.44596475 Z"/>
    <path fill="#F7981D" d="M0,1.44596475 L0,1.44596475 C6.29327505,2.913188 11.5048934,6.72796846 13.1765446,11.1296382 L11.5048934,4.18478149 C11.2098962,3.01100289 10.2265719,2.3262987 9.1449153,2.3262987 L0,1.44596475 Z"/>
    <path fill="#ED7C00" d="M0,1.44596475 L0,1.44596475 C6.29327505,2.913188 11.5048934,6.72796846 13.1765446,11.1296382 L11.9965556,7.31485776 C11.7015583,6.14107916 11.3082286,4.96730056 9.93157468,4.47822614 L0,1.44596475 Z"/>
    <path fill="#051244" d="M18.5848279,13.1837508 L15.2415255,9.85804473 L13.6682067,13.5750103 L13.2748771,11.1296382 C12.3898852,8.19519171 9.53824499,4.96730056 6.39160747,3.40226242 L10.8165665,19.0526438 L16.1265173,19.0526438 L18.5848279,13.1837508 Z"/>
    <polygon fill="#051244" points="27.73 19.053 23.501 14.749 22.715 19.053"/>
    <path fill="#051244" d="M39.0379718 12.988121L39.0379718 12.988121C39.4313015 13.3793805 39.6279663 13.6728252 39.5296339 14.0640847 39.5296339 15.2378633 37.9563151 15.8247526 36.5796612 15.8247526 34.6130128 15.8247526 33.5313561 15.531308 31.8597049 14.8466038L31.171378 14.5531591 30.483051 18.5635694C31.6630401 19.0526438 33.8263534 19.5417182 36.0879991 19.5417182 39.2346366 19.5417182 41.7912796 18.6613843 43.2662659 17.0963461L39.0379718 12.988121zM44.7412523 19.0526438L49.3628761 19.0526438 50.3462004 16.1181973 56.6394754 16.1181973 57.22947 19.0526438 61.9494262 19.0526438 60.2777751 11.9121573 54.3778297 6.23889404 54.672827 7.80393218C54.672827 7.80393218 55.6561512 12.2056019 55.852816 13.1837508L51.7228543 13.1837508C52.116184 12.2056019 53.6895027 7.99956195 53.6895027 7.99956195 53.6895027 7.99956195 54.0828324 6.92359823 54.3778297 6.23889404"/>
  </g>
</svg>
