<svg xmlns="http://www.w3.org/2000/svg" viewBox="0 0 77.03 64.23"><title>account</title><g id="Слой_2" data-name="Слой 2"><g id="checkout_1000px_5" data-name="checkout 1000px 5"><path d="M0,2.76V55.41l.26.23a2.31,2.31,0,0,0,3,0l4-3.54,4,3.54a2.3,2.3,0,0,0,3,0l4-3.54,4,3.54a2.3,2.3,0,0,0,3,0l4-3.54h.24l4,3.54a2.3,2.3,0,0,0,3,0l4-3.54h.24l4,3.54a2.3,2.3,0,0,0,3,0l4-3.54h.24l4,3.54a2.3,2.3,0,0,0,3,0l4-3.54h.1l4,3.54A2.33,2.33,0,0,0,70,56V2.76A2.91,2.91,0,0,0,67,0H3A2.91,2.91,0,0,0,0,2.76Z" fill="#4f5a67" opacity="0.3"/><g opacity="0.5"><path d="M67,2c.56,0,1,.35,1,.76V53.31l-3.11-2.72a2,2,0,0,0-1.32-.49h-.1a2,2,0,0,0-1.32.49l-4,3.54a.31.31,0,0,1-.37,0l-4-3.54a2,2,0,0,0-1.32-.49h-.24a2,2,0,0,0-1.32.49l-4,3.54a.31.31,0,0,1-.37,0l-4-3.54a2,2,0,0,0-1.32-.49h-.24a2,2,0,0,0-1.32.49l-4,3.54a.31.31,0,0,1-.37,0l-4-3.54a2,2,0,0,0-1.32-.49h-.24a2,2,0,0,0-1.32.49l-4,3.54a.31.31,0,0,1-.37,0l-4-3.54a2,2,0,0,0-2.63,0l-4,3.54a.31.31,0,0,1-.37,0l-4-3.54a2,2,0,0,0-2.63,0L2,54.08V2.76C2,2.35,2.48,2,3,2H67m0-2H3A2.91,2.91,0,0,0,0,2.76V55.41l.26.23a2.28,2.28,0,0,0,1.5.56,2.28,2.28,0,0,0,1.5-.56l4-3.54,4,3.54a2.3,2.3,0,0,0,3,0l4-3.54,4,3.54a2.3,2.3,0,0,0,3,0l4-3.54h.24l4,3.54a2.3,2.3,0,0,0,3,0l4-3.54h.24l4,3.54a2.3,2.3,0,0,0,3,0l4-3.54h.24l4,3.54a2.3,2.3,0,0,0,3,0l4-3.54h.1l4,3.54a2.26,2.26,0,0,0,1.49.55A2.37,2.37,0,0,0,70,56V2.76A2.91,2.91,0,0,0,67,0Z" fill="#4f5a67"/></g><path d="M7,10.21V62.85l.26.23a2.31,2.31,0,0,0,3,0l4-3.54,4,3.54a2.3,2.3,0,0,0,3,0l4-3.54,4,3.54a2.3,2.3,0,0,0,3,0l4-3.54h.24l4,3.54a2.3,2.3,0,0,0,3,0l4-3.54h.24l4,3.54a2.3,2.3,0,0,0,3,0l4-3.54h.24l4,3.54a2.3,2.3,0,0,0,3,0l4-3.54h.1l4,3.54a2.33,2.33,0,0,0,2.38.37V10.21a2.91,2.91,0,0,0-3-2.76H10.07A2.91,2.91,0,0,0,7,10.21Z" fill="#fff"/><g opacity="0.5"><path d="M74,9.45c.55,0,1,.36,1,.76V60.76L71.92,58a2,2,0,0,0-1.32-.5h-.1a2,2,0,0,0-1.32.49l-4,3.54a.31.31,0,0,1-.37,0l-4-3.54a2,2,0,0,0-1.32-.49h-.24a2,2,0,0,0-1.32.5l-4,3.54a.31.31,0,0,1-.37,0L49.4,58a2,2,0,0,0-1.32-.5h-.24a2,2,0,0,0-1.32.5l-4,3.54a.31.31,0,0,1-.37,0l-4-3.54a2,2,0,0,0-1.32-.49h-.24a2,2,0,0,0-1.32.5l-4,3.54a.31.31,0,0,1-.37,0l-4-3.54a2,2,0,0,0-2.63,0l-4,3.54a.31.31,0,0,1-.37,0l-4-3.54A2,2,0,0,0,13,58L9,61.53V10.21c0-.41.49-.76,1-.76H74m0-2H10.07a2.91,2.91,0,0,0-3,2.76V62.85l.26.23a2.31,2.31,0,0,0,3,0l4-3.54,4,3.54a2.3,2.3,0,0,0,3,0l4-3.54,4,3.54a2.3,2.3,0,0,0,3,0l4-3.54h.24l4,3.54a2.3,2.3,0,0,0,3,0l4-3.54h.24l4,3.54a2.3,2.3,0,0,0,3,0l4-3.54h.24l4,3.54a2.3,2.3,0,0,0,3,0l4-3.54h.1l4,3.54a2.26,2.26,0,0,0,1.49.55,2.38,2.38,0,0,0,.89-.17V10.21a2.91,2.91,0,0,0-3-2.76Z" fill="#4f5a67"/></g><g opacity="0.2"><path d="M70.42,60l4.16,3.64a2.39,2.39,0,0,0,2.45.38V10.29a3,3,0,0,0-3.13-2.84H69.22V61l1.1-1Z" fill="#00ab8a"/></g><g opacity="0.5"><line x1="16.78" y1="31.72" x2="66.03" y2="31.72" fill="none" stroke="#4f5a67" stroke-linecap="round" stroke-linejoin="round" stroke-width="2"/></g><g opacity="0.5"><line x1="16.78" y1="39.72" x2="66.03" y2="39.72" fill="none" stroke="#4f5a67" stroke-linecap="round" stroke-linejoin="round" stroke-width="2"/></g><line x1="33.24" y1="19.68" x2="66.03" y2="19.68" fill="none" stroke="#00ab8a" stroke-linecap="round" stroke-linejoin="round" stroke-width="3"/><path d="M56.45,47.84v4h-2v-4h2m0-2h-2a2,2,0,0,0-2,2v4a2,2,0,0,0,2,2h2a2,2,0,0,0,2-2v-4a2,2,0,0,0-2-2Z" fill="#4f5a67"/><path d="M48.86,47.84v4h-2v-4h2m0-2h-2a2,2,0,0,0-2,2v4a2,2,0,0,0,2,2h2a2,2,0,0,0,2-2v-4a2,2,0,0,0-2-2Z" fill="#4f5a67"/><path d="M39,47.84v4H37v-4h2m0-2H37a2,2,0,0,0-2,2v4a2,2,0,0,0,2,2h2a2,2,0,0,0,2-2v-4a2,2,0,0,0-2-2Z" fill="#4f5a67"/><path d="M31.43,47.84v4h-2v-4h2m0-2h-2a2,2,0,0,0-2,2v4a2,2,0,0,0,2,2h2a2,2,0,0,0,2-2v-4a2,2,0,0,0-2-2Z" fill="#4f5a67"/><path d="M64,47.84v4H62v-4h2m0-2H62a2,2,0,0,0-2,2v4a2,2,0,0,0,2,2h2a2,2,0,0,0,2-2v-4a2,2,0,0,0-2-2Z" fill="#4f5a67"/><path d="M18.53,21.95V14.87h5.77a3.79,3.79,0,0,1,4,3.54h0a3.79,3.79,0,0,1-4,3.54h-8" fill="none" stroke="#00ab8a" stroke-linecap="round" stroke-linejoin="round" stroke-width="2"/><line x1="18.53" y1="21.95" x2="18.53" y2="27.84" fill="none" stroke="#00ab8a" stroke-linecap="round" stroke-linejoin="round" stroke-width="2"/><line x1="25.55" y1="25.46" x2="16.25" y2="25.46" fill="none" stroke="#00ab8a" stroke-linecap="round" stroke-linejoin="round" stroke-width="2"/></g></g></svg>