<svg xmlns="http://www.w3.org/2000/svg" viewBox="0 0 133.58 150"><title>credit-success</title><g id="Слой_2" data-name="Слой 2"><g id="_" data-name="!"><path id="_Контур_" data-name="&lt;Контур&gt;" d="M0,44.18v61.64a13.35,13.35,0,0,0,6.68,11.57l53.44,30.83a13.35,13.35,0,0,0,13.34,0l53.44-30.83a13.35,13.35,0,0,0,6.68-11.57V44.18a13.35,13.35,0,0,0-6.68-11.57L73.46,1.79a13.35,13.35,0,0,0-13.34,0L6.68,32.61A13.35,13.35,0,0,0,0,44.18Z" fill="#00ab8a" fill-opacity="0.3"/><path d="M83.62,66.68H47.78a1.75,1.75,0,1,1,0-3.51H83.62a1.75,1.75,0,1,1,0,3.51Z" fill="#00ab8a"/><path d="M83.94,75.45H48.1a1.75,1.75,0,1,1,0-3.51H83.94a1.75,1.75,0,0,1,0,3.51Z" fill="#00ab8a"/><path d="M73.39,84.22h-25a1.75,1.75,0,0,1,0-3.51h25a1.75,1.75,0,1,1,0,3.51Z" fill="#00ab8a"/><path d="M89.61,101.72v2.9a3.1,3.1,0,0,1-3.1,3.1H45.27a3.11,3.11,0,0,1-3.1-3.1V45.38a3.11,3.11,0,0,1,3.1-3.1l28.39,0V52.74a5.56,5.56,0,0,0,5.56,5.56l10.28,0,.07,26.63,5-5V56.33l-19-19H45.27a8,8,0,0,0-8,8v59.24a8,8,0,0,0,8,8H86.51a8,8,0,0,0,8-8V96.81Z" fill="#00ab8a" opacity="0.6"/><path d="M82.19,103.16a2.45,2.45,0,0,1-1.73-.72l-8.95-8.92A2.46,2.46,0,1,1,75,90.05l7.21,7.19L97.61,81.82a2.46,2.46,0,1,1,3.47,3.47L83.93,102.44A2.45,2.45,0,0,1,82.19,103.16Z" fill="#00ab8a"/></g></g></svg>