<svg xmlns="http://www.w3.org/2000/svg" viewBox="0 0 17 17.02"><title>tel</title><g id="Слой_2" data-name="Слой 2"><g id="_" data-name="!"><path d="M3,0a.76.76,0,0,1,.53.32l2,2.83a.9.9,0,0,1,.16.65,1,1,0,0,1-.29.61L3.67,6.13A30.68,30.68,0,0,0,7,10a31.68,31.68,0,0,0,3.89,3.31l1.73-1.72a.91.91,0,0,1,.61-.28,1,1,0,0,1,.66.17l2.8,2a.78.78,0,0,1,.32.55.69.69,0,0,1-.19.59L14.43,17H14a5.74,5.74,0,0,1-1.35-.24,17.61,17.61,0,0,1-2-.69A14,14,0,0,1,8,14.58,22.66,22.66,0,0,1,5,12,21.8,21.8,0,0,1,2.43,9,16.2,16.2,0,0,1,.91,6.4a11.57,11.57,0,0,1-.68-2A8.63,8.63,0,0,1,0,3a4.5,4.5,0,0,1,0-.47L2.37.21A.69.69,0,0,1,3,0Z" fill="#231f20" opacity="0.2"/></g></g></svg>