<?xml version="1.0" encoding="UTF-8"?>
<svg width="18px" height="20px" viewBox="0 0 18 20" version="1.1" xmlns="http://www.w3.org/2000/svg" xmlns:xlink="http://www.w3.org/1999/xlink">
    <defs></defs>
    <g id="Page-1" stroke="none" stroke-width="1" fill="none" fill-rule="evenodd">
        <g id="baikal-2" transform="translate(-601.000000, -1010.000000)" fill="#50504D">
            <path d="M617,1012 L616,1012 L616,1010 L614,1010 L614,1012 L606,1012 L606,1010 L604,1010 L604,1012 L603,1012 C601.89,1012 601.01,1012.9 601.01,1014 L601,1028 C601,1029.1 601.89,1030 603,1030 L617,1030 C618.1,1030 619,1029.1 619,1028 L619,1014 C619,1012.9 618.1,1012 617,1012 L617,1012 Z M617,1028 L603,1028 L603,1017 L617,1017 L617,1028 L617,1028 Z M605,1019 L610,1019 L610,1024 L605,1024 L605,1019 Z" id="Mask-Copy-12"></path>
        </g>
    </g>
</svg>