<?xml version="1.0" encoding="utf-8"?>
<!-- Generator: Adobe Illustrator 16.2.0, SVG Export Plug-In . SVG Version: 6.00 Build 0)  -->
<!DOCTYPE svg PUBLIC "-//W3C//DTD SVG 1.1//EN" "http://www.w3.org/Graphics/SVG/1.1/DTD/svg11.dtd">
<svg version="1.1" xmlns="http://www.w3.org/2000/svg" xmlns:xlink="http://www.w3.org/1999/xlink" x="0px" y="0px"
	 width="36.3px" height="33.8px" viewBox="0 0 36.3 33.8" style="enable-background:new 0 0 36.3 33.8;" xml:space="preserve">
<g>
	<g style="opacity:0.4;">
		<path style="fill:#FFFFFF;" d="M13.6,32.8c-2.8,0-5.5-1.5-6.9-4l-4.6-7.9c-1.4-2.5-1.4-5.5,0-8L6.6,5c1.4-2.5,4.1-4,6.9-4h9.1
			c2.8,0,5.5,1.5,6.9,4l4.6,7.9c1.4,2.5,1.4,5.5,0,8l-4.6,7.9c-1.4,2.5-4.1,4-6.9,4H13.6z"/>
		<path style="fill:#808D9B;" d="M22.7,2c2.5,0,4.8,1.3,6.1,3.5l4.6,7.9c1.3,2.2,1.3,4.8,0,7l-4.6,7.9c-1.3,2.2-3.6,3.5-6.1,3.5
			h-9.1c-2.5,0-4.8-1.3-6.1-3.5l-4.6-7.9c-1.3-2.2-1.3-4.8,0-7l4.6-7.9C8.8,3.3,11.1,2,13.6,2H22.7 M22.7,0h-9.1
			c-3.2,0-6.2,1.7-7.8,4.5l-4.6,7.9c-1.6,2.8-1.6,6.2,0,9l4.6,7.9c1.6,2.8,4.6,4.5,7.8,4.5h9.1c3.2,0,6.2-1.7,7.8-4.5l4.6-7.9
			c1.6-2.8,1.6-6.2,0-9l-4.6-7.9C28.9,1.7,25.9,0,22.7,0L22.7,0z"/>
	</g>
	
		<polyline style="fill:none;stroke:#08AB8A;stroke-width:3;stroke-linecap:round;stroke-linejoin:round;stroke-miterlimit:10;" points="
		25.5,12.1 15.8,21.8 10.8,16.7 	"/>
</g>
</svg>
