<svg xmlns="http://www.w3.org/2000/svg" viewBox="0 0 81.63 107.29"><title>Ресурс 9</title><g id="Слой_2" data-name="Слой 2"><g id="checkout_1000px_1-2" data-name="checkout 1000px 1-2"><g opacity="0.15"><path d="M54.51,0H11.42A11.43,11.43,0,0,0,0,11.42V95.87a11.43,11.43,0,0,0,11.42,11.42H70.21A11.44,11.44,0,0,0,81.63,95.87V27Zm15.7,100.29H11.42A4.43,4.43,0,0,1,7,95.87V11.42A4.43,4.43,0,0,1,11.42,7L51.89,7v15a7.92,7.92,0,0,0,7.92,7.92l14.66,0,.16,66.07a4.42,4.42,0,0,1-4.42,4.42Zm0,0" fill="#4f5a67"/><path d="M42.4,36.17a2.24,2.24,0,0,0-3.17,0L26.69,48.71a2.24,2.24,0,0,0,1.58,3.83h5.48V68.79a3,3,0,0,0,3,3h8.15a3,3,0,0,0,3-3V52.53h5.48a2.24,2.24,0,0,0,1.59-3.83Zm0,0" fill="#4f5a67"/></g></g></g></svg>