<svg id="Слой_1" xmlns="http://www.w3.org/2000/svg" width="18.5" height="17.5" viewBox="0 0 18.5 17.5"><style>.st0{opacity:.5;fill:#fff}</style><path class="st0" d="M10.8 14.7v1.5c0 .2-.1.4-.2.5-.2.2-.3.3-.6.3H.8c-.2 0-.4-.1-.5-.2s-.3-.4-.3-.6v-1.5c0-.2.1-.4.2-.5s.3-.2.5-.2H10c.2 0 .4.1.5.2.2.1.3.3.3.5zM17 10v1.5c0 .2-.1.4-.2.5-.1.1-.3.2-.5.2H.8c-.2 0-.4-.1-.5-.2-.2 0-.3-.2-.3-.4V10c0-.2.1-.4.2-.5s.3-.2.5-.2h15.5c.2 0 .4.1.5.2s.3.3.3.5zm-3.1-4.6V7c0 .2-.1.4-.2.5-.1.1-.3.2-.5.2H.8c-.2 0-.4-.1-.5-.2C.1 7.4 0 7.2 0 7V5.4c0-.2.1-.4.2-.5.1-.2.3-.2.5-.2h12.4c.2 0 .4.1.5.2.2.1.3.3.3.5zM18.5.8v1.5c0 .2-.1.4-.2.5-.1.2-.3.3-.5.3H.8c-.2 0-.4-.1-.6-.2S0 2.5 0 2.3V.8C0 .6.1.4.2.3.4.1.6 0 .8 0h17c.2 0 .4.1.5.2.2.2.2.4.2.6z"/><path class="st0" d="M10.8 15.2v1.5c0 .2-.1.4-.2.5-.1.1-.3.2-.5.2H.8c-.2 0-.4-.1-.5-.2s-.3-.3-.3-.5v-1.5c0-.2.1-.4.2-.5s.3-.2.5-.2H10c.2 0 .4.1.5.2.2.1.3.3.3.5zm6.2-4.7V12c0 .2-.1.4-.2.5-.1.1-.3.2-.5.2H.8c-.2 0-.4-.1-.5-.2-.2 0-.3-.2-.3-.4v-1.5c0-.2.1-.4.2-.5s.3-.2.5-.2h15.5c.2 0 .4.1.5.2s.3.2.3.4zm-3.1-4.6v1.5c0 .2-.1.4-.2.5-.1.1-.3.2-.5.2H.8c-.2.1-.4.1-.6-.1-.1-.1-.2-.3-.2-.5V5.9c0-.2.1-.4.2-.5.1-.2.3-.2.5-.2h12.4c.2 0 .4.1.5.2.2.1.3.3.3.5zm4.6-4.6v1.5c0 .2-.1.4-.2.5-.1.1-.3.2-.5.2H.8c-.2 0-.4-.1-.5-.2S0 3 0 2.8V1.3C0 1.1.1.9.2.8.3.6.5.6.7.6h17c.2 0 .4.1.5.2.3.1.3.3.3.5z"/></svg>