<svg id="Слой_1" xmlns="http://www.w3.org/2000/svg" width="18" height="18" viewBox="0 0 18 18"><style>.st0{opacity:.5;fill:#fff}</style><path class="st0" d="M4.5 1.2C5.9.4 7.4 0 9 0s3.1.4 4.5 1.2c1.4.8 2.5 1.9 3.3 3.3C17.6 5.9 18 7.4 18 9s-.4 3.1-1.2 4.5-1.9 2.5-3.3 3.3c-1.4.8-2.9 1.2-4.5 1.2s-3.1-.4-4.5-1.2C3.1 16 2 14.9 1.2 13.5.4 12.1 0 10.6 0 9s.4-3.1 1.2-4.5C2 3.1 3.1 2 4.5 1.2zm3 9.3h3s.1-.1.2-.1.2-.2.5-.4c.2-.2.4-.4.6-.7.2-.3.3-.6.5-1 .1-.4.2-.9.2-1.4 0-.5-.1-1-.3-1.3-.2-.4-.4-.7-.6-.9s-.6-.4-.9-.5l-.9-.3H9c-1 0-1.9.3-2.6.8-.7.6-1 1.5-1 2.8H8.1v-.1-.2c0-.1 0-.1.1-.1 0 0 0-.1.1-.1l.1-.1h.7c.2 0 .3.1.5.2.1.1.2.2.2.4s0 .4-.1.4c0 .1-.2.2-.4.3h-.2c-.1 0-.3.1-.5.2s-.4.2-.5.4c-.2.1-.3.4-.4.7-.2.3-.2.6-.2 1zm0 1.5v1.5h3V12h-3z"/></svg>