<?xml version="1.0" encoding="utf-8"?>
<!-- Generator: Adobe Illustrator 16.2.0, SVG Export Plug-In . SVG Version: 6.00 Build 0)  -->
<!DOCTYPE svg PUBLIC "-//W3C//DTD SVG 1.1//EN" "http://www.w3.org/Graphics/SVG/1.1/DTD/svg11.dtd">
<svg version="1.1" id="Слой_1" xmlns="http://www.w3.org/2000/svg" xmlns:xlink="http://www.w3.org/1999/xlink" x="0px" y="0px"
	 width="42px" height="42px" viewBox="0 0 42 42" style="enable-background:new 0 0 42 42;" xml:space="preserve">
<g>
	<g>
		<circle style="fill:#037C58;fill-opacity:0.2;" cx="21" cy="21" r="21"/>
		<path style="fill:#037C58;stroke:#FFFFFF;stroke-width:2;stroke-miterlimit:10;" d="M25.1,7.5l-8.5,0c-2.5,0-4.8,1.3-6.1,3.5
			l-3.9,6.8c-1.3,2.2-1.3,4.8,0,7l3.9,6.8c1.2,2.2,3.6,3.5,6.1,3.5l8.5,0c2.5,0,4.8-1.3,6.1-3.5l3.9-6.8c1.3-2.2,1.3-4.8,0-7
			L31.1,11C29.9,8.8,27.6,7.5,25.1,7.5z"/>
	</g>
	<g style="opacity:0.6;">
		
			<polyline style="fill:#037C58;stroke:#FFFFFF;stroke-width:2;stroke-linecap:round;stroke-linejoin:round;stroke-miterlimit:10;" points="
			24,17 28,21 24,25 		"/>
		
			<polyline style="fill:#037C58;stroke:#FFFFFF;stroke-width:2;stroke-linecap:round;stroke-linejoin:round;stroke-miterlimit:10;" points="
			18,25 14,21 18,17 		"/>
	</g>
</g>
</svg>
