<svg xmlns="http://www.w3.org/2000/svg" viewBox="0 0 24.6 30"><title>rub-icon</title><g id="Слой_2" data-name="Слой 2"><g id="checkout_1000px_5" data-name="checkout 1000px 5"><path d="M23.55,6.52A43.32,43.32,0,0,1,12.3,1,43.32,43.32,0,0,1,1,6.52c-.1,3.21,0,6.91,0,10.56A9.36,9.36,0,0,0,5,25a40,40,0,0,0,7.31,4,40,40,0,0,0,7.31-4,9.36,9.36,0,0,0,3.94-8C23.55,13.43,23.65,9.73,23.55,6.52Z" fill="none" stroke="#fff" stroke-linecap="round" stroke-linejoin="round" stroke-width="2"/><path d="M8.93,15.6V9.24h5.19a3.41,3.41,0,0,1,3.6,3.18h0a3.41,3.41,0,0,1-3.6,3.18H7" fill="none" stroke="#fff" stroke-linecap="round" stroke-linejoin="round" stroke-width="2"/><line x1="8.93" y1="15.6" x2="8.93" y2="21.51" fill="none" stroke="#fff" stroke-linecap="round" stroke-linejoin="round" stroke-width="2"/><line x1="15.24" y1="19.5" x2="6.88" y2="19.5" fill="none" stroke="#fff" stroke-linecap="round" stroke-linejoin="round" stroke-width="2"/></g></g></svg>