<svg xmlns="http://www.w3.org/2000/svg" width="86" height="52" viewBox="0 0 86 52">
  <g fill="#008DA8">
    <path d="M29.707 2.135C28.812-.358 24.722.026 24.083 2.39 22.413 8.573 21.271 11.56 15.264 23.192 13.2 27.186 9.684 33.465 7.468 37.38 5.308 41.194 1.434 46.618 1.38 47.508.12 49.813 1.236 50.995 1.861 51.112 5.372 51.762 12.24 51.02 17.309 51.271 18.208 51.239 20.037 51.231 21.819 51.219 22.103 48.159 22.502 44.11 22.685 42.3 22.889 40.331 23.065 38.486 23.24 36.636 23.412 34.811 23.588 32.982 23.788 31.036 24.039 28.547 24.287 25.791 24.535 22.992 24.943 18.394 25.366 13.641 25.853 9.779 25.961 8.932 26.181 7.958 26.936 7.958 27.783 7.958 27.878 9.116 27.935 9.807 28.873 21.47 30.083 32.822 31.254 43.797 31.518 46.286 31.781 48.766 32.041 51.25 38.151 51.354 42.83 51.522 51.557 51.542 52.508 51.542 54.765 50.675 52.44 47.188 42.725 32.619 35.226 17.513 29.707 2.135zM84.188 47.209C74.322 32.167 67.156 21.019 58.336 2.742 57.753 1.532 56.535 1.284 55.44 1.644 52.477 1.995 50.627 2.626 46.577 2.674 40.733 2.742 37.842 2.155 33.804 1.428 33.069 1.296 32.921 2.435 33.153 2.802 39.72 19.494 48.2 35.502 56.548 48.439 58.17 50.584 58.661 51.526 60.973 51.486 61.033 51.486 64.013 51.49 64.068 51.498 65.693 51.522 66.213 51.542 67.284 51.498 76.946 51.574 73.646 51.542 83.305 51.565 84.259 51.566 86.488 50.716 84.188 47.209z"/>
  </g>
</svg>
