<svg xmlns="http://www.w3.org/2000/svg" width="70" height="60" viewBox="0 0 70 60">
  <g fill="#E5B06D">
    <path d="M19.688 28.455C19.84 28.639 20.012 28.798 20.179 28.975 20.531 29.055 20.958 28.871 21.346 28.679 24.397 25.04 27.117 21.15 29.742 17.188 29.742 16.973 29.69 16.757 29.61 16.561 25.044 14.524 21.406 11.221 19.94 5.797 19.577 4.451 17.265 4.263 17.029 5.797 17.021 5.857 15.276 14.856 13.59 10.861 12.863 9.123 12.132 7.614 11.101 6.004 10.29 4.742 8.317 5.233 8.281 6.767 8.241 8.636 8.453 10.405 8.664 12.259 9.116 16.225 6.416 17.068 3.811 18.402 1.89 19.389.025 20.479.301 22.791.448 24.058 2.302 26.071 5.665 25.599 11.848 24.74 15.411 23.422 19.688 28.455zM27.401 40.122C26.518 38.868 25.739 37.526 24.769 36.332 24.226 35.665 23.539 34.782 22.724 34.255 22.041 41.457 14.241 47.719 10.191 53.04 9.176 54.378 11.053 55.68 12.26 55.109 19.757 51.57 23.068 46.178 27.645 40.359 27.562 40.289 27.474 40.225 27.401 40.122zM56.975 39.163C56.907 39.127 56.839 39.103 56.771 39.047 56.328 38.664 54.818 38.504 54.25 38.428 53.152 38.276 51.833 38.184 50.763 38.572 50.711 38.4 50.72 38.603 50.696 38.612L50.615 38.636C51.65 40.917 52.412 43.301 51.921 46.149 51.302 49.72 48.806 52.44 47.763 55.831 47.356 57.173 49.03 58.367 49.984 57.54 54.589 53.546 56.71 49.32 57.641 44.659 58.168 41.947 58.564 40.896 57.118 39.39 57.046 39.319 57.019 39.243 56.975 39.163z"/>
    <path d="M69.392,41.264 C68.182,36.039 63.321,31.335 62.466,26.166 C61.759,22.651 61.707,20.362 62.83,18.493 C66.824,12.601 67.303,3.059 59.55,1.146 C52.896,-0.495 43.446,5.492 50.132,14.187 C51.873,16.452 55.105,13.212 53.259,11.064 C52.213,9.574 53.85,6.965 55.995,7.321 C59.801,7.8 60.412,12.437 58.695,15.94 C57.437,17.498 55.931,18.48 54.009,18.88 C50.538,19.603 48.234,19.775 44.731,19.718 C40.337,19.642 37.857,19.143 33.595,17.961 C33.216,18.032 32.872,18.184 32.549,18.528 C32.521,18.556 32.498,18.56 32.469,18.584 C29.453,23.142 26.334,27.623 22.747,31.749 C22.739,31.781 22.739,31.812 22.731,31.845 C25.65,32.815 27.044,35.307 28.682,37.704 C29.057,38.391 29.337,38.958 29.441,39.158 C32.384,46.113 24.791,51.369 22.087,56.813 C21.456,58.075 22.794,59.768 24.152,58.874 C28.266,56.182 31.018,54.257 33.914,50.251 C36.235,47.04 36.786,44.268 39.37,40.397 C40.257,39.259 45.209,36.926 49.643,36.615 C49.651,36.627 54.695,36.208 57.755,37.103 C57.755,37.079 58.294,37.422 58.294,37.398 C61.449,40.046 64.046,41.943 64.437,46.232 C64.648,48.525 63.415,52.875 63.578,55.291 C63.67,56.665 65.687,57.508 66.394,56.05 C68.517,51.681 70.542,46.205 69.392,41.264 Z"/>
  </g>
</svg>
