<svg xmlns="http://www.w3.org/2000/svg" width="76" height="72" viewBox="0 0 76 72">
  <g fill="#008DA8">
    <path d="M67.031 45.363C64.868 42.347 60.101 41.904 56.989 43.182 54.429 44.237 53.434 47.2 53.62 50.096 53.802 52.929 55.108 55.696 57.181 56.555 59.681 57.59 63.054 58.332 65.587 56.483 68.505 54.349 68.988 48.086 67.031 45.363zM13.255 43.19C10.696 44.236 9.702 47.204 9.886 50.1 10.07 52.932 11.376 55.7 13.449 56.558 15.949 57.597 19.321 58.336 21.853 56.486 24.772 54.353 25.255 48.094 23.298 45.366 21.136 42.351 16.367 41.908 13.255 43.19z"/>
    <path d="M25.711 44.896C26.933 48.295 26.47 50.36 30.19 50.375 31.969 50.379 35.792 50.443 39.63 50.547 40.374 50.581 41.116 50.585 41.861 50.639 44.229 50.807 48.153 50.947 50.518 51.074 50.516 51.058 50.514 51.043 50.51 51.029 52.283 50.895 51.057 49.162 52.056 45.938 53.19 42.276 54.848 40.179 59.732 40.095 64.617 40.003 65.925 41.488 67.497 42.1 69.066 42.711 71.595 38.433 68.803 36.952 68.777 36.935 68.739 36.926 68.711 36.912 68.847 35.925 68.919 34.951 68.811 34.028 67.869 25.915 57.384 28.508 52.135 27.15 49.835 26.559 49.759 19.569 49.179 17.667 48.492 15.419 47.07 13.254 44.72 12.527 42.217 11.752 39.383 12.272 36.829 12.435 31.99 12.743 29.372 11.832 23.876 12.355 20.92 12.639 17.509 12.476 14.891 13.929 12.286 15.371 10.164 20.571 9.609 23.295 8.556 28.439 7.574 35.86 8.526 41.413 8.579 43.206 8.448 43.971 9.223 43.585 10.269 43.062 11.054 40.534 16.289 40.706 21.525 40.881 24.491 41.492 25.711 44.896zM31.007 16.285C32.397 16.313 33.793 16.421 35.185 16.265 37.082 16.049 39.203 16.033 41.092 16.664 43.732 17.543 43.902 20.291 44.399 22.684 44.758 24.417 46.175 28.408 44.086 29.534 42.926 30.161 41.286 30.121 40.006 30.233 38.488 30.365 37.262 30.405 35.742 30.501 33.547 30.636 31.898 30.709 30.336 30.712 30.128 25.943 30.864 21.066 31.007 16.285zM17.423 18.55C18.495 17.599 19.045 17.312 20.389 16.98 22.599 16.429 25.817 16.868 28.063 16.457 28.347 16.406 28.626 16.365 28.91 16.341 28.766 21.09 28.039 25.935 28.241 30.676 26.146 30.6 23.858 30.401 20.303 30.065 20.215 30.057 14.767 30.017 14.74 29.957 14.55 29.977 14.352 29.873 14.372 29.63 14.627 26.422 14.837 20.838 17.423 18.55zM37.47 64.075C36.477 63.312 34.829 63.228 33.953 64.21 33.875 64.298 33.821 64.386 33.787 64.482 33.621 64.618 33.523 64.753 33.444 64.965 33.374 65.153 33.416 65.388 33.45 65.576 33.468 65.68 33.524 65.78 33.596 65.864 33.63 65.996 33.681 66.119 33.752 66.243 33.802 66.319 33.856 66.395 33.916 66.463 33.934 66.487 33.952 66.507 33.968 66.531 33.898 66.423 33.927 66.463 34.059 66.639 34.227 66.806 34.398 66.894 34.614 66.982 35.256 67.246 36.092 67.27 36.761 67.118 37.402 66.97 38.077 66.431 38.241 65.784 38.415 65.086 37.997 64.479 37.47 64.075zM23.94 59.114C22.616 58.096 20.419 57.984 19.246 59.294 19.145 59.409 19.073 59.529 19.027 59.653 18.805 59.837 18.673 60.016 18.568 60.304 18.474 60.552 18.532 60.867 18.578 61.115 18.602 61.259 18.674 61.39 18.772 61.503 18.815 61.674 18.886 61.846 18.977 62.006 19.045 62.11 19.119 62.21 19.199 62.301 19.221 62.329 19.245 62.361 19.266 62.389 19.172 62.249 19.212 62.297 19.388 62.537 19.614 62.757 19.844 62.876 20.131 62.993 20.984 63.348 22.1 63.372 22.995 63.172 23.846 62.976 24.753 62.257 24.969 61.395 25.2 60.46 24.645 59.654 23.94 59.114zM15.894 61.395C16.127 60.46 15.572 59.654 14.868 59.114 13.542 58.096 11.345 57.984 10.174 59.294 10.07 59.409 9.999 59.529 9.955 59.653 9.735 59.837 9.603 60.016 9.496 60.304 9.405 60.552 9.46 60.867 9.504 61.115 9.53 61.259 9.604 61.39 9.7 61.503 9.744 61.674 9.814 61.846 9.908 62.006 9.976 62.11 10.047 62.21 10.128 62.301 10.152 62.329 10.174 62.361 10.196 62.389 10.104 62.249 10.144 62.297 10.318 62.537 10.544 62.757 10.772 62.876 11.061 62.993 11.914 63.348 13.028 63.372 13.923 63.172 14.775 62.977 15.678 62.258 15.894 61.395zM63.252 67.139C61.928 66.124 59.729 66.009 58.559 67.323 58.457 67.435 58.385 67.558 58.339 67.682 58.119 67.862 57.987 68.041 57.88 68.329 57.788 68.577 57.844 68.896 57.89 69.144 57.915 69.284 57.988 69.415 58.084 69.527 58.128 69.702 58.198 69.871 58.292 70.034 58.36 70.134 58.432 70.234 58.512 70.325 58.535 70.358 58.558 70.386 58.579 70.413 58.488 70.273 58.528 70.321 58.701 70.56 58.927 70.78 59.157 70.899 59.444 71.019 60.297 71.371 61.413 71.398 62.308 71.195 63.161 71.004 64.065 70.284 64.281 69.418 64.512 68.484 63.957 67.678 63.252 67.139zM30.336 62.833C29.01 61.819 26.814 61.707 25.643 63.017 25.539 63.132 25.468 63.252 25.424 63.376 25.204 63.555 25.072 63.739 24.964 64.022 24.872 64.27 24.928 64.59 24.972 64.837 24.998 64.977 25.072 65.109 25.168 65.225 25.211 65.397 25.282 65.564 25.376 65.728 25.444 65.832 25.516 65.927 25.596 66.023 25.617 66.051 25.641 66.079 25.663 66.111 25.571 65.971 25.611 66.019 25.785 66.259 26.011 66.478 26.238 66.594 26.528 66.714 27.381 67.069 28.495 67.094 29.39 66.894 30.245 66.698 31.148 65.979 31.364 65.113 31.595 64.183 31.041 63.376 30.336 62.833zM7.657 62.37C6.331 61.355 4.134 61.24 2.962 62.554 2.86 62.666 2.788 62.79 2.742 62.913 2.52 63.093 2.388 63.277 2.284 63.56 2.19 63.807 2.248 64.127 2.292 64.375 2.316 64.514 2.388 64.646 2.488 64.758 2.53 64.934 2.6 65.102 2.694 65.265 2.76 65.366 2.834 65.465 2.914 65.557 2.935 65.589 2.959 65.618 2.982 65.645 2.888 65.506 2.928 65.557 3.104 65.793 3.33 66.013 3.559 66.133 3.847 66.252 4.702 66.604 5.816 66.631 6.711 66.428 7.564 66.237 8.468 65.517 8.684 64.651 8.916 63.716 8.36 62.909 7.657 62.37zM62.669 59.23C61.187 58.966 59.33 58.914 57.804 59.326 57.8 59.33 57.796 59.33 57.794 59.33 57.616 59.378 57.442 59.43 57.276 59.49 56.438 59.797 56.205 60.628 56.395 61.299 56.3 61.903 56.417 62.529 56.804 63.1 57.378 63.939 58.334 64.47 59.337 64.578 61.25 65.281 63.76 64.659 64.917 63.033 66.251 61.156 64.447 59.546 62.669 59.23zM19.636 64C18.15 63.736 16.293 63.684 14.769 64.096 14.765 64.096 14.763 64.1 14.759 64.1 14.583 64.148 14.407 64.2 14.239 64.26 13.4 64.568 13.171 65.399 13.36 66.07 13.264 66.673 13.38 67.3 13.77 67.871 14.343 68.71 15.298 69.241 16.304 69.349 18.213 70.052 20.725 69.429 21.882 67.804 23.219 65.924 21.409 64.315 19.636 64zM55.719 64.743C55.146 63.904 54.189 63.373 53.187 63.265 51.273 62.562 48.763 63.185 47.607 64.81 46.274 66.687 48.079 68.297 49.856 68.612 51.337 68.876 53.195 68.928 54.721 68.516 54.725 68.516 54.729 68.512 54.731 68.512 54.909 68.464 55.083 68.416 55.248 68.352 56.087 68.044 56.319 67.214 56.129 66.542 56.225 65.941 56.106 65.313 55.719 64.743zM42.698 58.068C41.328 57.804 39.615 57.753 38.209 58.164 38.205 58.164 38.201 58.167 38.199 58.167 38.035 58.215 37.874 58.263 37.722 58.327 36.947 58.635 36.734 59.466 36.909 60.136 36.822 60.74 36.927 61.366 37.286 61.938 37.817 62.777 38.696 63.308 39.624 63.416 41.388 64.119 43.706 63.496 44.772 61.87 46.005 59.993 44.338 58.383 42.698 58.068zM70.997 63.652C69.932 63.461 68.6 63.424 67.506 63.719L67.502 63.719C67.375 63.756 67.249 63.791 67.129 63.835 66.527 64.055 66.362 64.654 66.498 65.133 66.428 65.565 66.512 66.016 66.791 66.424 67.203 67.027 67.887 67.411 68.608 67.487 69.978 67.99 71.779 67.543 72.608 66.376 73.565 65.03 72.271 63.875 70.997 63.652zM27.68 55.316L27.668 55.316C27.493 55.368 27.317 55.416 27.153 55.476 26.314 55.784 26.082 56.614 26.27 57.286 26.174 57.89 26.292 58.52 26.682 59.088 27.255 59.926 28.21 60.462 29.214 60.565 31.125 61.268 33.638 60.649 34.794 59.02 36.127 57.143 34.322 55.537 32.545 55.221 31.061 54.953 29.204 54.9 27.68 55.316zM6.375 54.461C4.891 54.197 3.034 54.146 1.51 54.557 1.506 54.56 1.502 54.56 1.498 54.56 1.322 54.608 1.146 54.66.98 54.72.142 55.027-.088 55.858.1 56.529.004 57.132.122 57.759.512 58.33 1.085 59.168 2.039 59.7 3.044 59.808 4.955 60.511 7.468 59.888 8.624 58.262 9.958 56.387 8.151 54.777 6.375 54.461zM72.503 56.267C70.306 56.283 68.649 57.561 68.457 59.002 68.411 59.342 68.591 59.581 68.873 59.733 69.856 61.954 75.236 61.539 75.895 59.158 76.309 57.656 74.748 56.247 72.503 56.267zM52.528 60.621C54.501 59.666 54.447 56.759 52.482 55.836 50.823 55.061 47.347 55.121 46.68 57.262 46.424 57.557 46.247 57.917 46.199 58.384 46.11 59.243 46.812 59.958 47.502 60.338 48.941 61.132 51.028 61.343 52.528 60.621zM19.564 10.817C22.56 10.929 25.663 10.546 28.655 10.425 32.603 10.274 36.592 10.058 40.542 10.122 43.09 10.162 44.129 8.48 44.292 6.108 44.448 3.827 44.201 1.459 41.532 1.055 39.961.815 38.221 1.055 36.636 1.059 34.163 1.067 31.691 1.087 29.217 1.087 26.974 1.083 24.729 1.051 22.487.983 20.891.936 18.962.42 17.393.839 14.317 1.654 14.551 3.439 14.613 6.004 14.613 6.016 14.565 6.659 14.565 6.675 14.541 7.366 14.487 7.73 14.597 8.105 15.246 10.322 17.535 10.741 19.564 10.817z"/>
  </g>
</svg>
