<svg xmlns="http://www.w3.org/2000/svg" width="92" height="92" viewBox="0 0 92 92">
  <g fill="#008DA8">
    <path d="M89.691,44.822 C84.968,44.834 80.249,44.918 75.529,44.99 C75.687,41.121 75.121,37.477 73.742,34.447 C68.971,23.977 59.801,17.843 47.082,16.5 C47.008,11.771 46.928,7.041 46.916,2.309 C46.91,-0.563 44.819,-0.567 44.823,2.309 C44.835,6.978 44.915,11.645 44.987,16.31 C44.067,16.252 43.126,16.218 42.171,16.208 L41.916,16.206 C33.956,16.208 26.081,20.152 20.855,26.761 C16.749,31.953 14.636,38.224 14.552,44.942 C10.472,45.008 6.392,45.074 2.31,45.086 C-0.561,45.094 -0.565,47.183 2.31,47.179 C6.405,47.167 10.494,47.099 14.584,47.031 C14.692,49.148 14.963,51.293 15.479,53.464 C18.546,66.421 32.656,74.737 44.922,75.699 C44.996,80.362 45.075,85.025 45.088,89.693 C45.094,92.565 47.185,92.568 47.179,89.693 C47.167,85.054 47.088,80.418 47.015,75.785 C47.1,75.785 47.188,75.795 47.272,75.795 C49.673,75.795 51.983,75.508 54.147,74.942 C61.552,72.999 68.074,67.093 72.045,58.734 C73.862,54.91 74.953,50.92 75.368,47.083 C80.143,47.011 84.916,46.925 89.693,46.916 C92.563,46.911 92.567,44.818 89.691,44.822 Z M53.626,72.963 C51.589,73.496 49.45,73.75 47.271,73.75 C47.18,73.75 47.083,73.74 46.99,73.738 C46.96,71.629 46.92,69.518 46.916,67.409 C46.91,64.537 44.819,64.534 44.823,67.409 C44.829,69.49 44.869,71.571 44.897,73.65 C32.777,72.661 20.139,64.274 17.467,52.992 C16.979,50.935 16.744,48.947 16.642,47.006 C19.292,46.966 21.94,46.921 24.592,46.915 C27.464,46.911 27.467,44.818 24.592,44.822 C21.926,44.83 19.26,44.876 16.595,44.918 C16.845,29.257 29.105,18.253 41.914,18.251 C41.994,18.251 42.07,18.253 42.148,18.253 C43.124,18.263 44.077,18.301 45.012,18.361 C45.04,20.438 45.079,22.515 45.086,24.592 C45.092,27.464 47.183,27.468 47.177,24.592 C47.171,22.577 47.133,20.562 47.106,18.549 C59.266,19.871 67.502,25.683 71.881,35.294 C73.157,38.096 73.648,41.463 73.485,45.014 C71.46,45.041 69.435,45.079 67.408,45.085 C64.536,45.093 64.533,47.182 67.408,47.178 C69.373,47.175 71.337,47.134 73.302,47.106 C72.019,58.039 64.71,70.057 53.626,72.963 Z"/>
    <path d="M14.203 53.837C13.213 54.186 12.266 54.628 11.437 55.277 11.419 55.291 11.399 55.302 11.383 55.321 10.884 55.722 10.41 56.169 9.993 56.695 9.086 57.843 9.761 59.291 10.748 59.758 10.692 62.708 10.956 65.294 13.751 67.385 15.037 68.343 15.66 69.602 15.94 71.008 15.944 71.053 15.96 71.084 15.966 71.126 16.271 72.801 16.1 74.667 15.964 76.482 15.87 78.345 15.844 80.205 16.519 81.982 16.98 83.19 17.466 84.759 18.424 85.696 18.712 85.979 19.646 86.778 20.316 86.772 20.853 86.247 21.152 85.448 20.763 84.585 18.802 80.221 19.742 75.572 19.702 70.979 20.369 69.419 21.501 68.371 22.841 67.64 18.713 63.974 15.523 59.336 14.203 53.837zM58.73 42.423C56.937 41.259 54.289 40.578 51.696 40.582 51.904 40.138 52.169 39.659 52.495 39.144 53.282 37.896 55.229 36.304 54.3 35.947 53.374 35.597 51.197 37.894 49.979 37.455 48.758 37.021 50.035 35.097 51.135 32.961 52.235 30.832 50.873 31.15 50.051 32.332 49.23 33.517 48.165 35.264 46.935 35.136 45.701 35.021 45.956 32.792 46.49 30.972 47.023 29.147 46.076 28.866 45.497 30.837 44.922 32.808 43.053 34.324 42.066 33.641 41.079 32.956 41.667 27.424 40.792 27.166 39.917 26.911 39.805 29.728 39.823 31.554 39.841 33.386 38.192 33.611 37.329 33.039 36.466 32.472 35.995 27.583 35.028 27.384 34.054 27.172 34.341 29.713 34.729 31.098 35.119 32.472 35.292 33.241 33.167 33.722 31.044 34.212 28.717 35.671 31.186 35.36 33.651 35.056 41.096 35.33 44.703 36.548 48.306 37.758 47.56 38.413 46.348 40.12 45.137 41.822 44.317 42.287 43.518 45.592L43.54 45.59C42.865 48.96 45.1 53.159 38.364 53.824 34.793 54.178 30.865 53.7 27.304 53.416 24.764 53.214 21.752 52.853 18.848 52.987 20.243 58.449 24.056 63.03 28.864 66.374 30.4 66.412 31.916 66.625 33.243 66.981 35.764 67.662 37.764 69.575 39.574 71.361 40.904 71.72 42.234 71.99 43.544 72.165L43.544 72.074C43.52 70.52 43.498 68.966 43.494 67.412 43.492 66.152 43.815 65.159 44.43 64.542 44.83 64.143 45.337 63.923 45.864 63.923 46.183 63.923 46.503 64.011 46.801 64.173 48.812 60.628 51.348 57.233 51.863 52.915 52.342 48.895 52.934 47.786 56.71 47.122 58.134 46.865 58.847 46.139 59.384 44.913 59.801 43.979 59.637 43.009 58.73 42.423zM43.61 76.907C43.277 76.869 42.935 76.805 42.598 76.755 42.896 78.868 42.36 81.088 41.452 83.651 41.135 84.555 41.546 85.213 42.173 85.565 42.315 85.565 42.457 85.557 42.597 85.557 43 85.198 43.36 84.788 43.698 84.357 43.67 81.957 43.654 79.556 43.616 77.155L43.61 76.907z"/>
    <path d="M11.851 68.555C10.258 72.777 9.686 80.985 9.571 83.721 9.459 86.459 12.537 86.341 12.081 83.721 11.623 81.1 14.361 71.976 14.361 71.177 14.361 70.375 13.221 69.691 11.851 68.555zM49.979 61.749C49.108 62.166 49.028 63.155 48.305 64.332 48.305 64.332 51.421 66.237 51.421 68.212 51.421 69.588 50.954 70.73 50.076 72.236 50.917 72.144 51.734 72.008 52.527 71.83 53.286 70.354 53.961 68.851 54.313 67.83 55.148 65.398 53.933 63.95 53.099 62.963 52.26 61.977 50.854 61.327 49.979 61.749z"/>
  </g>
</svg>
