<svg xmlns="http://www.w3.org/2000/svg" width="60" height="56" viewBox="0 0 60 56">
  <g fill="#E96625">
    <path d="M59.089,37.09 C58.758,25.647 50.29,10.788 42.586,2.209 C41.004,0.452 38.112,-1.721 39.65,3.507 C42.019,11.587 35.484,23.027 32.457,29.565 C33.611,30.759 34.658,31.814 35.52,32.641 C37.194,34.238 39.575,36.02 41.723,37.981 C44.176,38.165 46.409,39.363 47.355,41.823 C48.214,44.056 48.458,47.175 46.46,48.889 C44.547,50.527 41.319,50.207 39.338,48.809 C37.261,47.339 36.199,45.29 36.03,42.87 C34.261,41.001 32.396,39.255 30.478,37.574 C30.323,39.691 30.414,41.816 30.79,43.753 C31.865,49.309 36.362,55.036 41.797,55.615 C46.451,56.35 51.296,54.445 54.614,51.241 C58.433,47.554 59.099,42.054 59.16,37.397 C59.161,37.282 59.117,37.19 59.089,37.09 Z"/>
    <path d="M32.456,29.565 C25.382,22.272 13.727,9.222 8.523,4.118 C8.307,3.91 8.084,3.811 7.856,3.755 C4.621,-0.191 -0.076,3.955 0.995,8.644 C1.893,12.591 19.38,28.407 22.376,30.832 C25.124,33.061 27.848,35.261 30.48,37.574 C30.672,34.938 31.247,32.313 32.218,30.065 C32.292,29.896 32.376,29.732 32.456,29.565 Z"/>
  </g>
</svg>
