<svg xmlns="http://www.w3.org/2000/svg" width="73" height="74" viewBox="0 0 73 74">
  <g fill="#008DA8">
    <path d="M55.776,36.874 C49.641,36.89 42.639,38.024 36.808,39.626 C36.832,39.786 36.904,39.914 36.904,40.093 C36.925,44.047 38.102,47.714 37.935,51.668 C37.827,54.217 37.871,57.991 35.31,59.489 C32.411,61.191 31.563,57.476 30.202,54.548 C30.182,54.712 29.128,51.688 29.107,51.852 C28.784,54.424 28.329,62.864 25.281,63.639 C21.71,64.55 20.064,60.456 20.284,57.636 C20.423,55.874 20.408,54.257 20.479,52.491 C20.555,50.621 20.982,48.353 20.926,46.484 C13.748,50.993 7.306,57.256 2.64,64.737 C2.425,65.081 2.345,65.412 2.309,65.74 C1.921,66.079 1.738,66.534 1.642,67.022 C-3.71,74.407 16.592,74.159 20.642,73.816 C38.747,72.286 53.633,57.596 58.374,40.289 C58.84,38.599 57.53,36.87 55.776,36.874 Z"/>
    <path d="M70.455,61.909 C71.701,59.021 72.68,56.437 71.689,53.306 C71.322,52.143 70.707,50.765 69.676,50.071 C69.988,34.535 68.542,18.985 69.416,3.445 C70.707,2.225 70.111,0.785 68.793,1.986 C60.078,9.91 50.037,16.782 40.43,23.663 C40.115,23.475 39.743,23.345 39.26,23.383 C35.993,23.651 33.704,19.856 31.488,17.691 C29.598,15.127 27.637,11.848 29.683,11.676 C31.424,11.532 32.622,4.99 28.9,2.086 C26.368,0.108 22.961,0.716 21.887,2.836 C19.65,7.246 23.804,10.057 23.057,11.843 C19.606,20.474 15.552,27.8 14.062,37.046 C14.034,37.198 14.014,37.341 13.99,37.493 C13.946,37.777 13.894,38.056 13.855,38.344 C13.551,40.469 13.443,42.354 13.472,43.413 C13.539,46.095 17.33,46.205 17.777,43.798 C19.275,42.095 20.877,40.525 22.594,39.103 C22.538,42.726 22.23,46.104 22.143,49.871 C21.947,53.95 22.039,58.072 22.251,59.877 C22.578,62.625 25.89,63.176 25.99,60.284 C26.07,57.896 27.328,53.142 27.699,48.369 C27.827,48.03 27.947,47.694 28.095,47.343 C28.938,45.362 32.629,55.794 32.653,56.067 C32.845,58.355 35.249,58.954 35.621,56.346 C35.648,56.147 35.645,55.955 35.668,55.755 C35.676,55.759 35.689,55.759 35.696,55.759 C35.692,55.699 35.688,55.627 35.684,55.563 C36.63,47.343 34.114,39.68 33.391,31.616 C35.428,30.34 37.461,29.055 39.458,27.72 C40.181,27.598 40.692,27.197 41,26.667 C42.002,25.967 43.001,25.255 43.968,24.5 C52.371,17.951 60.036,11.849 67.901,4.793 C67.182,19.729 68.512,34.682 68.236,49.611 C68.228,49.613 68.224,49.609 68.22,49.611 C67.724,49.619 67.461,49.978 67.421,50.366 C65.851,52.319 64.761,54.588 65.176,57.188 C65.392,58.542 65.799,59.8 66.37,61.042 C66.645,61.645 67.537,62.74 67.224,63.435 C66.845,64.282 65.83,65.044 65.239,65.764 C64.907,66.171 64.9,66.806 65.41,67.089 C66.653,67.777 70.067,68.076 71.322,67.341 C73.546,66.04 69.804,63.427 70.455,61.909 Z M18.076,39.378 C18.076,39.34 18.076,39.302 18.08,39.266 C18.2,38.328 18.343,37.38 18.539,36.382 C19.526,31.225 21.87,32.827 22.465,35.671 C20.939,36.82 19.473,38.05 18.076,39.378 Z M33.189,27.536 C33.193,26.805 33.138,26.102 33.07,25.411 C33.837,26.07 34.643,26.637 35.522,27.06 C34.763,27.558 33.997,28.047 33.229,28.534 C33.222,28.199 33.189,27.871 33.189,27.536 Z"/>
  </g>
</svg>
