<?xml version="1.0" encoding="UTF-8"?>
<svg width="54px" height="76px" viewBox="0 0 54 76" version="1.1" xmlns="http://www.w3.org/2000/svg" xmlns:xlink="http://www.w3.org/1999/xlink">
    <defs></defs>
    <g id="Page-1" stroke="none" stroke-width="1" fill="none" fill-rule="evenodd">
        <g id="baikal-3.5" transform="translate(-989.000000, -816.000000)" fill-rule="nonzero" fill="#E96625">
            <g id="icons_pojar" transform="translate(989.000000, 816.000000)">
                <g id="Layer_1">
                    <g id="Group">
                        <path d="M28.822,63.538 C25.032,62.212 20.558,61.225 19.851,56.576 C19.835,55.929 19.815,55.278 19.811,54.647 C21.72,56.433 23.861,57.14 26.321,58.162 C27.895,58.817 30.934,60.223 32.229,58.382 C33.787,56.169 30.436,53.972 28.746,53.393 C24.924,52.071 20.146,51.38 19.811,46.335 C19.803,46.219 19.755,46.135 19.727,46.036 L19.727,45.86 C21.473,47.849 23.841,48.819 26.409,49.198 C27.835,49.406 31.782,49.087 30.176,46.527 C27.751,42.664 19.256,43.711 19.811,38.011 C21.401,39.13 23.426,40.073 25.175,39.146 C27.404,37.967 26.557,35.416 24.664,34.501 C23.267,33.826 21.912,33.486 21.161,31.984 C20.039,29.728 19.244,26.956 19.116,24.359 C19.012,22.354 17.973,21.835 17.171,22.234 C16.504,22.298 15.841,22.961 15.729,24.342 C15.517,26.93 15.09,29.99 13.964,32.247 C13.213,33.749 11.862,34.092 10.461,34.759 C8.568,35.677 7.721,38.23 9.95,39.408 C11.7,40.334 13.845,38.669 15.438,37.551 C15.989,43.251 7.374,42.927 4.949,46.789 C3.344,49.345 7.289,49.669 8.716,49.461 C11.288,49.082 13.773,47.388 15.522,45.398 C15.522,45.459 15.522,45.514 15.518,45.574 C15.494,45.674 15.447,45.757 15.438,45.869 C15.103,50.918 10.202,52.327 6.379,53.654 C4.689,54.233 1.338,56.43 2.896,58.642 C4.19,60.479 7.23,59.082 8.804,58.422 C11.263,57.4 13.524,55.974 15.434,54.185 C15.434,54.82 15.414,55.467 15.394,56.114 C14.691,60.763 10.094,62.472 6.304,63.799 C3.859,64.658 1.171,66.155 0.839,68.967 C0.508,71.755 5.377,72.107 6.974,71.172 C9.787,69.534 12.486,67.166 15.011,64.949 C14.863,68.696 14.28,72.155 14.703,75.614 C15.666,75.598 16.628,75.614 17.591,75.642 C18.573,75.634 19.564,75.678 20.551,75.725 C21.01,72.298 20.387,69.219 20.235,65.408 C22.763,67.625 25.339,69.271 28.152,70.912 C29.75,71.839 34.614,71.495 34.287,68.707 C33.955,65.895 31.267,64.397 28.822,63.538 Z" id="Shape"></path>
                        <path d="M53.41,38.327 C53.258,37.7 52.743,37.221 52.104,37.121 C51.469,37.021 50.826,37.317 50.491,37.868 C50.463,37.916 48.474,41.143 44.484,45.11 C51.478,30.543 48.77,16.699 48.63,16.012 C48.49,15.333 47.923,14.826 47.233,14.75 C46.542,14.678 45.883,15.062 45.599,15.697 C45.575,15.757 43.226,20.857 34.711,25.766 C38.046,18.409 38.27,9.886 38.278,9.446 C38.294,8.787 37.899,8.192 37.287,7.937 C36.68,7.685 35.976,7.837 35.522,8.312 C35.49,8.348 32.638,11.268 26.295,13.336 C28.084,7.824 26.59,1.857 26.511,1.557 C26.331,0.85 25.692,0.367 24.965,0.367 L24.949,0.367 C24.214,0.375 23.579,0.89 23.407,1.606 C23.399,1.638 22.576,4.877 17.884,8.4 C17.005,9.059 16.003,9.738 14.944,10.461 C9.484,14.175 2.69,18.793 4.232,26.246 C4.412,27.109 5.254,27.664 6.117,27.484 C6.984,27.304 7.539,26.462 7.359,25.595 C6.249,20.235 11.825,16.449 16.742,13.101 C17.832,12.358 18.863,11.66 19.802,10.956 C21.643,9.574 22.993,8.204 23.975,6.977 C24.019,9.457 23.652,12.498 22.038,14.914 C21.675,15.461 21.683,16.172 22.054,16.707 C22.426,17.246 23.084,17.505 23.723,17.357 C28.891,16.179 32.515,14.357 34.795,12.892 C34.295,17.058 32.942,24.024 29.299,28.657 C28.847,29.236 28.843,30.047 29.295,30.626 C29.747,31.205 30.53,31.404 31.2,31.109 C39.021,27.667 43.506,23.664 45.951,20.796 C46.306,27.243 45.651,40.12 36.752,51.564 C36.269,52.187 36.309,53.069 36.848,53.637 C37.388,54.212 38.265,54.308 38.917,53.861 C44.485,50.043 48.379,45.877 50.684,43.025 C50.732,48.621 49.034,59.237 37.503,69.174 C36.832,69.75 36.756,70.76 37.336,71.427 C37.651,71.795 38.099,71.982 38.546,71.982 C38.914,71.982 39.285,71.85 39.588,71.594 C57.424,56.225 53.582,39.05 53.41,38.327 Z" id="Shape"></path>
                    </g>
                </g>
            </g>
        </g>
    </g>
</svg>