<svg xmlns="http://www.w3.org/2000/svg" width="70" height="70" viewBox="0 0 70 70">
  <g fill="#E5B06D">
    <path d="M35.399 16.412C39.385 15.805 42.464 17.31 44.987 20.25 42.604 21.057 40.32 22.096 38.151 23.414 37.602 23.753 37.336 24.536 37.712 25.103 38.94 26.976 40.176 27.915 41.466 28.267 42.696 26.993 44.066 25.918 45.799 25.359 46.594 25.103 47.457 24.903 48.325 24.7 48.702 24.564 49.078 24.432 49.473 24.284 53.89 22.595 56.565 18.58 61.13 17.681 61.256 17.25 61.308 16.799 61.14 16.356 60.561 14.83 58.927 14.865 57.342 15.277 57.349 14.91 57.36 14.546 57.366 14.167 57.412 11.567 59.437 8.619 60.142 6.075 60.437 5.016 59.267 4.154 58.329 4.68 56.529 5.691 55.024 6.826 53.803 8.518 52.23 10.707 51.495 13.595 48.619 12.529 43.956 10.803 38.787 10.712 34.448 13.327 33.894 13.659 33.782 14.202 33.92 14.681 33.666 15.449 34.3 16.571 35.399 16.412zM29.112 6.45C29.292 6.079 29.129 5.559 28.733 5.399 23.445 3.227 17.629 11.051 14.178 20.469L14.178 20.473C13.553 21.169 12.864 20.409 12.83 19.842 12.832 19.766 12.634 19.351 13.114 18.52 14.893 15.437 17.501 10.668 13.587 7.983 10.316 5.738 7.494 7.903 6.482 11.243 5.757 13.639 6.881 15.912 8.048 17.901 8.343 18.404 8.135 18.94 7.652 19.483 3.996 22.495 4.78 11.72 5.893 8.347 6.813 5.552 9.402 3.179 10.141 1.961 10.151 1.929 10.144 1.901 10.159 1.865 10.565.902 9.931.339 9.147.043 3.827.294.017 6.89.052 17.789.058 19.866.303 21.76.641 23.541 1.326 29.568 1.685 42.928 1.461 46.264 1.213 49.991.85 65.703 1.533 67.413 1.585 69.73 5.331 69.632 5.595 67.142 5.615 66.952 5.633 66.787 5.653 66.603 5.661 66.567 5.673 66.539 5.681 66.503 7.632 57.504 7.756 48.438 8.363 46.18 8.886 44.251 10.535 44.307 10.535 49.076 10.535 52.734 11.809 64.126 12.065 66.37 12.083 66.621 12.091 66.873 12.113 67.129 12.309 69.53 15.752 69.71 16.135 67.676 16.171 67.52 16.195 67.341 16.203 67.129 16.287 63.89 17.193 43.468 17.309 39.489 17.481 33.738 17.279 26.68 18.843 21.276 18.891 21.114 18.909 20.996 18.941 20.857 22.282 10.38 27.892 8.957 29.112 6.45zM35.723 49.08C35.723 49.068 35.727 49.06 35.727 49.049 35.428 49.664 34.982 50.347 34.253 51.086 32.591 52.772 30.043 53.251 28.008 54.277 27.111 54.733 26.925 56.486 28.229 56.53 30.308 56.602 32.315 56.326 34.244 55.535 35.714 54.832 35.97 51.956 35.723 49.08z"/>
    <path d="M68.643,40.101 C67.145,40.149 65.815,40.436 64.429,40.736 C64.66,40.069 64.96,39.434 65.364,38.835 C65.902,37.885 64.784,36.95 63.886,37.249 C60.571,38.34 57.435,37.11 54.336,38.092 C53.981,38.204 53.613,38.612 53.593,38.995 C53.519,40.588 54.404,41.974 55.786,42.841 C56.401,43.264 57.044,43.635 57.715,43.959 C56.974,46.312 56.804,47.071 55.174,47.646 C52.378,48.471 41.546,45.221 37.57,43.56 C35.04,42.114 31.647,39.584 30.986,34.832 C30.347,30.231 28.429,28.553 27.578,28.573 C26.939,28.59 24.02,32.531 25.362,38.028 C26.704,43.525 31.753,46.923 36.833,47.206 C36.925,47.307 37,47.43 37.053,47.582 C37.696,49.475 38.019,52.379 37.249,54.292 C36.874,55.218 36.43,56.313 35.731,57.112 C35.451,57.499 35.235,57.751 35.299,57.695 C33.661,59.748 32.152,60.551 28.928,62.264 C28.245,62.627 27.909,63.602 28.828,63.906 C31.504,64.785 34.328,63.643 36.409,61.925 C38.241,60.103 38.735,58.734 40.263,57.644 C41.761,56.577 43.558,57.691 45.096,57.995 C48.739,58.722 51.902,59.421 54.125,61.881 C55.205,62.792 56.158,63.866 56.922,65.212 C57.995,67.089 58.911,68.803 60.872,69.817 C61.887,70.348 62.684,69.25 62.462,68.343 C61.608,64.812 60.241,62.124 57.985,59.783 C58.023,59.763 57.725,59.444 57.761,59.42 C57.617,59.085 62.63,55.046 62.656,55.019 C66.437,51.141 64.332,45.477 69.443,42.221 C70.501,41.551 69.737,40.069 68.643,40.101 Z"/>
    <path d="M62.921,56.685 C62.607,56.925 62.31,57.185 62.04,57.449 C61.425,58.055 60.674,58.551 60.097,59.174 C60.073,59.198 60.047,59.206 60.023,59.226 C61.329,59.693 62.525,60.368 63.73,61.147 C65.308,62.174 66.733,63.184 68.559,63.703 C69.396,63.943 69.927,62.968 69.724,62.285 C68.958,59.713 64.782,57.943 62.921,56.685 Z"/>
  </g>
</svg>
