<?xml version="1.0" encoding="UTF-8"?><!DOCTYPE svg PUBLIC "-//W3C//DTD SVG 1.1//EN" "http://www.w3.org/Graphics/SVG/1.1/DTD/svg11.dtd"><svg xmlns="http://www.w3.org/2000/svg"><symbol id="fb" viewBox="0 0 49.35 49.34"><circle cx="24.67" cy="24.67" r="24.67" fill="#6282c1"/><path d="M26.85 18.9v-2.34a1.24 1.24 0 0 1 1.29-1.4h3.28v-5H26.9c-5 0-6.15 3.74-6.15 6.13v2.61h-2.9v5.85h2.92v14.61h5.84V24.74H31l.21-2.3.32-3.55z" fill="#fff"/></symbol><symbol id="google" viewBox="0 0 49.34 49.34"><circle cx="24.67" cy="24.67" r="24.67" fill="#e62e34"/><path d="M35.16 24.21h-.53V21.74c0-.11-.12-.31-.19-.31h-1.89v2.77H29.7v.5c0 .51 0 1 .07 1.54l1.5.05h1.3v2.79h2v-2.8h2.8v-2.07zM27.12 24h-6.83c-.1 0-.27.12-.27.18v3.12h4.33c-.06.21-.09.36-.14.51a4.2 4.2 0 0 1-4.88 2.59 4.78 4.78 0 0 1-3.92-5.67 4.59 4.59 0 0 1 .34-1.09 4.77 4.77 0 0 1 5.31-2.69 4.58 4.58 0 0 1 2 1.06l2.37-2.39-.2-.15a7.79 7.79 0 0 0-6.57-1.81A8.1 8.1 0 0 0 12 24.27a8 8 0 0 0 .43 4.29A8.16 8.16 0 0 0 21 33.71a7.28 7.28 0 0 0 4.7-2.21 8.33 8.33 0 0 0 2-7c0-.5-.17-.5-.58-.5z" fill="#fff"/></symbol><symbol id="inst" viewBox="0 0 49.35 49.34"><circle cx="24.67" cy="24.67" r="24.67" fill="#874d2e"/><path d="M33.64 10.06H15.71a5.65 5.65 0 0 0-5.65 5.65v17.93a5.65 5.65 0 0 0 5.65 5.65h17.93a5.66 5.66 0 0 0 5.65-5.65V15.71a5.66 5.66 0 0 0-5.65-5.65zm1.62 3.37h.64v5h-4.93v-5zM20.5 21.67a5.13 5.13 0 0 1 8.34 0 5.26 5.26 0 0 1 1 3 5.14 5.14 0 0 1-10.29 0 5.1 5.1 0 0 1 .66-2.51 5.72 5.72 0 0 1 .29-.49zm15.94 12a2.8 2.8 0 0 1-2.8 2.8H15.71a2.8 2.8 0 0 1-2.8-2.8v-12h4.36a8.06 8.06 0 0 0-.59 3 8 8 0 1 0 15.68-2.17 8.27 8.27 0 0 0-.28-.82h4.36v12z" fill="#fff"/></symbol><symbol id="linkedin" viewBox="0 0 49.34 49.35"><circle cx="24.67" cy="24.67" r="24.67" fill="#2897cf"/><path fill="#fff" d="M10.69 23.72v14.31h6.82V18.55h-6.82v5.17z"/><circle cx="14.1" cy="12.22" r="3.41" fill="#fff"/><path d="M39.77 24.53c-.46-3.67-2.15-6-7.11-6-2.95 0-4.92 1.09-5.73 2.63h-.08v-2.61h-5.44V38h5.68v-9.62c0-2.55.48-5 3.63-5s3.35 2.91 3.35 5.18V38h5.85V27.33a22.57 22.57 0 0 0-.15-2.8z" fill="#fff"/></symbol><symbol id="twitter" viewBox="0 0 49.35 49.34"><circle cx="24.67" cy="24.67" r="24.67" fill="#48bded"/><path d="M39.29 17.14a12.13 12.13 0 0 1-3.44.93 5.94 5.94 0 0 0 2.64-3.27 12.12 12.12 0 0 1-3.81 1.43 6 6 0 0 0-4.38-1.87 5.91 5.91 0 0 0-5.84 7.25 17.11 17.11 0 0 1-12.36-6.15 5.84 5.84 0 0 0 1.9 7.88 6.07 6.07 0 0 1-2.72-.74v.07a5.77 5.77 0 0 0 .41 2.14A6 6 0 0 0 16 28.46a6.19 6.19 0 0 1-1.58.21 6 6 0 0 1-1.13-.11 6 6 0 0 0 5.6 4.1 12.15 12.15 0 0 1-7.45 2.53 12.83 12.83 0 0 1-1.43-.08 17.19 17.19 0 0 0 9.19 2.65 16.69 16.69 0 0 0 16.7-13.23 16.16 16.16 0 0 0 .41-3.53v-.76a12.06 12.06 0 0 0 2.98-3.1z" fill="#fff"/></symbol><symbol id="vimeo" viewBox="0 0 49.35 49.34"><title>vimeo</title><circle cx="24.67" cy="24.67" r="24.67" fill="#08b9d8"/><path d="M40.35 17.94c-1.8 10.17-11.89 18.78-14.92 20.75s-5.8-.79-6.81-2.87C17.47 33.44 14 20.57 13.13 19.5s-3.61 1.07-3.61 1.07l-1.31-1.73s5.5-6.56 9.68-7.38c4.43-.87 4.43 6.81 5.49 11.07S25.1 29 26 29s2.62-2.3 4.51-5.82-.08-6.64-3.77-4.43c1.48-8.84 15.42-10.97 13.61-.81z" fill="#fff"/></symbol><symbol id="vk" viewBox="0 0 49.34 49.34"><circle cx="24.67" cy="24.67" r="24.67" fill="#4d76a4"/><path d="M38.92 18c-.4-.34-1.94-.32-3.47-.32a20 20 0 0 0-3.45.12c-.33.13-1.08 1.93-2 3.79-1.1 2.1-2.46 4.12-3.31 4.1-1.11 0-.86-3.47-.79-6 0-1.68-.23-2.2-.47-2.37a10 10 0 0 0-2.21-.79s-4.83-.37-5.52 1.74c.92.12 2.51-.17 1.89 6.31 0 .31-.74 3-3-.63-.56-.9-2.72-6.29-3.47-6.32-2.51-.07-5-.17-5.84.32s1.08 4.18 4.26 9.15c2.6 4.07 5.35 7.25 10.1 8a11.68 11.68 0 0 0 3.87-.1c.5-.25-.11-3.78 1.58-4.1.76-.15 3.64 3.67 4.73 4.1a11.28 11.28 0 0 0 3.63.32c1.62-.05 3.45.14 3.63-.95.4-2.43-4.89-5.6-5-7.11-.11-1.08 1.93-3.07 3-4.58 1.24-1.82 2.65-4.04 1.84-4.68z" fill="#fff"/></symbol><symbol id="youtube" viewBox="0 0 49.34 49.34"><circle cx="24.67" cy="24.67" r="24.67" fill="#f15c4c"/><path d="M39 18.65a6.76 6.76 0 0 0-1.16-3 4.1 4.1 0 0 0-2.93-1.29C30.81 14 24.68 14 24.68 14s-6.14 0-10.22.31a4.1 4.1 0 0 0-2.93 1.29 6.79 6.79 0 0 0-1.16 3 47.88 47.88 0 0 0-.29 4.93v2.31a48 48 0 0 0 .29 4.94 6.78 6.78 0 0 0 1.16 3 4.82 4.82 0 0 0 3.22 1.3c2.34.23 9.94.31 9.94.31s6.14 0 10.23-.32a4.08 4.08 0 0 0 2.93-1.29 6.75 6.75 0 0 0 1.16-3 47.74 47.74 0 0 0 .29-4.93v-2.27a47.79 47.79 0 0 0-.3-4.93zm-9.44 5.78l-7.9 4.27v-8.57l3.56 1.94z" fill="#fff"/></symbol></svg>