<?xml version="1.0" encoding="utf-8"?>
<!-- Generator: Adobe Illustrator 21.0.2, SVG Export Plug-In . SVG Version: 6.00 Build 0)  -->
<svg version="1.1" id="Слой_1" xmlns="http://www.w3.org/2000/svg" xmlns:xlink="http://www.w3.org/1999/xlink" x="0px" y="0px"
	 viewBox="0 0 55.6 61.7" enable-background="new 0 0 55.6 61.7" xml:space="preserve">
<g id="XMLID_139_" opacity="0.8">
	<g opacity="0.5">
		<path fill="#808D9B" d="M27.8,1c1.2,0,2.4,0.3,3.5,0.9l19.8,11.4c2.2,1.3,3.5,3.6,3.5,6.1v22.8c0,2.5-1.3,4.8-3.5,6.1L31.3,59.8
			c-1.1,0.6-2.3,0.9-3.5,0.9s-2.4-0.3-3.5-0.9L4.5,48.3C2.3,47.1,1,44.8,1,42.3V19.4c0-2.5,1.3-4.8,3.5-6.1L24.3,1.9
			C25.4,1.3,26.6,1,27.8,1 M27.8,0c-1.4,0-2.8,0.4-4,1.1L4,12.5c-2.5,1.4-4,4.1-4,6.9v22.8c0,2.9,1.5,5.5,4,6.9l19.8,11.4
			c1.2,0.7,2.6,1.1,4,1.1c1.4,0,2.8-0.4,4-1.1l19.8-11.4c2.5-1.4,4-4.1,4-6.9V19.4c0-2.9-1.5-5.5-4-6.9L31.8,1.1
			C30.6,0.4,29.2,0,27.8,0L27.8,0z"/>
	</g>
</g>
</svg>
