<?xml version="1.0" encoding="UTF-8"?><!DOCTYPE svg PUBLIC "-//W3C//DTD SVG 1.1//EN" "http://www.w3.org/Graphics/SVG/1.1/DTD/svg11.dtd"><svg xmlns="http://www.w3.org/2000/svg"><symbol id="info" viewBox="0 0 15 15"><path d="M7.5 0a7.5 7.5 0 1 0 0 15 7.5 7.5 0 0 0 0-15zM9.06 11.623c-.386.153-.693.268-.924.348-.23.08-.497.12-.801.12-.467 0-.831-.114-1.09-.342a1.104 1.104 0 0 1-.388-.868c0-.136.01-.276.028-.418.02-.142.051-.302.094-.482l.483-1.707c.042-.164.08-.32.108-.464.03-.146.044-.28.044-.402 0-.217-.045-.37-.135-.455-.09-.086-.262-.128-.516-.128-.125 0-.253.019-.384.058-.13.04-.243.076-.336.111l.127-.525c.317-.13.62-.24.908-.331.29-.093.562-.139.82-.139.464 0 .822.113 1.074.337.25.224.377.515.377.874 0 .074-.009.205-.026.391-.017.188-.05.358-.097.515l-.48 1.702c-.04.136-.075.292-.106.467a2.471 2.471 0 0 0-.047.398c0 .226.05.38.152.462.1.082.276.123.525.123.118 0 .249-.021.398-.062a2.26 2.26 0 0 0 .32-.108l-.128.525zm-.085-6.906a1.147 1.147 0 0 1-.81.312 1.16 1.16 0 0 1-.812-.312.997.997 0 0 1-.339-.758c0-.295.115-.549.339-.759a1.15 1.15 0 0 1 .812-.316c.316 0 .586.105.81.316.224.21.336.464.336.76s-.112.549-.336.757z" fill-rule="nonzero" fill="#999A97"/></symbol><symbol id="man" viewBox="0 0 17 18"><path d="M16.52 15.348c-.68-1.847-3.739-2.771-5.185-3.024-1.344-.234-1.29-1.412-.593-2.184.885-.625 1.407-1.515 1.709-2.543.014-.01.03-.01.043-.023.697-.567 1.112-1.481.636-2.312a.422.422 0 0 0-.27-.211h-.036c.056-1.407-.565-2.58-1.601-3.279C10.735.7 9.857.297 8.659.29c-.607-.005-1.23.13-1.824.238C6.43.603 5.683.503 5.364.82a.973.973 0 0 0-.23.41c-.083.29.442.535.124.494-.475-.063-.846.353-1.033.723a2.861 2.861 0 0 0-.039 2.481l-.02.157a.418.418 0 0 0-.196.176c-.432.756-.126 1.578.458 2.148.346 1.103.995 2.106 1.88 2.791.648.772.667 1.895-.642 2.124C4.22 12.577 1.16 13.5.48 15.348c-.258.696-.356 1.558-.381 2.363h16.8c-.024-.805-.124-1.667-.38-2.363z" fill-rule="nonzero" fill="#000"/></symbol><symbol id="payment-mc" viewBox="0 0 45 28"><g fill="none" fill-rule="evenodd"><path fill="#E15D29" d="M16.492 24.725H28.45V3.236H16.492z"/><path fill="#D3222B" d="M17.251 13.98c0-4.36 2.041-8.242 5.22-10.744A13.608 13.608 0 0 0 14.025.314C6.477.314.36 6.433.36 13.98c0 7.548 6.117 13.667 13.665 13.667 3.188 0 6.12-1.092 8.446-2.922a13.644 13.644 0 0 1-5.22-10.745"/><path fill="#ED972D" d="M44.582 13.98c0 7.548-6.118 13.667-13.665 13.667a13.606 13.606 0 0 1-8.446-2.922 13.644 13.644 0 0 0 5.22-10.745c0-4.36-2.042-8.242-5.22-10.744A13.606 13.606 0 0 1 30.917.314c7.547 0 13.665 6.119 13.665 13.666"/></g></symbol><symbol id="payment-visa" viewBox="0 0 62 20"><g fill="none" fill-rule="evenodd"><path fill="#3C58BF" d="M22.715 19.053l3.146-17.607h4.917L27.73 19.053z"/><path fill="#293688" d="M22.715 19.053l4.031-17.607h4.032L27.73 19.053z"/><path fill="#3C58BF" d="M45.528 1.642c-.983-.392-2.557-.783-4.523-.783-4.917 0-8.457 2.445-8.457 5.967 0 2.64 2.458 4.01 4.425 4.89 1.967.88 2.557 1.468 2.557 2.25 0 1.174-1.574 1.76-2.95 1.76-1.967 0-3.049-.293-4.72-.977l-.689-.294-.688 4.01c1.18.49 3.343.979 5.605.979 5.212 0 8.653-2.445 8.653-6.162 0-2.055-1.278-3.62-4.228-4.891-1.77-.88-2.852-1.37-2.852-2.25 0-.782.885-1.565 2.852-1.565 1.672 0 2.852.293 3.737.685l.491.195.787-3.814z"/><path fill="#293688" d="M45.528 1.642c-.983-.392-2.557-.783-4.523-.783-4.917 0-7.572 2.445-7.572 5.967 0 2.64 1.573 4.01 3.54 4.89 1.967.88 2.557 1.468 2.557 2.25 0 1.174-1.574 1.76-2.95 1.76-1.967 0-3.049-.293-4.72-.977l-.689-.294-.688 4.01c1.18.49 3.343.979 5.605.979 5.212 0 8.653-2.445 8.653-6.162 0-2.055-1.278-3.62-4.228-4.891-1.77-.88-2.852-1.37-2.852-2.25 0-.782.885-1.565 2.852-1.565 1.672 0 2.852.293 3.737.685l.491.195.787-3.814z"/><path fill="#3C58BF" d="M53.984 1.446c-1.18 0-2.064.098-2.556 1.272l-7.375 16.335h5.31l.983-2.935h6.293l.59 2.935h4.72L57.82 1.446h-3.835zm-2.261 11.738C52.018 12.304 53.69 8 53.69 8s.393-1.076.688-1.761l.295 1.663s.983 4.401 1.18 5.38h-4.13v-.098z"/><path fill="#293688" d="M55.164 1.446c-1.18 0-2.064.098-2.556 1.272l-8.555 16.335h5.31l.983-2.935h6.293l.59 2.935h4.72L57.82 1.446h-2.655zm-3.441 11.738C52.116 12.206 53.69 8 53.69 8s.393-1.076.688-1.761l.295 1.663s.983 4.401 1.18 5.38h-4.13v-.098z"/><path fill="#3C58BF" d="M13.668 13.77l-.491-2.543C12.292 8.293 9.44 5.065 6.293 3.5l4.425 15.65h5.31l7.965-17.606h-5.31L13.668 13.77z"/><path fill="#293688" d="M13.668 13.77l-.491-2.543C12.292 8.293 9.44 5.065 6.293 3.5l4.425 15.65h5.31l7.965-17.606h-4.327L13.668 13.77z"/><path fill="#FFBC00" d="M0 1.446l.885.196c6.293 1.467 10.62 5.184 12.292 9.585l-1.77-8.314c-.295-1.174-1.18-1.467-2.262-1.467H0z"/><path fill="#F7981D" d="M0 1.446c6.293 1.467 11.505 5.282 13.177 9.684l-1.672-6.945c-.295-1.174-1.278-1.859-2.36-1.859L0 1.446z"/><path fill="#ED7C00" d="M0 1.446c6.293 1.467 11.505 5.282 13.177 9.684l-1.18-3.815c-.295-1.174-.689-2.348-2.065-2.837L0 1.446z"/><path fill="#051244" d="M18.585 13.184l-3.343-3.326-1.574 3.717-.393-2.445c-.885-2.935-3.737-6.163-6.883-7.728l4.425 15.65h5.31l2.458-5.868zM27.73 19.053l-4.229-4.304-.786 4.304zM39.038 12.988c.393.391.59.685.492 1.076 0 1.174-1.574 1.76-2.95 1.76-1.967 0-3.049-.293-4.72-.977l-.689-.294-.688 4.01c1.18.49 3.343.979 5.605.979 3.147 0 5.703-.88 7.178-2.446l-4.228-4.108zm5.703 6.065h4.622l.983-2.935h6.293l.59 2.935h4.72l-1.671-7.14-5.9-5.674.295 1.565s.983 4.402 1.18 5.38h-4.13C52.116 12.206 53.69 8 53.69 8s.393-1.076.688-1.761"/></g></symbol><symbol id="pencil" viewBox="0 0 14 14"><path fill="#008EA9" d="M8.236 2.877a.92.92 0 0 0-1.302 0l-.325.326L2.05 7.766v.001l-.143.144s-.458.461-1.492 3.8a43.035 43.035 0 0 0-.128.418l-.043.142-.1.336c-.074.252-.256.82-.05 1.026.197.198.772.024 1.023-.05l.333-.1.148-.045.156-.048.192-.059.056-.017c3.176-.99 3.746-1.454 3.794-1.496a.269.269 0 0 1 .004-.004l.147-.147.01.01 4.557-4.563.326-.326a.923.923 0 0 0 0-1.303L8.236 2.877zm-2.96 8.348a.606.606 0 0 1-.038.024l-.013.008c-.151.09-.596.325-1.676.716a32.37 32.37 0 0 1-.408.144L1.606 10.58c.05-.145.098-.284.144-.41.39-1.085.624-1.532.714-1.683l.007-.01a1.86 1.86 0 0 1 .025-.04l.112-.113 2.783 2.786-.115.115zm8.17-8.348L10.84.27a.92.92 0 0 0-1.302 0l-.652.652a.922.922 0 0 0 0 1.303l2.605 2.608a.92.92 0 0 0 1.302 0l.651-.652a.923.923 0 0 0 0-1.304z"/></symbol><symbol id="woman" viewBox="0 0 17 18"><path d="M16.52 15.392c-.68-1.817-3.739-2.726-5.184-2.975-.61-.104-.93-.4-1.035-.763 1.713 0 3.43-.35 4.793-1.287.128-.088.154-.148.154-.281-.02-.114-.075-.173-.154-.247-2.03-1.966-.97-4.75-1.676-7.092-.426-1.407-1.745-1.729-3.115-1.68C9.039-.53 6.275.422 4.988 1.594c-.935.854-1.227 2.102-1.381 3.225-.27 1.978-.406 3.576-1.796 5.247-.085.103-.07.2-.007.276a.28.28 0 0 0 .121.103c1.501.674 3.012 1.08 4.713 1.071.038 0 .063-.015.094-.025-.05.435-.368.807-1.066.927-1.446.248-4.505 1.157-5.186 2.975-.256.684-.354 1.532-.38 2.324h16.8c-.024-.793-.124-1.64-.38-2.325z" fill-rule="nonzero" fill="#000"/></symbol></svg>