<svg xmlns="http://www.w3.org/2000/svg" viewBox="0 0 84 56"><title>card</title><g id="Слой_2" data-name="Слой 2"><g id="checkout_1000px_5" data-name="checkout 1000px 5"><rect x="1" y="1" width="82" height="54" rx="5" ry="5" fill="#00ab8a"/><path d="M78,2a4,4,0,0,1,4,4V50a4,4,0,0,1-4,4H6a4,4,0,0,1-4-4V6A4,4,0,0,1,6,2H78m0-2H6A6,6,0,0,0,0,6V50a6,6,0,0,0,6,6H78a6,6,0,0,0,6-6V6a6,6,0,0,0-6-6Z" fill="#4f5a67"/><path d="M10.83,40v4h-2V40h2m0-2h-2a2,2,0,0,0-2,2v4a2,2,0,0,0,2,2h2a2,2,0,0,0,2-2V40a2,2,0,0,0-2-2Z" fill="#fff"/><path d="M18.42,40v4h-2V40h2m0-2h-2a2,2,0,0,0-2,2v4a2,2,0,0,0,2,2h2a2,2,0,0,0,2-2V40a2,2,0,0,0-2-2Z" fill="#fff"/><path d="M29.29,40v4h-2V40h2m0-2h-2a2,2,0,0,0-2,2v4a2,2,0,0,0,2,2h2a2,2,0,0,0,2-2V40a2,2,0,0,0-2-2Z" fill="#fff"/><path d="M36.88,40v4h-2V40h2m0-2h-2a2,2,0,0,0-2,2v4a2,2,0,0,0,2,2h2a2,2,0,0,0,2-2V40a2,2,0,0,0-2-2Z" fill="#fff"/><path d="M49.25,40v4h-2V40h2m0-2h-2a2,2,0,0,0-2,2v4a2,2,0,0,0,2,2h2a2,2,0,0,0,2-2V40a2,2,0,0,0-2-2Z" fill="#fff"/><path d="M56.83,40v4h-2V40h2m0-2h-2a2,2,0,0,0-2,2v4a2,2,0,0,0,2,2h2a2,2,0,0,0,2-2V40a2,2,0,0,0-2-2Z" fill="#fff"/><path d="M67.71,40v4h-2V40h2m0-2h-2a2,2,0,0,0-2,2v4a2,2,0,0,0,2,2h2a2,2,0,0,0,2-2V40a2,2,0,0,0-2-2Z" fill="#fff"/><path d="M75.29,40v4h-2V40h2m0-2h-2a2,2,0,0,0-2,2v4a2,2,0,0,0,2,2h2a2,2,0,0,0,2-2V40a2,2,0,0,0-2-2Z" fill="#fff"/><circle cx="57" cy="16" r="8" fill="#ff6262"/><circle cx="68" cy="16" r="8" fill="#fff"/><circle cx="68" cy="16" r="8" fill="#fff400" opacity="0.6"/><line x1="8" y1="12" x2="21.37" y2="12" fill="none" stroke="#4f5a67" stroke-linecap="round" stroke-linejoin="round" stroke-width="3"/><line x1="8" y1="18" x2="9.5" y2="18" fill="none" stroke="#4f5a67" stroke-linecap="round" stroke-linejoin="round" stroke-width="2"/><line x1="13.19" y1="18" x2="37.16" y2="18" fill="none" stroke="#4f5a67" stroke-linecap="round" stroke-linejoin="round" stroke-width="2" stroke-dasharray="2.77 3.69"/><line x1="39" y1="18" x2="40.5" y2="18" fill="none" stroke="#4f5a67" stroke-linecap="round" stroke-linejoin="round" stroke-width="2"/><line x1="26.63" y1="12" x2="40" y2="12" fill="none" stroke="#4f5a67" stroke-linecap="round" stroke-linejoin="round" stroke-width="3"/></g></g></svg>