<svg xmlns="http://www.w3.org/2000/svg" viewBox="0 0 85 65"><title>cash</title><g id="Слой_2" data-name="Слой 2"><g id="checkout_1000px_5" data-name="checkout 1000px 5"><rect x="16" y="11" width="65" height="53" rx="5" ry="5" fill="#998675"/><path d="M76,12a4,4,0,0,1,4,4V59a4,4,0,0,1-4,4H21a4,4,0,0,1-4-4V16a4,4,0,0,1,4-4H76m0-2H21a6,6,0,0,0-6,6V59a6,6,0,0,0,6,6H76a6,6,0,0,0,6-6V16a6,6,0,0,0-6-6Z" fill="#4f5a67"/><path d="M15,16V56a32.48,32.48,0,0,0,7.85,1C38.95,57,52,45.36,52,31c0-8.63-4.72-16.27-12-21H21.73C18,10,15,12.69,15,16Z" fill="#736357" opacity="0.6"/><g opacity="0.5"><path d="M65.85,15.19h-4a1.5,1.5,0,1,0,0,3h4a1.5,1.5,0,0,0,0-3Zm-10,0h-4a1.5,1.5,0,1,0,0,3h4a1.5,1.5,0,0,0,0-3Zm-10,0h-4a1.5,1.5,0,1,0,0,3h4a1.5,1.5,0,0,0,0-3Zm-10,0h-4a1.5,1.5,0,0,0,0,3h4a1.5,1.5,0,0,0,0-3Zm-10,0h-4a1.5,1.5,0,0,0,0,3h4a1.5,1.5,0,0,0,0-3Zm-4.19,3.24a1.5,1.5,0,0,0-1.5,1.5v4a1.5,1.5,0,0,0,3,0v-4a1.5,1.5,0,0,0-1.5-1.5Zm0,10a1.5,1.5,0,0,0-1.5,1.5v4a1.5,1.5,0,0,0,3,0v-4a1.5,1.5,0,0,0-1.5-1.5Zm0,10a1.5,1.5,0,0,0-1.5,1.5v4a1.5,1.5,0,0,0,3,0v-4a1.5,1.5,0,0,0-1.5-1.5Zm0,10a1.5,1.5,0,0,0-1.5,1.5v4a1.5,1.5,0,0,0,3,0v-4a1.5,1.5,0,0,0-1.5-1.5ZM20.9,59.78h0Zm0,0h0Zm0,0h0Zm0,0h0Zm0,0h0Zm0,0h0Zm0,0h0Zm0,0h0Zm0,0h0Zm0,0h0Zm0,0h0Zm0,0h0Zm0,0h0Zm0,0h0Zm0,0h0Zm0,0h0Zm0,0h0Zm0,0h0Zm0,0h0Zm0,0h0Zm0,0h0Zm0,0h0Zm0,0h0Zm0,0h0Zm0,0h0Zm0,0h0Zm0,0h0Zm0,0h0Zm0,0h0Zm0,0h0Zm0,0h0Zm0,0h0Zm0,0h0Zm0,0h0Zm0,0h0Zm0,0h0Zm0,0h0Zm0,0h0Zm0,0h0Zm0,0h0Zm0,0h0Zm0,0h0Zm0,0h0Zm0,0h0Zm0,0h0Zm0,0h0Zm0,0h0Zm0,0h0Zm0,0h0Zm0,0h0Zm0,0h0Zm0,0h0Zm0,0h0Zm0,0h0Zm0,0h0Zm0,0h0Zm3.55-3H21.15v3H24.7a1.5,1.5,0,0,0,0-3Zm10,0h-4a1.5,1.5,0,1,0,0,3h4a1.5,1.5,0,0,0,0-3Zm10,0h-4a1.5,1.5,0,0,0,0,3h4a1.5,1.5,0,0,0,0-3Zm10,0h-4a1.5,1.5,0,0,0,0,3h4a1.5,1.5,0,0,0,0-3Zm10,0h-4a1.5,1.5,0,0,0,0,3h4a1.5,1.5,0,0,0,0-3ZM75.35,50a1.5,1.5,0,0,0-1.5,1.5v4a1.5,1.5,0,0,0,.72,1.28H70.7a1.5,1.5,0,0,0,0,3h4A1.5,1.5,0,0,0,75.47,57a1.5,1.5,0,0,0,1.38-1.49v-4a1.5,1.5,0,0,0-1.5-1.5Zm0-10a1.5,1.5,0,0,0-1.5,1.5v4a1.5,1.5,0,0,0,3,0v-4a1.5,1.5,0,0,0-1.5-1.5Zm0-10a1.5,1.5,0,0,0-1.5,1.5v4a1.5,1.5,0,0,0,3,0v-4a1.5,1.5,0,0,0-1.5-1.5Zm0-10a1.5,1.5,0,0,0-1.5,1.5v4a1.5,1.5,0,0,0,3,0v-4a1.5,1.5,0,0,0-1.5-1.5Zm.5-4.84h-4a1.5,1.5,0,1,0,0,3h4a1.49,1.49,0,0,0,1-.38V16.19a1,1,0,0,0-1-1Z" fill="#4f5a67"/></g><path d="M26,51A25,25,0,1,1,51,26,25,25,0,0,1,26,51Z" fill="#fff"/><path d="M26,51A25,25,0,1,1,51,26,25,25,0,0,1,26,51Z" fill="#fff400" opacity="0.2"/><path d="M26,2A24,24,0,1,1,2,26,24,24,0,0,1,26,2m0-2A26,26,0,1,0,52,26,26,26,0,0,0,26,0Z" fill="#4f5a67"/><path d="M26,50.21A24.21,24.21,0,0,1,26,1.79Z" fill="#fbb03b" opacity="0.2"/><path d="M20.73,26.83V16.9h8.11c3.11,0,5.62,2.22,5.62,5h0c0,2.74-2.52,5-5.62,5H17.66" fill="none" stroke="#4f5a67" stroke-linecap="round" stroke-linejoin="round" stroke-width="3"/><line x1="20.73" y1="26.83" x2="20.73" y2="35.1" fill="none" stroke="#4f5a67" stroke-linecap="round" stroke-linejoin="round" stroke-width="3"/><line x1="30.6" y1="31.77" x2="17.53" y2="31.77" fill="none" stroke="#4f5a67" stroke-linecap="round" stroke-linejoin="round" stroke-width="3"/><rect x="63" y="30.5" width="21" height="16" rx="3" ry="3" fill="#998675" stroke="#4f5a67" stroke-linecap="round" stroke-linejoin="round" stroke-width="2"/><circle cx="70" cy="38" r="3" fill="#fff"/><circle cx="70" cy="38" r="3" fill="#fff400" opacity="0.2"/></g></g></svg>