<svg xmlns="http://www.w3.org/2000/svg" viewBox="0 0 24.6 30"><title>Ресурс 5</title><g id="Слой_2" data-name="Слой 2"><g id="checkout_1000px_5" data-name="checkout 1000px 5"><polyline points="18.39 11 10.38 19 6.21 14.84" fill="none"  stroke-linecap="round" stroke-linejoin="round" stroke-width="2"/><path d="M23.55,6.52A43.32,43.32,0,0,1,12.3,1,43.32,43.32,0,0,1,1,6.52c-.1,3.21,0,6.91,0,10.56A9.36,9.36,0,0,0,5,25a40,40,0,0,0,7.31,4,40,40,0,0,0,7.31-4,9.36,9.36,0,0,0,3.94-8C23.55,13.43,23.65,9.73,23.55,6.52Z" fill="none" stroke-linecap="round" stroke-linejoin="round" stroke-width="2"/></g></g></svg>
