<svg xmlns="http://www.w3.org/2000/svg" viewBox="0 0 20.73 20.73"><title>sale</title><g id="Слой_2" data-name="Слой 2"><g id="checkout_1000px_5-2" data-name="checkout 1000px 5-2"><path d="M8.15,0,1.81.7A1.24,1.24,0,0,0,.7,1.81L0,8.15A3.17,3.17,0,0,0,1,10.71L3.85,13.6l6.51,6.51a1.92,1.92,0,0,0,2.71.11l3.58-3.58,3.58-3.58a1.92,1.92,0,0,0-.11-2.71L13.6,3.85,10.71,1A3.17,3.17,0,0,0,8.15,0ZM6.72,6.72a2.16,2.16,0,1,1,0-3.05A2.16,2.16,0,0,1,6.72,6.72Z" fill="#00ab8a" fill-opacity="0.85" opacity="0.3"/></g></g></svg>