<svg xmlns="http://www.w3.org/2000/svg" viewBox="0 0 60 52.88"><title>Ресурс 7</title><g id="Слой_2" data-name="Слой 2"><g id="checkout_1000px_5" data-name="checkout 1000px 5"><path d="M18.22,52.88H41.78a7,7,0,0,0,6.06-3.5L59.06,29.94a7,7,0,0,0,0-7L47.84,3.5A7,7,0,0,0,41.78,0H18.22a7,7,0,0,0-6.06,3.5L.94,22.94a7,7,0,0,0,0,7L12.16,49.38A7,7,0,0,0,18.22,52.88Z" fill="#808d9b" fill-opacity="0.2" stroke="none" stroke-miterlimit="10" stroke-opacity="0.5" stroke-width="2"/><path d="M25.52,14.12,37.84,26.44,25.52,38.76" fill="none" stroke="#808d9b" stroke-linecap="round" stroke-linejoin="round" stroke-width="3" opacity="0.8"/></g></g></svg>
