<svg xmlns="http://www.w3.org/2000/svg" viewBox="0 0 59.69 52.61"><title>Ресурс 2</title><g id="Слой_2" data-name="Слой 2"><g id="checkout_1000px_5" data-name="checkout 1000px 5"><path d="M41.54,0H18.15a7,7,0,0,0-6.06,3.5L.94,22.81a7,7,0,0,0,0,7L12.08,49.11a7,7,0,0,0,6.06,3.5h23.4a7,7,0,0,0,6.06-3.5L58.75,29.81a7,7,0,0,0,0-7L47.61,3.5A7,7,0,0,0,41.54,0Z" fill="#808d9b" fill-opacity="0.2" stroke="none" stroke-miterlimit="10" stroke-opacity="0.2" stroke-width="2"/><path d="M34.09,38.57,21.83,26.31,34.09,14" fill="none" stroke="#808d9b" stroke-linecap="round" stroke-linejoin="round" stroke-width="3" opacity="0.8"/></g></g></svg>
