<svg xmlns="http://www.w3.org/2000/svg" xmlns:xlink="http://www.w3.org/1999/xlink" viewBox="0 0 60 60"><defs><filter id="luminosity-noclip" x="0" y="-10352" width="60" height="32766" filterUnits="userSpaceOnUse" color-interpolation-filters="sRGB"><feFlood flood-color="#fff" result="bg"/><feBlend in="SourceGraphic" in2="bg"/></filter><mask id="mask" x="0" y="-10352" width="60" height="32766" maskUnits="userSpaceOnUse"><g filter="url(#luminosity-noclip)"/></mask></defs><title>Ресурс 1</title><g id="Слой_2" data-name="Слой 2"><g id="checkout_1000px_3b" data-name="checkout 1000px 3b"><g mask="url(#mask)"><circle cx="30" cy="30" r="30" fill="#4d75a3"/><g opacity="0.2"><path d="M30,1A29,29,0,1,1,1,30,29,29,0,0,1,30,1m0-1A30,30,0,1,0,60,30,30,30,0,0,0,30,0Z"/></g></g><path d="M34.52,28.78v-.06A4.63,4.63,0,0,0,37.67,24c0-3.21-2.63-5-5.49-5H22.33V40.76h9c5.5,0,7.66-3.43,7.66-6.6C39,30.74,37.13,29.32,34.52,28.78Zm-7.11-5.91h1.14a6.48,6.48,0,0,1,2.83.32,2.28,2.28,0,0,1,1,2,2.51,2.51,0,0,1-.89,2,4.15,4.15,0,0,1-2.61.51H27.41Zm5.21,13.39a5,5,0,0,1-2.8.48H27.41V31.33H30a5.1,5.1,0,0,1,2.49.41A2.75,2.75,0,0,1,33.72,34,2.81,2.81,0,0,1,32.62,36.26Z" fill="#fff"/></g></g></svg>