<svg xmlns="http://www.w3.org/2000/svg" viewBox="0 0 76 85.53"><g><path  d="M0,24.88V60.64a7,7,0,0,0,3.5,6.06l31,17.88a7,7,0,0,0,7,0l31-17.88A7,7,0,0,0,76,60.64V24.88a7,7,0,0,0-3.5-6.06L41.5.94a7,7,0,0,0-7,0L3.5,18.82A7,7,0,0,0,0,24.88Z" fill="#fff"/></g></svg>


<svg height="0" width="0">
    <defs>
        <clipPath id="autoimgPath">
            <path  d="M0,24.88V60.64a7,7,0,0,0,3.5,6.06l31,17.88a7,7,0,0,0,7,0l31-17.88A7,7,0,0,0,76,60.64V24.88a7,7,0,0,0-3.5-6.06L41.5.94a7,7,0,0,0-7,0L3.5,18.82A7,7,0,0,0,0,24.88Z" fill="#fff"/>
        </clipPath>
    </defs>
</svg>
