<svg xmlns="http://www.w3.org/2000/svg" viewBox="0 0 97 117"><title>doc</title><g id="Слой_2" data-name="Слой 2"><g id="checkout_1000px_1-2" data-name="checkout 1000px 1-2"><rect x="3.53" y="1" width="92.47" height="115" rx="1" ry="1" fill="#f2f2f2"/><path d="M95,2V115H4.53V2H95m0-2H4.53a2,2,0,0,0-2,2V115a2,2,0,0,0,2,2H95a2,2,0,0,0,2-2V2a2,2,0,0,0-2-2Z" fill="#808d9b"/><path d="M0,8H48a4,4,0,0,1,4,4V27.5a4,4,0,0,1-4,4H0a0,0,0,0,1,0,0V8A0,0,0,0,1,0,8Z" fill="#4f5a67"/><text transform="translate(9.9 24.5)" font-size="15" fill="#fff" font-family="Roboto-Black, Roboto" letter-spacing="0.05em">DOC</text><line x1="17.5" y1="69" x2="79.5" y2="69" fill="none" stroke="#808d9b" stroke-linecap="round" stroke-linejoin="round" stroke-width="4"/><line x1="17.5" y1="56" x2="79.5" y2="56" fill="none" stroke="#808d9b" stroke-linecap="round" stroke-linejoin="round" stroke-width="4"/><line x1="17.5" y1="82" x2="63.28" y2="82" fill="none" stroke="#808d9b" stroke-linecap="round" stroke-linejoin="round" stroke-width="4"/><line x1="17.5" y1="43" x2="79.5" y2="43" fill="none" stroke="#808d9b" stroke-linecap="round" stroke-linejoin="round" stroke-width="4"/></g></g></svg>