<svg xmlns="http://www.w3.org/2000/svg" viewBox="0 0 100 112.3"><title>Ресурс 1</title><g id="Слой_2" data-name="Слой 2"><g id="checkout_1000px_1" data-name="checkout 1000px 1"><path id="_Контур_" data-name="&lt;Контур&gt;" d="M0,33.08V79.22a10,10,0,0,0,5,8.66L45,111a10,10,0,0,0,10,0L95,87.88a10,10,0,0,0,5-8.66V33.08a10,10,0,0,0-5-8.66L55,1.34a10,10,0,0,0-10,0L5,24.42A10,10,0,0,0,0,33.08Z" fill="#808d9b" fill-opacity="0.3"/><path d="M85.63,53.28C80.23,51.51,70,49.18,70,49.18c-4.49-3.48-8.09-6.57-11.23-7.92-1.35-.58-5.33-1.83-12.84-2.13-8.88-.35-13.12.05-16.6,2.19-2.4,1.47-5.32,3.22-8.8,5.65a4.31,4.31,0,0,1-2,.82c-1.61.27-2.48.23-4,.37-3.15.3-4.62,1.55-5.24,5.77a54,54,0,0,0-.57,6.24c-.21,4.14.43,5.47,1.89,6.23a16.4,16.4,0,0,0,5.66,1.22,8.27,8.27,0,0,0,15.68,0H66.15a8.18,8.18,0,0,0,15.48,0h4c3.6,0,4-1.8,4.49-3.6s1.12-5.39,1.12-5.39S92.15,55.42,85.63,53.28Z" fill="#4f5a67" opacity="0.2"/><path d="M41.39,33c-4.82,1.83-5.15,5.15-4.48,7.72C38.13,45.44,45,58,53.69,69.75" fill="none" stroke="#4f5a67" stroke-linecap="round" stroke-miterlimit="10" stroke-width="3"/><path d="M66.89,33c4.82,1.83,5.15,5.15,4.48,7.72-1.22,4.69-8.14,17.26-16.78,29" fill="none" stroke="#4f5a67" stroke-linecap="round" stroke-miterlimit="10" stroke-width="3"/><circle cx="44.94" cy="32.22" r="4.4" fill="#00ab8a"/><circle cx="63" cy="32.22" r="4.4" fill="#00ab8a"/><path d="M36.65,72.42v3.3a8.76,8.76,0,1,0,17.51,0V69.63" fill="none" stroke="#4f5a67" stroke-linecap="round" stroke-miterlimit="10" stroke-width="3"/><circle cx="36.65" cy="66.33" r="4.6" fill="none" stroke="#00ab8a" stroke-linecap="round" stroke-miterlimit="10" stroke-width="3"/></g></g></svg>