<svg xmlns="http://www.w3.org/2000/svg" viewBox="0 0 24 24"><title>Ресурс 8</title><g data-name="Слой 2"><g data-name="checkout 1000px 2-2"><circle cx="12" cy="12" r="12" fill="#4f5a67" opacity=".5"/><path d="M9.16 6.78h7.51A2.24 2.24 0 0 1 18.92 9v1.5a2.24 2.24 0 0 1-2.24 2.24H9.16v-6 .04zM6.81 7.7h2.3v4.12h-2.3a1.55 1.55 0 0 1-1.55-1.55v-1A1.55 1.55 0 0 1 6.81 7.7zM16.75 19.06h-1.61a1 1 0 0 1-.93-.77l-1-5.36h3.55l1 5a1 1 0 0 1-1.01 1.13z" fill="none" stroke="#fff" stroke-linecap="round" stroke-linejoin="round"/><path fill="none" stroke="#fff" stroke-linecap="round" stroke-linejoin="round" d="M11.93 16.18l-.62-3.44h2.09M5.26 9.76H2.39"/></g></g></svg>