<svg xmlns="http://www.w3.org/2000/svg" width="90" height="101.2" viewBox="0 0 90 101.2"><path d="M4.5 79.2l36 20.8c2.8 1.6 6.2 1.6 9 0l36-20.8c2.8-1.6 4.5-4.6 4.5-7.8V29.8c0-3.2-1.7-6.2-4.5-7.8l-36-20.8c-2.8-1.6-6.2-1.6-9 0L4.5 22C1.7 23.6 0 26.6 0 29.8v41.6c0 3.2 1.7 6.2 4.5 7.8z" opacity=".15" fill="#08ab8a"/><path d="M83.6 49.9c-1.1-1.9-3.1-3.7-6.9-4.9-4-1.3-10.6-2.9-13-3.5-.5-.4-.9-.7-1.3-1-3.2-2.5-5.9-4.6-8.6-5.8-1.3-.6-5.1-1.9-12.6-2.2-1.7-.1-3.2-.1-4.4-.1-4.8 0-8.8.4-12.4 2.6l-.6.4c-2 1.2-4.4 2.7-7.2 4.7-.7.1-1.2.1-1.8.2-.4 0-.8.1-1.3.1-3.9.4-7.4 2.7-8.3 5.8" fill="none" stroke="#08ab8a" stroke-width="3" stroke-linecap="round" stroke-miterlimit="10"/><path d="M73.9 50.2c-4.5-1.5-13.1-3.4-13.1-3.4-3.8-2.9-6.8-5.5-9.4-6.6-1.1-.5-4.5-1.5-10.8-1.8-7.4-.3-11 0-13.9 1.8-2 1.2-4.5 2.7-7.4 4.7-.6.4-1 .6-1.7.7-1.3.2-2.1.2-3.3.3-2.6.3-3.9 1.3-4.4 4.8-.3 1.9-.3 2.8-.5 5.2-.2 3.5.4 4.6 1.6 5.2 1.6.8 4.4 1 5.1 1-.2-.6-.4-1.3-.4-2-.1-3.6 2.7-6.7 6.4-6.8 3.6-.1 6.7 2.7 6.8 6.4 0 .9-.1 1.7-.4 2.4h29.3c-.2-.6-.4-1.3-.4-2-.1-3.6 2.7-6.7 6.4-6.8 3.6-.1 6.7 2.7 6.8 6.4 0 .9-.1 1.7-.4 2.4h3.6c3 0 3.4-1.5 3.8-3 .4-1.5.9-4.5.9-4.5s.8-2.6-4.6-4.4z" fill="none" stroke="#08ab8a" stroke-width="3" stroke-linecap="round" stroke-miterlimit="10"/><circle cx="22.4" cy="60.1" r="6.6" fill="none" stroke="#08ab8a" stroke-width="3" stroke-linecap="round" stroke-miterlimit="10"/><circle cx="64" cy="60.1" r="6.6" fill="none" stroke="#08ab8a" stroke-width="3" stroke-linecap="round" stroke-miterlimit="10"/><path d="M69.1 22c.1.5.3.9.6 1.4s.5.9.7 1.3c.3.4.5.8.8 1.1s.5.8.8 1.1c.2.4.5.7.7 1.1.2.4.4.8.5 1.2.1.4.2.9.2 1.3 0 .6-.1 1.1-.4 1.6-.3.5-.6.9-1 1.2-.4.3-.9.6-1.3.8-.5.2-1 .3-1.5.3-.7 0-1.4-.2-2-.5-.6-.3-1.1-.7-1.6-1.3-.4-.6-.6-1.3-.6-2 0-.6.1-1.2.3-1.8.2-.6.5-1.1.9-1.7s.7-1 1.1-1.5.7-1.1 1.1-1.7c.2-.7.5-1.3.7-1.9zm-.8 10.4" fill="none" stroke="#08ab8a" stroke-width="3" stroke-linecap="round" stroke-miterlimit="10"/><path fill="#08ab8a" d="M45 74.5l1.8 3.7 4.1.6-2.9 2.9.7 4-3.7-1.9-3.7 1.9.7-4-2.9-2.9 4.1-.6z"/></svg>