<svg xmlns="http://www.w3.org/2000/svg" width="90" height="101.2" viewBox="0 0 90 101.2"><path d="M64.4 16.4c.1.5.3.9.6 1.4s.5.9.7 1.3c.3.4.5.8.8 1.1.3.4.5.8.8 1.1.2.4.5.7.7 1.1.2.4.4.8.5 1.2s.2.9.2 1.3c0 .6-.1 1.1-.4 1.6-.3.5-.6.9-1 1.2-.4.3-.9.6-1.3.8-.5.2-1 .3-1.5.3-.7 0-1.4-.2-2-.5-.6-.3-1.1-.7-1.6-1.3-.4-.6-.6-1.3-.6-2 0-.6.1-1.2.3-1.8.2-.6.5-1.1.9-1.7.3-.5.7-1 1.1-1.5.4-.5.7-1.1 1.1-1.7s.5-1.3.7-1.9zm-.7 10.5" fill="#c4e6de" stroke="#08ab8a" stroke-width="3" stroke-miterlimit="10"/><path d="M13.4 47.7c1.2-1.5 3.3-4.1 3.3-4.1l.2-.3c4-4.8 8-8.8 15.7-9.4h.3s.8 0 2.1-.1v-.2l6.8-.1h11.4v.3c1.3 0 2.2.1 2.2.1h.3c7.7.6 11.6 4.6 15.7 9.4l.3.4s2.1 2.5 3.3 4c.1 0-1.3-1.4-1.2-1.5" fill="none" stroke="#08ab8a" stroke-width="3" stroke-linecap="round" stroke-linejoin="round" stroke-miterlimit="10" stroke-dasharray="4,7"/><path d="M79.3 69.2c-.2-4.8-.9-6.8-3.4-9.3.6 0 1.4-.1 2.4-.1 3.4-.1 2.6-2.5 2.4-3.5-.1-1.1 0-3-3.5-2.8s-1.9.1-3.5.2c-1.4.1-2.5.3-3.1.8-2.7-3.1-4.8-5.9-4.8-5.9-3.6-4.2-6.1-6.6-11-6.9 0 0-4.6-.2-8.5-.3v-.1h-4.6v.1c-3.9.1-8.5.3-8.5.3-4.9.4-7.4 2.7-11 6.9 0 0-2.2 2.9-4.8 5.9-.5-.5-1.4-.7-2.7-.8-1.6-.1 0 0-3.5-.2S8 55.2 7.9 56.3c-.1 1-.9 3.4 2.4 3.5.8 0 1.6.1 2.1.1-2.4 2.5-3.2 4.5-3.4 9.3" fill="none" stroke="#08ab8a" stroke-width="3" stroke-linecap="round" stroke-linejoin="round" stroke-miterlimit="10"/><path d="M17.6 54.4c2.7 1.7 7.6 1.4 7.6 1.4h20.5" fill="none" stroke="#08ab8a" stroke-width="3" stroke-linecap="round" stroke-linejoin="round" stroke-miterlimit="10"/><path d="M70.2 54.4c-2.7 1.7-7.6 1.4-7.6 1.4H42.1" fill="none" stroke="#08ab8a" stroke-width="3" stroke-linecap="round" stroke-linejoin="round" stroke-miterlimit="10"/><path d="M4.5 79.2l36 20.8c2.8 1.6 6.2 1.6 9 0l36-20.8c2.8-1.6 4.5-4.6 4.5-7.8V29.8c0-3.2-1.7-6.2-4.5-7.8l-36-20.8c-2.8-1.6-6.2-1.6-9 0L4.5 22C1.7 23.6 0 26.6 0 29.8v41.6c0 3.2 1.7 6.2 4.5 7.8z" opacity=".15" fill="#08ab8a"/><path d="M28 71.8H16.9c-1.2 0-2.2-1-2.2-2.2V67c0-1.2 1-2.2 2.2-2.2h9.8c1.7 0 2.7 1.1 3.1 2.2.3.8.5 1.3.5 1.3.7 2.1-.3 3.5-2.3 3.5zm32.5 0h11.1c1.2 0 2.2-1 2.2-2.2V67c0-1.2-1-2.2-2.2-2.2h-9.8c-1.7 0-2.7 1.1-3.1 2.2-.3.8-.5 1.3-.5 1.3-.7 2.1.3 3.5 2.3 3.5z" fill="none" stroke="#08ab8a" stroke-width="3" stroke-miterlimit="10"/><path fill="none" stroke="#08ab8a" stroke-width="3" stroke-linecap="round" stroke-linejoin="round" stroke-miterlimit="10" d="M54.4 64.7H34"/></svg>