<svg xmlns="http://www.w3.org/2000/svg" viewBox="0 0 29.54 22.84"><title>blockquote-left</title><g id="Слой_2" data-name="Слой 2"><g id="Контент"><path d="M28.88,17.46a5.4,5.4,0,0,1-5.66,5.38,6,6,0,0,1-3-.71,6.3,6.3,0,0,1-2-1.75A6.76,6.76,0,0,1,17.13,18a11.16,11.16,0,0,1-.33-2.6,15,15,0,0,1,.85-5,18.51,18.51,0,0,1,2.22-4.39A19,19,0,0,1,23,2.41,15.12,15.12,0,0,1,26.71,0l2.83,3.68a14.92,14.92,0,0,0-3.49,3.54A9.41,9.41,0,0,0,24.54,12a4.2,4.2,0,0,1,3.4,1.6A6.9,6.9,0,0,1,28.88,17.46Zm-16.8,0a5.4,5.4,0,0,1-5.66,5.38,6,6,0,0,1-3-.71,6.3,6.3,0,0,1-2-1.75A6.75,6.75,0,0,1,.33,18,11.16,11.16,0,0,1,0,15.39a15.06,15.06,0,0,1,.85-5A18.59,18.59,0,0,1,3.07,5.95,19,19,0,0,1,6.23,2.41,15.07,15.07,0,0,1,9.91,0l2.83,3.68A15,15,0,0,0,9.25,7.22,9.42,9.42,0,0,0,7.74,12a4.21,4.21,0,0,1,3.4,1.6A6.92,6.92,0,0,1,12.08,17.46Z" fill="#fff"/></g></g></svg>