<svg xmlns="http://www.w3.org/2000/svg" viewBox="0 0 29.23 29.46"><title>date</title><g fill="#fff" data-name="Ğ¡Ğ»Ğ¾Ğ¹ 2"><path d="M29.23 29.46H1.75v-1.38H0V1.74h4.47A2 2 0 0 1 5 .5 1.52 1.52 0 0 1 6.14 0q1.48 0 1.65 1.74h3.93A2 2 0 0 1 12.26.5a1.52 1.52 0 0 1 1.12-.5Q14.87 0 15 1.74h4.11A2 2 0 0 1 19.69.5a1.51 1.51 0 0 1 1.13-.5q1.48 0 1.65 1.74h5v1.38h1.75zm-2.59-2.07v-25h-5.8a.84.84 0 0 0 .39.6c.21.14.32.26.32.38 0 .34-.24.51-.73.51a1.6 1.6 0 0 1-1.65-1.5h-5.76a.83.83 0 0 0 .39.6q.32.21.32.38c0 .34-.24.51-.73.51a1.6 1.6 0 0 1-1.65-1.5H6.16a.83.83 0 0 0 .39.6c.22.14.32.26.32.38 0 .34-.24.51-.73.51a1.6 1.6 0 0 1-1.65-1.5H.84v25zm1.75 1.38V3.8h-.92v24.28H2.59v.69z"/><path d="M9.51 9.16a5 5 0 0 1 1.23.15 3.09 3.09 0 0 1 1.08.51 2.6 2.6 0 0 1 .77.91 2.92 2.92 0 0 1 .29 1.36 2.83 2.83 0 0 1-.39 1.47 2.28 2.28 0 0 1-1.11 1 2.31 2.31 0 0 1 1.15 1 3 3 0 0 1 .41 1.44 3.49 3.49 0 0 1-.31 1.51 3.13 3.13 0 0 1-.8 1.06 3.3 3.3 0 0 1-1.13.63 4.26 4.26 0 0 1-1.32.21 5.24 5.24 0 0 1-1.84-.31 4.42 4.42 0 0 1-1.41-.81l.19-.29.27-.39.27-.39.19-.22a3.92 3.92 0 0 0 1.06.61 3.2 3.2 0 0 0 1.17.24 2.07 2.07 0 0 0 1.41-.44 1.56 1.56 0 0 0 .51-1.25 1.8 1.8 0 0 0-.46-1.27 1.53 1.53 0 0 0-1.18-.5H8.28v-1.5h1.28a1.61 1.61 0 0 0 .57-.11 1.47 1.47 0 0 0 .51-.31 1.56 1.56 0 0 0 .36-.53 1.79 1.79 0 0 0 .14-.72 1.37 1.37 0 0 0-.15-.68 1.32 1.32 0 0 0-.39-.45 1.58 1.58 0 0 0-.55-.24 2.78 2.78 0 0 0-.63-.07 3.33 3.33 0 0 0-1.21.22 3.48 3.48 0 0 0-1.06.63L7 11.37 6.68 11l-.27-.39-.19-.28a4.38 4.38 0 0 1 1.43-.81 5.45 5.45 0 0 1 1.86-.36zM17.82 20.33v-8.9l-1.32 1.09-.93-1.24.51-.44.67-.58.67-.57.58-.43h1.58v11.07z"/></g></svg>