<svg xmlns="http://www.w3.org/2000/svg" viewBox="0 0 1199.08 211.04"><title>header-bg</title><g fill="#0f3c47" data-name="Ğ¡Ğ»Ğ¾Ğ¹ 2"><path d="M428.13 208.77l2.27 2.27M432.18 208.77l2.27 2.27M534.24 207.95l-3.09 3.09M477.72 187.45l5.07-4.63 12.68.49s23.46-40.6 42-64.62l29.31 4.85s-27.55 42.22-35.92 68.16l10.58-8.22 17.05 4.19 4.32-3.08s7.05 2.42 8.38 2.42 6.39-8.15 6.39-8.15v-16.53s1.91 3.36 2 4.87c0 0 0-.39-1-1.32l-.39-.25v13l4.06 4.07s3.43-.73 3.43 0v-3.28h10.09v2.16s2.11-.25 2.35 0l1.76 1.76h6.86v-1.42h3.92v-1h20.52v-3.58h.82v4.7h13.32s-21.94-46.21-36.48-63.4l26.22 2.65 47.38 63.91v-26.66h1v26.94h18.32v-24.59h.49v24.88h18.44V211H474.84zM620.69 211.04l43.89-61.96M620.99 206.77l4.45 4.27M625.54 207.31l3.82 3.73M629.71 163.58l3.65 3.63M634.1 157.39l3.3 3.25M638.45 151.24l2.95 2.94M642.69 145.25l3.11 3.12M647.12 139l2.73 2.73M651.6 132.67l2.36 2.35M655.98 126.48l2.53 2.52M766.17 149.34l45.36 61.7M805.71 208.89l-2.15 2.15M801.1 164.32l-2.09 2.09M796.51 158.02l-3.16 3.17M792.24 152.21l-2.81 2.81M787.59 145.9l-2.59 2.6M783.24 139.98l-3.44 3.44M778.87 134.02l-2.93 2.93M774.38 127.92l-2.5 2.5M769.98 121.94l-3.09 3.09M660.23 211s13.89-31.21 16.63-34.95M658.05 211s5-12.24 8.13-17.44M777 211s-14.1-28.9-18.41-35.95M779.8 211s-9-16.82-13.64-25.64"/><path d="M714.51 183.7l2.15-3.52h4.9l-.39-3.99h.65v-2.61h-.98l1.5-1.5v-2.48h-2.48l2.75-2.75v-3.13l.84 3.2 1.73 1.73 1.02 1.01h-2.16v2.09l1.4 1.41h-1.72v2.71h1.56l-.85 4.04h6.53V182h18.74l.82.82h3.56v1.8h7.64l3.72 1.37 1.96-2.42 9.73.52 1.44-1.43h3.53l1.37 1.17v-3.07h.85v-21.09l-3.01-4.7 3.85-3.85 4.25 4.24-3.92 3.92v21.48h1.44v1.7h4.83l3.07 3.07h13.06v-5.75h8.88v31.26H713.45l1.06-27.34z"/><path d="M774.98 154.51h20.57v.13h-20.57z"/><path d="M793.39 149.55h.39v6.47h-.39zM777.33 150.14h.33v6.14h-.33zM785.26 142.95h.43v11.69h-.43zM789.34 150.46h.26v4.5h-.26zM782.94 138.51l.92 4.44h3l1.24-4.44-2.41-4.18-2.75 4.18zM774.91 145.69l.92 4.45h3l1.24-4.45-2.42-4.17-2.74 4.17z"/><path d="M787.02 146.68l.92 4.44h3l1.24-4.44-2.41-4.18-2.75 4.18z"/><path d="M791.2 145.69l.92 4.45h3l1.24-4.45-2.41-4.17-2.75 4.17zM481 183.7l-2.15-3.52h-4.9l.39-3.99h-.65v-2.61h.98l-1.5-1.5v-2.48h2.48l-2.75-2.75v-3.13l-.84 3.2-1.74 1.73-1.01 1.01h2.16v2.09l-1.41 1.41h1.73v2.71h-1.56l.85 4.04h-6.53V182H445.8l-.81.82h-3.56v1.8h-7.64l-3.72 1.37-1.96-2.42-9.73.52-1.44-1.43h-3.53l-1.37 1.17v-3.07h-.85v-21.09l3.01-4.7-3.85-3.85-4.25 4.24 3.92 3.92v21.48h-1.44v1.7h-4.83l-3.07 3.07h-13.06v-5.75h-8.88v31.26h103.32L481 183.7z"/><path d="M399.96 154.51h20.57v.13h-20.57z"/><path d="M401.72 149.55h.39v6.47h-.39zM417.86 150.14h.33v6.14h-.33zM409.82 142.95h.43v11.69h-.43zM405.9 150.46h.26v4.5h-.26zM412.56 138.51l-.91 4.44h-3l-1.24-4.44 2.41-4.18 2.74 4.18zM420.6 145.69l-.92 4.45h-3l-1.24-4.45 2.42-4.17 2.74 4.17z"/><path d="M408.48 146.68l-.91 4.44h-3l-1.24-4.44 2.41-4.18 2.74 4.18z"/><path d="M404.31 145.69l-.92 4.45h-3l-1.24-4.45 2.41-4.17 2.75 4.17zM811.53 210.4v-21.9l4.24-3.67s4.66-3.81 5.65-7.21-.14-7.11-4.95-8.64c0 0-.57-4.59-3.39-7.37 0 0-2-7.16 7.35-7.44s20.77-2.4 26.84-.57 6.92 2.12 6.92 2.12a8.27 8.27 0 0 1 5.44-4c4-.92 4-3.67 4-3.67s-9.82-9.32-5.72-11.23a14.44 14.44 0 0 1-12.79-4.45c-5.79-6-10.67-2-11-2s-3 5.37.14 8l.63 2.33s-7.56-2.19-5.72-7.49a4.07 4.07 0 0 0 2.83-4.17 12.54 12.54 0 0 1 6.15-2.26l.92-.35.35-4.59 1.62-1.91 1.91-4.73 1.7-3.11s.63-2-1.7-1.06a15.14 15.14 0 0 0-2.9 1.34s-3.81-.35-2.4-2.33a5.76 5.76 0 0 1 2.68-2.33s3.82-4.1 5.79-4.17l-.57-2 1.84 1.48s6.5.28 7.27 5.65l-.46 1.33.78 1.13-.85.21-.42 2.54.56 2.83.85-.21.14-1.34-2.75.64.07-1.63 3.11-1.06s1.41-7.06 5.23-8.27l.92-1.55s-3-5.16 1.13-6c0 0 4.87.21 1.06 6.43l-.35 1s3.6 1 4.38 16.53l3.81 3.46V126l-3-.28.56 1.48s3 1.7 3.6 3.6 6.43-2.47 8.26 7.28 3.46 13.77 7.06 16.39c0 0-2.4 3.32-4.45 4.45 0 0-6.78-11.87-6.36-16.67s-1.84-8.55-3.53-8.76c0 0-1 7.13-8 8.9l3.81 3s.28.64-.56 1.55c0 0-4.1 3.89-4.87 5.51a4.87 4.87 0 0 1-3.25 2.75c-.92.07-1.2 1.48-1 1.48s18.58 4.8 20.49 6.57 1.69 1.2 2.33-.71 6.92-6.07 8.62-6.29 5.79-4.31 5.79-4.31l4.31.21h5.09l1.5-1.5 1.73 1.92.3 5 2.72.88 1.52 2.9 1.73 15.84V211zM381.42 211v-28.63h-2.93v-7h-7.4v3.52h-1.21v-2.55h-3.28v5.94l-3.21 3.21h-2.85v-8.67H357v3.88h-3.52s-2.55 1.21-1.88 1.88-5.4 0-5.4 0v-3.94h-3l-4.3 4.31h-7.22V185h-5.94v1.33h-4l-4.49-4.49h-4V185h-4.85v2.18h-3l-4.12-4.12v-3.27h-1.33s-1.58-14.79-16.37-15.4v-3.52h-2.18v1.21h-1.7v-7.64h.61v-2.3h1.21V151h-1.82v-4.12s-1.66-4.08-4.41-4.32v-4.61s-.16-4.77-1.21-5.25l-.65-12.29V133s-2.59.81-2.42 2.83 0 8.17 0 8.17a6.92 6.92 0 0 0-4.29 6.06h-1.94v2h1.94v9.62h-3.56v3.48s-15.6-.08-16 15.92h-10.3v-1.78h-1.06v1.78h-4.2v-3h-.73v1h-1.7v1.13h-4.45v-1.78h-1.37v2.26H221v-3.15a7.16 7.16 0 0 0-7.2-4.61v-1.54h-1.37v1.94s-8.41.16-8.57 5.66v2.18h-1.36v.83h-.89v.89h-3.72v-2.18H196v-2.75h-3.2v-2.35a13.11 13.11 0 0 0-2.18 0c-.12.12 0-1.29 0-1.29h-3v4.45h-1.94v1.78h-1s.4-1.46 0-1.46h-1.18V178h-.89v-6.79H182v-1.61h-.73v-.89h-.81v-.89h-8.57v1h-1v1.05h-.73v2h-2.1v.41h1.54v4.44h-7.84v-25.39h1.86V151h-1.37v-1.29h-1.05V148h-1.78v-.81h-1.86v-1.13h-2.1V135.4l-3.68-3.68v-12l-.77 11.8-3.6 3.6v11.52h-1.58v1.13h-1.53v1h-1.62v.81H141l-.61.61h1.74v27h-14.24v-2.91h-3.31v2.83H91.91v-48.58h-1.29s-2-12.37-7-12.53v-12.73s-.48-8-3.07-9v-15.7h-1.09s.49-15.93 0-15.93h-.89L77.52 8.89l2.18-7.36L78 2.91 77.52 0l-1.7 3.8 1.62 1.62L77 8.73l-1.78 85s-4.28 1.93-4 9.58 0 13.14 0 13.14-7.52 2.51-7 13.66 0 14.87 0 14.87H61.6v21.58H59v19.89s-5.33-1.05-5.33 0v3.07h-6.3v-2h-3.64v4.37h-2.34v-3.07h-6.22v3h-2.1V194h-.57v1.62h-4.2v.89h-1.62v2h-6.55v-3.31s1.78.16 1.78 0 .81-1.86 0-1.86h-3v-2.43h-8.64l-2 2H0V211z"/><path d="M1196.15 182.37v-7h-7.4v3.52h-1.21v-2.55h-3.27v5.94l-3.21 3.21h-2.85v-8.67h-3.52v3.88h-3.52s-2.55 1.21-1.88 1.88-5.4 0-5.4 0v-3.94h-3l-4.3 4.31h-7.22V185h-5.94v1.33h-4l-4.49-4.49h-4V185h-4.85v2.18h-3l-4.12-4.12v-3.27h-1.33s-1.58-14.79-16.37-15.4v-3.52H1099v1.21h-1.7v-7.64h.6v-2.3h1.21V151h-1.82v-4.12s-1.66-4.08-4.41-4.32v-4.61s-.16-4.77-1.21-5.25l-.65-12.29V133s-2.59.81-2.42 2.83 0 8.17 0 8.17a6.92 6.92 0 0 0-4.29 6.06h-1.94v2h1.94v9.62h-3.56v3.48s-15.6-.08-16 15.92h-10.27v-1.78h-1v1.78h-4.2v-3h-.73v1h-1.7v1.13h-4.45v-1.78h-1.4v2.26h-2.34v-3.15a7.16 7.16 0 0 0-7.2-4.61v-1.54h-1.37v1.94s-8.41.16-8.57 5.66v2.18h-1.37v.83h-.89v.89h-3.72v-2.18h-1.86v-2.75h-3.23v-2.35a13.11 13.11 0 0 0-2.18 0c-.12.12 0-1.29 0-1.29h-3v4.45h-1.94v1.78h-1s.4-1.46 0-1.46h-1.21V178h-.89v-6.79h-.57v-1.61H999v-.89h-.81v-.89h-8.57v1h-1v1.05h-.73v2h-2.1v.41h1.54v4.44h-7.84v-25.39h1.86V151H980v-1.29h-1.05V148h-1.78v-.81h-1.87v-1.13h-2.1V135.4l-3.68-3.68v-12l-.77 11.8-3.6 3.6v11.52h-1.58v1.13H962v1h-1.62v.81h-1.7l-.61.61h1.74v27h-14.25v-2.91h-3.32v2.83h-26V211h282.84v-28.63z"/></g></svg>