<svg xmlns="http://www.w3.org/2000/svg" viewBox="0 0 1199.08 211.04"><title>header-bg</title><g id="Слой_2" data-name="Слой 2"><g id="Фон"><line x1="428.13" y1="208.77" x2="430.4" y2="211.04" fill="#0f3c47"/><line x1="432.18" y1="208.77" x2="434.45" y2="211.04" fill="#0f3c47"/><line x1="534.24" y1="207.95" x2="531.15" y2="211.04" fill="#0f3c47"/><path d="M477.72,187.45l5.07-4.63,12.68.49s23.46-40.6,42-64.62l29.31,4.85s-27.55,42.22-35.92,68.16l10.58-8.22,17.05,4.19,4.32-3.08s7.05,2.42,8.38,2.42,6.39-8.15,6.39-8.15V162.33s1.91,3.36,2,4.87c0,0,0-.39-1-1.32l-.39-.25v13l4.06,4.07s3.43-.73,3.43,0v-3.28h10.09v2.16s2.11-.25,2.35,0l1.76,1.76h6.86v-1.42h3.92v-1h20.52v-3.58H632v4.7h13.32s-21.94-46.21-36.48-63.4l26.22,2.65,47.38,63.91V158.54h1v26.94h18.32V160.89h.49v24.88h18.44V211H474.84Z" fill="#0f3c47"/><line x1="620.69" y1="211.04" x2="664.58" y2="149.08" fill="#0f3c47"/><line x1="620.99" y1="206.77" x2="625.44" y2="211.04" fill="#0f3c47"/><line x1="625.54" y1="207.31" x2="629.36" y2="211.04" fill="#0f3c47"/><line x1="629.71" y1="163.58" x2="633.36" y2="167.21" fill="#0f3c47"/><line x1="634.1" y1="157.39" x2="637.4" y2="160.64" fill="#0f3c47"/><line x1="638.45" y1="151.24" x2="641.4" y2="154.18" fill="#0f3c47"/><line x1="642.69" y1="145.25" x2="645.8" y2="148.37" fill="#0f3c47"/><line x1="647.12" y1="139" x2="649.85" y2="141.73" fill="#0f3c47"/><line x1="651.6" y1="132.67" x2="653.96" y2="135.02" fill="#0f3c47"/><line x1="655.98" y1="126.48" x2="658.51" y2="129" fill="#0f3c47"/><line x1="766.17" y1="149.34" x2="811.53" y2="211.04" fill="#0f3c47"/><path d="M805.92,211" fill="#0f3c47"/><path d="M803.46,211" fill="#0f3c47"/><path d="M799.23,166.19" fill="#0f3c47"/><path d="M801.1,164.32" fill="#0f3c47"/><line x1="805.71" y1="208.89" x2="803.56" y2="211.04" fill="#0f3c47"/><line x1="801.1" y1="164.32" x2="799.01" y2="166.41" fill="#0f3c47"/><line x1="796.51" y1="158.02" x2="793.35" y2="161.19" fill="#0f3c47"/><line x1="792.24" y1="152.21" x2="789.43" y2="155.02" fill="#0f3c47"/><line x1="787.59" y1="145.9" x2="785" y2="148.5" fill="#0f3c47"/><line x1="783.24" y1="139.98" x2="779.8" y2="143.42" fill="#0f3c47"/><line x1="778.87" y1="134.02" x2="775.94" y2="136.95" fill="#0f3c47"/><line x1="774.38" y1="127.92" x2="771.88" y2="130.42" fill="#0f3c47"/><line x1="769.98" y1="121.94" x2="766.89" y2="125.03" fill="#0f3c47"/><path d="M660.23,211s13.89-31.21,16.63-34.95" fill="#0f3c47"/><path d="M658.05,211s5-12.24,8.13-17.44" fill="#0f3c47"/><path d="M777,211s-14.1-28.9-18.41-35.95" fill="#0f3c47"/><path d="M779.8,211s-9-16.82-13.64-25.64" fill="#0f3c47"/><polygon points="714.51 183.7 716.66 180.18 721.56 180.18 721.17 176.19 721.82 176.19 721.82 173.58 720.84 173.58 722.34 172.08 722.34 169.6 719.86 169.6 722.61 166.85 722.61 163.72 723.45 166.92 725.18 168.65 726.2 169.66 724.04 169.66 724.04 171.75 725.44 173.16 723.72 173.16 723.72 175.87 725.28 175.87 724.43 179.91 730.96 179.91 730.96 182 749.7 182 750.52 182.82 754.08 182.82 754.08 184.62 761.72 184.62 765.44 185.99 767.4 183.57 777.13 184.09 778.57 182.66 782.1 182.66 783.47 183.83 783.47 180.76 784.32 180.76 784.32 159.67 781.31 154.97 785.16 151.12 789.41 155.36 785.49 159.28 785.49 180.76 786.93 180.76 786.93 182.46 791.76 182.46 794.83 185.53 807.89 185.53 807.89 179.78 816.77 179.78 816.77 211.04 713.45 211.04 714.51 183.7" fill="#0f3c47"/><rect x="774.98" y="154.51" width="20.57" height="0.13" fill="#0f3c47"/><rect x="793.39" y="149.55" width="0.39" height="6.47" fill="#0f3c47"/><rect x="777.33" y="150.14" width="0.33" height="6.14" fill="#0f3c47"/><rect x="785.26" y="142.95" width="0.43" height="11.69" fill="#0f3c47"/><rect x="789.34" y="150.46" width="0.26" height="4.5" fill="#0f3c47"/><polygon points="782.94 138.51 783.86 142.95 786.86 142.95 788.1 138.51 785.69 134.33 782.94 138.51" fill="#0f3c47"/><polygon points="774.91 145.69 775.83 150.14 778.83 150.14 780.07 145.69 777.65 141.52 774.91 145.69" fill="#0f3c47"/><polygon points="787.02 146.68 787.94 151.12 790.94 151.12 792.18 146.68 789.77 142.5 787.02 146.68" fill="#0f3c47"/><polygon points="791.2 145.69 792.12 150.14 795.12 150.14 796.36 145.69 793.95 141.52 791.2 145.69" fill="#0f3c47"/><polygon points="481 183.7 478.85 180.18 473.95 180.18 474.34 176.19 473.69 176.19 473.69 173.58 474.67 173.58 473.17 172.08 473.17 169.6 475.65 169.6 472.9 166.85 472.9 163.72 472.06 166.92 470.32 168.65 469.31 169.66 471.47 169.66 471.47 171.75 470.06 173.16 471.79 173.16 471.79 175.87 470.23 175.87 471.08 179.91 464.55 179.91 464.55 182 445.8 182 444.99 182.82 441.43 182.82 441.43 184.62 433.79 184.62 430.07 185.99 428.11 183.57 418.38 184.09 416.94 182.66 413.41 182.66 412.04 183.83 412.04 180.76 411.19 180.76 411.19 159.67 414.2 154.97 410.35 151.12 406.1 155.36 410.02 159.28 410.02 180.76 408.58 180.76 408.58 182.46 403.75 182.46 400.68 185.53 387.62 185.53 387.62 179.78 378.74 179.78 378.74 211.04 482.06 211.04 481 183.7" fill="#0f3c47"/><rect x="399.96" y="154.51" width="20.57" height="0.13" fill="#0f3c47"/><rect x="401.72" y="149.55" width="0.39" height="6.47" fill="#0f3c47"/><rect x="417.86" y="150.14" width="0.33" height="6.14" fill="#0f3c47"/><rect x="409.82" y="142.95" width="0.43" height="11.69" fill="#0f3c47"/><rect x="405.9" y="150.46" width="0.26" height="4.5" fill="#0f3c47"/><polygon points="412.56 138.51 411.65 142.95 408.65 142.95 407.41 138.51 409.82 134.33 412.56 138.51" fill="#0f3c47"/><polygon points="420.6 145.69 419.68 150.14 416.68 150.14 415.44 145.69 417.86 141.52 420.6 145.69" fill="#0f3c47"/><polygon points="408.48 146.68 407.57 151.12 404.57 151.12 403.33 146.68 405.74 142.5 408.48 146.68" fill="#0f3c47"/><polygon points="404.31 145.69 403.39 150.14 400.39 150.14 399.15 145.69 401.56 141.52 404.31 145.69" fill="#0f3c47"/><path d="M811.53,210.4V188.5l4.24-3.67s4.66-3.81,5.65-7.21-.14-7.11-4.95-8.64c0,0-.57-4.59-3.39-7.37,0,0-2-7.16,7.35-7.44s20.77-2.4,26.84-.57,6.92,2.12,6.92,2.12a8.27,8.27,0,0,1,5.44-4c4-.92,4-3.67,4-3.67s-9.82-9.32-5.72-11.23a14.44,14.44,0,0,1-12.79-4.45c-5.79-6-10.67-2-11-2s-3,5.37.14,8l.63,2.33s-7.56-2.19-5.72-7.49a4.07,4.07,0,0,0,2.83-4.17,12.54,12.54,0,0,1,6.15-2.26l.92-.35.35-4.59,1.62-1.91,1.91-4.73,1.7-3.11s.63-2-1.7-1.06a15.14,15.14,0,0,0-2.9,1.34s-3.81-.35-2.4-2.33a5.76,5.76,0,0,1,2.68-2.33s3.82-4.1,5.79-4.17l-.57-2,1.84,1.48s6.5.28,7.27,5.65L854.2,110l.78,1.13-.85.21-.42,2.54.56,2.83.85-.21.14-1.34-2.75.64.07-1.63,3.11-1.06s1.41-7.06,5.23-8.27l.92-1.55s-3-5.16,1.13-6c0,0,4.87.21,1.06,6.43l-.35,1s3.6,1,4.38,16.53l3.81,3.46V126l-3-.28.56,1.48s3,1.7,3.6,3.6,6.43-2.47,8.26,7.28,3.46,13.77,7.06,16.39c0,0-2.4,3.32-4.45,4.45,0,0-6.78-11.87-6.36-16.67s-1.84-8.55-3.53-8.76c0,0-1,7.13-8,8.9l3.81,3s.28.64-.56,1.55c0,0-4.1,3.89-4.87,5.51a4.87,4.87,0,0,1-3.25,2.75c-.92.07-1.2,1.48-1,1.48s18.58,4.8,20.49,6.57,1.69,1.2,2.33-.71,6.92-6.07,8.62-6.29,5.79-4.31,5.79-4.31l4.31.21h5.09l1.5-1.5,1.73,1.92.3,5,2.72.88,1.52,2.9,1.73,15.84V211Z" fill="#0f3c47"/><path d="M381.42,211V182.37h-2.93v-7h-7.4v3.52h-1.21v-2.55H366.6v5.94l-3.21,3.21h-2.85v-8.67H357v3.88h-3.52s-2.55,1.21-1.88,1.88-5.4,0-5.4,0v-3.94h-3l-4.3,4.31h-7.22V185h-5.94v1.33h-4l-4.49-4.49h-4V185H308.4v2.18h-3l-4.12-4.12v-3.27h-1.33s-1.58-14.79-16.37-15.4v-3.52h-2.18v1.21h-1.7v-7.64h.61v-2.3h1.21V151h-1.82v-4.12s-1.66-4.08-4.41-4.32v-4.61s-.16-4.77-1.21-5.25l-.65-12.29V133s-2.59.81-2.42,2.83,0,8.17,0,8.17a6.92,6.92,0,0,0-4.29,6.06h-1.94v2h1.94v9.62h-3.56v3.48s-15.6-.08-16,15.92H236.86V179.3H235.8v1.78h-4.2v-3h-.73v1h-1.7v1.13h-4.45v-1.78h-1.37v2.26H221v-3.15a7.16,7.16,0,0,0-7.2-4.61v-1.54h-1.37v1.94s-8.41.16-8.57,5.66v2.18H202.5V182h-.89v.89h-3.72v-2.18H196v-2.75H192.8v-2.35a13.11,13.11,0,0,0-2.18,0c-.12.12,0-1.29,0-1.29h-3v4.45h-1.94v1.78h-1s.4-1.46,0-1.46H183.5V178h-.89v-6.79H182V169.6h-.73v-.89h-.81v-.89h-8.57v1h-1v1.05h-.73v2h-2.1v.41h1.54v4.44h-7.84V151.33h1.86V151h-1.37v-1.29h-1.05V148h-1.78v-.81h-1.86v-1.13h-2.1V135.4l-3.68-3.68v-12l-.77,11.8-3.6,3.6v11.52h-1.58v1.13H144.3v1h-1.62v.81H141l-.61.61h1.74v27H127.89v-2.91h-3.31v2.83H91.91V128.53H90.62s-2-12.37-7-12.53V103.27s-.48-8-3.07-9V78.57H79.46s.49-15.93,0-15.93h-.89L77.52,8.89l2.18-7.36L78,2.91,77.52,0l-1.7,3.8,1.62,1.62L77,8.73l-1.78,85s-4.28,1.93-4,9.58,0,13.14,0,13.14-7.52,2.51-7,13.66,0,14.87,0,14.87H61.6v21.58H59v19.89s-5.33-1.05-5.33,0v3.07H47.37v-2H43.73v4.37H41.39v-3.07H35.17v3h-2.1v2.18H32.5v1.62h-4.2v.89H26.68v2H20.13v-3.31s1.78.16,1.78,0,.81-1.86,0-1.86h-3v-2.43H10.27l-2,2H0V211Z" fill="#0f3c47"/><path d="M1196.15,182.37v-7h-7.4v3.52h-1.21v-2.55h-3.27v5.94l-3.21,3.21h-2.85v-8.67h-3.52v3.88h-3.52s-2.55,1.21-1.88,1.88-5.4,0-5.4,0v-3.94h-3l-4.3,4.31h-7.22V185h-5.94v1.33h-4l-4.49-4.49h-4V185h-4.85v2.18h-3l-4.12-4.12v-3.27h-1.33s-1.58-14.79-16.37-15.4v-3.52H1099v1.21h-1.7v-7.64h.6v-2.3h1.21V151h-1.82v-4.12s-1.66-4.08-4.41-4.32v-4.61s-.16-4.77-1.21-5.25l-.65-12.29V133s-2.59.81-2.42,2.83,0,8.17,0,8.17a6.92,6.92,0,0,0-4.29,6.06h-1.94v2h1.94v9.62h-3.56v3.48s-15.6-.08-16,15.92h-10.27V179.3h-1v1.78h-4.2v-3h-.73v1h-1.7v1.13h-4.45v-1.78H1041v2.26h-2.34v-3.15a7.16,7.16,0,0,0-7.2-4.61v-1.54h-1.37v1.94s-8.41.16-8.57,5.66v2.18h-1.37V182h-.89v.89h-3.72v-2.18h-1.86v-2.75h-3.23v-2.35a13.11,13.11,0,0,0-2.18,0c-.12.12,0-1.29,0-1.29h-3v4.45h-1.94v1.78h-1s.4-1.46,0-1.46h-1.21V178h-.89v-6.79h-.57V169.6H999v-.89h-.81v-.89h-8.57v1h-1v1.05h-.73v2h-2.1v.41h1.54v4.44h-7.84V151.33h1.86V151H980v-1.29h-1.05V148h-1.78v-.81H975.3v-1.13h-2.1V135.4l-3.68-3.68v-12l-.77,11.8-3.6,3.6v11.52h-1.58v1.13H962v1h-1.62v.81h-1.7l-.61.61h1.74v27H945.56v-2.91h-3.32v2.83h-26V211h282.84V182.37Z" fill="#0f3c47"/></g></g></svg>