<?xml version="1.0" encoding="utf-8"?>
<!-- Generator: Adobe Illustrator 21.0.2, SVG Export Plug-In . SVG Version: 6.00 Build 0)  -->
<svg version="1.1" id="Слой_1" xmlns="http://www.w3.org/2000/svg" xmlns:xlink="http://www.w3.org/1999/xlink" x="0px" y="0px"
	 viewBox="0 0 133.6 150" enable-background="new 0 0 133.6 150" xml:space="preserve">
<g>
	<path id="XMLID_88_" fill="#00AB8A" fill-opacity="0.3" d="M0,44.2v61.6c0,4.8,2.5,9.2,6.7,11.6l53.4,30.8c4.1,2.4,9.2,2.4,13.3,0
		l53.4-30.8c4.1-2.4,6.7-6.8,6.7-11.6V44.2c0-4.8-2.5-9.2-6.7-11.6L73.5,1.8c-4.1-2.4-9.2-2.4-13.3,0L6.7,32.6C2.5,35,0,39.4,0,44.2
		z"/>
	<g>
		<path fill="#00AB8A" d="M83.6,66.7H47.8c-1,0-1.8-0.8-1.8-1.8c0-1,0.8-1.8,1.8-1.8h35.8c1,0,1.8,0.8,1.8,1.8
			C85.4,65.9,84.6,66.7,83.6,66.7z"/>
		<path fill="#00AB8A" d="M83.9,75.5H48.1c-1,0-1.8-0.8-1.8-1.8s0.8-1.8,1.8-1.8h35.8c1,0,1.8,0.8,1.8,1.8S84.9,75.5,83.9,75.5z"/>
		<path fill="#00AB8A" d="M73.4,84.2h-25c-1,0-1.8-0.8-1.8-1.8c0-1,0.8-1.8,1.8-1.8h25c1,0,1.8,0.8,1.8,1.8
			C75.1,83.4,74.4,84.2,73.4,84.2z"/>
		<path opacity="0.6" fill="#00AB8A" d="M89.6,101.7l0,2.9c0,1.7-1.4,3.1-3.1,3.1H45.3c-1.7,0-3.1-1.4-3.1-3.1V45.4
			c0-1.7,1.4-3.1,3.1-3.1l28.4,0v10.5c0,3.1,2.5,5.6,5.6,5.6l10.3,0l0.1,26.6l5-5V56.3l-19-19H45.3c-4.4,0-8,3.6-8,8v59.2
			c0,4.4,3.6,8,8,8h41.2c4.4,0,8-3.6,8-8v-7.8L89.6,101.7z"/>
		<path fill="#00AB8A" d="M82.2,103.2c-0.6,0-1.3-0.2-1.7-0.7l-8.9-8.9c-1-1-1-2.5,0-3.5c1-1,2.5-1,3.5,0l7.2,7.2l15.4-15.4
			c1-1,2.5-1,3.5,0c1,1,1,2.5,0,3.5l-17.2,17.2C83.4,102.9,82.8,103.2,82.2,103.2z"/>
	</g>
</g>
</svg>
