<svg xmlns="http://www.w3.org/2000/svg" viewBox="0 0 86.8 52.08"><title>master-card</title><g id="Слой_2" data-name="Слой 2"><g id="checkout_1000px_5" data-name="checkout 1000px 5"><path d="M86.8,26A26,26,0,1,1,60.62,0,26,26,0,0,1,86.8,26Zm0,0" fill="#f7981d"/><path d="M60.76,0a26,26,0,1,1,0,52.08" fill="#ff8500"/><path d="M25.77,0A26,26,0,0,0,26,52.08a26.34,26.34,0,0,0,17.5-6.75,24.79,24.79,0,0,0,2.62-2.75H40.78A31.6,31.6,0,0,1,38.85,40h9.23A17.58,17.58,0,0,0,49.6,37.2H37.34a16.45,16.45,0,0,1-1.1-2.76H50.57a27.36,27.36,0,0,0,1.38-8.27,35.54,35.54,0,0,0-.55-5.51h-16a20.12,20.12,0,0,1,.69-2.76H50.43a16.4,16.4,0,0,0-1.1-2.76H37.2a27.27,27.27,0,0,1,1.52-2.75h9.23a13.09,13.09,0,0,0-2.07-2.76h-5.1A23.43,23.43,0,0,1,43.4,7,25.43,25.43,0,0,0,25.9.28c0-.28,0-.28-.14-.28Zm0,0" fill="#e52836"/><path d="M26,52.08a26.34,26.34,0,0,0,17.5-6.75,24.79,24.79,0,0,0,2.62-2.75H40.78A31.6,31.6,0,0,1,38.85,40h9.23A17.58,17.58,0,0,0,49.6,37.2H37.34a16.45,16.45,0,0,1-1.1-2.76H50.57a27.36,27.36,0,0,0,1.38-8.27,35.54,35.54,0,0,0-.55-5.51h-16a20.12,20.12,0,0,1,.69-2.76H50.43a16.4,16.4,0,0,0-1.1-2.76H37.2a27.27,27.27,0,0,1,1.52-2.75h9.23a13.09,13.09,0,0,0-2.07-2.76h-5.1A23.43,23.43,0,0,1,43.4,7,25.43,25.43,0,0,0,25.9.28h-.14" fill="#cb2026"/><path d="M35.27,32.65l.41-2.34a6,6,0,0,1-.69.14c-1,0-1.1-.55-1-.83l.83-4.82h1.52l.41-2.62H35.41l.28-1.65H32.93s-1.65,9.09-1.65,10.2a2.07,2.07,0,0,0,2.2,2.34,4.23,4.23,0,0,0,1.79-.41Zm0,0" fill="#fff"/><path d="M36.24,28.25c0,3.86,2.62,4.82,4.82,4.82A7.15,7.15,0,0,0,44,32.65L44.5,30a8.26,8.26,0,0,1-2.89.69c-3,0-2.48-2.2-2.48-2.2h5.65A17.85,17.85,0,0,0,45.19,26a3.73,3.73,0,0,0-4-4c-2.89-.27-5,2.76-5,6.2Zm4.82-4c1.52,0,1.24,1.79,1.24,1.93h-3c0-.14.28-1.93,1.79-1.93Zm0,0" fill="#fff"/><path d="M58.56,32.65l.55-3a6.77,6.77,0,0,1-2.34.69c-1.93,0-2.76-1.52-2.76-3.17,0-3.31,1.65-5.1,3.58-5.1a4.6,4.6,0,0,1,2.48.83L60.49,20a9.69,9.69,0,0,0-3.17-.69c-3.17,0-6.34,2.75-6.34,8,0,3.44,1.65,5.79,5,5.79a12.35,12.35,0,0,0,2.62-.41Zm0,0" fill="#fff"/><path d="M20.12,21.77a9.77,9.77,0,0,0-3.31.55l-.41,2.34a8.15,8.15,0,0,1,3-.55c1,0,1.79.14,1.79,1,0,.55-.14.69-.14.69H19.84c-2.34,0-5,1-5,4.13,0,2.48,1.65,3,2.62,3a4.14,4.14,0,0,0,2.89-1.24l-.14,1.1h2.48l1.1-7.58c0-3.31-2.75-3.44-3.72-3.44Zm.55,6.2c0,.41-.28,2.62-1.93,2.62a1.07,1.07,0,0,1-1.1-1.1c0-.69.41-1.65,2.48-1.65a2.17,2.17,0,0,0,.55.14Zm0,0" fill="#fff"/><path d="M26.45,32.93c.69,0,4.13.14,4.13-3.58,0-3.44-3.31-2.76-3.31-4.13,0-.69.55-1,1.52-1,.41,0,1.93.14,1.93.14l.41-2.48a10.45,10.45,0,0,0-2.62-.28c-2.07,0-4.13.83-4.13,3.58,0,3.17,3.44,2.89,3.44,4.13,0,.83-1,1-1.65,1a9,9,0,0,1-2.48-.41l-.41,2.48c.14.28.83.55,3.17.55Zm0,0" fill="#fff"/><path d="M81.43,19.56l-.55,3.72a3.82,3.82,0,0,0-2.62-1.38c-2.48,0-4.68,3-4.68,6.61,0,2.2,1.1,4.55,3.44,4.55A3.68,3.68,0,0,0,79.64,32l-.14,1h2.75L84.32,19.7Zm-1.24,7.3c0,1.52-.69,3.44-2.2,3.44-1,0-1.52-.83-1.52-2.2,0-2.2,1-3.58,2.2-3.58,1,0,1.52.69,1.52,2.34Zm0,0" fill="#fff"/><path d="M5.1,32.79l1.65-9.92L7,32.79H9l3.58-9.92L11,32.79h2.89l2.2-13.23H11.57L8.82,27.69l-.14-8.13h-4L2.48,32.79Zm0,0" fill="#fff"/><path d="M47.81,32.79c.83-4.55,1-8.27,2.89-7.58a10.83,10.83,0,0,1,1-3.17h-.55c-1.24,0-2.2,1.65-2.2,1.65l.28-1.52H46.57L44.78,32.93h3Zm0,0" fill="#fff"/><path d="M64.9,21.77a9.77,9.77,0,0,0-3.31.55l-.41,2.34a8.15,8.15,0,0,1,3-.55c1,0,1.79.14,1.79,1,0,.55-.14.69-.14.69H64.62c-2.34,0-5,1-5,4.13,0,2.48,1.65,3,2.62,3a4.14,4.14,0,0,0,2.89-1.24L65,32.79h2.48l1.1-7.58c.14-3.31-2.75-3.44-3.72-3.44Zm.69,6.2c0,.41-.28,2.62-1.93,2.62a1.08,1.08,0,0,1-1.1-1.1c0-.69.41-1.65,2.48-1.65.41.14.41.14.55.14Zm0,0" fill="#fff"/><path d="M71,32.79c.83-4.55,1-8.27,2.89-7.58a10.82,10.82,0,0,1,1-3.17h-.55c-1.24,0-2.2,1.65-2.2,1.65l.28-1.52H69.72L67.93,32.93h3Zm0,0" fill="#fff"/></g></g></svg>