<svg xmlns="http://www.w3.org/2000/svg" viewBox="0 0 81.63 107.29"><title>offer-bg</title><g id="Слой_2" data-name="Слой 2"><g id="_" data-name="!"><g opacity="0.15"><path d="M54.51,0H11.42A11.43,11.43,0,0,0,0,11.42V95.87a11.43,11.43,0,0,0,11.42,11.42H70.21c6.29,0,11.42-5.12,11.42-13.42V25Zm15.7,100.29H11.42A4.43,4.43,0,0,1,7,95.87V11.42A4.43,4.43,0,0,1,11.42,7L51.89,7v15a7.92,7.92,0,0,0,7.92,7.92l14.66-2,.16,66.07c0,4.44-2,6.42-4.42,6.42Zm0,0" fill="#4f5a67"/><line x1="15" y1="39.29" x2="66.09" y2="39.29" fill="#4f5a67"/><path d="M66.09,41.79H15a2.5,2.5,0,0,1,0-5H66.09a2.5,2.5,0,0,1,0,5Z" fill="#4f5a67"/><line x1="15.46" y1="51.79" x2="66.54" y2="51.79" fill="#4f5a67"/><path d="M66.54,54.29H15.46a2.5,2.5,0,0,1,0-5H66.54a2.5,2.5,0,0,1,0,5Z" fill="#4f5a67"/><line x1="15.91" y1="64.29" x2="51.5" y2="64.29" fill="#4f5a67"/><path d="M51.5,66.79H15.91a2.5,2.5,0,1,1,0-5H51.5a2.5,2.5,0,0,1,0,5Z" fill="#4f5a67"/></g></g></g></svg>