<svg xmlns="http://www.w3.org/2000/svg" viewBox="0 0 186.76 40"><title>Ресурс 6</title><g id="Слой_2" data-name="Слой 2"><g id="checkout_1000px_5-2" data-name="checkout 1000px 5-2"><g opacity="0.5"><path d="M171.46,1.83a5.15,5.15,0,0,1,4.36,2.39l8.3,13a5.19,5.19,0,0,1,0,5.56l-8.3,13a5.15,5.15,0,0,1-4.36,2.39H15.3a5.15,5.15,0,0,1-4.36-2.39l-8.3-13a5.19,5.19,0,0,1,0-5.56l8.3-13A5.15,5.15,0,0,1,15.3,1.83H171.46m0-1.83H15.3A7,7,0,0,0,9.4,3.23l-8.3,13a7,7,0,0,0,0,7.53l8.3,13A7,7,0,0,0,15.3,40H171.46a7,7,0,0,0,5.9-3.23l8.3-13a7,7,0,0,0,0-7.53l-8.3-13A7,7,0,0,0,171.46,0Z" fill="#f7931e"/></g></g></g></svg>