<?xml version="1.0" encoding="utf-8"?>
<!-- Generator: Adobe Illustrator 21.0.2, SVG Export Plug-In . SVG Version: 6.00 Build 0)  -->
<svg version="1.1" id="Слой_1" xmlns="http://www.w3.org/2000/svg" xmlns:xlink="http://www.w3.org/1999/xlink" x="0px" y="0px"
	 viewBox="0 0 150 150" enable-background="new 0 0 150 150" xml:space="preserve">
<g>
	<g>
		<defs>
			<circle id="SVGID_1_" cx="75.2" cy="75" r="75"/>
		</defs>
		<use xlink:href="#SVGID_1_"  overflow="visible" fill="#FFFFFF"/>
		<clipPath id="SVGID_2_">
			<use xlink:href="#SVGID_1_"  overflow="visible"/>
		</clipPath>
		
			<path clip-path="url(#SVGID_2_)" fill="none" stroke="#30C8AB" stroke-width="1.5075" stroke-linecap="round" stroke-linejoin="round" stroke-miterlimit="10" d="
			M94.5,25.6c0.1,0.9,0.2,4,2.7,6.7c1.5,1.6,4.4,2.6,5.9,2.6"/>
		<path clip-path="url(#SVGID_2_)" fill="none" stroke="#FF00FF" stroke-width="0.7538" stroke-miterlimit="10" d="M18,89.3
			c-0.9,0-3.7,0.1-6.5-2.6c-2.8-2.8-2.4-5.9-2.4-6.3"/>
		
			<path clip-path="url(#SVGID_2_)" fill="none" stroke="#30C8AB" stroke-width="1.5075" stroke-linecap="round" stroke-linejoin="round" stroke-miterlimit="10" d="
			M18,89.3c-0.9,0-3.6,0-6.5-2.6c-2.6-2.4-2.4-5.9-2.4-6.3"/>
		
			<path clip-path="url(#SVGID_2_)" fill-rule="evenodd" clip-rule="evenodd" fill="none" stroke="#FF00FF" stroke-width="0.7538" stroke-miterlimit="10" d="
			M81.3,42.2"/>
		
			<path clip-path="url(#SVGID_2_)" fill-rule="evenodd" clip-rule="evenodd" fill="none" stroke="#30C8AB" stroke-width="3.7688" stroke-linejoin="round" stroke-miterlimit="10" d="
			M150.1,29.2c0.7-2.2,1.1-4.6,1.1-7.1c0-8.5-4.6-16-11.4-20.1c0-0.1,0-0.1,0-0.2c0-6.8-5-12.3-11.5-13.3c-2.6-4.4-7.5-7.4-13-7.4
			c-7.1,0-13.1,4.9-14.7,11.6c-7,3.5-11.9,10.7-11.9,19.1c0,0.6,0,1.2,0.1,1.8c-5.8,4.6-9.5,11.6-9.5,19.5c0,13.8,11.2,24.9,25,24.9
			c0.4,0,0.9,0,1.3,0c4.9,6.3,12.5,10.4,21.1,10.4c14.7,0,26.6-11.9,26.6-26.5C153.3,37.3,152.2,33,150.1,29.2z"/>
		
			<path clip-path="url(#SVGID_2_)" fill-rule="evenodd" clip-rule="evenodd" fill="none" stroke="#00AB8A" stroke-width="2.2613" stroke-miterlimit="10" d="
			M22,107.9h7.8v17.8H22V107.9z"/>
		
			<path clip-path="url(#SVGID_2_)" fill-rule="evenodd" clip-rule="evenodd" fill="none" stroke="#30C8AB" stroke-width="4.5226" stroke-linejoin="round" stroke-miterlimit="10" d="
			M45.9,59.4c0-7.5-5.6-13.5-12.5-13.5c-5.1,0-9.5,3.3-11.4,8.1c-1.7-1.2-3.7-1.8-5.7-1.8c-6.3,0-11.5,6.2-11.9,14
			c-2.5,1.6-4.2,4.2-4.2,7.2c0,0.4,0,0.7,0.1,1.1c-2,2.5-3.2,5.7-3.2,9.3c0,6.8,4.4,12.5,10.1,13.7c3.8,6.4,10,10.6,16.9,10.6
			c11.5,0,20.8-11.4,20.8-25.4c0-4.9-1.1-9.5-3.1-13.3C44.3,66.9,45.9,63.4,45.9,59.4z"/>
		
			<rect x="26.6" y="76.9" clip-path="url(#SVGID_2_)" fill-rule="evenodd" clip-rule="evenodd" fill="#FFFFFF" stroke="#73958E" stroke-width="2.2613" stroke-miterlimit="10" width="109.3" height="49"/>
		
			<rect x="26.6" y="70.1" clip-path="url(#SVGID_2_)" fill-rule="evenodd" clip-rule="evenodd" fill="#FFFFFF" stroke="#73958E" stroke-width="2.2613" stroke-miterlimit="10" width="155.3" height="6.8"/>
		
			<rect x="135.9" y="76.9" clip-path="url(#SVGID_2_)" fill-rule="evenodd" clip-rule="evenodd" fill="#FFFFFF" stroke="#73958E" stroke-width="2.2613" stroke-miterlimit="10" width="46" height="9"/>
		<g clip-path="url(#SVGID_2_)">
			<rect x="135.9" y="85.9" fill-rule="evenodd" clip-rule="evenodd" fill="#FFFFFF" width="46" height="39.9"/>
			<rect x="135.9" y="85.9" opacity="0.2" fill-rule="evenodd" clip-rule="evenodd" fill="#73958E" width="46" height="39.9"/>
			<rect x="135.9" y="85.9" fill="none" stroke="#73958E" stroke-width="2.2613" stroke-miterlimit="10" width="46" height="39.9"/>
		</g>
		
			<line clip-path="url(#SVGID_2_)" fill="#FFFFFF" stroke="#73958E" stroke-width="2.2613" stroke-miterlimit="10" x1="34.2" y1="76.9" x2="34.2" y2="125.9"/>
		
			<line clip-path="url(#SVGID_2_)" fill="#FFFFFF" stroke="#73958E" stroke-width="2.2613" stroke-miterlimit="10" x1="108" y1="91.2" x2="34.2" y2="91.2"/>
		
			<line clip-path="url(#SVGID_2_)" fill="#FFFFFF" stroke="#73958E" stroke-width="2.2613" stroke-miterlimit="10" x1="108" y1="76.9" x2="108" y2="125.9"/>
		
			<rect x="116.7" y="99.6" clip-path="url(#SVGID_2_)" fill="none" stroke="#73958E" stroke-width="2.2613" stroke-miterlimit="10" width="11.2" height="19"/>
		<path clip-path="url(#SVGID_2_)" fill="none" stroke="#73958E" stroke-width="2.2613" stroke-miterlimit="10" d="M43.2,85.2v-2.4
			c0-0.8,0.7-1.5,1.5-1.5h10.6c0.8,0,1.5,0.7,1.5,1.5v2.4c0,0.8-0.7,1.5-1.5,1.5H44.7C43.9,86.7,43.2,86,43.2,85.2z"/>
		<path clip-path="url(#SVGID_2_)" fill="none" stroke="#73958E" stroke-width="2.2613" stroke-miterlimit="10" d="M64.3,85.2v-2.4
			c0-0.8,0.7-1.5,1.5-1.5h10.6c0.8,0,1.5,0.7,1.5,1.5v2.4c0,0.8-0.7,1.5-1.5,1.5H65.8C65,86.7,64.3,86,64.3,85.2z"/>
		<path clip-path="url(#SVGID_2_)" fill="none" stroke="#73958E" stroke-width="2.2613" stroke-miterlimit="10" d="M85.4,85.2v-2.4
			c0-0.8,0.7-1.5,1.5-1.5h10.6c0.8,0,1.5,0.7,1.5,1.5v2.4c0,0.8-0.7,1.5-1.5,1.5H86.9C86.1,86.7,85.4,86,85.4,85.2z"/>
		<path clip-path="url(#SVGID_2_)" fill="none" stroke="#73958E" stroke-width="2.2613" stroke-miterlimit="10" d="M115.6,89.7v-2.4
			c0-0.8,0.7-1.5,1.5-1.5h11.4c0.8,0,1.5,0.7,1.5,1.5v2.4c0,0.8-0.7,1.5-1.5,1.5H117C116.2,91.2,115.6,90.6,115.6,89.7z"/>
		
			<line clip-path="url(#SVGID_2_)" fill="none" stroke="#73958E" stroke-width="2.2613" stroke-miterlimit="10" x1="122" y1="104.2" x2="122" y2="114"/>
		<g clip-path="url(#SVGID_2_)">
			<circle fill="none" stroke="#CCCCCC" stroke-width="3.0151" stroke-miterlimit="10" cx="73" cy="107.9" r="10.8"/>
			<path fill="#FFFFFF" stroke="#CCCCCC" stroke-width="3.0151" stroke-miterlimit="10" d="M86.8,120.4h-28c-1.8,0-3.3-1.5-3.3-3.3
				v-5.4c0-1.8,1.5-3.3,3.3-3.3h28c1.8,0,3.3,1.5,3.3,3.3v5.4C90.1,118.9,88.6,120.4,86.8,120.4z"/>
		</g>
		<circle clip-path="url(#SVGID_2_)" fill="#CCCCCC" cx="61.6" cy="114.4" r="2.3"/>
		<circle clip-path="url(#SVGID_2_)" fill="#CCCCCC" cx="67" cy="114.4" r="1"/>
		<circle clip-path="url(#SVGID_2_)" fill="#CCCCCC" cx="70.9" cy="114.4" r="1"/>
		<circle clip-path="url(#SVGID_2_)" fill="#CCCCCC" cx="74.8" cy="114.4" r="1"/>
		<circle clip-path="url(#SVGID_2_)" fill="#CCCCCC" cx="78.7" cy="114.4" r="1"/>
		<circle clip-path="url(#SVGID_2_)" fill="#CCCCCC" cx="84.1" cy="114.4" r="2.3"/>
		<path clip-path="url(#SVGID_2_)" fill="#CCCCCC" d="M60.2,124.7h1.9c0.7,0,1.2-0.5,1.2-1.2v-3.9H59v3.9
			C59,124.2,59.6,124.7,60.2,124.7z"/>
		<path clip-path="url(#SVGID_2_)" fill="#CCCCCC" d="M83.6,124.7h1.9c0.7,0,1.2-0.5,1.2-1.2v-3.9h-4.3v3.9
			C82.4,124.2,82.9,124.7,83.6,124.7z"/>
		<g clip-path="url(#SVGID_2_)">
			<polygon fill-rule="evenodd" clip-rule="evenodd" fill="#FFFFFF" points="178.1,42.2 32.7,42.2 22.9,70.1 186.4,70.1 			"/>
			<polygon opacity="0.2" fill-rule="evenodd" clip-rule="evenodd" fill="#73958E" points="178.1,42.2 32.7,42.2 22.9,70.1 
				186.4,70.1 			"/>
			<polygon fill="none" stroke="#73958E" stroke-width="3.0151" stroke-miterlimit="10" points="178.1,42.2 32.7,42.2 22.9,70.1 
				186.4,70.1 			"/>
		</g>
		
			<line clip-path="url(#SVGID_2_)" fill="#FFFFFF" stroke="#73958E" stroke-width="2.2613" stroke-miterlimit="10" x1="26.6" y1="125.9" x2="14.2" y2="125.9"/>
	</g>
	<g id="XMLID_158_">
		<path fill="#00AB8A" d="M75.2,3c39.7,0,72,32.3,72,72s-32.3,72-72,72s-72-32.3-72-72S35.5,3,75.2,3 M75.2,0c-41.4,0-75,33.6-75,75
			s33.6,75,75,75c41.4,0,75-33.6,75-75S116.7,0,75.2,0L75.2,0z"/>
	</g>
</g>
</svg>
