<svg xmlns="http://www.w3.org/2000/svg" viewBox="0 0 87.48 26.92"><title>visa</title><g id="Слой_2" data-name="Слой 2"><g id="checkout_1000px_5" data-name="checkout 1000px 5"><path d="M16.62,13.87,14.22,2.34C13.81.75,12.61.28,11.12.21H.1L0,.74c8.58,2.08,14.26,7.1,16.62,13.13Z" fill="#f7981d"/><polygon points="42.15 0.45 35.03 0.45 30.58 26.54 37.69 26.54 42.15 0.45 42.15 0.45" fill="#0098c0"/><path d="M21,26.51l11.2-26H24.62l-7,17.8-.74-2.69c-1.37-3.23-5.27-7.89-9.85-10.81l6.37,21.76Z" fill="#0098c0"/><path d="M62.45,18c0-3-1.88-5.22-6-7.09-2.49-1.21-4-2-4-3.23s1.29-2.24,4.07-2.24a13.13,13.13,0,0,1,5.32,1l.64.29,1-5.65A18.44,18.44,0,0,0,57.11,0c-7,0-12,3.54-12,8.61,0,3.75,3.54,5.84,6.23,7.09S55,17.79,55,18.93c0,1.75-2.21,2.54-4.25,2.54a14.92,14.92,0,0,1-6.7-1.37l-.91-.42-1,5.85a22.44,22.44,0,0,0,7.92,1.39c7.47,0,12.33-3.49,12.39-8.91Z" fill="#0098c0"/><path d="M75.78,10c0,.07.59-1.51.95-2.49l.48,2.25,1.64,7.54H73c.59-1.5,2.83-7.3,2.83-7.3ZM70.91,22.63H80c.21.91.87,3.91.87,3.91h6.6L81.72.47H76.23c-1.71,0-3,.46-3.72,2.16L61.94,26.55h7.47s1.21-3.21,1.49-3.92Z" fill="#0098c0"/></g></g></svg>