<?xml version="1.0" encoding="UTF-8"?>
<svg width="29px" height="26px" viewBox="0 0 29 26" version="1.1" xmlns="http://www.w3.org/2000/svg" xmlns:xlink="http://www.w3.org/1999/xlink">
    <defs></defs>
    <g id="Page-1" stroke="none" stroke-width="1" fill="none" fill-rule="evenodd">
        <g id="baikal-1" transform="translate(-1030.000000, -1277.000000)" fill-rule="nonzero" fill="#000000">
            <g id="icons_marsh-bike-copy-2" transform="translate(1030.000000, 1277.000000)">
                <g id="Layer_1">
                    <path d="M26.2902059,14.850875 C25.1093088,14.11475 23.6870294,13.765375 22.3329853,13.8299687 C22.2903382,13.1568125 22.26475,12.48 22.2545147,11.8031875 C22.3176324,11.6557188 22.3888529,11.5078438 22.4451471,11.362 C22.5423824,11.1121563 22.3888529,10.7908125 22.1453382,10.6478125 C22.5219118,9.62365625 22.5470735,8.5288125 21.6583088,7.70778125 C20.8782941,6.98384375 19.71275,6.8696875 18.6619265,6.99359375 C18.5804706,6.94403125 18.4828088,6.9070625 18.357,6.89975 C17.6379706,6.8575 14.9537647,8.27409375 14.7290147,7.4546875 C14.5516029,6.8055 14.6535294,5.38890625 14.2347353,4.5784375 C14.2910294,4.467125 14.3520147,4.35825 14.4036176,4.24490625 C14.4189706,4.21078125 14.4257941,4.17828125 14.4257941,4.14740625 C18.9041618,4.8758125 16.0800735,-1.39709375 13.4500294,0.39609375 C12.4926029,1.04690625 12.8828235,2.02678125 12.9152353,2.98715625 C12.9506324,3.98003125 10.9406765,4.22053125 10.2374265,4.43625 C9.56616176,4.64384375 9.07742647,5.0285625 8.56651471,5.474625 C6.85423529,6.97084375 4.70141176,9.4144375 6.55954412,11.5399375 C7.42016176,12.5250937 8.98360294,12.8850312 10.1453088,13.4139687 C11.5897647,14.0712812 11.6375294,15.0820312 11.2780147,16.1711875 C11.0225588,15.8335937 10.7091029,15.51875 10.3410588,15.2299062 C10.5065294,15.0434375 10.6668824,14.8565625 10.8161471,14.6684687 C10.5078088,14.3 10.1418971,13.9851562 9.69922059,13.7938125 C9.53204412,14.0355313 9.36529412,14.27725 9.19811765,14.5165312 C7.22910294,13.5533125 4.79651471,13.518375 3.11366176,14.7233125 C2.69444118,14.9735625 2.29910294,15.25225 1.98905882,15.6060937 C1.85941176,15.7068437 1.75194118,15.8120625 1.66025,15.9274375 C1.65683824,15.9323125 1.653,15.9371875 1.65001471,15.9404375 C1.62954412,15.9664375 1.60395588,15.9895937 1.58732353,16.0168125 C1.57197059,16.0298125 1.55661765,16.0424062 1.54126471,16.0558125 C1.45980882,16.1224375 1.38645588,16.2036875 1.33186765,16.3154062 C-0.179117647,19.4796875 -0.36975,22.9860312 3.03902941,24.9916875 C5.97016176,26.71825 9.13883824,26.0044687 10.9645588,23.255375 C11.4242941,22.5623125 11.7786912,21.7997812 12.0038676,21.0153125 C12.1318088,20.8544375 12.2303235,20.6606562 12.3143382,20.4591563 C13.6479118,20.3328125 14.9392647,20.0309687 16.0783676,19.3318125 C16.3747647,19.1494063 16.6643382,18.9454687 16.9509265,18.731375 C16.4549412,21.2740938 17.0601029,23.72175 19.7988971,25.146875 C22.8225735,26.7223125 25.9464706,25.8476562 27.6156765,23.01 C29.1961765,20.3255 29.2968235,16.7265313 26.2902059,14.850875 Z M10.0195,9.72196875 C10.8592206,8.9529375 11.6750588,8.15303125 12.4060294,7.29340625 C12.5301324,8.21721875 12.8282353,9.59603125 13.5553676,9.8629375 C14.4667353,10.196875 15.5162794,9.6273125 16.3611176,9.31125 C16.9961324,9.07440625 17.8938529,8.78475 18.4678824,8.31025 C18.4776912,8.308625 18.4883529,8.3126875 18.4985882,8.31025 C19.2308382,8.16725 20.0091471,8.168875 20.6531176,8.56984375 C21.2680882,8.95415625 21.0881176,9.80159375 20.851,10.333375 C20.8411912,10.3585625 20.8420441,10.3829375 20.8356471,10.408125 C18.2004853,10.0697188 14.8957647,9.96775 12.5467647,11.0755938 C12.1701912,10.8615 11.7821029,10.6636563 11.4051029,10.469875 C11.1278971,10.32525 10.8605,10.2005313 10.5670882,10.0851563 C10.3295441,9.98928125 10.1542647,9.8629375 10.0195,9.72196875 Z M10.4280588,17.9842812 C10.4382941,18.0102812 10.4395735,18.0403437 10.4485294,18.0671562 C10.2544853,18.487625 10.0873088,18.8955 9.99519118,19.2769687 C9.30047059,19.2647812 8.60873529,19.2326875 7.94429412,19.2164375 C7.888,19.1660625 7.83170588,19.1144687 7.77541176,19.0624687 C7.62529412,18.92475 7.39372059,18.845125 7.18261765,18.889 C7.70205882,18.0062187 8.46885294,17.199 9.23522059,16.4047812 C9.78408824,16.8329687 10.21525,17.3692187 10.4280588,17.9842812 Z M8.37375,23.74125 C6.62948529,24.958375 3.69622059,24.2604375 2.50210294,22.5342813 C1.43038235,20.9844375 1.92167647,19.0486563 2.62833824,17.4212188 C2.63345588,17.4212188 2.63814706,17.4179688 2.64326471,17.4163438 C2.66202941,17.3675938 2.67567647,17.3204688 2.71363235,17.272125 C2.99425,16.9036563 3.33670588,16.4640938 3.76957353,16.209375 C3.79558824,16.18825 3.81691176,16.1642813 3.84463235,16.14275 C3.84804412,16.1395 3.85358824,16.1395 3.85657353,16.13625 C4.94961765,15.1185938 6.73525,15.1315938 8.19164706,15.7807813 C8.18439706,15.7889063 8.178,15.7986563 8.16947059,15.8067813 C6.96170588,17.044625 5.713,18.188625 5.32960294,19.8908125 C5.23108824,20.330375 5.53260294,20.6549688 5.97869118,20.7020938 C7.05680882,20.8170625 6.84058824,20.8528125 7.76901471,20.4945 C8.46544118,20.505875 9.18105882,20.531875 9.89966176,20.541625 C9.95254412,20.7874063 10.0804853,20.9941875 10.3137647,21.1534375 C9.93420588,22.1869375 9.25270588,23.128625 8.37375,23.74125 Z M15.9811324,17.7474375 C15.0650735,18.5514063 13.9545441,18.9466875 12.7706618,19.1323438 C13.3446912,17.6775625 14.2884706,16.2755938 14.8642059,14.833 C15.3205294,13.693875 14.7737941,12.8500938 13.9507059,12.0826875 C16.0357206,11.2900938 18.6116029,11.3871875 20.8531324,11.6963438 C19.7643529,14.0672188 17.9774412,15.994875 15.9811324,17.7474375 Z M25.0568529,23.6275 C23.3825294,24.9319688 20.4151471,24.3835313 19.1259265,22.72075 C17.9672059,21.2298125 18.3488971,19.2712813 18.9638676,17.6093125 C18.9689853,17.6076875 18.9741029,17.6060625 18.9792206,17.6044375 C18.9962794,17.5536563 19.0060882,17.5053125 19.0406324,17.4565625 C19.3012059,17.073875 19.6180735,16.6160313 20.0355882,16.3401875 C20.0594706,16.3174375 20.0812206,16.2930625 20.1068088,16.2686875 C20.1106471,16.2670625 20.1157647,16.2670625 20.11875,16.2621875 C20.4104559,15.9611563 20.7644265,15.74625 21.1495294,15.5935 C21.3538088,17.2835 21.7180147,18.949125 22.3828824,20.5525938 C22.6959118,21.311875 23.9992059,20.9807813 23.6806324,20.21175 C23.0251471,18.6310313 22.6690441,16.9970938 22.4732941,15.3387813 C24.2256618,15.2965313 26.1639706,16.261375 26.7840588,17.772625 C27.5777206,19.7027188 26.7503676,22.3100313 25.0568529,23.6275 Z" id="Shape"></path>
                </g>
            </g>
        </g>
    </g>
</svg>