<?xml version="1.0" encoding="UTF-8"?>
<svg width="30px" height="22px" viewBox="0 0 30 22" version="1.1" xmlns="http://www.w3.org/2000/svg" xmlns:xlink="http://www.w3.org/1999/xlink">
    <defs></defs>
    <g id="Page-1" stroke="none" stroke-width="1" fill="none" fill-rule="evenodd">
        <g id="baikal-2" transform="translate(-1045.000000, -628.000000)" fill-rule="nonzero" fill="#000000">
            <g id="icons_marsh-boat" transform="translate(1045.000000, 628.000000)">
                <g id="Layer_1">
                    <g id="Group">
                        <path d="M16.0825,13.0932593 C15.0208333,13.840037 12.6775,15.3246296 11.3166667,15.7536296 C10.47625,16.0155926 6.665,17.0214815 6.32916667,16.2824444 C6.27916667,16.1687778 6.55208333,15.452963 6.58875,15.3828889 C7.48083333,13.7683333 10.0304167,11.4787037 11.75125,10.2503704 C10.8991667,9.71177778 10.04125,9.18459259 9.175,8.6847037 L9.11583333,8.64925926 C6.39875,10.5889259 2.89583333,13.8921852 1.06666667,16.8585185 C0.970416667,17.0165926 0.614166667,17.503037 0.42375,17.894963 C-1.5325,22.1226296 7.31958333,21.1297778 9.13416667,20.9737407 C12.83875,20.6584074 17.3691667,18.2388148 20.17625,15.8888889 C19.5970833,15.4932963 19.0129167,15.0981111 18.4454167,14.7074074 C17.665,14.1737037 16.87625,13.6334815 16.0825,13.0932593 Z" id="Shape"></path>
                        <path d="M20.0366667,6.20807407 C20.4608333,6.0992963 20.8470833,6.29933333 20.80375,6.60203704 C20.5991667,8.00637037 19.17625,9.95540741 18.0379167,11.2432222 C18.6454167,11.6583704 19.2529167,12.0747407 19.8520833,12.4882593 C20.5725,12.9828519 21.3083333,13.483963 22.0420833,13.9850741 C24.3904167,11.429 26.8216667,7.76559259 27.7354167,4.39103704 C27.94375,3.62633333 27.3558333,2.84207407 26.5704167,2.8437037 C21.5125,2.85348148 15.8579167,4.62407407 11.5308333,7.03388889 C12.4225,7.56596296 13.3045833,8.1127037 14.1766667,8.67737037 C15.7795833,7.85318519 18.2075,6.67537037 20.0366667,6.20807407 Z" id="Shape"></path>
                        <path d="M29.5895833,17.4199259 C27.5541667,16.1993333 24.9829167,14.1036296 22.2416667,14.8357407 C18.2375,12.1183333 14.31,9.28359259 10.1133333,6.87377778 C9.65083333,6.61018519 9.19625,6.34333333 8.73791667,6.07811111 C8.74541667,6.039 8.76291667,6.00803704 8.76291667,5.96240741 C8.76375,3.26944444 5.4825,1.01240741 3.27333333,0.110814815 C3.01541667,0.00692592593 2.66583333,0.0847407407 2.51,0.328777778 C1.77375,1.48907407 0.981666667,2.60211111 0.324166667,3.80925926 C0.197916667,4.04555556 0.315833333,4.44562963 0.542083333,4.58048148 C2.54833333,5.78477778 5.07708333,7.84014815 7.77625,7.194 C8.30208333,7.4967037 8.82666667,7.80266667 9.3525,8.11025926 C13.5041667,10.5184444 17.4020833,13.3173333 21.3745833,16.0037778 C21.3729167,16.0184444 21.3675,16.024963 21.3675,16.038 C21.36625,18.7325926 24.64625,20.988 26.8579167,21.8875556 C27.1141667,21.9934815 27.46375,21.9136296 27.6216667,21.6695926 C28.3554167,20.5109259 29.1495833,19.3995185 29.805,18.1903333 C29.9320833,17.9552593 29.81375,17.5568148 29.5895833,17.4199259 Z" id="Shape"></path>
                    </g>
                </g>
            </g>
        </g>
    </g>
</svg>