<?xml version="1.0" encoding="UTF-8"?>
<svg width="29px" height="26px" viewBox="0 0 29 26" version="1.1" xmlns="http://www.w3.org/2000/svg" xmlns:xlink="http://www.w3.org/1999/xlink">
    <defs></defs>
    <g id="Page-1" stroke="none" stroke-width="1" fill="none" fill-rule="evenodd">
        <g id="baikal-1" transform="translate(-1067.000000, -702.000000)" fill-rule="nonzero" fill="#000000">
            <g id="icons_marsh-ski" transform="translate(1067.000000, 702.000000)">
                <g id="Layer_1">
                    <g id="Group">
                        <path d="M8.09569118,10.3675 C10.0135294,10.1842812 11.9317941,9.9945625 13.8479265,9.8028125 C13.9737353,9.3795 14.15925,8.98015625 14.4014853,8.6149375 C12.2789412,8.93790625 10.1670588,9.31084375 8.03427941,9.55296875 C7.39372059,9.62609375 7.45172059,10.4288437 8.09569118,10.3675 Z" id="Shape"></path>
                        <path d="M28.4716029,23.777 C27.695,24.6809063 25.4922794,24.6402813 23.6512059,24.5005313 C22.4912059,24.5590313 21.3346176,24.623625 20.1695,24.63175 C20.3874265,24.2640938 20.5221912,23.7863438 20.6275294,23.3679063 C21.1350294,21.372 21.9683529,19.228625 22.6374853,17.2765938 C23.1211029,15.868125 22.4788382,14.844375 21.5730147,13.9063438 C20.8846912,13.1909375 20.3345441,12.9459688 19.5118824,12.452375 C19.2325441,12.283375 18.9668529,12.1391563 18.6738676,12.0046875 C18.4350441,11.8925625 18.2597647,11.7463125 18.1254265,11.5809688 C18.9634412,10.6855938 19.7792794,9.7540625 20.51025,8.753875 C20.6347794,9.8304375 20.9362941,11.4343125 21.6600147,11.7450938 C22.5730882,12.1346875 23.6226324,11.470875 24.4674706,11.1024063 C24.8713382,10.9273125 25.3805441,10.7262188 25.8475294,10.4629688 C25.8658676,11.1414063 25.9051029,11.7804375 25.9102206,12.2269063 C25.9545735,15.6881563 26.2663235,19.11325 26.3187794,22.568 C26.3307206,23.2821875 27.0561471,23.2854375 27.0561471,22.568 C27.0527353,18.130125 27.0203235,13.69225 27.0117941,9.254375 C27.0506029,9.08903125 27.0544412,8.91596875 27.0130735,8.7611875 C27.0181912,8.57309375 27.0233088,8.3858125 27.0420735,8.19975 C27.0608382,8.01003125 27.0301324,7.82478125 26.9555,7.6903125 C27.0250147,7.249125 26.6283971,6.78315625 26.3354118,7.17396875 C26.1221765,7.4563125 26.0031912,7.89790625 25.9298382,8.40084375 C24.8824265,8.74046875 23.01875,9.7280625 22.8349412,8.93953125 C22.65625,8.1835 22.7598824,6.53290625 22.3406618,5.5891875 C22.39525,5.45878125 22.4579412,5.33203125 22.5095441,5.1991875 C22.5248971,5.1618125 22.5312941,5.1228125 22.5312941,5.08584375 C27.0096618,5.9345 24.1343971,-1.4291875 21.5538235,0.7158125 C20.1925294,1.8468125 20.8467353,2.9371875 21.0207353,3.73546875 C21.2676618,4.8685 19.0466029,5.1715625 18.3429265,5.42303125 C17.6716618,5.66475 17.1829265,6.1124375 16.6720147,6.63203125 C14.9584559,8.37484375 12.8069118,11.22225 14.6637647,13.6999688 C15.5256618,14.8472188 17.0895294,15.2672813 18.2491029,15.88275 C21.1230882,17.4061875 18.6717353,20.6127188 18.0755294,22.8259688 C17.8286029,23.7408437 17.7228382,24.2636875 17.7296618,24.57325 C15.6855882,24.4985 13.6534559,24.513125 11.6076765,24.529375 C11.3846324,24.7548438 11.47675,25.1525625 11.8226176,25.2772812 C13.0269706,25.7103437 14.2786618,25.634375 15.5461324,25.58075 C17.7198529,25.48975 19.9119118,25.571 22.0890441,25.559625 C23.6136765,25.553125 25.8091471,25.897625 27.4856029,25.4365312 C27.7581176,25.2841875 28.0221029,25.1168125 28.2451471,24.9140937 C28.5296029,24.6545 28.7053088,24.3656563 28.8106471,24.0475625 C28.8123529,23.8269688 28.6929412,23.647 28.4716029,23.777 Z" id="Shape"></path>
                        <path d="M13.2009706,23.3451562 C13.5941765,23.3175312 13.9229853,23.2005313 14.2142647,23.0173125 C14.3643824,22.8470937 14.3916765,22.6358437 14.1323824,22.6033437 C12.9297353,22.8320625 11.2537059,21.4707187 9.92311765,20.2519687 C9.72054412,20.1081562 9.51626471,19.966375 9.31198529,19.823375 C9.59985294,19.8055 9.89795588,19.7494375 10.1994706,19.7019062 C11.5330441,19.4894375 13.3455441,19.3659375 14.4309118,18.3633125 C15.1443971,17.7015312 15.6250294,16.744 15.9926471,15.7425937 C15.0322353,15.296125 14.2603235,14.5595937 13.8513382,13.5537187 C13.3148382,15.1795312 12.6555147,16.605875 10.8430147,16.9775937 C9.51797059,17.249375 8.58101471,17.6267812 6.73780882,17.9314687 C6.47211765,17.7194062 6.20642647,17.5065312 5.94926471,17.2826875 C4.21864706,15.77875 2.41126471,14.3962812 0.591941176,12.9991875 C0.269955882,13.0381875 0.0759117647,13.4017812 0.261426471,13.7064687 C0.903264706,14.7692187 1.92252941,15.4655312 2.93710294,16.1906875 C4.67795588,17.4338125 6.31858824,18.8211562 8.00997059,20.1268437 C9.19385294,21.042125 10.6621912,22.6338125 12.2652941,23.2895 C12.5791765,23.3370312 12.8922059,23.3679062 13.2009706,23.3451562 Z" id="Shape"></path>
                    </g>
                </g>
            </g>
        </g>
    </g>
</svg>