<?xml version="1.0" encoding="UTF-8"?><!DOCTYPE svg PUBLIC "-//W3C//DTD SVG 1.1//EN" "http://www.w3.org/Graphics/SVG/1.1/DTD/svg11.dtd"><svg xmlns="http://www.w3.org/2000/svg"><symbol id="icons_marsh-bike" viewBox="0 0 29 26"><path d="M26.29 14.85a6.954 6.954 0 0 0-3.957-1.02 42.163 42.163 0 0 1-.078-2.027c.063-.147.134-.295.19-.441.097-.25-.056-.571-.3-.714.377-1.024.402-2.12-.487-2.94-.78-.724-1.945-.838-2.996-.714a.642.642 0 0 0-.305-.094c-.719-.043-3.403 1.374-3.628.555-.177-.65-.075-2.066-.494-2.877.056-.11.117-.22.169-.333a.236.236 0 0 0 .022-.098c4.478.729 1.654-5.544-.976-3.75-.957.65-.567 1.63-.535 2.59.036.993-1.974 1.234-2.678 1.45-.67.207-1.16.592-1.67 1.038C6.854 6.97 4.7 9.415 6.56 11.54c.86.985 2.424 1.345 3.585 1.874 1.445.657 1.493 1.668 1.133 2.757a5.167 5.167 0 0 0-.937-.941c.166-.187.326-.373.475-.562-.308-.368-.674-.683-1.117-.874l-.5.723c-1.97-.964-4.402-.999-6.085.206-.42.25-.815.53-1.125.883a1.91 1.91 0 0 0-.339.334c-.02.026-.046.05-.063.077l-.046.039a.761.761 0 0 0-.21.26c-1.51 3.164-1.7 6.67 1.708 8.676 2.931 1.726 6.1 1.012 7.926-1.737a8.137 8.137 0 0 0 1.039-2.24c.128-.16.226-.354.31-.556 1.334-.126 2.625-.428 3.764-1.127.297-.183.586-.387.873-.6-.496 2.542.11 4.99 2.848 6.415 3.024 1.575 6.147.7 7.817-2.137 1.58-2.684 1.68-6.283-1.326-8.16zM10.02 9.723c.84-.77 1.655-1.569 2.386-2.429.124.924.422 2.303 1.15 2.57.91.334 1.96-.236 2.805-.552.635-.237 1.533-.526 2.107-1 .01-.002.02.002.03 0 .733-.144 1.511-.142 2.155.259.615.384.435 1.232.198 1.763-.01.026-.009.05-.015.075-2.636-.338-5.94-.44-8.29.668-.376-.215-.764-.412-1.14-.606a8.506 8.506 0 0 0-.839-.385 1.535 1.535 0 0 1-.547-.363zm.408 8.262c.01.026.012.056.02.083-.194.42-.36.828-.453 1.21-.695-.012-1.386-.044-2.05-.06-.057-.05-.113-.103-.17-.155a.7.7 0 0 0-.592-.173c.52-.883 1.286-1.69 2.052-2.484.55.428.98.964 1.193 1.58zm-2.054 5.757c-1.745 1.217-4.678.52-5.872-1.207-1.072-1.55-.58-3.485.126-5.113.005 0 .01-.003.015-.005.019-.048.033-.096.07-.144.281-.368.624-.808 1.057-1.063.026-.02.047-.045.075-.066.003-.003.009-.003.012-.007 1.093-1.017 2.878-1.004 4.335-.355-.008.008-.014.018-.023.026-1.207 1.238-2.456 2.382-2.84 4.084-.098.44.204.764.65.811 1.078.115.862.15 1.79-.208.696.012 1.412.038 2.13.048.054.245.181.452.415.611-.38 1.034-1.061 1.976-1.94 2.588zm7.607-5.994c-.916.804-2.026 1.2-3.21 1.385.574-1.454 1.517-2.856 2.093-4.299.457-1.14-.09-1.983-.913-2.75 2.085-.793 4.66-.696 6.902-.387-1.089 2.371-2.876 4.299-4.872 6.051zm9.076 5.88c-1.674 1.305-4.642.757-5.931-.906-1.159-1.491-.777-3.45-.162-5.112l.015-.005c.017-.05.027-.099.062-.147.26-.383.577-.841.995-1.117l.07-.071c.005-.002.01-.002.013-.007a2.905 2.905 0 0 1 1.03-.668c.205 1.69.569 3.355 1.234 4.959.313.759 1.616.428 1.298-.341-.656-1.581-1.012-3.215-1.208-4.873 1.753-.042 3.691.922 4.311 2.434.794 1.93-.034 4.537-1.727 5.855z" fill-rule="nonzero" fill="#000"/></symbol><symbol id="icons_marsh-boat" viewBox="0 0 30 22"><g fill-rule="nonzero" fill="#000"><path d="M16.082 13.093c-1.061.747-3.405 2.232-4.765 2.66-.84.263-4.652 1.268-4.988.53-.05-.114.223-.83.26-.9.892-1.615 3.441-3.904 5.162-5.133a74.934 74.934 0 0 0-2.576-1.565l-.06-.036c-2.716 1.94-6.22 5.243-8.048 8.21-.097.158-.453.644-.643 1.036-1.956 4.228 6.896 3.235 8.71 3.079 3.705-.316 8.235-2.735 11.042-5.085-.579-.396-1.163-.79-1.73-1.182-.781-.533-1.57-1.074-2.364-1.614zM20.037 6.208c.424-.109.81.091.767.394-.205 1.404-1.628 3.353-2.766 4.641.607.415 1.215.832 1.814 1.245.72.495 1.456.996 2.19 1.497 2.348-2.556 4.78-6.22 5.693-9.594.209-.765-.38-1.549-1.165-1.547-5.058.01-10.712 1.78-15.04 4.19a85.065 85.065 0 0 1 2.647 1.643c1.603-.824 4.03-2.002 5.86-2.469z"/><path d="M29.59 17.42c-2.036-1.22-4.607-3.316-7.348-2.584-4.005-2.718-7.932-5.552-12.129-7.962-.462-.264-.917-.53-1.375-.796.007-.039.025-.07.025-.116 0-2.693-3.28-4.95-5.49-5.851-.258-.104-.607-.026-.763.218C1.774 1.489.982 2.602.324 3.809c-.126.237-.008.637.218.771 2.006 1.205 4.535 3.26 7.234 2.614.526.303 1.05.609 1.576.916 4.152 2.408 8.05 5.207 12.023 7.894-.002.014-.008.021-.008.034 0 2.695 3.28 4.95 5.49 5.85.257.105.607.026.765-.218.733-1.16 1.528-2.27 2.183-3.48.127-.235.009-.633-.215-.77z"/></g></symbol><symbol id="icons_marsh-car" viewBox="0 0 30 24"><g fill-rule="nonzero" fill="#000"><path d="M26.156 16.076c-1.453.033-2.778.376-3.59 1.79-.938 1.629-.302 4.306 1.135 5.397 1.811 1.375 4.173.591 5.397-.672 1.008-1.039.928-3.034.178-4.37-.733-1.31-1.913-2.175-3.12-2.145zM1.411 16.894c-1.105.848-1.206 3.017-.716 4.463.478 1.416 1.522 2.122 2.653 2.304 1.363.22 3.037-.068 4.021-1.316 1.132-1.443.581-4.432-.75-5.578-1.473-1.266-3.863-.902-5.208.127z"/><path d="M24.95 14.706c2.355-.047 2.987.733 3.743 1.053.757.32 1.977-1.925.631-2.704-.012-.008-.032-.013-.044-.02.066-.518.1-1.03.05-1.515-.457-4.26-5.512-2.9-8.042-3.612-1.11-.31-1.146-3.98-1.426-4.98C19.53 1.747 18.846.611 17.712.23c-1.207-.406-2.573-.133-3.806-.047-2.332.161-3.595-.318-6.245-.042-1.425.147-3.07.063-4.332.825-1.257.757-2.28 3.487-2.547 4.919C.274 8.587-.2 12.48.259 15.397c.026.945-.037 1.346.336 1.144.505-.276.884-1.606 3.408-1.515 2.524.093 3.954.413 4.542 2.2.59 1.787.367 2.871 2.16 2.878.942.003 3.066.043 5.087.107.18.011.36.019.542.032.944.073 2.396.116 3.516.165.079.007.16.015.222.023 1.473.183.63-.732 1.177-2.656.546-1.923 1.345-3.025 3.701-3.069zM11.098 2.201c.67.017 1.344.073 2.015-.008.915-.114 1.938-.12 2.849.209 1.272.462 1.354 1.905 1.594 3.161.173.911.855 3.005-.151 3.598-.56.33-1.35.308-1.967.365-.733.072-1.324.091-2.057.143-1.058.07-1.854.107-2.607.11-.099-2.504.256-5.065.324-7.578zm-6.55 1.192c.517-.499.782-.651 1.43-.823 1.066-.29 2.618-.06 3.701-.276.136-.028.271-.048.408-.06-.07 2.493-.42 5.038-.323 7.527-1.01-.041-2.114-.145-3.828-.322-.043-.002-2.67-.025-2.683-.056-.09.011-.187-.045-.178-.172.125-1.685.225-4.618 1.473-5.818z"/></g></symbol><symbol id="icons_marsh-ski" viewBox="0 0 29 26"><g fill-rule="nonzero" fill="#000"><path d="M8.096 10.367c1.918-.183 3.836-.372 5.752-.564.126-.424.311-.823.553-1.188-2.122.323-4.234.696-6.367.938-.64.073-.582.876.062.814zM28.472 23.777c-.777.904-2.98.863-4.82.724-1.16.058-2.317.123-3.483.13.218-.367.353-.845.459-1.263.507-1.996 1.34-4.14 2.01-6.091.483-1.409-.16-2.433-1.065-3.37-.688-.716-1.238-.961-2.061-1.455a8.164 8.164 0 0 0-.838-.447 1.526 1.526 0 0 1-.549-.424c.838-.895 1.654-1.827 2.385-2.827.125 1.076.426 2.68 1.15 2.991.913.39 1.963-.274 2.807-.643.404-.175.914-.376 1.38-.639.019.678.058 1.317.063 1.764.045 3.461.356 6.886.409 10.341.012.714.737.717.737 0-.003-4.438-.036-8.876-.044-13.314.039-.165.042-.338.001-.493.005-.188.01-.375.03-.561a.895.895 0 0 0-.087-.51c.069-.44-.328-.907-.62-.516-.214.282-.333.724-.406 1.227-1.048.34-2.911 1.327-3.095.539-.179-.756-.075-2.407-.494-3.35.054-.131.117-.258.169-.39a.299.299 0 0 0 .021-.114c4.479.848 1.603-6.515-.977-4.37-1.361 1.13-.707 2.221-.533 3.02.247 1.132-1.974 1.436-2.678 1.687-.671.242-1.16.69-1.671 1.209-1.714 1.743-3.865 4.59-2.008 7.068.862 1.147 2.426 1.567 3.585 2.183 2.874 1.523.423 4.73-.173 6.943-.247.915-.353 1.438-.346 1.747-2.044-.075-4.077-.06-6.122-.044-.223.226-.131.624.215.748 1.204.433 2.456.357 3.723.304 2.174-.091 4.366-.01 6.543-.021 1.525-.007 3.72.338 5.397-.123.272-.153.536-.32.76-.523.284-.26.46-.548.565-.866.001-.221-.118-.401-.34-.271z"/><path d="M13.201 23.345a2.139 2.139 0 0 0 1.013-.328c.15-.17.178-.381-.082-.414-1.202.23-2.878-1.132-4.209-2.351-.202-.144-.407-.286-.611-.429.288-.018.586-.074.887-.121 1.334-.213 3.147-.336 4.232-1.339.713-.661 1.194-1.619 1.562-2.62-.96-.447-1.733-1.183-2.142-2.19-.536 1.627-1.195 3.053-3.008 3.425-1.325.271-2.262.649-4.105.953a23.945 23.945 0 0 1-.789-.648c-1.73-1.504-3.538-2.887-5.357-4.284a.462.462 0 0 0-.33.707c.641 1.063 1.66 1.76 2.675 2.485 1.741 1.243 3.382 2.63 5.073 3.936 1.184.915 2.652 2.507 4.255 3.163.314.047.627.078.936.055z"/></g></symbol><symbol id="icons_marsh-walk" viewBox="0 0 18 28"><g fill-rule="nonzero" fill="#000"><path d="M14.321 17.88c-.014-.02-.026-.043-.04-.063-.018-.029-.044-.056-.064-.085-.361-.472-.911-.865-1.748-1.165-.998-.358-1.958-.767-2.98-1.027-.42.77-.988 1.779-1.435 2.62.077.052.73.147.821.163 4.574.759 2.69 3.54 2.587 6.28-.047 1.23-.041 2.84 1.336 3.31.466.16 1.09-.178 1.182-.663.07-.372.157-.76.251-1.158.073-.737.094-1.502.17-2.067.133-.995.325-2.003.393-3.005.075-1.084.072-2.028-.288-2.8-.058-.115-.115-.23-.185-.34zM3.781 13.748c1.572-.415 2.042-3.782 2.367-5.193.247-1.068 1.238-2.678.96-3.811C6.9 3.886 5.644 3.478 4.294 3.49c-1.45.026-1.923 2.864-2.025 4.243-.07.95-.4 6.522 1.513 6.015z"/><path d="M17.316 10.685v-.03c.004-.246.014-.49.042-.733a.933.933 0 0 0-.112-.592c.09-.512-.428-1.053-.81-.6-.333.398-.5 1.052-.578 1.795a5.827 5.827 0 0 1-1.563-.494c-.154-.075-.366-.3-.606-.607a.89.89 0 0 1-.18-.154c-.593-.658-1.137-1.357-1.725-2.022a4.898 4.898 0 0 1-.363-.472 5.437 5.437 0 0 1-.945-1.517c2.195-.332 1.462-4.787-.458-5.09-1.206-.38-2.614.104-2.551 1.865.014.366.053.726.123 1.071.276 1.35.353 2.511-.265 3.87-.536 1.18-.722 2.5-1.094 3.733-.094.313-.723 2.001-.815 2.343-.892 2.073-1.477 2.686-2.341 4.77-1.067 2.574-1.592 3.775-2.58 6.465-.371 1.008-.524 2.438-.082 2.793 1.012.831 1.648-.236 1.792-.43.45-.603 6.905-11.13 9.102-16.84.612.646 1.54 1.524 1.843 1.66 1.202.543 2.74.559 4.037.571.853.008.888-1.203.13-1.355z"/><path d="M15.865 12.423c-.019 1.118.082 2.277.092 3.001.057 3.962.463 7.888.533 11.843.013.818.958.822.958 0-.003-4.923-.043-9.845-.055-14.766-.511-.008-1.02-.03-1.528-.078z"/></g></symbol></svg>