<?xml version="1.0" encoding="UTF-8"?><!DOCTYPE svg PUBLIC "-//W3C//DTD SVG 1.1//EN" "http://www.w3.org/Graphics/SVG/1.1/DTD/svg11.dtd"><svg xmlns="http://www.w3.org/2000/svg"><symbol id="camping" viewBox="0 0 86 52"><path d="M29.707 2.135c-.895-2.493-4.985-2.109-5.624.255-1.67 6.183-2.812 9.17-8.819 20.802-2.064 3.994-5.58 10.273-7.796 14.188-2.16 3.814-6.034 9.238-6.088 10.128-1.26 2.305-.144 3.487.481 3.604 3.511.65 10.379-.092 15.448.159.899-.032 2.728-.04 4.51-.052.284-3.06.683-7.109.866-8.919.204-1.969.38-3.814.555-5.664.172-1.825.348-3.654.548-5.6.251-2.489.499-5.245.747-8.044.408-4.598.831-9.351 1.318-13.213.108-.847.328-1.821 1.083-1.821.847 0 .942 1.158.999 1.849.938 11.663 2.148 23.015 3.319 33.99.264 2.489.527 4.969.787 7.453 6.11.104 10.789.272 19.516.292.951 0 3.208-.867.883-4.354-9.715-14.569-17.214-29.675-22.733-45.053zm54.481 45.074c-9.866-15.042-17.032-26.19-25.852-44.467-.583-1.21-1.801-1.458-2.896-1.098-2.963.351-4.813.982-8.863 1.03-5.844.068-8.735-.519-12.773-1.246-.735-.132-.883 1.007-.651 1.374 6.567 16.692 15.047 32.7 23.395 45.637 1.622 2.145 2.113 3.087 4.425 3.047.06 0 3.04.004 3.095.012 1.625.024 2.145.044 3.216 0 9.662.076 6.362.044 16.021.067.954.001 3.183-.849.883-4.356z" fill="#008DA8"/></symbol><symbol id="collect" viewBox="0 0 50 69"><g fill="#278E34"><path d="M11.218 19.045c-.699.416-.962 1.03-.974 1.658-.467.599-.683 1.41-.308 2.268 1.466 3.348 3.307 6.615 7.426 6.479 3.171-.104 6.766-2.389 9.022-4.474.643-.595.859-1.813.328-2.548-3.795-5.296-9.818-6.762-15.494-3.383zm7.201-8.168c-.312.375-.432.951-.048 1.438 2.433 3.091 4.897 5.928 9.143 5.241a16.897 16.897 0 0 0 3.619-1.031c-.328.2-.663.383-.986.595-1.258.815-1.466 2.859 0 3.627 1.629.858 3.147 1.845 4.884 2.492.032.012.061.004.092.012.18.128.363.256.607.336.124.052.247.096.375.14.28.184.583.26.883.284.108.032.212.072.32.108 1.386.459 2.32-.5 2.512-1.622.068-.081.156-.14.211-.224 1.646-2.472 2.752-5.675 1.965-8.631-.355-1.338-1.913-1.905-3.087-1.254-1.745.962-3.543 1.829-5.309 2.752.715-.555 1.294-1.194 1.582-1.954 1.022-2.688-4.07-4.517-5.711-5.116-3.823-1.398-7.629-.703-10.753 1.881-.334.275-.391.614-.299.926zm20.914 16.109c-1.414-2.888-5.265-3.184-7.964-2.649-3.283.647-6.351 2.888-8.835 5.025-1.545 1.33-.243 3.295 1.362 3.463.228.196.487.348.795.403.719.136 1.426.304 2.137.479 1.45.743 2.848 1.53 4.521 1.797a2.85 2.85 0 0 0 1.646-.24 5.54 5.54 0 0 0 1.726-.523c1.498-.734 3.215-2.488 4.394-3.678 1.177-1.186.869-2.743.218-4.077z"/><path d="M8.199 25.332a.95.95 0 0 0-.931-.228c-5.092 1.323-1.582 6.923.228 9.591.911 1.342 1.83 3.483 3.802 2.879 1.287-.392 2.457-1.174 3.747-1.61 1.378-.459 2.608-1.022 3.763-1.917.567-.439.291-1.314-.212-1.649-1.586-1.055-3.459-1.481-5.084-2.457-1.753-1.051-2.816-3.063-4.346-4.389a1.018 1.018 0 0 0-.967-.22zm14.314 9.586c-3.327.52-7.473 1.974-10.101 4.126-.427.348-.423.791-.216 1.146-.044.368.064.759.427 1.03 3.651 2.752 7.829 5.796 12.626 5.521 3.974-.228 7.469-4.294 10.205-6.734.591-.527.28-1.574-.463-1.758-4.314-1.078-7.856-4.045-12.478-3.331zm18.494 2.337c-1.302.503-2.345 1.697-3.164 2.792-1.494 1.997-3.775 2.704-5.265 4.646-.507.659-.016 1.302.627 1.461a.96.96 0 0 0 .703.783c3.248.986 7.553 2.444 10.465-.008 1.406-1.183 5.113-5.017 3.866-7.142-.885-1.518-5.571-3.175-7.232-2.532zm4.688-12.55c-1.985 2.333-4.054 4.589-6.131 6.838a.97.97 0 0 0-.243.935.947.947 0 0 0 .08.863c.767 1.318 2.281 1.95 3.754 2.089 1.095.1 3.032.096 3.734-.946.636-.951.811-2.508.947-3.611.231-1.869-.036-3.858-.383-5.699-.14-.752-1.262-1.048-1.758-.469zM22.374 7.099c1.842-1.023 3.3-2.544 2.521-4.785-1.43-4.114-6.934 2.269-8.276 3.431-.255.223-.355.479-.343.731-.503.403-.675 1.31.028 1.797 1.688 1.17 4.564-.339 6.07-1.174zm5.032-1.37c-.012.535.319 1.094 1.011 1.118 1.445.048 2.748.627 4.026 1.258.827.408 1.765-.255 1.545-1.186-.403-1.705-1.338-3.415-2.78-4.441-1.909-1.354-3.491.519-4.158 2.161-.199.503.009.882.356 1.09zM10.918 17.923c1.442-1.287 4.37-2.077 6.267-2.146a.988.988 0 0 0 .479-.136c.763-.111 1.23-1.358.404-2.001-2.109-1.629-3.879-3.631-6.135-5.081-.572-.368-1.378-.012-1.546.627-.651 2.476-2.281 5.711-1.227 8.271.304.742 1.119 1.033 1.758.466zM5.283 46.51a.966.966 0 0 0-.084 1.006c-.004.108-.008.208.024.332 1.11 3.995 6.143 5.728 9.53 7.306 3.55 1.653 8.623.515 10.405-3.064.204-.407-.004-.982-.363-1.226-3.918-2.661-8.076-6.283-12.546-7.92-3.052-1.12-5.385 1.297-6.966 3.566zm19.99 9.637a.863.863 0 0 0 .539.403c3.279.903 7.354 2.205 10.772 1.674 2.584-.407 4.485-4.924 5.121-7.078.203-.695-.148-1.282-.851-1.438-2.856-.627-5.724-1.643-8.684-1.434-.931.06-1.57.727-2.161 1.37-.527.571-.935 1.33-1.406 1.953-.751.982-2.716 1.758-3.655 2.716-.613.632-.258 1.547.325 1.834zm23.726-9.554c-.188-.754-1.291-.97-1.773-.379-1.793 2.169-3.343 4.494-4.762 6.922a.932.932 0 0 0-.111.679c-.348.387-.456 1.011.024 1.478 1.853 1.813 4.729 1.27 6.326-.604 1.705-2.001.875-5.808.296-8.096zM33.314 60.716c-7.022-4.338-14.387-2.005-20.682 2.317-.795.547-.607 1.582.251 1.925 3.783 1.498 10.07 5.592 14.275 3.519.044-.007.084 0 .128-.012 1.846-.611 10.265-5.136 6.028-7.749zM12.313 57.25c-1.646-1.446-3.695-2.521-5.42-3.899-1.578-1.266-3.223-2.344-5.197-2.852-.547-.14-1.154.176-1.294.735-.627 2.517 1.326 5.28 2.752 7.162 1.254 1.654 2.992 3.659 5.101 4.306.211.127.451.179.703.144.116.02.228.056.344.064.647.048.975-.412 1.002-.911 1.789-1.259 4.373-2.676 2.009-4.749zm21.916 8.164c-.987.743.004 2.156 1.011 1.789 2.504.887 5.572-.767 7.641-2.005 1.649-.991 4.745-3.363 3.411-5.64-3.021-5.148-9.811 4.162-12.063 5.856zM7.056 23.219c.348.248.679.152.898-.083.58.012 1.15-.548.723-1.139-.739-1.014-.615-2.148-1.027-3.271-.523-1.438-2.057-1.525-3.375-1.366-.531.06-.879.456-.767 1.002.409 1.993 1.95 3.695 3.548 4.857zm34.741-.643c-.727.555-.555 1.961.563 1.877 1.594-.124 3.355-.595 4.306-1.994 1.03-1.501.571-3.279-.42-4.673-.403-.571-1.114-.691-1.649-.211-1.243 1.102-2.057 2.604-2.792 4.07a1.01 1.01 0 0 0-.008.931zM4.672 43.781a7.614 7.614 0 0 0 1.282-.635c.259.02.527-.072.758-.335 2.692-3.056.216-6.999-2.844-8.66-.627-.348-1.314-.024-1.542.627-.911 2.556-.679 6.722 1.323 8.735.244.244.684.4 1.023.268z"/></g></symbol><symbol id="destroy" viewBox="0 0 52 62"><g fill="#278E34"><path d="M12.242 39.853c-.152-5.968-.319-11.931-.587-17.894-1.442-.244-4.006-.028-6.259-.216.212 4.486-.231 9.047-.208 13.512.032 6.718-.152 13.289-.683 19.979-.165 2.062.507 3.571 2.073 4.881 1.274 1.062 3.359 1.649 4.773.499 2.329-1.881 1.634-6.479 1.529-9.086-.151-3.899-.538-7.773-.638-11.675zm14.147-33.52a50.89 50.89 0 0 1 .008-2.069c.008-.52.012-1.042.04-1.554.044-.831-.727-1.526-1.526-1.526-4.581 0-9.159.048-13.728.336C7.712 1.332 1.138.801 1.042 2.614.91 5.158.734 9.104.767 12.563c.02 1.854.096 3.575.275 4.85.519 3.638 7.876 2.264 10.692 2.768 4.753.851 8.028 2.812 12.85 2.84.635.004 1.35-.463 1.474-1.122.379-2.029.503-4.126.527-6.243.032-3.099-.16-6.243-.196-9.323zm23.394 30.372c-1.63-.128-4.222-.184-6.974-.199-.02 1.042-.036 2.113-.06 3.251v.047c-.312 6.387-.483 9.906-3.579 10.074-.084.004-.167.004-.248.004-1.006 0-1.893-.352-2.552-1.023-1.554-1.578-1.51-4.469-1.466-7.265.012-.791.024-1.542 0-2.201-.04-.947-.06-1.901-.096-2.852-2.356.032-4.03.076-4.082.096-4.669-.12-4.238-.799-4.25 2.229-.008 3.24-.176 11 .723 13.996 2.021 6.698 9.298 10.776 15.941 8.34 8.344-3.056 7.96-11.764 8.064-18.258.065-3.83.189-6.114-1.421-6.239z"/><path d="M36.095 20.182c.128 6.343.248 12.669.492 19.008.131 3.423-.688 8.735 2.309 8.735.047 0 .1-.004.151-.004 1.566-.087 1.718-2.728 1.978-8.352.1-5.848.156-9.738.136-15.066-.024-6.311.108-12.486.487-18.772.115-1.934-.364-3.352-1.486-4.585C39.599.531 38.816.087 38.061.087c-.471 0-.935.172-1.326.587-1.669 1.77-1.17 6.091-1.099 8.543.112 3.659.387 7.303.459 10.965z"/></g></symbol><symbol id="dog" viewBox="0 0 70 60"><g fill="#E5B06D"><path d="M19.688 28.455c.152.184.324.343.491.52.352.08.779-.104 1.167-.296 3.051-3.639 5.771-7.529 8.396-11.491a1.68 1.68 0 0 0-.132-.627c-4.566-2.037-8.204-5.34-9.67-10.764-.363-1.346-2.675-1.534-2.911 0-.008.06-1.753 9.059-3.439 5.064-.727-1.738-1.458-3.247-2.489-4.857-.811-1.262-2.784-.771-2.82.763-.04 1.869.172 3.638.383 5.492.452 3.966-2.248 4.809-4.853 6.143-1.921.987-3.786 2.077-3.51 4.389.147 1.267 2.001 3.28 5.364 2.808 6.183-.859 9.746-2.177 14.023 2.856zm7.713 11.667c-.883-1.254-1.662-2.596-2.632-3.79-.543-.667-1.23-1.55-2.045-2.077-.683 7.202-8.483 13.464-12.533 18.785-1.015 1.338.862 2.64 2.069 2.069 7.497-3.539 10.808-8.931 15.385-14.75-.083-.07-.171-.134-.244-.237zm29.574-.959c-.068-.036-.136-.06-.204-.116-.443-.383-1.953-.543-2.521-.619-1.098-.152-2.417-.244-3.487.144-.052-.172-.043.031-.067.04l-.081.024c1.035 2.281 1.797 4.665 1.306 7.513-.619 3.571-3.115 6.291-4.158 9.682-.407 1.342 1.267 2.536 2.221 1.709 4.605-3.994 6.726-8.22 7.657-12.881.527-2.712.923-3.763-.523-5.269-.072-.071-.099-.147-.143-.227z"/><path d="M69.392 41.264c-1.21-5.225-6.071-9.929-6.926-15.098-.707-3.515-.759-5.804.364-7.673 3.994-5.892 4.473-15.434-3.28-17.347-6.654-1.641-16.104 4.346-9.418 13.041 1.741 2.265 4.973-.975 3.127-3.123-1.046-1.49.591-4.099 2.736-3.743 3.806.479 4.417 5.116 2.7 8.619-1.258 1.558-2.764 2.54-4.686 2.94-3.471.723-5.775.895-9.278.838-4.394-.076-6.874-.575-11.136-1.757a1.815 1.815 0 0 0-1.046.567c-.028.028-.051.032-.08.056-3.016 4.558-6.135 9.039-9.722 13.165-.008.032-.008.063-.016.096 2.919.97 4.313 3.462 5.951 5.859.375.687.655 1.254.759 1.454 2.943 6.955-4.65 12.211-7.354 17.655-.631 1.262.707 2.955 2.065 2.061 4.114-2.692 6.866-4.617 9.762-8.623 2.321-3.211 2.872-5.983 5.456-9.854.887-1.138 5.839-3.471 10.273-3.782.008.012 5.052-.407 8.112.488 0-.024.539.319.539.295 3.155 2.648 5.752 4.545 6.143 8.834.211 2.293-1.022 6.643-.859 9.059.092 1.374 2.109 2.217 2.816.759 2.123-4.369 4.148-9.845 2.998-14.786z"/></g></symbol><symbol id="drive" viewBox="0 0 76 72"><g fill="#008DA8"><path d="M67.031 45.363c-2.163-3.016-6.93-3.459-10.042-2.181-2.56 1.055-3.555 4.018-3.369 6.914.182 2.833 1.488 5.6 3.561 6.459 2.5 1.035 5.873 1.777 8.406-.072 2.918-2.134 3.401-8.397 1.444-11.12zM13.255 43.19c-2.559 1.046-3.553 4.014-3.369 6.91.184 2.832 1.49 5.6 3.563 6.458 2.5 1.039 5.872 1.778 8.404-.072 2.919-2.133 3.402-8.392 1.445-11.12-2.162-3.015-6.931-3.458-10.043-2.176z"/><path d="M25.711 44.896c1.222 3.399.759 5.464 4.479 5.479 1.779.004 5.602.068 9.44.172.744.034 1.486.038 2.231.092 2.368.168 6.292.308 8.657.435a.3.3 0 0 0-.008-.045c1.773-.134.547-1.867 1.546-5.091 1.134-3.662 2.792-5.759 7.676-5.843 4.885-.092 6.193 1.393 7.765 2.005 1.569.611 4.098-3.667 1.306-5.148-.026-.017-.064-.026-.092-.04.136-.987.208-1.961.1-2.884-.942-8.113-11.427-5.52-16.676-6.878-2.3-.591-2.376-7.581-2.956-9.483-.687-2.248-2.109-4.413-4.459-5.14-2.503-.775-5.337-.255-7.891-.092-4.839.308-7.457-.603-12.953-.08-2.956.284-6.367.121-8.985 1.574-2.605 1.442-4.727 6.642-5.282 9.366-1.053 5.144-2.035 12.565-1.083 18.118.053 1.793-.078 2.558.697 2.172 1.046-.523 1.831-3.051 7.066-2.879 5.236.175 8.202.786 9.422 4.19zm5.296-28.611c1.39.028 2.786.136 4.178-.02 1.897-.216 4.018-.232 5.907.399 2.64.879 2.81 3.627 3.307 6.02.359 1.733 1.776 5.724-.313 6.85-1.16.627-2.8.587-4.08.699-1.518.132-2.744.172-4.264.268-2.195.135-3.844.208-5.406.211-.208-4.769.528-9.646.671-14.427zM17.423 18.55c1.072-.951 1.622-1.238 2.966-1.57 2.21-.551 5.428-.112 7.674-.523.284-.051.563-.092.847-.116-.144 4.749-.871 9.594-.669 14.335-2.095-.076-4.383-.275-7.938-.611-.088-.008-5.536-.048-5.563-.108-.19.02-.388-.084-.368-.327.255-3.208.465-8.792 3.051-11.08zM37.47 64.075c-.993-.763-2.641-.847-3.517.135a.818.818 0 0 0-.166.272 1.04 1.04 0 0 0-.343.483c-.07.188-.028.423.006.611a.618.618 0 0 0 .146.288c.034.132.085.255.156.379.05.076.104.152.164.22.018.024.036.044.052.068-.07-.108-.041-.068.091.108.168.167.339.255.555.343.642.264 1.478.288 2.147.136.641-.148 1.316-.687 1.48-1.334.174-.698-.244-1.305-.771-1.709zm-13.53-4.961c-1.324-1.018-3.521-1.13-4.694.18a1.15 1.15 0 0 0-.219.359 1.388 1.388 0 0 0-.459.651c-.094.248-.036.563.01.811a.799.799 0 0 0 .194.388c.043.171.114.343.205.503.068.104.142.204.222.295l.067.088c-.094-.14-.054-.092.122.148.226.22.456.339.743.456.853.355 1.969.379 2.864.179.851-.196 1.758-.915 1.974-1.777.231-.935-.324-1.741-1.029-2.281zm-8.046 2.281c.233-.935-.322-1.741-1.026-2.281-1.326-1.018-3.523-1.13-4.694.18a1.063 1.063 0 0 0-.219.359c-.22.184-.352.363-.459.651-.091.248-.036.563.008.811.026.144.1.275.196.388.044.171.114.343.208.503.068.104.139.204.22.295.024.028.046.06.068.088-.092-.14-.052-.092.122.148.226.22.454.339.743.456.853.355 1.967.379 2.862.179.852-.195 1.755-.914 1.971-1.777zm47.358 5.744c-1.324-1.015-3.523-1.13-4.693.184a1.103 1.103 0 0 0-.22.359c-.22.18-.352.359-.459.647-.092.248-.036.567.01.815.025.14.098.271.194.383.044.175.114.344.208.507.068.1.14.2.22.291.023.033.046.061.067.088-.091-.14-.051-.092.122.147.226.22.456.339.743.459.853.352 1.969.379 2.864.176.853-.191 1.757-.911 1.973-1.777.231-.934-.324-1.74-1.029-2.279zm-32.916-4.306c-1.326-1.014-3.522-1.126-4.693.184a1.063 1.063 0 0 0-.219.359c-.22.179-.352.363-.46.646-.092.248-.036.568.008.815.026.14.1.272.196.388.043.172.114.339.208.503.068.104.14.199.22.295.021.028.045.056.067.088-.092-.14-.052-.092.122.148.226.219.453.335.743.455.853.355 1.967.38 2.862.18.855-.196 1.758-.915 1.974-1.781.231-.93-.323-1.737-1.028-2.28zM7.657 62.37c-1.326-1.015-3.523-1.13-4.695.184a1.113 1.113 0 0 0-.22.359c-.222.18-.354.364-.458.647-.094.247-.036.567.008.815a.786.786 0 0 0 .196.383c.042.176.112.344.206.507.066.101.14.2.22.292a.89.89 0 0 0 .068.088c-.094-.139-.054-.088.122.148.226.22.455.34.743.459.855.352 1.969.379 2.864.176.853-.191 1.757-.911 1.973-1.777.232-.935-.324-1.742-1.027-2.281zm55.012-3.14c-1.482-.264-3.339-.316-4.865.096-.004.004-.008.004-.01.004a6.53 6.53 0 0 0-.518.16c-.838.307-1.071 1.138-.881 1.809a2.47 2.47 0 0 0 .409 1.801c.574.839 1.53 1.37 2.533 1.478 1.913.703 4.423.081 5.58-1.545 1.334-1.877-.47-3.487-2.248-3.803zM19.636 64c-1.486-.264-3.343-.316-4.867.096-.004 0-.006.004-.01.004a7.14 7.14 0 0 0-.52.16c-.839.308-1.068 1.139-.879 1.81-.096.603.02 1.23.41 1.801.573.839 1.528 1.37 2.534 1.478 1.909.703 4.421.08 5.578-1.545 1.337-1.88-.473-3.489-2.246-3.804zm36.083.743c-.573-.839-1.53-1.37-2.532-1.478-1.914-.703-4.424-.08-5.58 1.545-1.333 1.877.472 3.487 2.249 3.802 1.481.264 3.339.316 4.865-.096.004 0 .008-.004.01-.004.178-.048.352-.096.517-.16.839-.308 1.071-1.138.881-1.81a2.462 2.462 0 0 0-.41-1.799zm-13.021-6.675c-1.37-.264-3.083-.315-4.489.096-.004 0-.008.003-.01.003a4.447 4.447 0 0 0-.477.16c-.775.308-.988 1.139-.813 1.809-.087.604.018 1.23.377 1.802a3.228 3.228 0 0 0 2.338 1.478c1.764.703 4.082.08 5.148-1.546 1.233-1.877-.434-3.487-2.074-3.802zm28.299 5.584c-1.065-.191-2.397-.228-3.491.067h-.004c-.127.037-.253.072-.373.116-.602.22-.767.819-.631 1.298-.07.432.014.883.293 1.291a2.533 2.533 0 0 0 1.817 1.063c1.37.503 3.171.056 4-1.111.957-1.346-.337-2.501-1.611-2.724zM27.68 55.316h-.012c-.175.052-.351.1-.515.16-.839.308-1.071 1.138-.883 1.81a2.452 2.452 0 0 0 .412 1.802c.573.838 1.528 1.374 2.532 1.477 1.911.703 4.424.084 5.58-1.545 1.333-1.877-.472-3.483-2.249-3.799-1.484-.268-3.341-.321-4.865.095zm-21.305-.855c-1.484-.264-3.341-.315-4.865.096-.004.003-.008.003-.012.003-.176.048-.352.1-.518.16-.838.307-1.068 1.138-.88 1.809-.096.603.022 1.23.412 1.801.573.838 1.527 1.37 2.532 1.478 1.911.703 4.424.08 5.58-1.546 1.334-1.875-.473-3.485-2.249-3.801zm66.128 1.806c-2.197.016-3.854 1.294-4.046 2.735-.046.34.134.579.416.731.983 2.221 6.363 1.806 7.022-.575.414-1.502-1.147-2.911-3.392-2.891zm-19.975 4.354c1.973-.955 1.919-3.862-.046-4.785-1.659-.775-5.135-.715-5.802 1.426a1.963 1.963 0 0 0-.481 1.122c-.089.859.613 1.574 1.303 1.954 1.439.794 3.526 1.005 5.026.283zM19.564 10.817c2.996.112 6.099-.271 9.091-.392 3.948-.151 7.937-.367 11.887-.303 2.548.04 3.587-1.642 3.75-4.014.156-2.281-.091-4.649-2.76-5.053-1.571-.24-3.311 0-4.896.004-2.473.008-4.945.028-7.419.028a235.94 235.94 0 0 1-6.73-.104C20.891.936 18.962.42 17.393.839c-3.076.815-2.842 2.6-2.78 5.165 0 .012-.048.655-.048.671-.024.691-.078 1.055.032 1.43.649 2.217 2.938 2.636 4.967 2.712z"/></g></symbol><symbol id="fire" viewBox="0 0 58 68"><g fill="#E96625"><path d="M37.891 39.181c8.08-11.811.867-26.545-7.401-35.533-.795-.862-1.957.232-1.521 1.175 3.563 7.716.627 14.515-3.111 21.413-1.323 2.433-2.233 4.965-1.786 7.481-3.858-2.505-5.991-5.979-7.397-10.725-.283-.947-1.793-.947-1.873 0-2.219 26.618 17.129 24.892 23.089 16.189z"/><path d="M23.543 26.703c1.35-4.633 3.854-8.392 3.675-13.353-.176-4.905-3.236-9.506-6.347-13.057-.703-.803-1.773.076-1.622.942.906 5.292-.496 10.197-.795 15.438-.188 3.335 1.011 6.518 2.249 9.546.188.46 1.906 3.7 2.84.484zm20.922 32.173c-1.29-.147-2.588-.072-3.887-.104-3.223.084-6.478.635-9.482 1.773l13.432 7.085s4.606-2.604 5.744-4.21c.656-.921-2.776-2.97-5.807-4.544zm-9.247-12.993c4.769.448 9.466 1.183 14.287 1.854 1.909-.583 2.98-.946 2.98-.946s-.911-3.607-2.049-5.009c-4.09.803-15.002 4.01-15.002 4.01s-.08.035-.216.091z"/><path d="M46.462 48.991c-5.093-.783-9.693-1.426-15.465-1.47-1.674.128-6.738.14-8.748-.128-6.115-.819-14.774-5.208-16.136-4.41-1.366.803-3.411 4.809-2.277 6.415C4.975 51 18.615 54.406 18.615 54.406s-13.64 3.807-16.824 5.412c-3.183 1.602.531 6.012.987 7.014.456.998 2.652.998 7.425-.803 3.958-1.498 14.224-5.052 17.623-6.227 6.686-2.665 15.653-3.116 17.039-2.932l10.8.14 1.821-5.812c0 .001-5.113-1.608-11.024-2.207z"/></g></symbol><symbol id="hunt" viewBox="0 0 92 92"><g fill="#008DA8"><path d="M89.691 44.822c-4.723.012-9.442.096-14.162.168.158-3.869-.408-7.513-1.787-10.543-4.771-10.47-13.941-16.604-26.66-17.947-.074-4.729-.154-9.459-.166-14.191-.006-2.872-2.097-2.876-2.093 0 .012 4.669.092 9.336.164 14.001a53.762 53.762 0 0 0-2.816-.102l-.255-.002c-7.96.002-15.835 3.946-21.061 10.555-4.106 5.192-6.219 11.463-6.303 18.181-4.08.066-8.16.132-12.242.144-2.871.008-2.875 2.097 0 2.093 4.095-.012 8.184-.08 12.274-.148.108 2.117.379 4.262.895 6.433 3.067 12.957 17.177 21.273 29.443 22.235.074 4.663.153 9.326.166 13.994.006 2.872 2.097 2.875 2.091 0-.012-4.639-.091-9.275-.164-13.908.085 0 .173.01.257.01 2.401 0 4.711-.287 6.875-.853 7.405-1.943 13.927-7.849 17.898-16.208 1.817-3.824 2.908-7.814 3.323-11.651 4.775-.072 9.548-.158 14.325-.167 2.87-.005 2.874-2.098-.002-2.094zM53.626 72.963c-2.037.533-4.176.787-6.355.787-.091 0-.188-.01-.281-.012-.03-2.109-.07-4.22-.074-6.329-.006-2.872-2.097-2.875-2.093 0 .006 2.081.046 4.162.074 6.241-12.12-.989-24.758-9.376-27.43-20.658-.488-2.057-.723-4.045-.825-5.986 2.65-.04 5.298-.085 7.95-.091 2.872-.004 2.875-2.097 0-2.093-2.666.008-5.332.054-7.997.096.25-15.661 12.51-26.665 25.319-26.667l.234.002c.976.01 1.929.048 2.864.108.028 2.077.067 4.154.074 6.231.006 2.872 2.097 2.876 2.091 0-.006-2.015-.044-4.03-.071-6.043 12.16 1.322 20.396 7.134 24.775 16.745 1.276 2.802 1.767 6.169 1.604 9.72-2.025.027-4.05.065-6.077.071-2.872.008-2.875 2.097 0 2.093 1.965-.003 3.929-.044 5.894-.072-1.283 10.933-8.592 22.951-19.676 25.857z"/><path d="M14.203 53.837c-.99.349-1.937.791-2.766 1.44-.018.014-.038.025-.054.044a8.715 8.715 0 0 0-1.39 1.374c-.907 1.148-.232 2.596.755 3.063-.056 2.95.208 5.536 3.003 7.627 1.286.958 1.909 2.217 2.189 3.623.004.045.02.076.026.118.305 1.675.134 3.541-.002 5.356-.094 1.863-.12 3.723.555 5.5.461 1.208.947 2.777 1.905 3.714.288.283 1.222 1.082 1.892 1.076.537-.525.836-1.324.447-2.187-1.961-4.364-1.021-9.013-1.061-13.606.667-1.56 1.799-2.608 3.139-3.339-4.128-3.666-7.318-8.304-8.638-13.803zM58.73 42.423c-1.793-1.164-4.441-1.845-7.034-1.841.208-.444.473-.923.799-1.438.787-1.248 2.734-2.84 1.805-3.197-.926-.35-3.103 1.947-4.321 1.508-1.221-.434.056-2.358 1.156-4.494 1.1-2.129-.262-1.811-1.084-.629-.821 1.185-1.886 2.932-3.116 2.804-1.234-.115-.979-2.344-.445-4.164.533-1.825-.414-2.106-.993-.135-.575 1.971-2.444 3.487-3.431 2.804-.987-.685-.399-6.217-1.274-6.475-.875-.255-.987 2.562-.969 4.388.018 1.832-1.631 2.057-2.494 1.485-.863-.567-1.334-5.456-2.301-5.655-.974-.212-.687 2.329-.299 3.714.39 1.374.563 2.143-1.562 2.624-2.123.49-4.45 1.949-1.981 1.638 2.465-.304 9.91-.03 13.517 1.188 3.603 1.21 2.857 1.865 1.645 3.572-1.211 1.702-2.031 2.167-2.83 5.472l.022-.002c-.675 3.37 1.56 7.569-5.176 8.234-3.571.354-7.499-.124-11.06-.408-2.54-.202-5.552-.563-8.456-.429 1.395 5.462 5.208 10.043 10.016 13.387 1.536.038 3.052.251 4.379.607 2.521.681 4.521 2.594 6.331 4.38 1.33.359 2.66.629 3.97.804v-.091a362.304 362.304 0 0 1-.05-4.662c-.002-1.26.321-2.253.936-2.87.4-.399.907-.619 1.434-.619.319 0 .639.088.937.25 2.011-3.545 4.547-6.94 5.062-11.258.479-4.02 1.071-5.129 4.847-5.793 1.424-.257 2.137-.983 2.674-2.209.417-.934.253-1.904-.654-2.49zM43.61 76.907c-.333-.038-.675-.102-1.012-.152.298 2.113-.238 4.333-1.146 6.896-.317.904.094 1.562.721 1.914.142 0 .284-.008.424-.008a9.172 9.172 0 0 0 1.101-1.2c-.028-2.4-.044-4.801-.082-7.202l-.006-.248z"/><path d="M11.851 68.555c-1.593 4.222-2.165 12.43-2.28 15.166-.112 2.738 2.966 2.62 2.51 0-.458-2.621 2.28-11.745 2.28-12.544 0-.802-1.14-1.486-2.51-2.622zm38.128-6.806c-.871.417-.951 1.406-1.674 2.583 0 0 3.116 1.905 3.116 3.88 0 1.376-.467 2.518-1.345 4.024a22.212 22.212 0 0 0 2.451-.406c.759-1.476 1.434-2.979 1.786-4 .835-2.432-.38-3.88-1.214-4.867-.839-.986-2.245-1.636-3.12-1.214z"/></g></symbol><symbol id="match" viewBox="0 0 60 56"><g fill="#E96625"><path d="M59.089 37.09c-.331-11.443-8.799-26.302-16.503-34.881-1.582-1.757-4.474-3.93-2.936 1.298 2.369 8.08-4.166 19.52-7.193 26.058a119.913 119.913 0 0 0 3.063 3.076c1.674 1.597 4.055 3.379 6.203 5.34 2.453.184 4.686 1.382 5.632 3.842.859 2.233 1.103 5.352-.895 7.066-1.913 1.638-5.141 1.318-7.122-.08-2.077-1.47-3.139-3.519-3.308-5.939-1.769-1.869-3.634-3.615-5.552-5.296-.155 2.117-.064 4.242.312 6.179 1.075 5.556 5.572 11.283 11.007 11.862 4.654.735 9.499-1.17 12.817-4.374 3.819-3.687 4.485-9.187 4.546-13.844.001-.115-.043-.207-.071-.307z"/><path d="M32.456 29.565C25.382 22.272 13.727 9.222 8.523 4.118a1.402 1.402 0 0 0-.667-.363C4.621-.191-.076 3.955.995 8.644c.898 3.947 18.385 19.763 21.381 22.188 2.748 2.229 5.472 4.429 8.104 6.742.192-2.636.767-5.261 1.738-7.509.074-.169.158-.333.238-.5z"/></g></symbol><symbol id="mineral" viewBox="0 0 50 70"><g fill="#278E34"><path d="M48.423 45.939c-7.964.735-15.317 6.047-18.808 15.194a1.268 1.268 0 0 0-.084.491c-.127.175-.18.403-.196.639-1.693 3.73 5.944 2.924 7.453 2.62 6.754-1.35 11.727-8.911 12.765-17.394.101-.827-.467-1.614-1.13-1.55zm-27.959 9.842a1.23 1.23 0 0 0-.08-.496C16.893 46.139 9.54 40.83 1.575 40.092c-.663-.064-1.23.727-1.13 1.554 1.039 8.479 6.011 16.044 12.766 17.395 1.509.303 9.146 1.106 7.449-2.624-.012-.237-.064-.465-.196-.636zm15.53-16.58c5.376-1.158 5.955-6.69 3.671-10.576-.807-1.374-1.941-2.736-3.259-3.97 4.458-1.428 8.348-4.488 8.396-8.168.068-5.269-5.424-7.09-9.906-5.864-1.198.329-2.44.829-3.65 1.458.623-4.447-.528-9.119-3.947-10.784-4.909-2.393-9.042 1.518-9.873 5.907-.296 1.558-.332 3.311-.136 5.077-1.23-.671-2.492-1.207-3.718-1.562-4.461-1.291-9.978.451-9.989 5.728-.008 3.95 4.417 7.269 9.262 8.601-3.191 3.776-4.829 8.987-2.413 12.229 3.204 4.29 8.751 2.652 11.611-.875 1.095-1.35 2.042-3.025 2.736-4.829 2.284 4.613 6.921 8.552 11.215 7.628z"/><path d="M26.12 36.102a14.544 14.544 0 0 1-.256-.343c-.219-.256-.459-.416-.719-.408-1.13.036-1.761 1.166-2.157 2.437-.679 8.727-.439 17.49-.403 26.29.124 4.002.967 4.816 2.38 5.285 1.103.359 2.113-.707 2.153-2.253.247-9.43.606-18.856.111-28.254-.246-.746-.618-1.968-1.109-2.754z"/></g></symbol><symbol id="procure" viewBox="0 0 72 72"><g fill="#278E34"><path d="M70.035 43.625a12.774 12.774 0 0 0-1.39-3c-3.355-5.26-8.6-8.16-14.767-8.16-3.866 0-7.831 1.159-11.463 3.351-5.039 3.044-8.372 7.578-9.388 12.77-.949 4.849.273 9.853 3.441 14.095 5.728 7.669 11.817 9.278 15.921 9.278 6.19 0 12.357-3.747 16.092-9.782 3.715-5.998 4.29-12.92 1.554-18.552zm-4.981 16.429c-3.008 4.856-7.86 7.872-12.665 7.872h-.002c-4.56 0-8.945-2.648-12.688-7.661-2.513-3.363-3.451-7.133-2.716-10.904.795-4.058 3.466-7.645 7.517-10.089 3.003-1.814 6.246-2.772 9.378-2.772 4.741 0 8.777 2.237 11.364 6.295.407.639.743 1.374.986 2.172l.124.308c2.191 4.402 1.706 9.926-1.298 14.779z"/><path d="M52.241 39.403h-.14c-3.865 0-7.285 1.414-9.634 3.978-2.197 2.405-3.235 5.64-2.924 9.119.821 9.15 6.626 12.41 11.787 12.41h.004c6.099 0 13.073-4.389 13.781-11.499.18-.735.268-1.466.256-2.177-.105-6.79-5.625-11.766-13.13-11.831zm10.245 13.441l-.038.216c-.493 5.48-6.145 9.163-11.113 9.163h-.005c-2.468 0-8.304-.97-9.107-9.961-.247-2.756.523-5.201 2.229-7.062 1.832-2.005 4.548-3.107 7.761-3.107h.004c4.973.044 10.368 2.936 10.466 9.183a5.86 5.86 0 0 1-.197 1.568z"/><path d="M52.081 43.765c-1.851 0-3.603.711-5.064 2.053-2.848 2.621-3.827 5.808-2.682 8.744 1.212 3.111 4.631 5.368 8.13 5.368 1.384 0 2.708-.363 3.835-1.055a5.48 5.48 0 0 0 1.184-.711c3.351-2.648 3.736-7.293.917-11.044-1.603-2.128-3.907-3.355-6.32-3.355zm3.737 12.295a3.18 3.18 0 0 1-.669.387l-.193.1c-.729.46-1.566.695-2.491.695-2.392 0-4.811-1.573-5.624-3.658-.743-1.901-.052-3.903 1.997-5.783.955-.879 2.077-1.343 3.243-1.343 1.558 0 3.08.831 4.172 2.285 1.584 2.104 2.123 5.291-.435 7.317z"/><path d="M50.184 49.481c-3.491 3.208 1.004 6.77 3.637 5.104.206-.088.357-.188.457-.268 1.414-1.118 1.35-2.94.319-4.31-1.128-1.501-3.035-1.797-4.413-.526zM30.996 17.088c-2.792 3.423-6.115 6.459-9.035 9.738-4.393 4.933-15.15 17.723-19.935 22.264C.552 50.488.049 52.033.333 54.019c.231 1.614 1.37 3.415 3.157 3.507 2.942.156 5.454-3.662 7.094-5.64 2.451-2.948 11.018-14.139 13.51-17.059 3.813-4.466 7.609-8.936 11.336-13.465-.895-1.126-2.912-2.653-4.434-4.274zm5.66 3.028c2.914 3.747 4.018 7.333 7.521 10.525.463.419 1.29.547 1.813.147 1.614-1.238 3.084-2.688 4.492-4.218 2.063-2.245 3.988-4.661 5.985-6.938.449-.52 2.127-2.568 2.586-3.06.345-.371.697-.751 1.049-1.106.581-.579.475-1.593-.11-2.121-3.35-3.011-7.943-4.433-11.473-7.229-2.413-2.42-6.866-7.129-8.128-5.864-1.771 1.77-4.496 4.538-6.742 7.086-1.207 1.37-2.28 2.676-2.986 3.723-2.016 3.004 4.263 6.838 5.993 9.055z"/></g></symbol><symbol id="tools" viewBox="0 0 73 74"><g fill="#008DA8"><path d="M55.776 36.874c-6.135.016-13.137 1.15-18.968 2.752.024.16.096.288.096.467.021 3.954 1.198 7.621 1.031 11.575-.108 2.549-.064 6.323-2.625 7.821-2.899 1.702-3.747-2.013-5.108-4.941-.02.164-1.074-2.86-1.095-2.696-.323 2.572-.778 11.012-3.826 11.787-3.571.911-5.217-3.183-4.997-6.003.139-1.762.124-3.379.195-5.145.076-1.87.503-4.138.447-6.007-7.178 4.509-13.62 10.772-18.286 18.253a2.28 2.28 0 0 0-.331 1.003c-.388.339-.571.794-.667 1.282-5.352 7.385 14.95 7.137 19 6.794 18.105-1.53 32.991-16.22 37.732-33.527.466-1.69-.844-3.419-2.598-3.415z"/><path d="M70.455 61.909c1.246-2.888 2.225-5.472 1.234-8.603-.367-1.163-.982-2.541-2.013-3.235.312-15.536-1.134-31.086-.26-46.626 1.291-1.22.695-2.66-.623-1.459C60.078 9.91 50.037 16.782 40.43 23.663a1.904 1.904 0 0 0-1.17-.28c-3.267.268-5.556-3.527-7.772-5.692-1.89-2.564-3.851-5.843-1.805-6.015 1.741-.144 2.939-6.686-.783-9.59-2.532-1.978-5.939-1.37-7.013.75-2.237 4.41 1.917 7.221 1.17 9.007-3.451 8.631-7.505 15.957-8.995 25.203-.028.152-.048.295-.072.447-.044.284-.096.563-.135.851-.304 2.125-.412 4.01-.383 5.069.067 2.682 3.858 2.792 4.305.385a42.66 42.66 0 0 1 4.817-4.695c-.056 3.623-.364 7.001-.451 10.768-.196 4.079-.104 8.201.108 10.006.327 2.748 3.639 3.299 3.739.407.08-2.388 1.338-7.142 1.709-11.915.128-.339.248-.675.396-1.026.843-1.981 4.534 8.451 4.558 8.724.192 2.288 2.596 2.887 2.968.279.027-.199.024-.391.047-.591a.07.07 0 0 0 .028.004l-.012-.196c.946-8.22-1.57-15.883-2.293-23.947a243.198 243.198 0 0 0 6.067-3.896A2.139 2.139 0 0 0 41 26.667a69.205 69.205 0 0 0 2.968-2.167c8.403-6.549 16.068-12.651 23.933-19.707-.719 14.936.611 29.889.335 44.818-.008.002-.012-.002-.016 0-.496.008-.759.367-.799.755-1.57 1.953-2.66 4.222-2.245 6.822.216 1.354.623 2.612 1.194 3.854.275.603 1.167 1.698.854 2.393-.379.847-1.394 1.609-1.985 2.329-.332.407-.339 1.042.171 1.325 1.243.688 4.657.987 5.912.252 2.224-1.301-1.518-3.914-.867-5.432zM18.076 39.378c0-.038 0-.076.004-.112.12-.938.263-1.886.459-2.884.987-5.157 3.331-3.555 3.926-.711a50.052 50.052 0 0 0-4.389 3.707zm15.113-11.842a20.381 20.381 0 0 0-.119-2.125c.767.659 1.573 1.226 2.452 1.649-.759.498-1.525.987-2.293 1.474-.007-.335-.04-.663-.04-.998z"/></g></symbol><symbol id="wood-fire" viewBox="0 0 54 76"><g fill-rule="nonzero" fill="#E96625"><path d="M28.822 63.538c-3.79-1.326-8.264-2.313-8.971-6.962-.016-.647-.036-1.298-.04-1.929 1.909 1.786 4.05 2.493 6.51 3.515 1.574.655 4.613 2.061 5.908.22 1.558-2.213-1.793-4.41-3.483-4.989-3.822-1.322-8.6-2.013-8.935-7.058-.008-.116-.056-.2-.084-.299v-.176c1.746 1.989 4.114 2.959 6.682 3.338 1.426.208 5.373-.111 3.767-2.671-2.425-3.863-10.92-2.816-10.365-8.516 1.59 1.119 3.615 2.062 5.364 1.135 2.229-1.179 1.382-3.73-.511-4.645-1.397-.675-2.752-1.015-3.503-2.517-1.122-2.256-1.917-5.028-2.045-7.625-.104-2.005-1.143-2.524-1.945-2.125-.667.064-1.33.727-1.442 2.108-.212 2.588-.639 5.648-1.765 7.905-.751 1.502-2.102 1.845-3.503 2.512-1.893.918-2.74 3.471-.511 4.649 1.75.926 3.895-.739 5.488-1.857.551 5.7-8.064 5.376-10.489 9.238-1.605 2.556 2.34 2.88 3.767 2.672 2.572-.379 5.057-2.073 6.806-4.063 0 .061 0 .116-.004.176-.024.1-.071.183-.08.295-.335 5.049-5.236 6.458-9.059 7.785-1.69.579-5.041 2.776-3.483 4.988 1.294 1.837 4.334.44 5.908-.22 2.459-1.022 4.72-2.448 6.63-4.237 0 .635-.02 1.282-.04 1.929-.703 4.649-5.3 6.358-9.09 7.685-2.445.859-5.133 2.356-5.465 5.168-.331 2.788 4.538 3.14 6.135 2.205 2.813-1.638 5.512-4.006 8.037-6.223-.148 3.747-.731 7.206-.308 10.665.963-.016 1.925 0 2.888.028a53.31 53.31 0 0 1 2.96.083c.459-3.427-.164-6.506-.316-10.317 2.528 2.217 5.104 3.863 7.917 5.504 1.598.927 6.462.583 6.135-2.205-.332-2.812-3.02-4.31-5.465-5.169z"/><path d="M53.41 38.327a1.603 1.603 0 0 0-1.306-1.206 1.604 1.604 0 0 0-1.613.747c-.028.048-2.017 3.275-6.007 7.242 6.994-14.567 4.286-28.411 4.146-29.098a1.6 1.6 0 0 0-3.031-.315c-.024.06-2.373 5.16-10.888 10.069 3.335-7.357 3.559-15.88 3.567-16.32a1.6 1.6 0 0 0-2.756-1.134c-.032.036-2.884 2.956-9.227 5.024 1.789-5.512.295-11.479.216-11.779a1.587 1.587 0 0 0-1.546-1.19h-.016a1.612 1.612 0 0 0-1.542 1.239c-.008.032-.831 3.271-5.523 6.794-.879.659-1.881 1.338-2.94 2.061-5.46 3.714-12.254 8.332-10.712 15.785a1.594 1.594 0 0 0 1.885 1.238 1.595 1.595 0 0 0 1.242-1.889c-1.11-5.36 4.466-9.146 9.383-12.494 1.09-.743 2.121-1.441 3.06-2.145 1.841-1.382 3.191-2.752 4.173-3.979.044 2.48-.323 5.521-1.937 7.937a1.598 1.598 0 0 0 1.685 2.443c5.168-1.178 8.792-3 11.072-4.465-.5 4.166-1.853 11.132-5.496 15.765a1.6 1.6 0 0 0 1.901 2.452c7.821-3.442 12.306-7.445 14.751-10.313.355 6.447-.3 19.324-9.199 30.768a1.597 1.597 0 0 0 2.165 2.297c5.568-3.818 9.462-7.984 11.767-10.836.048 5.596-1.65 16.212-13.181 26.149a1.592 1.592 0 0 0-.167 2.253c.315.368.763.555 1.21.555.368 0 .739-.132 1.042-.388C57.424 56.225 53.582 39.05 53.41 38.327z"/></g></symbol><symbol id="worry" viewBox="0 0 70 70"><g fill="#E5B06D"><path d="M35.399 16.412c3.986-.607 7.065.898 9.588 3.838a34.268 34.268 0 0 0-6.836 3.164c-.549.339-.815 1.122-.439 1.689 1.228 1.873 2.464 2.812 3.754 3.164 1.23-1.274 2.6-2.349 4.333-2.908.795-.256 1.658-.456 2.526-.659.377-.136.753-.268 1.148-.416 4.417-1.689 7.092-5.704 11.657-6.603.126-.431.178-.882.01-1.325-.579-1.526-2.213-1.491-3.798-1.079.007-.367.018-.731.024-1.11.046-2.6 2.071-5.548 2.776-8.092.295-1.059-.875-1.921-1.813-1.395-1.8 1.011-3.305 2.146-4.526 3.838-1.573 2.189-2.308 5.077-5.184 4.011-4.663-1.726-9.832-1.817-14.171.798-.554.332-.666.875-.528 1.354-.254.768.38 1.89 1.479 1.731zM29.112 6.45c.18-.371.017-.891-.379-1.051-5.288-2.172-11.104 5.652-14.555 15.07v.004c-.625.696-1.314-.064-1.348-.631.002-.076-.196-.491.284-1.322 1.779-3.083 4.387-7.852.473-10.537-3.271-2.245-6.093-.08-7.105 3.26-.725 2.396.399 4.669 1.566 6.658.295.503.087 1.039-.396 1.582C3.996 22.495 4.78 11.72 5.893 8.347c.92-2.795 3.509-5.168 4.248-6.386.01-.032.003-.06.018-.096C10.565.902 9.931.339 9.147.043 3.827.294.017 6.89.052 17.789c.006 2.077.251 3.971.589 5.752.685 6.027 1.044 19.387.82 22.723-.248 3.727-.611 19.439.072 21.149.052 2.317 3.798 2.219 4.062-.271l.058-.539c.008-.036.02-.064.028-.1 1.951-8.999 2.075-18.065 2.682-20.323.523-1.929 2.172-1.873 2.172 2.896 0 3.658 1.274 15.05 1.53 17.294.018.251.026.503.048.759.196 2.401 3.639 2.581 4.022.547.036-.156.06-.335.068-.547.084-3.239.99-23.661 1.106-27.64.172-5.751-.03-12.809 1.534-18.213.048-.162.066-.28.098-.419 3.341-10.477 8.951-11.9 10.171-14.407zm6.611 42.63c0-.012.004-.02.004-.031-.299.615-.745 1.298-1.474 2.037-1.662 1.686-4.21 2.165-6.245 3.191-.897.456-1.083 2.209.221 2.253 2.079.072 4.086-.204 6.015-.995 1.47-.703 1.726-3.579 1.479-6.455z"/><path d="M68.643 40.101c-1.498.048-2.828.335-4.214.635a8.11 8.11 0 0 1 .935-1.901c.538-.95-.58-1.885-1.478-1.586-3.315 1.091-6.451-.139-9.55.843-.355.112-.723.52-.743.903-.074 1.593.811 2.979 2.193 3.846a14.59 14.59 0 0 0 1.929 1.118c-.741 2.353-.911 3.112-2.541 3.687-2.796.825-13.628-2.425-17.604-4.086-2.53-1.446-5.923-3.976-6.584-8.728-.639-4.601-2.557-6.279-3.408-6.259-.639.017-3.558 3.958-2.216 9.455 1.342 5.497 6.391 8.895 11.471 9.178.092.101.167.224.22.376.643 1.893.966 4.797.196 6.71-.375.926-.819 2.021-1.518 2.82-.28.387-.496.639-.432.583-1.638 2.053-3.147 2.856-6.371 4.569-.683.363-1.019 1.338-.1 1.642 2.676.879 5.5-.263 7.581-1.981 1.832-1.822 2.326-3.191 3.854-4.281 1.498-1.067 3.295.047 4.833.351 3.643.727 6.806 1.426 9.029 3.886 1.08.911 2.033 1.985 2.797 3.331 1.073 1.877 1.989 3.591 3.95 4.605 1.015.531 1.812-.567 1.59-1.474-.854-3.531-2.221-6.219-4.477-8.56.038-.02-.26-.339-.224-.363-.144-.335 4.869-4.374 4.895-4.401 3.781-3.878 1.676-9.542 6.787-12.798 1.058-.67.294-2.152-.8-2.12z"/><path d="M62.921 56.685c-.314.24-.611.5-.881.764-.615.606-1.366 1.102-1.943 1.725-.024.024-.05.032-.074.052 1.306.467 2.502 1.142 3.707 1.921 1.578 1.027 3.003 2.037 4.829 2.556.837.24 1.368-.735 1.165-1.418-.766-2.572-4.942-4.342-6.803-5.6z"/></g></symbol></svg>