<svg xmlns="http://www.w3.org/2000/svg" viewBox="0 0 32.91 26"><title>Ресурс 3</title><g id="Слой_2" data-name="Слой 2"><g id="checkout_1000px_4" data-name="checkout 1000px 4"><path d="M7.05,7.27V19.56m6.23-6.14H1" style="fill:none;stroke:#4f5a67;stroke-linecap:round;stroke-linejoin:round;stroke-width:2px;opacity:0.5"/><path d="M29.93,20.37l-4.26-2.16a1.65,1.65,0,0,1-.9-1.48V15c.12-.14.26-.32.41-.53A10.08,10.08,0,0,0,26.5,11.8a1.36,1.36,0,0,0,.95-1.29V8.7a1.35,1.35,0,0,0-.45-1V5.08S27.53,1,22.1,1s-4.91,4.08-4.91,4.08V7.7a1.35,1.35,0,0,0-.45,1v1.81a1.36,1.36,0,0,0,.62,1.14A9,9,0,0,0,19,15v1.65a1.65,1.65,0,0,1-.85,1.45l-4,2.2a3.64,3.64,0,0,0-1.87,3.19V25H31.91V23.62a3.63,3.63,0,0,0-2-3.25Zm0,0" style="fill:none;stroke:#4f5a67;stroke-linecap:round;stroke-linejoin:round;stroke-width:2px;opacity:0.5"/></g></g></svg>