<svg xmlns="http://www.w3.org/2000/svg" viewBox="0 0 100 112.3"><title>Ресурс 1</title><g id="Слой_2" data-name="Слой 2"><g id="checkout_1000px_4-2" data-name="checkout 1000px 4-2"><path id="_Контур_" data-name="&lt;Контур&gt;" d="M0,33.08V79.22a10,10,0,0,0,5,8.66L45,111a10,10,0,0,0,10,0L95,87.88a10,10,0,0,0,5-8.66V33.08a10,10,0,0,0-5-8.66L55,1.34a10,10,0,0,0-10,0L5,24.42A10,10,0,0,0,0,33.08Z" style="fill:#808d9b;fill-opacity:0.30000000000000004"/><path d="M76.6,37.16c-11.13-3.77-16.46-6.56-26.6-13-10.14,6.49-15.47,9.28-26.6,13-.24,7.59,0,16.32,0,25S27,76.62,32.72,80.94C38.9,85.59,49.79,90.28,50,90.28s11.1-4.69,17.28-9.35C73,76.62,76.6,70.75,76.6,62.11S76.84,44.75,76.6,37.16Z" style="fill:#4f5a67;opacity:0.2"/><line x1="19.67" y1="57.26" x2="34.33" y2="57.26" style="fill:none;stroke:#00ab8a;stroke-linecap:round;stroke-miterlimit:10;stroke-width:3px"/><line x1="62.76" y1="44.67" x2="44.33" y2="67.9" style="fill:none;stroke:#4f5a67;stroke-linecap:round;stroke-miterlimit:10;stroke-width:3px"/><circle cx="44.13" cy="49.74" r="5.51" style="fill:none;stroke:#00ab8a;stroke-linecap:round;stroke-miterlimit:10;stroke-width:3px"/><circle cx="61.9" cy="64.65" r="5.51" style="fill:none;stroke:#4f5a67;stroke-linecap:round;stroke-miterlimit:10;stroke-width:3px"/></g></g></svg>