<svg xmlns="http://www.w3.org/2000/svg" viewBox="0 0 100 112.3"><title>Ресурс 2</title><g id="Слой_2" data-name="Слой 2"><g id="checkout_1000px_4-2" data-name="checkout 1000px 4-2"><path id="_Контур_" data-name="&lt;Контур&gt;" d="M0,33.08V79.22a10,10,0,0,0,5,8.66L45,111a10,10,0,0,0,10,0L95,87.88a10,10,0,0,0,5-8.66V33.08a10,10,0,0,0-5-8.66L55,1.34a10,10,0,0,0-10,0L5,24.42A10,10,0,0,0,0,33.08Z" style="fill:#808d9b;fill-opacity:0.30000000000000004"/><path d="M78.92,72.32c-2.24-7.57-13.46-6.73-18.31-8.91a6.29,6.29,0,0,1-3.12-3.22c3.37-2.63,5.14-6.57,6-10.72,1.15-.13,1.83-1.83,2.21-3.93.32-1.8.46-3.34-.3-4.1.05-.27.1-.55.13-.84.57-5.5-.55-13.23-4.67-13a12.45,12.45,0,0,0-5.14-5.07,15.85,15.85,0,0,0-9.32-.73c-4,.86-10.52,3.58-12,9.41,0,0-1.39,6-.07,10.56-.56.85-.38,2.23-.1,3.8.38,2.11,1.14,3.77,2.3,3.88.84,4.15,2.61,8.09,6,10.72a6.29,6.29,0,0,1-3.12,3.21c-4.85,2.17-16.07,1.33-18.31,8.91-1.23,4.18-1.17,5.46-1.52,10.08a179.45,179.45,0,0,0,30.09,3,193.31,193.31,0,0,0,30.79-3C80.1,77.77,80.16,76.5,78.92,72.32Z" style="fill:#4f5a67;opacity:0.2"/><path d="M21.51,39.8a6,6,0,0,1,1.71-4.11A5.81,5.81,0,0,1,27.33,34H73.17A5.84,5.84,0,0,1,79,39.8V67.12a5.84,5.84,0,0,1-5.83,5.83H27.33a5.84,5.84,0,0,1-5.83-5.83" style="fill:none;stroke:#00ab8a;stroke-linecap:round;stroke-miterlimit:10;stroke-width:3px"/><line x1="47.24" y1="44.32" x2="70.22" y2="44.32" style="fill:none;stroke:#4f5a67;stroke-linecap:round;stroke-linejoin:round;stroke-width:3px"/><line x1="54.59" y1="51.32" x2="70.22" y2="51.32" style="fill:none;stroke:#4f5a67;stroke-linecap:round;stroke-linejoin:round;stroke-width:3px"/><line x1="13.47" y1="53.14" x2="29.54" y2="53.14" style="fill:none;stroke:#4f5a67;stroke-linecap:round;stroke-linejoin:round;stroke-width:3px"/><line x1="21.51" y1="45.11" x2="21.51" y2="61.18" style="fill:none;stroke:#4f5a67;stroke-linecap:round;stroke-linejoin:round;stroke-width:3px"/></g></g></svg>