<?xml version="1.0" encoding="UTF-8"?><!DOCTYPE svg PUBLIC "-//W3C//DTD SVG 1.1//EN" "http://www.w3.org/Graphics/SVG/1.1/DTD/svg11.dtd"><svg xmlns="http://www.w3.org/2000/svg"><symbol id="arrow-left" viewBox="0 0 13.95 40.63"><title>arrow-left</title><g fill="none" stroke="#d77d28" stroke-linecap="round" stroke-linejoin="round" stroke-width="2.97" data-name="&#x421;&#x43B;&#x43E;&#x439; 2"><path d="M12.47 1.48L1.48 20.31M12.47 39.14L1.48 20.31"/></g></symbol><symbol id="arrow-right" viewBox="0 0 13.95 40.63"><title>arrow-right</title><g fill="none" stroke="#d77d28" stroke-linecap="round" stroke-linejoin="round" stroke-width="2.97" data-name="&#x421;&#x43B;&#x43E;&#x439; 2"><path d="M1.48 1.48l10.99 18.83M1.48 39.14l10.99-18.83"/></g></symbol><symbol id="comment-date" viewBox="0 0 18.46 18.6"><title>comment-date</title><path d="M18.46 18.6H1.11v-.87H0V1.1h2.82a1.24 1.24 0 0 1 .34-.78A1 1 0 0 1 3.88 0q.94 0 1 1.1H7.4a1.25 1.25 0 0 1 .34-.78A1 1 0 0 1 8.45 0q.94 0 1 1.1h2.6a1.25 1.25 0 0 1 .34-.78 1 1 0 0 1 .75-.32q.94 0 1 1.1h3.16V2h1.11zm-1.63-1.3V1.53h-3.67a.53.53 0 0 0 .24.38c.14.09.2.17.2.24s-.15.33-.46.33a1 1 0 0 1-1-.95H8.46a.53.53 0 0 0 .24.38c.14.09.2.17.2.24s-.15.33-.46.33a1 1 0 0 1-1-.95H3.89a.53.53 0 0 0 .24.38c.14.09.2.17.2.24s-.15.33-.46.33a1 1 0 0 1-1-.95H.53V17.3zm1.11.87V2.4h-.58v15.33H1.63v.44z" fill="#6d6e71" data-name="&#x421;&#x43B;&#x43E;&#x439; 2"/></symbol><symbol id="icon-close" viewBox="0 0 22.199 22.199"><path fill="#FFF" d="M22.199 2.804L19.396 0 11.1 8.297 2.804 0 0 2.803 8.297 11.1 0 19.396l2.803 2.803 8.297-8.297 8.296 8.297 2.803-2.803-8.296-8.296z"/></symbol><symbol id="icon-menu" viewBox="0 0 33.4 32"><style>.st0{fill:#fff}</style><path class="st0" d="M0 0h33.4v5.8H0V0zm0 13.1h33.4v5.8H0v-5.8zm0 13.1h33.4V32H0v-5.8z"/></symbol><symbol id="paginator" viewBox="0 0 127.92 7.38"><title>paginator</title><g data-name="&#x421;&#x43B;&#x43E;&#x439; 2"><path stroke="#165d6d" fill="none" stroke-miterlimit="10" d="M8.16 3.69h1.41"/><path fill="none" stroke="#165d6d" stroke-miterlimit="10" stroke-dasharray="2.85 2.85" d="M12.43 3.69h112.64"/><path fill="none" stroke="#165d6d" stroke-miterlimit="10" d="M126.5 3.69h1.42"/><path d="M10 3.69L12.15.08 12 0 6.14 2.34 0 3.69 6.14 5 12 7.38l.12-.06z" fill="#165d6d"/></g></symbol><symbol id="reply" viewBox="0 0 30.47 22.43"><path d="M.33 8.54L11.06.13c.46-.36 1.06.06 1.07.74v3.02c2.2 0 20.21-.51 18.12 18.54 0 0-6.18-12.88-17.94-8.74V17.29c0 .69-.57 1.12-1 .78l-11-8a1 1 0 0 1 .02-1.53z" data-name="&#x421;&#x43B;&#x43E;&#x439; 2"/></symbol><symbol id="upload" viewBox="0 0 21.92 21.9"><title>upload</title><path d="M19.86 12.94l-3 3a4.55 4.55 0 0 1-6.44-6.43l3-3 2 2-3 3a1.75 1.75 0 0 0 2.48 2.48l3-3a4.23 4.23 0 0 0 0-6l-1-1A4.21 4.21 0 0 0 11 4l-7 7a4.21 4.21 0 0 0 0 5.93l1 1a4.21 4.21 0 0 0 4.57.91A7.45 7.45 0 0 0 12.82 20 7 7 0 0 1 3 19.86l-1-1A7 7 0 0 1 2 9l7-7a7 7 0 0 1 9.91 0l1 1a7 7 0 0 1 0 9.91z" fill="#fff" fill-rule="evenodd" data-name="&#x421;&#x43B;&#x43E;&#x439; 2"/></symbol><symbol id="user" viewBox="0 0 20.99 21.07"><title>user</title><path d="M13.23 11.6V13c5.15 3 7.76 1.45 7.76 8.11H0c0-6.96 2.58-5.19 7.7-8.11v-1.24c-.9-.61-1.09-1.77-1.38-3-.13 0-.26-.19-.26-.48v-.06a3.2 3.2 0 0 1-.22-.61c-.1-.35-.45-1.09-.13-1.45a.27.27 0 0 1 .42 0c-.39-2-.87-4.54 1.84-5.31C7.92-.79 14.26 0 15 2.65a10.36 10.36 0 0 1-.1 3.51.24.24 0 0 1 .39-.16c.32.26-.06 1.26-.13 1.58a2.19 2.19 0 0 1-.26.64c0 .29-.13.48-.26.48a4.53 4.53 0 0 1-1.42 2.83z" data-name="&#x421;&#x43B;&#x43E;&#x439; 2"/></symbol></svg>