<?xml version="1.0" encoding="utf-8"?>
<!-- Generator: Adobe Illustrator 16.2.0, SVG Export Plug-In . SVG Version: 6.00 Build 0)  -->
<!DOCTYPE svg PUBLIC "-//W3C//DTD SVG 1.1//EN" "http://www.w3.org/Graphics/SVG/1.1/DTD/svg11.dtd">
<svg version="1.1" id="Слой_1" xmlns="http://www.w3.org/2000/svg" xmlns:xlink="http://www.w3.org/1999/xlink" x="0px" y="0px"
	 width="55.612px" height="61.697px" viewBox="0 0 55.612 61.697" style="enable-background:new 0 0 55.612 61.697;"
	 xml:space="preserve">
<g>
	<g>
		<circle style="fill:#78AA45;" cx="27.612" cy="31" r="20"/>
		<path style="fill:none;stroke:#FFFFFF;stroke-width:4;stroke-linecap:round;stroke-miterlimit:10;" d="M35.356,38.354
			c-1.882,1.882-4.482,3.046-7.354,3.046s-5.472-1.164-7.354-3.046c-1.883-1.883-3.047-4.482-3.047-7.354
			c0-2.872,1.164-5.472,3.047-7.354c1.882-1.882,4.481-3.046,7.354-3.046s5.473,1.164,7.354,3.046"/>
	</g>
	<g id="XMLID_78_" style="opacity:0.8;">
		<g style="opacity:0.5;">
			<path style="fill:#808D9B;" d="M27.806,1c1.208,0,2.416,0.313,3.498,0.937L51.11,13.364c2.167,1.25,3.502,3.562,3.502,6.063
				v22.843c0,2.502-1.335,4.814-3.502,6.064L31.304,59.761c-1.082,0.625-2.29,0.937-3.498,0.937c-1.208,0-2.415-0.312-3.497-0.937
				L4.502,48.335C2.335,47.085,1,44.772,1,42.271V19.427c0-2.502,1.335-4.813,3.502-6.063L24.309,1.937
				C25.391,1.313,26.598,1,27.806,1 M27.806,0c-1.401,0-2.783,0.371-3.997,1.071L4.002,12.498C1.534,13.921,0,16.577,0,19.427
				v22.843c0,2.851,1.534,5.507,4.002,6.931l19.807,11.426c1.213,0.7,2.595,1.07,3.997,1.07s2.784-0.37,3.998-1.07L51.61,49.201
				c2.469-1.424,4.002-4.08,4.002-6.931V19.427c0-2.851-1.533-5.506-4.002-6.93L31.804,1.071C30.59,0.371,29.207,0,27.806,0
				L27.806,0z"/>
		</g>
	</g>
</g>
</svg>
