<svg xmlns="http://www.w3.org/2000/svg" viewBox="0 0 90 117"><title>doc-img</title><g id="Слой_2" data-name="Слой 2"><g id="checkout_1000px_1-2" data-name="checkout 1000px 1-2"><path d="M85.24,117H4.76A4.89,4.89,0,0,1,0,112V5A4.89,4.89,0,0,1,4.76,0H85.24A4.89,4.89,0,0,1,90,5V112A4.89,4.89,0,0,1,85.24,117Z" fill="#f2f2f2"/><line x1="14" y1="69" x2="76" y2="69" fill="none" stroke="#808d9b" stroke-linecap="round" stroke-linejoin="round" stroke-width="4"/><line x1="14" y1="82" x2="59.78" y2="82" fill="none" stroke="#808d9b" stroke-linecap="round" stroke-linejoin="round" stroke-width="4"/><path d="M34.54,45.87,28.4,52l-2.9-2.9a1.5,1.5,0,0,0-2.12,0L14.49,58h34.3L36.65,45.87A1.5,1.5,0,0,0,34.54,45.87Z" fill="#808d9b"/><circle cx="19.76" cy="39.93" r="4.93" fill="#808d9b"/></g></g></svg>