<svg xmlns="http://www.w3.org/2000/svg" viewBox="0 0 473.63 206.36"><title>Ресурс 1</title><g id="Слой_2" data-name="Слой 2"><g id="checkout_1000px_4" data-name="checkout 1000px 4"><g style="opacity:0.4"><path d="M2.17,125.64c41.54-16.44,68.25-16.38,106.32.27,15.61,6.83,31.65,14.13,49.34,13.86,35.78-.56,61.08-24.32,82.64-49.87C257,70.29,275.2,46.09,301.72,39.32c27.53-7,60.43,6.07,87,11.46,38.63,7.83,65.67-9.46,85.11-41.06" transform="translate(-0.65 -9.46)" style="fill:none;stroke:#8c4d70;stroke-miterlimit:10"/><path d="M2.27,135.36c38-15.87,69.33-18.41,106.55-2.46,52.39,22.45,94.75,12.71,132.3-31.14C258.05,82,276.68,56.89,303.51,49.83c27.24-7.17,59.59,4.66,86.17,9.32,35.47,6.21,65-10.48,84.16-39.24" transform="translate(-0.65 -9.46)" style="fill:none;stroke:#8c4d70;stroke-miterlimit:10"/><path d="M2.33,145c36.27-16,70.66-22.18,106.91-5.42,48.52,22.43,95.84,16.22,132.21-26.06,17.55-20.39,36.83-45.9,64.21-53.29,26.95-7.27,58.5,3.38,85.14,7.2,34.76,5,63-11.68,83-38.77" transform="translate(-0.65 -9.46)" style="fill:none;stroke:#8c4d70;stroke-miterlimit:10"/><path d="M2.35,154.95c37.36-17,69.89-26.13,107.48-8.44,47,22.13,96.42,18,131.72-21.07,17.92-19.83,38.31-47.1,66.28-54.8,26.56-7.31,57.64,2,84.11,5.07,35,4,60.81-13,81.74-38.87" transform="translate(-0.65 -9.46)" style="fill:none;stroke:#8c4d70;stroke-miterlimit:10"/><path d="M2.31,165.22c36.75-19.85,69.9-29.73,108.38-11.84,46.14,21.46,95.1,20.36,131.2-16.88,19.25-19.87,38.81-47.24,67.79-55.4,26.28-7.4,56.84.58,83.23,2.95,34.35,3.09,58.94-14.11,80.61-38.14" transform="translate(-0.65 -9.46)" style="fill:none;stroke:#8c4d70;stroke-miterlimit:10"/><path d="M2.19,175.16c36.49-21.34,70.32-33.67,109.53-15C156,181.29,207,183,242.65,147.41c20-20,38.77-47.31,68.37-55.71,26.16-7.43,56.18-.78,82.61.76,33,1.92,58.27-14.5,79.74-37.5" transform="translate(-0.65 -9.46)" style="fill:none;stroke:#8c4d70;stroke-miterlimit:10"/><path d="M2,185.25c36-23,71-37.75,110.71-18.22,42.49,20.89,95.55,24.75,131.15-8.64,20.35-19.09,38.7-48,67.92-56.19,26.11-7.33,55.76-2.31,82.29-1.49,32.86,1,56.62-15.58,79.16-36.74" transform="translate(-0.65 -9.46)" style="fill:none;stroke:#8c4d70;stroke-miterlimit:10"/><path d="M1.66,195.32c36.35-25.1,70.57-40.83,111.69-21.67,41.36,19.27,96.36,26.73,132-4.33,20.2-17.59,39.05-47,66.58-56.37,25.34-8.58,56.21-3.88,82.24-3.62,31,.31,56.93-16.45,78.85-36.29" transform="translate(-0.65 -9.46)" style="fill:none;stroke:#8c4d70;stroke-miterlimit:10"/><path d="M1.31,205.36c34-25,71.72-46.35,112.5-25.85,39.87,20,97.46,29.19,133.31.7,20.62-16.39,38.55-43.55,65.21-53.58,25.23-9.49,55-5.68,81.28-6.14,30.31-.54,56.69-20.59,79.34-38.35" transform="translate(-0.65 -9.46)" style="fill:none;stroke:#8c4d70;stroke-miterlimit:10"/><path d="M1,215.42C34.73,189,73,163.4,114.19,186.71c15.78,8.94,30.06,19.06,48.93,19.55,24.89.64,66,.85,85.62-15.12,20.48-16.71,38.58-40.79,64.6-50.81,24.85-9.57,54.19-6.85,80-8.84,32.33-2.5,53.11-25.89,79.58-40.6" transform="translate(-0.65 -9.46)" style="fill:none;stroke:#8c4d70;stroke-miterlimit:10"/></g></g></g></svg>