<?xml version="1.0" encoding="utf-8"?>
<!-- Generator: Adobe Illustrator 16.2.0, SVG Export Plug-In . SVG Version: 6.00 Build 0)  -->
<!DOCTYPE svg PUBLIC "-//W3C//DTD SVG 1.1//EN" "http://www.w3.org/Graphics/SVG/1.1/DTD/svg11.dtd">
<svg version="1.1" id="Слой_1" xmlns="http://www.w3.org/2000/svg" xmlns:xlink="http://www.w3.org/1999/xlink" x="0px" y="0px"
	 width="148.5px" height="20.7px" viewBox="0 0 148.5 20.7" style="enable-background:new 0 0 148.5 20.7;" xml:space="preserve">
<style type="text/css">
<![CDATA[
	.st0{fill:#4f5a67;}
	.st1{opacity:1;}
]]>
</style>
<g class="st1">
	<g>
		<path class="st0" d="M11.2,16.6c0.4,0,0.7,0.1,1,0.4c0.3,0.3,0.4,0.6,0.4,1c0,0.4-0.1,0.7-0.4,1c-1.4,1.2-2.9,1.8-4.8,1.8
			c-2,0-3.8-0.7-5.2-2.1S0,15.5,0,13.5c0-2,0.7-3.7,2.1-5.1C3.6,7,5.3,6.3,7.3,6.3c1.8,0,3.4,0.6,4.8,1.8c0.3,0.3,0.5,0.6,0.5,1
			c0,0.4-0.1,0.7-0.4,1c-0.3,0.3-0.6,0.4-1,0.4c-0.3,0-0.6-0.1-0.9-0.3C9.9,9.7,9.4,9.4,8.9,9.2C8.5,9.1,7.9,9,7.3,9
			C6.7,9,6.1,9.1,5.5,9.3c-0.6,0.2-1,0.6-1.5,1c-0.4,0.4-0.7,0.9-1,1.4c-0.2,0.5-0.4,1.1-0.4,1.8c0,0.6,0.1,1.2,0.4,1.8
			c0.2,0.5,0.6,1,1,1.4c0.4,0.4,0.9,0.7,1.5,1S6.7,18,7.3,18c0.6,0,1.1-0.1,1.6-0.3c0.5-0.2,1-0.5,1.4-0.8
			C10.6,16.7,10.9,16.6,11.2,16.6z"/>
	</g>
	<path class="st0" d="M26.2,8.4C24.8,7,23.1,6.3,21,6.3c-2,0-3.8,0.7-5.2,2.1c-1.4,1.4-2.1,3.1-2.1,5.1c0,2,0.7,3.7,2.1,5.1
		s3.2,2.1,5.2,2.1c0.9,0,1.7-0.1,2.5-0.4c0.8-0.3,1.5-0.7,2.1-1.2v0.3c0,0.4,0.1,0.7,0.4,0.9s0.6,0.4,1,0.4c0.4,0,0.7-0.1,1-0.4
		c0.3-0.3,0.4-0.6,0.4-0.9v-5.9C28.4,11.5,27.7,9.8,26.2,8.4z M25.3,15.2c-0.2,0.5-0.6,1-1,1.4c-0.4,0.4-0.9,0.7-1.5,1
		C22.3,17.9,21.7,18,21,18c-0.6,0-1.2-0.1-1.8-0.4c-0.6-0.2-1-0.6-1.5-1s-0.7-0.9-1-1.4s-0.4-1.1-0.4-1.8c0-0.6,0.1-1.2,0.4-1.8
		c0.2-0.5,0.6-1,1-1.4s0.9-0.7,1.5-1C19.8,9.1,20.4,9,21,9c0.6,0,1.2,0.1,1.8,0.4c0.6,0.2,1,0.6,1.5,1c0.4,0.4,0.7,0.9,1,1.4
		c0.2,0.5,0.4,1.1,0.4,1.7C25.6,14.1,25.5,14.7,25.3,15.2z"/>
	<g>
		<path class="st0" d="M33.3,7.6v0.3C34,7.3,34.7,7,35.5,6.7c0.8-0.3,1.6-0.4,2.5-0.4c0.4,0,0.8,0,1.2,0.1c0.4,0.1,0.8,0.1,1.2,0.3
			c0.4,0.1,0.7,0.3,0.9,0.5c0.2,0.2,0.4,0.5,0.4,0.9c0,0.2,0,0.4-0.1,0.5c-0.1,0.2-0.2,0.3-0.3,0.4c-0.1,0.1-0.3,0.2-0.4,0.3
			c-0.2,0.1-0.3,0.1-0.5,0.1c-0.2,0-0.4,0-0.6-0.1C39.2,9.1,38.6,9,37.9,9c-0.6,0-1.2,0.1-1.8,0.4c-0.6,0.2-1,0.6-1.5,1
			c-0.4,0.4-0.7,0.9-1,1.4c-0.2,0.5-0.4,1.1-0.4,1.8v5.9c0,0.4-0.1,0.7-0.4,0.9c-0.3,0.3-0.6,0.4-1,0.4c-0.4,0-0.7-0.1-1-0.4
			c-0.3-0.3-0.4-0.6-0.4-0.9V7.6c0-0.4,0.1-0.7,0.4-0.9c0.3-0.3,0.6-0.4,1-0.4c0.4,0,0.7,0.1,1,0.4C33.2,6.9,33.3,7.2,33.3,7.6z"/>
	</g>
	<g>
		<path class="st0" d="M64.5,19.3c0,0.4-0.1,0.7-0.4,1c-0.3,0.3-0.6,0.4-1,0.4c-0.4,0-0.7-0.1-1-0.4c-0.3-0.3-0.4-0.6-0.4-1V12
			c0-0.4-0.1-0.8-0.2-1.2c-0.2-0.4-0.4-0.7-0.7-1c-0.3-0.3-0.6-0.5-1-0.7C59.5,9,59.1,9,58.7,9c-0.4,0-0.8,0.1-1.2,0.2
			c-0.4,0.2-0.7,0.4-1,0.7c-0.3,0.3-0.5,0.6-0.7,1c-0.2,0.4-0.2,0.8-0.2,1.2v7.3c0,0.4-0.1,0.7-0.4,1c-0.3,0.3-0.6,0.4-1,0.4
			c-0.4,0-0.7-0.1-1-0.4c-0.3-0.3-0.4-0.6-0.4-1V12c0-0.4-0.1-0.8-0.3-1.2c-0.2-0.4-0.4-0.7-0.7-1c-0.3-0.3-0.6-0.5-1-0.7
			C50.6,9,50.2,9,49.7,9c-0.4,0-0.8,0.1-1.2,0.2c-0.4,0.2-0.7,0.4-1,0.7c-0.3,0.3-0.5,0.6-0.7,1c-0.2,0.4-0.2,0.8-0.2,1.2v7.3
			c0,0.4-0.1,0.7-0.4,1c-0.3,0.3-0.6,0.4-1,0.4c-0.4,0-0.7-0.1-1-0.4s-0.4-0.6-0.4-1V7.6c0-0.4,0.1-0.7,0.4-0.9
			c0.3-0.3,0.6-0.4,1-0.4c0.3,0,0.6,0.1,0.8,0.3c0.2,0.2,0.4,0.4,0.5,0.7c0.9-0.6,2-0.9,3.2-0.9c0.9,0,1.7,0.2,2.5,0.5
			c0.8,0.3,1.4,0.9,2,1.5c1.2-1.4,2.7-2,4.5-2c0.8,0,1.5,0.2,2.3,0.5C61.7,7,62.3,7.4,62.8,8c0.5,0.5,0.9,1.1,1.3,1.8
			c0.3,0.7,0.5,1.4,0.5,2.2V19.3z"/>
	</g>
	<path class="st0" d="M79.3,8.4c-1.5-1.4-3.2-2.1-5.2-2.1c-2,0-3.8,0.7-5.2,2.1c-1.4,1.4-2.1,3.1-2.1,5.1c0,2,0.7,3.7,2.1,5.1
		c1.4,1.4,3.2,2.1,5.2,2.1c0.9,0,1.7-0.1,2.5-0.4c0.8-0.3,1.5-0.7,2.1-1.2v0.3c0,0.4,0.1,0.7,0.4,0.9c0.3,0.3,0.6,0.4,1,0.4
		c0.4,0,0.7-0.1,1-0.4c0.3-0.3,0.4-0.6,0.4-0.9v-5.9C81.4,11.5,80.7,9.8,79.3,8.4z M78.3,15.2c-0.2,0.5-0.6,1-1,1.4
		c-0.4,0.4-0.9,0.7-1.5,1c-0.6,0.2-1.2,0.4-1.8,0.4c-0.6,0-1.2-0.1-1.8-0.4s-1-0.6-1.5-1c-0.4-0.4-0.7-0.9-1-1.4s-0.4-1.1-0.4-1.8
		c0-0.6,0.1-1.2,0.4-1.8c0.2-0.5,0.6-1,1-1.4c0.4-0.4,0.9-0.7,1.5-1C72.8,9.1,73.4,9,74.1,9c0.6,0,1.2,0.1,1.8,0.4
		c0.6,0.2,1,0.6,1.5,1c0.4,0.4,0.7,0.9,1,1.4c0.2,0.5,0.4,1.1,0.4,1.7C78.7,14.1,78.6,14.7,78.3,15.2z"/>
	<g>
		<path class="st0" d="M86.4,7.6v0.3C87,7.3,87.7,7,88.5,6.7c0.8-0.3,1.6-0.4,2.5-0.4c0.4,0,0.8,0,1.2,0.1c0.4,0.1,0.8,0.1,1.2,0.3
			c0.4,0.1,0.7,0.3,0.9,0.5s0.4,0.5,0.4,0.9c0,0.2,0,0.4-0.1,0.5c-0.1,0.2-0.2,0.3-0.3,0.4S94,9.2,93.9,9.3
			c-0.2,0.1-0.3,0.1-0.5,0.1c-0.2,0-0.4,0-0.6-0.1C92.2,9.1,91.6,9,91,9c-0.6,0-1.2,0.1-1.8,0.4c-0.6,0.2-1,0.6-1.5,1
			c-0.4,0.4-0.7,0.9-1,1.4s-0.4,1.1-0.4,1.8v5.9c0,0.4-0.1,0.7-0.4,0.9c-0.3,0.3-0.6,0.4-1,0.4c-0.4,0-0.7-0.1-1-0.4
			c-0.3-0.3-0.4-0.6-0.4-0.9V7.6c0-0.4,0.1-0.7,0.4-0.9c0.3-0.3,0.6-0.4,1-0.4c0.4,0,0.7,0.1,1,0.4C86.2,6.9,86.4,7.2,86.4,7.6z"/>
	</g>
	<g>
		<path class="st0" d="M97.2,6.3h0.6V1.4c0-0.4,0.1-0.7,0.4-0.9c0.3-0.3,0.6-0.4,1-0.4c0.4,0,0.7,0.1,1,0.4c0.3,0.3,0.4,0.6,0.4,0.9
			v4.8h1.6c0.4,0,0.7,0.1,1,0.4c0.3,0.3,0.4,0.6,0.4,0.9c0,0.4-0.1,0.7-0.4,1s-0.6,0.4-1,0.4h-1.6v6.5c0,1.7,0.9,2.6,2.6,2.6
			c0.4,0,0.7,0.1,1,0.4c0.3,0.3,0.4,0.6,0.4,0.9c0,0.4-0.1,0.7-0.4,1c-0.3,0.3-0.6,0.4-1,0.4c-3.6,0-5.4-1.8-5.4-5.3V9h-0.6
			c-0.4,0-0.7-0.1-1-0.4c-0.3-0.3-0.4-0.6-0.4-1c0-0.4,0.1-0.7,0.4-0.9C96.5,6.4,96.8,6.3,97.2,6.3z"/>
	</g>
	<path class="st0" d="M146.2,7.2c-7.2-4.9-14.7-6.5-19.8-7c-1.5-0.2-3.1-0.2-4.6-0.2c-2.9,0-4.8,0.3-4.8,0.3
		c-0.8,0.1-1.4,0.9-1.2,1.7c0.1,0.7,0.8,1.3,1.5,1.3c0.1,0,0.2,0,0.2,0c0,0,1.7-0.3,4.4-0.3c1.4,0,2.9,0.1,4.3,0.2
		c4.7,0.5,11.6,2,18.3,6.5c0,0,1.3,0.8,0.8,2.2c-0.4,1-1.9,1.5-2.7,1.5c-0.6,0-1.2,0.4-1.4,1c-0.8,1.4-2,2.5-3.3,3
		c-0.5,0.2-1.1,0.3-1.6,0.3c-0.5,0-1-0.1-1.5-0.4c-1.4-0.8-2-2.7-1.5-4.7c0.2-0.8-0.3-1.6-1.1-1.8c-0.1,0-0.2,0-0.3,0
		c-0.7,0-1.3,0.5-1.5,1.2c-0.1,0.5-0.2,1-0.2,1.5h-3.2c-0.1,0-0.1,0-0.1,0c-0.5,0-1,0.3-1.3,0.7c-0.8,1.4-2,2.6-3.3,3.1
		c-0.6,0.3-1.2,0.4-1.7,0.4c-0.5,0-1-0.1-1.4-0.3c-1-0.5-1.5-1.7-1.5-3.2c0-0.8-0.7-1.5-1.5-1.5c-0.8,0-1.5,0.7-1.5,1.5
		c0,2.6,1.1,4.7,3,5.7c0.9,0.5,1.8,0.8,2.9,0.8c1,0,2-0.2,2.9-0.7c1.6-0.7,3.1-2,4.3-3.6h2.9c0.5,1.5,1.5,2.8,2.8,3.5
		c0.9,0.5,1.9,0.8,3,0.8c0.9,0,1.8-0.2,2.8-0.6c1.7-0.7,3.3-2,4.4-3.8c1.3-0.2,4.4-1.6,4.9-3.6C149.2,9,146.5,7.4,146.2,7.2z"/>
	<ellipse class="st0" cx="133.8" cy="8.5" rx="1.8" ry="1.8"/>
	<path class="st0" d="M111.3,8.6c0.3-0.3,0.5-0.7,0.5-1.1c0-0.4-0.2-0.8-0.5-1.1c-0.3-0.3-0.7-0.5-1.1-0.5H108
		c-0.4,0-0.8,0.2-1.1,0.5c-0.3,0.3-0.5,0.7-0.5,1.1c0,0.4,0.2,0.8,0.5,1.1c0.3,0.3,0.7,0.5,1.1,0.5h2.1
		C110.6,9.1,110.9,8.9,111.3,8.6z"/>
	<path class="st0" d="M110.8,4.7h2.1c0.4,0,0.8-0.2,1.1-0.5c0.3-0.3,0.5-0.7,0.5-1.1c0-0.4-0.2-0.8-0.5-1.1
		c-0.3-0.3-0.7-0.5-1.1-0.5h-2.1c-0.4,0-0.8,0.2-1.1,0.5c-0.3,0.3-0.5,0.7-0.5,1.1c0,0.4,0.2,0.8,0.5,1.1
		C109.9,4.6,110.3,4.7,110.8,4.7z"/>
	<path class="st0" d="M114,10.9c-0.3-0.3-0.7-0.5-1.1-0.5h-2.1c-0.4,0-0.8,0.2-1.1,0.5s-0.5,0.7-0.5,1.1c0,0.4,0.2,0.8,0.5,1.1
		c0.3,0.3,0.7,0.5,1.1,0.5h2.1c0.4,0,0.8-0.2,1.1-0.5c0.3-0.3,0.5-0.7,0.5-1.1C114.5,11.6,114.3,11.2,114,10.9z"/>
</g>
</svg>
