<svg xmlns="http://www.w3.org/2000/svg" width="52" height="62" viewBox="0 0 52 62">
  <g fill="#278E34">
    <path d="M12.242 39.853C12.09 33.885 11.923 27.922 11.655 21.959 10.213 21.715 7.649 21.931 5.396 21.743 5.608 26.229 5.165 30.79 5.188 35.255 5.22 41.973 5.036 48.544 4.505 55.234 4.34 57.296 5.012 58.805 6.578 60.115 7.852 61.177 9.937 61.764 11.351 60.614 13.68 58.733 12.985 54.135 12.88 51.528 12.729 47.629 12.342 43.755 12.242 39.853zM26.389 6.333C26.377 5.639 26.381 4.947 26.397 4.264 26.405 3.744 26.409 3.222 26.437 2.71 26.481 1.879 25.71 1.184 24.911 1.184 20.33 1.184 15.752 1.232 11.183 1.52 7.712 1.332 1.138.801 1.042 2.614.91 5.158.734 9.104.767 12.563.787 14.417.863 16.138 1.042 17.413 1.561 21.051 8.918 19.677 11.734 20.181 16.487 21.032 19.762 22.993 24.584 23.021 25.219 23.025 25.934 22.558 26.058 21.899 26.437 19.87 26.561 17.773 26.585 15.656 26.617 12.557 26.425 9.413 26.389 6.333zM49.783 36.705C48.153 36.577 45.561 36.521 42.809 36.506 42.789 37.548 42.773 38.619 42.749 39.757L42.749 39.78 42.749 39.804C42.437 46.191 42.266 49.71 39.17 49.878 39.086 49.882 39.003 49.882 38.922 49.882 37.916 49.882 37.029 49.53 36.37 48.859 34.816 47.281 34.86 44.39 34.904 41.594 34.916 40.803 34.928 40.052 34.904 39.393 34.864 38.446 34.844 37.492 34.808 36.541 32.452 36.573 30.778 36.617 30.726 36.637 26.057 36.517 26.488 35.838 26.476 38.866 26.468 42.106 26.3 49.866 27.199 52.862 29.22 59.56 36.497 63.638 43.14 61.202 51.484 58.146 51.1 49.438 51.204 42.944 51.269 39.114 51.393 36.83 49.783 36.705z"/>
    <path d="M36.095,20.182 C36.223,26.525 36.343,32.851 36.587,39.19 C36.718,42.613 35.899,47.925 38.896,47.925 C38.943,47.925 38.996,47.921 39.047,47.921 C40.613,47.834 40.765,45.193 41.025,39.569 C41.125,33.721 41.181,29.831 41.161,24.503 C41.137,18.192 41.269,12.017 41.648,5.731 C41.763,3.797 41.284,2.379 40.162,1.146 C39.599,0.531 38.816,0.087 38.061,0.087 C37.59,0.087 37.126,0.259 36.735,0.674 C35.066,2.444 35.565,6.765 35.636,9.217 C35.748,12.876 36.023,16.52 36.095,20.182 Z"/>
  </g>
</svg>
