<svg xmlns="http://www.w3.org/2000/svg" width="58" height="68" viewBox="0 0 58 68">
  <g fill="#E96625" transform="translate(0 -1)">
    <path d="M37.891,40.181 C45.971,28.37 38.758,13.636 30.49,4.648 C29.695,3.786 28.533,4.88 28.969,5.823 C32.532,13.539 29.596,20.338 25.858,27.236 C24.535,29.669 23.625,32.201 24.072,34.717 C20.214,32.212 18.081,28.738 16.675,23.992 C16.392,23.045 14.882,23.045 14.802,23.992 C12.583,50.61 31.931,48.884 37.891,40.181 Z"/>
    <path d="M23.543 27.703C24.893 23.07 27.397 19.311 27.218 14.35 27.042 9.445 23.982 4.844 20.871 1.293 20.168.49 19.098 1.369 19.249 2.235 20.155 7.527 18.753 12.432 18.454 17.673 18.266 21.008 19.465 24.191 20.703 27.219 20.891 27.679 22.609 30.919 23.543 27.703zM44.465 59.876C43.175 59.729 41.877 59.804 40.578 59.772 37.355 59.856 34.1 60.407 31.096 61.545L44.528 68.63C44.528 68.63 49.134 66.026 50.272 64.42 50.928 63.499 47.496 61.45 44.465 59.876zM35.218 46.883C39.987 47.331 44.684 48.066 49.505 48.737 51.414 48.154 52.485 47.791 52.485 47.791 52.485 47.791 51.574 44.184 50.436 42.782 46.346 43.585 35.434 46.792 35.434 46.792 35.434 46.792 35.354 46.827 35.218 46.883z"/>
    <path d="M46.462,49.991 C41.369,49.208 36.769,48.565 30.997,48.521 C29.323,48.649 24.259,48.661 22.249,48.393 C16.134,47.574 7.475,43.185 6.113,43.983 C4.747,44.786 2.702,48.792 3.836,50.398 C4.975,52 18.615,55.406 18.615,55.406 C18.615,55.406 4.975,59.213 1.791,60.818 C-1.392,62.42 2.322,66.83 2.778,67.832 C3.234,68.83 5.43,68.83 10.203,67.029 C14.161,65.531 24.427,61.977 27.826,60.802 C34.512,58.137 43.479,57.686 44.865,57.87 L55.665,58.01 L57.486,52.198 C57.486,52.199 52.373,50.59 46.462,49.991 Z"/>
  </g>
</svg>
