<svg xmlns="http://www.w3.org/2000/svg" width="50" height="70" viewBox="0 0 50 70">
  <g fill="#278E34">
    <path d="M48.423 45.939C40.459 46.674 33.106 51.986 29.615 61.133 29.547 61.3 29.531 61.464 29.531 61.624 29.404 61.799 29.351 62.027 29.335 62.263 27.642 65.993 35.279 65.187 36.788 64.883 43.542 63.533 48.515 55.972 49.553 47.489 49.654 46.662 49.086 45.875 48.423 45.939zM20.464 55.781C20.468 55.621 20.452 55.458 20.384 55.285 16.893 46.139 9.54 40.83 1.575 40.092.912 40.028.345 40.819.445 41.646 1.484 50.125 6.456 57.69 13.211 59.041 14.72 59.344 22.357 60.147 20.66 56.417 20.648 56.18 20.596 55.952 20.464 55.781zM35.994 39.201C41.37 38.043 41.949 32.511 39.665 28.625 38.858 27.251 37.724 25.889 36.406 24.655 40.864 23.227 44.754 20.167 44.802 16.487 44.87 11.218 39.378 9.397 34.896 10.623 33.698 10.952 32.456 11.452 31.246 12.081 31.869 7.634 30.718 2.962 27.299 1.297 22.39-1.096 18.257 2.815 17.426 7.204 17.13 8.762 17.094 10.515 17.29 12.281 16.06 11.61 14.798 11.074 13.572 10.719 9.111 9.428 3.594 11.17 3.583 16.447 3.575 20.397 8 23.716 12.845 25.048 9.654 28.824 8.016 34.035 10.432 37.277 13.636 41.567 19.183 39.929 22.043 36.402 23.138 35.052 24.085 33.377 24.779 31.573 27.063 36.186 31.7 40.125 35.994 39.201z"/>
    <path d="M26.12,36.102 C26.033,35.99 25.948,35.874 25.864,35.759 C25.645,35.503 25.405,35.343 25.145,35.351 C24.015,35.387 23.384,36.517 22.988,37.788 C22.309,46.515 22.549,55.278 22.585,64.078 C22.709,68.08 23.552,68.894 24.965,69.363 C26.068,69.722 27.078,68.656 27.118,67.11 C27.365,57.68 27.724,48.254 27.229,38.856 C26.983,38.11 26.611,36.888 26.12,36.102 Z"/>
  </g>
</svg>
