<svg xmlns="http://www.w3.org/2000/svg" width="72" height="72" viewBox="0 0 72 72">
  <g fill="#278E34">
    <path d="M70.035,43.625 C69.688,42.535 69.221,41.528 68.645,40.625 C65.29,35.365 60.045,32.465 53.878,32.465 C50.012,32.465 46.047,33.624 42.415,35.816 C37.376,38.86 34.043,43.394 33.027,48.586 C32.078,53.435 33.3,58.439 36.468,62.681 C42.196,70.35 48.285,71.959 52.389,71.959 L52.389,71.959 C58.579,71.959 64.746,68.212 68.481,62.177 C72.196,56.179 72.771,49.257 70.035,43.625 Z M65.054,60.054 C62.046,64.91 57.194,67.926 52.389,67.926 L52.387,67.926 C47.827,67.926 43.442,65.278 39.699,60.265 C37.186,56.902 36.248,53.132 36.983,49.361 C37.778,45.303 40.449,41.716 44.5,39.272 C47.503,37.458 50.746,36.5 53.878,36.5 C58.619,36.5 62.655,38.737 65.242,42.795 C65.649,43.434 65.985,44.169 66.228,44.967 L66.352,45.275 C68.543,49.677 68.058,55.201 65.054,60.054 Z"/>
    <path d="M52.241,39.403 L52.101,39.403 C48.236,39.403 44.816,40.817 42.467,43.381 C40.27,45.786 39.232,49.021 39.543,52.5 C40.364,61.65 46.169,64.91 51.33,64.91 L51.334,64.91 C57.433,64.91 64.407,60.521 65.115,53.411 C65.295,52.676 65.383,51.945 65.371,51.234 C65.266,44.444 59.746,39.468 52.241,39.403 Z M62.486,52.844 L62.448,53.06 C61.955,58.54 56.303,62.223 51.335,62.223 L51.33,62.223 C48.862,62.223 43.026,61.253 42.223,52.262 C41.976,49.506 42.746,47.061 44.452,45.2 C46.284,43.195 49,42.093 52.213,42.093 L52.217,42.093 C57.19,42.137 62.585,45.029 62.683,51.276 C62.692,51.782 62.625,52.304 62.486,52.844 Z"/>
    <path d="M52.081,43.765 C50.23,43.765 48.478,44.476 47.017,45.818 C44.169,48.439 43.19,51.626 44.335,54.562 C45.547,57.673 48.966,59.93 52.465,59.93 C53.849,59.93 55.173,59.567 56.3,58.875 C56.731,58.684 57.131,58.444 57.484,58.164 C60.835,55.516 61.22,50.871 58.401,47.12 C56.798,44.992 54.494,43.765 52.081,43.765 Z M55.818,56.06 C55.624,56.207 55.401,56.339 55.149,56.447 L54.956,56.547 C54.227,57.007 53.39,57.242 52.465,57.242 C50.073,57.242 47.654,55.669 46.841,53.584 C46.098,51.683 46.789,49.681 48.838,47.801 C49.793,46.922 50.915,46.458 52.081,46.458 C53.639,46.458 55.161,47.289 56.253,48.743 C57.837,50.847 58.376,54.034 55.818,56.06 Z"/>
    <path d="M50.184 49.481C46.693 52.689 51.188 56.251 53.821 54.585 54.027 54.497 54.178 54.397 54.278 54.317 55.692 53.199 55.628 51.377 54.597 50.007 53.469 48.506 51.562 48.21 50.184 49.481zM30.996 17.088C28.204 20.511 24.881 23.547 21.961 26.826 17.568 31.759 6.811 44.549 2.026 49.09.552 50.488.049 52.033.333 54.019.564 55.633 1.703 57.434 3.49 57.526 6.432 57.682 8.944 53.864 10.584 51.886 13.035 48.938 21.602 37.747 24.094 34.827 27.907 30.361 31.703 25.891 35.43 21.362 34.535 20.236 32.518 18.709 30.996 17.088zM36.656 20.116C39.57 23.863 40.674 27.449 44.177 30.641 44.64 31.06 45.467 31.188 45.99 30.788 47.604 29.55 49.074 28.1 50.482 26.57 52.545 24.325 54.47 21.909 56.467 19.632 56.916 19.112 58.594 17.064 59.053 16.572 59.398 16.201 59.75 15.821 60.102 15.466 60.683 14.887 60.577 13.873 59.992 13.345 56.642 10.334 52.049 8.912 48.519 6.116 46.106 3.696 41.653-1.013 40.391.252 38.62 2.022 35.895 4.79 33.649 7.338 32.442 8.708 31.369 10.014 30.663 11.061 28.647 14.065 34.926 17.899 36.656 20.116z"/>
  </g>
</svg>
